<?xml version="1.0" encoding="UTF-8" standalone="no"?>
<svg
   width="64"
   height="64"
   version="1.1"
   id="svg14"
   sodipodi:docname="application-gzip.svg"
   inkscape:version="1.4.3 (0d15f75042, 2025-12-25)"
   xmlns:inkscape="http://www.inkscape.org/namespaces/inkscape"
   xmlns:sodipodi="http://sodipodi.sourceforge.net/DTD/sodipodi-0.dtd"
   xmlns:xlink="http://www.w3.org/1999/xlink"
   xmlns="http://www.w3.org/2000/svg"
   xmlns:svg="http://www.w3.org/2000/svg">
  <defs
     id="defs14">
    <inkscape:path-effect
       effect="fillet_chamfer"
       id="path-effect4"
       is_visible="true"
       lpeversion="1"
       nodesatellites_param="F,0,0,1,0,0,0,1 @ F,0,0,1,0,0,0,1 @ F,0,0,1,0,0,0,1 @ F,0,0,1,0,0,0,1 @ F,0,0,1,0,0,0,1 @ F,0,0,1,0,0,0,1 @ F,0,0,1,0,0,0,1"
       radius="0"
       unit="px"
       method="auto"
       mode="F"
       chamfer_steps="1"
       flexible="false"
       use_knot_distance="true"
       apply_no_radius="true"
       apply_with_radius="true"
       only_selected="false"
       hide_knots="false" />
    <filter
       inkscape:collect="always"
       style="color-interpolation-filters:sRGB"
       id="filter20"
       x="-0.30855757"
       y="-0.11429489"
       width="1.6171151"
       height="1.2285898">
      <feGaussianBlur
         inkscape:collect="always"
         stdDeviation="1.0860289"
         id="feGaussianBlur20" />
    </filter>
    <filter
       inkscape:collect="always"
       style="color-interpolation-filters:sRGB"
       id="filter2"
       x="-0.24506804"
       y="-0.12899103"
       width="1.4901361"
       height="1.2579821">
      <feGaussianBlur
         inkscape:collect="always"
         stdDeviation="0.87095459"
         id="feGaussianBlur2" />
    </filter>
    <radialGradient
       inkscape:collect="always"
       xlink:href="#linearGradient3"
       id="radialGradient52"
       cx="31.946993"
       cy="39.464268"
       fx="31.946993"
       fy="39.464268"
       r="4.4687405"
       gradientTransform="matrix(4.6035773,0,0,5.0643165,-64.582949,-162.02903)"
       gradientUnits="userSpaceOnUse" />
    <linearGradient
       id="linearGradient3"
       inkscape:collect="always">
      <stop
         style="stop-color:#80f8bd;stop-opacity:1;"
         offset="0"
         id="stop51" />
      <stop
         style="stop-color:#b1ffd9;stop-opacity:1;"
         offset="1"
         id="stop52" />
    </linearGradient>
    <radialGradient
       inkscape:collect="always"
       xlink:href="#linearGradient54"
       id="radialGradient52-3"
       cx="31.946993"
       cy="39.464268"
       fx="31.946993"
       fy="39.464268"
       r="4.4687405"
       gradientTransform="matrix(4.6035773,0,0,5.0643165,-64.582959,-166.20771)"
       gradientUnits="userSpaceOnUse" />
    <linearGradient
       id="linearGradient54"
       inkscape:collect="always">
      <stop
         style="stop-color:#006f39;stop-opacity:1;"
         offset="0"
         id="stop53" />
      <stop
         style="stop-color:#00582d;stop-opacity:1;"
         offset="1"
         id="stop54" />
    </linearGradient>
    <filter
       inkscape:collect="always"
       style="color-interpolation-filters:sRGB"
       id="filter1"
       x="-0.14585609"
       y="-0.041663989"
       width="1.2917122"
       height="1.083328">
      <feGaussianBlur
         inkscape:collect="always"
         stdDeviation="0.28410427"
         id="feGaussianBlur1" />
    </filter>
    <inkscape:path-effect
       effect="fillet_chamfer"
       id="path-effect1-3"
       is_visible="true"
       lpeversion="1"
       nodesatellites_param="F,0,1,1,0,0.66589586,0,1 @ F,0,1,1,0,0.66589586,0,1 @ F,0,1,1,0,0.66589586,0,1 @ F,0,0,1,0,0.66589586,0,1 | F,0,0,1,0,0.66589586,0,1 @ F,0,1,1,0,0.66589586,0,1 @ F,0,1,1,0,0.66589586,0,1 @ F,0,1,1,0,0.66589586,0,1 | F,0,1,1,0,0.66589586,0,1 @ F,0,1,1,0,0.66589586,0,1 @ F,0,1,1,0,0.66589586,0,1 @ F,0,1,1,0,0.66589586,0,1 | F,0,1,1,0,0.66589586,0,1 @ F,0,1,1,0,0.66589586,0,1 @ F,0,1,1,0,0.66589586,0,1 @ F,0,1,1,0,0.66589586,0,1 | F,0,1,1,0,0.66589586,0,1 @ F,0,1,1,0,0.66589586,0,1 @ F,0,1,1,0,0.66589586,0,1 @ F,0,1,1,0,0.66589586,0,1 | F,0,1,1,0,0.66589586,0,1 @ F,0,1,1,0,0.66589586,0,1 @ F,0,1,1,0,0.66589586,0,1 @ F,0,1,1,0,0.66589586,0,1 | F,0,1,1,0,0.66589586,0,1 @ F,0,1,1,0,0.66589586,0,1 @ F,0,1,1,0,0.66589586,0,1 @ F,0,1,1,0,0.66589586,0,1"
       radius="0"
       unit="px"
       method="auto"
       mode="F"
       chamfer_steps="1"
       flexible="false"
       use_knot_distance="true"
       apply_no_radius="true"
       apply_with_radius="true"
       only_selected="false"
       hide_knots="false" />
    <inkscape:path-effect
       effect="fillet_chamfer"
       id="path-effect1"
       is_visible="true"
       lpeversion="1"
       nodesatellites_param="F,0,1,1,0,0.66589586,0,1 @ F,0,1,1,0,0.66589586,0,1 | F,0,1,1,0,0.66589586,0,1 @ F,0,1,1,0,0.66589586,0,1 @ F,0,1,1,0,0.66589586,0,1 @ F,0,0,1,0,0.66589586,0,1 | F,0,0,1,0,0.66589586,0,1 @ F,0,1,1,0,0.66589586,0,1 @ F,0,1,1,0,0.66589586,0,1 @ F,0,1,1,0,0.66589586,0,1 | F,0,1,1,0,0.66589586,0,1 @ F,0,1,1,0,0.66589586,0,1 @ F,0,1,1,0,0.66589586,0,1 @ F,0,1,1,0,0.66589586,0,1 | F,0,1,1,0,0.66589586,0,1 @ F,0,1,1,0,0.66589586,0,1 @ F,0,1,1,0,0.66589586,0,1 @ F,0,1,1,0,0.66589586,0,1 | F,0,1,1,0,0.66589586,0,1 @ F,0,1,1,0,0.66589586,0,1 @ F,0,1,1,0,0.66589586,0,1 @ F,0,1,1,0,0.66589586,0,1 | F,0,1,1,0,0.66589586,0,1 @ F,0,1,1,0,0.66589586,0,1 @ F,0,1,1,0,0.66589586,0,1 @ F,0,1,1,0,0.66589586,0,1 | F,0,1,1,0,0.66589586,0,1 @ F,0,1,1,0,0.66589586,0,1 @ F,0,1,1,0,0.66589586,0,1 @ F,0,1,1,0,0.66589586,0,1"
       radius="0"
       unit="px"
       method="auto"
       mode="F"
       chamfer_steps="1"
       flexible="false"
       use_knot_distance="true"
       apply_no_radius="true"
       apply_with_radius="true"
       only_selected="false"
       hide_knots="false" />
    <filter
       inkscape:collect="always"
       style="color-interpolation-filters:sRGB"
       id="filter3"
       x="-0.099664699"
       y="-0.083307756"
       width="1.1993294"
       height="1.1666155">
      <feGaussianBlur
         inkscape:collect="always"
         stdDeviation="1.8370309"
         id="feGaussianBlur3" />
    </filter>
    <radialGradient
       inkscape:collect="always"
       xlink:href="#linearGradient49"
       id="radialGradient50"
       cx="1.0694224"
       cy="66.392639"
       fx="1.0694224"
       fy="66.392639"
       r="28"
       gradientTransform="matrix(0,2.2856319,-2.2867372,5.3961618e-8,202.41885,-12.226968)"
       gradientUnits="userSpaceOnUse" />
    <linearGradient
       id="linearGradient49"
       inkscape:collect="always">
      <stop
         style="stop-color:#15f19f;stop-opacity:1;"
         offset="0"
         id="stop49" />
      <stop
         style="stop-color:#1cbf6d;stop-opacity:1;"
         offset="1"
         id="stop50" />
    </linearGradient>
  </defs>
  <sodipodi:namedview
     id="namedview14"
     pagecolor="#ffffff"
     bordercolor="#000000"
     borderopacity="0.25"
     inkscape:showpageshadow="2"
     inkscape:pageopacity="0.0"
     inkscape:pagecheckerboard="0"
     inkscape:deskcolor="#d1d1d1"
     inkscape:zoom="6.859375"
     inkscape:cx="14.359909"
     inkscape:cy="42.059226"
     inkscape:window-width="3440"
     inkscape:window-height="1361"
     inkscape:window-x="0"
     inkscape:window-y="0"
     inkscape:window-maximized="1"
     inkscape:current-layer="svg14" />
  <g
     id="g1"
     transform="translate(-50.429932,10.079484)">
    <path
       class="st5"
       d="m 71.903445,-5.3834477 h 20.930547 c 6.892102,0 12.405788,5.5136807 12.405788,12.4057817 v 29.911721 c 0,6.892102 -5.513686,12.405783 -12.405788,12.405783 H 71.903445 c -6.892101,0 -12.405783,-5.513681 -12.405783,-12.405783 V 7.022334 c 0,-6.892101 5.513682,-12.4057817 12.405783,-12.4057817 z"
       id="path12"
       style="fill:url(#radialGradient50);fill-opacity:1;stroke-width:1.37842"
       sodipodi:nodetypes="sssssssss" />
    <path
       class="st5"
       d="m 71.964658,-5.441126 h 20.930547 c 6.892102,0 12.405785,5.513681 12.405785,12.405782 v 29.911721 c 0,6.892102 -5.513684,12.405783 -12.405786,12.405783 H 71.964658 c -6.892101,0 -12.405783,-5.513681 -12.405783,-12.405783 V 6.964656 c 0,-6.892101 5.513682,-12.405782 12.405783,-12.405782 z"
       id="path12-1"
       style="fill:none;fill-opacity:1;stroke:#000000;stroke-width:0.3;stroke-dasharray:none;stroke-opacity:1;filter:url(#filter3)"
       sodipodi:nodetypes="sssssssss" />
    <rect
       style="opacity:0.187567;stroke-width:0.893646"
       width="8.9364624"
       height="24.128447"
       x="77.920372"
       y="-5.3081264"
       id="rect3" />
    <path
       id="rect4"
       style="fill:#ffffff;stroke-width:0.893646"
       d="m 32.624567,7.4524046 h 1.348419 a 0,0 0 0 1 0,0 h -1.348419 z m -1.331792,0 H 29.944356 A 0.66589586,0.66589586 135 0 0 29.27846,8.1183005 v 1.3484196 a 0.66589586,0.66589586 45 0 0 0.665896,0.6658959 h 1.348419 A 0.66589586,0.66589586 135 0 0 31.958671,9.4667201 V 8.1183005 A 0.66589586,0.66589586 45 0 0 31.292775,7.4524046 Z m 0.665896,3.3461074 0,1.350485 a 0.66589586,0.66589586 45 0 0 0.665896,0.665896 h 1.348419 a 0.66589586,0.66589586 135 0 0 0.665896,-0.665896 v -1.350485 a 0.66589586,0.66589586 45 0 0 -0.665896,-0.665896 l -1.348419,0 a 0.66589586,0.66589586 135 0 0 -0.665896,0.665896 z m -0.665896,2.016381 h -1.348419 a 0.66589586,0.66589586 135 0 0 -0.665896,0.665896 v 1.348419 a 0.66589586,0.66589586 45 0 0 0.665896,0.665896 h 1.348419 a 0.66589586,0.66589586 135 0 0 0.665896,-0.665896 v -1.348419 a 0.66589586,0.66589586 45 0 0 -0.665896,-0.665896 z m 0.665896,3.346107 0,1.34842 a 0.66589586,0.66589586 45 0 0 0.665896,0.665896 h 1.348419 A 0.66589586,0.66589586 135 0 0 34.638882,17.50942 V 16.161 a 0.66589586,0.66589586 45 0 0 -0.665896,-0.665896 l -1.348419,0 A 0.66589586,0.66589586 135 0 0 31.958671,16.161 Z m -0.665896,2.014316 h -1.348419 a 0.66589586,0.66589586 135 0 0 -0.665896,0.665896 v 1.350485 a 0.66589586,0.66589586 45 0 0 0.665896,0.665896 h 1.348419 a 0.66589586,0.66589586 135 0 0 0.665896,-0.665896 v -1.350485 a 0.66589586,0.66589586 45 0 0 -0.665896,-0.665896 z m 0.665896,3.348173 0,1.34842 a 0.66589586,0.66589586 45 0 0 0.665896,0.665896 h 1.348419 a 0.66589586,0.66589586 135 0 0 0.665896,-0.665896 v -1.34842 a 0.66589586,0.66589586 45 0 0 -0.665896,-0.665896 h -1.348419 a 0.66589586,0.66589586 135 0 0 -0.665896,0.665896 z m -0.665896,2.014316 h -1.348419 a 0.66589586,0.66589586 135 0 0 -0.665896,0.665896 v 1.348419 a 0.66589586,0.66589586 45 0 0 0.665896,0.665896 h 1.348419 a 0.66589586,0.66589586 135 0 0 0.665896,-0.665896 v -1.348419 a 0.66589586,0.66589586 45 0 0 -0.665896,-0.665896 z"
       inkscape:path-effect="#path-effect1"
       inkscape:original-d="m 31.958671,7.4524046 h 2.680211 z m 0,0 H 29.27846 v 2.6802114 h 2.680211 z m 0,2.6802114 v 2.682277 h 2.680211 v -2.682277 z m 0,2.682277 H 29.27846 v 2.680211 h 2.680211 z m 0,2.680211 v 2.680212 h 2.680211 v -2.680212 z m 0,2.680212 H 29.27846 v 2.682277 h 2.680211 z m 0,2.682277 v 2.680212 h 2.680211 v -2.680212 z m 0,2.680212 H 29.27846 v 2.680211 h 2.680211 z"
       sodipodi:nodetypes="cccccccccccccccccccccccccccccccccccccc"
       transform="translate(50.429931,-11.915841)" />
    <path
       id="rect4-7"
       style="mix-blend-mode:normal;fill:none;stroke:#00a15f;stroke-width:0.2;stroke-dasharray:none;stroke-opacity:1;filter:url(#filter1)"
       d="M 31.292775,7.4524046 H 29.944356 A 0.66589586,0.66589586 135 0 0 29.27846,8.1183005 v 1.3484196 a 0.66589586,0.66589586 45 0 0 0.665896,0.6658959 h 1.348419 A 0.66589586,0.66589586 135 0 0 31.958671,9.4667201 V 8.1183005 A 0.66589586,0.66589586 45 0 0 31.292775,7.4524046 Z m 0.665896,3.3461074 0,1.350485 a 0.66589586,0.66589586 45 0 0 0.665896,0.665896 h 1.348419 a 0.66589586,0.66589586 135 0 0 0.665896,-0.665896 v -1.350485 a 0.66589586,0.66589586 45 0 0 -0.665896,-0.665896 l -1.348419,0 a 0.66589586,0.66589586 135 0 0 -0.665896,0.665896 z m -0.665896,2.016381 h -1.348419 a 0.66589586,0.66589586 135 0 0 -0.665896,0.665896 v 1.348419 a 0.66589586,0.66589586 45 0 0 0.665896,0.665896 h 1.348419 a 0.66589586,0.66589586 135 0 0 0.665896,-0.665896 v -1.348419 a 0.66589586,0.66589586 45 0 0 -0.665896,-0.665896 z m 0.665896,3.346107 0,1.34842 a 0.66589586,0.66589586 45 0 0 0.665896,0.665896 h 1.348419 A 0.66589586,0.66589586 135 0 0 34.638882,17.50942 V 16.161 a 0.66589586,0.66589586 45 0 0 -0.665896,-0.665896 l -1.348419,0 A 0.66589586,0.66589586 135 0 0 31.958671,16.161 Z m -0.665896,2.014316 h -1.348419 a 0.66589586,0.66589586 135 0 0 -0.665896,0.665896 v 1.350485 a 0.66589586,0.66589586 45 0 0 0.665896,0.665896 h 1.348419 a 0.66589586,0.66589586 135 0 0 0.665896,-0.665896 v -1.350485 a 0.66589586,0.66589586 45 0 0 -0.665896,-0.665896 z m 0.665896,3.348173 0,1.34842 a 0.66589586,0.66589586 45 0 0 0.665896,0.665896 h 1.348419 a 0.66589586,0.66589586 135 0 0 0.665896,-0.665896 v -1.34842 a 0.66589586,0.66589586 45 0 0 -0.665896,-0.665896 h -1.348419 a 0.66589586,0.66589586 135 0 0 -0.665896,0.665896 z m -0.665896,2.014316 h -1.348419 a 0.66589586,0.66589586 135 0 0 -0.665896,0.665896 v 1.348419 a 0.66589586,0.66589586 45 0 0 0.665896,0.665896 h 1.348419 a 0.66589586,0.66589586 135 0 0 0.665896,-0.665896 v -1.348419 a 0.66589586,0.66589586 45 0 0 -0.665896,-0.665896 z"
       inkscape:path-effect="#path-effect1-3"
       inkscape:original-d="M 31.958671,7.4524046 H 29.27846 v 2.6802114 h 2.680211 z m 0,2.6802114 v 2.682277 h 2.680211 v -2.682277 z m 0,2.682277 H 29.27846 v 2.680211 h 2.680211 z m 0,2.680211 v 2.680212 h 2.680211 v -2.680212 z m 0,2.680212 H 29.27846 v 2.682277 h 2.680211 z m 0,2.682277 v 2.680212 h 2.680211 v -2.680212 z m 0,2.680212 H 29.27846 v 2.680211 h 2.680211 z"
       sodipodi:nodetypes="ccccccccccccccccccccccccccccccccccccc"
       transform="translate(50.429931,-11.915841)" />
    <path
       d="m 82.049701,13.79045 c -2.310371,0 -4.172202,1.878581 -4.172202,4.209399 v 4.551347 h 8.937481 v -4.551347 c 0,-2.330818 -1.861831,-4.209399 -4.172202,-4.209399 z"
       style="fill:url(#radialGradient52-3);fill-opacity:1;stroke-width:0.893646"
       id="path3-35"
       sodipodi:nodetypes="ssccsss" />
    <path
       d="m 82.049701,18.816677 c -2.310371,0 -4.172202,1.878581 -4.172202,4.209399 v 8.559317 c 0,2.330818 1.861831,4.211465 4.172202,4.211465 h 0.593077 c 2.310371,0 4.172202,-1.880646 4.172202,-4.211465 v -8.559317 c 0,-2.330818 -1.861831,-4.209399 -4.172202,-4.209399 z m 0.297219,10.155507 c 1.300426,2e-6 2.353539,1.055876 2.353539,2.356262 0,1.300387 -1.053113,2.353539 -2.353539,2.353539 -1.300426,0 -2.3549,-1.053152 -2.3549,-2.353539 0,-1.300386 1.054474,-2.35626 2.3549,-2.356262 z"
       style="fill:url(#radialGradient52);fill-opacity:1;stroke-width:0.893646"
       id="path3"
       sodipodi:nodetypes="ssssssssssssss" />
    <path
       d="m 82.049701,18.816677 c -2.310371,0 -4.172202,1.878581 -4.172202,4.209399 v 8.559317 c 0,2.330818 1.861831,4.211465 4.172202,4.211465 h 0.593077 c 2.310371,0 4.172202,-1.880646 4.172202,-4.211465 v -8.559317 c 0,-2.330818 -1.861831,-4.209399 -4.172202,-4.209399 z m 0.297219,10.155507 c 1.300426,2e-6 2.353539,1.055876 2.353539,2.356262 0,1.300387 -1.053113,2.353539 -2.353539,2.353539 -1.300426,0 -2.3549,-1.053152 -2.3549,-2.353539 0,-1.300386 1.054474,-2.35626 2.3549,-2.356262 z"
       style="fill:none;fill-opacity:1;stroke:#005f38;stroke-width:0.2;stroke-dasharray:none;stroke-opacity:1;filter:url(#filter2)"
       id="path3-3"
       sodipodi:nodetypes="ssssssssssssss" />
    <path
       d="M 27.839844,7.0820312 V 29.533203 c 0.01416,-0.0029 0.02918,-0.0012 0.04297,-0.0059 0.002,-5.09e-4 0.0039,-0.0014 0.0059,-0.002 0.0013,-4.68e-4 0.0026,-0.0015 0.0039,-0.002 0.03626,-0.01337 0.07143,-0.03374 0.105469,-0.05859 0.03179,-0.02321 0.06353,-0.05158 0.09375,-0.08398 9.17e-4,-9.85e-4 10e-4,-0.0029 0.002,-0.0039 0.01428,-0.01549 0.02898,-0.03337 0.04297,-0.05078 0.01943,-0.02416 0.03769,-0.04849 0.05664,-0.07617 0.0015,-0.0021 0.0044,-0.0037 0.0059,-0.0059 0.02435,-0.03601 0.04851,-0.0758 0.07227,-0.117188 0.0016,-0.0027 0.0023,-0.007 0.0039,-0.0098 0.05009,-0.08833 0.09943,-0.191913 0.148437,-0.300781 0.02813,-0.06243 0.05765,-0.129224 0.08594,-0.197265 0.03408,-0.08198 0.06861,-0.161231 0.103515,-0.25 0.0014,-0.0036 0.0025,-0.0081 0.0039,-0.01172 0.0037,-0.0094 0.008,-0.01985 0.01172,-0.0293 0.08998,-0.229915 0.185238,-0.478612 0.289063,-0.734375 0.02466,-0.06081 0.04644,-0.114371 0.07227,-0.175781 0.03172,-0.07542 0.06783,-0.150808 0.101563,-0.226563 0.04534,-0.101844 0.08715,-0.20354 0.136719,-0.304687 0.04006,-0.08175 0.08179,-0.161784 0.125,-0.242188 0.0028,-0.0051 0.005,-0.01049 0.0078,-0.01563 0.04481,-0.08285 0.09204,-0.165597 0.140625,-0.246094 v -1.564453 h 2.347656 c 0.04796,-0.0023 0.09699,-0.0039 0.146485,-0.0039 0.0046,0 0.0091,-2.91e-4 0.01367,0 0.0046,-1.49e-4 0.009,0 0.01367,0 0.004,0 0.0078,-2.25e-4 0.01172,0 V 22.285156 H 29.501953 V 19.75 h 2.533203 v -2.533203 h -2.533203 v -2.533203 h 2.533203 V 12.148438 H 29.501953 V 9.6152344 h 2.533203 V 7.0820312 Z m 6.755859,0 V 9.6152344 H 34.568359 32.0625 v 2.5332036 h 2.505859 0.02734 v 2.535156 H 34.568359 32.0625 v 2.533203 h 2.505859 0.02734 V 19.75 H 34.568359 32.0625 v 2.535156 h 2.505859 0.02734 v 2.533203 h -0.02734 -2.425781 c 0.0643,0.003 0.125889,0.0106 0.1875,0.01758 0.01793,0.0019 0.03698,0.0017 0.05469,0.0039 0.0038,5.09e-4 0.0079,0.0014 0.01172,0.002 0.02994,0.0041 0.05858,0.0106 0.08789,0.01563 0.07972,0.01366 0.157256,0.03066 0.232422,0.05078 0.0044,0.0011 0.0093,8.08e-4 0.01367,0.002 0.06342,0.01735 0.125254,0.03692 0.185547,0.05859 2.280729,0.795643 2.385288,4.576172 3.330078,4.576172 v 0.341797 h 0.04102 V 7.0820312 Z"
       style="opacity:0.187567;mix-blend-mode:normal;fill:none;stroke-width:0.3;filter:url(#filter20)"
       id="path17"
       transform="matrix(1.0580325,0,0,1.0580325,48.531563,-12.85817)" />
  </g>
</svg>
