<?xml version="1.0" encoding="UTF-8" standalone="no"?>
<svg
   width="64"
   height="64"
   version="1"
   id="svg9"
   sodipodi:docname="x-package-repository.svg"
   inkscape:version="1.4.2 (ebf0e940d0, 2025-05-08)"
   xmlns:inkscape="http://www.inkscape.org/namespaces/inkscape"
   xmlns:sodipodi="http://sodipodi.sourceforge.net/DTD/sodipodi-0.dtd"
   xmlns:xlink="http://www.w3.org/1999/xlink"
   xmlns="http://www.w3.org/2000/svg"
   xmlns:svg="http://www.w3.org/2000/svg">
  <defs
     id="defs9">
    <inkscape:path-effect
       effect="fillet_chamfer"
       id="path-effect33-5-91"
       is_visible="true"
       lpeversion="1"
       nodesatellites_param="F,0,0,1,0,5.4161913,0,1 @ F,0,0,1,0,5.0201459,0,1 @ F,0,0,1,0,4.5562612,0,1 @ F,0,0,1,0,4.8044969,0,1 @ F,0,0,1,0,4.8694015,0,1 @ F,0,0,1,0,4.5176611,0,1"
       radius="0"
       unit="px"
       method="auto"
       mode="F"
       chamfer_steps="1"
       flexible="false"
       use_knot_distance="true"
       apply_no_radius="true"
       apply_with_radius="true"
       only_selected="false"
       hide_knots="false" />
    <inkscape:path-effect
       effect="fillet_chamfer"
       id="path-effect33-5-9-2"
       is_visible="true"
       lpeversion="1"
       nodesatellites_param="F,0,0,1,0,5.4161913,0,1 @ F,0,0,1,0,5.0201459,0,1 @ F,0,0,1,0,4.5562612,0,1 @ F,0,0,1,0,4.8044969,0,1 @ F,0,0,1,0,4.8694015,0,1 @ F,0,0,1,0,4.5176611,0,1"
       radius="0"
       unit="px"
       method="auto"
       mode="F"
       chamfer_steps="1"
       flexible="false"
       use_knot_distance="true"
       apply_no_radius="true"
       apply_with_radius="true"
       only_selected="false"
       hide_knots="false" />
    <filter
       inkscape:collect="always"
       style="color-interpolation-filters:sRGB"
       id="filter1"
       x="-0.090403083"
       y="-0.08254277"
       width="1.1808062"
       height="1.165084">
      <feGaussianBlur
         inkscape:collect="always"
         stdDeviation="1.3201181"
         id="feGaussianBlur1" />
    </filter>
    <radialGradient
       inkscape:collect="always"
       xlink:href="#SVGID_1_-3-2-7-4"
       id="radialGradient33-3-8"
       cx="23.467644"
       cy="26.447298"
       fx="23.467644"
       fy="26.447298"
       r="22.291637"
       gradientTransform="matrix(3.5837234e-8,-2.9731329,2.7109812,0,-24.427191,118.97905)"
       gradientUnits="userSpaceOnUse" />
    <radialGradient
       id="SVGID_1_-3-2-7"
       cx="-159.43106"
       cy="15.462561"
       r="64.706802"
       gradientTransform="matrix(-0.89413329,0,0,0.96304834,-80.753654,49.330428)"
       gradientUnits="userSpaceOnUse"
       fx="-159.43106"
       fy="15.462561">
      <stop
         offset="0"
         style="stop-color:#ff3239;stop-opacity:1;"
         id="stop1-6-9-5" />
      <stop
         offset="1"
         style="stop-color:#ff9415;stop-opacity:1;"
         id="stop2-7-1-3" />
    </radialGradient>
    <inkscape:path-effect
       effect="fillet_chamfer"
       id="path-effect33-5-91-9"
       is_visible="true"
       lpeversion="1"
       nodesatellites_param="F,0,0,1,0,5.4161913,0,1 @ F,0,0,1,0,5.0201459,0,1 @ F,0,0,1,0,4.5562612,0,1 @ F,0,0,1,0,4.8044969,0,1 @ F,0,0,1,0,4.8694015,0,1 @ F,0,0,1,0,4.5176611,0,1"
       radius="0"
       unit="px"
       method="auto"
       mode="F"
       chamfer_steps="1"
       flexible="false"
       use_knot_distance="true"
       apply_no_radius="true"
       apply_with_radius="true"
       only_selected="false"
       hide_knots="false" />
    <radialGradient
       id="SVGID_1_-3-2-7-4"
       cx="-159.43106"
       cy="15.462561"
       r="64.706802"
       gradientTransform="matrix(-0.89413329,0,0,0.96304834,-80.753654,49.330428)"
       gradientUnits="userSpaceOnUse"
       fx="-159.43106"
       fy="15.462561">
      <stop
         offset="0"
         style="stop-color:#e08443;stop-opacity:1;"
         id="stop1-6-9-5-0" />
      <stop
         offset="1"
         style="stop-color:#ee923a;stop-opacity:1;"
         id="stop2-7-1-3-3" />
    </radialGradient>
  </defs>
  <sodipodi:namedview
     id="namedview9"
     pagecolor="#ffffff"
     bordercolor="#000000"
     borderopacity="0.25"
     inkscape:showpageshadow="2"
     inkscape:pageopacity="0.0"
     inkscape:pagecheckerboard="0"
     inkscape:deskcolor="#d1d1d1"
     inkscape:zoom="9.4604291"
     inkscape:cx="26.161604"
     inkscape:cy="33.825104"
     inkscape:current-layer="svg9" />
  <g
     id="g1"
     transform="translate(-29.983166,-18.458414)">
    <path
       sodipodi:type="star"
       style="fill:url(#radialGradient33-3-8);fill-opacity:1;stroke:#ffffff;stroke-width:0;stroke-dasharray:none"
       id="path13-3-7"
       inkscape:flatsided="true"
       sodipodi:sides="6"
       sodipodi:cx="26.006084"
       sodipodi:cy="25.124659"
       sodipodi:r1="25.740166"
       sodipodi:r2="22.291637"
       sodipodi:arg1="0.52359878"
       sodipodi:arg2="1.0471976"
       inkscape:rounded="0"
       inkscape:randomized="0"
       transform="matrix(1.1656015,0,0,1.1656015,31.670435,21.196615)"
       d="m 43.607163,40.702837 -13.253505,7.651914 a 8.6951478,8.6951478 2.5219888e-7 0 1 -8.695148,0 L 7.6602849,40.272872 A 7.8916759,7.8916759 60 0 1 3.714447,33.43848 l 1e-7,-16.379407 A 8.3216327,8.3216327 120 0 1 7.8752635,9.8523272 L 21.789059,1.8191936 a 8.4340508,8.4340508 2.5219889e-7 0 1 8.434051,0 l 14.162203,8.1765517 a 7.8248186,7.8248186 60 0 1 3.912409,6.7764917 l 0,15.806313 a 9.3811185,9.3811185 120 0 1 -4.690559,8.124287 z"
       inkscape:path-effect="#path-effect33-5-91-9" />
    <path
       id="path13-3-1-8"
       style="opacity:0.269575;fill:#000000;fill-opacity:1;stroke:#ffffff;stroke-width:0;stroke-dasharray:none"
       d="m 61.983166,30.660899 a 6.8389839,6.8389839 0 0 0 -3.419922,0.916016 l -11.28125,6.513671 a 6.7478266,6.7478266 0 0 0 -3.375,5.84375 v 13.281251 a 6.3991842,6.3991842 0 0 0 3.199219,5.541015 l 11.351562,6.554688 a 7.0507016,7.0507016 0 0 0 7.050782,0 L 76.25465,63.106211 a 7.60694,7.60694 0 0 0 3.804688,-6.58789 V 43.701915 A 6.3449711,6.3449711 0 0 0 76.88551,38.205821 L 65.403087,31.576915 a 6.8389839,6.8389839 0 0 0 -3.419921,-0.916016 z m -1.505859,7.216797 h 2.666015 a 1.5818482,1.5818482 0 0 1 1.371094,0.791015 l 1.291015,2.234376 a 1.4661795,1.4661795 0 0 1 -0.002,1.464843 l -1.361328,2.361329 a 1.3306977,1.3306977 0 0 1 -1.152297,0.666015 h -2.761718 a 1.4031972,1.4031972 0 0 1 -0.572266,-0.123047 1.4031972,1.4031972 0 0 1 -0.644531,-0.580078 l -1.353516,-2.345703 a 1.4221532,1.4221532 0 0 1 0,-1.421875 l 1.378907,-2.386719 a 1.3194242,1.3194242 0 0 1 1.140625,-0.660156 z m 7.677734,4.283203 h 2.666016 a 1.5818482,1.5818482 0 0 1 1.36914,0.791015 l 1.291016,2.234375 a 1.4661795,1.4661795 0 0 1 0,1.466797 l -1.361329,2.359375 a 1.3306977,1.3306977 0 0 1 -1.154296,0.666016 h -2.761719 a 1.4031972,1.4031972 0 0 1 -0.570312,-0.121094 1.4031972,1.4031972 0 0 1 -0.644532,-0.582031 l -1.355468,-2.345703 a 1.4221532,1.4221532 0 0 1 0,-1.421875 l 1.378906,-2.388672 a 1.3194242,1.3194242 0 0 1 1.142578,-0.658203 z m -15.154297,0.103516 h 2.666015 A 1.5818482,1.5818482 0 0 1 57.0359,43.05543 l 1.291016,2.234375 a 1.4661795,1.4661795 0 0 1 0,1.466797 l -1.363282,2.361329 a 1.3306977,1.3306977 0 0 1 -1.152343,0.664061 l -2.761719,0.002 A 1.4031972,1.4031972 0 0 1 52.47926,49.660945 1.4031972,1.4031972 0 0 1 51.834728,49.080867 L 50.47926,46.735164 a 1.4221532,1.4221532 0 0 1 0,-1.421875 l 1.378906,-2.388718 a 1.3194242,1.3194242 0 0 1 1.142578,-0.660156 z m 7.478515,4.433593 2.664063,0.002 a 1.5818482,1.5818482 0 0 1 1.371094,0.791016 l 1.291015,2.234375 a 1.4661795,1.4661795 0 0 1 -0.002,1.466797 l -1.363281,2.359375 a 1.3306977,1.3306977 0 0 1 -1.150391,0.664062 l -2.761718,0.002 a 1.4031972,1.4031972 0 0 1 -0.572219,-0.123141 1.4031972,1.4031972 0 0 1 -0.644531,-0.578125 l -1.353516,-2.345703 a 1.4221532,1.4221532 0 0 1 0,-1.423827 l 1.378907,-2.386719 a 1.3194242,1.3194242 0 0 1 1.142577,-0.66211 z m 7.677735,4.283204 2.664063,0.002 a 1.5818482,1.5818482 0 0 1 1.36914,0.791016 l 1.291016,2.234376 a 1.4661795,1.4661795 0 0 1 0,1.466796 l -1.363281,2.359375 a 1.3306977,1.3306977 0 0 1 -1.152344,0.666016 h -2.761719 a 1.4031972,1.4031972 0 0 1 -0.570312,-0.121094 1.4031972,1.4031972 0 0 1 -0.644532,-0.580078 l -1.355468,-2.347656 a 1.4221532,1.4221532 0 0 1 0,-1.421875 l 1.378906,-2.388672 a 1.3194242,1.3194242 0 0 1 1.144531,-0.660156 z m -15.15625,0.105468 h 2.666015 a 1.5818482,1.5818482 0 0 1 1.369141,0.791016 l 1.291016,2.234375 a 1.4661795,1.4661795 0 0 1 0,1.466797 l -1.363282,2.361328 a 1.3306977,1.3306977 0 0 1 -1.152343,0.664063 H 53.049572 A 1.4031972,1.4031972 0 0 1 52.47926,58.483164 1.4031972,1.4031972 0 0 1 51.834728,57.903087 l -1.353515,-2.345704 a 1.4221532,1.4221532 0 0 1 -0.002,-1.423827 l 1.378953,-2.388673 a 1.3194242,1.3194242 0 0 1 1.142578,-0.658203 z m 10.142578,4.433594 a 1.5818482,1.5818482 0 0 1 1.371094,0.791015 l 1.291015,2.236329 a 1.4661795,1.4661795 0 0 1 -0.002,1.464843 L 64.44015,62.37379 a 1.3306977,1.3306977 0 0 1 -1.150391,0.664062 H 60.528041 A 1.4031972,1.4031972 0 0 1 59.955775,62.916758 1.4031972,1.4031972 0 0 1 59.313197,62.33668 l -1.355469,-2.345703 a 1.4221532,1.4221532 0 0 1 0,-1.421875 l 1.378907,-2.386719 a 1.3194242,1.3194242 0 0 1 1.142577,-0.660156 z" />
    <path
       id="path13-3-1-2"
       style="fill:none;fill-opacity:1;stroke:#000000;stroke-width:0.2;stroke-dasharray:none;stroke-opacity:1;filter:url(#filter1)"
       d="m 61.983166,30.660899 a 6.8389839,6.8389839 0 0 0 -3.419922,0.916016 l -11.28125,6.513671 a 6.7478266,6.7478266 0 0 0 -3.375,5.84375 v 13.281251 a 6.3991842,6.3991842 0 0 0 3.199219,5.541015 l 11.351562,6.554688 a 7.0507016,7.0507016 0 0 0 7.050782,0 L 76.25465,63.106211 a 7.60694,7.60694 0 0 0 3.804688,-6.58789 V 43.701915 A 6.3449711,6.3449711 0 0 0 76.88551,38.205821 L 65.403087,31.576915 a 6.8389839,6.8389839 0 0 0 -3.419921,-0.916016 z m -1.505859,7.216797 h 2.666015 a 1.5818482,1.5818482 0 0 1 1.371094,0.791015 l 1.291015,2.234376 a 1.4661795,1.4661795 0 0 1 -0.0019,1.464843 l -1.361328,2.361329 a 1.3306977,1.3306977 0 0 1 -1.152344,0.666015 h -2.761771 a 1.4031972,1.4031972 0 0 1 -0.572265,-0.123047 1.4031972,1.4031972 0 0 1 -0.644532,-0.580078 l -1.353516,-2.345703 a 1.4221532,1.4221532 0 0 1 0,-1.421875 l 1.378907,-2.386719 a 1.3194242,1.3194242 0 0 1 1.140625,-0.660156 z m 7.677734,4.283203 h 2.666016 a 1.5818482,1.5818482 0 0 1 1.36914,0.791015 l 1.291016,2.234375 a 1.4661795,1.4661795 0 0 1 0,1.466797 l -1.361329,2.359375 a 1.3306977,1.3306977 0 0 1 -1.154296,0.666016 h -2.761719 a 1.4031972,1.4031972 0 0 1 -0.570312,-0.121094 1.4031972,1.4031972 0 0 1 -0.644531,-0.582031 l -1.355469,-2.345703 a 1.4221532,1.4221532 0 0 1 0,-1.421875 l 1.378906,-2.388672 a 1.3194242,1.3194242 0 0 1 1.142578,-0.658203 z m -15.154297,0.103516 h 2.666015 a 1.5818482,1.5818482 0 0 1 1.369142,0.791015 l 1.291015,2.234375 a 1.4661795,1.4661795 0 0 1 0,1.466797 l -1.363282,2.361329 a 1.3306977,1.3306977 0 0 1 -1.152343,0.664061 l -2.761719,0.0019 A 1.4031972,1.4031972 0 0 1 52.47926,49.660899 1.4031972,1.4031972 0 0 1 51.834728,49.080821 L 50.47926,46.735118 a 1.4221532,1.4221532 0 0 1 0,-1.421875 l 1.378906,-2.388672 a 1.3194242,1.3194242 0 0 1 1.142578,-0.660156 z m 7.478516,4.433593 2.664062,0.0019 a 1.5818482,1.5818482 0 0 1 1.371094,0.791016 l 1.291015,2.234375 a 1.4661795,1.4661795 0 0 1 -0.0019,1.466797 l -1.363282,2.359374 a 1.3306977,1.3306977 0 0 1 -1.15039,0.664063 l -2.761718,0.0019 A 1.4031972,1.4031972 0 0 1 59.955869,54.0944 1.4031972,1.4031972 0 0 1 59.311337,53.516275 l -1.353516,-2.345703 a 1.4221532,1.4221532 0 0 1 0,-1.423827 l 1.378907,-2.386719 a 1.3194242,1.3194242 0 0 1 1.142578,-0.66211 z m 7.677734,4.283204 2.664063,0.0019 a 1.5818482,1.5818482 0 0 1 1.36914,0.791016 l 1.291016,2.234375 a 1.4661795,1.4661795 0 0 1 0,1.466797 l -1.363281,2.359375 a 1.3306977,1.3306977 0 0 1 -1.152344,0.666015 h -2.761719 a 1.4031972,1.4031972 0 0 1 -0.570312,-0.121094 1.4031972,1.4031972 0 0 1 -0.644531,-0.580077 l -1.355469,-2.347657 a 1.4221532,1.4221532 0 0 1 0,-1.421875 l 1.378906,-2.388672 a 1.3194242,1.3194242 0 0 1 1.144531,-0.66011 z m -15.15625,0.105468 h 2.666015 a 1.5818482,1.5818482 0 0 1 1.369142,0.791016 l 1.291015,2.234375 a 1.4661795,1.4661795 0 0 1 0,1.466797 l -1.363282,2.361328 a 1.3306977,1.3306977 0 0 1 -1.152343,0.664063 H 53.049572 A 1.4031972,1.4031972 0 0 1 52.47926,58.483164 1.4031972,1.4031972 0 0 1 51.834728,57.903087 l -1.353515,-2.345704 a 1.4221532,1.4221532 0 0 1 -0.0019,-1.423827 l 1.378905,-2.388673 a 1.3194242,1.3194242 0 0 1 1.142579,-0.658203 z m 10.142578,4.433594 a 1.5818482,1.5818482 0 0 1 1.371094,0.791015 l 1.291015,2.236329 a 1.4661795,1.4661795 0 0 1 -0.0019,1.464843 l -1.363282,2.361329 a 1.3306977,1.3306977 0 0 1 -1.15039,0.664062 H 60.528088 A 1.4031972,1.4031972 0 0 1 59.955823,62.916758 1.4031972,1.4031972 0 0 1 59.313244,62.33668 l -1.355469,-2.345703 a 1.4221532,1.4221532 0 0 1 0,-1.421875 l 1.378907,-2.386719 a 1.3194242,1.3194242 0 0 1 1.142578,-0.660156 z" />
  </g>
</svg>
