<?xml version="1.0" encoding="UTF-8" standalone="no"?>
<svg
   width="48"
   height="48"
   version="1.1"
   id="svg1"
   sodipodi:docname="emblem-system.svg"
   inkscape:version="1.4.2 (ebf0e940d0, 2025-05-08)"
   xmlns:inkscape="http://www.inkscape.org/namespaces/inkscape"
   xmlns:sodipodi="http://sodipodi.sourceforge.net/DTD/sodipodi-0.dtd"
   xmlns="http://www.w3.org/2000/svg"
   xmlns:svg="http://www.w3.org/2000/svg">
  <defs
     id="defs1">
    <inkscape:path-effect
       effect="fillet_chamfer"
       id="path-effect1"
       is_visible="true"
       lpeversion="1"
       nodesatellites_param="F,0,1,1,0,2.0062906,0,1 @ F,0,0,1,0,0,0,1 @ F,0,0,1,0,0,0,1 @ F,0,1,1,0,2.0062906,0,1 @ F,0,0,1,0,2.0062906,0,1 @ F,0,0,1,0,0,0,1 @ F,0,0,1,0,0,0,1 @ F,0,1,1,0,2.0062906,0,1 @ F,0,1,1,0,2.0062906,0,1 @ F,0,0,1,0,0,0,1 @ F,0,0,1,0,0,0,1 @ F,0,1,1,0,2.0062906,0,1 @ F,0,1,1,0,2.0062906,0,1 @ F,0,0,1,0,0,0,1 @ F,0,0,1,0,0,0,1 @ F,0,1,1,0,2.0062906,0,1 @ F,0,1,1,0,2.0062906,0,1 @ F,0,0,1,0,0,0,1 @ F,0,0,1,0,0,0,1 @ F,0,1,1,0,2.0062906,0,1 @ F,0,1,1,0,2.0062906,0,1 @ F,0,0,1,0,0,0,1 @ F,0,0,1,0,0,0,1 @ F,0,1,1,0,2.0062906,0,1 @ F,0,1,1,0,2.0062906,0,1 @ F,0,0,1,0,0,0,1 @ F,0,0,1,0,0,0,1 @ F,0,1,1,0,2.0062906,0,1 @ F,0,1,1,0,2.0062906,0,1 @ F,0,0,1,0,0,0,1 @ F,0,0,1,0,0,0,1 @ F,0,1,1,0,2.0062906,0,1 | F,0,0,1,0,0,0,1 @ F,0,0,1,0,0,0,1 @ F,0,0,1,0,0,0,1 @ F,0,0,1,0,0,0,1"
       radius="0"
       unit="px"
       method="auto"
       mode="F"
       chamfer_steps="1"
       flexible="false"
       use_knot_distance="true"
       apply_no_radius="true"
       apply_with_radius="true"
       only_selected="false"
       hide_knots="false" />
  </defs>
  <sodipodi:namedview
     id="namedview1"
     pagecolor="#ffffff"
     bordercolor="#000000"
     borderopacity="0.25"
     inkscape:showpageshadow="2"
     inkscape:pageopacity="0.0"
     inkscape:pagecheckerboard="0"
     inkscape:deskcolor="#d1d1d1"
     inkscape:zoom="24.645833"
     inkscape:cx="24.040575"
     inkscape:cy="23.979713"
     inkscape:current-layer="svg1" />
  <path
     style="fill:#fcfcfc;fill-opacity:1"
     d="m 21,12.006291 v 1.413631 c -0.819355,0.235879 -1.608508,0.566222 -2.351562,0.984375 l -1.00712,-1.00712 a 2.006291,2.006291 179.99999 0 0 -2.837324,1e-6 l -1.406816,1.406816 a 2.0062906,2.0062906 90 0 0 0,2.837324 l 1.00126,1.00126 C 13.984593,19.388106 13.658838,20.179226 13.427734,21 H 12.006291 A 2.0062906,2.0062906 135 0 0 10,23.006291 v 1.987418 A 2.0062906,2.0062906 45 0 0 12.006291,27 h 1.413631 c 0.235879,0.819355 0.566222,1.608508 0.984375,2.351562 l -1.00712,1.00712 a 2.006291,2.006291 89.999994 0 0 1e-6,2.837324 l 1.406816,1.406816 a 2.0062906,2.0062906 0 0 0 2.837324,0 l 1.00126,-1.00126 c 0.745528,0.413845 1.536648,0.7396 2.357422,0.970704 v 1.421443 A 2.0062906,2.0062906 45 0 0 23.006291,38 h 1.987418 A 2.0062906,2.0062906 135 0 0 27,35.993709 v -1.413631 c 0.819355,-0.235879 1.608508,-0.566222 2.351562,-0.984375 l 1.00712,1.00712 a 2.006291,2.006291 179.99999 0 0 2.837324,-10e-7 l 1.406816,-1.406816 a 2.0062906,2.0062906 90 0 0 0,-2.837324 l -1.00126,-1.00126 C 34.015407,28.611894 34.341162,27.820774 34.572266,27 h 1.421443 A 2.0062906,2.0062906 135 0 0 38,24.993709 V 23.006291 A 2.0062906,2.0062906 45 0 0 35.993709,21 h -1.413631 c -0.235879,-0.819355 -0.566222,-1.608508 -0.984375,-2.351562 l 1.00712,-1.00712 a 2.006291,2.006291 89.999994 0 0 -10e-7,-2.837324 l -1.406816,-1.406816 a 2.0062906,2.0062906 0 0 0 -2.837324,0 l -1.00126,1.00126 C 28.611894,13.984593 27.820774,13.658838 27,13.427734 V 12.006291 A 2.0062906,2.0062906 45 0 0 24.993709,10 H 23.006291 A 2.0062906,2.0062906 135 0 0 21,12.006291 Z M 24,19 c 2.761424,0 5,2.238576 5,5 0,2.761424 -2.238576,5 -5,5 -2.761424,0 -5,-2.238576 -5,-5 0,-2.761424 2.238576,-5 5,-5 z"
     id="path1"
     inkscape:path-effect="#path-effect1"
     inkscape:original-d="m 21,10 v 3.419922 c -0.819355,0.235879 -1.608508,0.566222 -2.351562,0.984375 l -2.425782,-2.425781 -4.24414,4.24414 2.419922,2.419922 C 13.984593,19.388106 13.658838,20.179226 13.427734,21 H 10 v 6 h 3.419922 c 0.235879,0.819355 0.566222,1.608508 0.984375,2.351562 l -2.425781,2.425782 4.24414,4.24414 2.419922,-2.419922 c 0.745528,0.413845 1.536648,0.7396 2.357422,0.970704 V 38 h 6 v -3.419922 c 0.819355,-0.235879 1.608508,-0.566222 2.351562,-0.984375 l 2.425782,2.425781 4.24414,-4.24414 -2.419922,-2.419922 C 34.015407,28.611894 34.341162,27.820774 34.572266,27 H 38 v -6 h -3.419922 c -0.235879,-0.819355 -0.566222,-1.608508 -0.984375,-2.351562 l 2.425781,-2.425782 -4.24414,-4.24414 -2.419922,2.419922 C 28.611894,13.984593 27.820774,13.658838 27,13.427734 V 10 Z m 3,9 c 2.761424,0 5,2.238576 5,5 0,2.761424 -2.238576,5 -5,5 -2.761424,0 -5,-2.238576 -5,-5 0,-2.761424 2.238576,-5 5,-5 z"
     sodipodi:nodetypes="cccccccccccccccccccccccccccccccccsssss"
     transform="matrix(1.5361671,0,0,1.5361671,-12.868011,-12.868011)" />
</svg>
