<?xml version="1.0" encoding="UTF-8" standalone="no"?>
<svg
   width="48"
   height="48"
   version="1.1"
   id="svg3"
   sodipodi:docname="Nextcloud_warn_shared.svg"
   inkscape:version="1.4.2 (ebf0e940d0, 2025-05-08)"
   xmlns:inkscape="http://www.inkscape.org/namespaces/inkscape"
   xmlns:sodipodi="http://sodipodi.sourceforge.net/DTD/sodipodi-0.dtd"
   xmlns:xlink="http://www.w3.org/1999/xlink"
   xmlns="http://www.w3.org/2000/svg"
   xmlns:svg="http://www.w3.org/2000/svg">
  <defs
     id="defs3">
    <radialGradient
       inkscape:collect="always"
       xlink:href="#linearGradient5"
       id="radialGradient6"
       cx="-34.96265"
       cy="-10.95596"
       fx="-34.96265"
       fy="-10.95596"
       r="27.999001"
       gradientUnits="userSpaceOnUse"
       gradientTransform="matrix(3.5197738,-0.94312064,-0.69243479,-2.5842018,156.74308,-78.387353)" />
    <linearGradient
       id="linearGradient5"
       inkscape:collect="always">
      <stop
         style="stop-color:#f6b501;stop-opacity:1;"
         offset="0"
         id="stop5" />
      <stop
         style="stop-color:#ff4549;stop-opacity:1;"
         offset="1"
         id="stop6" />
    </linearGradient>
    <inkscape:path-effect
       effect="fillet_chamfer"
       id="path-effect1"
       is_visible="true"
       lpeversion="1"
       nodesatellites_param="F,0,1,1,0,2.9939138,0,1 @ F,0,1,1,0,2.9939138,0,1 @ F,0,1,1,0,2.9939138,0,1 @ F,0,0,1,0,2.9939138,0,1 | F,0,1,1,0,2.9939138,0,1 @ F,0,1,1,0,2.9939138,0,1 @ F,0,1,1,0,2.9939138,0,1 @ F,0,1,1,0,2.9939138,0,1"
       radius="0"
       unit="px"
       method="auto"
       mode="F"
       chamfer_steps="1"
       flexible="false"
       use_knot_distance="true"
       apply_no_radius="true"
       apply_with_radius="true"
       only_selected="false"
       hide_knots="false" />
  </defs>
  <sodipodi:namedview
     id="namedview3"
     pagecolor="#ffffff"
     bordercolor="#000000"
     borderopacity="0.25"
     inkscape:showpageshadow="2"
     inkscape:pageopacity="0.0"
     inkscape:pagecheckerboard="0"
     inkscape:deskcolor="#d1d1d1"
     inkscape:zoom="24.645833"
     inkscape:cx="24"
     inkscape:cy="24"
     inkscape:current-layer="svg3" />
  <rect
     style="fill:#455a64"
     width="24"
     height="20"
     x="14"
     y="28"
     id="rect1" />
  <circle
     style="fill:#455a64"
     cx="14"
     cy="38"
     r="10"
     id="circle1" />
  <path
     style="fill:#ffffff"
     d="m 19,30 a 3,3 0 0 0 -3,3 3,3 0 0 0 0.03906,0.472656 l -4.882812,2.441406 a 3,3 0 0 1 -0.0039,-0.004 A 3,3 0 0 0 9,35 a 3,3 0 0 0 -3,3 3,3 0 0 0 3,3 3,3 0 0 0 2.152344,-0.917968 l 4.886718,2.445312 A 3,3 0 0 0 16,43 a 3,3 0 0 0 3,3 3,3 0 0 0 3,-3 3,3 0 0 0 -3,-3 3,3 0 0 0 -2.152344,0.917968 L 11.960938,38.472656 A 3,3 0 0 0 12,38 3,3 0 0 0 11.960938,37.523438 L 16.84375,35.082032 A 3,3 0 0 0 19,36 3,3 0 0 0 22,33 3,3 0 0 0 19,30 Z"
     id="path3" />
  <g
     id="g2"
     transform="matrix(0.50005643,0,0,0.50005643,7.989847,36.993119)">
    <path
       id="rect1-6"
       style="fill:url(#radialGradient6);stroke-width:0.714513"
       d="M 80.011276,2.005639 C 80.011276,-9.077485 71.088762,-18 60.005638,-18 48.922514,-18 40,-9.077485 40,2.005639 c 0,11.083124 8.922514,20.005639 20.005638,20.005639 11.083124,0 20.005639,-8.922515 20.005638,-20.005639 z" />
    <path
       style="fill:#ffffff"
       d="M 21,12.993914 V 25.006086 A 2.9939138,2.9939138 45 0 0 23.993914,28 h 0.01217 A 2.9939138,2.9939138 135 0 0 27,25.006086 V 12.993914 A 2.9939138,2.9939138 45 0 0 24.006086,10 h -0.01217 A 2.9939138,2.9939138 135 0 0 21,12.993914 Z m 0,22 v 0.01217 A 2.9939138,2.9939138 45 0 0 23.993914,38 h 0.01217 A 2.9939138,2.9939138 135 0 0 27,35.006086 v -0.01217 A 2.9939138,2.9939138 45 0 0 24.006086,32 h -0.01217 A 2.9939138,2.9939138 135 0 0 21,34.993914 Z"
       id="path1"
       inkscape:path-effect="#path-effect1"
       inkscape:original-d="m 21,10 v 18 h 6 V 10 Z m 0,22 v 6 h 6 v -6 z"
       transform="translate(36.005638,-21.994361)" />
  </g>
</svg>
