<?xml version="1.0" encoding="UTF-8" standalone="no"?>
<svg
   width="64"
   height="64"
   version="1"
   id="svg4"
   sodipodi:docname="atom.svg"
   inkscape:version="1.4.2 (ebf0e940d0, 2025-05-08)"
   xmlns:inkscape="http://www.inkscape.org/namespaces/inkscape"
   xmlns:sodipodi="http://sodipodi.sourceforge.net/DTD/sodipodi-0.dtd"
   xmlns:xlink="http://www.w3.org/1999/xlink"
   xmlns="http://www.w3.org/2000/svg"
   xmlns:svg="http://www.w3.org/2000/svg">
  <defs
     id="defs4">
    <linearGradient
       id="linearGradient4"
       inkscape:collect="always">
      <stop
         style="stop-color:#369fbf;stop-opacity:1;"
         offset="0"
         id="stop4" />
      <stop
         style="stop-color:#30c689;stop-opacity:1;"
         offset="1"
         id="stop5" />
    </linearGradient>
    <radialGradient
       inkscape:collect="always"
       xlink:href="#linearGradient4"
       id="radialGradient5"
       cx="64.146996"
       cy="64.048386"
       fx="64.146996"
       fy="64.048386"
       r="25.929182"
       gradientUnits="userSpaceOnUse"
       gradientTransform="matrix(0,-2.4567814,2.4567814,0,-93.205886,221.64353)" />
    <filter
       inkscape:collect="always"
       style="color-interpolation-filters:sRGB"
       id="filter6"
       x="-0.041239642"
       y="-0.045746258"
       width="1.082464"
       height="1.0914835">
      <feGaussianBlur
         inkscape:collect="always"
         stdDeviation="0.6572813"
         id="feGaussianBlur6" />
    </filter>
    <filter
       inkscape:collect="always"
       style="color-interpolation-filters:sRGB"
       id="filter8"
       x="-0.076132034"
       y="-0.076132034"
       width="1.1522641"
       height="1.1522641">
      <feGaussianBlur
         inkscape:collect="always"
         stdDeviation="1.6033678"
         id="feGaussianBlur8" />
    </filter>
  </defs>
  <sodipodi:namedview
     id="namedview4"
     pagecolor="#ffffff"
     bordercolor="#000000"
     borderopacity="0.25"
     inkscape:showpageshadow="2"
     inkscape:pageopacity="0.0"
     inkscape:pagecheckerboard="0"
     inkscape:deskcolor="#d1d1d1"
     inkscape:zoom="14.787609"
     inkscape:cx="23.837525"
     inkscape:cy="29.822265"
     inkscape:current-layer="svg4" />
  <g
     id="g8"
     transform="matrix(1.067902,0,0,1.067902,-2.1728635,-2.1728635)">
    <rect
       style="opacity:1;fill:url(#radialGradient5);stroke-width:0.926042"
       width="51.858364"
       height="51.858364"
       x="6.0708179"
       y="6.0708179"
       rx="25.928255"
       ry="25.928255"
       id="rect1" />
    <rect
       style="opacity:1;fill:none;stroke:#000000;stroke-width:0.2;stroke-dasharray:none;stroke-opacity:1;filter:url(#filter8)"
       width="51.858364"
       height="51.858364"
       x="6.0708179"
       y="6.0708179"
       rx="25.928255"
       ry="25.928255"
       id="rect1-7" />
    <path
       id="path5"
       style="baseline-shift:baseline;display:inline;overflow:visible;vector-effect:none;fill:#ffffff;stroke-linejoin:round;enable-background:accumulate;stop-color:#000000"
       d="m 24.851934,13.667571 c -0.483087,-0.01347 -0.934632,0.02215 -1.291015,0.140625 -1.502735,0.508391 -2.483484,1.657926 -2.990235,3.43164 -0.450573,1.590877 -0.425967,4.267131 0.02148,6.638672 a 0.35003502,0.35003502 0 0 0 0,0.002 c 0.03892,0.204279 0.0773,0.398571 0.109375,0.550782 0.004,0.01886 0.0063,0.02242 0.0098,0.03906 -0.104679,0.03035 -0.214191,0.06083 -0.464843,0.117188 -3.272062,0.737146 -5.692582,1.834517 -7.185547,3.320312 -0.662476,0.653954 -1.063815,1.270136 -1.285156,2.019531 -0.181334,0.60336 -0.180731,1.513259 0.002,2.113282 0.432511,1.42223 1.62074,2.703618 3.43164,3.816406 a 0.35003502,0.35003502 0 0 0 0.002,0 c 0.621631,0.378621 1.029369,0.605061 1.41211,0.689453 0.38274,0.08439 0.760285,-0.05849 1.005859,-0.300781 0.103189,-0.101808 0.191395,-0.198943 0.253906,-0.332031 0.06251,-0.133089 0.07813,-0.275705 0.07813,-0.408204 0,-0.249924 -0.05211,-0.50637 -0.210937,-0.71289 -0.158826,-0.20652 -0.376258,-0.347038 -0.677735,-0.517578 a 0.35003502,0.35003502 0 0 0 -0.002,-0.002 c -1.773199,-0.985188 -2.756993,-1.963754 -3.017578,-2.789062 -0.130292,-0.412654 -0.10408,-0.789969 0.08594,-1.191406 0.190015,-0.401437 0.55993,-0.825165 1.132812,-1.25 1.172283,-0.867763 2.840984,-1.574598 5.121094,-2.125 0.453724,-0.109019 0.704011,-0.159561 0.863281,-0.183594 0.02152,0.08215 0.04734,0.172368 0.08008,0.285156 0.0771,0.265626 0.181115,0.608346 0.298828,0.978516 0.235429,0.740339 0.517236,1.582567 0.714844,2.103516 l 0.343664,0.914063 -0.451172,0.855469 c -2.108318,4.017688 -3.468408,8.104999 -3.634765,11.164062 -0.13537,2.341873 0.292633,4.095886 1.414062,5.208985 1.216637,1.201996 2.971706,1.449123 5.070313,0.785156 0.835768,-0.266043 2.327305,-1.016964 3.25,-1.636719 l 0.002,-0.002 c 0.32022,-0.211432 0.522871,-0.352235 0.675781,-0.488281 0.15341,-0.136491 0.258915,-0.293834 0.316406,-0.44336 0.09364,-0.243529 0.09449,-0.515139 0.002,-0.767578 -0.16641,-0.454485 -0.59655,-0.763672 -1.080079,-0.763672 -0.152228,0 -0.330788,0.03475 -0.509765,0.119141 -0.178978,0.08439 -0.376679,0.209359 -0.681641,0.414062 -1.336867,0.895218 -2.583915,1.442301 -3.572265,1.607422 -0.675558,0.114248 -1.172991,0.02425 -1.560547,-0.236328 -0.387557,-0.260577 -0.693148,-0.716717 -0.894532,-1.423828 -0.06604,-0.233686 -0.122104,-0.938586 -0.117187,-1.669922 0.0049,-0.731335 0.05928,-1.524444 0.154297,-2.03125 a 0.35003502,0.35003502 0 0 0 0,-0.002 c 0.3073,-1.708569 0.847197,-3.490307 1.621093,-5.369141 0.227956,-0.554425 0.563708,-1.304283 0.855469,-1.927734 0.122786,-0.262374 0.228567,-0.481017 0.324219,-0.673828 1.022305,2.259869 2.561637,4.987445 4.076172,7.208984 3.617301,5.298224 7.543963,8.795785 10.78125,9.337891 a 0.35003502,0.35003502 0 0 0 0,0.01758 c 0.04106,0.0065 0.07444,-0.01137 0.115234,-0.0059 v 0.0039 l 0.0293,-0.0059 h 0.002 0.002 c 1.355418,0.175486 2.571102,-0.163355 3.482422,-1.0625 a 0.35003502,0.35003502 0 0 0 0.002,-0.0039 c 0.770737,-0.773739 1.265956,-1.850893 1.539063,-3.289062 0.182927,-0.98664 0.174047,-3.358378 0.0039,-4.613281 a 0.35003502,0.35003502 0 0 0 0,-0.002 c -0.499168,-3.600522 -1.822094,-7.702135 -3.800781,-11.78711 -0.15955,-0.330654 -0.287532,-0.563469 -0.484375,-0.740234 -0.196359,-0.17633 -0.461687,-0.245753 -0.705078,-0.246094 -0.623377,-0.0075 -1.158203,0.483506 -1.158203,1.107422 0,0.193503 0.05405,0.321905 0.128906,0.521484 0.07485,0.19958 0.179258,0.438212 0.308594,0.708985 2.405426,5.058888 3.683444,9.955385 3.554687,13.423828 -0.03975,1.035319 -0.191999,1.84672 -0.439453,2.435547 -0.247454,0.588826 -0.575277,0.95148 -0.998047,1.15625 -0.428159,0.208173 -0.996127,0.21935 -1.837891,-0.05078 -1.919587,-0.642512 -4.304835,-2.643796 -6.61914,-5.498046 C 29.544311,39.495017 27.284059,35.79611 25.514275,31.7904 l -0.283203,-0.640625 0.425781,-0.71875 c 0.567788,-0.963854 2.051486,-3.190998 2.712891,-4.076172 l 0.002,-0.002 0.349609,-0.462891 h 1.029297 c 7.253294,0 14.454956,1.644351 18.179687,4.070312 0.726075,0.473808 1.676713,1.449392 1.888672,1.857422 a 0.35003502,0.35003502 0 0 0 0.002,0.0039 c 0.196921,0.36519 0.183594,0.323483 0.183594,0.818359 0,0.484132 0.01003,0.465716 -0.144531,0.744141 a 0.35003502,0.35003502 0 0 0 -0.002,0.0059 c -0.397574,0.753464 -1.581719,1.673207 -3.126953,2.3125 a 0.35003502,0.35003502 0 0 0 0,0.002 c -0.384218,0.160327 -0.653533,0.294494 -0.857422,0.498047 -0.203889,0.203553 -0.294922,0.490412 -0.294922,0.755859 0,0.510205 0.353379,0.948274 0.83789,1.09375 a 0.35003502,0.35003502 0 0 0 0.0059,0 c 0.12985,0.03698 0.281768,0.0639 0.4375,0.04102 0.155732,-0.02288 0.292866,-0.07482 0.501953,-0.15625 2.635173,-1.027781 4.502255,-2.616032 4.908203,-4.384766 0.125177,-0.525568 0.116805,-1.292936 -0.0078,-1.804687 -0.21968,-0.929422 -0.929673,-1.99045 -1.771485,-2.738281 -3.621015,-3.20624 -11.0691,-5.173544 -19.898437,-5.398438 l 0.238281,-0.263672 a 0.35003502,0.35003502 0 0 0 0.0039,-0.0039 c 0.387554,-0.446115 1.09843,-1.20628 1.576172,-1.683594 2.490541,-2.4979 4.794316,-4.113916 6.748047,-4.773437 a 0.35003502,0.35003502 0 0 0 0.0039,-0.002 c 0.643491,-0.222672 0.67258,-0.230469 1.337891,-0.230469 0.309521,0 0.491574,0.0067 0.605469,0.02344 0.113895,0.01674 0.164917,0.03602 0.283203,0.0957 a 0.35003502,0.35003502 0 0 0 0.0098,0.0039 c 0.258974,0.120807 0.656795,0.514065 0.828125,0.833984 0.352999,0.693888 0.512351,2.080095 0.320313,3.548828 -0.06737,0.531727 -0.123047,1.109295 -0.123047,1.378907 0,0.17941 -0.006,0.312901 0.05273,0.474609 0.05773,0.158871 0.171557,0.269156 0.283203,0.363281 0.203387,0.184495 0.472853,0.283203 0.730469,0.283203 0.471321,0 0.924322,-0.214096 1.095703,-0.654297 0.187521,-0.478927 0.274949,-1.292864 0.326172,-2.189453 0.05122,-0.896588 0.04865,-1.824385 -0.05469,-2.433593 -0.301608,-1.756749 -1.101189,-3.026326 -2.384766,-3.632813 -1.130431,-0.539411 -2.493979,-0.53378 -3.994141,-0.05273 -1.50016,0.481041 -3.152488,1.434365 -4.921874,2.833984 a 0.35003502,0.35003502 0 0 0 0,0.002 c -1.860632,1.473796 -4.270511,3.933623 -5.949219,6.058594 l -0.05469,0.06445 -0.832031,0.04687 c -0.83839,0.04795 -2.180731,0.179085 -3.742188,0.363281 a 0.35003502,0.35003502 0 0 0 -0.002,0 l -0.0059,0.002 -0.08789,-0.486328 h 0.002 c -0.281204,-1.616315 -0.302734,-1.804632 -0.302734,-3.349609 0,-1.355831 0.01262,-1.556789 0.140625,-2.083985 a 0.35003502,0.35003502 0 0 0 0,-0.002 c 0.308404,-1.306583 0.886626,-2.00775 1.548828,-2.146484 1.001575,-0.208508 2.364698,0.294754 4.365235,1.759766 0.417371,0.309329 0.928894,0.353849 1.320312,0.152343 0.390892,-0.201234 0.641793,-0.659041 0.578125,-1.164062 -0.0325,-0.258864 -0.185409,-0.5032 -0.427734,-0.730469 -0.242325,-0.227269 -0.586801,-0.473862 -1.109375,-0.818359 v 0.002 c -0.89251,-0.592764 -1.88274,-1.080685 -2.726563,-1.326172 h -0.002 C 25.838909,13.74738 25.334105,13.680868 24.852191,13.667433 Z m 0.888672,12.392578 c -0.08414,0.125439 -0.157759,0.236731 -0.259765,0.384766 -0.346364,0.496587 -0.830832,1.21674 -1.091797,1.640624 h 0.002 c -0.07157,0.115629 -0.133308,0.208071 -0.199219,0.310547 -0.05195,-0.146201 -0.08311,-0.21633 -0.162109,-0.464843 a 0.35003502,0.35003502 0 0 0 -0.002,-0.0039 c -0.208895,-0.634091 -0.357452,-1.120152 -0.445313,-1.447265 -0.02291,-0.08531 -0.03045,-0.127015 -0.04492,-0.189453 0.183534,-0.02757 0.435539,-0.05996 0.714844,-0.0918 0.502307,-0.05725 1.059034,-0.107661 1.488281,-0.138672 z m 6.261719,3.605469 c -1.294098,0 -2.349609,1.059406 -2.349609,2.351562 0,1.292176 1.056355,2.347656 2.349609,2.347656 1.293271,0 2.349609,-1.055498 2.349609,-2.347656 0,-1.292116 -1.055515,-2.351562 -2.349609,-2.351562 z" />
    <path
       id="path5-6"
       style="baseline-shift:baseline;display:inline;overflow:visible;fill:none;stroke:#00b7cc;stroke-width:0.2;stroke-linejoin:round;stroke-dasharray:none;stroke-opacity:1;filter:url(#filter6);enable-background:accumulate;stop-color:#000000"
       d="m 24.851896,13.667571 c -0.483087,-0.01347 -0.934632,0.02215 -1.291015,0.140625 -1.502735,0.508391 -2.483484,1.657926 -2.990235,3.43164 -0.450573,1.590877 -0.425967,4.267131 0.02148,6.638672 a 0.35003502,0.35003502 0 0 0 0,0.002 c 0.03892,0.204279 0.0773,0.398571 0.109375,0.550782 0.004,0.01886 0.0063,0.02242 0.0098,0.03906 -0.104679,0.03035 -0.214191,0.06083 -0.464843,0.117188 -3.272062,0.737146 -5.692582,1.834517 -7.185547,3.320312 -0.662476,0.653954 -1.063815,1.270136 -1.285156,2.019531 -0.181334,0.60336 -0.180731,1.513259 0.002,2.113282 0.432511,1.42223 1.62074,2.703618 3.43164,3.816406 a 0.35003502,0.35003502 0 0 0 0.002,0 c 0.621631,0.378621 1.029369,0.605061 1.41211,0.689453 0.38274,0.08439 0.760285,-0.05849 1.005859,-0.300781 0.103189,-0.101808 0.191395,-0.198943 0.253906,-0.332031 0.06251,-0.133089 0.07813,-0.275705 0.07813,-0.408204 0,-0.249924 -0.05211,-0.50637 -0.210937,-0.71289 -0.158826,-0.20652 -0.376258,-0.347038 -0.677735,-0.517578 a 0.35003502,0.35003502 0 0 0 -0.002,-0.002 c -1.773199,-0.985188 -2.756993,-1.963754 -3.017578,-2.789062 -0.130292,-0.412654 -0.10408,-0.789969 0.08594,-1.191406 0.190015,-0.401437 0.55993,-0.825165 1.132812,-1.25 1.172283,-0.867763 2.840984,-1.574598 5.121094,-2.125 0.453724,-0.109019 0.704011,-0.159561 0.863281,-0.183594 0.02152,0.08215 0.04734,0.172368 0.08008,0.285156 0.0771,0.265626 0.181115,0.608346 0.298828,0.978516 0.235429,0.740339 0.517236,1.582567 0.714844,2.103516 l 0.343664,0.914063 -0.451172,0.855469 c -2.108318,4.017688 -3.468408,8.104999 -3.634765,11.164062 -0.13537,2.341873 0.292633,4.095886 1.414062,5.208985 1.216637,1.201996 2.971706,1.449123 5.070313,0.785156 0.835768,-0.266043 2.327305,-1.016964 3.25,-1.636719 l 0.002,-0.002 c 0.32022,-0.211432 0.522871,-0.352235 0.675781,-0.488281 0.15341,-0.136491 0.258915,-0.293834 0.316406,-0.44336 0.09364,-0.243529 0.09449,-0.515139 0.002,-0.767578 -0.16641,-0.454485 -0.59655,-0.763672 -1.080079,-0.763672 -0.152228,0 -0.330788,0.03475 -0.509765,0.119141 -0.178978,0.08439 -0.376679,0.209359 -0.681641,0.414062 -1.336867,0.895218 -2.583915,1.442301 -3.572265,1.607422 -0.675558,0.114248 -1.172991,0.02425 -1.560547,-0.236328 -0.387557,-0.260577 -0.693148,-0.716717 -0.894532,-1.423828 -0.06604,-0.233686 -0.122104,-0.938586 -0.117187,-1.669922 0.0049,-0.731335 0.05928,-1.524444 0.154297,-2.03125 a 0.35003502,0.35003502 0 0 0 0,-0.002 c 0.3073,-1.708569 0.847197,-3.490307 1.621093,-5.369141 0.227956,-0.554425 0.563708,-1.304283 0.855469,-1.927734 0.122786,-0.262374 0.228567,-0.481017 0.324219,-0.673828 1.022305,2.259869 2.561637,4.987445 4.076172,7.208984 3.617301,5.298224 7.543963,8.795785 10.78125,9.337891 a 0.35003502,0.35003502 0 0 0 0,0.01758 c 0.04106,0.0065 0.07444,-0.01137 0.115234,-0.0059 v 0.0039 l 0.0293,-0.0059 h 0.002 0.002 c 1.355418,0.175486 2.571102,-0.163355 3.482422,-1.0625 a 0.35003502,0.35003502 0 0 0 0.002,-0.0039 c 0.770737,-0.773739 1.265956,-1.850893 1.539063,-3.289062 0.182927,-0.98664 0.174047,-3.358378 0.0039,-4.613281 a 0.35003502,0.35003502 0 0 0 0,-0.002 c -0.499168,-3.600522 -1.822094,-7.702135 -3.800781,-11.78711 -0.15955,-0.330654 -0.287532,-0.563469 -0.484375,-0.740234 -0.196359,-0.17633 -0.461687,-0.245753 -0.705078,-0.246094 -0.623377,-0.0075 -1.158203,0.483506 -1.158203,1.107422 0,0.193503 0.05405,0.321905 0.128906,0.521484 0.07485,0.19958 0.179258,0.438212 0.308594,0.708985 2.405426,5.058888 3.683444,9.955385 3.554687,13.423828 -0.03975,1.035319 -0.191999,1.84672 -0.439453,2.435547 -0.247454,0.588826 -0.575277,0.95148 -0.998047,1.15625 -0.428159,0.208173 -0.996127,0.21935 -1.837891,-0.05078 C 36.559493,47.206481 34.174245,45.205197 31.85994,42.350947 29.544273,39.495017 27.284021,35.79611 25.514237,31.7904 l -0.283203,-0.640625 0.425781,-0.71875 c 0.567788,-0.963854 2.051486,-3.190998 2.712891,-4.076172 l 0.002,-0.002 0.349331,-0.462626 h 1.029297 c 7.253294,0 14.454956,1.644351 18.179687,4.070312 0.726075,0.473808 1.676713,1.449392 1.888672,1.857422 a 0.35003502,0.35003502 0 0 0 0.002,0.0039 c 0.196921,0.36519 0.183594,0.323483 0.183594,0.818359 0,0.484132 0.01003,0.465716 -0.144531,0.744141 a 0.35003502,0.35003502 0 0 0 -0.002,0.0059 c -0.397574,0.753464 -1.581719,1.673207 -3.126953,2.3125 a 0.35003502,0.35003502 0 0 0 0,0.002 c -0.384218,0.160327 -0.653533,0.294494 -0.857422,0.498047 -0.203889,0.203553 -0.294922,0.490412 -0.294922,0.755859 0,0.510205 0.353379,0.948274 0.83789,1.09375 a 0.35003502,0.35003502 0 0 0 0.0059,0 c 0.12985,0.03698 0.281768,0.0639 0.4375,0.04102 0.155732,-0.02288 0.292866,-0.07482 0.501953,-0.15625 2.635173,-1.027781 4.502255,-2.616032 4.908203,-4.384766 0.125177,-0.525568 0.116805,-1.292936 -0.0078,-1.804687 -0.21968,-0.929422 -0.929673,-1.99045 -1.771485,-2.738281 -3.621015,-3.20624 -11.0691,-5.173544 -19.898437,-5.398438 l 0.238281,-0.263672 a 0.35003502,0.35003502 0 0 0 0.0039,-0.0039 c 0.387554,-0.446115 1.09843,-1.20628 1.576172,-1.683594 2.490541,-2.4979 4.794316,-4.113916 6.748047,-4.773437 a 0.35003502,0.35003502 0 0 0 0.0039,-0.002 c 0.643491,-0.222672 0.67258,-0.230469 1.337891,-0.230469 0.309521,0 0.491574,0.0067 0.605469,0.02344 0.113895,0.01674 0.164917,0.03602 0.283203,0.0957 a 0.35003502,0.35003502 0 0 0 0.0098,0.0039 c 0.258974,0.120807 0.656795,0.514065 0.828125,0.833984 0.352999,0.693888 0.512351,2.080095 0.320313,3.548828 -0.06737,0.531727 -0.123047,1.109295 -0.123047,1.378907 0,0.17941 -0.006,0.312901 0.05273,0.474609 0.05773,0.158871 0.171557,0.269156 0.283203,0.363281 0.203387,0.184495 0.472853,0.283203 0.730469,0.283203 0.471321,0 0.924322,-0.214096 1.095703,-0.654297 0.187521,-0.478927 0.274949,-1.292864 0.326172,-2.189453 0.05122,-0.896588 0.04865,-1.824385 -0.05469,-2.433593 -0.301608,-1.756749 -1.101189,-3.026326 -2.384766,-3.632813 -1.130431,-0.539411 -2.493979,-0.53378 -3.994141,-0.05273 -1.50016,0.481041 -3.152488,1.434365 -4.921874,2.833984 a 0.35003502,0.35003502 0 0 0 0,0.002 c -1.860632,1.473796 -4.270511,3.933623 -5.949219,6.058594 l -0.05469,0.06445 -0.832031,0.04687 c -0.83839,0.04795 -2.180731,0.179085 -3.742188,0.363281 a 0.35003502,0.35003502 0 0 0 -0.002,0 l -0.0059,0.002 -0.08789,-0.486328 h 0.002 c -0.281204,-1.616315 -0.302734,-1.804632 -0.302734,-3.349609 0,-1.355831 0.01262,-1.556789 0.140625,-2.083985 a 0.35003502,0.35003502 0 0 0 0,-0.002 c 0.308404,-1.306583 0.886626,-2.00775 1.548828,-2.146484 1.001575,-0.208508 2.364698,0.294754 4.365235,1.759766 0.417371,0.309329 0.928894,0.353849 1.320312,0.152343 0.390892,-0.201234 0.641793,-0.659041 0.578125,-1.164062 -0.0325,-0.258864 -0.185409,-0.5032 -0.427734,-0.730469 -0.242325,-0.227269 -0.586801,-0.473862 -1.109375,-0.818359 v 0.002 c -0.89251,-0.592764 -1.88274,-1.080685 -2.726563,-1.326172 h -0.002 c -0.431251,-0.127084 -0.936055,-0.193596 -1.417969,-0.207031 z m 0.888672,12.392578 c -0.08414,0.125439 -0.157759,0.236731 -0.259765,0.384766 -0.346364,0.496587 -0.830832,1.21674 -1.091797,1.640624 h 0.002 c -0.07157,0.115629 -0.133308,0.208071 -0.199219,0.310547 -0.05195,-0.146201 -0.08311,-0.21633 -0.162109,-0.464843 a 0.35003502,0.35003502 0 0 0 -0.002,-0.0039 c -0.208895,-0.634091 -0.357452,-1.120152 -0.445313,-1.447265 -0.02291,-0.08531 -0.03045,-0.127015 -0.04492,-0.189453 0.183534,-0.02757 0.435539,-0.05996 0.714844,-0.0918 0.502307,-0.05725 1.059034,-0.107661 1.488281,-0.138672 z m 6.261719,3.605469 c -1.294098,0 -2.349609,1.059406 -2.349609,2.351562 0,1.292176 1.056355,2.347656 2.349609,2.347656 1.293271,0 2.349609,-1.055498 2.349609,-2.347656 0,-1.292116 -1.055515,-2.351562 -2.349609,-2.351562 z" />
  </g>
</svg>
