<?xml version="1.0" encoding="UTF-8" standalone="no"?>
<svg
   width="64"
   height="64"
   version="1"
   id="svg10"
   sodipodi:docname="accessories-notes.svg"
   inkscape:version="1.4.2 (ebf0e940d0, 2025-05-08)"
   xmlns:inkscape="http://www.inkscape.org/namespaces/inkscape"
   xmlns:sodipodi="http://sodipodi.sourceforge.net/DTD/sodipodi-0.dtd"
   xmlns:xlink="http://www.w3.org/1999/xlink"
   xmlns="http://www.w3.org/2000/svg"
   xmlns:svg="http://www.w3.org/2000/svg">
  <defs
     id="defs10">
    <linearGradient
       id="linearGradient14"
       inkscape:collect="always">
      <stop
         style="stop-color:#ff9500;stop-opacity:0.99995726;"
         offset="0"
         id="stop15" />
      <stop
         style="stop-color:#ff6600;stop-opacity:0.99995726;"
         offset="1"
         id="stop16" />
    </linearGradient>
    <linearGradient
       id="linearGradient13"
       inkscape:collect="always">
      <stop
         style="stop-color:#fecd38;stop-opacity:1;"
         offset="0"
         id="stop13" />
      <stop
         style="stop-color:#feaa38;stop-opacity:1;"
         offset="1"
         id="stop14" />
    </linearGradient>
    <radialGradient
       inkscape:collect="always"
       xlink:href="#linearGradient13"
       id="radialGradient14"
       cx="9.3540497"
       cy="8.8626909"
       fx="9.3540497"
       fy="8.8626909"
       r="28"
       gradientUnits="userSpaceOnUse"
       gradientTransform="matrix(0.03933392,1.7187554,-1.8898584,0.04324962,26.948702,-6.3536861)" />
    <radialGradient
       inkscape:collect="always"
       xlink:href="#linearGradient14"
       id="radialGradient1"
       cx="3.4521797"
       cy="3.0840595"
       fx="3.4521797"
       fy="3.0840595"
       r="22"
       gradientTransform="matrix(-0.40437185,2.2844593,-2.4986895,-0.44229262,18.265134,-6.5079832)"
       gradientUnits="userSpaceOnUse" />
    <radialGradient
       inkscape:collect="always"
       xlink:href="#linearGradient14"
       id="radialGradient2"
       cx="3.4521797"
       cy="3.0840595"
       fx="3.4521797"
       fy="3.0840595"
       r="22"
       gradientTransform="matrix(-0.40437185,2.2844593,-2.4986895,-0.44229262,18.265134,-6.5079832)"
       gradientUnits="userSpaceOnUse" />
    <radialGradient
       inkscape:collect="always"
       xlink:href="#linearGradient14"
       id="radialGradient4"
       cx="3.4521797"
       cy="3.0840595"
       fx="3.4521797"
       fy="3.0840595"
       r="22"
       gradientTransform="matrix(-0.40437185,2.2844593,-2.4986895,-0.44229262,18.265134,-6.5079832)"
       gradientUnits="userSpaceOnUse" />
    <radialGradient
       inkscape:collect="always"
       xlink:href="#linearGradient14"
       id="radialGradient11"
       gradientUnits="userSpaceOnUse"
       gradientTransform="matrix(-0.38263652,2.1616677,-2.3643828,-0.41851902,19.003394,-4.9112714)"
       cx="3.4521797"
       cy="3.0840595"
       fx="3.4521797"
       fy="3.0840595"
       r="22" />
    <filter
       inkscape:collect="always"
       style="color-interpolation-filters:sRGB"
       id="filter1"
       x="-0.10116602"
       y="-0.10120524"
       width="1.2023154"
       height="1.2024089">
      <feGaussianBlur
         inkscape:collect="always"
         stdDeviation="2.321667"
         id="feGaussianBlur1" />
    </filter>
    <filter
       inkscape:collect="always"
       style="color-interpolation-filters:sRGB"
       id="filter2"
       x="-0.057235464"
       y="-0.093144237"
       width="1.1144709"
       height="1.1862885">
      <feGaussianBlur
         inkscape:collect="always"
         stdDeviation="0.95354037"
         id="feGaussianBlur2" />
    </filter>
  </defs>
  <sodipodi:namedview
     id="namedview10"
     pagecolor="#ffffff"
     bordercolor="#000000"
     borderopacity="0.25"
     inkscape:showpageshadow="2"
     inkscape:pageopacity="0.0"
     inkscape:pagecheckerboard="0"
     inkscape:deskcolor="#d1d1d1"
     inkscape:zoom="9.8111066"
     inkscape:cx="34.552677"
     inkscape:cy="44.439432"
     inkscape:window-width="2713"
     inkscape:window-height="1380"
     inkscape:window-x="0"
     inkscape:window-y="0"
     inkscape:window-maximized="0"
     inkscape:current-layer="svg10" />
  <path
     style="fill:url(#radialGradient14);stroke-width:0.946249"
     d="m 9.2861341,5.5056283 c 0,0 -3.7849966,0 -3.7849966,3.7849966 V 54.710584 c 0,3.784997 3.7849966,3.784997 3.7849966,3.784997 H 39.566107 L 58.49109,39.570598 V 9.2906249 c 0,-3.7849966 -3.784997,-3.7849966 -3.784997,-3.7849966 z"
     id="path2" />
  <path
     style="fill:#ffe69b;stroke-width:0.946249"
     d="M 58.513977,39.570598 H 42.427741 c -1.566988,0 -2.838747,1.271759 -2.838747,2.838747 v 16.086236 z"
     id="path3" />
  <path
     id="rect6"
     style="fill:url(#radialGradient11);stroke-width:0.946249"
     d="m 13.548142,19.225637 c -1.310554,0 -2.365623,1.055068 -2.365623,2.365623 0,1.310554 1.055069,2.365622 2.365623,2.365622 h 36.903716 c 1.310555,0 2.365623,-1.055068 2.365623,-2.365623 0,-1.310555 -1.055069,-2.365623 -2.365623,-2.365623 z m 0,10.40874 c -1.310554,0 -2.365623,1.055069 -2.365623,2.365623 0,1.310554 1.055069,2.365622 2.365623,2.365622 h 23.656229 c 1.310554,0 2.365623,-1.055069 2.365623,-2.365622 0,-1.310554 -1.05507,-2.365623 -2.365623,-2.365623 z m 0,10.40874 c -1.310554,0 -2.365623,1.05507 -2.365623,2.365623 0,1.310555 1.055069,2.365623 2.365623,2.365623 h 13.247487 c 1.310555,0 2.365623,-1.055069 2.365623,-2.365623 0,-1.310554 -1.055068,-2.365623 -2.365623,-2.365623 z" />
  <path
     id="path7"
     style="color:#000000;mix-blend-mode:normal;fill:#000000;stroke:#000000;stroke-width:0.211361;stroke-linejoin:round;stroke-dasharray:none;stroke-opacity:1;filter:url(#filter1)"
     d="m 7.9179688,3.9609375 c 0,0 -1.0095608,-1.035e-4 -2.0214844,0.5058594 C 4.8845607,4.9727597 3.8671875,5.9950601 3.8671875,8.0117188 V 56.011719 c 0,2.016658 1.0173732,3.037006 2.0292969,3.542969 1.0119236,0.505963 2.0214844,0.505859 2.0214844,0.505859 H 39.917969 c 0.0013,-6.09e-4 0.0026,-0.0013 0.0039,-0.002 6.67e-4,1.3e-5 0.0013,1.3e-5 0.002,0 0.01836,0.0067 0.03896,0.0022 0.05273,-0.01172 l 20,-20 c 0.02009,-0.0221 0.01644,-0.05678 -0.0078,-0.07422 V 8.0117188 c 0,-2.0166587 -1.01542,-3.0389591 -2.027344,-3.5449219 C 56.929472,3.960834 55.917969,3.9609375 55.917969,3.9609375 Z m 0,0.099609 H 55.917969 c 0,0 0.990443,1.034e-4 1.978515,0.4941406 0.988073,0.4940372 1.970704,1.4737058 1.970704,3.4570313 V 39.960938 H 42.941406 c -0.21038,0 -0.416763,0.02181 -0.615234,0.0625 -0.198472,0.04069 -0.389814,0.100473 -0.572266,0.177734 -0.182451,0.07726 -0.355257,0.171525 -0.517578,0.28125 -0.16232,0.109725 -0.313093,0.234968 -0.451172,0.373047 -0.138078,0.138078 -0.263321,0.288851 -0.373047,0.451172 -0.109725,0.16232 -0.203988,0.335126 -0.28125,0.517578 -0.07726,0.182451 -0.137048,0.373794 -0.177734,0.572265 -0.04069,0.198472 -0.0625,0.404854 -0.0625,0.615235 V 59.960938 H 7.9179688 c 0,0 -0.9884901,-1.04e-4 -1.9765626,-0.494141 C 4.9533339,58.972759 3.96875,57.995044 3.96875,56.011719 V 8.0117188 c 0,-1.9833255 0.9845839,-2.9629941 1.9726562,-3.4570313 C 6.9294787,4.0606503 7.9179688,4.0605473 7.9179688,4.0605465 Z M 42.941406,40.060549 H 59.820312 L 39.992188,59.888672 V 43.011719 c 0,-0.203618 0.02126,-0.401701 0.06055,-0.59375 0.03928,-0.192049 0.09726,-0.378173 0.171875,-0.554688 0.07461,-0.176514 0.165491,-0.34494 0.271485,-0.501953 0.105993,-0.157012 0.225953,-0.302003 0.359375,-0.435547 0.133421,-0.133543 0.280602,-0.25522 0.4375,-0.361328 0.156898,-0.106108 0.323577,-0.196779 0.5,-0.271484 0.176422,-0.07471 0.362691,-0.132539 0.554687,-0.171875 0.191996,-0.03934 0.390133,-0.06055 0.59375,-0.06055 z"
     transform="matrix(0.94624915,0,0,0.94624915,1.7161409,1.7206317)"
     sodipodi:nodetypes="csssscccccccscccccsscsssssssssccssssccccsssssssssc" />
  <path
     d="m 13.548142,19.178504 c -1.33594,0 -2.413675,1.077734 -2.413675,2.413675 0,1.335939 1.077735,2.411826 2.413675,2.411826 h 36.903716 c 1.33594,0 2.413675,-1.075887 2.413675,-2.411826 0,-1.335941 -1.077735,-2.413675 -2.413675,-2.413675 z m 0,0.09426 h 36.903716 c 1.285153,0 2.317571,1.034265 2.317572,2.319419 0,1.285153 -1.032419,2.317572 -2.317572,2.317572 H 13.548142 c -1.285155,0 -2.317572,-1.032419 -2.317572,-2.317572 0,-1.285154 1.032417,-2.319419 2.317572,-2.319419 z m 0,10.314486 c -1.33594,0 -2.413675,1.077735 -2.413675,2.413674 0,1.335938 1.077735,2.411826 2.413675,2.411826 H 37.20437 c 1.335939,0 2.413675,-1.075888 2.413675,-2.411826 0,-1.335939 -1.077736,-2.413674 -2.413675,-2.413674 z m 0,0.09426 H 37.20437 c 1.285152,0 2.317572,1.034266 2.317572,2.319419 0,1.285152 -1.03242,2.317571 -2.317572,2.317571 H 13.548142 c -1.285153,0 -2.317572,-1.032419 -2.317572,-2.317571 0,-1.285153 1.032419,-2.319419 2.317572,-2.319419 z m 0,10.314485 c -1.33594,0 -2.413675,1.077736 -2.413675,2.413675 0,1.335938 1.077735,2.411826 2.413675,2.411826 H 26.79563 c 1.335938,0 2.413674,-1.075888 2.413674,-2.411826 0,-1.335939 -1.077736,-2.413675 -2.413674,-2.413675 z m 0,0.09426 H 26.79563 c 1.285152,0 2.317571,1.034267 2.317571,2.31942 0,1.285152 -1.032419,2.317571 -2.317571,2.317571 H 13.548142 c -1.285153,0 -2.317572,-1.032419 -2.317572,-2.317571 0,-1.285153 1.032419,-2.31942 2.317572,-2.31942 z"
     style="color:#000000;mix-blend-mode:normal;fill:#000000;stroke:#ff000d;stroke-width:0.2;stroke-linejoin:round;stroke-dasharray:none;stroke-opacity:1;filter:url(#filter2)"
     id="path1" />
</svg>
