<?xml version="1.0" encoding="UTF-8" standalone="no"?>
<svg
   width="64"
   height="64"
   version="1"
   id="svg12"
   sodipodi:docname="com.jetbrains.DataGrip.svg"
   inkscape:version="1.4.2 (ebf0e940d0, 2025-05-08)"
   xmlns:inkscape="http://www.inkscape.org/namespaces/inkscape"
   xmlns:sodipodi="http://sodipodi.sourceforge.net/DTD/sodipodi-0.dtd"
   xmlns:xlink="http://www.w3.org/1999/xlink"
   xmlns="http://www.w3.org/2000/svg"
   xmlns:svg="http://www.w3.org/2000/svg">
  <defs
     id="defs12">
    <radialGradient
       inkscape:collect="always"
       xlink:href="#linearGradient8"
       id="radialGradient9"
       cx="22.31115"
       cy="42.834019"
       fx="22.31115"
       fy="42.834019"
       r="28"
       gradientUnits="userSpaceOnUse"
       gradientTransform="matrix(-2.7760856,0,0,-2.7690745,125.6882,121.11938)" />
    <linearGradient
       id="linearGradient8"
       inkscape:collect="always">
      <stop
         style="stop-color:#f746af;stop-opacity:1;"
         offset="0"
         id="stop8" />
      <stop
         style="stop-color:#926ae5;stop-opacity:1;"
         offset="0.60382038"
         id="stop13" />
      <stop
         style="stop-color:#3670ff;stop-opacity:1;"
         offset="0.76229227"
         id="stop14" />
      <stop
         style="stop-color:#46e5f7;stop-opacity:1;"
         offset="1"
         id="stop9" />
    </linearGradient>
    <filter
       inkscape:collect="always"
       style="color-interpolation-filters:sRGB"
       id="filter12"
       x="-0.06906957"
       y="-0.069069569"
       width="1.1381391"
       height="1.1381391">
      <feGaussianBlur
         inkscape:collect="always"
         stdDeviation="1.5491233"
         id="feGaussianBlur12" />
    </filter>
    <filter
       inkscape:collect="always"
       style="color-interpolation-filters:sRGB"
       id="filter11"
       x="-0.087906725"
       y="-0.087906723"
       width="1.1758134"
       height="1.1758134">
      <feGaussianBlur
         inkscape:collect="always"
         stdDeviation="1.5491233"
         id="feGaussianBlur11" />
    </filter>
    <filter
       inkscape:collect="always"
       style="color-interpolation-filters:sRGB"
       id="filter16"
       x="-0.1344555"
       y="-0.40369175"
       width="1.2689108"
       height="1.8073835">
      <feGaussianBlur
         inkscape:collect="always"
         stdDeviation="0.39757154"
         id="feGaussianBlur16" />
    </filter>
  </defs>
  <sodipodi:namedview
     id="namedview12"
     pagecolor="#ffffff"
     bordercolor="#000000"
     borderopacity="0.25"
     inkscape:showpageshadow="2"
     inkscape:pageopacity="0.0"
     inkscape:pagecheckerboard="0"
     inkscape:deskcolor="#d1d1d1"
     inkscape:zoom="13.50132"
     inkscape:cx="19.664744"
     inkscape:cy="32.293138"
     inkscape:current-layer="svg12" />
  <path
     id="path2-36"
     style="fill:url(#radialGradient9)"
     d="M 20.800781,4.0000001 C 11.493591,4.0000001 4,11.493591 4,20.800782 V 32.000001 43.19922 c 0,9.30719 7.493591,16.800781 16.800781,16.800781 H 43.199219 C 52.506409,60.000001 60,52.50641 60,43.19922 V 32.000001 20.800782 C 60,11.493591 52.506409,4.0000001 43.199219,4.0000001 Z" />
  <path
     style="fill:#3f3f3f"
     d="m 21,10 h 22 c 6.189135,0 11,4.810866 11,11.000001 v 22 c 0,6.189135 -4.810865,11 -11,11 H 21 c -6.189135,0 -11,-4.810865 -11,-11 v -22 C 10,14.810866 14.810865,10 21,10 Z"
     id="path5-7" />
  <path
     id="path2-3"
     style="fill:none;stroke:#000000;stroke-width:0.3;stroke-dasharray:none;stroke-opacity:1;filter:url(#filter12)"
     d="M 20.800781,4.0000003 C 11.493591,4.0000003 4,11.493591 4,20.800782 V 32.000001 43.19922 c 0,9.30719 7.493591,16.800781 16.800781,16.800781 H 43.199219 C 52.506409,60.000001 60,52.50641 60,43.19922 V 32.000001 20.800782 C 60,11.493591 52.506409,4.0000003 43.199219,4.0000003 Z" />
  <path
     style="fill:none;stroke:#000000;stroke-width:0.3;stroke-dasharray:none;stroke-opacity:1;filter:url(#filter11)"
     d="m 21,9.9999999 h 22 c 6.189135,0 11,4.8108661 11,11.0000011 v 22 c 0,6.189135 -4.810865,11 -11,11 H 21 c -6.189135,0 -11,-4.810865 -11,-11 v -22 C 10,14.810866 14.810865,9.9999999 21,9.9999999 Z"
     id="path5-5" />
  <path
     style="fill:none;stroke:#ffffff;stroke-width:2.61211;stroke-linecap:round"
     d="M 16.374547,34.544485 H 26.822992"
     id="path7-9" />
  <path
     style="fill:none;stroke:#ffffff;stroke-width:2.60723;stroke-linecap:round;stroke-linejoin:bevel"
     d="m 16.388866,26.695969 c 0,0 5.271544,0.456591 5.214468,-5.214467 -0.05707,-5.671077 -5.214468,-5.214471 -5.214468,-5.214471 m -0.01838,10.420577 V 16.258673"
     id="path10-9" />
  <path
     style="fill:none;stroke:#ffffff;stroke-width:2.60723;stroke-linecap:round;stroke-linejoin:bevel"
     d="m 30.710275,22.776756 h 2.607232 m -1.303616,0 c 0,0 0.639951,3.910852 -2.607235,3.910852 -2.607232,0 -2.607232,-2.607236 -2.607232,-5.214471 0,-2.607232 0,-5.214468 2.607232,-5.214468 2.607235,0 2.597298,1.303616 2.597298,1.303616"
     id="path12-3" />
  <path
     style="baseline-shift:baseline;display:inline;overflow:visible;mix-blend-mode:normal;fill:none;stroke:#c500ff;stroke-width:0.2;stroke-linecap:round;stroke-dasharray:none;stroke-opacity:1;filter:url(#filter16);enable-background:accumulate;stop-color:#000000"
     d="m 16.375471,33.236902 a 1.3060549,1.3060549 0 0 0 -1.306641,1.306641 1.3060549,1.3060549 0 0 0 1.306641,1.304687 h 10.447266 a 1.3060549,1.3060549 0 0 0 1.30664,-1.304687 1.3060549,1.3060549 0 0 0 -1.30664,-1.306641 z"
     id="path7-9-6" />
  <path
     style="baseline-shift:baseline;display:inline;overflow:visible;mix-blend-mode:normal;fill:none;stroke:#c500ff;stroke-width:0.2;stroke-linecap:round;stroke-linejoin:bevel;stroke-dasharray:none;stroke-opacity:1;filter:url(#filter16);enable-background:accumulate;stop-color:#000000"
     d="m 16.371565,14.953699 a 1.303615,1.303615 0 0 0 -0.01563,0.01563 c -0.0052,4.72e-4 -0.08203,-0.002 -0.08203,-0.002 a 1.303615,1.303615 0 0 0 -1.115234,1.197266 1.303615,1.303615 0 0 0 -0.0918,0.0918 v 10.429726 a 1.303615,1.303615 0 0 0 0.701172,0.701172 1.303615,1.303615 0 0 0 0.509766,0.605469 c 0,0 0.08701,-0.0025 0.09375,-0.002 0.13907,0.01228 1.595341,0.131689 3.185547,-0.589843 1.667314,-0.75652 3.382208,-2.694552 3.349609,-5.933594 -0.03252,-3.231009 -1.73701,-5.148586 -3.388672,-5.90625 -1.55847,-0.714914 -2.96588,-0.605942 -3.130859,-0.591797 a 1.303615,1.303615 0 0 0 -0.01563,-0.01563 z m 1.302734,2.832031 c 0.321288,0.05035 0.387691,-0.02525 0.757813,0.144532 0.941304,0.431802 1.842632,1.122432 1.867187,3.5625 0.02448,2.432016 -0.866124,3.100254 -1.820312,3.533203 -0.388474,0.176264 -0.467018,0.101009 -0.804688,0.15039 z"
     id="path10-9-2" />
  <path
     style="baseline-shift:baseline;display:inline;overflow:visible;mix-blend-mode:normal;fill:none;stroke:#c500ff;stroke-width:0.2;stroke-linecap:round;stroke-linejoin:bevel;stroke-dasharray:none;stroke-opacity:1;filter:url(#filter16);enable-background:accumulate;stop-color:#000000"
     d="m 29.406721,14.953699 c -0.869077,0 -1.686704,0.240483 -2.306641,0.722656 -0.619937,0.482174 -0.99302,1.145076 -1.210937,1.798828 -0.435834,1.307505 -0.392578,2.692478 -0.392578,3.996094 0,1.303618 -0.04326,2.690543 0.392578,3.998047 0.217917,0.653752 0.591,1.314701 1.210937,1.796875 0.619937,0.482174 1.437564,0.72461 2.306641,0.724609 1.073472,0 2.021318,-0.366655 2.662109,-0.958984 0.640792,-0.592329 0.958707,-1.329024 1.123047,-1.982422 0.128425,-0.5106 0.03632,-0.562178 0.04297,-0.970703 h 0.08398 a 1.303615,1.303615 0 0 0 1.302735,-1.302734 1.303615,1.303615 0 0 0 -1.302735,-1.304688 h -2.607422 a 1.303615,1.303615 0 0 0 -1.304687,1.304688 1.303615,1.303615 0 0 0 1.273437,1.271484 c -0.01342,0.167694 0.02611,0.199313 -0.01563,0.365234 -0.08157,0.324316 -0.212745,0.564123 -0.365234,0.705079 -0.152488,0.140956 -0.342457,0.265625 -0.892578,0.265625 -0.434539,0 -0.593684,-0.08567 -0.707031,-0.173829 -0.113347,-0.08816 -0.229904,-0.240491 -0.337891,-0.564453 -0.215974,-0.647922 -0.257812,-1.87021 -0.257812,-3.173828 0,-1.303616 0.04184,-2.523953 0.257812,-3.171875 0.107987,-0.323961 0.224544,-0.476294 0.337891,-0.564453 0.113347,-0.08816 0.272492,-0.173828 0.707031,-0.173828 1.086349,0 1.336572,0.250519 1.351562,0.265625 0.0075,0.0076 -0.01893,-0.0226 -0.0332,-0.06641 -0.01427,-0.04381 -0.02344,-0.208985 -0.02344,-0.208985 a 1.303615,1.303615 0 0 0 1.292969,1.3125 1.303615,1.303615 0 0 0 1.3125,-1.292968 c 0,0 -0.0077,-0.328953 -0.101563,-0.617188 -0.09388,-0.288234 -0.281731,-0.644539 -0.597656,-0.96289 -0.63185,-0.636703 -1.680286,-1.03711 -3.201172,-1.03711 z"
     id="path12-3-6" />
</svg>
