<?xml version="1.0" encoding="UTF-8" standalone="no"?>
<svg
   width="64"
   height="64"
   version="1"
   id="svg4"
   sodipodi:docname="xfce_unknown.svg"
   inkscape:version="1.4.2 (ebf0e940d0, 2025-05-08)"
   xmlns:inkscape="http://www.inkscape.org/namespaces/inkscape"
   xmlns:sodipodi="http://sodipodi.sourceforge.net/DTD/sodipodi-0.dtd"
   xmlns:xlink="http://www.w3.org/1999/xlink"
   xmlns="http://www.w3.org/2000/svg"
   xmlns:svg="http://www.w3.org/2000/svg">
  <defs
     id="defs4">
    <inkscape:path-effect
       effect="fillet_chamfer"
       id="path-effect8"
       is_visible="true"
       lpeversion="1"
       nodesatellites_param="F,0,0,1,0,0,0,1 @ F,0,1,1,0,2.9908216,0,1 @ F,0,1,1,0,2.9908216,0,1 @ F,0,0,1,0,0,0,1 @ F,0,0,1,0,0,0,1 @ F,0,0,1,0,0,0,1 @ F,0,0,1,0,0,0,1 @ F,0,1,1,0,2.9908216,0,1 @ F,0,0,1,0,2.9908216,0,1 @ F,0,0,1,0,0,0,1 @ F,0,0,1,0,0,0,1 @ F,0,0,1,0,0,0,1 | F,0,1,1,0,2.9908216,0,1 @ F,0,1,1,0,2.9908216,0,1 @ F,0,1,1,0,2.9908216,0,1 @ F,0,1,1,0,2.9908216,0,1"
       radius="0"
       unit="px"
       method="auto"
       mode="F"
       chamfer_steps="1"
       flexible="false"
       use_knot_distance="true"
       apply_no_radius="true"
       apply_with_radius="true"
       only_selected="false"
       hide_knots="false" />
    <inkscape:path-effect
       effect="fillet_chamfer"
       id="path-effect5"
       is_visible="true"
       lpeversion="1"
       nodesatellites_param="F,0,0,1,0,0,0,1 @ F,0,1,1,0,2.9908216,0,1 @ F,0,1,1,0,2.9908216,0,1 @ F,0,0,1,0,0,0,1 @ F,0,0,1,0,0,0,1 @ F,0,0,1,0,0,0,1 @ F,0,0,1,0,0,0,1 @ F,0,1,1,0,2.9908216,0,1 @ F,0,0,1,0,2.9908216,0,1 @ F,0,0,1,0,0,0,1 @ F,0,0,1,0,0,0,1 @ F,0,0,1,0,0,0,1 | F,0,1,1,0,2.9908216,0,1 @ F,0,1,1,0,2.9908216,0,1 @ F,0,1,1,0,2.9908216,0,1 @ F,0,1,1,0,2.9908216,0,1"
       radius="0"
       unit="px"
       method="auto"
       mode="F"
       chamfer_steps="1"
       flexible="false"
       use_knot_distance="true"
       apply_no_radius="true"
       apply_with_radius="true"
       only_selected="false"
       hide_knots="false" />
    <inkscape:path-effect
       effect="fillet_chamfer"
       id="path-effect6"
       is_visible="true"
       lpeversion="1"
       nodesatellites_param="F,0,0,1,0,0,0,1 @ F,0,1,1,0,2.9908216,0,1 @ F,0,1,1,0,2.9908216,0,1 @ F,0,0,1,0,0,0,1 @ F,0,0,1,0,0,0,1 @ F,0,0,1,0,0,0,1 @ F,0,0,1,0,0,0,1 @ F,0,1,1,0,2.9908216,0,1 @ F,0,0,1,0,2.9908216,0,1 @ F,0,0,1,0,0,0,1 @ F,0,0,1,0,0,0,1 @ F,0,0,1,0,0,0,1 | F,0,1,1,0,2.9908216,0,1 @ F,0,1,1,0,2.9908216,0,1 @ F,0,1,1,0,2.9908216,0,1 @ F,0,1,1,0,2.9908216,0,1"
       radius="0"
       unit="px"
       method="auto"
       mode="F"
       chamfer_steps="1"
       flexible="false"
       use_knot_distance="true"
       apply_no_radius="true"
       apply_with_radius="true"
       only_selected="false"
       hide_knots="false" />
    <inkscape:path-effect
       effect="fillet_chamfer"
       id="path-effect6-0"
       is_visible="true"
       lpeversion="1"
       nodesatellites_param="F,0,0,1,0,0,0,1 @ F,0,1,1,0,2.9908216,0,1 @ F,0,1,1,0,2.9908216,0,1 @ F,0,0,1,0,0,0,1 @ F,0,0,1,0,0,0,1 @ F,0,0,1,0,0,0,1 @ F,0,0,1,0,0,0,1 @ F,0,1,1,0,2.9908216,0,1 @ F,0,0,1,0,2.9908216,0,1 @ F,0,0,1,0,0,0,1 @ F,0,0,1,0,0,0,1 @ F,0,0,1,0,0,0,1 | F,0,1,1,0,2.9908216,0,1 @ F,0,1,1,0,2.9908216,0,1 @ F,0,1,1,0,2.9908216,0,1 @ F,0,1,1,0,2.9908216,0,1"
       radius="0"
       unit="px"
       method="auto"
       mode="F"
       chamfer_steps="1"
       flexible="false"
       use_knot_distance="true"
       apply_no_radius="true"
       apply_with_radius="true"
       only_selected="false"
       hide_knots="false" />
    <inkscape:path-effect
       effect="fillet_chamfer"
       id="path-effect6-3"
       is_visible="true"
       lpeversion="1"
       nodesatellites_param="F,0,0,1,0,0,0,1 @ F,0,1,1,0,2.9908216,0,1 @ F,0,1,1,0,2.9908216,0,1 @ F,0,0,1,0,0,0,1 @ F,0,0,1,0,0,0,1 @ F,0,0,1,0,0,0,1 @ F,0,0,1,0,0,0,1 @ F,0,1,1,0,2.9908216,0,1 @ F,0,0,1,0,2.9908216,0,1 @ F,0,0,1,0,0,0,1 @ F,0,0,1,0,0,0,1 @ F,0,0,1,0,0,0,1 | F,0,1,1,0,2.9908216,0,1 @ F,0,1,1,0,2.9908216,0,1 @ F,0,1,1,0,2.9908216,0,1 @ F,0,1,1,0,2.9908216,0,1"
       radius="0"
       unit="px"
       method="auto"
       mode="F"
       chamfer_steps="1"
       flexible="false"
       use_knot_distance="true"
       apply_no_radius="true"
       apply_with_radius="true"
       only_selected="false"
       hide_knots="false" />
    <radialGradient
       id="SVGID_1_-3-2"
       cx="-159.43106"
       cy="15.462561"
       r="64.706802"
       gradientTransform="matrix(-0.89413329,0,0,0.96304834,-57.788688,47.295394)"
       gradientUnits="userSpaceOnUse"
       fx="-159.43106"
       fy="15.462561">
      <stop
         offset="0"
         style="stop-color:#006fff;stop-opacity:1;"
         id="stop1-6-9" />
      <stop
         offset="1"
         style="stop-color:#15baff;stop-opacity:1;"
         id="stop2-7-1" />
    </radialGradient>
    <inkscape:path-effect
       effect="fillet_chamfer"
       id="path-effect6-5"
       is_visible="true"
       lpeversion="1"
       nodesatellites_param="F,0,0,1,0,0,0,1 @ F,0,1,1,0,2.9908216,0,1 @ F,0,1,1,0,2.9908216,0,1 @ F,0,0,1,0,0,0,1 @ F,0,0,1,0,0,0,1 @ F,0,0,1,0,0,0,1 @ F,0,0,1,0,0,0,1 @ F,0,1,1,0,2.9908216,0,1 @ F,0,0,1,0,2.9908216,0,1 @ F,0,0,1,0,0,0,1 @ F,0,0,1,0,0,0,1 @ F,0,0,1,0,0,0,1 | F,0,1,1,0,2.9908216,0,1 @ F,0,1,1,0,2.9908216,0,1 @ F,0,1,1,0,2.9908216,0,1 @ F,0,1,1,0,2.9908216,0,1"
       radius="0"
       unit="px"
       method="auto"
       mode="F"
       chamfer_steps="1"
       flexible="false"
       use_knot_distance="true"
       apply_no_radius="true"
       apply_with_radius="true"
       only_selected="false"
       hide_knots="false" />
    <filter
       inkscape:collect="always"
       style="color-interpolation-filters:sRGB"
       id="filter2"
       x="-0.1298787"
       y="-0.076279152"
       width="1.2597815"
       height="1.1525583">
      <feGaussianBlur
         inkscape:collect="always"
         stdDeviation="1.2209315"
         id="feGaussianBlur2" />
    </filter>
    <radialGradient
       inkscape:collect="always"
       xlink:href="#linearGradient4-6"
       id="radialGradient5-3"
       cx="11.098772"
       cy="37.656887"
       fx="11.098772"
       fy="37.656887"
       r="28"
       gradientUnits="userSpaceOnUse"
       gradientTransform="matrix(1.2710208,2.2014726,-1.8138739,1.0472406,58.097866,-48.558193)" />
    <linearGradient
       id="linearGradient4-6"
       inkscape:collect="always">
      <stop
         style="stop-color:#00cfff;stop-opacity:1;"
         offset="0"
         id="stop4-7" />
      <stop
         style="stop-color:#0091ff;stop-opacity:1;"
         offset="1"
         id="stop5-5" />
    </linearGradient>
    <filter
       inkscape:collect="always"
       style="color-interpolation-filters:sRGB"
       id="filter1"
       x="-0.095853645"
       y="-0.095853645"
       width="1.1917073"
       height="1.1917073">
      <feGaussianBlur
         inkscape:collect="always"
         stdDeviation="2.1929635"
         id="feGaussianBlur1" />
    </filter>
  </defs>
  <sodipodi:namedview
     id="namedview4"
     pagecolor="#ffffff"
     bordercolor="#000000"
     borderopacity="0.25"
     inkscape:showpageshadow="2"
     inkscape:pageopacity="0.0"
     inkscape:pagecheckerboard="0"
     inkscape:deskcolor="#d1d1d1"
     inkscape:zoom="9.8221551"
     inkscape:cx="28.303361"
     inkscape:cy="42.25142"
     inkscape:window-width="1920"
     inkscape:window-height="1018"
     inkscape:window-x="0"
     inkscape:window-y="0"
     inkscape:window-maximized="1"
     inkscape:current-layer="svg4" />
  <g
     id="g1">
    <rect
       style="fill:url(#radialGradient5-3);stroke-width:0.955185"
       width="53.490372"
       height="53.490372"
       x="5.2548141"
       y="5.2548141"
       rx="26.745186"
       ry="26.745186"
       id="rect1-3" />
    <rect
       style="mix-blend-mode:normal;fill:none;stroke:#000000;stroke-width:0.209383;stroke-dasharray:none;stroke-opacity:1;filter:url(#filter1)"
       width="56"
       height="56"
       x="4.0645156"
       y="3.9545853"
       rx="28"
       ry="28"
       id="rect1-5"
       transform="matrix(0.95518521,0,0,0.95518521,1.3724513,1.4774551)" />
  </g>
  <path
     style="fill:#ffffff"
     d="M 31.999352,12 C 26.60243,12 21.85619,15.964617 20.491769,21.043759 20.064471,22.634402 21.437997,24 23.089783,24 c 1.551923,0 2.787642,-1.4289 3.584445,-2.855464 1.074342,-1.923457 3.133563,-3.343755 5.325124,-3.343755 3.19,0 6.100906,2.610781 6.100906,5.800781 0,1.595 -0.637937,3.041938 -1.710937,4.085938 l -3.597656,3.65625 c -1.927927,1.839944 -2.993662,4.17342 -3.438792,6.679918 C 29.064422,39.647916 30.43995,41 32.091736,41 c 1.605858,0 2.743431,-1.369761 3.115398,-2.973295 0.484868,-2.090242 1.702603,-3.527649 3.385316,-5.233736 L 41.201821,30.125 c 1.653,-1.653 2.699218,-3.971438 2.699218,-6.523438 C 43.901039,17.192563 38.408352,12 31.999352,12 Z m -3,36.990822 0,0.01836 A 2.9908216,2.9908216 45 0 0 31.990174,52 h 0.01836 a 2.9908216,2.9908216 135 0 0 2.990822,-2.990822 v -0.01836 A 2.9908216,2.9908216 45 0 0 32.00853,46 h -0.01836 a 2.9908216,2.9908216 135 0 0 -2.990822,2.990822 z"
     id="path3"
     inkscape:path-effect="#path-effect6"
     inkscape:original-d="m 31.999352,12 c -6.409,0 -11.900391,5.591 -11.900391,12 h 5.800781 c 0,-3.19 2.90961,-6.199219 6.09961,-6.199219 3.19,0 6.100906,2.610781 6.100906,5.800781 0,1.595 -0.637937,3.041938 -1.710937,4.085938 l -3.597656,3.65625 C 30.115864,33.897438 29.100914,37.401823 29.100914,41 h 5.898438 C 34.76927,37.073014 36.217896,35.200506 38.59245,32.792969 L 41.201821,30.125 c 1.653,-1.653 2.699218,-3.971438 2.699218,-6.523438 C 43.901039,17.192563 38.408352,12 31.999352,12 Z m -3,34 v 6 h 6 v -6 z"
     sodipodi:nodetypes="sccssccccccssccccc"
     transform="matrix(0.82692189,0,0,0.82692189,5.5384994,5.5384994)" />
  <path
     style="fill:none;stroke:#002eff;stroke-opacity:1;stroke-width:0.24186081;stroke-dasharray:none;filter:url(#filter2)"
     d="M 31.999352,12 C 26.60243,12 21.85619,15.964617 20.491769,21.043759 20.064471,22.634402 21.437997,24 23.089783,24 c 1.551923,0 2.787642,-1.4289 3.584445,-2.855464 1.074342,-1.923457 3.133563,-3.343755 5.325124,-3.343755 3.19,0 6.100906,2.610781 6.100906,5.800781 0,1.595 -0.637937,3.041938 -1.710937,4.085938 l -3.597656,3.65625 c -1.927927,1.839944 -2.993662,4.17342 -3.438792,6.679918 C 29.064422,39.647916 30.43995,41 32.091736,41 c 1.605858,0 2.743431,-1.369761 3.115398,-2.973295 0.484868,-2.090242 1.702603,-3.527649 3.385316,-5.233736 L 41.201821,30.125 c 1.653,-1.653 2.699218,-3.971438 2.699218,-6.523438 C 43.901039,17.192563 38.408352,12 31.999352,12 Z m -3,36.990822 0,0.01836 A 2.9908216,2.9908216 45 0 0 31.990174,52 h 0.01836 a 2.9908216,2.9908216 135 0 0 2.990822,-2.990822 v -0.01836 A 2.9908216,2.9908216 45 0 0 32.00853,46 h -0.01836 a 2.9908216,2.9908216 135 0 0 -2.990822,2.990822 z"
     id="path3-8"
     inkscape:path-effect="#path-effect6-5"
     inkscape:original-d="m 31.999352,12 c -6.409,0 -11.900391,5.591 -11.900391,12 h 5.800781 c 0,-3.19 2.90961,-6.199219 6.09961,-6.199219 3.19,0 6.100906,2.610781 6.100906,5.800781 0,1.595 -0.637937,3.041938 -1.710937,4.085938 l -3.597656,3.65625 C 30.115864,33.897438 29.100914,37.401823 29.100914,41 h 5.898438 C 34.76927,37.073014 36.217896,35.200506 38.59245,32.792969 L 41.201821,30.125 c 1.653,-1.653 2.699218,-3.971438 2.699218,-6.523438 C 43.901039,17.192563 38.408352,12 31.999352,12 Z m -3,34 v 6 h 6 v -6 z"
     sodipodi:nodetypes="sccssccccccssccccc"
     transform="matrix(0.82692189,0,0,0.82692189,5.4086684,5.5384995)" />
  <g
     id="g2">
    <rect
       style="fill:url(#radialGradient5-3);stroke-width:0.955185"
       width="53.490372"
       height="53.490372"
       x="5.2548141"
       y="5.2548141"
       rx="26.745186"
       ry="26.745186"
       id="rect1" />
    <rect
       style="mix-blend-mode:normal;fill:none;stroke:#000000;stroke-width:0.209383;stroke-dasharray:none;stroke-opacity:1;filter:url(#filter1)"
       width="56"
       height="56"
       x="4.0645156"
       y="3.9545853"
       rx="28"
       ry="28"
       id="rect2"
       transform="matrix(0.95518521,0,0,0.95518521,1.3724513,1.4774551)" />
  </g>
  <path
     style="fill:#ffffff"
     d="M 31.999352,12 C 26.60243,12 21.85619,15.964617 20.491769,21.043759 20.064471,22.634402 21.437997,24 23.089783,24 c 1.551923,0 2.787642,-1.4289 3.584445,-2.855464 1.074342,-1.923457 3.133563,-3.343755 5.325124,-3.343755 3.19,0 6.100906,2.610781 6.100906,5.800781 0,1.595 -0.637937,3.041938 -1.710937,4.085938 l -3.597656,3.65625 c -1.927927,1.839944 -2.993662,4.17342 -3.438792,6.679918 C 29.064422,39.647916 30.43995,41 32.091736,41 c 1.605858,0 2.743431,-1.369761 3.115398,-2.973295 0.484868,-2.090242 1.702603,-3.527649 3.385316,-5.233736 L 41.201821,30.125 c 1.653,-1.653 2.699218,-3.971438 2.699218,-6.523438 C 43.901039,17.192563 38.408352,12 31.999352,12 Z m -3,36.990822 0,0.01836 A 2.9908216,2.9908216 45 0 0 31.990174,52 h 0.01836 a 2.9908216,2.9908216 135 0 0 2.990822,-2.990822 v -0.01836 A 2.9908216,2.9908216 45 0 0 32.00853,46 h -0.01836 a 2.9908216,2.9908216 135 0 0 -2.990822,2.990822 z"
     id="path2"
     inkscape:path-effect="#path-effect5"
     inkscape:original-d="m 31.999352,12 c -6.409,0 -11.900391,5.591 -11.900391,12 h 5.800781 c 0,-3.19 2.90961,-6.199219 6.09961,-6.199219 3.19,0 6.100906,2.610781 6.100906,5.800781 0,1.595 -0.637937,3.041938 -1.710937,4.085938 l -3.597656,3.65625 C 30.115864,33.897438 29.100914,37.401823 29.100914,41 h 5.898438 C 34.76927,37.073014 36.217896,35.200506 38.59245,32.792969 L 41.201821,30.125 c 1.653,-1.653 2.699218,-3.971438 2.699218,-6.523438 C 43.901039,17.192563 38.408352,12 31.999352,12 Z m -3,34 v 6 h 6 v -6 z"
     sodipodi:nodetypes="sccssccccccssccccc"
     transform="matrix(0.82692189,0,0,0.82692189,5.5384994,5.5384994)" />
  <path
     style="fill:none;stroke:#002eff;stroke-opacity:1;stroke-width:0.24186081;stroke-dasharray:none;filter:url(#filter2)"
     d="M 31.999352,12 C 26.60243,12 21.85619,15.964617 20.491769,21.043759 20.064471,22.634402 21.437997,24 23.089783,24 c 1.551923,0 2.787642,-1.4289 3.584445,-2.855464 1.074342,-1.923457 3.133563,-3.343755 5.325124,-3.343755 3.19,0 6.100906,2.610781 6.100906,5.800781 0,1.595 -0.637937,3.041938 -1.710937,4.085938 l -3.597656,3.65625 c -1.927927,1.839944 -2.993662,4.17342 -3.438792,6.679918 C 29.064422,39.647916 30.43995,41 32.091736,41 c 1.605858,0 2.743431,-1.369761 3.115398,-2.973295 0.484868,-2.090242 1.702603,-3.527649 3.385316,-5.233736 L 41.201821,30.125 c 1.653,-1.653 2.699218,-3.971438 2.699218,-6.523438 C 43.901039,17.192563 38.408352,12 31.999352,12 Z m -3,36.990822 0,0.01836 A 2.9908216,2.9908216 45 0 0 31.990174,52 h 0.01836 a 2.9908216,2.9908216 135 0 0 2.990822,-2.990822 v -0.01836 A 2.9908216,2.9908216 45 0 0 32.00853,46 h -0.01836 a 2.9908216,2.9908216 135 0 0 -2.990822,2.990822 z"
     id="path4"
     inkscape:path-effect="#path-effect8"
     inkscape:original-d="m 31.999352,12 c -6.409,0 -11.900391,5.591 -11.900391,12 h 5.800781 c 0,-3.19 2.90961,-6.199219 6.09961,-6.199219 3.19,0 6.100906,2.610781 6.100906,5.800781 0,1.595 -0.637937,3.041938 -1.710937,4.085938 l -3.597656,3.65625 C 30.115864,33.897438 29.100914,37.401823 29.100914,41 h 5.898438 C 34.76927,37.073014 36.217896,35.200506 38.59245,32.792969 L 41.201821,30.125 c 1.653,-1.653 2.699218,-3.971438 2.699218,-6.523438 C 43.901039,17.192563 38.408352,12 31.999352,12 Z m -3,34 v 6 h 6 v -6 z"
     sodipodi:nodetypes="sccssccccccssccccc"
     transform="matrix(0.82692189,0,0,0.82692189,5.4086684,5.5384995)" />
</svg>
