<?xml version="1.0" encoding="UTF-8" standalone="no"?>
<svg
   width="64"
   height="64"
   version="1.1"
   id="svg6"
   sodipodi:docname="distributor-logo-ubuntu-budgie.svg"
   inkscape:version="1.4.2 (ebf0e940d0, 2025-05-08)"
   xmlns:inkscape="http://www.inkscape.org/namespaces/inkscape"
   xmlns:sodipodi="http://sodipodi.sourceforge.net/DTD/sodipodi-0.dtd"
   xmlns:xlink="http://www.w3.org/1999/xlink"
   xmlns="http://www.w3.org/2000/svg"
   xmlns:svg="http://www.w3.org/2000/svg">
  <defs
     id="defs6">
    <linearGradient
       id="linearGradient7"
       inkscape:collect="always">
      <stop
         style="stop-color:#49b0c3;stop-opacity:1;"
         offset="0"
         id="stop7" />
      <stop
         style="stop-color:#518dc8;stop-opacity:1;"
         offset="1"
         id="stop8" />
    </linearGradient>
    <filter
       inkscape:collect="always"
       style="color-interpolation-filters:sRGB"
       id="filter6"
       x="-0.079404574"
       y="-0.075772893"
       width="1.1588202"
       height="1.151547">
      <feGaussianBlur
         inkscape:collect="always"
         stdDeviation="1.3388187"
         id="feGaussianBlur6" />
    </filter>
    <filter
       inkscape:collect="always"
       style="color-interpolation-filters:sRGB"
       id="filter7"
       x="-0.10919713"
       y="-0.10919713"
       width="1.2183943"
       height="1.2183943">
      <feGaussianBlur
         inkscape:collect="always"
         stdDeviation="2.5031155"
         id="feGaussianBlur7" />
    </filter>
    <radialGradient
       inkscape:collect="always"
       xlink:href="#linearGradient7"
       id="radialGradient8"
       cx="12.359202"
       cy="52.419685"
       fx="12.359202"
       fy="52.419685"
       r="28"
       gradientUnits="userSpaceOnUse"
       gradientTransform="matrix(1.5675439,-0.90502189,0.90502189,1.5675439,-53.266847,-19.800761)" />
  </defs>
  <sodipodi:namedview
     id="namedview6"
     pagecolor="#505050"
     bordercolor="#eeeeee"
     borderopacity="1"
     inkscape:showpageshadow="0"
     inkscape:pageopacity="0"
     inkscape:pagecheckerboard="0"
     inkscape:deskcolor="#505050"
     inkscape:zoom="17.953548"
     inkscape:cx="36.817235"
     inkscape:cy="33.363879"
     inkscape:window-width="1920"
     inkscape:window-height="1020"
     inkscape:window-x="0"
     inkscape:window-y="0"
     inkscape:window-maximized="1"
     inkscape:current-layer="svg6" />
  <circle
     style="fill:url(#radialGradient8);stroke-width:0.939488"
     cx="32"
     cy="32"
     r="26.305662"
     id="circle2" />
  <path
     id="path5"
     style="fill:#ffffff;stroke-width:0.83625"
     d="m 38.607716,36.151646 c -0.207252,-0.0046 -0.416155,0.0028 -0.627183,0.01986 v -0.0023 c -2.824472,0.22744 -5.036246,2.416268 -5.575945,5.123982 -0.113926,0.571571 -0.208185,0.772592 -0.392267,1.160728 -0.237355,0.500477 -0.742929,1.237458 -1.480415,1.732267 -0.599997,0.402563 -1.117834,0.744687 -1.936956,0.688494 -0.213214,-0.01464 -0.590984,-0.04345 -0.981772,-0.227292 -0.622852,-0.293169 -0.842032,-0.575883 -1.367392,-1.405653 0.139773,0.919462 0.0458,1.264959 0.633831,2.848865 1.170522,3.152882 4.871638,5.411745 8.993315,5.079847 3.055342,-0.246032 5.785661,-1.740942 7.222576,-3.804369 0.525527,-0.754659 0.917994,-1.348632 1.265448,-2.358973 0.316115,-0.919257 0.319063,-2.065936 0.237131,-3.082773 -0.260815,-3.236574 -2.881601,-5.701439 -5.990371,-5.772754 z M 20.579474,22.772075 c -2.9319,0.06688 -5.992094,2.088439 -7.515954,5.401368 -1.290988,2.806659 -1.353805,5.962752 -0.296195,8.273864 0.386801,0.845246 0.701024,1.491946 1.39386,2.311022 0.630381,0.745223 1.608289,1.330961 2.51766,1.7765 3.086891,1.512367 6.742061,0.221109 8.169326,-2.879233 0,0 0,-0.0022 0,-0.0022 1.192161,-2.594166 0.410856,-5.650187 -1.637784,-7.501276 -0.432558,-0.390845 -0.557996,-0.575221 -0.799293,-0.934291 -0.311141,-0.462993 -0.693004,-1.279476 -0.753555,-2.178514 -0.04926,-0.731433 -0.08899,-1.36021 0.361531,-2.050499 0.11727,-0.179681 0.328185,-0.496217 0.67733,-0.745636 0.556643,-0.397436 0.907814,-0.44629 1.875177,-0.485114 -0.854561,-0.345223 -1.105779,-0.603932 -2.748519,-0.893865 -0.408747,-0.07214 -0.824741,-0.101634 -1.243584,-0.09208 z m 16.236608,-8.36358 c -0.441544,0.0059 -0.899736,0.04752 -1.446765,0.155897 -0.995417,0.197215 -2.0329,0.799465 -2.909654,1.410054 -2.976718,2.073086 -3.763144,6.12461 -1.76238,9.051336 1.673672,2.448258 4.802413,3.305528 7.531007,2.368704 0.575979,-0.197753 0.806649,-0.218696 1.253246,-0.255951 0.575858,-0.04805 1.503036,0.0231 2.333715,0.43279 0.675818,0.333313 1.253823,0.624004 1.628761,1.39842 0.0976,0.20158 0.269491,0.55992 0.306401,1.012165 0.05865,0.720907 -0.08498,1.071953 -0.562118,1.987108 0.758648,-0.611843 1.12208,-0.712768 2.248473,-2.082506 2.242179,-2.726551 2.359406,-7.281945 -0.08295,-10.854623 -1.810471,-2.648372 -4.582234,-4.339589 -7.194655,-4.558242 -0.477721,-0.03999 -0.901549,-0.07102 -1.343092,-0.06515 z" />
  <circle
     style="fill:none;stroke:#000000;stroke-width:0.215125;stroke-dasharray:none;stroke-opacity:1;filter:url(#filter7)"
     cx="32"
     cy="32"
     r="28"
     id="circle2-3"
     transform="matrix(0.93948792,0,0,0.93948792,1.9363865,1.9363865)" />
  <path
     id="path5-6"
     style="fill:none;stroke:#0014ff;stroke-width:0.241683;stroke-linejoin:round;stroke-dasharray:none;stroke-opacity:1;filter:url(#filter6)"
     d="m 40.242351,36.845368 c -0.247836,-0.0056 -0.497645,0.0034 -0.749997,0.02375 v -0.0028 c -3.377547,0.271975 -6.022421,2.889411 -6.667801,6.127336 -0.136235,0.683494 -0.248951,0.923878 -0.469078,1.388018 -0.283835,0.598479 -0.888407,1.479772 -1.770305,2.071472 -0.717485,0.481391 -1.336723,0.890508 -2.316242,0.823312 -0.254964,-0.01751 -0.706707,-0.05196 -1.174018,-0.271799 -0.744817,-0.350576 -1.006914,-0.688651 -1.635149,-1.680902 0.167142,1.099506 0.05476,1.512657 0.757945,3.406716 1.399729,3.770267 5.825582,6.47145 10.754347,6.07456 3.653625,-0.294209 6.918583,-2.081844 8.636869,-4.549322 0.628433,-0.902435 1.097751,-1.612715 1.513242,-2.820898 0.378016,-1.099262 0.381541,-2.470478 0.283566,-3.686428 -0.311888,-3.870346 -3.445864,-6.817869 -7.163379,-6.90315 z M 18.683897,20.845869 c -3.506012,0.07997 -7.16544,2.497388 -8.987695,6.45904 -1.5437836,3.356248 -1.6189006,7.130352 -0.3541946,9.894015 0.4625416,1.010759 0.8382956,1.784094 1.6667996,2.763557 0.753818,0.891149 1.923216,1.591584 3.010656,2.124366 3.691353,1.808513 8.062263,0.264406 9.769008,-3.443032 0,0 0,-0.0027 0,-0.0027 1.425605,-3.102144 0.491309,-6.756581 -1.958488,-8.970144 -0.517258,-0.467377 -0.667259,-0.687858 -0.955806,-1.117239 -0.372067,-0.553654 -0.828705,-1.530018 -0.901113,-2.605101 -0.05891,-0.874658 -0.106414,-1.62656 0.432323,-2.452018 0.140234,-0.214866 0.39245,-0.593384 0.809963,-0.891644 0.665641,-0.475259 1.085579,-0.53368 2.242366,-0.580106 -1.021898,-0.412824 -1.322308,-0.722192 -3.286722,-1.068898 -0.488786,-0.08627 -0.986238,-0.121536 -1.487097,-0.11011 z M 38.099886,10.84457 c -0.528005,0.007 -1.075918,0.05683 -1.730064,0.186424 -1.190335,0.235833 -2.430974,0.956012 -3.47941,1.686164 -3.559605,2.479029 -4.500025,7.323904 -2.107481,10.823729 2.001403,2.927665 5.7428,3.952802 9.005695,2.832532 0.688765,-0.236475 0.964604,-0.261519 1.498652,-0.306069 0.68862,-0.05746 1.797354,0.02762 2.790693,0.517536 0.808152,0.398582 1.499341,0.746195 1.947697,1.672253 0.116704,0.241053 0.322263,0.669561 0.3664,1.210364 0.07013,0.862072 -0.101612,1.281857 -0.672191,2.376213 0.907204,-0.731651 1.341801,-0.852338 2.68876,-2.490292 2.681233,-3.260452 2.821415,-8.707864 -0.09918,-12.980127 -2.16499,-3.166965 -5.479506,-5.189349 -8.60348,-5.450818 -0.571267,-0.04781 -1.078088,-0.08493 -1.606092,-0.07791 z"
     transform="matrix(0.83624932,0,0,0.83624932,4.9778306,5.3271324)" />
</svg>
