<?xml version="1.0" encoding="UTF-8" standalone="no"?>
<svg
   width="64"
   height="64"
   version="1.1"
   id="svg8"
   sodipodi:docname="enteauth.svg"
   inkscape:version="1.4.2 (ebf0e940d0, 2025-05-08)"
   xmlns:inkscape="http://www.inkscape.org/namespaces/inkscape"
   xmlns:sodipodi="http://sodipodi.sourceforge.net/DTD/sodipodi-0.dtd"
   xmlns:xlink="http://www.w3.org/1999/xlink"
   xmlns="http://www.w3.org/2000/svg"
   xmlns:svg="http://www.w3.org/2000/svg">
  <defs
     id="defs8">
    <linearGradient
       id="linearGradient11"
       inkscape:collect="always">
      <stop
         style="stop-color:#6137e5;stop-opacity:1;"
         offset="0"
         id="stop10" />
      <stop
         style="stop-color:#7d3bb4;stop-opacity:1;"
         offset="1"
         id="stop11" />
    </linearGradient>
    <inkscape:path-effect
       effect="fillet_chamfer"
       id="path-effect9"
       is_visible="true"
       lpeversion="1"
       nodesatellites_param="F,0,0,1,0,3.2725915,0,1 @ F,0,0,1,0,4.5133588,0,1 @ F,0,0,1,0,0,0,1 @ F,0,0,1,0,0,0,1 @ F,0,0,1,0,0,0,1 @ F,0,0,1,0,4.5133588,0,1"
       radius="0"
       unit="px"
       method="auto"
       mode="F"
       chamfer_steps="1"
       flexible="false"
       use_knot_distance="true"
       apply_no_radius="true"
       apply_with_radius="true"
       only_selected="false"
       hide_knots="false" />
    <linearGradient
       id="linearGradient8"
       inkscape:collect="always">
      <stop
         style="stop-color:#8347e5;stop-opacity:1;"
         offset="0"
         id="stop8" />
      <stop
         style="stop-color:#af47e5;stop-opacity:1;"
         offset="1"
         id="stop9" />
    </linearGradient>
    <radialGradient
       inkscape:collect="always"
       xlink:href="#linearGradient11"
       id="radialGradient9"
       cx="47.950642"
       cy="45.898148"
       fx="47.950642"
       fy="45.898148"
       r="20"
       gradientTransform="matrix(0,-4.0234745,4.0254334,0,-112.43993,264.13545)"
       gradientUnits="userSpaceOnUse" />
    <filter
       inkscape:collect="always"
       style="color-interpolation-filters:sRGB"
       id="filter9"
       x="-0.074191703"
       y="-0.056576031"
       width="1.1483834"
       height="1.1131521">
      <feGaussianBlur
         inkscape:collect="always"
         stdDeviation="0.58708328"
         id="feGaussianBlur9" />
    </filter>
    <radialGradient
       inkscape:collect="always"
       xlink:href="#linearGradient8"
       id="radialGradient9-8"
       cx="47.950642"
       cy="45.898148"
       fx="47.950642"
       fy="45.898148"
       r="20"
       gradientTransform="matrix(0,-3.1381277,3.1396555,0,-80.656603,213.05512)"
       gradientUnits="userSpaceOnUse" />
    <filter
       inkscape:collect="always"
       style="color-interpolation-filters:sRGB"
       id="filter11"
       x="-0.058216179"
       y="-0.050555128"
       width="1.1164324"
       height="1.1011103">
      <feGaussianBlur
         inkscape:collect="always"
         stdDeviation="1.0638153"
         id="feGaussianBlur11" />
    </filter>
  </defs>
  <sodipodi:namedview
     id="namedview8"
     pagecolor="#ffffff"
     bordercolor="#000000"
     borderopacity="0.25"
     inkscape:showpageshadow="2"
     inkscape:pageopacity="0.0"
     inkscape:pagecheckerboard="0"
     inkscape:deskcolor="#d1d1d1"
     inkscape:zoom="12.753851"
     inkscape:cx="26.815431"
     inkscape:cy="27.834731"
     inkscape:current-layer="svg8" />
  <path
     d="M 28.376694,3.8714698 C 23.310746,6.3617324 17.655708,8.4286306 12.15341,10.611593 9.2489564,11.763894 6.9231266,15.302588 6.9231266,18.427993 V 32.130047 C 6.9231266,50.260125 27.3352,60.877923 32,60.877923 c 4.6648,0 25.076873,-10.617798 25.076873,-28.747876 V 18.427993 c 0,-3.125405 -2.337464,-6.637291 -5.245941,-7.781167 C 46.314316,8.477192 40.655675,6.3637674 35.620432,3.875131 33.589606,2.8714079 30.41008,2.8719204 28.376694,3.8714947 Z"
     style="fill:url(#radialGradient9);fill-rule:evenodd;stroke-width:1.25385"
     id="path3"
     sodipodi:nodetypes="ccssscc" />
  <path
     d="m 29.173984,10.061021 c -3.951208,1.942292 -8.361881,3.554379 -12.653425,5.25699 -2.265342,0.898744 -4.079383,3.658764 -4.079383,6.096438 v 10.686982 c 0,14.140639 15.920489,22.42204 19.558824,22.42204 3.638333,0 19.558824,-8.281401 19.558824,-22.42204 V 21.414449 c 0,-2.437674 -1.823115,-5.176785 -4.091595,-6.068956 -4.302712,-1.692218 -8.716195,-3.340592 -12.643457,-5.281617 -1.583952,-0.7828579 -4.063838,-0.7824585 -5.649788,-0.0029 z"
     style="fill:url(#radialGradient9-8);fill-rule:evenodd;stroke-width:0.977944"
     id="path3-5"
     sodipodi:nodetypes="ccssscc" />
  <path
     id="path3-6"
     style="mix-blend-mode:normal;fill:none;fill-rule:evenodd;stroke:#000000;stroke-width:0.2;stroke-dasharray:none;stroke-opacity:1;filter:url(#filter11)"
     d="m 32,5.7597657 c -1.183932,-3.54e-4 -2.369116,0.225537 -3.292969,0.679688 -4.603346,2.262862 -9.742337,4.1413773 -14.742187,6.1250003 -2.639232,1.047078 -4.7519535,4.263509 -4.7519535,7.103515 v 12.451172 c 0,16.474515 18.5482785,26.121094 22.7871095,26.121094 4.23883,0 22.787109,-9.646579 22.787109,-26.121094 V 19.667969 c 0,-2.840006 -2.124691,-6.03089 -4.767578,-7.070312 C 45.006669,10.626145 39.864508,8.7047447 35.289062,6.4433597 34.366372,5.9873267 33.183931,5.7601207 32,5.7597657 Z m 0,5.7734383 c 0.923414,2.79e-4 1.84675,0.177517 2.566406,0.533203 3.568641,1.763778 7.578475,3.26309 11.488281,4.800781 2.061332,0.810702 3.71875,3.298596 3.71875,5.513672 v 9.710938 c 0,12.849375 -14.467342,20.375 -17.773437,20.375 -3.306098,0 -17.773437,-7.525625 -17.773437,-20.375 V 22.38086 c 0,-2.215076 1.64855,-4.722389 3.70703,-5.539063 3.899659,-1.547136 7.907647,-3.012413 11.498047,-4.777343 0.720565,-0.354204 1.644946,-0.53153 2.56836,-0.53125 z"
     transform="matrix(1.1004924,0,0,1.1004924,-3.2157562,-3.2157563)" />
  <path
     d="m 32,17.016722 c -5.114116,0 -6.743204,4.248241 -6.684602,6.375951 0.0322,1.166351 0,1.081718 0,1.081718 v 2.128154 h -1.177159 c -1.020404,0 -2.165143,1.159778 -2.165143,2.548059 v 11.630651 c 0,0.781653 0.978515,2.50383 2.759181,2.532796 h 14.357077 c 1.694547,0.02929 2.93755,-1.262611 2.93755,-2.532796 V 29.150604 c 0,-1.395968 -1.111316,-2.548059 -2.33482,-2.548059 h -1.003331 c -0.0031,-1.077481 -0.0041,-2.154962 -0.0041,-3.232448 0,-2.320893 -1.570487,-6.353375 -6.684602,-6.353375 z m 0,2.958538 c 2.148654,0.02229 3.342302,1.834177 3.342302,2.917082 v 3.710203 h -6.684604 v -3.710203 c 0,-0.959574 1.193648,-2.939364 3.342302,-2.917082 z"
     style="fill:#e1c8ff;fill-opacity:1;fill-rule:evenodd;stroke-width:1.11411;stop-color:#000000;opacity:1"
     id="path6"
     sodipodi:nodetypes="scccsssccssscszssccsss" />
  <path
     d="m 32,18.553114 c -5.23001,0 -6.836087,4.343688 -6.836087,6.52044 v 3.282614 h -1.203835 c -1.043529,0 -2.214209,1.186061 -2.214209,2.605802 v 11.894223 c 0,0.799366 1.000689,2.56057 2.821709,2.590193 h 14.682434 c 1.732948,0.02996 3.004119,-1.291223 3.004119,-2.590193 V 30.96197 c 0,-1.427603 -1.1365,-2.605802 -2.387731,-2.605802 h -1.026068 c -0.0032,-1.101899 -0.0042,-2.203798 -0.0042,-3.305701 0,-2.373489 -1.606077,-6.497353 -6.836087,-6.497353 z m 0,3.025583 c 2.197346,0.02279 3.418044,1.875743 3.418044,2.983189 v 3.794282 h -6.836088 v -3.794282 c 0,-0.98132 1.220698,-3.005976 3.418044,-2.983189 z"
     style="mix-blend-mode:normal;fill:none;fill-opacity:1;fill-rule:evenodd;stroke:#2400ff;stroke-width:0.225086;stroke-dasharray:none;stroke-opacity:1;filter:url(#filter9);stop-color:#000000"
     id="path6-1"
     sodipodi:nodetypes="sscsssccssscszssccsss"
     transform="matrix(0.97784042,0,0,0.97784042,0.70910641,-1.1252623)" />
</svg>
