<?xml version="1.0" encoding="UTF-8" standalone="no"?>
<svg
   width="64"
   height="64"
   version="1"
   id="svg9"
   sodipodi:docname="firedragon.svg"
   inkscape:version="1.4.2 (ebf0e940d0, 2025-05-08)"
   xmlns:inkscape="http://www.inkscape.org/namespaces/inkscape"
   xmlns:sodipodi="http://sodipodi.sourceforge.net/DTD/sodipodi-0.dtd"
   xmlns:xlink="http://www.w3.org/1999/xlink"
   xmlns="http://www.w3.org/2000/svg"
   xmlns:svg="http://www.w3.org/2000/svg">
  <defs
     id="defs9">
    <linearGradient
       id="linearGradient55"
       inkscape:collect="always">
      <stop
         style="stop-color:#ff8736;stop-opacity:1;"
         offset="0"
         id="stop54" />
      <stop
         style="stop-color:#ff3640;stop-opacity:1;"
         offset="1"
         id="stop55" />
    </linearGradient>
    <linearGradient
       id="linearGradient19"
       inkscape:collect="always">
      <stop
         style="stop-color:#8d51ff;stop-opacity:1;"
         offset="0"
         id="stop20" />
      <stop
         style="stop-color:#001442;stop-opacity:1;"
         offset="1"
         id="stop21" />
    </linearGradient>
    <linearGradient
       id="n"
       gradientUnits="userSpaceOnUse"
       x1="27.709999"
       x2="68.070999"
       y1="0.324"
       y2="40.685001"
       gradientTransform="matrix(0.63505615,0,0,0.63505615,6.6030438,6.6438539)">
      <stop
         offset=".805"
         stop-color="#722291"
         stop-opacity="0"
         id="stop52" />
      <stop
         offset="1"
         stop-color="#592acb"
         stop-opacity=".5"
         id="stop53" />
    </linearGradient>
    <linearGradient
       id="m"
       gradientUnits="userSpaceOnUse"
       x1="40.584999"
       x2="62.299999"
       y1="-0.67000002"
       y2="62.202999"
       gradientTransform="matrix(0.63505615,0,0,0.63505615,6.6030438,6.6438539)">
      <stop
         offset="0"
         stop-color="#b833e1"
         id="stop48" />
      <stop
         offset=".371"
         stop-color="#9059ff"
         id="stop49" />
      <stop
         offset=".614"
         stop-color="#5b6df8"
         id="stop50" />
      <stop
         offset="1"
         stop-color="#0090ed"
         id="stop51" />
    </linearGradient>
    <linearGradient
       id="l"
       gradientUnits="userSpaceOnUse"
       x1="59.051998"
       x2="18.155001"
       y1="7.0830002"
       y2="77.919998"
       gradientTransform="matrix(0.63505615,0,0,0.63505615,28.873314,27.760971)">
      <stop
         offset="0"
         stop-color="#fff36e"
         stop-opacity=".8"
         id="stop45" />
      <stop
         offset=".094"
         stop-color="#fff36e"
         stop-opacity=".699"
         id="stop46" />
      <stop
         offset=".752"
         stop-color="#fff36e"
         stop-opacity="0"
         id="stop47" />
    </linearGradient>
    <radialGradient
       id="k"
       cx="-1238.198"
       cy="-87.432999"
       gradientTransform="matrix(0.60901885,0,0,0.61028898,815.59853,61.55589)"
       gradientUnits="userSpaceOnUse"
       r="150.19501">
      <stop
         offset=".054"
         stop-color="#fff36e"
         id="stop42" />
      <stop
         offset=".457"
         stop-color="#ff9640"
         id="stop43" />
      <stop
         offset=".639"
         stop-color="#ff9640"
         id="stop44" />
    </radialGradient>
    <radialGradient
       id="j"
       cx="42.737"
       cy="42.098"
       gradientUnits="userSpaceOnUse"
       r="41.790001"
       gradientTransform="matrix(0.63505615,0,0,0.63505615,6.6030438,6.6438539)">
      <stop
         offset=".216"
         stop-color="#fc4055"
         stop-opacity=".8"
         id="stop38" />
      <stop
         offset=".267"
         stop-color="#fd5251"
         stop-opacity=".633"
         id="stop39" />
      <stop
         offset=".41"
         stop-color="#fe8345"
         stop-opacity=".181"
         id="stop40" />
      <stop
         offset=".474"
         stop-color="#ff9640"
         stop-opacity="0"
         id="stop41" />
    </radialGradient>
    <radialGradient
       id="i"
       cx="49.941002"
       cy="38.653999"
       gradientTransform="matrix(0.15685887,0.61663954,-0.64204179,0.16447955,46.362848,14.79411)"
       gradientUnits="userSpaceOnUse"
       r="41.790001">
      <stop
         offset=".363"
         stop-color="#fc4055"
         id="stop34" />
      <stop
         offset=".443"
         stop-color="#fd604d"
         stop-opacity=".633"
         id="stop35" />
      <stop
         offset=".545"
         stop-color="#fe8644"
         stop-opacity=".181"
         id="stop36" />
      <stop
         offset=".59"
         stop-color="#ff9640"
         stop-opacity="0"
         id="stop37" />
    </radialGradient>
    <radialGradient
       id="h"
       cx="-1255.933"
       cy="-77.394997"
       gradientTransform="matrix(0.60901885,0,0,0.61028898,862.01294,72.654989)"
       gradientUnits="userSpaceOnUse"
       r="88.862999">
      <stop
         offset=".084"
         stop-color="#ffde67"
         id="stop27" />
      <stop
         offset=".147"
         stop-color="#ffdc66"
         stop-opacity=".968"
         id="stop28" />
      <stop
         offset=".246"
         stop-color="#ffd562"
         stop-opacity=".879"
         id="stop29" />
      <stop
         offset=".369"
         stop-color="#ffcb5d"
         stop-opacity=".734"
         id="stop30" />
      <stop
         offset=".511"
         stop-color="#ffbc55"
         stop-opacity=".533"
         id="stop31" />
      <stop
         offset=".667"
         stop-color="#ffaa4b"
         stop-opacity=".28"
         id="stop32" />
      <stop
         offset=".822"
         stop-color="#ff9640"
         stop-opacity="0"
         id="stop33" />
    </radialGradient>
    <radialGradient
       id="g"
       cx="-1255.933"
       cy="-77.394997"
       gradientTransform="matrix(0.60901885,0,0,0.61028898,815.59853,61.55589)"
       gradientUnits="userSpaceOnUse"
       r="88.862999">
      <stop
         offset="0"
         stop-color="#ff9640"
         id="stop25" />
      <stop
         offset=".8"
         stop-color="#fc4055"
         id="stop26" />
    </radialGradient>
    <linearGradient
       id="f"
       gradientUnits="userSpaceOnUse"
       x1="45.831001"
       x2="69.389"
       y1="7.7870002"
       y2="48.591"
       gradientTransform="matrix(0.63505615,0,0,0.63505615,6.6030438,6.6438539)">
      <stop
         offset="0"
         stop-color="#ffbd4f"
         id="stop23" />
      <stop
         offset=".508"
         stop-color="#ff9640"
         stop-opacity="0"
         id="stop24" />
    </linearGradient>
    <radialGradient
       id="e"
       cx="31.878"
       cy="42.674999"
       gradientUnits="userSpaceOnUse"
       r="137.521"
       gradientTransform="matrix(0.63505615,0,0,0.63505615,-27.703262,22.932142)">
      <stop
         offset=".113"
         stop-color="#810220"
         id="stop18" />
      <stop
         offset=".133"
         stop-color="#920b27"
         stop-opacity=".861"
         id="stop19" />
      <stop
         offset=".204"
         stop-color="#cb2740"
         stop-opacity=".398"
         id="stop20-3" />
      <stop
         offset=".257"
         stop-color="#ef394f"
         stop-opacity=".11"
         id="stop21-6" />
      <stop
         offset=".284"
         stop-color="#fc4055"
         stop-opacity="0"
         id="stop22" />
    </radialGradient>
    <radialGradient
       id="d"
       cx="42.285"
       cy="44.403999"
       gradientUnits="userSpaceOnUse"
       r="137.521"
       gradientTransform="matrix(0.63505615,0,0,0.63505615,6.0264672,22.283494)">
      <stop
         offset=".153"
         stop-color="#810220"
         id="stop13" />
      <stop
         offset=".167"
         stop-color="#920b27"
         stop-opacity=".861"
         id="stop14" />
      <stop
         offset=".216"
         stop-color="#cb2740"
         stop-opacity=".398"
         id="stop15" />
      <stop
         offset=".253"
         stop-color="#ef394f"
         stop-opacity=".11"
         id="stop16" />
      <stop
         offset=".272"
         stop-color="#fc4055"
         stop-opacity="0"
         id="stop17" />
    </radialGradient>
    <radialGradient
       id="c"
       cx="79.291"
       cy="11.219"
       gradientUnits="userSpaceOnUse"
       r="106.599"
       gradientTransform="matrix(0.63505615,0,0,0.63505615,6.6030438,6.6438539)">
      <stop
         offset="0"
         stop-color="#ffde67"
         stop-opacity=".6"
         id="stop6" />
      <stop
         offset=".093"
         stop-color="#ffd966"
         stop-opacity=".581"
         id="stop7" />
      <stop
         offset=".203"
         stop-color="#ffca65"
         stop-opacity=".525"
         id="stop8" />
      <stop
         offset=".321"
         stop-color="#feb262"
         stop-opacity=".432"
         id="stop9" />
      <stop
         offset=".446"
         stop-color="#fe8f5e"
         stop-opacity=".302"
         id="stop10" />
      <stop
         offset=".573"
         stop-color="#fd6459"
         stop-opacity=".137"
         id="stop11" />
      <stop
         offset=".664"
         stop-color="#fc4055"
         stop-opacity="0"
         id="stop12" />
    </radialGradient>
    <radialGradient
       id="b"
       cx="6.6290002"
       cy="20.139999"
       gradientUnits="userSpaceOnUse"
       r="53.726002"
       gradientTransform="matrix(0.63505615,0,0,0.63505615,6.6030438,6.6438539)">
      <stop
         offset=".001"
         stop-color="#c60084"
         id="stop4" />
      <stop
         offset="1"
         stop-color="#fc4055"
         stop-opacity="0"
         id="stop5" />
    </radialGradient>
    <radialGradient
       id="a"
       cx="71.530998"
       cy="16.385"
       gradientUnits="userSpaceOnUse"
       r="90.779999"
       gradientTransform="matrix(0.63505615,0,0,0.63505615,6.6030438,6.6438539)">
      <stop
         offset="0"
         stop-color="#fff36e"
         id="stop1" />
      <stop
         offset=".5"
         stop-color="#fc4055"
         id="stop2" />
      <stop
         offset="1"
         stop-color="#e31587"
         id="stop3" />
    </radialGradient>
    <radialGradient
       inkscape:collect="always"
       xlink:href="#linearGradient15"
       id="radialGradient17"
       cx="12.450863"
       cy="26.612514"
       fx="12.450863"
       fy="26.612514"
       r="10.184633"
       gradientTransform="matrix(0.27370691,2.145316,-3.010075,0.38403592,99.526508,-16.521367)"
       gradientUnits="userSpaceOnUse" />
    <linearGradient
       id="linearGradient15"
       inkscape:collect="always">
      <stop
         style="stop-color:#ff8d36;stop-opacity:1;"
         offset="0"
         id="stop16-7" />
      <stop
         style="stop-color:#fffe36;stop-opacity:1;"
         offset="1"
         id="stop17-5" />
    </linearGradient>
    <radialGradient
       inkscape:collect="always"
       xlink:href="#linearGradient13"
       id="radialGradient15"
       cx="30.616348"
       cy="33.260693"
       fx="30.616348"
       fy="33.260693"
       r="26.583647"
       gradientTransform="matrix(0.85040753,0,0,0.69543769,7.7916456,8.9235305)"
       gradientUnits="userSpaceOnUse" />
    <linearGradient
       id="linearGradient13"
       inkscape:collect="always">
      <stop
         style="stop-color:#ff1f21;stop-opacity:1;"
         offset="0"
         id="stop14-3" />
      <stop
         style="stop-color:#ff673d;stop-opacity:1;"
         offset="1"
         id="stop15-5" />
    </linearGradient>
    <radialGradient
       inkscape:collect="always"
       xlink:href="#linearGradient17"
       id="radialGradient19"
       cx="32.867538"
       cy="74.052307"
       fx="32.867538"
       fy="74.052307"
       r="28"
       gradientTransform="matrix(1.1289715,-1.4003083,1.0632453,0.857221,-71.323769,40.059891)"
       gradientUnits="userSpaceOnUse" />
    <linearGradient
       id="linearGradient17"
       inkscape:collect="always">
      <stop
         style="stop-color:#bf1916;stop-opacity:1;"
         offset="0"
         id="stop18-6" />
      <stop
         style="stop-color:#f77e4e;stop-opacity:1;"
         offset="1"
         id="stop19-2" />
    </linearGradient>
    <radialGradient
       inkscape:collect="always"
       xlink:href="#linearGradient11"
       id="radialGradient13"
       cx="39.856026"
       cy="41.419411"
       fx="39.856026"
       fy="41.419411"
       r="8.2413292"
       gradientTransform="matrix(2.5203341,-1.1593567,1.1272427,2.4505211,-103.07511,-13.60157)"
       gradientUnits="userSpaceOnUse" />
    <linearGradient
       id="linearGradient11"
       inkscape:collect="always">
      <stop
         style="stop-color:#ff5636;stop-opacity:1;"
         offset="0"
         id="stop12-9" />
      <stop
         style="stop-color:#ffa136;stop-opacity:1;"
         offset="1"
         id="stop13-1" />
    </linearGradient>
    <radialGradient
       inkscape:collect="always"
       xlink:href="#linearGradient19"
       id="radialGradient21-2"
       cx="23.751015"
       cy="41.856873"
       fx="23.751015"
       fy="41.856873"
       r="14"
       gradientUnits="userSpaceOnUse"
       gradientTransform="matrix(2.6755755,-0.71691832,0.71691832,2.6755755,-73.714509,-51.445029)" />
    <radialGradient
       inkscape:collect="always"
       xlink:href="#linearGradient10"
       id="radialGradient11"
       cx="44.738785"
       cy="25.442421"
       fx="44.738785"
       fy="25.442421"
       r="14.234387"
       gradientTransform="matrix(0.85040753,0,0,1.3407815,7.7916456,-8.707176)"
       gradientUnits="userSpaceOnUse" />
    <linearGradient
       id="linearGradient10"
       inkscape:collect="always">
      <stop
         style="stop-color:#ffb93f;stop-opacity:1;"
         offset="0"
         id="stop10-9" />
      <stop
         style="stop-color:#ff6b0d;stop-opacity:1;"
         offset="1"
         id="stop11-3" />
    </linearGradient>
    <radialGradient
       inkscape:collect="always"
       xlink:href="#linearGradient55"
       id="radialGradient13-6"
       cx="47.848469"
       cy="41.120373"
       fx="47.848469"
       fy="41.120373"
       r="8.2413292"
       gradientTransform="matrix(-1.618862,1.1029965,-1.0067719,-1.7437799,140.96981,39.591662)"
       gradientUnits="userSpaceOnUse" />
  </defs>
  <sodipodi:namedview
     id="namedview9"
     pagecolor="#ffffff"
     bordercolor="#000000"
     borderopacity="0.25"
     inkscape:showpageshadow="2"
     inkscape:pageopacity="0.0"
     inkscape:pagecheckerboard="0"
     inkscape:deskcolor="#d1d1d1"
     inkscape:zoom="14.608253"
     inkscape:cx="15.231116"
     inkscape:cy="40.49081"
     inkscape:window-width="2346"
     inkscape:window-height="1407"
     inkscape:window-x="0"
     inkscape:window-y="0"
     inkscape:window-maximized="0"
     inkscape:current-layer="svg9" />
  <g
     transform="matrix(6.4542919e-5,0.00351843,-0.00351843,6.4542919e-5,50.3152,0.86857348)"
     fill="#000000"
     stroke="none"
     id="g2" />
  <path
     style="fill:url(#radialGradient11);stroke-width:0.850408"
     d="m 44.59175,10.034443 c 8.084315,6.375552 6.59235,7.839259 11.383381,13.975408 4.057542,5.196731 0.790709,5.886866 2.290707,11.099978 l -11.597425,9.380926 -6.179186,-2.004154 c -2.8198,-8.362507 22.238501,-8.171506 4.102523,-32.452158 z"
     id="path2"
     sodipodi:nodetypes="cscccc" />
  <path
     id="circle4-0"
     style="fill:url(#radialGradient21-2);stroke-width:1.11032"
     d="M 50.493331,33.804018 A 15.544446,15.544446 0 0 1 34.948885,49.348464 15.544446,15.544446 0 0 1 19.404439,33.804018 15.544446,15.544446 0 0 1 34.948885,18.259572 15.544446,15.544446 0 0 1 50.493331,33.804018 Z" />
  <path
     style="fill:url(#radialGradient13);stroke-width:0.927578"
     d="m 40.341432,22.305929 c -0.184592,0.0071 -0.36897,0.01878 -0.552949,0.03534 3.809546,1.658276 6.319297,5.366869 6.442461,9.519862 0.158944,5.70628 -4.174288,10.668253 -9.864534,11.124311 1.444059,0.633861 3.0064,0.811272 4.582936,0.770985 5.923392,-0.167816 10.589213,-5.105704 10.42142,-11.029097 C 51.202946,26.803848 46.264914,22.137991 40.34143,22.305918 Z"
     id="path5" />
  <path
     id="ellipse841"
     style="fill:url(#radialGradient19);stroke-width:0.850408"
     d="m 19.984023,23.387731 c -5.570051,4.307457 -8.790747,1.191246 -8.790747,8.723013 0,12.99705 10.660732,23.533241 23.81141,23.533241 13.150678,0 23.421414,-10.741515 23.877188,-23.730569 0.39466,-11.247363 -7.63875,-18.869847 -10.054399,-20.80274 4.012431,6.048495 7.123695,11.360535 5.931533,19.212598 -1.448226,9.538614 -2.781943,11.565663 -12.429871,11.565663 -7.803997,1.187516 -11.311314,0.111693 -14.873045,-2.801553 -3.934967,-3.218527 -4.367449,-8.815219 -4.902882,-14.564397 -0.06508,-2.50348 -2.476307,1.031257 -2.569187,-1.135256 z"
     sodipodi:nodetypes="cssscscscc" />
  <path
     id="path4"
     style="fill:url(#radialGradient15);stroke-width:0.850408"
     d="m 20.088455,8.3561505 c 0.596647,1.39248 1.65876,2.6123545 3.048828,3.2519525 -0.274033,0.01627 -1.666534,1.005979 -2.779297,0.720705 -2.514212,0.08728 -4.564029,-1.692984 -5.955078,-3.5957045 0.219996,2.1188195 1.575739,4.0871265 3.521485,4.9863295 1.109223,0.211759 0.667718,0.625364 -0.105469,1.005859 -1.793836,1.274639 -4.330302,1.501226 -5.273438,0.953125 -0.943135,-0.548101 -1.883098,-1.179951 -2.6933592,-1.974609 0.5387022,2.410385 2.8379182,3.891742 5.1445312,4.285155 -0.682304,1.229129 -1.460067,2.444128 -2.566406,3.335938 -1.615786,1.454436 -4.0510632,1.322728 -5.8437502,0.289062 0.07993,0.197046 0.975704,2.745281 2.9882813,3.22461 -0.1158657,-1.267702 1.8660709,-0.828632 2.6757809,-0.484375 -0.474153,1.45258 -0.753625,3.375168 -0.902343,4.945312 -1.7157725,1.145219 -4.1384491,0.869025 -6.244141,0.183593 1.6283614,1.625679 3.9571423,2.452788 5.960938,2.04297 0.05915,-0.03061 0.114394,-0.05601 0.166015,-0.07813 0.0283,0.642538 0.0899,1.27678 0.183594,1.900391 -0.690866,1.69069 -2.2686067,3.006448 -3.1015627,3.337891 -0.9798539,0.389893 -2.0321585,0.726484 -3.1640625,0.865234 2.4388238,1.048294 5.2021372,0.267726 6.7500002,-1.259766 0.747674,1.267221 1.190323,2.516858 1.416016,3.904297 0.46578,2.118418 -0.914356,3.904352 -2.769532,4.650391 0.217969,0.05822 2.965043,0.916334 4.4375,-0.333985 -0.999864,-0.568153 -0.171154,-1.537746 0.552735,-2.080078 4.107785,4.951594 10.761607,8.107422 18.279297,8.107422 12.49317,0 22.621093,-8.720338 22.621094,-19.898437 0,-3.012557 -0.741278,-5.870299 -2.060547,-8.439454 0.160557,0.951579 0.253906,1.926557 0.253906,2.92383 0,9.647928 -7.824727,16.912108 -17.472656,16.912108 -0.901018,0.04374 -1.747655,0.02095 -2.546875,-0.05859 -0.09475,0.04981 -2.290454,0.271834 -2.386719,0.31836 -5.508927,-0.898059 -9.381311,-0.339554 -11.736328,-6.095704 -1.556515,-3.804487 -1.047364,-8.014072 1.003906,-11.148437 0.534943,0.03548 1.070524,0.072 1.605469,0.107422 0.516927,-1.126213 1.431225,-2.159042 2.658203,-2.501953 1.554785,-0.603373 3.094771,0.04887 4.400391,0.833984 1.460353,-0.182415 2.87024,-0.785838 4.292968,-1.146484 1.835586,-0.643098 3.745976,-0.574865 5.052735,-2.107422 0.182442,-1.377296 -0.759766,-2.863281 -0.759766,-2.863281 -0.176729,2.747108 -1.006911,2.553481 -1.144531,2.623047 h -0.002 -0.002 -0.002 c 0.144128,-1.169161 -0.310546,-1.806641 -0.310546,-1.806641 l -0.0332,0.01563 h -0.002 -0.0059 -0.002 c 0,0 -0.04994,1.745318 -0.669922,1.734375 -0.06264,-1.094223 -0.488281,-1.414063 -0.488281,-1.414063 0,0 -0.247213,1.448935 -0.767578,1.376954 -0.111648,-0.660513 -0.337891,-1.421875 -0.337891,-1.421876 0,0 -0.158129,1.922845 -2.634766,0.91211 0.729931,-1.027452 1.597289,-1.082936 2.212891,-1.550781 2.732655,-1.69873 6.202909,-0.909115 8.785156,0.679687 -0.800616,-0.749013 -1.743255,-1.33381 -2.71875,-1.828125 1.551113,-0.170565 2.581919,-1.22338 3.513672,-2.363281 v -0.002 -0.002 -0.002 h -0.002 v -0.002 h -0.002 -0.002 l -0.002,0.002 c -1.598003,1.569947 -3.540882,1.872846 -5.705079,1.683593 -1.631692,-0.229238 -3.205349,0.215491 -4.734375,0.767578 -0.468482,0.169154 -2.654881,1.785998 -3.253906,1.597658 0.05581,-1.516997 0.791141,-3.813557 1.449219,-1.480469 0.712683,-1.47705 0.270443,-1.730909 0.660156,-2.09375 0.446676,-0.415875 0.863,-0.176258 1.494141,1.121094 0,0 0.625798,-1.536902 0.382812,-2.582032 0,0 1.245451,0.835972 1.566406,1.611328 -9.17e-4,-0.39956 0.241788,-1.469663 -0.115234,-2.21875 0.285653,-0.09808 1.54975,0.79535 1.841797,1.705079 0.04302,-0.6958 0.02294,-2.003272 -0.306641,-2.515625 0.37079,0.183094 1.693266,1.141121 1.675782,2.105468 0.251708,-1.194516 -0.210938,-2.857422 -0.210938,-2.857422 0.267294,-0.184032 0.747984,-0.334234 1.078125,-0.289062 -0.22847,-0.500072 -0.971806,-2.1750505 -2.513672,-2.1542975 -1.990764,0.04795 -4.01272,0.06061 -5.974609,0.433594 0.390045,0.09696 1.666166,0.8426645 1.24414,1.1210945 -1.454869,0.430972 -2.989516,0.855594 -4.455078,0.205078 C 25.409716,10.361287 22.630332,9.6110575 20.087996,8.3560145 Z M 6.5865018,21.613963 c -0.00145,-0.0036 -0.00497,-0.0062 -0.00586,-0.0078 1.065e-4,7.25e-4 0.00176,0.0049 0.00195,0.0059 l 0.00195,0.002 z M 27.969315,12.377636 c 0.369875,-0.01427 0.73304,0.08604 1.074218,0.386717 -1.710385,2.224737 -4.192913,1.247716 -4.74414,0.734377 0.567993,-0.431047 2.276901,-0.98988 3.669922,-1.121094 z M 10.535721,44.844432 c 0.0014,6.82e-4 0.0033,0.003 0.0059,0.0039 l 0.0019,-0.002 c -0.0038,-10e-4 -0.006,-0.0016 -0.0078,-0.002 z"
     sodipodi:nodetypes="ccccccscccccccccccsccccccsscsccccccccccccccccccccccccccccccccccccccsccsccccccccccccccccccccccccccccc" />
  <path
     d="m 30.220141,20.241627 c -1.539817,-0.05713 -5.631253,-1.574098 -7.039922,-0.916729 -5.286566,2.486052 -6.129611,11.116143 -3.46101,16.733681 3.045681,6.411313 8.56042,8.400636 15.089027,5.813685 -7.144814,-1.84153 -8.51741,-4.009381 -10.297013,-7.227711 -2.266204,-5.546147 0.740112,-11.724935 5.708918,-14.402926 z"
     style="fill:url(#radialGradient13-6);stroke-width:0.9429"
     id="path3"
     sodipodi:nodetypes="ccsccc" />
  <path
     style="fill:url(#radialGradient17);stroke-width:0.850408"
     d="m 26.2821,18.609836 c -1.620413,-0.03515 -2.98572,0.522841 -4.069334,1.262325 -0.194095,0.194095 -0.507129,2.985678 2.862618,4.234704 1.534707,0.258657 1.915775,0.545402 4.927104,0.03179 1.414398,-0.24124 4.720877,-0.928466 7.514947,-1.017625 1.854216,-1.219439 2.032291,-2.64665 1.975879,-2.880137 -3.440418,3.464741 -8.325561,-0.347702 -12.111664,-1.508144 -0.356283,-0.07606 -0.725609,-0.114823 -1.09955,-0.122919 z"
     id="path8"
     sodipodi:nodetypes="cccsccccc" />
</svg>
