<?xml version="1.0" encoding="UTF-8" standalone="no"?>
<svg
   width="64"
   height="64"
   version="1"
   id="svg5"
   sodipodi:docname="stock_help.svg"
   inkscape:version="1.4.2 (ebf0e940d0, 2025-05-08)"
   xmlns:inkscape="http://www.inkscape.org/namespaces/inkscape"
   xmlns:sodipodi="http://sodipodi.sourceforge.net/DTD/sodipodi-0.dtd"
   xmlns:xlink="http://www.w3.org/1999/xlink"
   xmlns="http://www.w3.org/2000/svg"
   xmlns:svg="http://www.w3.org/2000/svg">
  <defs
     id="defs5">
    <linearGradient
       id="linearGradient1"
       inkscape:collect="always">
      <stop
         style="stop-color:#e74c3c;stop-opacity:1;"
         offset="0"
         id="stop1" />
      <stop
         style="stop-color:#d01840;stop-opacity:1;"
         offset="1"
         id="stop2" />
    </linearGradient>
    <radialGradient
       inkscape:collect="always"
       xlink:href="#linearGradient1"
       id="radialGradient2"
       cx="11.325887"
       cy="50.832596"
       fx="11.325887"
       fy="50.832596"
       r="29"
       gradientUnits="userSpaceOnUse"
       gradientTransform="matrix(0.53257587,-1.9876003,1.9876003,0.53257587,-76.422129,56.257714)" />
    <filter
       inkscape:collect="always"
       style="color-interpolation-filters:sRGB"
       id="filter1"
       x="-0.090836155"
       y="-0.090843662"
       width="1.1816723"
       height="1.1816787">
      <feGaussianBlur
         inkscape:collect="always"
         stdDeviation="1.7734408"
         id="feGaussianBlur1" />
    </filter>
    <filter
       inkscape:collect="always"
       style="color-interpolation-filters:sRGB"
       id="filter2"
       x="-0.090294396"
       y="-0.090294076"
       width="1.1805937"
       height="1.1805882">
      <feGaussianBlur
         inkscape:collect="always"
         stdDeviation="1.7734408"
         id="feGaussianBlur2" />
    </filter>
  </defs>
  <sodipodi:namedview
     id="namedview5"
     pagecolor="#505050"
     bordercolor="#eeeeee"
     borderopacity="1"
     inkscape:showpageshadow="0"
     inkscape:pageopacity="0"
     inkscape:pagecheckerboard="0"
     inkscape:deskcolor="#505050"
     inkscape:zoom="7.8418054"
     inkscape:cx="30.350154"
     inkscape:cy="30.09511"
     inkscape:window-width="1920"
     inkscape:window-height="1020"
     inkscape:window-x="0"
     inkscape:window-y="0"
     inkscape:window-maximized="1"
     inkscape:current-layer="svg5" />
  <path
     style="fill:#e4e4e4;stroke-width:1.03182"
     d="M 13.140943,12.901727 C 10.665016,15.352425 8.6284379,18.33207 7.2114408,21.763917 1.5436394,35.491503 8.0314886,51.104924 21.759454,56.772346 35.486945,62.440241 51.099036,55.953722 56.766458,42.225757 62.434828,28.49874 55.946408,12.884751 42.218443,7.217329 31.923085,2.9659582 20.566925,5.5516277 13.140943,12.901727 Z m 8.632761,8.877866 a 14.44553,14.44553 0 0 1 20.429064,0 14.44553,14.44553 0 0 1 0,20.429064 14.44553,14.44553 0 0 1 -20.429064,0 14.44553,14.44553 0 0 1 0,-20.429064 z"
     id="path2" />
  <path
     style="mix-blend-mode:normal;fill:none;stroke:#000000;stroke-width:0.3;stroke-dasharray:none;stroke-opacity:1;filter:url(#filter1)"
     d="M 15.074184,14.795383 C 12.836042,17.010718 10.995055,19.704201 9.7141447,22.806458 4.5906727,35.215661 10.455436,49.329586 22.864983,54.452715 35.2741,59.576272 49.386823,53.712711 54.509952,41.303165 59.633938,28.894476 53.768659,14.780037 41.359113,9.6569077 32.05251,5.8138339 21.786983,8.1511785 15.074184,14.795383 Z m 7.80368,8.025245 a 13.058197,13.058197 0 0 1 18.467079,0 13.058197,13.058197 0 0 1 0,18.467079 13.058197,13.058197 0 0 1 -18.467079,0 13.058197,13.058197 0 0 1 0,-18.467079 z"
     id="path2-5"
     transform="matrix(1.1062423,0,0,1.1062423,-3.4117528,-3.4055087)" />
  <path
     style="fill:url(#radialGradient2);stroke-width:1.03182"
     d="m 10.951821,10.713694 c -2.3610351,2.336816 -4.3189485,5.147542 -5.7382782,8.34766 a 2.5262174,2.5021255 45 0 0 1.2810768,3.32765 l 11.4726194,5.187278 a 2.5262174,2.5021255 45 0 0 3.317811,-1.247624 c 0.493478,-1.112784 1.188051,-2.126373 2.046574,-2.987211 0.862286,-0.855871 1.874069,-1.544144 2.987209,-2.034766 a 2.5262174,2.5021255 45 0 0 1.255496,-3.31781 L 22.381147,6.4985404 A 2.5262174,2.5021255 45 0 0 19.049562,5.2174636 C 16.079077,6.5379609 13.319176,8.370622 10.951821,10.713694 Z M 5.7330582,42.1286 a 2.5021255,2.5262174 45 0 0 -0.5195147,2.798296 c 1.4193291,3.200116 3.3772413,6.010843 5.7382775,8.34766 2.367355,2.343071 5.127256,4.175734 8.097741,5.49623 a 2.5021255,2.5262174 45 0 0 3.331586,-1.281077 L 27.576297,46.001348 A 2.5021255,2.5262174 45 0 0 26.318833,42.681569 C 25.205695,42.190946 24.193926,41.502657 23.331624,40.646803 22.473117,39.78595 21.778528,38.772376 21.28505,37.659592 A 2.5021255,2.5262174 45 0 0 17.96724,36.411969 L 6.4946195,41.599246 A 2.5021255,2.5262174 45 0 0 5.7330582,42.1286 Z M 42.122712,5.738946 A 2.5021255,2.5262174 45 0 0 41.593358,6.5005077 L 36.406081,17.973128 a 2.5021255,2.5262174 45 0 0 1.247623,3.31781 c 1.112783,0.493478 2.126372,1.188051 2.98721,2.046574 0.855872,0.862286 1.544143,1.87407 2.034767,2.98721 a 2.5021255,2.5262174 45 0 0 3.319778,1.257462 L 57.483822,22.387037 A 2.5021255,2.5262174 45 0 0 58.764898,19.05545 C 57.444401,16.084968 55.61174,13.325064 53.268667,10.957709 50.93185,8.5966749 48.121124,6.6387609 44.921008,5.2194316 A 2.5021255,2.5262174 45 0 0 42.122712,5.738946 Z m 1.12955,31.115791 a 2.5262174,2.5021255 45 0 0 -0.576581,0.808791 c -0.490624,1.113138 -1.178911,2.124907 -2.034767,2.987209 -0.860853,0.858507 -1.874427,1.553096 -2.98721,2.046575 a 2.5262174,2.5021255 45 0 0 -1.247624,3.317811 l 5.187278,11.472618 a 2.5262174,2.5021255 45 0 0 3.327649,1.281078 c 3.200117,-1.41933 6.010844,-3.377242 8.34766,-5.738279 2.343074,-2.367353 4.175734,-5.127258 5.496231,-8.097742 A 2.5262174,2.5021255 45 0 0 57.48382,41.601214 L 45.993491,36.408033 a 2.5262174,2.5021255 45 0 0 -2.741229,0.446704 z"
     id="path5" />
  <path
     style="mix-blend-mode:normal;fill:none;stroke:#000000;stroke-width:0.3;stroke-dasharray:none;stroke-opacity:1;filter:url(#filter2)"
     d="m 13.095303,12.817486 c -2.134284,2.112391 -3.9041623,4.653178 -5.1871803,7.54596 a 2.2836022,2.2618241 45 0 0 1.158043,3.008066 l 10.3708023,4.689097 a 2.2836022,2.2618241 45 0 0 2.999172,-1.127803 c 0.446085,-1.005914 1.073952,-1.922159 1.850023,-2.700323 0.779473,-0.773674 1.694086,-1.395846 2.700321,-1.839349 a 2.2836022,2.2618241 45 0 0 1.134919,-2.999171 L 23.426969,9.0071508 A 2.2836022,2.2618241 45 0 0 20.415346,7.8491072 C 17.730143,9.0427854 15.2353,10.69944 13.095303,12.817486 Z M 8.3777437,41.215339 a 2.2618241,2.2836022 45 0 0 -0.469621,2.52955 c 1.283018,2.892781 3.0528953,5.433569 5.1871803,7.54596 2.139997,2.118045 4.63484,3.774701 7.320043,4.968378 A 2.2618241,2.2836022 45 0 0 23.42697,55.101184 L 28.123182,44.716152 A 2.2618241,2.2836022 45 0 0 26.986484,41.715201 C 25.98025,41.271697 25.065651,40.649511 24.286163,39.875852 23.510106,39.097674 22.882225,38.181443 22.43614,37.175529 A 2.2618241,2.2836022 45 0 0 19.436969,36.047727 L 9.0661657,40.736823 a 2.2618241,2.2836022 45 0 0 -0.688422,0.478516 z M 41.272576,8.320507 A 2.2618241,2.2836022 45 0 0 40.79406,9.0089291 L 36.104964,19.379732 a 2.2618241,2.2836022 45 0 0 1.127802,2.999171 c 1.005913,0.446085 1.922158,1.073952 2.700322,1.850023 0.773675,0.779473 1.395845,1.694087 1.83935,2.700322 a 2.2618241,2.2836022 45 0 0 3.00095,1.136697 l 10.385033,-4.696211 a 2.2618241,2.2836022 45 0 0 1.158043,-3.011625 c -1.193678,-2.6852 -2.850332,-5.180046 -4.968379,-7.320043 -2.112391,-2.134283 -4.653178,-3.9041614 -7.545959,-5.1871798 a 2.2618241,2.2836022 45 0 0 -2.52955,0.4696208 z m 1.021069,28.127465 a 2.2836022,2.2618241 45 0 0 -0.521207,0.731115 c -0.443505,1.006234 -1.06569,1.920834 -1.83935,2.700321 -0.778178,0.776057 -1.694409,1.403938 -2.700322,1.850024 a 2.2836022,2.2618241 45 0 0 -1.127803,2.999172 l 4.689097,10.370801 a 2.2836022,2.2618241 45 0 0 3.008065,1.158044 c 2.892782,-1.283019 5.43357,-3.052895 7.54596,-5.187181 2.118048,-2.139995 3.774701,-4.634841 4.968379,-7.320043 A 2.2836022,2.2618241 45 0 0 55.15842,40.738602 L 44.771609,36.044169 a 2.2836022,2.2618241 45 0 0 -2.477964,0.403803 z"
     id="path5-3"
     transform="matrix(1.1062423,0,0,1.1062423,-3.4117528,-3.4055087)" />
</svg>
