<?xml version="1.0" encoding="UTF-8" standalone="no"?>
<svg
   width="64"
   height="64"
   version="1.1"
   id="svg13"
   sodipodi:docname="gnome-firmware.svg"
   inkscape:version="1.4.2 (ebf0e940d0, 2025-05-08)"
   xmlns:inkscape="http://www.inkscape.org/namespaces/inkscape"
   xmlns:sodipodi="http://sodipodi.sourceforge.net/DTD/sodipodi-0.dtd"
   xmlns:xlink="http://www.w3.org/1999/xlink"
   xmlns="http://www.w3.org/2000/svg"
   xmlns:svg="http://www.w3.org/2000/svg">
  <defs
     id="defs13">
    <linearGradient
       id="linearGradient16"
       inkscape:collect="always">
      <stop
         style="stop-color:#4bae4f;stop-opacity:1;"
         offset="0"
         id="stop17" />
      <stop
         style="stop-color:#2aaa6a;stop-opacity:1;"
         offset="1"
         id="stop18" />
    </linearGradient>
    <inkscape:path-effect
       effect="fillet_chamfer"
       id="path-effect16"
       is_visible="true"
       lpeversion="1"
       nodesatellites_param="F,0,1,1,0,1.5115257,0,1 @ F,0,0,1,0,0,0,1 @ F,0,0,1,0,0,0,1 @ F,0,1,1,0,1.5115257,0,1 | F,0,0,1,0,0,0,1 @ F,0,0,1,0,0,0,1 @ F,0,0,1,0,0,0,1 @ F,0,0,1,0,0,0,1 @ F,0,0,1,0,0,0,1 @ F,0,0,1,0,0,0,1 @ F,0,0,1,0,0,0,1 @ F,0,0,1,0,0,0,1 @ F,0,0,1,0,0,0,1 @ F,0,0,1,0,0,0,1 | F,0,1,1,0,1.5115257,0,1 @ F,0,0,1,0,0,0,1 @ F,0,0,1,0,0,0,1 @ F,0,1,1,0,1.5115257,0,1 | F,0,1,1,0,1.5115257,0,1 @ F,0,0,1,0,0,0,1 @ F,0,0,1,0,0,0,1 @ F,0,1,1,0,1.5115257,0,1 | F,0,0,1,0,0,0,1 @ F,0,0,1,0,0,0,1 @ F,0,0,1,0,0,0,1 @ F,0,0,1,0,0,0,1 @ F,0,0,1,0,0,0,1 @ F,0,0,1,0,0,0,1 @ F,0,0,1,0,0,0,1 | F,0,0,1,0,0,0,1 @ F,0,0,1,0,0,0,1 @ F,0,0,1,0,0,0,1 @ F,0,0,1,0,0,0,1 | F,0,0,1,0,0,0,1 @ F,0,0,1,0,0,0,1 @ F,0,0,1,0,0,0,1 @ F,0,0,1,0,0,0,1 | F,0,0,1,0,0,0,1 @ F,0,0,1,0,0,0,1 @ F,0,0,1,0,0,0,1 @ F,0,0,1,0,0,0,1 @ F,0,0,1,0,0,0,1 @ F,0,0,1,0,0,0,1 @ F,0,0,1,0,0,0,1 | F,0,0,1,0,0,0,1 @ F,0,1,1,0,1.5115257,0,1 @ F,0,1,1,0,1.5115257,0,1 @ F,0,0,1,0,0,0,1 | F,0,0,1,0,0,0,1 @ F,0,0,1,0,0,0,1 @ F,0,0,1,0,0,0,1 @ F,0,0,1,0,0,0,1 @ F,0,0,1,0,0,0,1 @ F,0,0,1,0,0,0,1 @ F,0,0,1,0,0,0,1 @ F,0,0,1,0,0,0,1 @ F,0,0,1,0,0,0,1 @ F,0,0,1,0,0,0,1 | F,0,0,1,0,0,0,1 @ F,0,1,1,0,1.5115257,0,1 @ F,0,1,1,0,1.5115257,0,1 @ F,0,0,1,0,0,0,1 | F,0,0,1,0,0,0,1 @ F,0,0,1,0,1.5115257,0,1 @ F,0,1,1,0,1.5115257,0,1 @ F,0,0,1,0,0,0,1"
       radius="0"
       unit="px"
       method="auto"
       mode="F"
       chamfer_steps="1"
       flexible="false"
       use_knot_distance="true"
       apply_no_radius="true"
       apply_with_radius="true"
       only_selected="false"
       hide_knots="false" />
    <linearGradient
       id="linearGradient14"
       inkscape:collect="always">
      <stop
         style="stop-color:#fbd14e;stop-opacity:1;"
         offset="0"
         id="stop15" />
      <stop
         style="stop-color:#fba74e;stop-opacity:1;"
         offset="1"
         id="stop16" />
    </linearGradient>
    <linearGradient
       id="linearGradient13"
       inkscape:collect="always">
      <stop
         style="stop-color:#414141;stop-opacity:1;"
         offset="0"
         id="stop13" />
      <stop
         style="stop-color:#242424;stop-opacity:1;"
         offset="1"
         id="stop14" />
    </linearGradient>
    <radialGradient
       inkscape:collect="always"
       xlink:href="#linearGradient13"
       id="radialGradient14"
       cx="25.774725"
       cy="38.097862"
       fx="25.774725"
       fy="38.097862"
       r="10"
       gradientUnits="userSpaceOnUse"
       gradientTransform="matrix(4.8141288,0,0,4.8141269,-110.14242,-132.86027)" />
    <radialGradient
       inkscape:collect="always"
       xlink:href="#linearGradient14"
       id="radialGradient16"
       cx="32"
       cy="32"
       fx="32"
       fy="32"
       r="25"
       gradientTransform="matrix(1.3788539,0,0,0.88246645,-12.123322,3.761074)"
       gradientUnits="userSpaceOnUse" />
    <radialGradient
       inkscape:collect="always"
       xlink:href="#linearGradient16"
       id="radialGradient18"
       cx="-1.8181272"
       cy="64.815117"
       fx="-1.8181272"
       fy="64.815117"
       r="28"
       gradientTransform="matrix(3.6369614,-0.97452087,0.90491224,3.3771784,-53.857661,-158.19284)"
       gradientUnits="userSpaceOnUse" />
    <filter
       inkscape:collect="always"
       style="color-interpolation-filters:sRGB"
       id="filter18"
       x="-0.10047804"
       y="-0.10047804"
       width="1.2009561"
       height="1.2009561">
      <feGaussianBlur
         inkscape:collect="always"
         stdDeviation="0.79565033"
         id="feGaussianBlur18" />
    </filter>
    <filter
       inkscape:collect="always"
       style="color-interpolation-filters:sRGB"
       id="filter19"
       x="-0.082600532"
       y="-0.082600532"
       width="1.1652011"
       height="1.1652011">
      <feGaussianBlur
         inkscape:collect="always"
         stdDeviation="0.78433863"
         id="feGaussianBlur19" />
    </filter>
    <filter
       inkscape:collect="always"
       style="color-interpolation-filters:sRGB"
       id="filter20"
       x="-0.070143747"
       y="-0.07553942"
       width="1.1402875"
       height="1.1510788">
      <feGaussianBlur
         inkscape:collect="always"
         stdDeviation="1.5950208"
         id="feGaussianBlur20" />
    </filter>
  </defs>
  <sodipodi:namedview
     id="namedview13"
     pagecolor="#ffffff"
     bordercolor="#000000"
     borderopacity="0.25"
     inkscape:showpageshadow="2"
     inkscape:pageopacity="0.0"
     inkscape:pagecheckerboard="0"
     inkscape:deskcolor="#d1d1d1"
     inkscape:zoom="9.8438956"
     inkscape:cx="7.7713136"
     inkscape:cy="35.656615"
     inkscape:current-layer="svg13" />
  <rect
     style="fill:url(#radialGradient18)"
     width="56"
     height="52"
     x="4"
     y="6"
     rx="11.647976"
     ry="11.647976"
     id="rect2" />
  <rect
     style="fill:none;stroke:#000000;stroke-opacity:1;stroke-width:0.2;stroke-dasharray:none;filter:url(#filter20)"
     width="56"
     height="52"
     x="4"
     y="6"
     rx="11.647976"
     ry="11.647976"
     id="rect2-6" />
  <rect
     style="fill:#646464;fill-opacity:1"
     width="24"
     height="24"
     x="20"
     y="20"
     rx="4.5340176"
     ry="4.5340176"
     id="rect4" />
  <rect
     style="fill:none;fill-opacity:1;stroke:#000000;stroke-opacity:1;stroke-width:0.2;stroke-dasharray:none;filter:url(#filter19)"
     width="24"
     height="24"
     x="20"
     y="20"
     rx="4.5340176"
     ry="4.5340176"
     id="rect4-2" />
  <path
     style="opacity:0.252905;fill:#000000;fill-opacity:1"
     d="M 25,11.511526 V 24 h 3 V 11.511526 A 1.5115257,1.5115257 45 0 0 26.488474,10 1.5000443,1.5000443 134.55976 0 0 25,11.511526 Z M 25,24 H 14 V 18.5 C 14,17 12.5,17 12.5,17 h -4 v 3 H 11 v 5.5 c 0,0 0.1,1.5 1.5,1.5 H 25 Z M 31,11.511526 V 24 h 3 V 11.511526 A 1.5115257,1.5115257 45 0 0 32.488474,10 1.5000443,1.5000443 134.55976 0 0 31,11.511526 Z m 6,0 V 24 h 3 V 11.511526 A 1.5115257,1.5115257 45 0 0 38.488474,10 1.5000443,1.5000443 134.55976 0 0 37,11.511526 Z M 54,17.5 V 25 H 41 v 3 H 55.5 C 57,28 57,26.5 57,26.5 v -9 z M 8.5,30 v 3 H 25 V 30 Z M 41,31 v 3 H 55.5 V 31 Z M 8.5,36 C 7,36 7,37.5 7,37.5 v 9 h 3 V 39 H 24 V 36 Z M 24,39 V 52.488474 A 1.5115257,1.5115257 45 0 0 25.511526,54 1.5000443,1.5000443 134.55976 0 0 27,52.488474 V 39 Z m 17,-2 v 3 h 9 v 5.5 c 0,1.5 1.5,1.5 1.5,1.5 h 4 V 44 H 53 V 38.5 C 53,38.5 52.9,37 51.5,37 Z M 30,39 V 52.488474 A 1.5115257,1.5115257 45 0 0 31.511526,54 1.5000443,1.5000443 134.55976 0 0 33,52.488474 V 39 Z m 6,0 V 52.488474 A 1.5115257,1.5115257 45 0 0 37.511526,54 1.5000443,1.5000443 134.55976 0 0 39,52.488474 V 39 Z"
     id="path5"
     inkscape:path-effect="#path-effect16"
     inkscape:original-d="m 25,10 v 14 h 3 V 10 Z m 0,14 H 14 V 18.5 C 14,17 12.5,17 12.5,17 h -4 v 3 H 11 v 5.5 c 0,0 0.1,1.5 1.5,1.5 H 25 Z m 6,-14 v 14 h 3 V 10 Z m 6,0 v 14 h 3 V 10 Z m 17,7.5 V 25 H 41 v 3 H 55.5 C 57,28 57,26.5 57,26.5 v -9 z M 8.5,30 v 3 H 25 V 30 Z M 41,31 v 3 H 55.5 V 31 Z M 8.5,36 C 7,36 7,37.5 7,37.5 v 9 h 3 V 39 H 24 V 36 Z M 24,39 v 15 h 3 V 39 Z m 17,-2 v 3 h 9 v 5.5 c 0,1.5 1.5,1.5 1.5,1.5 h 4 V 44 H 53 v -5.5 c 0,0 -0.1,-1.5 -1.5,-1.5 z m -11,2 v 15 h 3 V 39 Z m 6,0 v 15 h 3 V 39 Z"
     transform="matrix(0.93535449,0,0,0.93535449,2.0686562,2.0686562)" />
  <path
     id="path6"
     style="fill:url(#radialGradient16);stroke-width:0.935355"
     d="m 53.98083,17.034328 a 1.4030318,1.4030318 0 0 0 -1.403031,1.403032 1.4030318,1.4030318 0 0 0 1.403031,1.403031 1.4030318,1.4030318 0 0 0 1.403033,-1.403031 1.4030318,1.4030318 0 0 0 -1.403033,-1.403032 z m -43.96166,0.935354 a 1.4030318,1.4030318 0 0 0 -1.4030327,1.403033 1.4030318,1.4030318 0 0 0 1.4030327,1.403031 1.4030318,1.4030318 0 0 0 1.403031,-1.403031 1.4030318,1.4030318 0 0 0 -1.403031,-1.403033 z m 15.433348,0.935355 v 5.612127 h -6.547481 v 2.806063 h 5.612127 v 2.806064 h -5.612127 v 2.806064 h 5.612127 v 2.806063 h -5.612127 v 2.806064 h 5.612127 v 6.547481 h 2.806063 v -5.612127 h 2.806064 v 5.612127 h 2.806064 v -5.612127 h 2.806063 v 5.612127 h 2.806064 v -5.612127 h 6.547481 v -2.806063 h -5.612127 v -2.806064 h 5.612127 v -2.806063 h -5.612127 v -2.806064 h 5.612127 v -2.806064 h -5.612127 v -6.547481 h -2.806063 v 5.612127 h -2.806064 v -5.612127 h -2.806064 v 5.612127 H 28.258582 V 18.905037 Z M 10.01917,30.129291 a 1.4030318,1.4030318 0 0 0 -1.4030327,1.403032 1.4030318,1.4030318 0 0 0 1.4030327,1.403032 1.4030318,1.4030318 0 0 0 1.403031,-1.403032 1.4030318,1.4030318 0 0 0 -1.403031,-1.403032 z m 43.96166,0.935355 a 1.4030318,1.4030318 0 0 0 -1.403031,1.403031 1.4030318,1.4030318 0 0 0 1.403031,1.403032 1.4030318,1.4030318 0 0 0 1.403033,-1.403032 1.4030318,1.4030318 0 0 0 -1.403033,-1.403031 z m 0,12.159608 a 1.4030318,1.4030318 0 0 0 -1.403031,1.403031 1.4030318,1.4030318 0 0 0 1.403031,1.403033 1.4030318,1.4030318 0 0 0 1.403033,-1.403033 1.4030318,1.4030318 0 0 0 -1.403033,-1.403031 z M 10.01917,44.159609 A 1.4030318,1.4030318 0 0 0 8.6161373,45.56264 1.4030318,1.4030318 0 0 0 10.01917,46.965672 1.4030318,1.4030318 0 0 0 11.422201,45.56264 1.4030318,1.4030318 0 0 0 10.01917,44.159609 Z" />
  <rect
     style="fill:url(#radialGradient14)"
     width="20"
     height="20"
     x="22"
     y="22"
     id="rect7"
     rx="2.7193949"
     ry="2.7193949" />
  <rect
     style="fill:none;stroke:#000000;stroke-opacity:1;stroke-width:0.2;stroke-dasharray:none;filter:url(#filter18)"
     width="20"
     height="20"
     x="22"
     y="22"
     id="rect7-9"
     rx="2.7193949"
     ry="2.7193949" />
</svg>
