<?xml version="1.0" encoding="UTF-8" standalone="no"?>
<svg
   width="64"
   height="64"
   version="1.1"
   id="svg5"
   sodipodi:docname="com.getmailspring.Mailspring.svg"
   inkscape:version="1.4.3 (0d15f75042, 2025-12-25)"
   xmlns:inkscape="http://www.inkscape.org/namespaces/inkscape"
   xmlns:sodipodi="http://sodipodi.sourceforge.net/DTD/sodipodi-0.dtd"
   xmlns:xlink="http://www.w3.org/1999/xlink"
   xmlns="http://www.w3.org/2000/svg"
   xmlns:svg="http://www.w3.org/2000/svg">
  <defs
     id="defs5">
    <filter
       inkscape:collect="always"
       style="color-interpolation-filters:sRGB"
       id="filter24"
       x="-0.11357772"
       y="-0.16014143"
       width="1.2225398"
       height="1.317531">
      <feGaussianBlur
         inkscape:collect="always"
         stdDeviation="2.1235414"
         id="feGaussianBlur24" />
    </filter>
    <radialGradient
       inkscape:collect="always"
       xlink:href="#linearGradient10"
       id="radialGradient11"
       cx="35.059376"
       cy="55.802879"
       fx="35.059376"
       fy="55.802879"
       r="25.999146"
       gradientTransform="matrix(3.3458751,-0.89652451,0.62067085,2.3163751,-96.226046,-42.464155)"
       gradientUnits="userSpaceOnUse" />
    <linearGradient
       id="linearGradient10"
       inkscape:collect="always">
      <stop
         style="stop-color:#00d0ff;stop-opacity:1;"
         offset="0"
         id="stop10" />
      <stop
         style="stop-color:#00a2ff;stop-opacity:1;"
         offset="1"
         id="stop11" />
    </linearGradient>
    <filter
       inkscape:collect="always"
       style="color-interpolation-filters:sRGB"
       id="filter23"
       x="-0.10896203"
       y="-0.16014143"
       width="1.2225397"
       height="1.317531">
      <feGaussianBlur
         inkscape:collect="always"
         stdDeviation="2.1235414"
         id="feGaussianBlur23" />
    </filter>
    <radialGradient
       inkscape:collect="always"
       xlink:href="#linearGradient2"
       id="radialGradient13"
       cx="33.635899"
       cy="46.490879"
       fx="33.635899"
       fy="46.490879"
       r="25.999146"
       gradientTransform="matrix(-4.5014038,-1.2061475,0.83502519,-3.1163567,145.37497,229.61213)"
       gradientUnits="userSpaceOnUse" />
    <linearGradient
       id="linearGradient2"
       inkscape:collect="always">
      <stop
         style="stop-color:#00acff;stop-opacity:1;"
         offset="0"
         id="stop1" />
      <stop
         style="stop-color:#0069ff;stop-opacity:1;"
         offset="1"
         id="stop2" />
    </linearGradient>
    <filter
       inkscape:collect="always"
       style="color-interpolation-filters:sRGB"
       id="filter1"
       x="-0.13869057"
       y="-0.16951237"
       width="1.2773811"
       height="1.3390247">
      <feGaussianBlur
         inkscape:collect="always"
         stdDeviation="2.3068038"
         id="feGaussianBlur1" />
    </filter>
    <filter
       inkscape:collect="always"
       style="color-interpolation-filters:sRGB"
       id="filter22"
       x="-0.128772"
       y="-0.1573888"
       width="1.257544"
       height="1.3147776">
      <feGaussianBlur
         inkscape:collect="always"
         stdDeviation="2.1235414"
         id="feGaussianBlur22" />
    </filter>
    <filter
       inkscape:collect="always"
       style="color-interpolation-filters:sRGB"
       id="filter21"
       x="-0.10117897"
       y="-0.11294887"
       width="1.2023579"
       height="1.2253762">
      <feGaussianBlur
         inkscape:collect="always"
         stdDeviation="2.1235414"
         id="feGaussianBlur21" />
    </filter>
    <radialGradient
       inkscape:collect="always"
       xlink:href="#linearGradient13"
       id="radialGradient15"
       cx="32.458069"
       cy="50.788879"
       fx="32.458069"
       fy="50.788879"
       r="27.999096"
       gradientTransform="matrix(1.1686474,-1.1686474,1.0517237,1.0517237,-59.640886,31.510781)"
       gradientUnits="userSpaceOnUse" />
    <linearGradient
       id="linearGradient13"
       inkscape:collect="always">
      <stop
         style="stop-color:#0082e5;stop-opacity:1;"
         offset="0"
         id="stop14" />
      <stop
         style="stop-color:#00c7e9;stop-opacity:1;"
         offset="1"
         id="stop15" />
    </linearGradient>
  </defs>
  <sodipodi:namedview
     id="namedview5"
     pagecolor="#ffffff"
     bordercolor="#000000"
     borderopacity="0.25"
     inkscape:showpageshadow="2"
     inkscape:pageopacity="0.0"
     inkscape:pagecheckerboard="0"
     inkscape:deskcolor="#d1d1d1"
     inkscape:zoom="12.671875"
     inkscape:cx="32.078915"
     inkscape:cy="31.960543"
     inkscape:window-width="1920"
     inkscape:window-height="1010"
     inkscape:window-x="0"
     inkscape:window-y="0"
     inkscape:window-maximized="1"
     inkscape:current-layer="svg5" />
  <g
     id="g1"
     transform="translate(0.12366569,0.19559886)">
    <path
       style="fill:url(#radialGradient15);stroke-width:0.917163"
       d="m 7.365145,23.349981 c -0.05274,0.0343 -0.100536,0.07484 -0.150483,0.112807 l -0.03008,0.02256 v 0.0037 c -0.597788,0.469389 -0.988083,1.191375 -0.988083,2.013841 l 2.8e-5,22.376212 c 3e-6,3.668532 2.892821,3.668532 3.668533,3.668532 h 44.022386 c 0,0 3.668532,0 3.668532,-3.668532 l -3.7e-5,-22.376212 c 0,-0.84103 -0.406987,-1.578496 -1.028179,-2.046307 l 0.01101,-0.01467 L 31.877061,5.3266662 c 0,0 -24.661708,18.1383228 -24.511299,18.0255158 z"
       id="path2-6" />
    <path
       style="fill:none;stroke:#000000;stroke-width:0.2;stroke-dasharray:none;stroke-opacity:1;filter:url(#filter21)"
       d="m 7.365145,23.24392 c -0.05274,0.0343 -0.100536,0.07484 -0.150483,0.112807 l -0.03008,0.02256 v 0.0037 c -0.597787,0.469389 -0.988083,1.191375 -0.988083,2.013841 l 2.8e-5,22.376212 c 4e-6,3.668532 2.892822,3.668532 3.668533,3.668532 h 44.022386 c 0,0 3.668532,0 3.668532,-3.668532 l -3.7e-5,-22.376212 c 0,-0.84103 -0.406987,-1.578496 -1.028179,-2.046307 l 0.01101,-0.01467 L 31.877061,5.220606 c 0,0 -24.661708,18.138322 -24.511299,18.025515 z"
       id="path2-6-3" />
    <rect
       style="fill:none;stroke:#000000;stroke-width:0.2;stroke-dasharray:none;stroke-opacity:1;filter:url(#filter22)"
       width="40.354263"
       height="33.016956"
       x="11.699475"
       y="10.720494"
       rx="2.7514896"
       ry="2.7496552"
       id="rect3-5-6" />
    <path
       id="rect3"
       style="fill:#ebebeb;stroke-width:0.915474"
       d="m 14.483054,10.758319 c -1.521516,0 -2.746423,1.224133 -2.746423,2.744635 V 40.97076 c 0,1.520502 1.224907,2.742847 2.746423,2.742847 h 34.786237 c 1.521516,0 2.746423,-1.222345 2.746423,-2.742847 V 13.502954 c 0,-1.520502 -1.224907,-2.744635 -2.746423,-2.744635 z m 17.394012,5.492846 v 0.0018 a 9.1544425,9.1544425 0 0 1 9.152956,9.154743 v 2.746423 c 0,1.521466 -1.224957,2.746423 -2.746423,2.746423 -1.122334,0 -2.078442,-0.671261 -2.505038,-1.632476 a 5.4926655,5.4926655 0 0 1 -3.901495,1.630645 5.4926655,5.4926655 0 0 1 -5.492846,-5.492846 5.4926655,5.4926655 0 0 1 5.492846,-5.492846 5.4926655,5.4926655 0 0 1 5.492846,5.492846 V 28.1523 c 0,0.507156 0.408319,0.915475 0.915475,0.915475 0.507155,0 0.915474,-0.408319 0.915474,-0.915475 v -2.746423 a 7.323554,7.323554 0 0 0 -7.323795,-7.323794 7.323554,7.323554 0 0 0 -7.323794,7.323794 7.323554,7.323554 0 0 0 7.323794,7.323795 h 6.408321 c 0.507155,0 0.915474,0.408319 0.915474,0.915474 0,0.507155 -0.408319,0.915475 -0.915474,0.915475 h -6.408321 a 9.1544425,9.1544425 0 0 1 -9.154743,-9.154744 9.1544425,9.1544425 0 0 1 9.154743,-9.154743 z m 0,5.492846 a 3.661777,3.661777 0 0 0 -3.661897,3.661897 3.661777,3.661777 0 0 0 3.661897,3.661898 3.661777,3.661777 0 0 0 3.661898,-3.661898 3.661777,3.661777 0 0 0 -3.661898,-3.661897 z" />
    <path
       id="rect3-7"
       style="fill:none;stroke:#000000;stroke-width:0.1;stroke-dasharray:none;stroke-opacity:1;filter:url(#filter1)"
       d="m 14.483054,10.758319 c -1.521516,0 -2.746423,1.224133 -2.746423,2.744635 V 40.97076 c 0,1.520502 1.224907,2.742847 2.746423,2.742847 h 34.786237 c 1.521516,0 2.746423,-1.222345 2.746423,-2.742847 V 13.502954 c 0,-1.520502 -1.224907,-2.744635 -2.746423,-2.744635 z m 17.394012,5.492846 v 0.0018 a 9.1544425,9.1544425 0 0 1 9.152956,9.154743 v 2.746423 c 0,1.521466 -1.224957,2.746423 -2.746423,2.746423 -1.122334,0 -2.078442,-0.671261 -2.505038,-1.632476 a 5.4926655,5.4926655 0 0 1 -3.901495,1.630645 5.4926655,5.4926655 0 0 1 -5.492846,-5.492846 5.4926655,5.4926655 0 0 1 5.492846,-5.492846 5.4926655,5.4926655 0 0 1 5.492846,5.492846 V 28.1523 c 0,0.507156 0.408319,0.915475 0.915475,0.915475 0.507155,0 0.915474,-0.408319 0.915474,-0.915475 v -2.746423 a 7.323554,7.323554 0 0 0 -7.323795,-7.323794 7.323554,7.323554 0 0 0 -7.323794,7.323794 7.323554,7.323554 0 0 0 7.323794,7.323795 h 6.408321 c 0.507155,0 0.915474,0.408319 0.915474,0.915474 0,0.507155 -0.408319,0.915475 -0.915474,0.915475 h -6.408321 a 9.1544425,9.1544425 0 0 1 -9.154743,-9.154744 9.1544425,9.1544425 0 0 1 9.154743,-9.154743 z m 0,5.492846 a 3.661777,3.661777 0 0 0 -3.661897,3.661897 3.661777,3.661777 0 0 0 3.661897,3.661898 3.661777,3.661777 0 0 0 3.661898,-3.661898 3.661777,3.661777 0 0 0 -3.661898,-3.661897 z" />
    <path
       style="fill:url(#radialGradient13);stroke-width:0.917163"
       d="m 6.196717,25.501575 47.69092,33.01679 H 9.86525 C 8.030984,58.518351 6.196717,57.61132 6.196717,54.890187 Z"
       id="path4-3" />
    <path
       style="fill:none;stroke:#000000;stroke-width:0.2;stroke-dasharray:none;stroke-opacity:1;filter:url(#filter23)"
       d="m 6.196718,25.395514 47.690919,33.01679 H 9.86525 C 8.030984,58.41229 6.196718,57.505259 6.196718,54.784126 Z"
       id="path4-3-0" />
    <path
       style="fill:url(#radialGradient11);stroke-width:0.917163"
       d="m 53.887637,58.518365 c 3.668531,0 3.668531,-3.628178 3.668531,-3.628178 V 25.501575 L 9.86525,58.518365 Z"
       id="path5-5-3" />
    <path
       style="fill:none;stroke:#000000;stroke-width:0.2;stroke-dasharray:none;stroke-opacity:1;filter:url(#filter24)"
       d="m 53.887637,58.412304 c 3.668531,0 3.668531,-3.628178 3.668531,-3.628178 V 25.395514 L 9.86525,58.412304 Z"
       id="path5-5-6" />
  </g>
</svg>
