<?xml version="1.0" encoding="UTF-8" standalone="no"?>
<svg
   width="64"
   height="64"
   version="1"
   id="svg13"
   sodipodi:docname="net.waterfox.waterfox.svg"
   xml:space="preserve"
   inkscape:version="1.4.3 (0d15f75042, 2025-12-25)"
   xmlns:inkscape="http://www.inkscape.org/namespaces/inkscape"
   xmlns:sodipodi="http://sodipodi.sourceforge.net/DTD/sodipodi-0.dtd"
   xmlns:xlink="http://www.w3.org/1999/xlink"
   xmlns="http://www.w3.org/2000/svg"
   xmlns:svg="http://www.w3.org/2000/svg"><defs
     id="defs13"><linearGradient
       id="linearGradient27"
       inkscape:collect="always"><stop
         style="stop-color:#bdeff4;stop-opacity:1;"
         offset="0"
         id="stop28" /><stop
         style="stop-color:#20ebff;stop-opacity:1;"
         offset="1"
         id="stop29" /></linearGradient><linearGradient
       id="linearGradient25"
       inkscape:collect="always"><stop
         style="stop-color:#00cbf5;stop-opacity:1;"
         offset="0"
         id="stop26" /><stop
         style="stop-color:#0056f5;stop-opacity:1;"
         offset="1"
         id="stop27" /></linearGradient><linearGradient
       id="linearGradient23"
       inkscape:collect="always"><stop
         style="stop-color:#7369e8;stop-opacity:1;"
         offset="0"
         id="stop24" /><stop
         style="stop-color:#3f73c8;stop-opacity:1;"
         offset="1"
         id="stop25" /></linearGradient><linearGradient
       id="linearGradient21"
       inkscape:collect="always"><stop
         style="stop-color:#9948be;stop-opacity:1;"
         offset="0"
         id="stop22" /><stop
         style="stop-color:#27d0fb;stop-opacity:1;"
         offset="1"
         id="stop23" /></linearGradient><linearGradient
       id="linearGradient19"
       inkscape:collect="always"><stop
         style="stop-color:#20a9ff;stop-opacity:1;"
         offset="0"
         id="stop20" /><stop
         style="stop-color:#20ebff;stop-opacity:1;"
         offset="1"
         id="stop21" /></linearGradient><linearGradient
       id="linearGradient18"
       inkscape:collect="always"><stop
         style="stop-color:#20a2ff;stop-opacity:1;"
         offset="0"
         id="stop18" /><stop
         style="stop-color:#20c1ff;stop-opacity:1;"
         offset="1"
         id="stop19" /></linearGradient><radialGradient
       inkscape:collect="always"
       xlink:href="#linearGradient18"
       id="radialGradient19"
       cx="9.9825153"
       cy="57.48394"
       fx="9.9825153"
       fy="57.48394"
       r="16.500226"
       gradientTransform="matrix(1.9115164,-1.1036145,1.303343,2.2574563,-81.790954,-60.761771)"
       gradientUnits="userSpaceOnUse" /><radialGradient
       inkscape:collect="always"
       xlink:href="#linearGradient19"
       id="radialGradient21"
       cx="5.6487174"
       cy="58.954208"
       fx="5.6487174"
       fy="58.954208"
       r="18.295349"
       gradientTransform="matrix(2.2605025,-1.3051017,1.4201727,2.4598112,-88.176962,-79.766148)"
       gradientUnits="userSpaceOnUse" /><radialGradient
       inkscape:collect="always"
       xlink:href="#linearGradient21"
       id="radialGradient23"
       cx="19.017092"
       cy="29.403622"
       fx="19.017092"
       fy="29.403622"
       r="11.831055"
       gradientTransform="matrix(0.854695,3.1897652,-3.2736128,0.87716192,92.745907,-61.29297)"
       gradientUnits="userSpaceOnUse" /><radialGradient
       inkscape:collect="always"
       xlink:href="#linearGradient23"
       id="radialGradient25"
       cx="59.394505"
       cy="27.328022"
       fx="59.394505"
       fy="27.328022"
       r="12.256309"
       gradientTransform="matrix(-3.088681,0.82760957,-0.88099714,-3.2879261,266.98095,51.203038)"
       gradientUnits="userSpaceOnUse" /><radialGradient
       inkscape:collect="always"
       xlink:href="#linearGradient25"
       id="radialGradient27"
       cx="-0.041290216"
       cy="22.737673"
       fx="-0.041290216"
       fy="22.737673"
       r="12.256309"
       gradientTransform="matrix(0,4.3698649,-6.7420832,0,156.5026,15.921446)"
       gradientUnits="userSpaceOnUse" /><radialGradient
       inkscape:collect="always"
       xlink:href="#linearGradient27"
       id="radialGradient29"
       cx="33.077782"
       cy="10.083735"
       fx="33.077782"
       fy="10.083735"
       r="5.9999174"
       gradientTransform="matrix(-0.79246009,0.79246009,-0.42861877,-0.42861877,64.145678,-8.5244947)"
       gradientUnits="userSpaceOnUse" /><radialGradient
       inkscape:collect="always"
       xlink:href="#linearGradient27"
       id="radialGradient31"
       cx="45"
       cy="9.0010004"
       fx="45"
       fy="9.0010004"
       r="3"
       gradientUnits="userSpaceOnUse"
       gradientTransform="matrix(1.4356631,0,0,1.4356631,-20.921263,-1.5924478)" /><radialGradient
       inkscape:collect="always"
       xlink:href="#linearGradient27"
       id="radialGradient32"
       cx="19.000179"
       cy="19.477104"
       fx="19.000179"
       fy="19.477104"
       r="2.9999571"
       gradientTransform="matrix(1.269749,0.34022823,-0.56704773,2.116251,7.2355735,-27.8504)"
       gradientUnits="userSpaceOnUse" /><filter
       inkscape:collect="always"
       style="color-interpolation-filters:sRGB"
       id="filter40"
       x="-0.092424069"
       y="-0.10647715"
       width="1.1848481"
       height="1.2128745"><feGaussianBlur
         inkscape:collect="always"
         stdDeviation="2.2652563"
         id="feGaussianBlur40" /></filter></defs><sodipodi:namedview
     id="namedview13"
     pagecolor="#ffffff"
     bordercolor="#000000"
     borderopacity="0.25"
     inkscape:showpageshadow="2"
     inkscape:pageopacity="0.0"
     inkscape:pagecheckerboard="0"
     inkscape:deskcolor="#d1d1d1"
     inkscape:zoom="9.4601295"
     inkscape:cx="36.680259"
     inkscape:cy="37.420206"
     inkscape:current-layer="svg13" /><path
     style="baseline-shift:baseline;display:inline;overflow:visible;opacity:1;vector-effect:none;fill:url(#radialGradient27);stroke-width:0.898737;stroke-linecap:round;stroke-linejoin:round;enable-background:accumulate;stop-color:#000000;stop-opacity:1"
     d="m 13.363502,21.694369 a 6.1195373,6.1195373 0 0 0 -4.6815051,0.142183 6.1195373,6.1195373 0 0 0 -3.0683431,8.09214 l 9.7913142,21.750481 a 6.1195373,6.1195373 0 0 0 8.09214,3.068343 6.1195373,6.1195373 0 0 0 3.068344,-8.09214 l -9.791314,-21.75048 a 6.1195373,6.1195373 0 0 0 -3.410636,-3.210527 z"
     id="path3" /><path
     style="baseline-shift:baseline;display:inline;overflow:visible;opacity:1;vector-effect:none;fill:url(#radialGradient25);stroke-width:0.898737;stroke-linecap:round;stroke-linejoin:round;enable-background:accumulate;stop-color:#000000;stop-opacity:1"
     d="m 50.636498,21.694369 a 6.1195373,6.1195373 0 0 0 -3.410636,3.210527 l -9.791314,21.75048 a 6.1195373,6.1195373 0 0 0 3.068343,8.09214 6.1195373,6.1195373 0 0 0 8.092141,-3.068343 l 9.791314,-21.750481 a 6.1195373,6.1195373 0 0 0 -3.068343,-8.09214 6.1195373,6.1195373 0 0 0 -4.681505,-0.142183 z"
     id="path4" /><path
     d="m 37.936577,27.702915 c -0.608118,1.013096 -1.214455,2.049271 -1.864177,3.087652 l -0.200109,0.312452 -5.036085,8.950503 6.859889,12.196138 c 2.46838,4.384209 8.877641,4.08227 10.923511,-0.514316 l 3.482605,-7.83586 c -1.735231,1.010043 -3.562658,1.567932 -5.197577,-0.17729 l -4.537567,-8.064055 0.01931,-0.0316 c -1.326766,-2.364679 -2.75785,-5.255872 -4.449804,-7.923627 z"
     style="fill:url(#radialGradient23);stroke-width:0.898737"
     id="path18" /><path
     style="fill:url(#radialGradient21);stroke:none;stroke-width:0.898737"
     d="m 36.00648,19.823968 c -4.00288,1.32387 -6.459071,3.383448 -8.266156,5.425381 -2.469586,3.229159 -4.399382,7.259975 -6.148222,10.376919 l 0.01912,0.03108 -4.537065,8.065359 c -1.634919,1.745221 -3.463984,1.186931 -5.199215,0.176887 l 3.482877,7.835876 c 2.045871,4.596585 8.45595,4.898155 10.92433,0.513946 l 10.92911,-19.42953 0.200797,-0.313149 c 2.184707,-3.491583 3.875746,-6.95591 6.810588,-9.611547 2.685183,-2.709758 -5.416355,-3.854259 -8.216169,-3.071221 z"
     id="path12" /><path
     d="m 33.455181,35.400103 -2.618975,4.653419 6.859889,12.196138 c 2.46838,4.384209 8.877641,4.08227 10.923511,-0.514316 l 1.355127,-3.05079 c -3.181013,1.709418 -6.487601,2.437326 -9.46482,-0.740756 z"
     style="opacity:0.559662;fill:#0095da;stroke-width:0.898737"
     id="path16" /><circle
     style="fill:url(#radialGradient31);stroke-width:0.898737"
     id="circle8"
     r="2.6962099"
     cy="11.329956"
     cx="43.683575" /><path
     style="fill:url(#radialGradient29);stroke-width:0.898737"
     d="m 33.598728,10.430973 c -0.788094,9.7e-4 -1.624595,0.235561 -2.468531,0.707723 -3.149856,1.762288 -4.702145,4.813846 -4.506015,8.858563 0.0495,1.022169 0.202879,2.119001 0.340597,2.437272 0.137721,0.318272 0.367602,0.578577 0.510628,0.578577 0.143024,0 0.750841,-0.554006 1.350971,-1.231117 0.816145,-0.920844 1.523631,-1.45681 2.806625,-2.126877 3.428764,-1.790723 3.741712,-1.994217 4.564921,-2.9659 1.552453,-1.832451 1.592738,-3.634645 0.113922,-5.109738 -0.766458,-0.764507 -1.699828,-1.149763 -2.713109,-1.148503 z"
     id="path9" /><path
     style="fill:url(#radialGradient32);stroke-width:0.898737"
     d="m 20.625939,17.621801 c -0.188856,-0.0053 -0.379654,0.0094 -0.568019,0.04629 -1.496344,0.295635 -2.667775,2.532661 -2.398902,4.581508 0.166703,1.270375 1.303886,3.214533 2.27466,3.888849 0.421455,0.292747 0.969332,0.502118 1.217777,0.46536 0.389113,-0.05761 0.473726,-0.29554 0.610838,-1.716272 0.08752,-0.907123 0.411535,-2.268793 0.71983,-3.025838 0.672789,-1.652047 0.694838,-2.189893 0.128463,-3.149906 -0.384884,-0.652368 -1.166301,-1.064746 -1.984655,-1.089966 z"
     id="path10" /><path
     id="path12-6"
     style="opacity:1;fill:url(#radialGradient19);fill-opacity:1;stroke-width:0.898737"
     d="m 43.100801,20.340999 c -3.259735,1.639363 -5.53812,3.682582 -7.335586,5.713648 -3.289293,4.300984 -5.859368,9.670063 -8.188684,13.821586 l 0.02458,0.04213 -6.043654,10.742712 c -2.031089,2.168121 -4.286381,1.665639 -6.456158,0.496762 l 0.25628,0.577509 c 2.045871,4.596586 8.456887,4.898525 10.925267,0.514316 l 10.928778,-19.429914 0.200109,-0.312451 c 2.184708,-3.491583 3.875897,-6.956633 6.810739,-9.612269 1.124741,-1.135035 0.356328,-1.994871 -1.121666,-2.554027 z" /><g
     id="g40"
     style="stroke:#000000;stroke-width:0.2;stroke-dasharray:none;stroke-opacity:1;filter:url(#filter40)"
     transform="matrix(0.89873665,0,0,0.89873665,48.270293,31.64987)"><path
       d="m -41.460937,-11.515625 a 6.8090439,6.8090439 0 0 0 -2.587891,0.597656 6.8090439,6.8090439 0 0 0 -3.414063,9.0039065 l 7.007813,15.5683595 c 1.918256,1.108377 3.938177,1.707103 5.744141,-0.220703 l 5.048828,-8.9726565 -0.02148,-0.035156 c 0.0014,-0.00253 0.0044,-0.00528 0.0059,-0.00781 v -0.00195 l -5.367188,-11.9199218 a 6.8090439,6.8090439 0 0 0 -3.794922,-3.5722657 6.8090439,6.8090439 0 0 0 -2.621093,-0.439453 z"
       style="baseline-shift:baseline;display:inline;overflow:visible;fill:none;stroke:#000000;stroke-width:0.2;stroke-linecap:round;stroke-linejoin:round;stroke-dasharray:none;stroke-opacity:1;enable-background:accumulate;stop-color:#000000"
       id="path40" /><path
       d="m 5.2539062,-11.515625 a 6.8090439,6.8090439 0 0 0 -2.6210937,0.439453 6.8090439,6.8090439 0 0 0 -3.7949219,3.5722658 l -5.3945312,11.9843749 5.0371094,8.9531253 c 1.81674774,1.939318 3.8469071,1.322229 5.7753906,0.201172 L 11.255859,-1.9140625 A 6.8090439,6.8090439 0 0 0 7.8417969,-10.917969 6.8090439,6.8090439 0 0 0 5.2539062,-11.515625 Z"
       style="baseline-shift:baseline;display:inline;overflow:visible;fill:none;stroke:#000000;stroke-width:0.2;stroke-linecap:round;stroke-linejoin:round;stroke-dasharray:none;stroke-opacity:1;enable-background:accumulate;stop-color:#000000"
       id="path39" /><path
       d="m -10.177734,-2.1992188 c -0.620364,1.0372807 -1.241488,2.09499095 -1.904297,3.15429693 l -0.222657,0.34765627 -2.896484,5.1503906 6.5664064,11.677734 c 3.3126716,3.536165 6.991823,2.726242 10.53125,0.824219 l 2.3671875,-5.324219 c -1.930744,1.123848 -3.9640732,1.744596 -5.7832031,-0.197265 l -5.0488282,-8.9726565 0.021484,-0.035156 C -7.6650453,2.4328748 -8.8506826,0.10328174 -10.177734,-2.1992188 Z"
       style="fill:none;stroke:#000000;stroke-width:0.2;stroke-dasharray:none;stroke-opacity:1"
       id="path38" /><path
       d="m -10.482422,-13.414063 c -1.236499,-0.04397 -2.385243,0.04 -3.164062,0.257813 -4.453896,1.473034 -7.186572,3.7631523 -9.197266,6.0351563 -2.747842,3.5929982 -4.893956,8.07873487 -6.839844,11.5468749 l 0.02148,0.035156 -5.048828,8.9726568 c -1.81913,1.941861 -3.854412,1.321113 -5.785157,0.197265 l 3.589844,8.076172 c 2.414252,1.300578 4.923656,1.859676 7.183594,-0.552734 l 6.724609,-11.9531254 -0.02734,-0.046875 c 2.591767,-4.6192879 5.45142,-10.593317 9.111328,-15.3789063 1.995036,-2.2543113 4.5240837,-4.5219763 8.1367193,-6.3437493 -1.3001165,-0.492158 -3.0663205,-0.787422 -4.7050783,-0.845704 z m 5.1503908,1.011719 c 0.034795,0.01595 0.073635,0.03057 0.1074218,0.04687 -0.033823,-0.01631 -0.072589,-0.03093 -0.1074218,-0.04687 z m 0.2851562,0.142578 c 0.1062896,0.05674 0.2111716,0.115035 0.3046875,0.175782 -0.093999,-0.06107 -0.1977739,-0.118763 -0.3046875,-0.175782 z m 0.5957031,0.386719 c 0.035259,0.0296 0.069413,0.05942 0.1015625,0.08984 -0.032216,-0.03047 -0.066226,-0.06019 -0.1015625,-0.08984 z m 0.15625,0.140625 c 0.038943,0.0396 0.07392,0.08016 0.1074219,0.121094 -0.033637,-0.04112 -0.068293,-0.08132 -0.1074219,-0.121094 z m 0.3125,0.457031 c 0.00767,0.01882 0.014943,0.03758 0.021484,0.05664 -0.00647,-0.01891 -0.013909,-0.03796 -0.021484,-0.05664 z m 0.021484,0.05664 c 0.010147,0.02956 0.01801,0.05971 0.025391,0.08984 -0.00735,-0.03017 -0.015267,-0.06024 -0.025391,-0.08984 z m 0.027344,0.09961 c 0.00695,0.02968 0.013373,0.05767 0.017578,0.08789 -0.00415,-0.02981 -0.010754,-0.05861 -0.017578,-0.08789 z m 0.017578,0.08789 c 0.00358,0.02573 0.00627,0.052 0.00781,0.07813 -0.00154,-0.02627 -0.00421,-0.05225 -0.00781,-0.07813 z m 0.00781,0.197266 c -0.00115,0.01927 -0.0036,0.03911 -0.00586,0.05859 0.0023,-0.01972 0.0047,-0.03908 0.00586,-0.05859 z m -0.1171875,0.439453 c -0.023784,0.05143 -0.052626,0.10358 -0.083984,0.15625 0.031374,-0.05272 0.060196,-0.104776 0.083984,-0.15625 z m -0.1152344,0.208984 c -0.032712,0.05114 -0.071298,0.103961 -0.1113281,0.15625 0.040263,-0.05257 0.078457,-0.10484 0.1113281,-0.15625 z"
       style="fill:none;stroke:#000000;stroke-width:0.2;stroke-dasharray:none;stroke-opacity:1"
       id="path37" /><path
       d="m -15.201172,6.453125 -2.914062,5.179688 6.349609,11.289062 c 2.7464996,4.878191 9.8779129,4.542231 12.15429688,-0.572266 L 1.8964844,18.955078 c -3.539427,1.902023 -7.2185784,2.711946 -10.53125,-0.824219 z"
       style="opacity:0.559662;fill:none;stroke:#000000;stroke-width:0.2;stroke-dasharray:none;stroke-opacity:1"
       id="path36" /><path
       d="m -5.1035156,-25.607422 a 3,3 0 0 0 -3,3 3,3 0 0 0 3,3 3,3 0 0 0 3,-3 3,3 0 0 0 -3,-3 z"
       style="fill:none;stroke:#000000;stroke-width:0.2;stroke-dasharray:none;stroke-opacity:1"
       id="path35" /><path
       d="m -16.324219,-23.609375 c -0.876891,0.0011 -1.80707,0.263701 -2.746093,0.789063 -3.50476,1.960851 -5.233854,5.355021 -5.015625,9.855468 0.05508,1.13734 0.227623,2.358759 0.380859,2.712891 0.153238,0.3541328 0.407264,0.642578 0.566406,0.642578 0.159138,0 0.836157,-0.615738 1.503906,-1.369141 0.908102,-1.024598 1.695495,-1.621622 3.123047,-2.367187 3.815093,-1.992489 4.164115,-2.217663 5.080078,-3.298828 1.727372,-2.038919 1.770438,-4.044251 0.125,-5.685547 -0.852818,-0.850646 -1.890127,-1.280699 -3.017578,-1.279297 z"
       style="fill:none;stroke:#000000;stroke-width:0.2;stroke-dasharray:none;stroke-opacity:1"
       id="path34" /><path
       d="m -30.759766,-15.607422 c -0.210135,-0.0059 -0.42127,0.0097 -0.630859,0.05078 -1.664941,0.328945 -2.96909,2.817961 -2.669922,5.097657 0.185485,1.4135125 1.451096,3.5778316 2.53125,4.3281246 0.468942,0.325732 1.079031,0.5584782 1.355469,0.5175782 0.432955,-0.0641 0.527126,-0.3293463 0.679687,-1.9101563 0.09738,-1.009332 0.457751,-2.5248445 0.800782,-3.3671875 0.748595,-1.838188 0.772769,-2.435725 0.142578,-3.503906 -0.42825,-0.725872 -1.298425,-1.184829 -2.208985,-1.212891 z"
       style="fill:none;stroke:#000000;stroke-width:0.2;stroke-dasharray:none;stroke-opacity:1"
       id="path33" /><path
       d="m -5.7519531,-12.582031 c -3.6270196,1.824075 -6.1621169,4.0975096 -8.1621099,6.3574216 -3.659908,4.7855893 -6.519561,10.7596184 -9.111328,15.3789063 l 0.02734,0.046875 -6.724609,11.9531251 c -2.259938,2.41241 -4.769342,1.853312 -7.183594,0.552734 l 0.285156,0.642578 c 2.276385,5.114497 9.40975,5.450457 12.15625,0.572266 l 12.160156,-21.6191406 0.222657,-0.34765627 c 2.4308643,-3.88499003 4.3126058,-7.74045753 7.5781248,-10.69531253 1.251469,-1.2629226 0.3964761,-2.2196386 -1.2480469,-2.8417966 z"
       style="fill:none;stroke:#000000;stroke-width:0.2;stroke-dasharray:none;stroke-opacity:1"
       id="path32" /></g></svg>
