<?xml version="1.0" encoding="UTF-8" standalone="no"?>
<svg
   width="64"
   height="64"
   version="1.1"
   id="svg10"
   sodipodi:docname="falkon.svg"
   inkscape:version="1.4.2 (ebf0e940d0, 2025-05-08)"
   xmlns:inkscape="http://www.inkscape.org/namespaces/inkscape"
   xmlns:sodipodi="http://sodipodi.sourceforge.net/DTD/sodipodi-0.dtd"
   xmlns:xlink="http://www.w3.org/1999/xlink"
   xmlns="http://www.w3.org/2000/svg"
   xmlns:svg="http://www.w3.org/2000/svg">
  <defs
     id="defs10">
    <linearGradient
       id="linearGradient13"
       inkscape:collect="always">
      <stop
         style="stop-color:#384edc;stop-opacity:1;"
         offset="0"
         id="stop14" />
      <stop
         style="stop-color:#ac67d9;stop-opacity:1;"
         offset="1"
         id="stop15" />
    </linearGradient>
    <linearGradient
       id="linearGradient11"
       inkscape:collect="always">
      <stop
         style="stop-color:#ffffff;stop-opacity:1;"
         offset="0"
         id="stop12" />
      <stop
         style="stop-color:#cdcdcd;stop-opacity:1;"
         offset="1"
         id="stop13" />
    </linearGradient>
    <linearGradient
       id="linearGradient10"
       inkscape:collect="always">
      <stop
         style="stop-color:#ffb039;stop-opacity:1;"
         offset="0"
         id="stop10" />
      <stop
         style="stop-color:#ff6c39;stop-opacity:1;"
         offset="1"
         id="stop11" />
    </linearGradient>
    <radialGradient
       inkscape:collect="always"
       xlink:href="#linearGradient10"
       id="radialGradient11"
       cx="11.608828"
       cy="52.370636"
       fx="11.608828"
       fy="52.370636"
       r="19.788283"
       gradientTransform="matrix(3.2249507,0,0,3.1915626,-37.440174,-103.29151)"
       gradientUnits="userSpaceOnUse" />
    <radialGradient
       inkscape:collect="always"
       xlink:href="#linearGradient11"
       id="radialGradient13"
       cx="15.355928"
       cy="50.978729"
       fx="15.355928"
       fy="50.978729"
       r="23.489258"
       gradientTransform="matrix(3.1414715,0,0,3.069131,-0.36687305,-134.42124)"
       gradientUnits="userSpaceOnUse" />
    <radialGradient
       inkscape:collect="always"
       xlink:href="#linearGradient13"
       id="radialGradient15"
       cx="54.610497"
       cy="54.652451"
       fx="54.610497"
       fy="54.652451"
       r="28"
       gradientUnits="userSpaceOnUse"
       gradientTransform="matrix(0,-2.294914,2.2949136,0,-61.41264,189.3958)" />
    <filter
       inkscape:collect="always"
       style="color-interpolation-filters:sRGB"
       id="filter15"
       x="-0.047978239"
       y="-0.043739051"
       width="1.0948828"
       height="1.0888518">
      <feGaussianBlur
         inkscape:collect="always"
         stdDeviation="0.77006947"
         id="feGaussianBlur15" />
    </filter>
    <filter
       inkscape:collect="always"
       style="color-interpolation-filters:sRGB"
       id="filter16"
       x="-0.06877038"
       y="-0.06877038"
       width="1.1375408"
       height="1.1375408">
      <feGaussianBlur
         inkscape:collect="always"
         stdDeviation="1.5629755"
         id="feGaussianBlur16" />
    </filter>
  </defs>
  <sodipodi:namedview
     id="namedview10"
     pagecolor="#ffffff"
     bordercolor="#000000"
     borderopacity="0.25"
     inkscape:showpageshadow="2"
     inkscape:pageopacity="0.0"
     inkscape:pagecheckerboard="0"
     inkscape:deskcolor="#d1d1d1"
     inkscape:zoom="11.593986"
     inkscape:cx="25.09922"
     inkscape:cy="43.988323"
     inkscape:current-layer="svg10" />
  <circle
     style="fill:url(#radialGradient15)"
     cx="32"
     cy="32"
     r="28"
     id="circle2" />
  <path
     id="circle2-6"
     style="fill:url(#radialGradient13)"
     d="m 28.474609,14.103516 c -3.460474,-0.01204 -7.393845,0.427349 -11.906658,2.295194 6.310584,0.341014 8.808687,1.375978 8.959393,2.032931 -10.704338,-1.83966 -15.159178,13.394404 -15.50586,20.18164 0,0 4.719357,-6.069773 5.978516,-6.509765 0.387976,-0.13558 0.485427,0.12626 0.953125,0 -1.243372,1.633554 -2.204728,3.294856 -3.021484,5.003906 -1.811798,4.19673 -1.944503,10.624685 -1.939453,14.480469 -0.0332,0.347671 -0.0547,1.064859 -0.0547,1.236342 0,0.231311 2.373118,0.924513 3.492202,1.746079 0.26278,-0.305452 0.527084,-0.611267 0.677734,-0.830078 -0.20062,0.329993 -0.367052,0.623111 -0.542969,0.927735 1.872484,1.354938 3.905528,2.472816 6.052735,3.328125 0.04791,0.0193 0.09456,0.04151 0.142578,0.06055 C 25.02146,59.339639 28.495042,59.998844 32,60 c 6.571464,4.9e-5 12.933586,-2.311251 17.972656,-6.529297 -1.710739,-1.657452 -8.334665,-8.414953 -8.171875,-14.021484 0.08494,-2.924964 1.742855,-5.55463 7.154297,-7.050781 2.581884,-0.304654 5.125346,-0.42186 8.044922,-0.294922 -0.486306,-3.768742 -3.938183,-7.715909 -9.712891,-8.931641 -0.990198,-0.471524 -6.84452,-9.026692 -18.8125,-9.068359 z"
     sodipodi:nodetypes="ccccccccscccccccscccc" />
  <g
     id="g16"
     style="stroke-width:0.2;stroke-dasharray:none;filter:url(#filter16)">
    <circle
       style="fill:none;stroke:#000000;stroke-opacity:1;stroke-width:0.2;stroke-dasharray:none"
       cx="32"
       cy="32"
       r="28"
       id="circle2-2" />
    <path
       id="circle2-6-9"
       style="fill:none;stroke:#000000;stroke-opacity:1;stroke-width:0.2;stroke-dasharray:none"
       d="m 28.474609,14.103516 c -3.460474,-0.01204 -7.393845,0.427349 -11.906658,2.295194 6.310584,0.341014 8.808687,1.375978 8.959393,2.032931 -10.704338,-1.83966 -15.159178,13.394404 -15.50586,20.18164 0,0 4.719357,-6.069773 5.978516,-6.509765 0.387976,-0.13558 0.485427,0.12626 0.953125,0 -1.243372,1.633554 -2.204728,3.294856 -3.021484,5.003906 -1.811798,4.19673 -1.944503,10.624685 -1.939453,14.480469 -0.0332,0.347671 -0.0547,1.064859 -0.0547,1.236342 0,0.231311 2.373118,0.924513 3.492202,1.746079 0.26278,-0.305452 0.527084,-0.611267 0.677734,-0.830078 -0.20062,0.329993 -0.367052,0.623111 -0.542969,0.927735 1.872484,1.354938 3.905528,2.472816 6.052735,3.328125 0.04791,0.0193 0.09456,0.04151 0.142578,0.06055 C 25.02146,59.339639 28.495042,59.998844 32,60 c 6.571464,4.9e-5 12.933586,-2.311251 17.972656,-6.529297 -1.710739,-1.657452 -8.334665,-8.414953 -8.171875,-14.021484 0.08494,-2.924964 1.742855,-5.55463 7.154297,-7.050781 2.581884,-0.304654 5.125346,-0.42186 8.044922,-0.294922 -0.486306,-3.768742 -3.938183,-7.715909 -9.712891,-8.931641 -0.990198,-0.471524 -6.84452,-9.026692 -18.8125,-9.068359 z"
       sodipodi:nodetypes="ccccccccscccccccscccc" />
  </g>
  <path
     id="path6"
     style="fill:url(#radialGradient11);fill-rule:evenodd"
     d="m 19.110174,16.075965 c -1.075862,0.04384 -2.006647,0.148376 -2.597657,0.341797 0,0 6.652562,0.388152 9.027344,2.021484 0.99154,-0.203984 1.833447,-0.883972 1.976563,-1.808594 -0.638138,-0.264097 -5.178666,-0.686197 -8.40625,-0.554687 z m 17.351563,11.365234 c 0,0 -24.166638,1.033696 -26.087891,7.496094 -0.5341348,1.55397 -0.332031,3.699219 -0.332031,3.699219 0,0 9.608203,-10.000387 26.419922,-11.195313 z m 9.386719,4.548828 c -7.004117,0.08952 -22.445502,2.537406 -33.908203,20.695313 -0.08474,3.425216 2.279297,6.763672 2.279297,6.763672 0,0 8.693264,-26.251129 35.361328,-27.257813 0,0 -1.397716,-0.231011 -3.732422,-0.201172 z" />
  <path
     id="path6-9"
     style="fill:none;fill-rule:evenodd;stroke:#ff6f00;stroke-opacity:1;stroke-linecap:butt;stroke-width:0.1;stroke-dasharray:none;filter:url(#filter15)"
     d="m 19.110174,16.075965 c -1.075862,0.04384 -2.006647,0.148376 -2.597657,0.341797 0,0 6.652562,0.388152 9.027344,2.021484 0.99154,-0.203984 1.833447,-0.883972 1.976563,-1.808594 -0.638138,-0.264097 -5.178666,-0.686197 -8.40625,-0.554687 z m 17.351563,11.365234 c 0,0 -24.166638,1.033696 -26.087891,7.496094 -0.5341349,1.55397 -0.332031,3.699219 -0.332031,3.699219 0,0 9.608203,-10.000387 26.419922,-11.195313 z m 9.386719,4.548828 c -7.004117,0.08952 -22.445502,2.537406 -33.908203,20.695313 -0.08474,3.425216 2.279297,6.763672 2.279297,6.763672 0,0 8.693264,-26.251129 35.361328,-27.257813 0,0 -1.397716,-0.231011 -3.732422,-0.201172 z" />
  <path
     id="path13"
     style="fill:#4a4a4a;fill-opacity:1;stroke:none;stroke-width:0.2;stroke-linecap:square;stroke-miterlimit:7.4"
     d="m 37.225105,19.996385 a 3.5724072,3.5724072 0 0 0 -1.332031,2.783203 3.5724072,3.5724072 0 0 0 3.572266,3.572266 3.5724072,3.5724072 0 0 0 3.564453,-3.345703 7.3337245,7.3337245 0 0 0 -5.804688,-3.009766 z" />
</svg>
