<?xml version="1.0" encoding="UTF-8" standalone="no"?>
<svg
   width="64"
   height="64"
   version="1"
   id="svg26"
   sodipodi:docname="fwupd.svg"
   inkscape:version="1.4.2 (ebf0e940d0, 2025-05-08)"
   xmlns:inkscape="http://www.inkscape.org/namespaces/inkscape"
   xmlns:sodipodi="http://sodipodi.sourceforge.net/DTD/sodipodi-0.dtd"
   xmlns:xlink="http://www.w3.org/1999/xlink"
   xmlns="http://www.w3.org/2000/svg"
   xmlns:svg="http://www.w3.org/2000/svg">
  <defs
     id="defs26">
    <filter
       inkscape:collect="always"
       style="color-interpolation-filters:sRGB"
       id="filter18"
       x="-0.10047804"
       y="-0.10047804"
       width="1.2009561"
       height="1.2009561">
      <feGaussianBlur
         inkscape:collect="always"
         stdDeviation="0.79565033"
         id="feGaussianBlur18" />
    </filter>
    <radialGradient
       inkscape:collect="always"
       xlink:href="#linearGradient13"
       id="radialGradient14"
       cx="25.774725"
       cy="38.097862"
       fx="25.774725"
       fy="38.097862"
       r="10"
       gradientUnits="userSpaceOnUse"
       gradientTransform="matrix(4.8141288,0,0,4.8141269,-116.72453,-183.24732)" />
    <linearGradient
       id="linearGradient13"
       inkscape:collect="always">
      <stop
         style="stop-color:#414141;stop-opacity:1;"
         offset="0"
         id="stop13" />
      <stop
         style="stop-color:#242424;stop-opacity:1;"
         offset="1"
         id="stop14" />
    </linearGradient>
    <radialGradient
       inkscape:collect="always"
       xlink:href="#linearGradient14"
       id="radialGradient16"
       cx="32"
       cy="32"
       fx="32"
       fy="32"
       r="25"
       gradientTransform="matrix(1.3788539,0,0,0.88246645,-18.705431,-46.625972)"
       gradientUnits="userSpaceOnUse" />
    <linearGradient
       id="linearGradient14"
       inkscape:collect="always">
      <stop
         style="stop-color:#fbd14e;stop-opacity:1;"
         offset="0"
         id="stop15" />
      <stop
         style="stop-color:#fba74e;stop-opacity:1;"
         offset="1"
         id="stop16" />
    </linearGradient>
    <inkscape:path-effect
       effect="fillet_chamfer"
       id="path-effect16"
       is_visible="true"
       lpeversion="1"
       nodesatellites_param="F,0,1,1,0,1.5115257,0,1 @ F,0,0,1,0,0,0,1 @ F,0,0,1,0,0,0,1 @ F,0,1,1,0,1.5115257,0,1 | F,0,0,1,0,0,0,1 @ F,0,0,1,0,0,0,1 @ F,0,0,1,0,0,0,1 @ F,0,0,1,0,0,0,1 @ F,0,0,1,0,0,0,1 @ F,0,0,1,0,0,0,1 @ F,0,0,1,0,0,0,1 @ F,0,0,1,0,0,0,1 @ F,0,0,1,0,0,0,1 @ F,0,0,1,0,0,0,1 | F,0,1,1,0,1.5115257,0,1 @ F,0,0,1,0,0,0,1 @ F,0,0,1,0,0,0,1 @ F,0,1,1,0,1.5115257,0,1 | F,0,1,1,0,1.5115257,0,1 @ F,0,0,1,0,0,0,1 @ F,0,0,1,0,0,0,1 @ F,0,1,1,0,1.5115257,0,1 | F,0,0,1,0,0,0,1 @ F,0,0,1,0,0,0,1 @ F,0,0,1,0,0,0,1 @ F,0,0,1,0,0,0,1 @ F,0,0,1,0,0,0,1 @ F,0,0,1,0,0,0,1 @ F,0,0,1,0,0,0,1 | F,0,0,1,0,0,0,1 @ F,0,0,1,0,0,0,1 @ F,0,0,1,0,0,0,1 @ F,0,0,1,0,0,0,1 | F,0,0,1,0,0,0,1 @ F,0,0,1,0,0,0,1 @ F,0,0,1,0,0,0,1 @ F,0,0,1,0,0,0,1 | F,0,0,1,0,0,0,1 @ F,0,0,1,0,0,0,1 @ F,0,0,1,0,0,0,1 @ F,0,0,1,0,0,0,1 @ F,0,0,1,0,0,0,1 @ F,0,0,1,0,0,0,1 @ F,0,0,1,0,0,0,1 | F,0,0,1,0,0,0,1 @ F,0,1,1,0,1.5115257,0,1 @ F,0,1,1,0,1.5115257,0,1 @ F,0,0,1,0,0,0,1 | F,0,0,1,0,0,0,1 @ F,0,0,1,0,0,0,1 @ F,0,0,1,0,0,0,1 @ F,0,0,1,0,0,0,1 @ F,0,0,1,0,0,0,1 @ F,0,0,1,0,0,0,1 @ F,0,0,1,0,0,0,1 @ F,0,0,1,0,0,0,1 @ F,0,0,1,0,0,0,1 @ F,0,0,1,0,0,0,1 | F,0,0,1,0,0,0,1 @ F,0,1,1,0,1.5115257,0,1 @ F,0,1,1,0,1.5115257,0,1 @ F,0,0,1,0,0,0,1 | F,0,0,1,0,0,0,1 @ F,0,0,1,0,1.5115257,0,1 @ F,0,1,1,0,1.5115257,0,1 @ F,0,0,1,0,0,0,1"
       radius="0"
       unit="px"
       method="auto"
       mode="F"
       chamfer_steps="1"
       flexible="false"
       use_knot_distance="true"
       apply_no_radius="true"
       apply_with_radius="true"
       only_selected="false"
       hide_knots="false" />
    <filter
       inkscape:collect="always"
       style="color-interpolation-filters:sRGB"
       id="filter19"
       x="-0.082600532"
       y="-0.082600532"
       width="1.1652011"
       height="1.1652011">
      <feGaussianBlur
         inkscape:collect="always"
         stdDeviation="0.78433863"
         id="feGaussianBlur19" />
    </filter>
    <filter
       inkscape:collect="always"
       style="color-interpolation-filters:sRGB"
       id="filter20"
       x="-0.070143747"
       y="-0.07553942"
       width="1.1402875"
       height="1.1510788">
      <feGaussianBlur
         inkscape:collect="always"
         stdDeviation="1.5950208"
         id="feGaussianBlur20" />
    </filter>
    <radialGradient
       inkscape:collect="always"
       xlink:href="#linearGradient16"
       id="radialGradient18"
       cx="-1.8181272"
       cy="64.815117"
       fx="-1.8181272"
       fy="64.815117"
       r="28"
       gradientTransform="matrix(3.6369614,-0.97452087,0.90491224,3.3771784,-60.43977,-208.57989)"
       gradientUnits="userSpaceOnUse" />
    <linearGradient
       id="linearGradient16"
       inkscape:collect="always">
      <stop
         style="stop-color:#4bae4f;stop-opacity:1;"
         offset="0"
         id="stop17" />
      <stop
         style="stop-color:#2aaa6a;stop-opacity:1;"
         offset="1"
         id="stop18" />
    </linearGradient>
  </defs>
  <sodipodi:namedview
     id="namedview26"
     pagecolor="#ffffff"
     bordercolor="#000000"
     borderopacity="0.25"
     inkscape:showpageshadow="2"
     inkscape:pageopacity="0.0"
     inkscape:pagecheckerboard="0"
     inkscape:deskcolor="#d1d1d1"
     inkscape:zoom="6.9543482"
     inkscape:cx="23.294778"
     inkscape:cy="35.229757"
     inkscape:current-layer="svg26" />
  <g
     id="g26"
     transform="translate(6.5821079,50.387047)">
    <rect
       style="fill:url(#radialGradient18)"
       width="56"
       height="52"
       x="-2.5821087"
       y="-44.387047"
       rx="11.647976"
       ry="11.647976"
       id="rect2-4" />
    <rect
       style="fill:none;stroke:#000000;stroke-width:0.2;stroke-dasharray:none;stroke-opacity:1;filter:url(#filter20)"
       width="56"
       height="52"
       x="-2.5821087"
       y="-44.387047"
       rx="11.647976"
       ry="11.647976"
       id="rect2-6" />
    <rect
       style="fill:#646464;fill-opacity:1"
       width="24"
       height="24"
       x="13.417891"
       y="-30.387047"
       rx="4.5340176"
       ry="4.5340176"
       id="rect4-0" />
    <rect
       style="fill:none;fill-opacity:1;stroke:#000000;stroke-width:0.2;stroke-dasharray:none;stroke-opacity:1;filter:url(#filter19)"
       width="24"
       height="24"
       x="13.417891"
       y="-30.387047"
       rx="4.5340176"
       ry="4.5340176"
       id="rect4-2" />
    <path
       style="opacity:0.252905;fill:#000000;fill-opacity:1"
       d="M 25,11.511526 V 24 h 3 V 11.511526 A 1.5115257,1.5115257 45 0 0 26.488474,10 1.5000443,1.5000443 134.55976 0 0 25,11.511526 Z M 25,24 H 14 V 18.5 C 14,17 12.5,17 12.5,17 h -4 v 3 H 11 v 5.5 c 0,0 0.1,1.5 1.5,1.5 H 25 Z M 31,11.511526 V 24 h 3 V 11.511526 A 1.5115257,1.5115257 45 0 0 32.488474,10 1.5000443,1.5000443 134.55976 0 0 31,11.511526 Z m 6,0 V 24 h 3 V 11.511526 A 1.5115257,1.5115257 45 0 0 38.488474,10 1.5000443,1.5000443 134.55976 0 0 37,11.511526 Z M 54,17.5 V 25 H 41 v 3 H 55.5 C 57,28 57,26.5 57,26.5 v -9 z M 8.5,30 v 3 H 25 V 30 Z M 41,31 v 3 H 55.5 V 31 Z M 8.5,36 C 7,36 7,37.5 7,37.5 v 9 h 3 V 39 H 24 V 36 Z M 24,39 V 52.488474 A 1.5115257,1.5115257 45 0 0 25.511526,54 1.5000443,1.5000443 134.55976 0 0 27,52.488474 V 39 Z m 17,-2 v 3 h 9 v 5.5 c 0,1.5 1.5,1.5 1.5,1.5 h 4 V 44 H 53 V 38.5 C 53,38.5 52.9,37 51.5,37 Z M 30,39 V 52.488474 A 1.5115257,1.5115257 45 0 0 31.511526,54 1.5000443,1.5000443 134.55976 0 0 33,52.488474 V 39 Z m 6,0 V 52.488474 A 1.5115257,1.5115257 45 0 0 37.511526,54 1.5000443,1.5000443 134.55976 0 0 39,52.488474 V 39 Z"
       id="path5"
       inkscape:path-effect="#path-effect16"
       inkscape:original-d="m 25,10 v 14 h 3 V 10 Z m 0,14 H 14 V 18.5 C 14,17 12.5,17 12.5,17 h -4 v 3 H 11 v 5.5 c 0,0 0.1,1.5 1.5,1.5 H 25 Z m 6,-14 v 14 h 3 V 10 Z m 6,0 v 14 h 3 V 10 Z m 17,7.5 V 25 H 41 v 3 H 55.5 C 57,28 57,26.5 57,26.5 v -9 z M 8.5,30 v 3 H 25 V 30 Z M 41,31 v 3 H 55.5 V 31 Z M 8.5,36 C 7,36 7,37.5 7,37.5 v 9 h 3 V 39 H 24 V 36 Z M 24,39 v 15 h 3 V 39 Z m 17,-2 v 3 h 9 v 5.5 c 0,1.5 1.5,1.5 1.5,1.5 h 4 V 44 H 53 v -5.5 c 0,0 -0.1,-1.5 -1.5,-1.5 z m -11,2 v 15 h 3 V 39 Z m 6,0 v 15 h 3 V 39 Z"
       transform="matrix(0.93535449,0,0,0.93535449,-4.5134529,-48.31839)" />
    <path
       id="path6"
       style="fill:url(#radialGradient16);stroke-width:0.935355"
       d="m 47.398721,-33.352718 a 1.4030318,1.4030318 0 0 0 -1.403031,1.403032 1.4030318,1.4030318 0 0 0 1.403031,1.403031 1.4030318,1.4030318 0 0 0 1.403033,-1.403031 1.4030318,1.4030318 0 0 0 -1.403033,-1.403032 z m -43.9616598,0.935354 a 1.4030318,1.4030318 0 0 0 -1.403033,1.403033 1.4030318,1.4030318 0 0 0 1.403033,1.403031 1.4030318,1.4030318 0 0 0 1.403031,-1.403031 1.4030318,1.4030318 0 0 0 -1.403031,-1.403033 z m 15.4333478,0.935355 v 5.612127 h -6.547481 v 2.806063 h 5.612127 v 2.806064 h -5.612127 v 2.806064 h 5.612127 v 2.806063 h -5.612127 v 2.806064 h 5.612127 v 6.5474811 h 2.806063 V -10.90421 h 2.806064 v 5.6121271 h 2.806064 V -10.90421 h 2.806063 v 5.6121271 h 2.806064 V -10.90421 h 6.547481 v -2.806063 h -5.612127 v -2.806064 h 5.612127 V -19.3224 h -5.612127 v -2.806064 h 5.612127 v -2.806064 h -5.612127 v -6.547481 h -2.806063 v 5.612127 H 27.2886 v -5.612127 h -2.806064 v 5.612127 h -2.806063 v -5.612127 z M 3.4370612,-20.257755 a 1.4030318,1.4030318 0 0 0 -1.403033,1.403032 1.4030318,1.4030318 0 0 0 1.403033,1.403032 1.4030318,1.4030318 0 0 0 1.403031,-1.403032 1.4030318,1.4030318 0 0 0 -1.403031,-1.403032 z M 47.398721,-19.3224 a 1.4030318,1.4030318 0 0 0 -1.403031,1.403031 1.4030318,1.4030318 0 0 0 1.403031,1.403032 1.4030318,1.4030318 0 0 0 1.403033,-1.403032 1.4030318,1.4030318 0 0 0 -1.403033,-1.403031 z m 0,12.1596081 a 1.4030318,1.4030318 0 0 0 -1.403031,1.403031 1.4030318,1.4030318 0 0 0 1.403031,1.403033 1.4030318,1.4030318 0 0 0 1.403033,-1.403033 1.4030318,1.4030318 0 0 0 -1.403033,-1.403031 z m -43.9616598,0.935355 a 1.4030318,1.4030318 0 0 0 -1.403033,1.403031 1.4030318,1.4030318 0 0 0 1.403033,1.403032 1.4030318,1.4030318 0 0 0 1.403031,-1.403032 1.4030318,1.4030318 0 0 0 -1.403031,-1.403031 z" />
    <rect
       style="fill:url(#radialGradient14)"
       width="20"
       height="20"
       x="15.417891"
       y="-28.387047"
       id="rect7-94"
       rx="2.7193949"
       ry="2.7193949" />
    <rect
       style="fill:none;stroke:#000000;stroke-width:0.2;stroke-dasharray:none;stroke-opacity:1;filter:url(#filter18)"
       width="20"
       height="20"
       x="15.417891"
       y="-28.387047"
       id="rect7-9"
       rx="2.7193949"
       ry="2.7193949" />
  </g>
  <path
     style="fill:#191919;fill-opacity:1;stroke-width:0.897594"
     d="m 24.819102,33.346389 c 0,3.965928 3.215,7.180748 7.180748,7.180748 3.925534,0 7.109299,-2.882352 7.173747,-6.792628 0.0043,-0.03959 0.0067,-0.07937 0.0073,-0.119204 0,-0.660974 -0.685595,-1.166511 -1.346569,-1.166511 -0.660974,0 -1.346391,0.505537 -1.346391,1.166511 0,2.643772 -1.843908,4.219049 -4.487859,4.219049 -2.643772,0 -4.488075,-1.844016 -4.488075,-4.487968 0,-2.643771 1.844123,-4.487967 4.488075,-4.487967 V 31.5512 l 5.385371,-4.039168 -5.384735,-4.039169 v 2.691523 c -3.965927,0 -7.180748,3.215 -7.180748,7.180748 z"
     id="path25"
     inkscape:transform-center-y="-1.1503594" />
</svg>
