<?xml version="1.0" encoding="UTF-8" standalone="no"?>
<svg
   width="64"
   height="64"
   version="1.1"
   id="svg10"
   sodipodi:docname="preferences-desktop-animations.svg"
   inkscape:version="1.4.2 (ebf0e940d0, 2025-05-08)"
   xmlns:inkscape="http://www.inkscape.org/namespaces/inkscape"
   xmlns:sodipodi="http://sodipodi.sourceforge.net/DTD/sodipodi-0.dtd"
   xmlns:xlink="http://www.w3.org/1999/xlink"
   xmlns="http://www.w3.org/2000/svg"
   xmlns:svg="http://www.w3.org/2000/svg">
  <defs
     id="defs10">
    <radialGradient
       inkscape:collect="always"
       xlink:href="#linearGradient3"
       id="radialGradient4"
       cx="18.851364"
       cy="50.0331"
       fx="18.851364"
       fy="50.0331"
       r="29.000237"
       gradientTransform="matrix(1.3527027,-0.78098328,0.75405336,1.3060588,-43.867366,-1.8854124)"
       gradientUnits="userSpaceOnUse" />
    <linearGradient
       id="linearGradient3"
       inkscape:collect="always">
      <stop
         style="stop-color:#ffbc2c;stop-opacity:1;"
         offset="0"
         id="stop3" />
      <stop
         style="stop-color:#ff612c;stop-opacity:1;"
         offset="1"
         id="stop4" />
    </linearGradient>
    <filter
       inkscape:collect="always"
       style="color-interpolation-filters:sRGB"
       id="filter4"
       x="-0.073409183"
       y="-0.075880437"
       width="1.1468184"
       height="1.151719">
      <feGaussianBlur
         inkscape:collect="always"
         stdDeviation="1.6872175"
         id="feGaussianBlur4" />
    </filter>
  </defs>
  <sodipodi:namedview
     id="namedview10"
     pagecolor="#ffffff"
     bordercolor="#000000"
     borderopacity="0.25"
     inkscape:showpageshadow="2"
     inkscape:pageopacity="0.0"
     inkscape:pagecheckerboard="0"
     inkscape:deskcolor="#d1d1d1"
     inkscape:zoom="19.09375"
     inkscape:cx="32"
     inkscape:cy="32"
     inkscape:current-layer="svg10" />
  <g
     id="g11">
    <path
       style="fill:url(#radialGradient4);stroke-width:0.961274"
       d="m 31.999999,5.0854459 c -2.513153,0.035921 -4.305078,1.5493719 -5.146198,4.0553762 L 26.883841,9.0281728 22.935482,20.465836 H 9.6203307 c -0.029032,-4.65e-4 -0.057332,-4.65e-4 -0.086365,0 -1.590193,0.05154 -3.0244938,0.985514 -4.0347239,2.215438 -2.184827,2.507959 -1.7211307,7.030766 1.0532714,8.901174 l 10.4688788,7.652646 -4.062887,12.622358 c -0.0046,0.01398 -0.0089,0.02727 -0.01314,0.0413 -0.620801,2.039363 -0.03702,4.140747 1.524521,5.57802 0.01135,0.01061 0.02599,0.02154 0.03755,0.03192 1.876488,1.66817 4.51216,1.880185 6.631291,0.499413 0.04032,-0.02609 0.08131,-0.05444 0.12016,-0.08261 l 10.741112,-7.660154 10.741114,7.660156 c 0.03885,0.02818 0.07984,0.05654 0.12016,0.08261 2.119134,1.380771 4.754801,1.168757 6.631291,-0.499413 0.01154,-0.01038 0.02619,-0.0213 0.03755,-0.03192 1.561545,-1.437273 2.145323,-3.538657 1.524521,-5.57802 -0.0042,-0.01403 -0.0085,-0.02733 -0.01314,-0.0413 l -4.062889,-12.62236 10.468879,-7.652646 c 2.774402,-1.870408 3.238097,-6.393214 1.053271,-8.901174 -1.01023,-1.229924 -2.44453,-2.163894 -4.034723,-2.215438 -0.02903,-4.65e-4 -0.05734,-4.65e-4 -0.08637,0 H 41.064516 L 37.116157,9.0281728 37.146197,9.1408221 C 36.305077,6.6348178 34.513151,5.1213668 31.999999,5.0854459 Z"
       id="path2" />
    <path
       style="fill:none;fill-opacity:1;stroke:#000000;stroke-width:0.4;stroke-dasharray:none;stroke-opacity:1;filter:url(#filter4)"
       d="m 31.999998,3.9997502 c -2.614397,0.037368 -4.478511,1.6117895 -5.353516,4.21875 L 26.677732,8.1013127 22.57031,19.99975 H 8.7187482 c -0.0302,-4.84e-4 -0.05964,-4.84e-4 -0.08984,0 -1.654255,0.05362 -3.146337,1.025216 -4.1972654,2.304688 -2.2728444,2.608994 -1.7904677,7.314006 1.0957034,9.259765 L 16.417971,39.525141 12.191408,52.656 c -0.0047,0.01454 -0.0093,0.02837 -0.01367,0.04297 -0.64581,2.12152 -0.03852,4.30756 1.585938,5.802734 0.01181,0.01104 0.02704,0.0224 0.03906,0.0332 1.952084,1.735374 4.693936,1.95593 6.898438,0.519532 0.04194,-0.02714 0.08458,-0.05664 0.125,-0.08594 L 31.999998,50.99975 43.173826,58.9685 c 0.04042,0.02932 0.08306,0.05882 0.125,0.08594 2.204505,1.436397 4.946352,1.215842 6.898438,-0.519532 0.012,-0.0108 0.02724,-0.02216 0.03906,-0.0332 1.624453,-1.495174 2.231749,-3.681214 1.585938,-5.802734 -0.0044,-0.0146 -0.0089,-0.02843 -0.01367,-0.04297 L 47.582029,39.525141 58.472654,31.564203 c 2.886171,-1.945759 3.368547,-6.65077 1.095703,-9.259765 -1.050928,-1.279472 -2.543009,-2.251068 -4.197265,-2.304688 -0.0302,-4.84e-4 -0.05964,-4.84e-4 -0.08984,0 H 41.429686 l -4.107422,-11.8984373 0.03125,0.1171875 c -0.875005,-2.6069605 -2.73912,-4.181382 -5.353516,-4.21875 z"
       id="path2-3"
       transform="matrix(0.96127436,0,0,0.96127436,1.2392198,1.2403484)" />
  </g>
</svg>
