<?xml version="1.0" encoding="UTF-8" standalone="no"?>
<svg
   width="64"
   height="64"
   version="1"
   id="svg4"
   sodipodi:docname="proton-pass.svg"
   inkscape:version="1.4.3 (0d15f75042, 2025-12-25)"
   xmlns:inkscape="http://www.inkscape.org/namespaces/inkscape"
   xmlns:sodipodi="http://sodipodi.sourceforge.net/DTD/sodipodi-0.dtd"
   xmlns:xlink="http://www.w3.org/1999/xlink"
   xmlns="http://www.w3.org/2000/svg"
   xmlns:svg="http://www.w3.org/2000/svg">
  <defs
     id="defs4">
    <linearGradient
       id="linearGradient4"
       inkscape:collect="always">
      <stop
         style="stop-color:#d98bff;stop-opacity:1;"
         offset="0"
         id="stop4" />
      <stop
         style="stop-color:#8b8cff;stop-opacity:1;"
         offset="1"
         id="stop5" />
    </linearGradient>
    <radialGradient
       inkscape:collect="always"
       xlink:href="#linearGradient4"
       id="radialGradient5"
       cx="48.140221"
       cy="6.9939399"
       fx="48.140221"
       fy="6.9939399"
       r="23.481226"
       gradientUnits="userSpaceOnUse"
       gradientTransform="matrix(1.846534,-0.49477729,0.49477733,1.8465341,-38.309753,22.391063)" />
    <filter
       inkscape:collect="always"
       style="color-interpolation-filters:sRGB"
       id="filter5"
       x="-0.069973793"
       y="-0.069973793"
       width="1.1399476"
       height="1.1399476">
      <feGaussianBlur
         inkscape:collect="always"
         stdDeviation="1.5913996"
         id="feGaussianBlur5" />
    </filter>
  </defs>
  <sodipodi:namedview
     id="namedview4"
     pagecolor="#ffffff"
     bordercolor="#000000"
     borderopacity="0.25"
     inkscape:showpageshadow="2"
     inkscape:pageopacity="0.0"
     inkscape:pagecheckerboard="0"
     inkscape:deskcolor="#d1d1d1"
     inkscape:zoom="7.4438428"
     inkscape:cx="26.330486"
     inkscape:cy="23.710872"
     inkscape:current-layer="svg4" />
  <g
     id="g5">
    <rect
       transform="rotate(45)"
       x="21.773609"
       y="-23.481226"
       width="46.962452"
       height="46.962452"
       ry="12.599607"
       style="fill:url(#radialGradient5)"
       id="rect2" />
    <path
       d="m 25.519532,10 c -2.52191,-2e-7 -5.21198,0.80433 -7.13672,2.410156 L 7.703125,23.089844 c -4.935734,4.935734 -4.935734,12.884578 0,17.820312 l 10.699219,10.69922 C 22.398864,54.961732 29.302792,54.787052 33,51.089844 L 45.089844,39 c 3.878068,-3.878068 3.878068,-10.121936 0,-14 L 33,12.910156 C 31.060966,10.971122 28.290754,10 25.519532,10 Z"
       style="fill:#4d16c8;opacity:0.52411667;fill-opacity:1"
       id="path4" />
  </g>
  <g
     id="g5-3"
     style="fill:none;stroke:#000000;stroke-opacity:1;stroke-width:0.2;stroke-dasharray:none;filter:url(#filter5)">
    <rect
       transform="rotate(45)"
       x="21.773609"
       y="-23.481226"
       width="46.962452"
       height="46.962452"
       ry="12.599607"
       style="fill:none;stroke:#000000;stroke-opacity:1;stroke-width:0.2;stroke-dasharray:none"
       id="rect2-5" />
    <path
       d="m 25.519532,10 c -2.52191,-2e-7 -5.21198,0.80433 -7.13672,2.410156 L 7.703125,23.089844 c -4.935734,4.935734 -4.935734,12.884578 0,17.820312 l 10.699219,10.69922 C 22.398864,54.961732 29.302792,54.787052 33,51.089844 L 45.089844,39 c 3.878068,-3.878068 3.878068,-10.121936 0,-14 L 33,12.910156 C 31.060966,10.971122 28.290754,10 25.519532,10 Z"
       style="opacity:1;fill:none;fill-opacity:1;stroke:#000000;stroke-opacity:1;stroke-width:0.2;stroke-dasharray:none"
       id="path4-6" />
  </g>
</svg>
