<?xml version="1.0" encoding="UTF-8" standalone="no"?>
<svg
   width="64"
   height="64"
   version="1.1"
   id="svg7"
   sodipodi:docname="io.qt.QtCreator.svg"
   inkscape:version="1.4.2 (ebf0e940d0, 2025-05-08)"
   xmlns:inkscape="http://www.inkscape.org/namespaces/inkscape"
   xmlns:sodipodi="http://sodipodi.sourceforge.net/DTD/sodipodi-0.dtd"
   xmlns:xlink="http://www.w3.org/1999/xlink"
   xmlns="http://www.w3.org/2000/svg"
   xmlns:svg="http://www.w3.org/2000/svg">
  <defs
     id="defs7">
    <radialGradient
       inkscape:collect="always"
       xlink:href="#linearGradient6"
       id="radialGradient7"
       cx="34.988251"
       cy="58.377243"
       fx="34.988251"
       fy="58.377243"
       r="30"
       gradientTransform="matrix(-5.0453484e-8,-2.1573604,2.1108489,0,-59.255975,139.88037)"
       gradientUnits="userSpaceOnUse" />
    <linearGradient
       id="linearGradient6"
       inkscape:collect="always">
      <stop
         style="stop-color:#00ab60;stop-opacity:1;"
         offset="0"
         id="stop6" />
      <stop
         style="stop-color:#00f06d;stop-opacity:1;"
         offset="1"
         id="stop7" />
    </linearGradient>
    <inkscape:path-effect
       effect="fillet_chamfer"
       id="path-effect1"
       is_visible="true"
       lpeversion="1"
       nodesatellites_param="F,0,1,1,0,5.769553,0,1 @ F,0,0,1,0,0,0,1 @ F,0,0,1,0,0,0,1 @ F,0,1,1,0,5.769553,0,1 @ F,0,1,1,0,5.769553,0,1 @ F,0,0,1,0,0,0,1 @ F,0,0,1,0,0,0,1 @ F,0,1,1,0,5.769553,0,1"
       radius="0"
       unit="px"
       method="auto"
       mode="F"
       chamfer_steps="1"
       flexible="false"
       use_knot_distance="true"
       apply_no_radius="true"
       apply_with_radius="true"
       only_selected="false"
       hide_knots="false" />
    <filter
       inkscape:collect="always"
       style="color-interpolation-filters:sRGB"
       id="filter3"
       x="-0.081923944"
       y="-0.10240493"
       width="1.1638479"
       height="1.2048099">
      <feGaussianBlur
         inkscape:collect="always"
         stdDeviation="1.9999386"
         id="feGaussianBlur3" />
    </filter>
    <inkscape:path-effect
       effect="fillet_chamfer"
       id="path-effect1-6"
       is_visible="true"
       lpeversion="1"
       nodesatellites_param="F,0,1,1,0,5.769553,0,1 @ F,0,0,1,0,0,0,1 @ F,0,0,1,0,0,0,1 @ F,0,1,1,0,5.769553,0,1 @ F,0,1,1,0,5.769553,0,1 @ F,0,0,1,0,0,0,1 @ F,0,0,1,0,0,0,1 @ F,0,1,1,0,5.769553,0,1"
       radius="0"
       unit="px"
       method="auto"
       mode="F"
       chamfer_steps="1"
       flexible="false"
       use_knot_distance="true"
       apply_no_radius="true"
       apply_with_radius="true"
       only_selected="false"
       hide_knots="false" />
    <inkscape:path-effect
       effect="fillet_chamfer"
       id="path-effect2"
       is_visible="true"
       lpeversion="1"
       nodesatellites_param="F,0,0,1,0,2.1209971,0,1 @ F,0,0,1,0,0,0,1 @ F,0,0,1,0,1.5063553,0,1 @ F,0,0,1,0,1.5063553,0,1 @ F,0,0,1,0,0,0,1 @ F,0,0,1,0,0,0,1 @ F,0,0,1,0,0,0,1 @ F,0,0,1,0,2.1209971,0,1 @ F,0,0,1,0,2.1209971,0,1 @ F,0,0,1,0,0,0,1 @ F,0,0,1,0,0,0,1 @ F,0,0,1,0,0,0,1 @ F,0,0,1,0,1.5063553,0,1 @ F,0,0,1,0,1.5063553,0,1 @ F,0,0,1,0,0,0,1 @ F,0,0,1,0,2.1209971,0,1 | F,0,0,1,0,0,0,1 @ F,0,0,1,0,0,0,1 @ F,0,0,1,0,0,0,1 @ F,0,0,1,0,0,0,1 @ F,0,1,1,0,2.1521162,0,1 @ F,0,0,1,0,2.1521162,0,1 @ F,0,0,1,0,0,0,1 @ F,0,0,1,0,0,0,1 @ F,0,0,1,0,0,0,1 | F,0,0,1,0,0,0,1 @ F,0,0,1,0,0,0,1 @ F,0,0,1,0,0,0,1 @ F,0,0,1,0,0,0,1"
       radius="0"
       unit="px"
       method="auto"
       mode="F"
       chamfer_steps="1"
       flexible="false"
       use_knot_distance="true"
       apply_no_radius="true"
       apply_with_radius="true"
       only_selected="false"
       hide_knots="false" />
    <filter
       inkscape:collect="always"
       style="color-interpolation-filters:sRGB"
       id="filter2"
       x="-0.078386214"
       y="-0.090823238"
       width="1.1567724"
       height="1.1816517">
      <feGaussianBlur
         inkscape:collect="always"
         stdDeviation="1.1341266"
         id="feGaussianBlur2" />
    </filter>
    <inkscape:path-effect
       effect="fillet_chamfer"
       id="path-effect2-3"
       is_visible="true"
       lpeversion="1"
       nodesatellites_param="F,0,0,1,0,2.1209971,0,1 @ F,0,0,1,0,0,0,1 @ F,0,0,1,0,1.5063553,0,1 @ F,0,0,1,0,1.5063553,0,1 @ F,0,0,1,0,0,0,1 @ F,0,0,1,0,0,0,1 @ F,0,0,1,0,0,0,1 @ F,0,0,1,0,2.1209971,0,1 @ F,0,0,1,0,2.1209971,0,1 @ F,0,0,1,0,0,0,1 @ F,0,0,1,0,0,0,1 @ F,0,0,1,0,0,0,1 @ F,0,0,1,0,1.5063553,0,1 @ F,0,0,1,0,1.5063553,0,1 @ F,0,0,1,0,0,0,1 @ F,0,0,1,0,2.1209971,0,1 | F,0,0,1,0,0,0,1 @ F,0,0,1,0,0,0,1 @ F,0,0,1,0,0,0,1 @ F,0,0,1,0,0,0,1 @ F,0,1,1,0,2.1521162,0,1 @ F,0,0,1,0,2.1521162,0,1 @ F,0,0,1,0,0,0,1 @ F,0,0,1,0,0,0,1 @ F,0,0,1,0,0,0,1 | F,0,0,1,0,0,0,1 @ F,0,0,1,0,0,0,1 @ F,0,0,1,0,0,0,1 @ F,0,0,1,0,0,0,1"
       radius="0"
       unit="px"
       method="auto"
       mode="F"
       chamfer_steps="1"
       flexible="false"
       use_knot_distance="true"
       apply_no_radius="true"
       apply_with_radius="true"
       only_selected="false"
       hide_knots="false" />
  </defs>
  <sodipodi:namedview
     id="namedview7"
     pagecolor="#ffffff"
     bordercolor="#000000"
     borderopacity="0.25"
     inkscape:showpageshadow="2"
     inkscape:pageopacity="0.0"
     inkscape:pagecheckerboard="0"
     inkscape:deskcolor="#d1d1d1"
     inkscape:zoom="19.5"
     inkscape:cx="17.948718"
     inkscape:cy="34.461538"
     inkscape:current-layer="svg7" />
  <g
     id="g3">
    <path
       style="fill:url(#radialGradient7)"
       d="m 15.951371,8.0000002 h 43.191487 c 0,0 2.857142,0 2.857142,2.8235288 v 30.93633 a 14.277802,14.277802 112.00327 0 1 -4.008341,9.919365 l -0.165136,0.170964 A 13.594369,13.594369 157.00327 0 1 48.048629,56 H 4.857143 C 4.857143,56 2,56 2,53.17647 V 22.240141 A 14.277802,14.277802 112.00327 0 1 6.0083414,12.320776 L 6.1734766,12.149812 A 13.59437,13.59437 157.00327 0 1 15.951371,8.0000002 Z"
       id="path2"
       inkscape:path-effect="#path-effect1"
       inkscape:original-d="m 10.181818,8.0000002 h 48.96104 c 0,0 2.857142,0 2.857142,2.8235288 V 47.529412 L 53.818182,56 H 4.857143 C 4.857143,56 2,56 2,53.17647 V 16.470588 Z"
       transform="matrix(0.91504011,0,0,0.91504011,2.7187164,2.7187164)" />
    <path
       style="mix-blend-mode:normal;fill:none;stroke:#000000;stroke-width:0.231168;stroke-dasharray:none;stroke-opacity:1;filter:url(#filter3)"
       d="m 15.951371,8.0000002 h 43.191487 c 0,0 2.857142,0 2.857142,2.8235288 v 30.93633 a 14.277802,14.277802 112.00327 0 1 -4.008341,9.919365 l -0.165136,0.170964 A 13.594369,13.594369 157.00327 0 1 48.048629,56 H 4.857143 C 4.857143,56 2,56 2,53.17647 V 22.240141 A 14.277802,14.277802 112.00327 0 1 6.0083414,12.320776 L 6.1734766,12.149812 A 13.59437,13.59437 157.00327 0 1 15.951371,8.0000002 Z"
       id="path2-9"
       inkscape:path-effect="#path-effect1-6"
       inkscape:original-d="m 10.181818,8.0000002 h 48.96104 c 0,0 2.857142,0 2.857142,2.8235288 V 47.529412 L 53.818182,56 H 4.857143 C 4.857143,56 2,56 2,53.17647 V 16.470588 Z"
       transform="matrix(0.91504011,0,0,0.91504011,2.7187164,2.7187163)" />
    <path
       style="fill:#ffffff"
       d="M 40,21.120997 V 25 H 37.506355 A 1.5063553,1.5063553 135 0 0 36,26.506355 1.5000135,1.5000135 44.757247 0 0 37.506355,28 H 40 v 8.234376 C 40,41.881434 41.998402,44 45.585938,44 h 2.293065 A 2.1209971,2.1209971 135 0 0 50,41.879003 2.0036567,2.0036567 41.537908 0 0 47.879003,40 H 46.03125 C 44.101676,40 44,38.65947 44,35.835938 V 28 h 4.493645 A 1.5063553,1.5063553 135 0 0 50,26.493645 1.5000135,1.5000135 44.757247 0 0 48.493645,25 H 44 V 21.120997 A 2.1209971,2.1209971 45 0 0 41.879003,19 2.0036567,2.0036567 131.53791 0 0 40,21.120997 Z M 24.050782,18.04297 C 16.109896,18.042969 14,22.529412 14,31 c 0,8.470588 2.072781,13.054688 10.050782,13.054688 h 2.265624 l 2.214395,3.786744 a 2.568291,2.568291 19.720413 0 0 3.105599,1.113214 1.7550414,1.7550414 106.7037 0 0 0.765161,-2.549815 L 30.324218,42.640624 C 33.292774,41.22886 34,36.647058 34,31 34,22.529412 31.991668,18.042969 24.050782,18.042968 Z M 24.015624,22 C 28.859636,22 30.000012,25.51398 30,31.308594 30,37.103206 28.89634,40 24.015624,40 19.134912,40 18,37.103206 18,31.308594 18,25.51398 19.171617,22 24.015624,22 Z"
       id="path4"
       inkscape:path-effect="#path-effect2"
       inkscape:original-d="m 40,19 v 6 h -4 v 3 h 4 v 8.234376 C 40,41.881434 41.998402,44 45.585938,44 H 50 V 40 H 46.03125 C 44.101676,40 44,38.65947 44,35.835938 V 28 h 6 V 25 H 44 V 19 Z M 24.050782,18.04297 C 16.109896,18.042969 14,22.529412 14,31 c 0,8.470588 2.072781,13.054688 10.050782,13.054688 h 2.265624 l 3.300782,5.64453 3.824218,-1.410156 -3.117188,-5.648438 C 33.292774,41.22886 34,36.647058 34,31 34,22.529412 31.991668,18.042969 24.050782,18.042968 Z M 24.015624,22 C 28.859636,22 30.000012,25.51398 30,31.308594 30,37.103206 28.89634,40 24.015624,40 19.134912,40 18,37.103206 18,31.308594 18,25.51398 19.171617,22 24.015624,22 Z"
       transform="matrix(1.0576383,0,0,1.0576383,-1.8444253,-3.5134944)" />
    <path
       style="mix-blend-mode:normal;fill:none;stroke:#0061ff;stroke-width:0.2;stroke-dasharray:none;stroke-opacity:1;filter:url(#filter2)"
       d="M 40,21.120997 V 25 H 37.506355 A 1.5063553,1.5063553 135 0 0 36,26.506355 1.5000135,1.5000135 44.757247 0 0 37.506355,28 H 40 v 8.234376 C 40,41.881434 41.998402,44 45.585938,44 h 2.293065 A 2.1209971,2.1209971 135 0 0 50,41.879003 2.0036567,2.0036567 41.537908 0 0 47.879003,40 H 46.03125 C 44.101676,40 44,38.65947 44,35.835938 V 28 h 4.493645 A 1.5063553,1.5063553 135 0 0 50,26.493645 1.5000135,1.5000135 44.757247 0 0 48.493645,25 H 44 V 21.120997 A 2.1209971,2.1209971 45 0 0 41.879003,19 2.0036567,2.0036567 131.53791 0 0 40,21.120997 Z M 24.050782,18.04297 C 16.109896,18.042969 14,22.529412 14,31 c 0,8.470588 2.072781,13.054688 10.050782,13.054688 h 2.265624 l 2.214395,3.786744 a 2.568291,2.568291 19.720413 0 0 3.105599,1.113214 1.7550414,1.7550414 106.7037 0 0 0.765161,-2.549815 L 30.324218,42.640624 C 33.292774,41.22886 34,36.647058 34,31 34,22.529412 31.991668,18.042969 24.050782,18.042968 Z M 24.015624,22 C 28.859636,22 30.000012,25.51398 30,31.308594 30,37.103206 28.89634,40 24.015624,40 19.134912,40 18,37.103206 18,31.308594 18,25.51398 19.171617,22 24.015624,22 Z"
       id="path4-7"
       inkscape:path-effect="#path-effect2-3"
       inkscape:original-d="m 40,19 v 6 h -4 v 3 h 4 v 8.234376 C 40,41.881434 41.998402,44 45.585938,44 H 50 V 40 H 46.03125 C 44.101676,40 44,38.65947 44,35.835938 V 28 h 6 V 25 H 44 V 19 Z M 24.050782,18.04297 C 16.109896,18.042969 14,22.529412 14,31 c 0,8.470588 2.072781,13.054688 10.050782,13.054688 h 2.265624 l 3.300782,5.64453 3.824218,-1.410156 -3.117188,-5.648438 C 33.292774,41.22886 34,36.647058 34,31 34,22.529412 31.991668,18.042969 24.050782,18.042968 Z M 24.015624,22 C 28.859636,22 30.000012,25.51398 30,31.308594 30,37.103206 28.89634,40 24.015624,40 19.134912,40 18,37.103206 18,31.308594 18,25.51398 19.171617,22 24.015624,22 Z"
       transform="matrix(1.0576383,0,0,1.0576383,-1.8444253,-3.5134944)" />
  </g>
</svg>
