<?xml version="1.0" encoding="UTF-8" standalone="no"?>
<svg
   width="64"
   height="64"
   version="1.1"
   id="svg10"
   sodipodi:docname="vmware-view.svg"
   inkscape:version="1.4.2 (ebf0e940d0, 2025-05-08)"
   xml:space="preserve"
   xmlns:inkscape="http://www.inkscape.org/namespaces/inkscape"
   xmlns:sodipodi="http://sodipodi.sourceforge.net/DTD/sodipodi-0.dtd"
   xmlns:xlink="http://www.w3.org/1999/xlink"
   xmlns="http://www.w3.org/2000/svg"
   xmlns:svg="http://www.w3.org/2000/svg"><defs
     id="defs10"><inkscape:path-effect
       effect="fillet_chamfer"
       id="path-effect5"
       is_visible="true"
       lpeversion="1"
       nodesatellites_param="F,0,0,1,0,0,0,1 @ F,0,0,1,0,0,0,1 @ F,0,1,1,0,4.3125632,0,1 @ F,0,0,1,0,4.3125632,0,1 @ F,0,0,1,0,0,0,1 @ F,0,0,1,0,0,0,1"
       radius="0"
       unit="px"
       method="auto"
       mode="F"
       chamfer_steps="1"
       flexible="false"
       use_knot_distance="true"
       apply_no_radius="true"
       apply_with_radius="true"
       only_selected="false"
       hide_knots="false" /><inkscape:path-effect
       effect="fillet_chamfer"
       id="path-effect4"
       is_visible="true"
       lpeversion="1"
       nodesatellites_param="F,0,0,1,0,3.7783823,0,1 @ F,0,0,1,0,0,0,1 @ F,0,0,1,0,0,0,1 @ F,0,0,1,0,0,0,1 @ F,0,0,1,0,0,0,1 @ F,0,1,1,0,3.7783823,0,1"
       radius="0"
       unit="px"
       method="auto"
       mode="F"
       chamfer_steps="1"
       flexible="false"
       use_knot_distance="true"
       apply_no_radius="true"
       apply_with_radius="true"
       only_selected="false"
       hide_knots="false" /><linearGradient
       id="linearGradient3"
       inkscape:collect="always"><stop
         style="stop-color:#c6fe9d;stop-opacity:1;"
         offset="0"
         id="stop2" /><stop
         style="stop-color:#bdffb2;stop-opacity:1;"
         offset="1"
         id="stop3" /></linearGradient><inkscape:path-effect
       effect="fillet_chamfer"
       id="path-effect2"
       is_visible="true"
       lpeversion="1"
       nodesatellites_param="F,0,0,1,0,2.3967658,0,1 @ F,0,0,1,0,0.81296672,0,1 @ F,0,0,1,0,0,0,1 @ F,0,0,1,0,0,0,1 @ F,0,1,1,0,0.81296672,0,1 @ F,0,0,1,0,2.3967658,0,1"
       radius="0"
       unit="px"
       method="auto"
       mode="F"
       chamfer_steps="1"
       flexible="false"
       use_knot_distance="true"
       apply_no_radius="true"
       apply_with_radius="true"
       only_selected="false"
       hide_knots="false" /><radialGradient
       inkscape:collect="always"
       xlink:href="#linearGradient6"
       id="radialGradient7"
       cx="-39.747101"
       cy="-0.89951217"
       fx="-39.747101"
       fy="-0.89951217"
       r="19"
       gradientTransform="matrix(3.1670841,0.84861762,-1.1612663,4.3339047,97.769843,91.25823)"
       gradientUnits="userSpaceOnUse" /><linearGradient
       id="linearGradient6"
       inkscape:collect="always"><stop
         style="stop-color:#81cd4b;stop-opacity:1;"
         offset="0"
         id="stop6" /><stop
         style="stop-color:#81d973;stop-opacity:1;"
         offset="1"
         id="stop7" /></linearGradient><radialGradient
       inkscape:collect="always"
       xlink:href="#linearGradient6"
       id="radialGradient11"
       cx="-33"
       cy="-32"
       fx="-33"
       fy="-32"
       r="20"
       gradientTransform="matrix(1,0,0,0.7,-2.0161711,-7.6644758)"
       gradientUnits="userSpaceOnUse" /><radialGradient
       inkscape:collect="always"
       xlink:href="#linearGradient3"
       id="radialGradient7-7"
       cx="-39.747101"
       cy="-0.89951217"
       fx="-39.747101"
       fy="-0.89951217"
       r="19"
       gradientTransform="matrix(3.1670841,0.84861762,-1.1612663,4.3339047,97.76984,92.656471)"
       gradientUnits="userSpaceOnUse" /><inkscape:path-effect
       effect="fillet_chamfer"
       id="path-effect5-1"
       is_visible="true"
       lpeversion="1"
       nodesatellites_param="F,0,0,1,0,0,0,1 @ F,0,0,1,0,0,0,1 @ F,0,1,1,0,4.3125632,0,1 @ F,0,0,1,0,4.3125632,0,1 @ F,0,0,1,0,0,0,1 @ F,0,0,1,0,0,0,1"
       radius="0"
       unit="px"
       method="auto"
       mode="F"
       chamfer_steps="1"
       flexible="false"
       use_knot_distance="true"
       apply_no_radius="true"
       apply_with_radius="true"
       only_selected="false"
       hide_knots="false" /><inkscape:path-effect
       effect="fillet_chamfer"
       id="path-effect4-5"
       is_visible="true"
       lpeversion="1"
       nodesatellites_param="F,0,0,1,0,3.7783823,0,1 @ F,0,0,1,0,0,0,1 @ F,0,0,1,0,0,0,1 @ F,0,0,1,0,0,0,1 @ F,0,0,1,0,0,0,1 @ F,0,1,1,0,3.7783823,0,1"
       radius="0"
       unit="px"
       method="auto"
       mode="F"
       chamfer_steps="1"
       flexible="false"
       use_knot_distance="true"
       apply_no_radius="true"
       apply_with_radius="true"
       only_selected="false"
       hide_knots="false" /><inkscape:path-effect
       effect="fillet_chamfer"
       id="path-effect2-4"
       is_visible="true"
       lpeversion="1"
       nodesatellites_param="F,0,0,1,0,2.3967658,0,1 @ F,0,0,1,0,0.81296672,0,1 @ F,0,0,1,0,0,0,1 @ F,0,0,1,0,0,0,1 @ F,0,1,1,0,0.81296672,0,1 @ F,0,0,1,0,2.3967658,0,1"
       radius="0"
       unit="px"
       method="auto"
       mode="F"
       chamfer_steps="1"
       flexible="false"
       use_knot_distance="true"
       apply_no_radius="true"
       apply_with_radius="true"
       only_selected="false"
       hide_knots="false" /><filter
       inkscape:collect="always"
       style="color-interpolation-filters:sRGB"
       id="filter8"
       x="-0.11429961"
       y="-0.13009204"
       width="1.2285992"
       height="1.2601841"><feGaussianBlur
         inkscape:collect="always"
         stdDeviation="2.434825"
         id="feGaussianBlur8" /></filter><filter
       inkscape:collect="always"
       style="color-interpolation-filters:sRGB"
       id="filter1"
       x="-0.12511283"
       y="-0.18198231"
       width="1.2502257"
       height="1.3639646"><feGaussianBlur
         inkscape:collect="always"
         stdDeviation="1.4327202"
         id="feGaussianBlur1" /></filter></defs><sodipodi:namedview
     id="namedview10"
     pagecolor="#ffffff"
     bordercolor="#000000"
     borderopacity="0.25"
     inkscape:showpageshadow="2"
     inkscape:pageopacity="0.0"
     inkscape:pagecheckerboard="0"
     inkscape:deskcolor="#d1d1d1"
     inkscape:zoom="5.1658962"
     inkscape:cx="-27.971913"
     inkscape:cy="26.713661"
     inkscape:current-layer="svg10" /><g
     id="g8"
     transform="translate(0,-1.8439447)"><path
       d="m 18.613489,53.113962 -0.274483,0.598276 c -0.187228,0.408089 -0.522291,1.102973 -0.423234,1.532378 0.216748,0.939591 1.495507,1.706533 2.584228,1.706533 h 23 c 1.10532,0 2.038674,-0.710152 2.370556,-1.700947 0.141995,-0.423908 -0.02233,-1.129875 -0.209562,-1.537964 l -0.274483,-0.598276 a 3.7365897,3.7365897 32.677385 0 0 -3.396214,-2.178438 l -19.980594,0 a 3.7365897,3.7365897 147.32261 0 0 -3.396214,2.178438 z"
       style="fill:url(#radialGradient11)"
       id="path2"
       sodipodi:nodetypes="csssscc"
       inkscape:path-effect="#path-effect2"
       inkscape:original-d="M 19.612937,50.935524 18,54.451149 c -0.577543,1.258837 1.115,2.5 2.5,2.5 h 23 c 1.385,0 2.5,-1.115 2.5,-2.5 l -1.612937,-3.515625 z"
       transform="translate(0,-0.26325953)" /><path
       d="M 10.179688,11 C 7.8640046,11 6,12.864004 6,15.179688 v 27.145391 a 4.3125632,4.3125632 45 0 0 4.312563,4.312563 H 53.687437 A 4.3125632,4.3125632 135 0 0 58,42.325079 L 58,15.179688 C 58,12.864005 56.135995,11 53.820312,11 Z"
       style="fill:url(#radialGradient7)"
       id="path4"
       inkscape:path-effect="#path-effect5"
       inkscape:original-d="M 10.179688,11 C 7.8640046,11 6,12.864004 6,15.179688 V 46.637642 H 58 V 15.179688 C 58,12.864005 56.135995,11 53.820312,11 Z"
       sodipodi:nodetypes="ssccsss" /><path
       style="opacity:0.79267408;fill:#ffffff;fill-opacity:1;stroke-width:0.441917"
       d="m 32.000001,15.987119 c -3.660682,0 -6.778207,2.241286 -8.120349,5.413308 -3.407615,0.506849 -6.021001,3.411836 -6.021001,6.960431 0,3.905075 3.16567,7.070615 7.070675,7.070615 H 39.95451 c 3.417064,0 6.186839,-2.770172 6.186839,-6.186545 0,-3.175911 -2.387959,-5.778214 -5.468846,-6.132102 -0.803484,-4.053499 -4.382531,-7.125707 -8.672502,-7.125707 z"
       id="path2-9-8" /><path
       style="opacity:1;fill:none;fill-opacity:1;stroke-width:0.20000001;stroke:#000000;stroke-opacity:1;stroke-dasharray:none;filter:url(#filter1)"
       d="m 32.000001,15.987119 c -3.660682,0 -6.778207,2.241286 -8.120349,5.413308 -3.407615,0.506849 -6.021001,3.411836 -6.021001,6.960431 0,3.905075 3.16567,7.070615 7.070675,7.070615 H 39.95451 c 3.417064,0 6.186839,-2.770172 6.186839,-6.186545 0,-3.175911 -2.387959,-5.778214 -5.468846,-6.132102 -0.803484,-4.053499 -4.382531,-7.125707 -8.672502,-7.125707 z"
       id="path2-9-8-7" /><path
       d="m 6,44.838732 v 1.379821 c 0,2.315683 1.864004,4.179688 4.179688,4.179688 H 53.820312 C 56.135995,50.398241 58,48.534236 58,46.218553 V 44.838732 A 3.7783823,3.7783823 45 0 0 54.221618,41.06035 H 9.7783823 A 3.7783823,3.7783823 135 0 0 6,44.838732 Z"
       style="fill:url(#radialGradient7-7)"
       id="path3"
       inkscape:path-effect="#path-effect4"
       inkscape:original-d="m 6,41.06035 v 5.158203 c 0,2.315683 1.864004,4.179688 4.179688,4.179688 H 53.820312 C 56.135995,50.398241 58,48.534236 58,46.218553 V 41.06035 Z"
       transform="translate(0,-0.93007101)" /></g><g
     id="g7"
     style="stroke-width:0.2;stroke-dasharray:none;filter:url(#filter8)"
     transform="translate(75.048828,-3.652344)"><path
       d="m -53.039062,52.480469 a 3.7365897,3.7365897 0 0 0 -3.396485,2.177734 l -0.27539,0.599609 c -0.187228,0.40809 -0.520932,1.101846 -0.421875,1.53125 0.216748,0.939592 1.495263,1.707032 2.583984,1.707032 h 23 c 1.10532,0 2.037259,-0.710377 2.369141,-1.701172 0.141994,-0.423908 -0.02176,-1.12902 -0.208985,-1.53711 l -0.273437,-0.599609 a 3.7365897,3.7365897 0 0 0 -3.396485,-2.177734 z"
       style="fill:none;stroke:#000000;stroke-width:0.2;stroke-dasharray:none;stroke-opacity:1"
       id="path7" /><path
       d="m -64.869141,12.808594 c -2.315683,0 -4.179687,1.864003 -4.179687,4.179687 v 27.144531 a 4.3125632,4.3125632 0 0 0 0.08789,0.816407 3.7783823,3.7783823 0 0 1 3.689453,-3.009766 h 44.443359 a 3.7783823,3.7783823 0 0 1 3.691406,3.009766 4.3125632,4.3125632 0 0 0 0.08789,-0.816407 V 16.988281 c 0,-2.315683 -1.864005,-4.179687 -4.179688,-4.179687 z"
       style="fill:none;stroke:#000000;stroke-width:0.2;stroke-dasharray:none;stroke-opacity:1"
       id="path6" /><path
       d="m -65.271484,41.939453 a 3.7783823,3.7783823 0 0 0 -3.777344,3.777344 v 1.380859 c 0,2.315683 1.864003,4.179688 4.179687,4.179688 h 43.640625 c 2.315683,0 4.179688,-1.864005 4.179688,-4.179688 v -1.380859 a 3.7783823,3.7783823 0 0 0 -3.779297,-3.777344 z"
       style="fill:none;stroke:#000000;stroke-width:0.2;stroke-dasharray:none;stroke-opacity:1"
       id="path5" /></g></svg>
