<?xml version="1.0" encoding="UTF-8" standalone="no"?>
<svg
   width="64"
   height="64"
   version="1"
   id="svg7"
   sodipodi:docname="appimagekit-pling-store.svg"
   inkscape:version="1.4.2 (ebf0e940d0, 2025-05-08)"
   xmlns:inkscape="http://www.inkscape.org/namespaces/inkscape"
   xmlns:sodipodi="http://sodipodi.sourceforge.net/DTD/sodipodi-0.dtd"
   xmlns:xlink="http://www.w3.org/1999/xlink"
   xmlns="http://www.w3.org/2000/svg"
   xmlns:svg="http://www.w3.org/2000/svg">
  <defs
     id="defs7">
    <radialGradient
       inkscape:collect="always"
       xlink:href="#SVGID_1_-3-2-7"
       id="radialGradient2"
       cx="63.929249"
       cy="67.915588"
       fx="63.929249"
       fy="67.915588"
       r="25.757278"
       gradientTransform="matrix(0,-2.4081956,2.1549273,0,-46.389582,207.13685)"
       gradientUnits="userSpaceOnUse" />
    <radialGradient
       id="SVGID_1_-3-2-7"
       cx="-159.43106"
       cy="15.462561"
       r="64.706802"
       gradientTransform="matrix(-0.89413329,0,0,0.96304834,-80.753654,49.330428)"
       gradientUnits="userSpaceOnUse"
       fx="-159.43106"
       fy="15.462561">
      <stop
         offset="0"
         style="stop-color:#ff9d00;stop-opacity:1;"
         id="stop1-6-9-5" />
      <stop
         offset="1"
         style="stop-color:#ff8115;stop-opacity:1;"
         id="stop2-7-1-3" />
    </radialGradient>
    <filter
       inkscape:collect="always"
       style="color-interpolation-filters:sRGB"
       id="filter2"
       x="-0.12117535"
       y="-0.13541707"
       width="1.2423507"
       height="1.2708341">
      <feGaussianBlur
         inkscape:collect="always"
         stdDeviation="2.5592893"
         id="feGaussianBlur2" />
    </filter>
    <filter
       inkscape:collect="always"
       style="color-interpolation-filters:sRGB"
       id="filter7"
       x="-0.20080759"
       y="-0.12716508"
       width="1.4015905"
       height="1.2543046">
      <feGaussianBlur
         inkscape:collect="always"
         stdDeviation="1.3890369"
         id="feGaussianBlur7" />
    </filter>
  </defs>
  <sodipodi:namedview
     id="namedview7"
     pagecolor="#ffffff"
     bordercolor="#000000"
     borderopacity="0.25"
     inkscape:showpageshadow="2"
     inkscape:pageopacity="0.0"
     inkscape:pagecheckerboard="0"
     inkscape:deskcolor="#d1d1d1"
     inkscape:zoom="6.0998184"
     inkscape:cx="48.198156"
     inkscape:cy="51.313003"
     inkscape:current-layer="svg7" />
  <g
     id="g1"
     transform="translate(-35.999571,10.709307)">
    <path
       class="st1"
       d="m 56.9345,4.670135 v 0 c 0,1.561047 -1.193742,2.846615 -2.754789,2.846615 h -4.95862 c -3.856705,0 -6.978799,3.122094 -6.978799,6.978799 V 36.80934 c 0,4.132184 3.397573,7.529757 7.529757,7.529757 H 86.22709 c 4.13218,0 7.52976,-3.397573 7.52976,-7.529757 V 14.403723 c 0,-3.856705 -3.1221,-6.978799 -6.9788,-6.978799 H 81.7276 c -1.56105,0 -2.754788,-1.193742 -2.754788,-2.754789 v 0 c 0,-3.581226 -2.846615,-6.4278412 -6.336014,-6.4278412 H 63.270515 C 59.781116,-1.6658802 56.9345,1.180736 56.9345,4.670135 Z m 6.427841,-2.662963 h 9.18263 c 1.561047,0 2.754789,1.193742 2.754789,2.754789 v 0 c 0,1.561047 -1.193742,2.754789 -2.754789,2.754789 h -9.18263 c -1.561047,0 -2.754789,-1.193742 -2.754789,-2.754789 v 0 c 0,-1.561047 1.193742,-2.754789 2.754789,-2.754789 z"
       id="path2-27"
       style="fill:url(#radialGradient2);stroke-width:0.918263" />
    <path
       class="st1"
       d="m 56.934501,4.670135 v 0 c 0,1.561047 -1.193742,2.846615 -2.754789,2.846615 h -4.95862 c -3.856705,0 -6.978798,3.122094 -6.978798,6.978799 V 36.80934 c 0,4.132183 3.397572,7.529756 7.529756,7.529756 h 36.455041 c 4.132184,0 7.529757,-3.397573 7.529757,-7.529756 V 14.403722 c 0,-3.856704 -3.122095,-6.978798 -6.978799,-6.978798 h -5.050447 c -1.561047,0 -2.754789,-1.193742 -2.754789,-2.754789 v 0 c 0,-3.581226 -2.846615,-6.4278414 -6.336014,-6.4278414 h -9.366283 c -3.489399,0.091826 -6.336015,2.9384414 -6.336015,6.4278414 z m 6.427841,-2.662963 h 9.18263 c 1.561047,0 2.754789,1.193742 2.754789,2.754789 v 0 c 0,1.561047 -1.193742,2.754789 -2.754789,2.754789 h -9.18263 c -1.561047,0 -2.754789,-1.193742 -2.754789,-2.754789 v 0 c 0,-1.561047 1.193742,-2.754789 2.754789,-2.754789 z"
       id="path2-2"
       style="mix-blend-mode:normal;fill:none;stroke:#000000;stroke-width:0.2;stroke-dasharray:none;stroke-opacity:1;filter:url(#filter2)" />
  </g>
  <path
     style="fill:#ffffff;stroke-width:0.913181"
     d="m 32.125976,24.003641 c -0.527335,0.01394 -1.063475,0.08068 -1.599851,0.203326 -1.738084,0.389898 -3.50572,0.843039 -5.074221,1.241356 -1.430745,0.295051 -2.842972,1.858904 -2.600427,3.137277 l 4.737129,21.053114 c 0.292557,1.300774 1.763178,2.040366 3.297798,1.655141 1.534617,-0.385224 2.536275,-1.741976 2.243715,-3.042749 l -1.746103,-7.751341 c 0.813085,-0.22209 1.7216,-0.431172 2.498764,-0.579656 4.341243,-1.08902 7.069003,-5.483651 6.094416,-9.814917 -0.842995,-3.728167 -4.159877,-6.199059 -7.85122,-6.101551 z m 0.242564,4.564124 a 2.9842992,3.6330424 78.314213 0 1 3.171165,2.191992 2.9842992,3.6330424 78.314213 0 1 -2.834073,3.722285 2.9842992,3.6330424 78.314213 0 1 -0.06064,0.0089 l -2.01542,0.467293 -1.412577,-5.800129 2.074277,-0.477994 a 2.9842992,3.6330424 78.314213 0 1 1.077269,-0.112364 z"
     id="path7" />
  <path
     style="fill:none;stroke-width:0.3;stroke:#ff0b00;stroke-opacity:1;stroke-dasharray:none;filter:url(#filter7)"
     d="m 32.125976,24.003641 c -0.527335,0.01394 -1.063475,0.08068 -1.599851,0.203326 -1.738084,0.389898 -3.50572,0.843039 -5.074221,1.241356 -1.430745,0.295051 -2.842972,1.858904 -2.600427,3.137277 l 4.737129,21.053114 c 0.292557,1.300774 1.763178,2.040366 3.297798,1.655141 1.534617,-0.385224 2.536275,-1.741976 2.243715,-3.042749 l -1.746103,-7.751341 c 0.813085,-0.22209 1.7216,-0.431172 2.498764,-0.579656 4.341243,-1.08902 7.069003,-5.483651 6.094416,-9.814917 -0.842995,-3.728167 -4.159877,-6.199059 -7.85122,-6.101551 z m 0.242564,4.564124 a 2.9842992,3.6330424 78.314213 0 1 3.171165,2.191992 2.9842992,3.6330424 78.314213 0 1 -2.834073,3.722285 2.9842992,3.6330424 78.314213 0 1 -0.06064,0.0089 l -2.01542,0.467293 -1.412577,-5.800129 2.074277,-0.477994 a 2.9842992,3.6330424 78.314213 0 1 1.077269,-0.112364 z"
     id="path7-7" />
</svg>
