<?xml version="1.0" encoding="UTF-8" standalone="no"?>
<svg
   width="64"
   height="64"
   version="1"
   id="svg5"
   sodipodi:docname="com.beakerbrowser.Beaker.svg"
   inkscape:version="1.4.2 (ebf0e940d0, 2025-05-08)"
   xmlns:inkscape="http://www.inkscape.org/namespaces/inkscape"
   xmlns:sodipodi="http://sodipodi.sourceforge.net/DTD/sodipodi-0.dtd"
   xmlns:xlink="http://www.w3.org/1999/xlink"
   xmlns="http://www.w3.org/2000/svg"
   xmlns:svg="http://www.w3.org/2000/svg">
  <defs
     id="defs5">
    <linearGradient
       id="linearGradient5"
       inkscape:collect="always">
      <stop
         style="stop-color:#614eff;stop-opacity:1;"
         offset="0"
         id="stop5" />
      <stop
         style="stop-color:#9d4eff;stop-opacity:1;"
         offset="1"
         id="stop6" />
    </linearGradient>
    <radialGradient
       inkscape:collect="always"
       xlink:href="#linearGradient5"
       id="radialGradient6"
       cx="48.81992"
       cy="48.819923"
       fx="48.81992"
       fy="48.819923"
       r="28"
       gradientUnits="userSpaceOnUse"
       gradientTransform="matrix(0,-2.2628604,2.2628604,0,-46.792628,174.15272)" />
    <filter
       inkscape:collect="always"
       style="color-interpolation-filters:sRGB"
       id="filter6"
       x="-0.076814327"
       y="-0.076814327"
       width="1.1536287"
       height="1.1536287">
      <feGaussianBlur
         inkscape:collect="always"
         stdDeviation="1.6465296"
         id="feGaussianBlur6" />
    </filter>
    <filter
       inkscape:collect="always"
       style="color-interpolation-filters:sRGB"
       id="filter7"
       x="-0.056963815"
       y="-0.05696382"
       width="1.1139276"
       height="1.1139276">
      <feGaussianBlur
         inkscape:collect="always"
         stdDeviation="0.81279064"
         id="feGaussianBlur7" />
    </filter>
    <filter
       inkscape:collect="always"
       style="color-interpolation-filters:sRGB"
       id="filter8"
       x="-0.48269579"
       y="-0.48269579"
       width="1.9653916"
       height="1.9653916">
      <feGaussianBlur
         inkscape:collect="always"
         stdDeviation="3.9263777"
         id="feGaussianBlur8" />
    </filter>
  </defs>
  <sodipodi:namedview
     id="namedview5"
     pagecolor="#ffffff"
     bordercolor="#000000"
     borderopacity="0.25"
     inkscape:showpageshadow="2"
     inkscape:pageopacity="0.0"
     inkscape:pagecheckerboard="0"
     inkscape:deskcolor="#d1d1d1"
     inkscape:zoom="9.8349335"
     inkscape:cx="39.502046"
     inkscape:cy="35.587429"
     inkscape:current-layer="svg5" />
  <rect
     style="fill:url(#radialGradient6);stroke-width:0.989115"
     width="55.390427"
     height="55.390427"
     x="4.3047857"
     y="4.3047857"
     rx="27.695213"
     ry="27.695213"
     id="rect2" />
  <circle
     style="opacity:1;fill:#cea6ff;fill-opacity:1;stroke:none;stroke-width:0.128859;stroke-linecap:round;stroke-linejoin:round;stroke-miterlimit:7.4;stroke-dasharray:none;stroke-opacity:1;filter:url(#filter8)"
     id="path7-0"
     cx="32"
     cy="32"
     r="9.7611237" />
  <circle
     style="opacity:0.60226362;fill:#4600ff;stroke:none;stroke-width:0.2;stroke-linecap:round;stroke-linejoin:round;stroke-miterlimit:7.4;stroke-dasharray:none;stroke-opacity:1;fill-opacity:1"
     id="path7"
     cx="32"
     cy="32"
     r="15.150077" />
  <path
     id="path3"
     style="fill:#ffffff;stroke-width:1.05013"
     d="M 32,13.097672 A 18.902328,18.902328 0 0 0 13.097672,32 18.902328,18.902328 0 0 0 32,50.902328 18.902328,18.902328 0 0 0 50.902328,32 18.902328,18.902328 0 0 0 47.954992,21.86174 c -0.0065,-0.04321 -0.01379,-0.08596 -0.02051,-0.131267 -0.08557,-0.576208 -0.104404,-1.081452 -0.09025,-2.334076 0.0099,-0.879869 0.02083,-1.87666 0.02462,-2.211015 0.0061,-0.540522 -0.01151,-0.643071 -0.162032,-0.931169 -0.10012,-0.191647 -0.246088,-0.379504 -0.420461,-0.545575 -0.197635,-0.231539 -0.434479,-0.342381 -0.670689,-0.404054 -0.760902,-0.202801 -1.594309,-0.03341 -2.280749,0.03486 -1.041372,0.09872 -2.145637,0.190681 -2.976051,0.23792 A 18.902328,18.902328 0 0 0 32,13.097672 Z m 0,6.300776 A 12.601552,12.601552 0 0 1 44.601552,32 12.601552,12.601552 0 0 1 32,44.601552 12.601552,12.601552 0 0 1 19.398448,32 12.601552,12.601552 0 0 1 32,19.398448 Z" />
  <rect
     style="mix-blend-mode:normal;fill:none;stroke:#000000;stroke-width:0.2;stroke-dasharray:none;stroke-opacity:1;filter:url(#filter6)"
     width="52.746292"
     height="52.746292"
     x="5.6268539"
     y="5.6268539"
     rx="26.373146"
     ry="26.373146"
     id="rect2-6"
     transform="matrix(1.0501293,0,0,1.0501293,-1.6041384,-1.6041384)" />
  <path
     id="path3-3"
     style="fill:none;stroke:#6900ff;stroke-width:0.2;stroke-dasharray:none;stroke-opacity:1;filter:url(#filter7)"
     d="m 31.999998,14 a 18,18 0 0 0 -18,18 18,18 0 0 0 18,18 18,18 0 0 0 18.000003,-18 18,18 0 0 0 -2.80664,-9.654297 c -0.006,-0.04115 -0.0131,-0.08186 -0.0195,-0.125 -0.0815,-0.548702 -0.0994,-1.029828 -0.0859,-2.222656 0.009,-0.837867 0.0198,-1.787075 0.0234,-2.105469 0.006,-0.51472 -0.011,-0.612374 -0.1543,-0.886719 -0.0953,-0.182498 -0.23434,-0.361388 -0.40039,-0.519531 -0.1882,-0.220486 -0.41374,-0.326037 -0.63867,-0.384766 -0.72458,-0.19312 -1.51821,-0.03182 -2.17188,0.0332 -0.99166,0.09401 -2.043209,0.181578 -2.833982,0.226562 A 18,18 0 0 0 32.000028,14 Z m 0,6 a 12,12 0 0 1 12.000003,12 12,12 0 0 1 -12.000003,12 12,12 0 0 1 -12,-12 12,12 0 0 1 12,-12 z"
     transform="matrix(1.0501293,0,0,1.0501293,-1.6041384,-1.6041384)" />
</svg>
