<?xml version="1.0" encoding="UTF-8" standalone="no"?>
<svg
   width="64"
   height="64"
   version="1.1"
   id="svg11"
   sodipodi:docname="re.fossplant.songrec.svg"
   inkscape:version="1.4.3 (0d15f75042, 2025-12-25)"
   xmlns:inkscape="http://www.inkscape.org/namespaces/inkscape"
   xmlns:sodipodi="http://sodipodi.sourceforge.net/DTD/sodipodi-0.dtd"
   xmlns:xlink="http://www.w3.org/1999/xlink"
   xmlns="http://www.w3.org/2000/svg"
   xmlns:svg="http://www.w3.org/2000/svg">
  <defs
     id="defs11">
    <linearGradient
       id="linearGradient9"
       inkscape:collect="always">
      <stop
         style="stop-color:#46bd62;stop-opacity:1;"
         offset="0"
         id="stop10" />
      <stop
         style="stop-color:#00ff66;stop-opacity:1;"
         offset="1"
         id="stop11" />
    </linearGradient>
    <linearGradient
       id="linearGradient8"
       inkscape:collect="always">
      <stop
         style="stop-color:#31d0ff;stop-opacity:1;"
         offset="0"
         id="stop8" />
      <stop
         style="stop-color:#317aff;stop-opacity:1;"
         offset="1"
         id="stop9" />
    </linearGradient>
    <filter
       inkscape:collect="always"
       style="color-interpolation-filters:sRGB"
       id="filter7"
       x="-0.21814974"
       y="-0.11779904"
       width="1.4362992"
       height="1.235598">
      <feGaussianBlur
         inkscape:collect="always"
         stdDeviation="1.9216509"
         id="feGaussianBlur7" />
    </filter>
    <radialGradient
       inkscape:collect="always"
       xlink:href="#linearGradient8"
       id="radialGradient9"
       cx="9.3210335"
       cy="50.255421"
       fx="9.3210335"
       fy="50.255421"
       r="26.691182"
       gradientUnits="userSpaceOnUse"
       gradientTransform="matrix(3.7181378,-2.1466678,2.1466678,3.7181377,-140.79553,-163.5191)" />
    <radialGradient
       inkscape:collect="always"
       xlink:href="#linearGradient9"
       id="radialGradient11"
       cx="37.929382"
       cy="49.711338"
       fx="37.929382"
       fy="49.711338"
       r="12.01085"
       gradientTransform="matrix(4.2520927,-2.4549469,4.5462693,7.8743695,-325.5261,-235.64358)"
       gradientUnits="userSpaceOnUse" />
  </defs>
  <sodipodi:namedview
     id="namedview11"
     pagecolor="#ffffff"
     bordercolor="#000000"
     borderopacity="0.25"
     inkscape:showpageshadow="2"
     inkscape:pageopacity="0.0"
     inkscape:pagecheckerboard="0"
     inkscape:deskcolor="#d1d1d1"
     inkscape:zoom="8.7621706"
     inkscape:cx="38.574917"
     inkscape:cy="50.158804"
     inkscape:current-layer="svg11" />
  <path
     id="circle3"
     style="fill:url(#radialGradient9);stroke-width:1.11213"
     d="M 31.887865,5.3088179 A 26.691182,26.691182 0 0 0 5.1966823,32 26.691182,26.691182 0 0 0 31.887865,58.691182 26.691182,26.691182 0 0 0 58.579047,32 26.691182,26.691182 0 0 0 31.887865,5.3088179 Z m 0,23.3569561 A 3.3352162,3.3352162 0 0 1 35.22209,32 3.3352162,3.3352162 0 0 1 31.887865,35.334226 3.3352162,3.3352162 0 0 1 28.553639,32 3.3352162,3.3352162 0 0 1 31.887865,28.665774 Z" />
  <path
     style="opacity:0.3;fill:#ffffff;stroke-width:1.11213"
     d="m 32.605063,5.3182961 c -1.198741,-0.031153 -2.391372,0.048075 -3.576514,0.1769314 L 31.316002,26.70789 c 1.088072,-0.118019 2.221369,0.08072 3.241617,0.669809 0.483758,0.279321 0.886127,0.639176 1.24483,1.029986 L 51.549234,13.949962 C 49.757902,11.999917 47.644815,10.282631 45.230299,8.8884946 41.24154,6.5853933 36.906765,5.4300866 32.605063,5.3182961 Z"
     id="path4" />
  <path
     style="opacity:0.3;fill:#ffffff;stroke-width:1.11213"
     d="m 15.36069,11.065369 c -2.581332,2.036521 -4.839983,4.57115 -6.5843287,7.592198 -1.0843682,1.878025 -1.8841096,3.836965 -2.4707039,5.829219 l 20.4733506,6.012467 c 0.11733,-0.399154 0.269336,-0.792793 0.48656,-1.169005 0.348891,-0.604251 0.804221,-1.106232 1.320655,-1.513386 z"
     id="path5" />
  <path
     id="circle5"
     style="fill:#ffffff;stroke-width:1.11213"
     d="M 31.887865,23.102939 A 8.8970607,8.8970607 0 0 0 22.990804,32 8.8970607,8.8970607 0 0 0 31.887865,40.897061 8.8970607,8.8970607 0 0 0 40.784925,32 8.8970607,8.8970607 0 0 0 31.887865,23.102939 Z m 0,5.565007 A 3.3312178,3.3312178 0 0 1 35.219918,32 3.3312178,3.3312178 0 0 1 31.887865,35.332054 3.3312178,3.3312178 0 0 1 28.555811,32 3.3312178,3.3312178 0 0 1 31.887865,28.667946 Z" />
  <path
     id="path6"
     style="fill:#5e5c64;stroke-width:1.11213"
     d="m 31.79691,27.552939 c -0.358151,0.0087 -0.713144,0.05974 -1.057829,0.152049 -1.102994,0.295345 -2.097057,1.00681 -2.708652,2.0657 -1.223188,2.117779 -0.485998,4.863554 1.631273,6.086319 2.117888,1.223126 4.861313,0.485879 6.084147,-1.631273 1.223184,-2.117776 0.483822,-4.859209 -1.633445,-6.081975 -0.727699,-0.418775 -1.527566,-0.609675 -2.315494,-0.59082 z m 0.139016,2.699963 c 0.281477,0.0073 0.564304,0.08212 0.825411,0.232418 0.835549,0.482674 1.121182,1.551445 0.638607,2.387175 -0.482572,0.835723 -1.549455,1.121277 -2.385002,0.638607 -0.83555,-0.482681 -1.121176,-1.549275 -0.638608,-2.385002 0.331771,-0.574566 0.940345,-0.88924 1.559592,-0.873198 z" />
  <path
     style="opacity:0.3;fill:#ffffff;stroke-width:1.11213"
     d="m 42.171933,7.3972258 -8.23673,19.7024382 c 0.20897,0.08739 0.42108,0.161793 0.622416,0.278035 1.021627,0.589886 1.760933,1.474243 2.202147,2.477022 L 56.282117,21.248334 C 54.076551,16.233267 50.338647,11.838044 45.230299,8.8884946 44.231673,8.3118906 43.208107,7.8316706 42.171933,7.3972258 Z"
     id="path8" />
  <path
     d="m 40.644531,12 c -0.02158,-2.37e-4 -0.04295,0.0019 -0.06445,0.0039 -0.395958,0.03172 -0.664775,0.42107 -0.556641,0.806641 1.793627,6.39569 5.114583,19.918214 6.457032,25.429687 A 8,7 0 0 0 44.400391,38 a 8,7 0 0 0 -8,7 8,7 0 0 0 8,7 8,7 0 0 0 7.99414,-6.738281 c 0.08887,-0.361031 0.09458,-0.752085 -0.03516,-1.16211 -0.0183,-0.05784 -0.0363,-0.116621 -0.05469,-0.175781 A 8,7 0 0 0 51.91601,42.599609 c -1.525005,-5.431301 -3.295093,-14.433646 -4.78125,-19.457031 1.577788,0.667862 3.251415,1.036047 4.808593,1.738281 2.001666,0.902686 3.56909,2.030853 4.826172,6.226563 0.210328,0.686384 1.210259,0.550171 1.230469,-0.167969 0.0017,-0.08092 -0.0301,-0.117526 -0.0293,-0.197266 h 0.002 v -0.002 -0.002 h -0.002 c 0.0433,-4.570074 -0.906346,-6.860213 -2.863272,-8.585843 C 53.115466,20.39582 50.538716,19.592402 48.009766,18.341797 45.663208,17.181414 42.953009,14.681837 41.130859,12.253906 41.015459,12.099166 40.836407,12.005229 40.644531,12 Z"
     style="mix-blend-mode:normal;fill:none;stroke:#000000;stroke-width:0.2;stroke-dasharray:none;stroke-opacity:1;filter:url(#filter7)"
     id="path3"
     transform="matrix(1.1121326,0,0,1.1121326,-3.7003784,-3.5882429)" />
  <path
     d="m 41.501729,9.7573482 c -0.024,-2.636e-4 -0.04777,0.00211 -0.07168,0.00434 -0.440358,0.035277 -0.739318,0.4682858 -0.619058,0.8970918 1.994751,7.112856 5.688094,22.151695 7.181075,28.281184 a 8.8970607,7.7849282 0 0 0 -2.313325,-0.267165 8.8970607,7.7849282 0 0 0 -8.897061,7.784928 8.8970607,7.7849282 0 0 0 8.897061,7.784928 8.8970607,7.7849282 0 0 0 8.890543,-7.493862 c 0.09883,-0.401514 0.105186,-0.836418 -0.0391,-1.29242 -0.02035,-0.06433 -0.04037,-0.129698 -0.06082,-0.195492 A 8.8970607,7.7849282 0 0 0 54.03711,43.788174 c -1.696007,-6.040327 -3.66458,-16.052128 -5.317384,-21.638799 1.75471,0.742751 3.616005,1.152222 5.347793,1.933199 2.226118,1.003907 3.969302,2.258578 5.367344,6.924764 0.233912,0.76335 1.345968,0.611863 1.368444,-0.186804 0.0019,-0.08999 -0.03348,-0.130704 -0.03259,-0.219386 h 0.0022 v -0.0022 -0.0022 h -0.0022 C 60.818863,25.514064 59.762743,22.96723 57.586382,21.048101 55.371063,19.094613 52.505375,18.201106 49.692847,16.810267 47.083163,15.519768 44.069063,12.739907 42.04259,10.039725 41.91425,9.867634 41.715121,9.7631636 41.501729,9.7573482 Z"
     style="fill:url(#radialGradient11);fill-opacity:1;stroke-width:1.11213"
     id="path1" />
  <path
     d="M 32,8 A 24,24 0 0 0 8,32 24,24 0 0 0 32,56 24,24 0 0 0 45.339844,51.951172 8,7 0 0 1 44.400391,52 a 8,7 0 0 1 -8,-7 8,7 0 0 1 8,-7 8,7 0 0 1 2.080078,0.240234 C 45.13802,32.728761 41.817064,19.206237 40.023437,12.810547 c -0.108134,-0.385571 0.160683,-0.774921 0.556641,-0.806641 0.0215,-0.002 0.04287,-0.0041 0.06445,-0.0039 0.191876,0.0052 0.370928,0.09917 0.486328,0.253906 1.82215,2.427931 4.532349,4.927508 6.878907,6.087891 1.691058,0.836254 3.388928,1.490681 4.933593,2.345703 0.0937,0.05191 0.206402,0.08896 0.298828,0.142578 A 24,24 0 0 0 32,8 Z m 15.134766,15.142578 c 1.486157,5.023385 3.256245,14.02573 4.78125,19.457031 a 8,7 0 0 1 0.388671,1.324219 c 0.01839,0.05916 0.03639,0.117941 0.05469,0.175781 0.04929,0.155778 0.07874,0.30929 0.0918,0.458985 A 24,24 0 0 0 56,32 24,24 0 0 0 55.732422,28.423828 c -2.73e-4,-5.36e-4 2.72e-4,-0.0014 0,-0.002 -0.131772,-0.258949 -0.266563,-0.497459 -0.404297,-0.71875 -5.03e-4,-8.07e-4 -0.0015,-0.0011 -0.002,-0.002 -0.137696,-0.221084 -0.27803,-0.425319 -0.421875,-0.613281 -5.81e-4,-7.59e-4 -0.0014,-0.0012 -0.002,-0.002 -0.02167,-0.02829 -0.0446,-0.05052 -0.06641,-0.07813 -0.123006,-0.155652 -0.24741,-0.306148 -0.375,-0.441406 -0.150783,-0.159845 -0.305524,-0.30781 -0.46289,-0.443359 -0.629464,-0.542196 -1.311987,-0.907254 -2.054688,-1.242188 -1.557178,-0.702234 -3.230805,-1.070419 -4.808593,-1.738281 z m -15.091797,7.287109 c 0.253096,0.0066 0.507407,0.07384 0.742187,0.208985 0.751304,0.434008 1.008137,1.395018 0.574219,2.146484 -0.433916,0.75146 -1.393229,1.008223 -2.144531,0.574219 -0.751304,-0.434013 -1.008131,-1.393067 -0.574219,-2.144531 0.29832,-0.516634 0.845533,-0.799582 1.402344,-0.785157 z"
     style="mix-blend-mode:normal;fill:none;stroke:#000000;stroke-width:0.2;stroke-dasharray:none;stroke-opacity:1;filter:url(#filter7)"
     id="path7"
     transform="matrix(1.1121326,0,0,1.1121326,-3.7003784,-3.5882429)" />
</svg>
