<?xml version="1.0" encoding="UTF-8" standalone="no"?>
<svg
   width="64"
   height="64"
   version="1"
   id="svg8"
   sodipodi:docname="kdeconnect.svg"
   inkscape:version="1.4.2 (ebf0e940d0, 2025-05-08)"
   xmlns:inkscape="http://www.inkscape.org/namespaces/inkscape"
   xmlns:sodipodi="http://sodipodi.sourceforge.net/DTD/sodipodi-0.dtd"
   xmlns:xlink="http://www.w3.org/1999/xlink"
   xmlns="http://www.w3.org/2000/svg"
   xmlns:svg="http://www.w3.org/2000/svg">
  <defs
     id="defs8">
    <inkscape:path-effect
       effect="fillet_chamfer"
       id="path-effect9"
       is_visible="true"
       lpeversion="1"
       nodesatellites_param="F,0,0,1,0,1.6044807,0,1 @ F,0,0,1,0,1.6044807,0,1 @ F,0,0,1,0,1.6044807,0,1 @ F,0,0,1,0,1.6044807,0,1 @ F,0,1,1,0,0.55940852,0,1 @ F,0,0,1,0,1.6044807,0,1 @ F,0,0,1,0,1.6044807,0,1 @ F,0,1,1,0,0.55940852,0,1 @ F,0,0,1,0,1.6044807,0,1 @ F,0,0,1,0,1.6044807,0,1 @ F,0,1,1,0,0.55940852,0,1 | F,0,0,1,0,0.67176686,0,1 @ F,0,0,1,0,0.67176686,0,1 @ F,0,0,1,0,0.67176686,0,1 @ F,0,0,1,0,0.67176686,0,1 @ F,0,0,1,0,0.67176686,0,1 @ F,0,0,1,0,0.67176686,0,1 @ F,0,0,1,0,0.67176686,0,1 @ F,0,0,1,0,0.67176686,0,1 @ F,0,0,1,0,0.67176686,0,1 @ F,0,0,1,0,0.67176686,0,1 @ F,0,0,1,0,0.67176686,0,1 @ F,0,0,1,0,0.67176686,0,1 @ F,0,0,1,0,0.67176686,0,1 @ F,0,0,1,0,0.67176686,0,1 @ F,0,0,1,0,0.67176686,0,1 @ F,0,0,1,0,0.67176686,0,1 @ F,0,0,1,0,0.67176686,0,1 @ F,0,0,1,0,0.67176686,0,1 @ F,0,0,1,0,0.67176686,0,1 @ F,0,0,1,0,0.67176686,0,1 @ F,0,0,1,0,0.67176686,0,1 @ F,0,0,1,0,0.67176686,0,1 @ F,0,0,1,0,0.67176686,0,1 @ F,0,0,1,0,0.67176686,0,1 @ F,0,0,1,0,0.67176686,0,1 @ F,0,0,1,0,0.67176686,0,1 @ F,0,0,1,0,0.67176686,0,1 @ F,0,0,1,0,0.67176686,0,1 @ F,0,0,1,0,0.67176686,0,1 @ F,0,0,1,0,0.67176686,0,1 @ F,0,0,1,0,0.67176686,0,1 @ F,0,0,1,0,0.6718,0,1 @ F,0,0,1,0,0.67176686,0,1 @ F,0,0,1,0,0.67176686,0,1 @ F,0,0,1,0,0.67176686,0,1 @ F,0,0,1,0,0.67176686,0,1 @ F,0,0,1,0,0.67176686,0,1 @ F,0,0,1,0,0.67176686,0,1"
       radius="0"
       unit="px"
       method="auto"
       mode="F"
       chamfer_steps="1"
       flexible="false"
       use_knot_distance="true"
       apply_no_radius="true"
       apply_with_radius="true"
       only_selected="false"
       hide_knots="false" />
    <linearGradient
       id="linearGradient8"
       inkscape:collect="always">
      <stop
         style="stop-color:#616161;stop-opacity:1;"
         offset="0"
         id="stop8" />
      <stop
         style="stop-color:#353535;stop-opacity:1;"
         offset="1"
         id="stop9" />
    </linearGradient>
    <radialGradient
       inkscape:collect="always"
       xlink:href="#linearGradient8"
       id="radialGradient9"
       cx="11.937752"
       cy="50.745003"
       fx="11.937752"
       fy="50.745003"
       r="20"
       gradientTransform="matrix(1.4331818,0,0,2.1497727,-1.4548927,-51.048022)"
       gradientUnits="userSpaceOnUse" />
    <inkscape:path-effect
       effect="fillet_chamfer"
       id="path-effect9-5"
       is_visible="true"
       lpeversion="1"
       nodesatellites_param="F,0,0,1,0,1.6044807,0,1 @ F,0,0,1,0,1.6044807,0,1 @ F,0,0,1,0,1.6044807,0,1 @ F,0,0,1,0,1.6044807,0,1 @ F,0,1,1,0,0.55940852,0,1 @ F,0,0,1,0,1.6044807,0,1 @ F,0,0,1,0,1.6044807,0,1 @ F,0,1,1,0,0.55940852,0,1 @ F,0,0,1,0,1.6044807,0,1 @ F,0,0,1,0,1.6044807,0,1 @ F,0,1,1,0,0.55940852,0,1 | F,0,0,1,0,0.67176686,0,1 @ F,0,0,1,0,0.67176686,0,1 @ F,0,0,1,0,0.67176686,0,1 @ F,0,0,1,0,0.67176686,0,1 @ F,0,0,1,0,0.67176686,0,1 @ F,0,0,1,0,0.67176686,0,1 @ F,0,0,1,0,0.67176686,0,1 @ F,0,0,1,0,0.67176686,0,1 @ F,0,0,1,0,0.67176686,0,1 @ F,0,0,1,0,0.67176686,0,1 @ F,0,0,1,0,0.67176686,0,1 @ F,0,0,1,0,0.67176686,0,1 @ F,0,0,1,0,0.67176686,0,1 @ F,0,0,1,0,0.67176686,0,1 @ F,0,0,1,0,0.67176686,0,1 @ F,0,0,1,0,0.67176686,0,1 @ F,0,0,1,0,0.67176686,0,1 @ F,0,0,1,0,0.67176686,0,1 @ F,0,0,1,0,0.67176686,0,1 @ F,0,0,1,0,0.67176686,0,1 @ F,0,0,1,0,0.67176686,0,1 @ F,0,0,1,0,0.67176686,0,1 @ F,0,0,1,0,0.67176686,0,1 @ F,0,0,1,0,0.67176686,0,1 @ F,0,0,1,0,0.67176686,0,1 @ F,0,0,1,0,0.67176686,0,1 @ F,0,0,1,0,0.67176686,0,1 @ F,0,0,1,0,0.67176686,0,1 @ F,0,0,1,0,0.67176686,0,1 @ F,0,0,1,0,0.67176686,0,1 @ F,0,0,1,0,0.67176686,0,1 @ F,0,0,1,0,0.67176686,0,1 @ F,0,0,1,0,0.6718,0,1 @ F,0,0,1,0,0.67176686,0,1 @ F,0,0,1,0,0.67176686,0,1 @ F,0,0,1,0,0.67176686,0,1 @ F,0,0,1,0,0.67176686,0,1 @ F,0,0,1,0,0.67176686,0,1 @ F,0,0,1,0,0.67176686,0,1"
       radius="0"
       unit="px"
       method="auto"
       mode="F"
       chamfer_steps="1"
       flexible="false"
       use_knot_distance="true"
       apply_no_radius="true"
       apply_with_radius="true"
       only_selected="false"
       hide_knots="false" />
    <radialGradient
       inkscape:collect="always"
       xlink:href="#linearGradient3"
       id="radialGradient11"
       cx="14.97054"
       cy="49.448601"
       fx="14.97054"
       fy="49.448601"
       r="18.019419"
       gradientTransform="matrix(2.484064,-2.6394933,3.850519,4.0914482,-209.70302,-106.58016)"
       gradientUnits="userSpaceOnUse" />
    <inkscape:path-effect
       effect="fillet_chamfer"
       id="path-effect9-2"
       is_visible="true"
       lpeversion="1"
       nodesatellites_param="F,0,0,1,0,1.6044807,0,1 @ F,0,0,1,0,1.6044807,0,1 @ F,0,0,1,0,1.6044807,0,1 @ F,0,0,1,0,1.6044807,0,1 @ F,0,1,1,0,0.55940852,0,1 @ F,0,0,1,0,1.6044807,0,1 @ F,0,0,1,0,1.6044807,0,1 @ F,0,1,1,0,0.55940852,0,1 @ F,0,0,1,0,1.6044807,0,1 @ F,0,0,1,0,1.6044807,0,1 @ F,0,1,1,0,0.55940852,0,1 | F,0,0,1,0,0.67176686,0,1 @ F,0,0,1,0,0.67176686,0,1 @ F,0,0,1,0,0.67176686,0,1 @ F,0,0,1,0,0.67176686,0,1 @ F,0,0,1,0,0.67176686,0,1 @ F,0,0,1,0,0.67176686,0,1 @ F,0,0,1,0,0.67176686,0,1 @ F,0,0,1,0,0.67176686,0,1 @ F,0,0,1,0,0.67176686,0,1 @ F,0,0,1,0,0.67176686,0,1 @ F,0,0,1,0,0.67176686,0,1 @ F,0,0,1,0,0.67176686,0,1 @ F,0,0,1,0,0.67176686,0,1 @ F,0,0,1,0,0.67176686,0,1 @ F,0,0,1,0,0.67176686,0,1 @ F,0,0,1,0,0.67176686,0,1 @ F,0,0,1,0,0.67176686,0,1 @ F,0,0,1,0,0.67176686,0,1 @ F,0,0,1,0,0.67176686,0,1 @ F,0,0,1,0,0.67176686,0,1 @ F,0,0,1,0,0.67176686,0,1 @ F,0,0,1,0,0.67176686,0,1 @ F,0,0,1,0,0.67176686,0,1 @ F,0,0,1,0,0.67176686,0,1 @ F,0,0,1,0,0.67176686,0,1 @ F,0,0,1,0,0.67176686,0,1 @ F,0,0,1,0,0.67176686,0,1 @ F,0,0,1,0,0.67176686,0,1 @ F,0,0,1,0,0.67176686,0,1 @ F,0,0,1,0,0.67176686,0,1 @ F,0,0,1,0,0.67176686,0,1 @ F,0,0,1,0,0.6718,0,1 @ F,0,0,1,0,0.67176686,0,1 @ F,0,0,1,0,0.67176686,0,1 @ F,0,0,1,0,0.67176686,0,1 @ F,0,0,1,0,0.67176686,0,1 @ F,0,0,1,0,0.67176686,0,1 @ F,0,0,1,0,0.67176686,0,1"
       radius="0"
       unit="px"
       method="auto"
       mode="F"
       chamfer_steps="1"
       flexible="false"
       use_knot_distance="true"
       apply_no_radius="true"
       apply_with_radius="true"
       only_selected="false"
       hide_knots="false" />
    <filter
       inkscape:collect="always"
       style="color-interpolation-filters:sRGB"
       id="filter1"
       x="-0.090624449"
       y="-0.055021328"
       width="1.1812489"
       height="1.1100427">
      <feGaussianBlur
         inkscape:collect="always"
         stdDeviation="1.0033491"
         id="feGaussianBlur1" />
    </filter>
    <filter
       inkscape:collect="always"
       style="color-interpolation-filters:sRGB"
       id="filter2"
       x="-0.091177025"
       y="-0.060784681"
       width="1.1823541"
       height="1.1215694">
      <feGaussianBlur
         inkscape:collect="always"
         stdDeviation="1.298401"
         id="feGaussianBlur2" />
    </filter>
    <linearGradient
       id="linearGradient3"
       inkscape:collect="always">
      <stop
         style="stop-color:#006fff;stop-opacity:1;"
         offset="0"
         id="stop3" />
      <stop
         style="stop-color:#00abff;stop-opacity:1;"
         offset="1"
         id="stop4" />
    </linearGradient>
    <filter
       inkscape:collect="always"
       style="color-interpolation-filters:sRGB"
       id="filter5"
       x="-0.047547325"
       y="-0.044541249"
       width="1.0950794"
       height="1.0890824">
      <feGaussianBlur
         inkscape:collect="always"
         stdDeviation="0.83425679"
         id="feGaussianBlur5" />
    </filter>
  </defs>
  <sodipodi:namedview
     id="namedview8"
     pagecolor="#ffffff"
     bordercolor="#000000"
     borderopacity="0.25"
     inkscape:showpageshadow="2"
     inkscape:pageopacity="0.0"
     inkscape:pagecheckerboard="0"
     inkscape:deskcolor="#d1d1d1"
     inkscape:zoom="9.7669124"
     inkscape:cx="32.200555"
     inkscape:cy="31.483849"
     inkscape:window-width="3440"
     inkscape:window-height="1385"
     inkscape:window-x="0"
     inkscape:window-y="0"
     inkscape:window-maximized="1"
     inkscape:current-layer="svg8" />
  <rect
     style="opacity:1;fill:url(#radialGradient9);stroke-width:0.94742"
     width="37.896923"
     height="56.845383"
     x="13.049604"
     y="3.5753784"
     id="rect1-3"
     rx="5.4643006"
     ry="5.4643006" />
  <rect
     style="fill:url(#radialGradient11);stroke-width:0.970398"
     width="29.861605"
     height="49.18441"
     x="17.067263"
     y="7.4058661"
     id="rect2"
     rx="3.270854"
     ry="3.270854" />
  <rect
     style="mix-blend-mode:normal;fill:none;stroke:#000000;stroke-width:0.3;stroke-dasharray:none;stroke-opacity:1;filter:url(#filter2)"
     width="35.822208"
     height="53.733315"
     x="14.122299"
     y="5.1666551"
     id="rect1-3-6"
     rx="5.1651506"
     ry="5.1651506"
     transform="matrix(1.057917,0,0,1.057917,-1.8552772,-1.8552719)" />
  <rect
     style="mix-blend-mode:normal;fill:none;stroke:#000000;stroke-width:0.3;stroke-dasharray:none;stroke-opacity:1;filter:url(#filter1)"
     width="28.226795"
     height="46.491749"
     x="17.920006"
     y="8.7874384"
     id="rect2-2"
     rx="3.0917871"
     ry="3.0917871"
     transform="matrix(1.057917,0,0,1.057917,-1.8552772,-1.8552719)" />
  <g
     id="g1"
     transform="matrix(0.38540677,0,0,0.38540677,19.022949,21.134618)">
    <path
       d="m 37.590135,2.3874115 a 1.8804533,1.8804533 0 0 0 -0.248611,0.019505 l -4.72359,0.7165822 A 2.5423862,2.5423862 0 0 0 30.456002,5.636409 v 28.358606 a 1.6767894,1.6767894 0 0 0 2.110748,1.618403 l 4.825959,-1.296673 a 2.8511862,2.8511862 0 0 0 2.110748,-2.751772 v -9.729914 a 0.2014616,0.2014616 0 0 1 0.375353,-0.102367 l 7.850714,13.161707 a 1.8034007,1.8034007 0 0 0 2.213118,0.753142 l 5.62541,-2.225304 a 1.581608,1.581608 0 0 0 0.633713,-2.48367 L 47.295676,20.250773 A 1.9587134,1.9587134 0 0 1 47.246932,17.80367 L 56.272451,6.080001 A 1.4441684,1.4441684 0 0 0 55.48762,3.8010758 L 50.944393,2.6262718 A 2.9911486,2.9911486 0 0 0 47.663716,3.9326932 L 39.893433,16.297386 A 0.21057162,0.21057162 0 0 1 39.503457,16.185273 V 4.266615 A 1.8804533,1.8804533 0 0 0 37.590135,2.3874165 Z M 21.079503,10.957145 c -0.213979,0 -0.428195,0.08209 -0.592276,0.246173 l -3.556098,3.558535 c -0.328162,0.328161 -0.249161,0.795455 0,1.186991 l 3.219744,5.055071 c 0.254538,0.399684 0.294803,1.070561 0.114559,1.508722 -0.03282,0.07978 -0.06562,0.157103 -0.09505,0.231549 -0.174117,0.440283 -0.670815,0.886707 -1.13337,0.989565 l -5.837461,1.299109 c -0.453041,0.100695 -0.840887,0.3768 -0.840887,0.840887 v 2.220429 2.222866 c 0,0.464087 0.387849,0.740213 0.840887,0.840887 l 5.837461,1.296672 c 0.462555,0.102854 0.960257,0.550485 1.138244,0.989565 0.0317,0.07818 0.0649,0.156155 0.0975,0.233986 0.182979,0.437002 0.13281,1.111564 -0.121872,1.511159 l -3.219744,5.050196 c -0.24916,0.391537 -0.328161,0.861268 0,1.189429 l 3.556098,3.556098 c 0.328162,0.32816 0.856386,0.32816 1.184554,0 l 5.047759,-3.214869 c 0.399638,-0.254598 1.068746,-0.291461 1.506277,-0.10968 0.09565,0.03975 0.188435,0.07648 0.277858,0.112113 0.439893,0.17527 0.886935,0.675639 0.989565,1.138244 l 1.294235,5.835023 c 0,0.46409 0.374365,0.83845 0.838449,0.83845 h 5.023386 c 0.464087,0 0.740213,-0.385413 0.840886,-0.83845 l 1.29911,-6.037323 c 0.09973,-0.463239 0.541939,-0.97031 0.974941,-1.162618 0.140884,-0.06257 0.280378,-0.128019 0.419225,-0.194988 0.42674,-0.205829 1.074569,-0.170873 1.459974,0.1048 l 4.935641,3.529288 c 0.328163,0.32816 0.853956,0.32816 1.182116,0 l 3.558535,-3.556088 c 0.328164,-0.328161 0.249161,-0.797892 0,-1.189429 l -1.884073,-3.32455 c -0.799056,0.295434 -1.653574,-0.04923 -2.135122,-0.694645 -0.08702,-0.116631 -0.201693,-0.322864 -0.275421,-0.448473 l -1.559906,-2.656715 c -0.07373,-0.12561 -0.177395,-0.118528 -0.236423,0.01463 -1.651063,3.724245 -5.07629,6.488783 -9.203446,7.217003 -1.187699,0.209565 -3.162959,0.209457 -4.350675,0 C 25.840547,39.317898 21.40855,34.223419 21.40855,28.094182 c 0,-5.272844 3.285489,-9.768371 7.916524,-11.579865 0.01,-0.409444 10e-4,-1.140917 -0.0074,-1.701272 -0.0057,-0.384644 -0.305124,-0.594783 -0.66296,-0.453348 -0.194914,0.07703 -0.389604,0.156806 -0.582528,0.238861 -0.354054,0.150585 -0.901477,0.109305 -1.225989,-0.0975 l -4.669935,-2.976014 c -0.277702,-0.176969 -0.711961,-0.541155 -1.033438,-0.565466 -0.02071,-0.0016 -0.04262,-0.0025 -0.06337,-0.0025 z"
       style="fill:#ffffff;fill-opacity:1;stroke-width:1.24792"
       id="path2-2" />
    <path
       d="m 37.590544,2.387414 a 1.8804533,1.8804533 0 0 0 -0.248611,0.019505 l -4.72359,0.7165822 A 2.5423862,2.5423862 0 0 0 30.456411,5.636411 v 28.358607 a 1.6767894,1.6767894 0 0 0 2.110748,1.618403 l 4.825959,-1.296673 a 2.8511862,2.8511862 0 0 0 2.110748,-2.751772 v -9.729914 a 0.2014616,0.2014616 0 0 1 0.375353,-0.102367 l 7.850714,13.161707 a 1.8034007,1.8034007 0 0 0 2.213118,0.753142 l 5.62541,-2.225304 a 1.581608,1.581608 0 0 0 0.633713,-2.48367 L 47.296085,20.250776 a 1.9587134,1.9587134 0 0 1 -0.04874,-2.447103 L 56.27286,6.080003 A 1.4441684,1.4441684 0 0 0 55.488029,3.8010783 L 50.944802,2.6262743 A 2.9911486,2.9911486 0 0 0 47.664125,3.9326957 L 39.893842,16.297389 A 0.21057162,0.21057162 0 0 1 39.503866,16.185276 V 4.266617 A 1.8804533,1.8804533 0 0 0 37.590544,2.387419 Z m -16.510632,8.569734 c -0.213979,0 -0.428195,0.08209 -0.592276,0.246173 l -3.556098,3.558535 c -0.328162,0.328161 -0.249161,0.795455 0,1.186991 l 3.219744,5.055071 c 0.254538,0.399684 0.294803,1.070561 0.114559,1.508722 -0.03282,0.07978 -0.06562,0.157103 -0.09505,0.231549 -0.174117,0.440283 -0.670815,0.886707 -1.13337,0.989565 l -5.837461,1.299109 c -0.453041,0.100695 -0.840887,0.3768 -0.840887,0.840887 v 2.220429 2.222866 c 0,0.464087 0.387849,0.740213 0.840887,0.840887 l 5.837461,1.296672 c 0.462555,0.102854 0.960257,0.550485 1.138244,0.989565 0.0317,0.07818 0.0649,0.156155 0.0975,0.233986 0.182979,0.437002 0.13281,1.111564 -0.121872,1.511159 l -3.219744,5.050196 c -0.24916,0.391537 -0.328161,0.861268 0,1.189429 l 3.556098,3.556098 c 0.328162,0.32816 0.856386,0.32816 1.184554,0 l 5.047759,-3.214869 c 0.399638,-0.254598 1.068746,-0.291461 1.506277,-0.10968 0.09565,0.03975 0.188435,0.07648 0.277858,0.112113 0.439893,0.17527 0.886935,0.675639 0.989565,1.138244 l 1.294235,5.835023 c 0,0.46409 0.374365,0.83845 0.838449,0.83845 h 5.023386 c 0.464087,0 0.740213,-0.385413 0.840886,-0.83845 l 1.29911,-6.037323 c 0.09973,-0.463239 0.541939,-0.97031 0.974941,-1.162618 0.140884,-0.06257 0.280378,-0.128019 0.419225,-0.194988 0.42674,-0.205829 1.074569,-0.170873 1.459974,0.1048 l 4.935641,3.529288 c 0.328163,0.32816 0.853956,0.32816 1.182116,0 l 3.558535,-3.556088 c 0.328164,-0.328161 0.249161,-0.797892 0,-1.189429 l -1.884073,-3.32455 c -0.799056,0.295434 -1.653574,-0.04923 -2.135122,-0.694645 -0.08702,-0.116631 -0.201693,-0.322864 -0.275421,-0.448473 l -1.559906,-2.656715 c -0.07373,-0.12561 -0.177395,-0.118528 -0.236423,0.01463 -1.651063,3.724245 -5.07629,6.488783 -9.203446,7.217003 -1.187699,0.209565 -3.162959,0.209457 -4.350675,0 -5.834136,-1.028859 -10.266133,-6.123338 -10.266133,-12.252575 0,-5.272844 3.285489,-9.768371 7.916524,-11.579865 0.01,-0.409444 0.001,-1.140917 -0.0074,-1.701272 -0.0057,-0.384644 -0.305124,-0.594783 -0.66296,-0.453348 -0.194914,0.07703 -0.389604,0.156806 -0.582528,0.238861 -0.354054,0.150585 -0.901477,0.109305 -1.225989,-0.0975 l -4.669935,-2.976014 c -0.277702,-0.176969 -0.711961,-0.541155 -1.033438,-0.565466 -0.02071,-0.0016 -0.04262,-0.0025 -0.06337,-0.0025 z"
       style="fill:none;fill-opacity:1;stroke:#0026ff;stroke-width:0.2;stroke-dasharray:none;stroke-opacity:1;filter:url(#filter5)"
       id="path2-2-0" />
  </g>
</svg>
