<?xml version="1.0" encoding="UTF-8" standalone="no"?>
<svg
   width="64"
   height="64"
   version="1"
   id="svg8"
   sodipodi:docname="etcher.svg"
   inkscape:version="1.4.2 (ebf0e940d0, 2025-05-08)"
   xmlns:inkscape="http://www.inkscape.org/namespaces/inkscape"
   xmlns:sodipodi="http://sodipodi.sourceforge.net/DTD/sodipodi-0.dtd"
   xmlns:xlink="http://www.w3.org/1999/xlink"
   xmlns="http://www.w3.org/2000/svg"
   xmlns:svg="http://www.w3.org/2000/svg">
  <defs
     id="defs8">
    <inkscape:path-effect
       effect="fillet_chamfer"
       id="path-effect10"
       is_visible="true"
       lpeversion="1"
       nodesatellites_param="F,0,0,1,0,2.5890967,0,1 @ F,0,0,1,0,2.5890967,0,1 @ F,0,0,1,0,2.5890967,0,1 @ F,0,0,1,0,2.5890967,0,1 @ F,0,0,1,0,2.5890967,0,1 @ F,0,0,1,0,2.5890967,0,1 | F,0,1,1,0,0.82830973,0,1 @ F,0,0,1,0,1.2044075,0,1 @ F,0,1,1,0,0.82830973,0,1 @ F,0,0,1,0,1.2044075,0,1 | F,0,0,1,0,1.2044075,0,1 @ F,0,1,1,0,0.82830973,0,1 @ F,0,0,1,0,1.2044075,0,1 @ F,0,1,1,0,0.82830973,0,1 | F,0,0,1,0,1.2044075,0,1 @ F,0,1,1,0,0.82830973,0,1 @ F,0,0,1,0,1.2044075,0,1 @ F,0,0,1,0,0.82830973,0,1"
       radius="0"
       unit="px"
       method="auto"
       mode="F"
       chamfer_steps="1"
       flexible="false"
       use_knot_distance="true"
       apply_no_radius="true"
       apply_with_radius="true"
       only_selected="false"
       hide_knots="false" />
    <linearGradient
       id="linearGradient8"
       inkscape:collect="always">
      <stop
         style="stop-color:#1caf3e;stop-opacity:1;"
         offset="0"
         id="stop7" />
      <stop
         style="stop-color:#0bbc66;stop-opacity:1;"
         offset="1"
         id="stop8" />
    </linearGradient>
    <inkscape:path-effect
       effect="fillet_chamfer"
       id="path-effect7"
       is_visible="true"
       lpeversion="1"
       nodesatellites_param="F,0,1,1,0,0,0,1 @ F,0,1,1,0,0,0,1 @ F,0,1,1,0,0,0,1 @ F,0,0,1,0,0,0,1 @ F,0,1,1,0,0,0,1 @ F,0,1,1,0,0,0,1"
       radius="0"
       unit="px"
       method="auto"
       mode="F"
       chamfer_steps="1"
       flexible="false"
       use_knot_distance="true"
       apply_no_radius="true"
       apply_with_radius="true"
       only_selected="false"
       hide_knots="false" />
    <inkscape:path-effect
       effect="fillet_chamfer"
       id="path-effect6"
       is_visible="true"
       lpeversion="1"
       nodesatellites_param="F,0,0,1,0,0,0,1 @ F,0,0,1,0,0,0,1 @ F,0,0,1,0,0,0,1 @ F,0,0,1,0,0,0,1 @ F,0,0,1,0,0,0,1 @ F,0,0,1,0,0,0,1"
       radius="0"
       unit="px"
       method="auto"
       mode="F"
       chamfer_steps="1"
       flexible="false"
       use_knot_distance="true"
       apply_no_radius="true"
       apply_with_radius="true"
       only_selected="false"
       hide_knots="false" />
    <inkscape:path-effect
       effect="fillet_chamfer"
       id="path-effect4"
       is_visible="true"
       lpeversion="1"
       nodesatellites_param="F,0,0,1,0,0,0,1 @ F,0,1,1,0,0,0,1 @ F,0,1,1,0,0,0,1 @ F,0,1,1,0,0,0,1 | F,0,1,1,0,0,0,1 @ F,0,1,1,0,0,0,1 @ F,0,1,1,0,0,0,1 @ F,0,1,1,0,0,0,1 | F,0,1,1,0,0,0,1 @ F,0,1,1,0,0,0,1 @ F,0,1,1,0,0,0,1 @ F,0,1,1,0,0,0,1"
       radius="0"
       unit="px"
       method="auto"
       mode="F"
       chamfer_steps="1"
       flexible="false"
       use_knot_distance="true"
       apply_no_radius="true"
       apply_with_radius="true"
       only_selected="false"
       hide_knots="false" />
    <inkscape:path-effect
       effect="fillet_chamfer"
       id="path-effect3"
       is_visible="true"
       lpeversion="1"
       nodesatellites_param="F,0,0,1,0,0,0,1 @ F,0,0,1,0,0,0,1 @ F,0,1,1,0,1.5109903,0,1 @ F,0,0,1,0,2.0700062,0,1 @ F,0,1,1,0,1.5109903,0,1 @ F,0,0,1,0,0,0,1 @ F,0,0,1,0,0,0,1 @ F,0,0,1,0,0,0,1 @ F,0,0,1,0,0,0,1 | F,0,1,1,0,1.5109903,0,1 @ F,0,0,1,0,0,0,1 @ F,0,0,1,0,0,0,1 @ F,0,1,1,0,1.5109903,0,1 @ F,0,0,1,0,2.0700062,0,1 | F,0,1,1,0,1.5109903,0,1 @ F,0,0,1,0,2.0700062,0,1 @ F,0,0,1,0,1.5109903,0,1 @ F,0,0,1,0,0,0,1 @ F,0,0,1,0,0,0,1"
       radius="0"
       unit="px"
       method="auto"
       mode="F"
       chamfer_steps="1"
       flexible="false"
       use_knot_distance="true"
       apply_no_radius="true"
       apply_with_radius="true"
       only_selected="false"
       hide_knots="false" />
    <linearGradient
       id="linearGradient12"
       inkscape:collect="always">
      <stop
         style="stop-color:#34e05d;stop-opacity:1;"
         offset="0"
         id="stop12" />
      <stop
         style="stop-color:#23f48d;stop-opacity:1;"
         offset="1"
         id="stop13" />
    </linearGradient>
    <inkscape:path-effect
       effect="fillet_chamfer"
       id="path-effect3-5"
       is_visible="true"
       lpeversion="1"
       nodesatellites_param="F,0,0,1,0,0,0,1 @ F,0,0,1,0,0,0,1 @ F,0,1,1,0,1.5109903,0,1 @ F,0,0,1,0,2.0700062,0,1 @ F,0,1,1,0,1.5109903,0,1 @ F,0,0,1,0,0,0,1 @ F,0,0,1,0,0,0,1 @ F,0,0,1,0,0,0,1 @ F,0,0,1,0,0,0,1 | F,0,1,1,0,1.5109903,0,1 @ F,0,0,1,0,0,0,1 @ F,0,0,1,0,0,0,1 @ F,0,1,1,0,1.5109903,0,1 @ F,0,0,1,0,2.0700062,0,1 | F,0,1,1,0,1.5109903,0,1 @ F,0,0,1,0,2.0700062,0,1 @ F,0,0,1,0,1.5109903,0,1 @ F,0,0,1,0,0,0,1 @ F,0,0,1,0,0,0,1"
       radius="0"
       unit="px"
       method="auto"
       mode="F"
       chamfer_steps="1"
       flexible="false"
       use_knot_distance="true"
       apply_no_radius="true"
       apply_with_radius="true"
       only_selected="false"
       hide_knots="false" />
    <radialGradient
       inkscape:collect="always"
       xlink:href="#linearGradient12"
       id="radialGradient6"
       cx="11.816791"
       cy="37.302246"
       fx="11.816791"
       fy="37.302246"
       r="10.876165"
       gradientTransform="matrix(2.7361458,0,0,2.7393671,-19.976366,-63.357535)"
       gradientUnits="userSpaceOnUse" />
    <inkscape:path-effect
       effect="fillet_chamfer"
       id="path-effect7-1"
       is_visible="true"
       lpeversion="1"
       nodesatellites_param="F,0,1,1,0,0,0,1 @ F,0,1,1,0,0,0,1 @ F,0,1,1,0,0,0,1 @ F,0,0,1,0,0,0,1 @ F,0,1,1,0,0,0,1 @ F,0,1,1,0,0,0,1"
       radius="0"
       unit="px"
       method="auto"
       mode="F"
       chamfer_steps="1"
       flexible="false"
       use_knot_distance="true"
       apply_no_radius="true"
       apply_with_radius="true"
       only_selected="false"
       hide_knots="false" />
    <radialGradient
       inkscape:collect="always"
       xlink:href="#linearGradient8"
       id="radialGradient6-3"
       cx="11.816791"
       cy="37.302246"
       fx="11.816791"
       fy="37.302246"
       r="10.876165"
       gradientTransform="matrix(2.7361458,0,0,2.7393671,-19.976366,-63.357535)"
       gradientUnits="userSpaceOnUse" />
    <inkscape:path-effect
       effect="fillet_chamfer"
       id="path-effect7-4"
       is_visible="true"
       lpeversion="1"
       nodesatellites_param="F,0,1,1,0,0,0,1 @ F,0,1,1,0,0,0,1 @ F,0,1,1,0,0,0,1 @ F,0,0,1,0,0,0,1 @ F,0,1,1,0,0,0,1 @ F,0,1,1,0,0,0,1"
       radius="0"
       unit="px"
       method="auto"
       mode="F"
       chamfer_steps="1"
       flexible="false"
       use_knot_distance="true"
       apply_no_radius="true"
       apply_with_radius="true"
       only_selected="false"
       hide_knots="false" />
    <inkscape:path-effect
       effect="fillet_chamfer"
       id="path-effect10-3"
       is_visible="true"
       lpeversion="1"
       nodesatellites_param="F,0,0,1,0,2.5890967,0,1 @ F,0,0,1,0,2.5890967,0,1 @ F,0,0,1,0,2.5890967,0,1 @ F,0,0,1,0,2.5890967,0,1 @ F,0,0,1,0,2.5890967,0,1 @ F,0,0,1,0,2.5890967,0,1 | F,0,1,1,0,0.82830973,0,1 @ F,0,0,1,0,1.2044075,0,1 @ F,0,1,1,0,0.82830973,0,1 @ F,0,0,1,0,1.2044075,0,1 | F,0,0,1,0,1.2044075,0,1 @ F,0,1,1,0,0.82830973,0,1 @ F,0,0,1,0,1.2044075,0,1 @ F,0,1,1,0,0.82830973,0,1 | F,0,0,1,0,1.2044075,0,1 @ F,0,1,1,0,0.82830973,0,1 @ F,0,0,1,0,1.2044075,0,1 @ F,0,0,1,0,0.82830973,0,1"
       radius="0"
       unit="px"
       method="auto"
       mode="F"
       chamfer_steps="1"
       flexible="false"
       use_knot_distance="true"
       apply_no_radius="true"
       apply_with_radius="true"
       only_selected="false"
       hide_knots="false" />
    <filter
       inkscape:collect="always"
       style="color-interpolation-filters:sRGB"
       id="filter10"
       x="-0.10028796"
       y="-0.091930214"
       width="1.2005759"
       height="1.1838604">
      <feGaussianBlur
         inkscape:collect="always"
         stdDeviation="0.88958142"
         id="feGaussianBlur10" />
    </filter>
  </defs>
  <sodipodi:namedview
     id="namedview8"
     pagecolor="#ffffff"
     bordercolor="#000000"
     borderopacity="0.25"
     inkscape:showpageshadow="2"
     inkscape:pageopacity="0.0"
     inkscape:pagecheckerboard="0"
     inkscape:deskcolor="#d1d1d1"
     inkscape:zoom="7.7444948"
     inkscape:cx="23.887936"
     inkscape:cy="33.055739"
     inkscape:window-width="1920"
     inkscape:window-height="1020"
     inkscape:window-x="0"
     inkscape:window-y="0"
     inkscape:window-maximized="1"
     inkscape:current-layer="svg8" />
  <g
     id="g1">
    <path
       id="path5-8"
       style="fill:url(#radialGradient6-3);stroke-width:0;stroke-linecap:round;stroke-linejoin:round"
       transform="matrix(1.8298644,0,0,1.8298644,-17.81482,-11.843326)"
       d="M 38.099396,30.239234 27.22323,36.518591 16.347065,30.239234 V 17.68052 L 27.22323,11.401163 38.099396,17.68052 Z"
       inkscape:original-d="M 38.099396,30.239234 27.22323,36.518591 16.347065,30.239234 V 17.68052 L 27.22323,11.401163 38.099396,17.68052 Z"
       inkscape:path-effect="#path-effect7-4" />
    <path
       id="path5"
       style="opacity:1;fill:url(#radialGradient6);stroke-width:0;stroke-linecap:round;stroke-linejoin:round"
       d="m 24.981041,12.695696 -6.391967,3.690633 a 4.4845857,4.4845857 119.99923 0 0 -2.242189,3.883705 v 7.379686 a 4.4845857,4.4845857 60.000767 0 0 2.242189,3.883705 l 6.391967,3.690633 a 4.48417,4.48417 1.1405747e-6 0 0 4.484378,0 l 6.391968,-3.690633 a 4.4845855,4.4845855 119.99923 0 0 2.242189,-3.883705 v -7.379686 a 4.4845855,4.4845855 60.000766 0 0 -2.242189,-3.883705 l -6.391968,-3.690633 a 4.48417,4.48417 180 0 0 -4.484378,0 z m 2.958637,2.172633 5.466528,3.15575 a 0.69528742,0.69528742 90 0 1 0,1.204306 l -5.466528,3.15575 a 1.4347443,1.4347443 0.00156205 0 1 -1.434692,-3.9e-5 l -5.465673,-3.155654 a 0.69537498,0.69537498 90 0 1 0,-1.20442 l 5.465673,-3.155654 a 1.4347443,1.4347443 179.99844 0 1 1.434692,-3.9e-5 z m 7.513072,6.701108 v 6.311328 a 1.4346847,1.4346847 119.99982 0 1 -0.717335,1.242469 l -5.465674,3.155654 a 0.69536005,0.69536005 29.999824 0 1 -1.043044,-0.602197 v -6.311329 a 1.4346847,1.4346847 119.99982 0 1 0.717335,-1.242469 l 5.465674,-3.155654 a 0.69536005,0.69536005 29.999824 0 1 1.043044,0.602198 z m -15.415971,-0.60133 5.464725,3.154814 a 1.4346187,1.4346187 59.999034 0 1 0.717351,1.242441 V 31.6776 a 0.69524056,0.69524056 150.00444 0 1 -1.042954,0.602042 l -5.464917,-3.156301 a 1.4349313,1.4349313 60.00444 0 1 -0.717273,-1.242576 l 0,-6.310419 a 0.69539207,0.69539207 149.99903 0 1 1.043068,-0.602239 z"
       transform="matrix(2.2711878,0,0,2.2711878,-29.82907,-22.41738)"
       inkscape:path-effect="#path-effect10"
       inkscape:original-d="m 27.22323,11.401088 -10.876345,6.279849 v 12.55788 l 10.876345,6.279849 10.876346,-6.279849 v -12.55788 z m -9.09e-4,3.053121 7.226962,4.172023 -7.226962,4.172023 -7.226052,-4.172023 z m 8.230429,5.91082 v 8.344046 l -7.226053,4.172023 v -8.344046 z m -16.459039,9.09e-4 7.225144,4.171114 v 8.344955 l -7.225144,-4.172932 z" />
    <path
       id="path5-1"
       style="mix-blend-mode:normal;fill:none;stroke:#000000;stroke-width:0.0930752;stroke-linecap:round;stroke-linejoin:round;stroke-dasharray:none;stroke-opacity:1;filter:url(#filter10)"
       d="m 24.981041,12.695696 -6.391967,3.690633 a 4.4845857,4.4845857 119.99923 0 0 -2.242189,3.883705 v 7.379686 a 4.4845857,4.4845857 60.000767 0 0 2.242189,3.883705 l 6.391967,3.690633 a 4.48417,4.48417 1.1405747e-6 0 0 4.484378,0 l 6.391968,-3.690633 a 4.4845855,4.4845855 119.99923 0 0 2.242189,-3.883705 v -7.379686 a 4.4845855,4.4845855 60.000766 0 0 -2.242189,-3.883705 l -6.391968,-3.690633 a 4.48417,4.48417 180 0 0 -4.484378,0 z m 2.958637,2.172633 5.466528,3.15575 a 0.69528742,0.69528742 90 0 1 0,1.204306 l -5.466528,3.15575 a 1.4347443,1.4347443 0.00156205 0 1 -1.434692,-3.9e-5 l -5.465673,-3.155654 a 0.69537498,0.69537498 90 0 1 0,-1.20442 l 5.465673,-3.155654 a 1.4347443,1.4347443 179.99844 0 1 1.434692,-3.9e-5 z m 7.513072,6.701108 v 6.311328 a 1.4346847,1.4346847 119.99982 0 1 -0.717335,1.242469 l -5.465674,3.155654 a 0.69536005,0.69536005 29.999824 0 1 -1.043044,-0.602197 v -6.311329 a 1.4346847,1.4346847 119.99982 0 1 0.717335,-1.242469 l 5.465674,-3.155654 a 0.69536005,0.69536005 29.999824 0 1 1.043044,0.602198 z m -15.415971,-0.60133 5.464725,3.154814 a 1.4346187,1.4346187 59.999034 0 1 0.717351,1.242441 V 31.6776 a 0.69524056,0.69524056 150.00444 0 1 -1.042954,0.602042 l -5.464917,-3.156301 a 1.4349313,1.4349313 60.00444 0 1 -0.717273,-1.242576 l 0,-6.310419 a 0.69539207,0.69539207 149.99903 0 1 1.043068,-0.602239 z"
       transform="matrix(2.2711878,0,0,2.2711878,-29.82907,-22.41738)"
       inkscape:path-effect="#path-effect10-3"
       inkscape:original-d="m 27.22323,11.401088 -10.876345,6.279849 v 12.55788 l 10.876345,6.279849 10.876346,-6.279849 v -12.55788 z m -9.09e-4,3.053121 7.226962,4.172023 -7.226962,4.172023 -7.226052,-4.172023 z m 8.230429,5.91082 v 8.344046 l -7.226053,4.172023 v -8.344046 z m -16.459039,9.09e-4 7.225144,4.171114 v 8.344955 l -7.225144,-4.172932 z" />
  </g>
</svg>
