<?xml version="1.0" encoding="UTF-8" standalone="no"?>
<svg
   width="64"
   height="64"
   version="1.1"
   id="svg5"
   sodipodi:docname="kdiskmark.svg"
   inkscape:version="1.4.2 (ebf0e940d0, 2025-05-08)"
   xmlns:inkscape="http://www.inkscape.org/namespaces/inkscape"
   xmlns:sodipodi="http://sodipodi.sourceforge.net/DTD/sodipodi-0.dtd"
   xmlns:xlink="http://www.w3.org/1999/xlink"
   xmlns="http://www.w3.org/2000/svg"
   xmlns:svg="http://www.w3.org/2000/svg">
  <defs
     id="defs5">
    <linearGradient
       id="linearGradient9"
       inkscape:collect="always">
      <stop
         style="stop-color:#e2e2e2;stop-opacity:1;"
         offset="0"
         id="stop9" />
      <stop
         style="stop-color:#ffffff;stop-opacity:1;"
         offset="1"
         id="stop10" />
    </linearGradient>
    <inkscape:path-effect
       effect="fillet_chamfer"
       id="path-effect8"
       is_visible="true"
       lpeversion="1"
       nodesatellites_param="F,0,0,1,0,0,0,1 @ F,0,0,1,0,0,0,1 @ F,0,1,1,0,2.554336,0,1 @ F,0,0,1,0,2.554336,0,1 @ F,0,0,1,0,0,0,1"
       radius="0"
       unit="px"
       method="auto"
       mode="F"
       chamfer_steps="1"
       flexible="false"
       use_knot_distance="true"
       apply_no_radius="true"
       apply_with_radius="true"
       only_selected="false"
       hide_knots="false" />
    <inkscape:path-effect
       effect="fillet_chamfer"
       id="path-effect7"
       is_visible="true"
       lpeversion="1"
       nodesatellites_param="F,0,0,1,0,0,0,1 @ F,0,0,1,0,0,0,1 @ F,0,0,1,0,0,0,1 @ F,0,0,1,0,0,0,1 @ F,0,0,1,0,0,0,1 @ F,0,0,1,0,0,0,1 @ F,0,0,1,0,0,0,1 @ F,0,0,1,0,0,0,1 @ F,0,0,1,0,0,0,1 @ F,0,0,1,0,0,0,1 | F,0,0,1,0,0,0,1 @ F,0,0,1,0,0,0,1 @ F,0,0,1,0,0,0,1 @ F,0,0,1,0,0,0,1 @ F,0,0,1,0,0,0,1 @ F,0,0,1,0,0,0,1 @ F,0,1,1,0,2.2354602,0,1 @ F,0,1,1,0,2.2354602,0,1 @ F,0,0,1,0,0,0,1 @ F,0,1,1,0,2.2354602,0,1 @ F,0,1,1,0,2.2354602,0,1 @ F,0,0,1,0,0,0,1 @ F,0,0,1,0,0,0,1 @ F,0,0,1,0,0,0,1 @ F,0,0,1,0,0,0,1 @ F,0,0,1,0,0,0,1 @ F,0,0,1,0,0,0,1 @ F,0,0,1,0,0,0,1"
       radius="0"
       unit="px"
       method="auto"
       mode="F"
       chamfer_steps="1"
       flexible="false"
       use_knot_distance="true"
       apply_no_radius="true"
       apply_with_radius="true"
       only_selected="false"
       hide_knots="false" />
    <radialGradient
       id="SVGID_1_-3-2"
       cx="-159.43106"
       cy="15.462561"
       r="64.706802"
       gradientTransform="matrix(-0.89413329,0,0,0.96304834,-80.753654,49.330428)"
       gradientUnits="userSpaceOnUse"
       fx="-159.43106"
       fy="15.462561">
	<stop
   offset="0"
   style="stop-color:#006fff;stop-opacity:1;"
   id="stop1-6-9" />

	<stop
   offset="1"
   style="stop-color:#15baff;stop-opacity:1;"
   id="stop2-7-1" />

</radialGradient>
    <radialGradient
       id="SVGID_2_-3-3"
       cx="21.0371"
       cy="56.209099"
       r="40.250599"
       gradientTransform="matrix(1,0,0,-1,0,66)"
       gradientUnits="userSpaceOnUse">
	<stop
   offset="0"
   style="stop-color:#FFFFFF"
   id="stop5-5-6" />

	<stop
   offset="1"
   style="stop-color:#C4C4C4"
   id="stop6-6-7" />

</radialGradient>
    <radialGradient
       inkscape:collect="always"
       xlink:href="#SVGID_1_-3-2"
       id="radialGradient6"
       cx="63.879509"
       cy="77.95459"
       fx="63.879509"
       fy="77.95459"
       r="28"
       gradientTransform="matrix(0,-2.27216,2.2795202,0,-113.81955,208.99677)"
       gradientUnits="userSpaceOnUse" />
    <radialGradient
       id="SVGID_1_-3-2-5"
       cx="-159.43106"
       cy="15.462561"
       r="64.706802"
       gradientTransform="matrix(-0.89413329,0,0,0.96304834,-80.753654,49.330428)"
       gradientUnits="userSpaceOnUse"
       fx="-159.43106"
       fy="15.462561">
	<stop
   offset="0"
   style="stop-color:#006fff;stop-opacity:1;"
   id="stop1-6-9-3" />

	<stop
   offset="1"
   style="stop-color:#15baff;stop-opacity:1;"
   id="stop2-7-1-5" />

</radialGradient>
    <inkscape:path-effect
       effect="fillet_chamfer"
       id="path-effect8-6"
       is_visible="true"
       lpeversion="1"
       nodesatellites_param="F,0,0,1,0,0,0,1 @ F,0,0,1,0,0,0,1 @ F,0,1,1,0,2.554336,0,1 @ F,0,0,1,0,2.554336,0,1 @ F,0,0,1,0,0,0,1"
       radius="0"
       unit="px"
       method="auto"
       mode="F"
       chamfer_steps="1"
       flexible="false"
       use_knot_distance="true"
       apply_no_radius="true"
       apply_with_radius="true"
       only_selected="false"
       hide_knots="false" />
    <filter
       inkscape:collect="always"
       style="color-interpolation-filters:sRGB"
       id="filter8"
       x="-0.070783646"
       y="-0.10163806"
       width="1.1415673"
       height="1.2032761">
      <feGaussianBlur
         inkscape:collect="always"
         stdDeviation="1.6099517"
         id="feGaussianBlur8" />
    </filter>
    <inkscape:path-effect
       effect="fillet_chamfer"
       id="path-effect7-1"
       is_visible="true"
       lpeversion="1"
       nodesatellites_param="F,0,0,1,0,0,0,1 @ F,0,0,1,0,0,0,1 @ F,0,0,1,0,0,0,1 @ F,0,0,1,0,0,0,1 @ F,0,0,1,0,0,0,1 @ F,0,0,1,0,0,0,1 @ F,0,0,1,0,0,0,1 @ F,0,0,1,0,0,0,1 @ F,0,0,1,0,0,0,1 @ F,0,0,1,0,0,0,1 | F,0,0,1,0,0,0,1 @ F,0,0,1,0,0,0,1 @ F,0,0,1,0,0,0,1 @ F,0,0,1,0,0,0,1 @ F,0,0,1,0,0,0,1 @ F,0,0,1,0,0,0,1 @ F,0,1,1,0,2.2354602,0,1 @ F,0,1,1,0,2.2354602,0,1 @ F,0,0,1,0,0,0,1 @ F,0,1,1,0,2.2354602,0,1 @ F,0,1,1,0,2.2354602,0,1 @ F,0,0,1,0,0,0,1 @ F,0,0,1,0,0,0,1 @ F,0,0,1,0,0,0,1 @ F,0,0,1,0,0,0,1 @ F,0,0,1,0,0,0,1 @ F,0,0,1,0,0,0,1 @ F,0,0,1,0,0,0,1"
       radius="0"
       unit="px"
       method="auto"
       mode="F"
       chamfer_steps="1"
       flexible="false"
       use_knot_distance="true"
       apply_no_radius="true"
       apply_with_radius="true"
       only_selected="false"
       hide_knots="false" />
    <filter
       inkscape:collect="always"
       style="color-interpolation-filters:sRGB"
       id="filter9"
       x="-0.046028799"
       y="-0.066589687"
       width="1.0920576"
       height="1.1331794">
      <feGaussianBlur
         inkscape:collect="always"
         stdDeviation="0.82680428"
         id="feGaussianBlur9" />
    </filter>
    <radialGradient
       inkscape:collect="always"
       xlink:href="#linearGradient9"
       id="radialGradient10"
       cx="1.5643575"
       cy="71.130623"
       fx="1.5643575"
       fy="71.130623"
       r="22.641589"
       gradientTransform="matrix(3.6805005,0,0,2.5440728,-4.193261,-121.6045)"
       gradientUnits="userSpaceOnUse" />
  </defs>
  <sodipodi:namedview
     id="namedview5"
     pagecolor="#ffffff"
     bordercolor="#000000"
     borderopacity="0.25"
     inkscape:showpageshadow="2"
     inkscape:pageopacity="0.0"
     inkscape:pagecheckerboard="0"
     inkscape:deskcolor="#d1d1d1"
     inkscape:zoom="10.128615"
     inkscape:cx="17.376511"
     inkscape:cy="44.03366"
     inkscape:current-layer="svg5" />
  <path
     style="fill:url(#radialGradient6)"
     d="M 32,12 C 16.536027,12 4,24.336027 4,39.8 c 0.00746,3.003411 0.4980514,5.980403 1.4478938,8.818075 C 5.8955238,49.955378 7.5115839,51 8.9223047,51 H 55.077696 c 1.410721,0 3.026781,-1.044622 3.474411,-2.381926 C 59.501949,45.780402 59.992537,42.80341 60,39.8 60,24.336027 47.463973,12 32,12 Z"
     id="path2"
     inkscape:path-effect="#path-effect8"
     inkscape:original-d="M 32,12 C 16.536027,12 4,24.336027 4,39.8 4.0095834,43.656571 4.8157523,47.469582 6.3679687,51 H 57.632032 C 59.184248,47.469582 59.990417,43.65657 60,39.8 60,24.336027 47.463973,12 32,12 Z" />
  <path
     style="fill:none;stroke:#000000;stroke-opacity:1;stroke-width:0.2;stroke-dasharray:none;filter:url(#filter8)"
     d="M 32,12 C 16.536027,12 4,24.336027 4,39.8 c 0.00746,3.003411 0.4980514,5.980403 1.4478938,8.818075 C 5.8955238,49.955378 7.5115839,51 8.9223047,51 H 55.077696 c 1.410721,0 3.026781,-1.044622 3.474411,-2.381926 C 59.501949,45.780402 59.992537,42.80341 60,39.8 60,24.336027 47.463973,12 32,12 Z"
     id="path2-9"
     inkscape:path-effect="#path-effect8-6"
     inkscape:original-d="M 32,12 C 16.536027,12 4,24.336027 4,39.8 4.0095834,43.656571 4.8157523,47.469582 6.3679687,51 H 57.632032 C 59.184248,47.469582 59.990417,43.65657 60,39.8 60,24.336027 47.463973,12 32,12 Z" />
  <path
     id="path6"
     style="baseline-shift:baseline;display:inline;overflow:visible;vector-effect:none;fill:url(#radialGradient10);stroke-linecap:round;enable-background:accumulate;stop-color:#000000"
     d="m 31.880859,17.349609 c -12.225315,0.06401 -22.2266947,9.875825 -22.5253902,22.097657 -0.027988,1.178792 0.9188842,2.172333 2.0976562,2.201172 1.179842,0.02955 2.174297,-0.917796 2.203125,-2.097657 0.243024,-9.943896 8.301315,-17.848309 18.248047,-17.90039 9.946747,-0.05208 18.086454,7.76819 18.433594,17.708984 0.04077,1.178917 1.043734,2.114858 2.222656,2.074219 h 0.002 c 1.178918,-0.04077 2.114858,-1.043734 2.074219,-2.222656 v -0.002 C 54.210009,26.991031 44.106167,17.285597 31.880859,17.349609 Z m 12.677735,12 c -0.06717,0.0017 -0.134177,0.0076 -0.201172,0.01563 -0.537327,0.06352 -1.02812,0.333791 -1.365234,0.75586 v 0.002 l -8.56836,10.771484 C 33.669787,40.620011 32.885145,40.349609 32,40.349609 c -2.590298,0 -6.473325,1.532844 -7.431058,6.080149 -0.253988,1.205933 0.781517,2.220633 2.016127,2.220633 1.140665,0 1.974434,-1.06371 2.481041,-2.179479 0.525251,-1.156832 1.532763,-1.820521 2.93389,-1.820521 1.365667,0 2.328059,0.724471 2.861527,1.834725 0.530906,1.104923 1.488932,2.165275 2.723542,2.165275 1.140665,0 2.162626,-1.026373 1.850782,-2.215437 -0.302361,-1.152903 -0.885238,-2.215475 -1.63507,-3.218157 l 8.40625,-10.572266 c 0.697882,-0.875494 0.542991,-2.170694 -0.339843,-2.859375 v -0.002 h -0.002 c -0.320899,-0.24983 -0.704672,-0.396902 -1.105468,-0.427734 -0.06666,-0.0051 -0.134001,-0.0076 -0.201172,-0.0059 z"
     sodipodi:nodetypes="scccscccccssccccscczcccccccss"
     inkscape:path-effect="#path-effect7"
     inkscape:original-d="m 31.880859,17.349609 c -12.225315,0.06401 -22.2266947,9.875825 -22.5253902,22.097657 -0.027988,1.178792 0.9188842,2.172333 2.0976562,2.201172 1.179842,0.02955 2.174297,-0.917796 2.203125,-2.097657 0.243024,-9.943896 8.301315,-17.848309 18.248047,-17.90039 9.946747,-0.05208 18.086454,7.76819 18.433594,17.708984 0.04077,1.178917 1.043734,2.114858 2.222656,2.074219 h 0.002 c 1.178918,-0.04077 2.114858,-1.043734 2.074219,-2.222656 v -0.002 C 54.210009,26.991031 44.106167,17.285597 31.880859,17.349609 Z m 12.677735,12 c -0.06717,0.0017 -0.134177,0.0076 -0.201172,0.01563 -0.537327,0.06352 -1.02812,0.333791 -1.365234,0.75586 v 0.002 l -8.56836,10.771484 C 33.669787,40.620011 32.885145,40.349609 32,40.349609 c -2.973463,0 -7.650391,2.019871 -7.650391,8.300782 h 4.300782 c 0,-2.467125 1.220251,-4 3.349609,-4 2.129358,0 3.278302,1.761281 3.349609,4 h 4.300782 c 0.131552,-2.050935 -0.642797,-3.819833 -1.84961,-5.433594 l 8.40625,-10.572266 c 0.697882,-0.875494 0.542991,-2.170694 -0.339843,-2.859375 v -0.002 h -0.002 c -0.320899,-0.24983 -0.704672,-0.396902 -1.105468,-0.427734 -0.06666,-0.0051 -0.134001,-0.0076 -0.201172,-0.0059 z" />
  <path
     id="path6-7"
     style="baseline-shift:baseline;display:inline;overflow:visible;fill:none;stroke-linecap:round;enable-background:accumulate;stop-color:#000000;stroke:#0d00ff;stroke-opacity:1;stroke-width:0.2;stroke-dasharray:none;stroke-linejoin:round;filter:url(#filter9)"
     d="m 31.880859,17.349609 c -12.225315,0.06401 -22.2266947,9.875825 -22.5253902,22.097657 -0.027988,1.178792 0.9188842,2.172333 2.0976562,2.201172 1.179842,0.02955 2.174297,-0.917796 2.203125,-2.097657 0.243024,-9.943896 8.301315,-17.848309 18.248047,-17.90039 9.946747,-0.05208 18.086454,7.76819 18.433594,17.708984 0.04077,1.178917 1.043734,2.114858 2.222656,2.074219 h 0.002 c 1.178918,-0.04077 2.114858,-1.043734 2.074219,-2.222656 v -0.002 C 54.210009,26.991031 44.106167,17.285597 31.880859,17.349609 Z m 12.677735,12 c -0.06717,0.0017 -0.134177,0.0076 -0.201172,0.01563 -0.537327,0.06352 -1.02812,0.333791 -1.365234,0.75586 v 0.002 l -8.56836,10.771484 C 33.669787,40.620011 32.885145,40.349609 32,40.349609 c -2.590298,0 -6.473325,1.532844 -7.431058,6.080149 -0.253988,1.205933 0.781517,2.220633 2.016127,2.220633 1.140665,0 1.974434,-1.06371 2.481041,-2.179479 0.525251,-1.156832 1.532763,-1.820521 2.93389,-1.820521 1.365667,0 2.328059,0.724471 2.861527,1.834725 0.530906,1.104923 1.488932,2.165275 2.723542,2.165275 1.140665,0 2.162626,-1.026373 1.850782,-2.215437 -0.302361,-1.152903 -0.885238,-2.215475 -1.63507,-3.218157 l 8.40625,-10.572266 c 0.697882,-0.875494 0.542991,-2.170694 -0.339843,-2.859375 v -0.002 h -0.002 c -0.320899,-0.24983 -0.704672,-0.396902 -1.105468,-0.427734 -0.06666,-0.0051 -0.134001,-0.0076 -0.201172,-0.0059 z"
     sodipodi:nodetypes="scccscccccssccccscczcccccccss"
     inkscape:path-effect="#path-effect7-1"
     inkscape:original-d="m 31.880859,17.349609 c -12.225315,0.06401 -22.2266947,9.875825 -22.5253902,22.097657 -0.027988,1.178792 0.9188842,2.172333 2.0976562,2.201172 1.179842,0.02955 2.174297,-0.917796 2.203125,-2.097657 0.243024,-9.943896 8.301315,-17.848309 18.248047,-17.90039 9.946747,-0.05208 18.086454,7.76819 18.433594,17.708984 0.04077,1.178917 1.043734,2.114858 2.222656,2.074219 h 0.002 c 1.178918,-0.04077 2.114858,-1.043734 2.074219,-2.222656 v -0.002 C 54.210009,26.991031 44.106167,17.285597 31.880859,17.349609 Z m 12.677735,12 c -0.06717,0.0017 -0.134177,0.0076 -0.201172,0.01563 -0.537327,0.06352 -1.02812,0.333791 -1.365234,0.75586 v 0.002 l -8.56836,10.771484 C 33.669787,40.620011 32.885145,40.349609 32,40.349609 c -2.973463,0 -7.650391,2.019871 -7.650391,8.300782 h 4.300782 c 0,-2.467125 1.220251,-4 3.349609,-4 2.129358,0 3.278302,1.761281 3.349609,4 h 4.300782 c 0.131552,-2.050935 -0.642797,-3.819833 -1.84961,-5.433594 l 8.40625,-10.572266 c 0.697882,-0.875494 0.542991,-2.170694 -0.339843,-2.859375 v -0.002 h -0.002 c -0.320899,-0.24983 -0.704672,-0.396902 -1.105468,-0.427734 -0.06666,-0.0051 -0.134001,-0.0076 -0.201172,-0.0059 z" />
</svg>
