<?xml version="1.0" encoding="UTF-8" standalone="no"?>
<svg
   width="64"
   height="64"
   version="1"
   id="svg6"
   sodipodi:docname="user-admin.svg"
   inkscape:version="1.4.3 (0d15f75042, 2025-12-25)"
   xmlns:inkscape="http://www.inkscape.org/namespaces/inkscape"
   xmlns:sodipodi="http://sodipodi.sourceforge.net/DTD/sodipodi-0.dtd"
   xmlns:xlink="http://www.w3.org/1999/xlink"
   xmlns="http://www.w3.org/2000/svg"
   xmlns:svg="http://www.w3.org/2000/svg">
  <defs
     id="defs6">
    <filter
       inkscape:collect="always"
       style="color-interpolation-filters:sRGB"
       id="filter2"
       x="-0.097755667"
       y="-0.073977262"
       width="1.1955113"
       height="1.1479545">
      <feGaussianBlur
         inkscape:collect="always"
         stdDeviation="1.0779828"
         id="feGaussianBlur2" />
    </filter>
    <filter
       inkscape:collect="always"
       style="color-interpolation-filters:sRGB"
       id="filter1"
       x="-0.10203644"
       y="-0.10203644"
       width="1.2040729"
       height="1.2040729">
      <feGaussianBlur
         inkscape:collect="always"
         stdDeviation="2.3154179"
         id="feGaussianBlur1" />
    </filter>
    <radialGradient
       inkscape:collect="always"
       xlink:href="#linearGradient4"
       id="radialGradient5"
       cx="5.4842939"
       cy="38.507759"
       fx="5.4842939"
       fy="38.507759"
       r="28"
       gradientUnits="userSpaceOnUse"
       gradientTransform="matrix(0.92704016,3.4597609,-2.9997189,0.80377231,49.546162,-49.651802)" />
    <linearGradient
       id="linearGradient4"
       inkscape:collect="always">
      <stop
         style="stop-color:#ff7c35;stop-opacity:1;"
         offset="0"
         id="stop4" />
      <stop
         style="stop-color:#ff413d;stop-opacity:1;"
         offset="1"
         id="stop5" />
    </linearGradient>
  </defs>
  <sodipodi:namedview
     id="namedview6"
     pagecolor="#ffffff"
     bordercolor="#000000"
     borderopacity="0.25"
     inkscape:showpageshadow="2"
     inkscape:pageopacity="0.0"
     inkscape:pagecheckerboard="0"
     inkscape:deskcolor="#d1d1d1"
     inkscape:zoom="6.6954173"
     inkscape:cx="13.890098"
     inkscape:cy="44.209343"
     inkscape:current-layer="svg6" />
  <g
     id="g6"
     transform="translate(61.850794,3.796845)">
    <rect
       style="fill:url(#radialGradient5);stroke-width:0.955185"
       width="53.490372"
       height="53.490372"
       x="-56.657608"
       y="1.5013465"
       rx="26.745186"
       ry="26.745186"
       id="rect1" />
    <rect
       style="mix-blend-mode:normal;fill:none;stroke:#000000;stroke-width:0.314075;stroke-dasharray:none;stroke-opacity:1;filter:url(#filter1)"
       width="56"
       height="56"
       x="4.0645156"
       y="3.9545853"
       rx="28"
       ry="28"
       id="rect1-5"
       transform="matrix(0.95518521,0,0,0.95518521,-60.478347,-2.3193943)" />
    <path
       id="path4-36"
       class="st3"
       d="m -29.850798,10.20978 c -3.899996,0 -7,3.100004 -7,7 0,3.899996 3.100004,7 7,7 3.899996,0 7,-3.100004 7,-7 0,-3.899996 -3.100004,-7 -7,-7 z m 0,19 c -13.999986,0 -14,8.900391 -14,8.900391 0,3.199996 1.900784,6.200001 4.800781,7.5 2.099998,0.899999 5.099223,1.599609 9.199219,1.599609 4.099996,0 7.099221,-0.69961 9.199219,-1.599609 2.999997,-1.299999 4.800781,-4.300004 4.800781,-7.5 0,0 -1.4e-5,-8.900391 -14,-8.900391 z"
       style="fill:#ffffff;fill-opacity:1" />
    <path
       id="path4-3"
       class="st3"
       d="m -29.88963,10.21339 c -3.899996,0 -7,3.100004 -7,7 0,3.899996 3.100004,7 7,7 3.899996,0 7,-3.100004 7,-7 0,-3.899996 -3.100004,-7 -7,-7 z m 0,19 c -13.999986,0 -14,8.900391 -14,8.900391 0,3.199996 1.900784,6.200001 4.800781,7.5 2.099998,0.899999 5.099223,1.599609 9.199219,1.599609 4.099996,0 7.099221,-0.69961 9.199219,-1.599609 2.999997,-1.299999 4.800781,-4.300004 4.800781,-7.5 0,0 -1.4e-5,-8.900391 -14,-8.900391 z"
       style="fill:none;stroke:#ff000d;stroke-width:0.3;stroke-dasharray:none;stroke-opacity:1;filter:url(#filter2)" />
  </g>
</svg>
