<?xml version="1.0" encoding="UTF-8" standalone="no"?>
<svg
   width="64"
   height="64"
   version="1"
   id="svg8"
   sodipodi:docname="PCSX2.svg"
   inkscape:version="1.4.2 (ebf0e940d0, 2025-05-08)"
   xmlns:inkscape="http://www.inkscape.org/namespaces/inkscape"
   xmlns:sodipodi="http://sodipodi.sourceforge.net/DTD/sodipodi-0.dtd"
   xmlns:xlink="http://www.w3.org/1999/xlink"
   xmlns="http://www.w3.org/2000/svg"
   xmlns:svg="http://www.w3.org/2000/svg">
  <defs
     id="defs8">
    <linearGradient
       id="linearGradient13"
       inkscape:collect="always">
      <stop
         style="stop-color:#283d8a;stop-opacity:1;"
         offset="0"
         id="stop14" />
      <stop
         style="stop-color:#285a8a;stop-opacity:1;"
         offset="1"
         id="stop15" />
    </linearGradient>
    <linearGradient
       id="linearGradient11"
       inkscape:collect="always">
      <stop
         style="stop-color:#5092ff;stop-opacity:1;"
         offset="0"
         id="stop12" />
      <stop
         style="stop-color:#8550ff;stop-opacity:1;"
         offset="1"
         id="stop13" />
    </linearGradient>
    <linearGradient
       id="linearGradient10"
       inkscape:collect="always">
      <stop
         style="stop-color:#d3d5ff;stop-opacity:1;"
         offset="0"
         id="stop10" />
      <stop
         style="stop-color:#c7e0ff;stop-opacity:1;"
         offset="1"
         id="stop11" />
    </linearGradient>
    <inkscape:path-effect
       effect="fillet_chamfer"
       id="path-effect8"
       is_visible="true"
       lpeversion="1"
       nodesatellites_param="F,0,0,1,0,0,0,1 @ F,0,0,1,0,0,0,1 @ F,0,0,1,0,0,0,1 @ F,0,0,1,0,0,0,1 @ F,0,0,1,0,2.5920696,0,1 @ F,0,0,1,0,2.5920696,0,1 | F,0,0,1,0,2.9459683,0,1 @ F,0,1,1,0,2.9459683,0,1 @ F,0,0,1,0,0,0,1 @ F,0,0,1,0,0,0,1 @ F,0,0,1,0,0,0,1 @ F,0,0,1,0,0,0,1"
       radius="0"
       unit="px"
       method="auto"
       mode="F"
       chamfer_steps="1"
       flexible="false"
       use_knot_distance="true"
       apply_no_radius="true"
       apply_with_radius="true"
       only_selected="false"
       hide_knots="false" />
    <filter
       inkscape:collect="always"
       style="color-interpolation-filters:sRGB"
       id="filter9"
       x="-0.048778466"
       y="-0.048307834"
       width="1.0975564"
       height="1.0966152">
      <feGaussianBlur
         inkscape:collect="always"
         stdDeviation="0.97719624"
         id="feGaussianBlur9" />
    </filter>
    <filter
       inkscape:collect="always"
       style="color-interpolation-filters:sRGB"
       id="filter10"
       x="-0.060051899"
       y="-0.060046635"
       width="1.1201043"
       height="1.1200991">
      <feGaussianBlur
         inkscape:collect="always"
         stdDeviation="1.3794482"
         id="feGaussianBlur10" />
    </filter>
    <radialGradient
       inkscape:collect="always"
       xlink:href="#linearGradient10"
       id="radialGradient11"
       cx="63.798668"
       cy="63.79871"
       fx="63.798668"
       fy="63.79871"
       r="28.429904"
       gradientTransform="matrix(0,-2.2341444,2.2341415,0,-78.736676,206.33411)"
       gradientUnits="userSpaceOnUse" />
    <radialGradient
       inkscape:collect="always"
       xlink:href="#linearGradient11"
       id="radialGradient13"
       cx="16.105167"
       cy="18.451487"
       fx="16.105167"
       fy="18.451487"
       r="20.553617"
       gradientTransform="matrix(0,3.0708101,-3.0705965,0,57.055851,-48.965533)"
       gradientUnits="userSpaceOnUse" />
    <radialGradient
       inkscape:collect="always"
       xlink:href="#linearGradient13"
       id="radialGradient15"
       cx="0.46793658"
       cy="63.743008"
       fx="0.46793658"
       fy="63.743008"
       r="17.358167"
       gradientTransform="matrix(3.7035882,0,0,3.7035882,-1.2651078,-172.33484)"
       gradientUnits="userSpaceOnUse" />
  </defs>
  <sodipodi:namedview
     id="namedview8"
     pagecolor="#ffffff"
     bordercolor="#000000"
     borderopacity="0.25"
     inkscape:showpageshadow="2"
     inkscape:pageopacity="0.0"
     inkscape:pagecheckerboard="0"
     inkscape:deskcolor="#d1d1d1"
     inkscape:zoom="12.278653"
     inkscape:cx="46.42203"
     inkscape:cy="31.151625"
     inkscape:current-layer="svg8" />
  <g
     id="g10"
     transform="matrix(1.0065442,0,0,1.0065442,-0.20941496,-0.2094211)">
    <g
       id="g8">
      <path
         style="fill:url(#radialGradient11);stroke-width:0.980342"
         d="m 31.999165,3.5701302 c -1.489252,1e-7 -2.979496,0.5550881 -4.092749,1.6683131 L 5.2383835,27.909002 c -2.2265045,2.226449 -2.223346,5.95243 0.00324,8.17888 L 27.909661,58.758441 c 2.226505,2.22645 5.955808,2.229608 8.182313,0.0032 L 58.760025,36.091118 c 2.226502,-2.226451 2.226503,-5.955622 0,-8.182071 L 36.091916,5.2384807 C 34.978665,4.1252556 33.488417,3.570167 31.999165,3.5701674 Z"
         id="path2" />
      <path
         id="path4"
         style="baseline-shift:baseline;display:inline;overflow:visible;opacity:1;vector-effect:none;fill:url(#radialGradient13);stroke-linecap:round;stroke-linejoin:round;enable-background:accumulate;stop-color:#000000;stop-opacity:1"
         d="M 31.899098 6.7065477 A 2 2 0 0 0 30.484527 7.2925565 L 21.694396 16.082688 A 2.0002 2.0002 0 0 0 21.694396 18.90989 L 27.554484 24.769978 A 2.0002 2.0002 0 0 0 30.383625 24.769978 L 37.757246 17.394417 L 40.786252 20.425363 L 36.831662 24.379952 A 2 2 0 0 0 36.831662 27.209094 A 2 2 0 0 0 39.660804 27.209094 L 45.031905 21.839934 A 2.0002 2.0002 0 0 0 45.031905 19.010792 L 39.171817 13.152644 A 2.0002 2.0002 0 0 0 36.344615 13.152644 L 28.969054 20.526265 L 25.940049 17.495319 L 33.311729 10.121698 A 2 2 0 0 0 33.311729 7.2925565 A 2 2 0 0 0 31.899098 6.7065477 z M 17.739806 20.86584 A 2.0002 2.0002 0 0 0 16.325236 21.451848 L 7.5370442 30.24004 A 2 2 0 0 0 7.5370442 33.069182 A 2 2 0 0 0 10.366186 33.069182 L 17.739806 25.695561 L 20.768812 28.724567 L 13.397132 36.100128 A 2.0002 2.0002 0 0 0 13.397132 38.927329 L 19.25528 44.787417 A 2 2 0 0 0 22.084421 44.787417 A 2 2 0 0 0 22.084421 41.958275 L 17.638904 37.512758 L 25.014465 30.139138 A 2.0002 2.0002 0 0 0 25.014465 27.309996 L 19.154377 21.451848 A 2.0002 2.0002 0 0 0 17.739806 20.86584 z M 34.3615 27.680617 A 2.0002 2.0002 0 0 0 32.946929 28.264686 L 24.158737 37.054818 A 2 2 0 0 0 24.158737 39.882019 A 2 2 0 0 0 26.985939 39.882019 L 34.3615 32.510339 L 37.390505 35.539345 L 30.016885 42.914906 A 2.0002 2.0002 0 0 0 30.011063 45.736286 L 35.849807 51.617718 A 2.0002 2.0002 0 0 0 38.682829 51.621599 L 47.472961 42.833408 A 2 2 0 0 0 47.472961 40.006206 A 2 2 0 0 0 44.641879 40.006206 L 37.27408 47.375946 L 34.254776 44.333357 L 41.634218 36.953915 A 2.0002 2.0002 0 0 0 41.634218 34.124774 L 35.77607 28.264686 A 2.0002 2.0002 0 0 0 34.3615 27.680617 z " />
      <path
         style="fill:url(#radialGradient15)"
         d="m 23.110417,45.813568 c -1.081939,1.081939 -0.9956,2.910319 0.194534,4.100452 l 6.44629,6.446291 c 1.190134,1.190133 3.018512,1.276472 4.100451,0.194533 l 0.188748,-0.188748 a 2.575554,2.575554 89.816884 0 0 -0.01168,-3.653987 l -7.120838,-7.030383 a 2.6086911,2.6086911 179.81688 0 0 -3.677418,0.01175 z m 19.64639,-15.480247 6.533106,6.617161 a 2.9271977,2.9271977 0.18310439 0 0 4.152871,0.01327 l 2.867939,-2.86794 c 1.08194,-1.08194 0.995601,-2.910318 -0.194533,-4.100452 L 49.6699,23.54907 c -1.190134,-1.190134 -3.018513,-1.276473 -4.100452,-0.194534 l -2.799284,2.799284 a 2.9648586,2.9648586 90.18311 0 0 -0.01336,4.1795 z"
         id="path7"
         sodipodi:nodetypes="ssssccsccssssc" />
      <path
         style="mix-blend-mode:normal;fill:none;stroke:#000000;stroke-width:0.20712;stroke-dasharray:none;stroke-opacity:1;filter:url(#filter10)"
         d="m 31.99917,3.5701334 c -1.489252,10e-8 -2.979496,0.5550881 -4.092749,1.6683131 L 5.238388,27.909005 c -2.226504,2.226449 -2.223346,5.95243 0.0032,8.17888 l 22.668038,22.670559 c 2.226505,2.22645 5.955808,2.229608 8.182313,0.0032 L 58.76003,36.091121 c 2.226502,-2.226451 2.226503,-5.955622 0,-8.182071 L 36.091921,5.2384839 C 34.97867,4.1252588 33.488422,3.5701702 31.99917,3.5701706 Z"
         id="path2-9" />
    </g>
    <g
       id="g9"
       transform="translate(55.860498,10.126104)"
       style="fill:none;stroke:#0200ff;stroke-width:0.2;stroke-dasharray:none;stroke-opacity:1;filter:url(#filter9)">
      <path
         style="baseline-shift:baseline;display:inline;overflow:visible;fill:none;stroke:#0200ff;stroke-width:0.2;stroke-linecap:round;stroke-linejoin:round;stroke-dasharray:none;stroke-opacity:1;enable-background:accumulate;stop-color:#000000"
         d="m -39.544432,11.314972 -8.789063,8.789062 a 2,2 0 0 0 0,2.828125 2,2 0 0 0 2.828125,0 l 7.375,-7.373047 3.029297,3.029297 -7.373047,7.375 a 2.0002,2.0002 0 0 0 0,2.828125 l 5.859375,5.859375 a 2,2 0 0 0 2.828125,0 2,2 0 0 0 0,-2.828125 l -4.445312,-4.445312 7.375,-7.375 a 2.0002,2.0002 0 0 0 0,-2.828125 l -5.859375,-5.859375 a 2.0002,2.0002 0 0 0 -2.828125,0 z"
         id="path4-9" />
      <path
         style="baseline-shift:baseline;display:inline;overflow:visible;fill:none;stroke:#0200ff;stroke-width:0.2;stroke-linecap:round;stroke-linejoin:round;stroke-dasharray:none;stroke-opacity:1;enable-background:accumulate;stop-color:#000000"
         d="m -25.386229,-2.8432313 -8.789063,8.7890623 a 2.0002,2.0002 0 0 0 0,2.828125 l 5.859375,5.859375 a 2.0002,2.0002 0 0 0 2.828125,0 l 7.375,-7.375 3.029297,3.03125 -3.955078,3.955078 a 2,2 0 0 0 0,2.828125 2,2 0 0 0 2.828125,0 l 5.371094,-5.36914 a 2.0002,2.0002 0 0 0 0,-2.828125 l -5.859375,-5.859375 a 2.0002,2.0002 0 0 0 -2.828125,0 l -7.375,7.373047 -3.029297,-3.029297 7.373047,-7.375 a 2,2 0 0 0 0,-2.8281253 2,2 0 0 0 -2.828125,0 z"
         id="path5-1" />
      <path
         style="baseline-shift:baseline;display:inline;overflow:visible;fill:none;stroke:#0200ff;stroke-width:0.2;stroke-linecap:round;stroke-linejoin:round;stroke-dasharray:none;stroke-opacity:1;enable-background:accumulate;stop-color:#000000"
         d="m -22.923338,18.129425 -8.789063,8.789062 a 2,2 0 0 0 0,2.828125 2,2 0 0 0 2.828125,0 l 7.375,-7.373046 3.029297,3.029296 -7.373047,7.375 a 2.0002,2.0002 0 0 0 -0.0059,2.822266 l 5.83789,5.880859 a 2.0002,2.0002 0 0 0 2.833985,0.0039 l 8.789062,-8.78711 a 2,2 0 0 0 0,-2.828125 2,2 0 0 0 -2.830078,0 l -7.369141,7.369141 -3.019531,-3.041016 7.38086,-7.380859 a 2.0002,2.0002 0 0 0 0,-2.828125 l -5.859375,-5.859375 a 2.0002,2.0002 0 0 0 -2.828125,0 z"
         id="path6-2" />
      <path
         style="fill:none;stroke:#0200ff;stroke-width:0.2;stroke-dasharray:none;stroke-opacity:1"
         d="m -32.760187,35.677368 c -1.081939,1.081939 -0.9956,2.910319 0.194534,4.100452 l 6.44629,6.446291 c 1.190134,1.190133 3.018512,1.276472 4.100451,0.194533 l 0.188748,-0.188748 a 2.575554,2.575554 0 0 0 -0.01168,-3.653987 l -7.120838,-7.030383 a 2.6086911,2.6086911 0 0 0 -3.677418,0.01175 z m 19.64639,-15.480247 6.533106,6.617161 a 2.9271977,2.9271977 0 0 0 4.152871,0.01327 l 2.867939,-2.86794 C 1.522059,22.877672 1.43572,21.049294 0.245586,19.85916 l -6.44629,-6.44629 c -1.190134,-1.190134 -3.018513,-1.276473 -4.100452,-0.194534 l -2.799284,2.799284 a 2.9648586,2.9648586 0 0 0 -0.01336,4.1795 z"
         id="path7-7"
         sodipodi:nodetypes="ssssccsccssssc" />
    </g>
  </g>
</svg>
