<?xml version="1.0" encoding="UTF-8" standalone="no"?>
<svg
   width="64"
   height="64"
   version="1.1"
   id="svg9"
   sodipodi:docname="org.netsurf_browser.NetSurf.svg"
   inkscape:version="1.4.2 (ebf0e940d0, 2025-05-08)"
   xmlns:inkscape="http://www.inkscape.org/namespaces/inkscape"
   xmlns:sodipodi="http://sodipodi.sourceforge.net/DTD/sodipodi-0.dtd"
   xmlns:xlink="http://www.w3.org/1999/xlink"
   xmlns="http://www.w3.org/2000/svg"
   xmlns:svg="http://www.w3.org/2000/svg">
  <defs
     id="defs9">
    <linearGradient
       id="linearGradient12"
       inkscape:collect="always">
      <stop
         style="stop-color:#3e3e3e;stop-opacity:1;"
         offset="0"
         id="stop12" />
      <stop
         style="stop-color:#1e1e1e;stop-opacity:1;"
         offset="1"
         id="stop13" />
    </linearGradient>
    <inkscape:path-effect
       effect="fillet_chamfer"
       id="path-effect10"
       is_visible="true"
       lpeversion="1"
       nodesatellites_param="F,0,1,1,0,1.4271074,0,1 @ F,0,0,1,0,0.27869061,0,1 @ F,0,1,1,0,1.4271074,0,1 @ F,0,0,1,0,0.27869061,0,1 @ F,0,1,1,0,1.4271074,0,1 @ F,0,0,1,0,0.27869061,0,1 @ F,0,1,1,0,1.4271074,0,1 @ F,0,0,1,0,0.27869061,0,1 @ F,0,1,1,0,1.4271074,0,1 @ F,0,0,1,0,0.27869061,0,1 @ F,0,1,1,0,1.4271074,0,1 @ F,0,0,1,0,0.27869061,0,1 @ F,0,0,1,0,1.4271074,0,1 @ F,0,0,1,0,0.27869061,0,1 @ F,0,1,1,0,1.4271074,0,1 @ F,0,0,1,0,0.27869061,0,1"
       radius="0"
       unit="px"
       method="auto"
       mode="F"
       chamfer_steps="1"
       flexible="false"
       use_knot_distance="true"
       apply_no_radius="true"
       apply_with_radius="true"
       only_selected="false"
       hide_knots="false" />
    <radialGradient
       inkscape:collect="always"
       xlink:href="#SVGID_1_-3-2"
       id="radialGradient19"
       cx="26.731743"
       cy="14.797742"
       fx="26.731743"
       fy="14.797742"
       r="26.777218"
       gradientUnits="userSpaceOnUse"
       gradientTransform="matrix(-2.4471484e-7,-2.3812539,2.389306,0,28.574583,127.55629)" />
    <radialGradient
       id="SVGID_1_-3-2"
       cx="-159.43106"
       cy="15.462561"
       r="64.706802"
       gradientTransform="matrix(-0.89413329,0,0,0.96304834,-19.43607,43.676448)"
       gradientUnits="userSpaceOnUse"
       fx="-159.43106"
       fy="15.462561">
      <stop
         offset="0"
         style="stop-color:#006fff;stop-opacity:1;"
         id="stop1-6-9" />
      <stop
         offset="1"
         style="stop-color:#15baff;stop-opacity:1;"
         id="stop2-7-1" />
    </radialGradient>
    <filter
       inkscape:collect="always"
       style="color-interpolation-filters:sRGB"
       id="filter8"
       x="-0.070593081"
       y="-0.070593081"
       width="1.1411862"
       height="1.1411862">
      <feGaussianBlur
         inkscape:collect="always"
         stdDeviation="1.6006374"
         id="feGaussianBlur8" />
    </filter>
    <inkscape:path-effect
       effect="fillet_chamfer"
       id="path-effect8-6"
       is_visible="true"
       lpeversion="1"
       nodesatellites_param="F,0,0,1,0,0,0,1 @ F,0,0,1,0,0,0,1 @ F,0,0,1,0,0,0,1 @ F,0,0,1,0,0,0,1 @ F,0,0,1,0,0,0,1 | F,0,0,1,0,0,0,1 @ F,0,0,1,0,0,0,1 | F,0,0,1,0,0,0,1 @ F,0,0,1,0,0,0,1 @ F,0,0,1,0,0,0,1 @ F,0,0,1,0,0,0,1 @ F,0,0,1,0,0,0,1 | F,0,0,1,0,0,0,1 @ F,0,0,1,0,0,0,1 @ F,0,0,1,0,0,0,1 @ F,0,0,1,0,0,0,1 @ F,0,0,1,0,0,0,1 @ F,0,0,1,0,0,0,1 @ F,0,0,1,0,0,0,1 @ F,0,0,1,0,0,0,1 @ F,0,0,1,0,0,0,1 @ F,0,0,1,0,0,0,1 @ F,0,0,1,0,0,0,1 @ F,0,0,1,0,0,0,1 @ F,0,0,1,0,0,0,1 @ F,0,0,1,0,0,0,1 @ F,0,0,1,0,3.3647819,0,1 @ F,0,0,1,0,1.6692262,0,1 @ F,0,0,1,0,0,0,1 @ F,0,0,1,0,0,0,1 @ F,0,0,1,0,0,0,1 @ F,0,0,1,0,0,0,1 @ F,0,0,1,0,0,0,1 @ F,0,0,1,0,0,0,1 @ F,0,0,1,0,0,0,1 @ F,0,0,1,0,0,0,1 @ F,0,0,1,0,0,0,1 @ F,0,0,1,0,0,0,1 @ F,0,0,1,0,0,0,1 | F,0,0,1,0,0,0,1 @ F,0,0,1,0,0,0,1 @ F,0,0,1,0,0,0,1 @ F,0,0,1,0,0,0,1 @ F,0,0,1,0,0,0,1 @ F,0,0,1,0,0,0,1 @ F,0,0,1,0,0,0,1 @ F,0,0,1,0,0,0,1 @ F,0,0,1,0,0,0,1 @ F,0,0,1,0,0,0,1 @ F,0,0,1,0,0,0,1 @ F,0,0,1,0,0,0,1 @ F,0,0,1,0,0,0,1 @ F,0,0,1,0,0,0,1 @ F,0,0,1,0,0,0,1 @ F,0,0,1,0,0,0,1 @ F,0,0,1,0,0,0,1 @ F,0,0,1,0,0,0,1 @ F,0,0,1,0,0,0,1 @ F,0,0,1,0,0,0,1 @ F,0,0,1,0,0,0,1 @ F,0,0,1,0,0,0,1 | F,0,0,1,0,0,0,1 @ F,0,0,1,0,0,0,1 | F,0,0,1,0,0,0,1 @ F,0,0,1,0,0,0,1 @ F,0,0,1,0,0,0,1 | F,0,0,1,0,0,0,1 @ F,0,0,1,0,0,0,1 | F,0,0,1,0,0,0,1 | F,0,0,1,0,0,0,1 | F,0,0,1,0,0,0,1 @ F,0,0,1,0,0,0,1 @ F,0,0,1,0,0,0,1"
       radius="0"
       unit="px"
       method="auto"
       mode="F"
       chamfer_steps="1"
       flexible="false"
       use_knot_distance="true"
       apply_no_radius="true"
       apply_with_radius="true"
       only_selected="false"
       hide_knots="false" />
    <inkscape:path-effect
       effect="fillet_chamfer"
       id="path-effect10-2"
       is_visible="true"
       lpeversion="1"
       nodesatellites_param="F,0,1,1,0,1.4271074,0,1 @ F,0,0,1,0,0.27869061,0,1 @ F,0,1,1,0,1.4271074,0,1 @ F,0,0,1,0,0.27869061,0,1 @ F,0,1,1,0,1.4271074,0,1 @ F,0,0,1,0,0.27869061,0,1 @ F,0,1,1,0,1.4271074,0,1 @ F,0,0,1,0,0.27869061,0,1 @ F,0,1,1,0,1.4271074,0,1 @ F,0,0,1,0,0.27869061,0,1 @ F,0,1,1,0,1.4271074,0,1 @ F,0,0,1,0,0.27869061,0,1 @ F,0,0,1,0,1.4271074,0,1 @ F,0,0,1,0,0.27869061,0,1 @ F,0,1,1,0,1.4271074,0,1 @ F,0,0,1,0,0.27869061,0,1"
       radius="0"
       unit="px"
       method="auto"
       mode="F"
       chamfer_steps="1"
       flexible="false"
       use_knot_distance="true"
       apply_no_radius="true"
       apply_with_radius="true"
       only_selected="false"
       hide_knots="false" />
    <filter
       inkscape:collect="always"
       style="color-interpolation-filters:sRGB"
       id="filter10"
       x="-0.37145544"
       y="-0.37145531"
       width="1.7429109"
       height="1.7429106">
      <feGaussianBlur
         inkscape:collect="always"
         stdDeviation="2.7876195"
         id="feGaussianBlur10" />
    </filter>
    <filter
       inkscape:collect="always"
       style="color-interpolation-filters:sRGB"
       id="filter11"
       x="-0.038092745"
       y="-0.11365782"
       width="1.0761706"
       height="1.227197">
      <feGaussianBlur
         inkscape:collect="always"
         stdDeviation="0.84709227"
         id="feGaussianBlur11" />
    </filter>
    <filter
       inkscape:collect="always"
       style="color-interpolation-filters:sRGB"
       id="filter12"
       x="-0.096815273"
       y="-0.037425264"
       width="1.1936696"
       height="1.0748357">
      <feGaussianBlur
         inkscape:collect="always"
         stdDeviation="0.84709227"
         id="feGaussianBlur12" />
    </filter>
    <radialGradient
       inkscape:collect="always"
       xlink:href="#linearGradient12"
       id="radialGradient13"
       cx="23.964672"
       cy="43.637043"
       fx="23.964672"
       fy="43.637043"
       r="28"
       gradientTransform="matrix(2.022159,0.54183588,-0.41928034,1.5647755,15.885814,-38.040223)"
       gradientUnits="userSpaceOnUse" />
  </defs>
  <sodipodi:namedview
     id="namedview9"
     pagecolor="#ffffff"
     bordercolor="#000000"
     borderopacity="0.25"
     inkscape:showpageshadow="2"
     inkscape:pageopacity="0.0"
     inkscape:pagecheckerboard="0"
     inkscape:deskcolor="#d1d1d1"
     inkscape:zoom="8.9958219"
     inkscape:cx="22.288125"
     inkscape:cy="28.791143"
     inkscape:current-layer="svg9" />
  <circle
     style="fill:url(#radialGradient19);fill-opacity:1;stroke-width:0"
     id="path18-3"
     cx="31.999998"
     cy="31.967825"
     r="27.917253" />
  <circle
     style="fill:none;fill-opacity:1;stroke:#000000;stroke-width:0.2;stroke-dasharray:none;stroke-opacity:1;filter:url(#filter8)"
     id="path18-3-4"
     cx="31.999998"
     cy="31.999998"
     r="27.917253" />
  <path
     style="opacity:0.121895;stroke-width:1;enable-background:new"
     d="m 24.103516,5 c -1.520959,0.3770258 -5.210952,0.075231 -5.049646,1.9006038 1.153836,0.6930993 1.047354,2.0811583 0.157619,2.4597045 0.41832,1.8085137 2.26834,1.4253777 2.975412,0.059332 C 23.703479,8.9314972 27.350047,7.1250161 25.227154,5.4112939 24.854203,5.2713257 24.443781,5.2197205 24.103516,5 Z M 18.619141,5.1757812 C 17.814439,5.534265 15.58088,5.6469815 15.801197,6.6894928 16.718423,6.3474264 18.701055,6.6052684 18.619141,5.1757812 Z m -4.560547,2.0976563 c 0.207333,0.7953817 -1.715719,3.5594165 0.01813,1.8952538 1.089317,-1.7873475 3.258979,1.1806607 3.720069,-0.2665565 -0.779496,-1.2870201 -2.69954,-1.6760114 -3.664987,-1.1999275 l -0.04425,-0.1761406 z m 19.792968,0.6992187 c -1.591855,0.074453 -4.11031,2.0763478 -3.442563,3.3958808 1.582768,0.951507 2.316853,0.163727 2.445847,-1.4378684 0.454732,-1.2189537 1.118747,-0.6712481 0.705012,0.3617374 1.618552,0.977151 -0.997995,2.869117 -2.249377,2.267888 -0.561349,-0.658771 -1.053996,1.361418 -2.137413,1.393264 -1.073004,0.760692 -0.602306,1.964328 -2.072233,2.525918 -0.942871,1.839194 2.058272,2.074932 2.408848,0.304769 1.001191,-1.793424 2.473762,-0.408319 3.193336,0.701841 0.416173,-0.839602 -0.276945,-2.159637 0.673719,-0.630734 0.499249,0.869909 0.793568,1.064636 1.281096,0.263714 0.838081,0.53825 2.460819,1.187721 2.691447,1.734276 -0.870312,1.544261 -3.394606,0.245484 -4.552796,0.558106 -1.470886,-1.620097 -4.163669,-1.626984 -5.584205,0.05992 -0.68126,0.663748 -1.281374,1.441454 -1.718106,2.288606 -0.840836,1.631011 -0.614426,5.035383 0.832149,6.116011 0.431494,0.322338 0.931909,0.531646 1.474958,0.565298 0.906879,0.0562 2.500374,-0.635428 3.169981,-0.04481 0.84759,0.747602 0.799688,2.407091 1.238358,3.527218 0.298854,2.136866 -0.728957,4.29473 0.392025,6.3543 0.519141,1.298272 -0.04183,3.547493 2.019484,2.398912 2.170327,-0.697822 3.034242,-2.81338 3.303745,-4.660703 2.404483,-1.245821 0.334374,-3.764844 1.648817,-5.565963 0.482277,-1.219432 3.232124,-3.711035 1.291494,-4.464067 -0.325341,-0.255653 4.044923,-3.097003 1.361609,-3.714221 -1.3198,0.245592 -1.652501,-2.735257 -0.146947,-1.195936 0.742332,0.665123 1.817271,0.877653 1.62009,-0.598838 C 42.901651,16.081872 40.616399,11.951096 37.240234,9.0136719 37.343075,10.830808 34.17234,9.2050305 36.38571,8.7697771 35.691676,8.2490636 34.624816,8.3898949 33.851562,7.9726562 Z M 12.005859,8.0019532 C 11.111151,9.8617691 9.1073361,10.512473 7.8050313,12.256642 5.3814983,15.651767 3.9582896,19.796291 4,23.982422 c 1.6498974,1.700852 4.1715082,2.135576 5.9380513,3.678947 0.8428277,1.826188 -2.0674158,3.887793 -0.1189975,5.747834 1.6698472,1.686759 2.5262662,3.765073 2.7589092,6.094099 0.416647,2.463432 3.904323,3.083577 4.80121,0.600385 0.223618,-1.721093 0.908018,-2.981873 2.412398,-3.91095 -0.08344,-1.589184 0.762934,-2.980256 1.102626,-4.496792 C 19.091302,30.34882 16.610591,29.568326 15.144612,27.548472 13.468929,26.867583 11.840219,26.054089 10.151985,26.821318 8.4708451,26.989269 9.0545756,24.949107 7.9663212,24.737035 8.1283211,23.676819 7.9111859,22.6362 6.8259797,23.78113 4.6531615,24.167597 5.7639655,20.496287 7.4622881,20.559218 c 1.122847,-1.214926 2.7902719,1.761625 2.5900369,-0.243485 1.071837,-1.39536 2.022011,-3.162036 3.786565,-3.656924 0.897796,-0.263758 3.008712,-1.781408 0.869927,-1.673838 -0.81747,-0.656386 3.201934,-0.341941 2.633525,-2.080126 -0.617061,-0.746532 -0.712819,-1.694751 -1.855547,-1.860651 -1.047389,-1.7992223 -1.925877,1.244108 -2.648222,1.748479 C 12.187114,13.7923 11.81316,12.268885 10.971043,12.080788 9.7811844,10.12073 14.135678,10.412738 13.081466,8.2097525 12.795572,7.9449882 12.363357,7.9719988 12.005859,8.0019532 Z M 26.691606,8.9116406 C 25.208181,8.5294778 24.850529,10.570803 26.474758,9.7773472 26.931062,9.6790297 27.33929,9.156311 26.691606,8.9116406 Z M 15.990234,9.2851563 c -1.371667,1.0758107 2.135085,0.6964651 0.100929,0.01965 l -1.11e-4,-2.15e-5 z m 12.208985,2.0117187 c 0.156544,0.887555 0.380191,3.859398 1.373237,1.786151 -0.103716,-0.787614 -0.749278,-1.367893 -1.373237,-1.786151 z m -0.306641,1.048828 c -1.864859,0.62595 1.308894,1.597817 0,0 z m -10.664062,1.576172 c -0.305377,1.533971 1.404564,0.849159 0,0 z m 20.177734,6.818359 c 1.059072,1.458645 2.878475,3.594376 2.200115,5.316492 -0.878149,-1.432735 -1.660629,-3.022831 -2.426867,-4.543752 -0.05368,-0.276634 0.03016,-0.573867 0.226752,-0.77274 z"
     id="path2-4"
     inkscape:path-effect="#path-effect8-6"
     inkscape:original-d="m 24.103516,5 c -1.520959,0.3770258 -5.210952,0.075231 -5.049646,1.9006038 1.153836,0.6930993 1.047354,2.0811583 0.157619,2.4597045 0.41832,1.8085137 2.26834,1.4253777 2.975412,0.059332 C 23.703479,8.9314972 27.350047,7.1250161 25.227154,5.4112939 24.854203,5.2713257 24.443781,5.2197205 24.103516,5 Z M 18.619141,5.1757812 C 17.814439,5.534265 15.58088,5.6469815 15.801197,6.6894928 16.718423,6.3474264 18.701055,6.6052684 18.619141,5.1757812 Z m -4.560547,2.0976563 c 0.207333,0.7953817 -1.715719,3.5594165 0.01813,1.8952538 1.089317,-1.7873475 3.258979,1.1806607 3.720069,-0.2665565 -0.779496,-1.2870201 -2.69954,-1.6760114 -3.664987,-1.1999275 l -0.04425,-0.1761406 z m 19.792968,0.6992187 c -1.591855,0.074453 -4.11031,2.0763478 -3.442563,3.3958808 1.582768,0.951507 2.316853,0.163727 2.445847,-1.4378684 0.454732,-1.2189537 1.118747,-0.6712481 0.705012,0.3617374 1.618552,0.977151 -0.997995,2.869117 -2.249377,2.267888 -0.561349,-0.658771 -1.053996,1.361418 -2.137413,1.393264 -1.073004,0.760692 -0.602306,1.964328 -2.072233,2.525918 -0.942871,1.839194 2.058272,2.074932 2.408848,0.304769 1.001191,-1.793424 2.473762,-0.408319 3.193336,0.701841 0.416173,-0.839602 -0.276945,-2.159637 0.673719,-0.630734 0.499249,0.869909 0.793568,1.064636 1.281096,0.263714 0.838081,0.53825 2.460819,1.187721 2.691447,1.734276 -0.870312,1.544261 -3.394606,0.245484 -4.552796,0.558106 -1.470886,-1.620097 -4.163669,-1.626984 -5.584205,0.05992 -1.491429,1.453091 -2.593953,3.452354 -2.444723,5.530729 0.14923,2.078375 2.243487,4.403523 4.627967,3.032897 2.543161,-0.33292 2.196673,2.31213 2.814096,3.888695 0.298854,2.136866 -0.728957,4.29473 0.392025,6.3543 0.519141,1.298272 -0.04183,3.547493 2.019484,2.398912 2.170327,-0.697822 3.034242,-2.81338 3.303745,-4.660703 2.404483,-1.245821 0.334374,-3.764844 1.648817,-5.565963 0.482277,-1.219432 3.232124,-3.711035 1.291494,-4.464067 -0.325341,-0.255653 4.044923,-3.097003 1.361609,-3.714221 -1.3198,0.245592 -1.652501,-2.735257 -0.146947,-1.195936 0.742332,0.665123 1.817271,0.877653 1.62009,-0.598838 C 42.901651,16.081872 40.616399,11.951096 37.240234,9.0136719 37.343075,10.830808 34.17234,9.2050305 36.38571,8.7697771 35.691676,8.2490636 34.624816,8.3898949 33.851562,7.9726562 Z M 12.005859,8.0019532 C 11.111151,9.8617691 9.1073361,10.512473 7.8050313,12.256642 5.3814983,15.651767 3.9582896,19.796291 4,23.982422 c 1.6498974,1.700852 4.1715082,2.135576 5.9380513,3.678947 0.8428277,1.826188 -2.0674158,3.887793 -0.1189975,5.747834 1.6698472,1.686759 2.5262662,3.765073 2.7589092,6.094099 0.416647,2.463432 3.904323,3.083577 4.80121,0.600385 0.223618,-1.721093 0.908018,-2.981873 2.412398,-3.91095 -0.08344,-1.589184 0.762934,-2.980256 1.102626,-4.496792 C 19.091302,30.34882 16.610591,29.568326 15.144612,27.548472 13.468929,26.867583 11.840219,26.054089 10.151985,26.821318 8.4708451,26.989269 9.0545756,24.949107 7.9663212,24.737035 8.1283211,23.676819 7.9111859,22.6362 6.8259797,23.78113 4.6531615,24.167597 5.7639655,20.496287 7.4622881,20.559218 c 1.122847,-1.214926 2.7902719,1.761625 2.5900369,-0.243485 1.071837,-1.39536 2.022011,-3.162036 3.786565,-3.656924 0.897796,-0.263758 3.008712,-1.781408 0.869927,-1.673838 -0.81747,-0.656386 3.201934,-0.341941 2.633525,-2.080126 -0.617061,-0.746532 -0.712819,-1.694751 -1.855547,-1.860651 -1.047389,-1.7992223 -1.925877,1.244108 -2.648222,1.748479 C 12.187114,13.7923 11.81316,12.268885 10.971043,12.080788 9.7811844,10.12073 14.135678,10.412738 13.081466,8.2097525 12.795572,7.9449882 12.363357,7.9719988 12.005859,8.0019532 Z M 26.691606,8.9116406 C 25.208181,8.5294778 24.850529,10.570803 26.474758,9.7773472 26.931062,9.6790297 27.33929,9.156311 26.691606,8.9116406 Z M 15.990234,9.2851563 c -1.371667,1.0758107 2.135085,0.6964651 0.100929,0.01965 l -1.11e-4,-2.15e-5 z m 12.208985,2.0117187 c 0.156544,0.887555 0.380191,3.859398 1.373237,1.786151 -0.103716,-0.787614 -0.749278,-1.367893 -1.373237,-1.786151 z m -0.306641,1.048828 c -1.864859,0.62595 1.308894,1.597817 0,0 z m -10.664062,1.576172 c -0.305377,1.533971 1.404564,0.849159 0,0 z m 20.177734,6.818359 c 1.059072,1.458645 2.878475,3.594376 2.200115,5.316492 -0.878149,-1.432735 -1.660629,-3.022831 -2.426867,-4.543752 -0.05368,-0.276634 0.03016,-0.573867 0.226752,-0.77274 z"
     transform="matrix(1.3837485,0,0,1.3837485,-1.297214,-1.641252)"
     sodipodi:nodetypes="ccccccccccccccccccccccccccccczcccccccccccccccccccccccccccccccccccccccccccccccccccccc" />
  <path
     style="fill:none;stroke:#3f3f3f;stroke-width:3;stroke-linecap:round;stroke-linejoin:round"
     d="m 17.655162,7.0086693 c -6,21.9999997 1.692192,38.4563077 17,53.9999997"
     id="path7" />
  <path
     style="baseline-shift:baseline;display:inline;overflow:visible;fill:none;stroke:#000000;stroke-width:0.2;stroke-linecap:round;stroke-linejoin:round;stroke-dasharray:none;stroke-opacity:1;enable-background:accumulate;stop-color:#000000;filter:url(#filter12)"
     d="m 18.050786,5.561956 a 1.5,1.5 0 0 0 -1.841797,1.052735 c -6.135589,22.497161 1.87598,39.705448 17.378907,55.447265 a 1.5,1.5 0 0 0 2.121093,0.01563 1.5,1.5 0 0 0 0.01563,-2.121093 C 20.611925,44.610921 13.23911,28.906592 19.103521,7.403753 A 1.5,1.5 0 0 0 18.050786,5.561956 Z"
     id="path7-0" />
  <path
     style="fill:#ffffff;stroke-width:1.42918;opacity:0.78164349"
     d="m 49.533684,11.342555 -1.253114,3.854461 a 0.2516054,0.2516054 60.08585 0 0 0.186271,0.323749 l 3.962077,0.85388 a 0.50749948,0.50749948 82.58587 0 1 0.123405,0.948333 l -3.611601,1.839427 a 0.25160541,0.25160541 105.08589 0 0 -0.09721,0.360639 l 2.197825,3.405396 a 0.50749986,0.50749986 127.5859 0 1 -0.583313,0.757834 l -3.85446,-1.253118 a 0.25160515,0.25160515 150.08588 0 0 -0.323749,0.186271 l -0.85388,3.962079 A 0.50749867,0.50749867 172.5859 0 1 44.4776,26.70491 l -1.839425,-3.611604 a 0.25160501,0.25160501 15.085899 0 0 -0.360638,-0.09721 l -3.4054,2.197831 A 0.5074996,0.5074996 37.58587 0 1 38.114303,24.610611 L 39.36742,20.756149 A 0.25160521,0.25160521 60.085863 0 0 39.181149,20.4324 l -3.962077,-0.853879 a 0.50749947,0.50749947 82.585861 0 1 -0.123405,-0.948334 l 3.611601,-1.839427 a 0.25160528,0.25160528 105.08587 0 0 0.09721,-0.360639 l -2.197828,-3.405396 a 0.50749948,0.50749948 127.58587 0 1 0.583313,-0.757833 l 3.854463,1.253118 a 0.2516052,0.2516052 150.08587 0 0 0.323749,-0.186271 l 0.85388,-3.9620789 A 0.50749871,0.50749871 172.58589 0 1 43.17039,9.2482558 l 1.839425,3.6116032 a 0.25160496,0.25160496 15.08589 0 0 0.360638,0.09721 l 3.405397,-2.19783 a 0.50749989,0.50749989 37.585845 0 1 0.757834,0.583313 z"
     id="path5"
     inkscape:path-effect="#path-effect10"
     inkscape:original-d="m 49.974915,9.9853698 -1.78051,5.4766822 5.62959,1.21325 -5.13161,2.613584 3.12282,4.83862 -5.47668,-1.780515 -1.21325,5.629592 -2.61358,-5.131614 -4.838624,3.122827 1.780514,-5.476683 -5.62959,-1.213249 5.13161,-2.613585 -3.122824,-4.838619 5.476684,1.780515 1.21325,-5.6295922 2.61358,5.1316132 z"
     sodipodi:nodetypes="ccccccccccccccccc" />
  <path
     style="mix-blend-mode:normal;fill:#ffffff;stroke-width:1.42918;filter:url(#filter10)"
     d="m 49.533684,11.342555 -1.253114,3.854461 a 0.2516054,0.2516054 60.08585 0 0 0.186271,0.323749 l 3.962077,0.85388 a 0.50749948,0.50749948 82.58587 0 1 0.123405,0.948333 l -3.611601,1.839427 a 0.25160541,0.25160541 105.08589 0 0 -0.09721,0.360639 l 2.197825,3.405396 a 0.50749986,0.50749986 127.5859 0 1 -0.583313,0.757834 l -3.85446,-1.253118 a 0.25160515,0.25160515 150.08588 0 0 -0.323749,0.186271 l -0.85388,3.962079 A 0.50749867,0.50749867 172.5859 0 1 44.4776,26.70491 l -1.839425,-3.611604 a 0.25160501,0.25160501 15.085899 0 0 -0.360638,-0.09721 l -3.4054,2.197831 A 0.5074996,0.5074996 37.58587 0 1 38.114303,24.610611 L 39.36742,20.756149 A 0.25160521,0.25160521 60.085863 0 0 39.181149,20.4324 l -3.962077,-0.853879 a 0.50749947,0.50749947 82.585861 0 1 -0.123405,-0.948334 l 3.611601,-1.839427 a 0.25160528,0.25160528 105.08587 0 0 0.09721,-0.360639 l -2.197828,-3.405396 a 0.50749948,0.50749948 127.58587 0 1 0.583313,-0.757833 l 3.854463,1.253118 a 0.2516052,0.2516052 150.08587 0 0 0.323749,-0.186271 l 0.85388,-3.9620789 A 0.50749871,0.50749871 172.58589 0 1 43.17039,9.2482558 l 1.839425,3.6116032 a 0.25160496,0.25160496 15.08589 0 0 0.360638,0.09721 l 3.405397,-2.19783 a 0.50749989,0.50749989 37.585845 0 1 0.757834,0.583313 z"
     id="path5-3"
     inkscape:path-effect="#path-effect10-2"
     inkscape:original-d="m 49.974915,9.9853698 -1.78051,5.4766822 5.62959,1.21325 -5.13161,2.613584 3.12282,4.83862 -5.47668,-1.780515 -1.21325,5.629592 -2.61358,-5.131614 -4.838624,3.122827 1.780514,-5.476683 -5.62959,-1.213249 5.13161,-2.613585 -3.122824,-4.838619 5.476684,1.780515 1.21325,-5.6295922 2.61358,5.1316132 z"
     sodipodi:nodetypes="ccccccccccccccccc"
     transform="matrix(0.57699044,0,0,0.57699044,18.537969,7.6042666)" />
  <path
     style="fill:none;stroke:url(#radialGradient13);stroke-width:3;stroke-linecap:round;stroke-linejoin:round;stroke-opacity:1"
     d="m 59.655162,32.008669 c -15.761826,15.681734 -33,19 -52.9999999,13"
     id="path9" />
  <path
     style="baseline-shift:baseline;display:inline;overflow:visible;fill:none;stroke:#000000;stroke-width:0.2;stroke-linecap:round;stroke-linejoin:round;stroke-dasharray:none;stroke-opacity:1;enable-background:accumulate;stop-color:#000000;filter:url(#filter11)"
     d="m 59.660161,30.509222 a 1.5,1.5 0 0 0 -1.0625,0.4375 C 43.148482,46.317398 26.714883,49.459818 7.0878958,43.571722 a 1.5,1.5 0 0 0 -1.8691406,1.005859 1.5,1.5 0 0 0 1.0058594,1.869141 c 20.3730124,6.111904 38.4157614,2.617792 54.4902344,-13.375 a 1.5,1.5 0 0 0 0.0039,-2.121094 1.5,1.5 0 0 0 -1.058594,-0.441406 z"
     id="path9-8" />
</svg>
