<?xml version="1.0" encoding="UTF-8" standalone="no"?>
<svg
   width="64"
   height="64"
   version="1"
   id="svg11"
   sodipodi:docname="gimagereader.svg"
   inkscape:version="1.4.3 (0d15f75042, 2025-12-25)"
   xmlns:inkscape="http://www.inkscape.org/namespaces/inkscape"
   xmlns:sodipodi="http://sodipodi.sourceforge.net/DTD/sodipodi-0.dtd"
   xmlns:xlink="http://www.w3.org/1999/xlink"
   xmlns="http://www.w3.org/2000/svg"
   xmlns:svg="http://www.w3.org/2000/svg">
  <defs
     id="defs11">
    <inkscape:path-effect
       effect="fillet_chamfer"
       id="path-effect1"
       is_visible="true"
       lpeversion="1"
       nodesatellites_param="F,0,0,1,0,3.0299288,0,1 @ F,0,0,1,0,0,0,1 @ F,0,0,1,0,0,0,1 @ F,0,0,1,0,0,0,1 @ F,0,0,1,0,0,0,1 @ F,0,0,1,0,0,0,1 @ F,0,0,1,0,0,0,1 @ F,0,0,1,0,0,0,1 @ F,0,0,1,0,0,0,1 @ F,0,1,1,0,3.0299288,0,1 | F,0,0,1,0,0,0,1 @ F,0,0,1,0,0,0,1 @ F,0,0,1,0,0,0,1 @ F,0,0,1,0,0,0,1 @ F,0,0,1,0,0,0,1 | F,0,0,1,0,0,0,1 @ F,0,0,1,0,0,0,1 @ F,0,0,1,0,0,0,1 @ F,0,0,1,0,0,0,1 @ F,0,0,1,0,0,0,1"
       radius="0"
       unit="px"
       method="auto"
       mode="F"
       chamfer_steps="1"
       flexible="false"
       use_knot_distance="true"
       apply_no_radius="true"
       apply_with_radius="true"
       only_selected="false"
       hide_knots="false" />
    <inkscape:path-effect
       effect="fillet_chamfer"
       id="path-effect13"
       is_visible="true"
       lpeversion="1"
       nodesatellites_param="F,0,0,1,0,0,0,1 @ F,0,0,1,0,0,0,1 @ F,0,0,1,0,2.5677632,0,1 @ F,0,0,1,0,3.3374098,0,1 @ F,0,0,1,0,3.8582569,0,1 @ F,0,0,1,0,3.8582569,0,1 @ F,0,0,1,0,3.3374098,0,1 @ F,0,0,1,0,2.5677632,0,1 @ F,0,0,1,0,0,0,1 | F,0,0,1,0,1.2736264,0,1 @ F,0,0,1,0,1.2736264,0,1 @ F,0,0,1,0,0.83089541,0,1"
       radius="0"
       unit="px"
       method="auto"
       mode="F"
       chamfer_steps="1"
       flexible="false"
       use_knot_distance="true"
       apply_no_radius="true"
       apply_with_radius="true"
       only_selected="false"
       hide_knots="false" />
    <inkscape:path-effect
       effect="fillet_chamfer"
       id="path-effect1-2"
       is_visible="true"
       lpeversion="1"
       nodesatellites_param="F,0,0,1,0,3.0299288,0,1 @ F,0,0,1,0,0,0,1 @ F,0,0,1,0,0,0,1 @ F,0,0,1,0,0,0,1 @ F,0,0,1,0,0,0,1 @ F,0,0,1,0,0,0,1 @ F,0,0,1,0,0,0,1 @ F,0,0,1,0,0,0,1 @ F,0,0,1,0,0,0,1 @ F,0,1,1,0,3.0299288,0,1 | F,0,0,1,0,0,0,1 @ F,0,0,1,0,0,0,1 @ F,0,0,1,0,0,0,1 @ F,0,0,1,0,0,0,1 @ F,0,0,1,0,0,0,1 | F,0,0,1,0,0,0,1 @ F,0,0,1,0,0,0,1 @ F,0,0,1,0,0,0,1 @ F,0,0,1,0,0,0,1 @ F,0,0,1,0,0,0,1"
       radius="0"
       unit="px"
       method="auto"
       mode="F"
       chamfer_steps="1"
       flexible="false"
       use_knot_distance="true"
       apply_no_radius="true"
       apply_with_radius="true"
       only_selected="false"
       hide_knots="false" />
    <inkscape:path-effect
       effect="fillet_chamfer"
       id="path-effect13-7"
       is_visible="true"
       lpeversion="1"
       nodesatellites_param="F,0,0,1,0,0,0,1 @ F,0,0,1,0,0,0,1 @ F,0,0,1,0,2.5677632,0,1 @ F,0,0,1,0,3.3374098,0,1 @ F,0,0,1,0,3.8582569,0,1 @ F,0,0,1,0,3.8582569,0,1 @ F,0,0,1,0,3.3374098,0,1 @ F,0,0,1,0,2.5677632,0,1 @ F,0,0,1,0,0,0,1 | F,0,0,1,0,1.2736264,0,1 @ F,0,0,1,0,1.2736264,0,1 @ F,0,0,1,0,0.83089541,0,1"
       radius="0"
       unit="px"
       method="auto"
       mode="F"
       chamfer_steps="1"
       flexible="false"
       use_knot_distance="true"
       apply_no_radius="true"
       apply_with_radius="true"
       only_selected="false"
       hide_knots="false" />
    <linearGradient
       id="linearGradient6-3"
       inkscape:collect="always">
      <stop
         style="stop-color:#ff423b;stop-opacity:1;"
         offset="0.00165814"
         id="stop6" />
      <stop
         style="stop-color:#f16232;stop-opacity:1;"
         offset="0.99860948"
         id="stop8-6" />
    </linearGradient>
    <radialGradient
       inkscape:collect="always"
       xlink:href="#linearGradient6-3"
       id="radialGradient12-2"
       cx="8.9159527"
       cy="52.562355"
       fx="8.9159527"
       fy="52.562355"
       r="21.984943"
       gradientTransform="matrix(2.4108181,-2.4108181,3.075631,3.075631,-180.22015,-81.761033)"
       gradientUnits="userSpaceOnUse" />
    <filter
       inkscape:collect="always"
       style="color-interpolation-filters:sRGB"
       id="filter1-3"
       x="-0.086579163"
       y="-0.067864647"
       width="1.1731583"
       height="1.1357293">
      <feGaussianBlur
         inkscape:collect="always"
         stdDeviation="1.5236983"
         id="feGaussianBlur1-7" />
    </filter>
    <inkscape:path-effect
       effect="fillet_chamfer"
       id="path-effect1-9"
       is_visible="true"
       lpeversion="1"
       nodesatellites_param="F,0,0,1,0,0,0,1 @ F,0,1,1,0,2.9069811,0,1 @ F,0,0,1,0,0,0,1 @ F,0,0,1,0,0,0,1 | F,0,0,1,0,2.9069811,0,1 @ F,0,0,1,0,0,0,1 @ F,0,0,1,0,0,0,1 | F,0,0,1,0,0,0,1 @ F,0,1,1,0,2.9069811,0,1 @ F,0,0,1,0,0,0,1 | F,0,0,1,0,0,0,1 @ F,0,0,1,0,0,0,1 @ F,0,1,1,0,2.9069811,0,1 | F,0,0,1,0,0,0,1 @ F,0,0,1,0,0,0,1 @ F,0,1,1,0,2.9069811,0,1 | F,0,0,1,0,0,0,1 @ F,0,1,1,0,2.9069811,0,1 @ F,0,0,1,0,0,0,1"
       radius="0"
       unit="px"
       method="auto"
       mode="F"
       chamfer_steps="1"
       flexible="false"
       use_knot_distance="true"
       apply_no_radius="true"
       apply_with_radius="true"
       only_selected="false"
       hide_knots="false" />
    <filter
       inkscape:collect="always"
       style="color-interpolation-filters:sRGB"
       id="filter20"
       x="-0.068267277"
       y="-0.051200457"
       width="1.1365346"
       height="1.1024009">
      <feGaussianBlur
         inkscape:collect="always"
         stdDeviation="0.98234249"
         id="feGaussianBlur20" />
    </filter>
  </defs>
  <sodipodi:namedview
     id="namedview11"
     pagecolor="#ffffff"
     bordercolor="#000000"
     borderopacity="0.25"
     inkscape:showpageshadow="2"
     inkscape:pageopacity="0.0"
     inkscape:pagecheckerboard="0"
     inkscape:deskcolor="#d1d1d1"
     inkscape:zoom="16.478672"
     inkscape:cx="30.524304"
     inkscape:cy="34.165374"
     inkscape:current-layer="svg11" />
  <rect
     style="fill:url(#radialGradient12-2);fill-opacity:1;stroke:none;stroke-width:8.3;stroke-linejoin:bevel;stroke-opacity:1;paint-order:stroke fill markers"
     id="rect10-9"
     width="43.969887"
     height="56.095127"
     x="10.015057"
     y="3.9524364"
     rx="6.4782028"
     ry="6.4782028" />
  <path
     id="path4-2-2"
     style="fill:#f5f5f5"
     d="M 17.800781 8 C 15.701595 7.9998255 13.999825 9.7015958 14 11.800781 L 14 52.199219 C 13.999826 54.298405 15.701595 56.000175 17.800781 56 L 46.199219 56 C 48.298405 56.000175 50.000175 54.298405 50 52.199219 L 50 11.236328 C 49.9994 9.4484395 48.549608 7.9995213 46.761719 8 L 17.800781 8 z M 18.753906 10.701172 L 27.304688 10.701172 C 28.489014 10.701172 29.441406 11.655517 29.441406 12.839844 L 29.441406 21.388672 C 29.441406 22.572998 28.489014 23.527344 27.304688 23.527344 L 18.753906 23.527344 C 17.56958 23.527344 16.615234 22.572998 16.615234 21.388672 L 16.615234 12.839844 C 16.615234 11.655517 17.56958 10.701172 18.753906 10.701172 z M 34.382812 10.701172 L 46.246094 10.701172 C 46.870462 10.681182 47.39308 11.170587 47.414062 11.794922 C 47.414777 12.440585 46.891757 12.96448 46.246094 12.964844 L 34.382812 12.964844 C 33.757706 12.984824 33.234773 12.494249 33.214844 11.869141 C 33.215208 11.224241 33.737913 10.701536 34.382812 10.701172 z M 34.382812 15.982422 L 46.246094 15.982422 C 46.8712 15.962442 47.394134 16.453017 47.414062 17.078125 C 47.413699 17.723025 46.890994 18.24573 46.246094 18.246094 L 34.382812 18.246094 C 33.757706 18.266074 33.234773 17.775499 33.214844 17.150391 C 33.215208 16.505491 33.737913 15.982786 34.382812 15.982422 z M 34.382812 21.263672 L 46.246094 21.263672 C 46.8712 21.243692 47.394134 21.734267 47.414062 22.359375 C 47.413699 23.004275 46.890994 23.52698 46.246094 23.527344 L 34.382812 23.527344 C 33.758445 23.547334 33.235826 23.057929 33.214844 22.433594 C 33.214129 21.787931 33.73715 21.264036 34.382812 21.263672 z M 32 26.818359 A 13.239205 13.239205 0 0 1 45.240234 40.056641 A 13.239205 13.239205 0 0 1 32 53.296875 A 13.239205 13.239205 0 0 1 18.759766 40.056641 A 13.239205 13.239205 0 0 1 32 26.818359 z M 32 28.763672 C 29.898292 28.761151 27.805868 29.371708 26.025391 30.484375 C 25.269104 30.957 25.084886 32.06489 25.53125 32.837891 L 28.548828 38.064453 L 33.826172 28.925781 C 33.223726 28.822442 32.611228 28.768272 32 28.763672 z M 36.675781 29.927734 C 36.02694 29.897858 35.352313 30.263978 35.017578 30.84375 L 32 36.072266 L 42.560547 36.072266 C 41.60859 33.523021 39.696176 31.372932 37.302734 30.097656 C 37.105969 29.99282 36.892062 29.937734 36.675781 29.927734 z M 23.267578 32.90625 C 21.534331 34.998285 20.617988 37.736972 20.710938 40.447266 C 20.741503 41.338529 21.609333 42.052734 22.501953 42.052734 L 28.548828 42.052734 L 23.267578 32.90625 z M 35.451172 38.064453 L 40.732422 47.208984 C 42.465669 45.116949 43.382013 42.378261 43.289062 39.667969 C 43.258497 38.776704 42.390667 38.064453 41.498047 38.064453 L 35.451172 38.064453 z M 35.451172 42.052734 L 30.173828 51.191406 C 32.850432 51.667743 35.677689 51.067421 37.976562 49.630859 C 38.732867 49.158245 38.915114 48.052298 38.46875 47.279297 L 35.451172 42.052734 z M 21.439453 44.044922 C 22.388252 46.590443 24.30521 48.742678 26.697266 50.017578 C 27.484273 50.437031 28.536107 50.044513 28.982422 49.271484 L 32 44.044922 L 21.439453 44.044922 z " />
  <path
     id="path4-2-2-1"
     style="fill:none;stroke:#ff0000;stroke-opacity:1;stroke-width:0.2;stroke-dasharray:none;filter:url(#filter20)"
     d="M 17.800781,8.0000001 C 15.701595,7.9998256 13.999825,9.701596 14,11.800781 V 52.199219 C 13.999826,54.298405 15.701595,56.000175 17.800781,56 H 46.199219 C 48.298405,56.000175 50.000175,54.298405 50,52.199219 V 11.236328 C 49.9994,9.44844 48.549608,7.9995214 46.761719,8.0000001 Z m 0.953125,2.7011719 h 8.550782 c 1.184326,0 2.136718,0.954345 2.136718,2.138672 v 8.548828 c 0,1.184326 -0.952392,2.138672 -2.136718,2.138672 h -8.550782 c -1.184326,0 -2.138672,-0.954346 -2.138672,-2.138672 v -8.548828 c 0,-1.184327 0.954346,-2.138672 2.138672,-2.138672 z m 15.628906,0 h 11.863282 c 0.624368,-0.01999 1.146986,0.469415 1.167968,1.09375 7.15e-4,0.645663 -0.522305,1.169558 -1.167968,1.169922 H 34.382812 c -0.625106,0.01998 -1.148039,-0.470595 -1.167968,-1.095703 3.64e-4,-0.6449 0.523069,-1.167605 1.167968,-1.167969 z m 0,5.28125 h 11.863282 c 0.625106,-0.01998 1.14804,0.470595 1.167968,1.095703 -3.63e-4,0.6449 -0.523068,1.167605 -1.167968,1.167969 H 34.382812 c -0.625106,0.01998 -1.148039,-0.470595 -1.167968,-1.095703 3.64e-4,-0.6449 0.523069,-1.167605 1.167968,-1.167969 z m 0,5.28125 h 11.863282 c 0.625106,-0.01998 1.14804,0.470595 1.167968,1.095703 -3.63e-4,0.6449 -0.523068,1.167605 -1.167968,1.167969 H 34.382812 c -0.624367,0.01999 -1.146986,-0.469415 -1.167968,-1.09375 -7.15e-4,-0.645663 0.522306,-1.169558 1.167968,-1.169922 z M 32,26.818359 A 13.239205,13.239205 0 0 1 45.240234,40.056641 13.239205,13.239205 0 0 1 32,53.296875 13.239205,13.239205 0 0 1 18.759766,40.056641 13.239205,13.239205 0 0 1 32,26.818359 Z m 0,1.945313 c -2.101708,-0.0025 -4.194132,0.608036 -5.974609,1.720703 -0.756287,0.472625 -0.940505,1.580515 -0.494141,2.353516 l 3.017578,5.226562 5.277344,-9.138672 C 33.223726,28.822442 32.611228,28.768272 32,28.763672 Z m 4.675781,1.164062 c -0.648841,-0.02988 -1.323468,0.336244 -1.658203,0.916016 L 32,36.072266 H 42.560547 C 41.60859,33.523021 39.696176,31.372932 37.302734,30.097656 37.105969,29.99282 36.892062,29.937734 36.675781,29.927734 Z M 23.267578,32.90625 c -1.733247,2.092035 -2.64959,4.830722 -2.55664,7.541016 0.03057,0.891263 0.898395,1.605468 1.791015,1.605468 h 6.046875 z m 12.183594,5.158203 5.28125,9.144531 c 1.733247,-2.092035 2.649591,-4.830723 2.55664,-7.541015 -0.03057,-0.891265 -0.898395,-1.603516 -1.791015,-1.603516 z m 0,3.988281 -5.277344,9.138672 c 2.676604,0.476337 5.503861,-0.123985 7.802734,-1.560547 0.756305,-0.472614 0.938552,-1.578561 0.492188,-2.351562 z m -14.011719,1.992188 c 0.948799,2.545521 2.865757,4.697756 5.257813,5.972656 0.787007,0.419453 1.838841,0.02694 2.285156,-0.746094 L 32,44.044922 Z" />
  <rect
     style="fill:none;fill-opacity:1;stroke:#000000;stroke-width:0.3;stroke-linejoin:bevel;stroke-dasharray:none;stroke-opacity:1;paint-order:stroke fill markers;filter:url(#filter1-3)"
     id="rect10-5-8"
     width="43.969887"
     height="56.095127"
     x="10.015058"
     y="3.952436"
     rx="6.4782028"
     ry="6.4782028" />
</svg>
