<?xml version="1.0" encoding="UTF-8" standalone="no"?>
<svg
   width="64"
   height="64"
   version="1.1"
   id="svg6"
   sodipodi:docname="appimagekit-org.wezfurlong.wezterm.svg"
   inkscape:version="1.4.3 (0d15f75042, 2025-12-25)"
   xmlns:inkscape="http://www.inkscape.org/namespaces/inkscape"
   xmlns:sodipodi="http://sodipodi.sourceforge.net/DTD/sodipodi-0.dtd"
   xmlns:xlink="http://www.w3.org/1999/xlink"
   xmlns="http://www.w3.org/2000/svg"
   xmlns:svg="http://www.w3.org/2000/svg">
  <defs
     id="defs6">
    <linearGradient
       id="linearGradient7"
       inkscape:collect="always">
      <stop
         style="stop-color:#f6edff;stop-opacity:1;"
         offset="0"
         id="stop7" />
      <stop
         style="stop-color:#626cff;stop-opacity:1;"
         offset="1"
         id="stop8" />
    </linearGradient>
    <inkscape:path-effect
       effect="fillet_chamfer"
       id="path-effect7"
       is_visible="true"
       lpeversion="1"
       nodesatellites_param="F,0,0,1,0,1.2512504,0,1 @ F,0,0,1,0,0.67235649,0,1 @ F,0,0,1,0,0.96410944,0,1 @ F,0,0,1,0,0.96410944,0,1 @ F,0,0,1,0,0.67235649,0,1 @ F,0,0,1,0,0,0,1 @ F,0,0,1,0,0,0,1 @ F,0,1,1,0,0.93244905,0,1 @ F,0,0,1,0,0.93244905,0,1 @ F,0,0,1,0,0.92108865,0,1 @ F,0,0,1,0,0.67235649,0,1 @ F,0,0,1,0,0.96194202,0,1 @ F,0,0,1,0,0.96194202,0,1 @ F,0,0,1,0,0.67235649,0,1 @ F,0,0,1,0,0,0,1 @ F,0,0,1,0,0,0,1 @ F,0,0,1,0,0,0,1 @ F,0,0,1,0,0,0,1 @ F,0,0,1,0,1.2512504,0,1 | F,0,0,1,0,1.7208999,0,1 @ F,0,0,1,0,1.7208999,0,1 @ F,0,0,1,0,0,0,1 @ F,0,0,1,0,1.7208999,0,1 @ F,0,0,1,0,1.7208999,0,1 @ F,0,0,1,0,1.3717351,0,1 @ F,0,0,1,0,1.3717351,0,1 @ F,0,0,1,0,0,0,1 @ F,0,0,1,0,1.0792711,0,1 @ F,0,0,1,0,1.0792711,0,1 @ F,0,0,1,0,0,0,1 @ F,0,0,1,0,1.3717351,0,1 @ F,0,0,1,0,1.3717351,0,1"
       radius="0"
       unit="px"
       method="auto"
       mode="F"
       chamfer_steps="1"
       flexible="false"
       use_knot_distance="true"
       apply_no_radius="true"
       apply_with_radius="true"
       only_selected="false"
       hide_knots="false" />
    <radialGradient
       inkscape:collect="always"
       xlink:href="#linearGradient7"
       id="radialGradient8"
       cx="19.774836"
       cy="25.799461"
       fx="19.774836"
       fy="25.799461"
       r="10.854045"
       gradientTransform="matrix(5.3793997,0,0,3.5957487,-97.348796,-55.980957)"
       gradientUnits="userSpaceOnUse" />
    <inkscape:path-effect
       effect="fillet_chamfer"
       id="path-effect7-3"
       is_visible="true"
       lpeversion="1"
       nodesatellites_param="F,0,0,1,0,1.2512504,0,1 @ F,0,1,1,0,0.67235649,0,1 @ F,0,0,1,0,0.96410944,0,1 @ F,0,0,1,0,0.96410944,0,1 @ F,0,1,1,0,0.67235649,0,1 @ F,0,0,1,0,0,0,1 @ F,0,0,1,0,0,0,1 @ F,0,0,1,0,0,0,1 @ F,0,0,1,0,0,0,1 @ F,0,0,1,0,0.92108865,0,1 @ F,0,0,1,0,0.92108865,0,1 @ F,0,1,1,0,0.67235649,0,1 @ F,0,0,1,0,0.96194202,0,1 @ F,0,0,1,0,0.96194202,0,1 @ F,0,0,1,0,0.67235649,0,1 @ F,0,0,1,0,0,0,1 @ F,0,0,1,0,0,0,1 @ F,0,0,1,0,0,0,1 @ F,0,0,1,0,0,0,1 @ F,0,0,1,0,1.2512504,0,1 | F,0,0,1,0,1.7208999,0,1 @ F,0,0,1,0,1.7208999,0,1 @ F,0,0,1,0,0,0,1 @ F,0,0,1,0,1.7208999,0,1 @ F,0,0,1,0,1.7208999,0,1 @ F,0,0,1,0,1.3717351,0,1 @ F,0,0,1,0,1.3717351,0,1 @ F,0,0,1,0,0,0,1 @ F,0,0,1,0,1.0792711,0,1 @ F,0,0,1,0,1.0792711,0,1 @ F,0,0,1,0,0,0,1 @ F,0,0,1,0,1.3717351,0,1 @ F,0,0,1,0,1.3717351,0,1"
       radius="0"
       unit="px"
       method="auto"
       mode="F"
       chamfer_steps="1"
       flexible="false"
       use_knot_distance="true"
       apply_no_radius="true"
       apply_with_radius="true"
       only_selected="false"
       hide_knots="false" />
    <filter
       inkscape:collect="always"
       style="color-interpolation-filters:sRGB"
       id="filter8"
       x="-0.04036367"
       y="-0.051909666"
       width="1.0806961"
       height="1.1038193">
      <feGaussianBlur
         inkscape:collect="always"
         stdDeviation="0.3352854"
         id="feGaussianBlur8" />
    </filter>
    <radialGradient
       inkscape:collect="always"
       xlink:href="#SVGID_1_-3-2"
       id="radialGradient9"
       cx="94.453384"
       cy="-1.0981183"
       fx="94.453384"
       fy="-1.0981183"
       r="28"
       gradientUnits="userSpaceOnUse"
       gradientTransform="matrix(0,-2.2255634,2.1809298,0,64.220031,270.5008)" />
    <radialGradient
       id="SVGID_1_-3-2"
       cx="-159.43106"
       cy="15.462561"
       r="64.706802"
       gradientTransform="matrix(-0.89413329,0,0,0.96304834,-70.017818,-8.6185067)"
       gradientUnits="userSpaceOnUse"
       fx="-159.43106"
       fy="15.462561">
      <stop
         offset="0"
         style="stop-color:#631fff;stop-opacity:1;"
         id="stop1-6-9" />
      <stop
         offset="1"
         style="stop-color:#865cff;stop-opacity:1;"
         id="stop2-7-1" />
    </radialGradient>
    <filter
       inkscape:collect="always"
       style="color-interpolation-filters:sRGB"
       id="filter12"
       x="-0.069069561"
       y="-0.080183745"
       width="1.1381391"
       height="1.1603675">
      <feGaussianBlur
         inkscape:collect="always"
         stdDeviation="1.5491233"
         id="feGaussianBlur12" />
    </filter>
    <filter
       inkscape:collect="always"
       style="color-interpolation-filters:sRGB"
       id="filter11"
       x="-0.087906731"
       y="-0.10673619"
       width="1.1758135"
       height="1.2134724">
      <feGaussianBlur
         inkscape:collect="always"
         stdDeviation="1.5491233"
         id="feGaussianBlur11" />
    </filter>
    <inkscape:path-effect
       effect="fillet_chamfer"
       id="path-effect6"
       is_visible="true"
       lpeversion="1"
       nodesatellites_param="F,0,0,1,0,1.5848536,0,1 @ F,0,0,1,0,1.5848536,0,1 @ F,0,0,1,0,0.54849555,0,1 @ F,0,0,1,0,1.5848536,0,1 @ F,0,0,1,0,1.5848536,0,1 @ F,0,0,1,0,1.9224346,0,1 | F,0,0,1,0,1.5848536,0,1 @ F,0,0,1,0,1.5848536,0,1 @ F,0,0,1,0,1.5848536,0,1 @ F,0,0,1,0,1.5848536,0,1"
       radius="0"
       unit="px"
       method="auto"
       mode="F"
       chamfer_steps="1"
       flexible="false"
       use_knot_distance="true"
       apply_no_radius="true"
       apply_with_radius="true"
       only_selected="false"
       hide_knots="false" />
    <inkscape:path-effect
       effect="fillet_chamfer"
       id="path-effect6-7"
       is_visible="true"
       lpeversion="1"
       nodesatellites_param="F,0,0,1,0,1.5848536,0,1 @ F,0,0,1,0,1.5848536,0,1 @ F,0,0,1,0,0.54849555,0,1 @ F,0,0,1,0,1.5848536,0,1 @ F,0,0,1,0,1.5848536,0,1 @ F,0,0,1,0,1.9224346,0,1 | F,0,0,1,0,1.5848536,0,1 @ F,0,0,1,0,1.5848536,0,1 @ F,0,0,1,0,1.5848536,0,1 @ F,0,0,1,0,1.5848536,0,1"
       radius="0"
       unit="px"
       method="auto"
       mode="F"
       chamfer_steps="1"
       flexible="false"
       use_knot_distance="true"
       apply_no_radius="true"
       apply_with_radius="true"
       only_selected="false"
       hide_knots="false" />
  </defs>
  <sodipodi:namedview
     id="namedview6"
     pagecolor="#505050"
     bordercolor="#eeeeee"
     borderopacity="1"
     inkscape:showpageshadow="0"
     inkscape:pageopacity="0"
     inkscape:pagecheckerboard="0"
     inkscape:deskcolor="#505050"
     inkscape:zoom="7.8924981"
     inkscape:cx="38.137481"
     inkscape:cy="31.042136"
     inkscape:window-width="1920"
     inkscape:window-height="1020"
     inkscape:window-x="0"
     inkscape:window-y="0"
     inkscape:window-maximized="1"
     inkscape:current-layer="svg6" />
  <g
     id="g1"
     transform="translate(5e-7,3.8810465)">
    <path
       id="path2-36"
       style="fill:url(#radialGradient9)"
       d="m 20.800777,4.0000009 c -9.30719,0 -16.800781,7.4935901 -16.800781,16.8007811 V 32 35.437125 c 0,9.30719 7.493591,16.800781 16.800781,16.800781 h 22.398436 c 9.30719,0 16.80079,-7.493591 16.80079,-16.800781 V 32 20.800781 c 0,-9.307191 -7.4936,-16.8007801 -16.80079,-16.8007801 z"
       sodipodi:nodetypes="sscsssscsss" />
    <path
       style="fill:#3f3f3f"
       d="m 20.999996,9.9999999 h 21.999997 c 6.18914,0 11,4.8108661 11,11.0000011 v 14.237905 c 0,6.189135 -4.81086,11 -11,11 H 20.999996 c -6.189135,0 -11,-4.810865 -11,-11 V 21.000001 c 0,-6.189135 4.810865,-11.0000011 11,-11.0000011 z"
       id="path5-7"
       sodipodi:nodetypes="sssssssss" />
    <path
       id="path2-3"
       style="fill:none;stroke:#000000;stroke-width:0.3;stroke-dasharray:none;stroke-opacity:1;filter:url(#filter12)"
       d="m 20.800777,4.0000009 c -9.30719,0 -16.800781,7.4935891 -16.800781,16.8007801 V 32 35.437125 c 0,9.30719 7.493591,16.800781 16.800781,16.800781 h 22.398436 c 9.30719,0 16.80079,-7.493591 16.80079,-16.800781 V 32 20.800781 c 0,-9.307191 -7.4936,-16.8007801 -16.80079,-16.8007801 z"
       sodipodi:nodetypes="sscsssscsss" />
    <path
       style="fill:none;stroke:#000000;stroke-width:0.3;stroke-dasharray:none;stroke-opacity:1;filter:url(#filter11)"
       d="m 20.999996,9.9999999 h 21.999997 c 6.18914,0 11,4.8108661 11,11.0000011 v 14.237905 c 0,6.189135 -4.81086,11 -11,11 H 20.999996 c -6.189135,0 -11,-4.810865 -11,-11 V 21.000001 c 0,-6.189135 4.810865,-11.0000011 11,-11.0000011 z"
       id="path5-5"
       sodipodi:nodetypes="sssssssss" />
  </g>
  <g
     id="g2"
     transform="matrix(0.73669096,0,0,0.73669096,4.9775811,7.3129128)">
    <path
       d="m 12.305314,31.752771 c 0.913253,0.49951 1.912428,0.845884 2.934111,1.053803 0.514845,0.104772 0.939096,0.578032 0.939096,1.103573 v 1.759248 a 1.3644902,1.3644902 0 0 0 1.36449,1.364491 h 0.0065 a 1.3644902,1.3644902 0 0 0 1.36449,-1.364491 v -1.842987 c 0,-0.525541 0.426415,-0.998644 0.931066,-1.14347 1.917393,-0.550259 3.667535,-2.030249 3.794911,-4.119476 0.288444,-1.995318 -1.181212,-3.726897 -2.913235,-4.492843 -1.162024,-0.635808 -2.478459,-0.939278 -3.683505,-1.470668 -0.665523,-0.293475 -1.362243,-1.228016 -1.215759,-1.936459 0.360629,-1.74412 2.799821,-1.538322 4.762678,-0.368701 0.625071,0.372466 1.451543,0.331038 1.929631,-0.219091 l 0.0052,-0.006 c 0.472262,-0.543425 0.459008,-1.419483 -0.11607,-1.851198 -0.764744,-0.574097 -1.636282,-1.004517 -2.560524,-1.245762 -0.508091,-0.132621 -0.934395,-0.601908 -0.934395,-1.12745 V 14.529562 A 1.3614227,1.3614227 0 0 0 17.552554,13.16814 h -0.01264 a 1.3614227,1.3614227 0 0 0 -1.361423,1.361422 v 1.343619 c 0,0.525541 -0.427207,0.994064 -0.932119,1.13778 -1.830319,0.520977 -3.49691,1.929935 -3.625196,3.921848 -0.281643,1.921147 1.067183,3.640549 2.738996,4.413604 1.610887,0.924746 3.562543,1.172214 5.040976,2.324225 1.190352,1.386414 -1.02529,2.355994 -2.204415,2.005297 -1.058945,-0.06722 -2.065616,-0.398229 -3.016362,-0.853848 -0.881465,-0.422419 -1.974234,-0.192203 -2.501444,0.631562 -0.45942,0.717845 -0.230202,1.830588 0.626357,2.299088 z m 18.31142,2.210672 a 2.9362638,2.9362638 0 0 0 2.878316,-2.392305 l 0.914898,-4.789322 c 0.186466,1.475032 0.459135,3.323361 0.680765,4.775491 0.202924,1.329584 1.466219,2.406136 2.811343,2.406136 a 2.8288912,2.8288912 0 0 0 2.790203,-2.407467 l 1.458469,-9.518436 a 1.6665829,1.6665829 0 0 0 -1.647357,-1.919 c -1.024386,0 -1.958007,0.863218 -2.053829,1.93109 -0.319771,3.563606 -0.55461,8.3311 -0.55461,8.3311 L 36.14672,23.441992 a 1.9600592,1.9600592 0 0 0 -1.900662,-1.481188 1.9289219,1.9289219 0 0 0 -1.841624,1.478837 l -1.794825,6.941089 c 0,0 -0.177429,-4.735721 -0.512588,-8.335253 -0.09927,-1.066098 -1.082349,-1.926937 -2.154552,-1.926937 h -0.08087 A 1.650071,1.650071 0 0 0 26.2331,22.034555 l 1.555525,9.525165 a 2.8655726,2.8655726 0 0 0 2.828109,2.403723 z"
       id="text7"
       style="font-weight:bold;font-size:19.7226px;font-family:'Source Code Pro';-inkscape-font-specification:'Source Code Pro Bold';fill:url(#radialGradient8);stroke-width:0.697827;stroke-linecap:round;stroke-linejoin:round;stroke-miterlimit:4.6;paint-order:stroke fill markers"
       aria-label="$w"
       sodipodi:nodetypes="cccccccccccccccccccccccccccccccccc" />
    <path
       d="m 13.41832,27.227558 c 0.645279,0.352939 1.351267,0.597676 2.073158,0.744586 0.363775,0.07403 0.663539,0.408421 0.663539,0.779753 v 1.243035 a 0.96410944,0.96410944 0 0 0 0.964109,0.964109 h 0.0046 a 0.96410944,0.96410944 0 0 0 0.964109,-0.964109 v -1.302203 c 0,-0.371332 0.301293,-0.705612 0.657865,-0.807942 1.354774,-0.388798 2.591374,-1.434516 2.681374,-2.910703 0.203806,-1.409834 -0.834611,-2.633318 -2.058408,-3.174513 -0.821052,-0.449244 -1.751208,-0.663667 -2.602658,-1.039132 -0.47024,-0.207361 -0.962522,-0.867681 -0.859021,-1.368247 0.25481,-1.232344 1.978273,-1.086934 3.365171,-0.260513 0.441658,0.263174 1.025619,0.233902 1.363422,-0.154803 l 0.0037,-0.0042 c 0.333687,-0.383969 0.324322,-1.002966 -0.08201,-1.308004 -0.540347,-0.40564 -1.15615,-0.709763 -1.809193,-0.880219 -0.359002,-0.09371 -0.660216,-0.425291 -0.660216,-0.796623 v -0.92964 a 0.96194202,0.96194202 0 0 0 -0.961942,-0.961942 h -0.0089 a 0.96194202,0.96194202 0 0 0 -0.961942,0.961942 v 0.949363 c 0,0.371332 -0.301853,0.702377 -0.658608,0.803922 -1.293251,0.368108 -2.470816,1.363636 -2.561459,2.771065 -0.199001,1.357427 0.75404,2.572307 1.935295,3.118525 1.138207,0.653399 2.517191,0.828253 3.561808,1.64223 0.841069,0.9796 -0.72444,1.664678 -1.557576,1.416886 -0.74822,-0.04749 -1.459504,-0.281378 -2.131274,-0.603305 -0.622818,-0.298469 -1.394937,-0.135805 -1.767448,0.446244 -0.324614,0.507209 -0.162655,1.29344 0.442565,1.624469 z m 12.938322,1.561997 a 2.0746794,2.0746794 0 0 0 2.033735,-1.690334 l 0.646441,-3.383997 c 0.131751,1.042215 0.324412,2.348191 0.481008,3.374224 0.143381,0.939446 1.035988,1.700107 1.986415,1.700107 a 1.998813,1.998813 0 0 0 1.971476,-1.701047 l 1.030513,-6.725453 a 1.1775594,1.1775594 0 0 0 -1.163975,-1.35591 c -0.723802,0 -1.383471,0.609926 -1.451177,1.364453 -0.225941,2.517942 -0.391871,5.886515 -0.391871,5.886515 l -1.235236,-4.902712 a 1.3849213,1.3849213 0 0 0 -1.342953,-1.046565 1.3629206,1.3629206 0 0 0 -1.301239,1.044903 l -1.268171,4.904374 c 0,0 -0.125366,-3.346124 -0.362181,-5.889449 -0.07014,-0.753275 -0.764756,-1.361519 -1.522344,-1.361519 h -0.05714 a 1.1658926,1.1658926 0 0 0 -1.15065,1.353802 l 1.099089,6.730207 a 2.024731,2.024731 0 0 0 1.99826,1.698401 z"
       id="text7-8"
       style="font-weight:bold;font-size:19.7226px;font-family:'Source Code Pro';-inkscape-font-specification:'Source Code Pro Bold';opacity:1;fill:none;fill-opacity:1;stroke:#2300ff;stroke-width:0.141314;stroke-linecap:round;stroke-linejoin:round;stroke-miterlimit:4.6;stroke-dasharray:none;stroke-opacity:1;paint-order:stroke fill markers;filter:url(#filter8)"
       aria-label="$w"
       sodipodi:nodetypes="cccccccccccccccccccccccccccccccccc"
       transform="matrix(1.4152856,0,0,1.4152856,-6.6497162,-6.8176253)" />
  </g>
</svg>
