<?xml version="1.0" encoding="UTF-8" standalone="no"?>
<svg
   width="64"
   height="64"
   version="1.1"
   id="svg5"
   sodipodi:docname="org.xfce.panel.showdesktop.svg"
   inkscape:version="1.4.2 (ebf0e940d0, 2025-05-08)"
   xmlns:inkscape="http://www.inkscape.org/namespaces/inkscape"
   xmlns:sodipodi="http://sodipodi.sourceforge.net/DTD/sodipodi-0.dtd"
   xmlns:xlink="http://www.w3.org/1999/xlink"
   xmlns="http://www.w3.org/2000/svg"
   xmlns:svg="http://www.w3.org/2000/svg">
  <defs
     id="defs5">
    <inkscape:path-effect
       effect="fillet_chamfer"
       id="path-effect5"
       is_visible="true"
       lpeversion="1"
       nodesatellites_param="F,0,0,1,0,0,0,1 @ F,0,0,1,0,0,0,1 @ F,0,1,1,0,46.348508,0,1 @ F,0,0,1,0,2.6677991,0,1 @ F,0,0,1,0,0,0,1 @ F,0,0,1,0,0,0,1"
       radius="0"
       unit="px"
       method="auto"
       mode="F"
       chamfer_steps="1"
       flexible="false"
       use_knot_distance="true"
       apply_no_radius="true"
       apply_with_radius="true"
       only_selected="false"
       hide_knots="false" />
    <inkscape:path-effect
       effect="fillet_chamfer"
       id="path-effect9-4"
       is_visible="true"
       lpeversion="1"
       nodesatellites_param="F,0,0,1,0,5.8758489,0,1 @ F,0,1,1,0,5.8758489,0,1 @ F,0,1,1,0,5.8758489,0,1 @ F,0,1,1,0,5.8758489,0,1"
       radius="0"
       unit="px"
       method="auto"
       mode="F"
       chamfer_steps="1"
       flexible="false"
       use_knot_distance="true"
       apply_no_radius="true"
       apply_with_radius="true"
       only_selected="false"
       hide_knots="false" />
    <inkscape:path-effect
       effect="fillet_chamfer"
       id="path-effect9-1-9"
       is_visible="true"
       lpeversion="1"
       nodesatellites_param="F,0,0,1,0,5.8758489,0,1 @ F,0,1,1,0,5.8758489,0,1 @ F,0,1,1,0,5.8758489,0,1 @ F,0,1,1,0,5.8758489,0,1"
       radius="0"
       unit="px"
       method="auto"
       mode="F"
       chamfer_steps="1"
       flexible="false"
       use_knot_distance="true"
       apply_no_radius="true"
       apply_with_radius="true"
       only_selected="false"
       hide_knots="false" />
    <inkscape:path-effect
       effect="fillet_chamfer"
       id="path-effect9-2-2"
       is_visible="true"
       lpeversion="1"
       nodesatellites_param="F,0,1,1,0,9.6225854,0,1 @ F,0,1,1,0,9.6225854,0,1 @ F,0,0,1,0,9.6225854,0,1 @ F,0,1,1,0,9.6225854,0,1"
       radius="0"
       unit="px"
       method="auto"
       mode="F"
       chamfer_steps="1"
       flexible="false"
       use_knot_distance="true"
       apply_no_radius="true"
       apply_with_radius="true"
       only_selected="false"
       hide_knots="false" />
    <radialGradient
       inkscape:collect="always"
       xlink:href="#linearGradient9"
       id="radialGradient10-0"
       cx="9.7942343"
       cy="53.223694"
       fx="9.7942343"
       fy="53.223694"
       r="27.92197"
       gradientTransform="matrix(2.4418912,0,0,2.2327301,-9.175445,-76.744037)"
       gradientUnits="userSpaceOnUse" />
    <linearGradient
       id="linearGradient9"
       inkscape:collect="always">
      <stop
         style="stop-color:#00baff;stop-opacity:1;"
         offset="0"
         id="stop9" />
      <stop
         style="stop-color:#007aff;stop-opacity:1;"
         offset="1"
         id="stop10" />
    </linearGradient>
    <inkscape:path-effect
       effect="fillet_chamfer"
       id="path-effect9-2"
       is_visible="true"
       lpeversion="1"
       nodesatellites_param="F,0,1,1,0,9.6225854,0,1 @ F,0,1,1,0,9.6225854,0,1 @ F,0,0,1,0,9.6225854,0,1 @ F,0,1,1,0,9.6225854,0,1"
       radius="0"
       unit="px"
       method="auto"
       mode="F"
       chamfer_steps="1"
       flexible="false"
       use_knot_distance="true"
       apply_no_radius="true"
       apply_with_radius="true"
       only_selected="false"
       hide_knots="false" />
    <inkscape:path-effect
       effect="fillet_chamfer"
       id="path-effect9-2-3"
       is_visible="true"
       lpeversion="1"
       nodesatellites_param="F,0,1,1,0,9.6225854,0,1 @ F,0,1,1,0,9.6225854,0,1 @ F,0,0,1,0,9.6225854,0,1 @ F,0,1,1,0,9.6225854,0,1"
       radius="0"
       unit="px"
       method="auto"
       mode="F"
       chamfer_steps="1"
       flexible="false"
       use_knot_distance="true"
       apply_no_radius="true"
       apply_with_radius="true"
       only_selected="false"
       hide_knots="false" />
    <inkscape:path-effect
       effect="fillet_chamfer"
       id="path-effect9-2-5"
       is_visible="true"
       lpeversion="1"
       nodesatellites_param="F,0,1,1,0,9.6225854,0,1 @ F,0,1,1,0,9.6225854,0,1 @ F,0,0,1,0,9.6225854,0,1 @ F,0,1,1,0,9.6225854,0,1"
       radius="0"
       unit="px"
       method="auto"
       mode="F"
       chamfer_steps="1"
       flexible="false"
       use_knot_distance="true"
       apply_no_radius="true"
       apply_with_radius="true"
       only_selected="false"
       hide_knots="false" />
    <filter
       inkscape:collect="always"
       style="color-interpolation-filters:sRGB"
       id="filter1"
       x="-0.099744748"
       y="-0.11394314"
       width="1.1994895"
       height="1.2278863">
      <feGaussianBlur
         inkscape:collect="always"
         stdDeviation="2.2919175"
         id="feGaussianBlur1" />
    </filter>
  </defs>
  <sodipodi:namedview
     id="namedview5"
     pagecolor="#ffffff"
     bordercolor="#000000"
     borderopacity="0.25"
     inkscape:showpageshadow="2"
     inkscape:pageopacity="0.0"
     inkscape:pagecheckerboard="0"
     inkscape:deskcolor="#d1d1d1"
     inkscape:zoom="7.591527"
     inkscape:cx="64.084603"
     inkscape:cy="17.25608"
     inkscape:window-width="1920"
     inkscape:window-height="1017"
     inkscape:window-x="0"
     inkscape:window-y="0"
     inkscape:window-maximized="1"
     inkscape:current-layer="svg5" />
  <path
     id="rect8-6"
     style="fill:url(#radialGradient10-0);fill-opacity:1;stroke-width:0.4"
     d="m 13.490292,3.3191092 h 37.019415 a 9.6225854,9.6225854 45 0 1 9.622585,9.6225858 v 30.008314 a 9.6225854,9.6225854 135 0 1 -9.622585,9.622585 H 13.490292 A 9.6225854,9.6225854 45 0 1 3.8677071,42.950009 V 12.941695 A 9.6225854,9.6225854 135 0 1 13.490292,3.3191092 Z"
     inkscape:path-effect="#path-effect9-2"
     inkscape:original-d="M 3.8677071,3.3191092 H 60.132292 V 52.572594 H 3.8677071 Z"
     transform="matrix(0.94763965,0,0,0.84888422,1.6755316,8.2772076)"
     sodipodi:nodetypes="ccccc" />
  <path
     id="rect1"
     style="fill:#0053ff;fill-opacity:1;stroke:none;stroke-width:0.254022;stroke-linecap:round;stroke-linejoin:round;opacity:0.5598386"
     d="M 14.458984 11.095703 A 9.1187435 8.1684609 0 0 0 7.4023438 14.089844 L 56.597656 14.089844 A 9.1187435 8.1684609 0 0 0 49.541016 11.095703 L 14.458984 11.095703 z M 5.3554688 45.189453 A 9.1187435 8.1684609 0 0 0 14.144531 52.900391 L 49.855469 52.900391 A 9.1187435 8.1684609 0 0 0 58.644531 45.189453 L 5.3554688 45.189453 z " />
  <path
     id="path6"
     style="opacity:0.703111;fill:#ffffff;fill-opacity:1;stroke:#ffffff;stroke-width:0"
     d="m 23.836913,47.105524 a 1.8385988,1.8385988 0 0 0 -1.839843,1.839844 1.8385988,1.8385988 0 0 0 1.839843,1.83789 1.8385988,1.8385988 0 0 0 1.837891,-1.83789 1.8385988,1.8385988 0 0 0 -1.837891,-1.839844 z m 5.441407,0 a 1.8385988,1.8385988 0 0 0 -1.837891,1.839844 1.8385988,1.8385988 0 0 0 1.837891,1.83789 1.8385988,1.8385988 0 0 0 1.839843,-1.83789 1.8385988,1.8385988 0 0 0 -1.839843,-1.839844 z m 5.443359,0 a 1.8385988,1.8385988 0 0 0 -1.83789,1.839844 1.8385988,1.8385988 0 0 0 1.83789,1.83789 1.8385988,1.8385988 0 0 0 1.837891,-1.83789 1.8385988,1.8385988 0 0 0 -1.837891,-1.839844 z m 5.44336,0 a 1.8385988,1.8385988 0 0 0 -1.839844,1.839844 1.8385988,1.8385988 0 0 0 1.839844,1.83789 1.8385988,1.8385988 0 0 0 1.83789,-1.83789 1.8385988,1.8385988 0 0 0 -1.83789,-1.839844 z" />
  <path
     id="rect8-6-4"
     style="fill:none;fill-opacity:1;stroke-width:0.22298937;stroke:#000000;stroke-opacity:1;stroke-dasharray:none;filter:url(#filter1)"
     d="m 13.490292,3.3191092 h 37.019415 a 9.6225854,9.6225854 45 0 1 9.622585,9.6225858 v 30.008314 a 9.6225854,9.6225854 135 0 1 -9.622585,9.622585 H 13.490292 A 9.6225854,9.6225854 45 0 1 3.8677071,42.950009 V 12.941695 A 9.6225854,9.6225854 135 0 1 13.490292,3.3191092 Z"
     inkscape:path-effect="#path-effect9-2-5"
     inkscape:original-d="M 3.8677071,3.3191092 H 60.132292 V 52.572594 H 3.8677071 Z"
     transform="matrix(0.94763965,0,0,0.84888422,1.6755316,8.2772076)"
     sodipodi:nodetypes="ccccc" />
</svg>
