<?xml version="1.0" encoding="UTF-8" standalone="no"?>
<svg
   width="64"
   height="64"
   version="1.1"
   id="svg9"
   sodipodi:docname="org.linux_hardware.hw-probe.svg"
   inkscape:version="1.4.3 (0d15f75042, 2025-12-25)"
   xmlns:inkscape="http://www.inkscape.org/namespaces/inkscape"
   xmlns:sodipodi="http://sodipodi.sourceforge.net/DTD/sodipodi-0.dtd"
   xmlns:xlink="http://www.w3.org/1999/xlink"
   xmlns="http://www.w3.org/2000/svg"
   xmlns:svg="http://www.w3.org/2000/svg">
  <defs
     id="defs9">
    <linearGradient
       id="linearGradient14"
       inkscape:collect="always">
      <stop
         style="stop-color:#ffc107;stop-opacity:1;"
         offset="0"
         id="stop15" />
      <stop
         style="stop-color:#ff5007;stop-opacity:1;"
         offset="1"
         id="stop16" />
    </linearGradient>
    <linearGradient
       id="linearGradient12"
       inkscape:collect="always">
      <stop
         style="stop-color:#bfbfbf;stop-opacity:1;"
         offset="0"
         id="stop13" />
      <stop
         style="stop-color:#ffffff;stop-opacity:1;"
         offset="1"
         id="stop14" />
    </linearGradient>
    <linearGradient
       id="linearGradient10"
       inkscape:collect="always">
      <stop
         style="stop-color:#c7c7c7;stop-opacity:1;"
         offset="0"
         id="stop11" />
      <stop
         style="stop-color:#f7f7f7;stop-opacity:1;"
         offset="1"
         id="stop12" />
    </linearGradient>
    <linearGradient
       id="linearGradient9"
       inkscape:collect="always">
      <stop
         style="stop-color:#424242;stop-opacity:1;"
         offset="0"
         id="stop9" />
      <stop
         style="stop-color:#1b1b1b;stop-opacity:1;"
         offset="1"
         id="stop10" />
    </linearGradient>
    <radialGradient
       inkscape:collect="always"
       xlink:href="#linearGradient9"
       id="radialGradient10"
       cx="20.069042"
       cy="24.189657"
       fx="20.069042"
       fy="24.189657"
       r="29.723633"
       gradientTransform="matrix(0.37082171,1.3839254,-1.3041455,0.34944473,59.903797,-27.373198)"
       gradientUnits="userSpaceOnUse" />
    <radialGradient
       inkscape:collect="always"
       xlink:href="#linearGradient10"
       id="radialGradient12"
       cx="46.673901"
       cy="32.98085"
       fx="46.673901"
       fy="32.98085"
       r="22.44457"
       gradientTransform="matrix(-1.9114403,0,0,-1.547582,131.36017,80.921123)"
       gradientUnits="userSpaceOnUse" />
    <radialGradient
       inkscape:collect="always"
       xlink:href="#linearGradient12"
       id="radialGradient14"
       cx="33.706512"
       cy="13.450435"
       fx="33.706512"
       fy="13.450435"
       r="2.0009999"
       gradientTransform="matrix(4.8265938,0.29792891,-0.29763125,4.8236662,-127.02879,-59.563917)"
       gradientUnits="userSpaceOnUse" />
    <radialGradient
       inkscape:collect="always"
       xlink:href="#linearGradient14"
       id="radialGradient16"
       cx="45.430996"
       cy="19.565044"
       fx="45.430996"
       fy="19.565044"
       r="9.212397"
       gradientTransform="matrix(2.5282493,0,0,1.4834235,-73.769765,-8.6173621)"
       gradientUnits="userSpaceOnUse" />
    <linearGradient
       id="linearGradient14-2"
       inkscape:collect="always">
      <stop
         style="stop-color:#50cdff;stop-opacity:1;"
         offset="0"
         id="stop14-0" />
      <stop
         style="stop-color:#0043d2;stop-opacity:1;"
         offset="1"
         id="stop15-6" />
    </linearGradient>
    <inkscape:path-effect
       effect="fillet_chamfer"
       id="path-effect15"
       is_visible="true"
       lpeversion="1"
       nodesatellites_param="F,0,0,1,0,0,0,1 @ F,0,0,1,0,0,0,1 @ F,0,0,1,0,0,0,1 @ F,0,0,1,0,0,0,1 @ F,0,0,1,0,0,0,1 @ F,0,0,1,0,0,0,1 @ F,0,0,1,0,0,0,1 @ F,0,0,1,0,0,0,1 @ F,0,0,1,0,0,0,1 @ F,0,0,1,0,0,0,1 @ F,0,0,1,0,0,0,1 @ F,0,0,1,0,0.67730125,0,1 @ F,0,0,1,0,0,0,1 @ F,0,0,1,0,0,0,1 @ F,0,0,1,0,0,0,1 @ F,0,0,1,0,0,0,1 | F,0,0,1,0,0,0,1 @ F,0,0,1,0,0,0,1 @ F,0,0,1,0,0,0,1 @ F,0,0,1,0,0,0,1 | F,0,0,1,0,0,0,1 @ F,0,0,1,0,0,0,1 @ F,0,0,1,0,0,0,1 @ F,0,0,1,0,0,0,1 | F,0,0,1,0,0,0,1 @ F,0,0,1,0,0,0,1 @ F,0,0,1,0,0,0,1 @ F,0,0,1,0,0,0,1 | F,0,0,1,0,0,0,1 @ F,0,0,1,0,0,0,1 @ F,0,0,1,0,0,0,1 @ F,0,0,1,0,0,0,1 | F,0,0,1,0,0,0,1 @ F,0,0,1,0,0,0,1 @ F,0,0,1,0,0,0,1 @ F,0,0,1,0,0,0,1"
       radius="0"
       unit="px"
       method="auto"
       mode="F"
       chamfer_steps="1"
       flexible="false"
       use_knot_distance="true"
       apply_no_radius="true"
       apply_with_radius="true"
       only_selected="false"
       hide_knots="false" />
    <radialGradient
       inkscape:collect="always"
       xlink:href="#linearGradient14-2"
       id="radialGradient18"
       cx="24.915707"
       cy="34.449268"
       fx="24.915707"
       fy="34.449268"
       r="28.002733"
       gradientTransform="matrix(1.4128638,2.4471519,-2.244298,1.2957461,53.401312,-87.093736)"
       gradientUnits="userSpaceOnUse" />
    <filter
       inkscape:collect="always"
       style="color-interpolation-filters:sRGB"
       id="filter24"
       x="-0.066037499"
       y="-0.070077448"
       width="1.1350633"
       height="1.1401549">
      <feGaussianBlur
         inkscape:collect="always"
         stdDeviation="1.5934738"
         id="feGaussianBlur24" />
    </filter>
  </defs>
  <sodipodi:namedview
     id="namedview9"
     pagecolor="#ffffff"
     bordercolor="#000000"
     borderopacity="0.25"
     inkscape:showpageshadow="2"
     inkscape:pageopacity="0.0"
     inkscape:pagecheckerboard="0"
     inkscape:deskcolor="#d1d1d1"
     inkscape:zoom="12.986792"
     inkscape:cx="33.803575"
     inkscape:cy="31.031528"
     inkscape:current-layer="svg9" />
  <g
     id="g18">
    <path
       style="fill:url(#radialGradient18)"
       d="m 60.005468,32.002734 c 0,9.131856 -4.371126,17.24278 -11.1352,22.354594 C 44.178874,57.902754 39.723694,50.93446 33.390066,50.93446 18.842161,50.93446 5.5348588,48.457132 4.1336388,34.68249 4.0452598,33.813684 4,32.920312 4,32.002734 4,16.537251 16.537251,4 32.002734,4 47.468218,4 60.005468,16.537251 60.005468,32.002734 Z"
       id="path1" />
    <path
       style="fill:url(#radialGradient12);fill-rule:evenodd;fill-opacity:1"
       d="M 21.304814,23.673014 C 16.719137,23.28391 8.1692616,29.58964 4.2761988,35.678094 A 28.002734,28.002734 0 0 0 31.871472,60 c 0.70347,-0.004 1.40872,-0.02234 2.111142,-0.06562 a 28.002734,28.002734 0 0 0 0.0164,-0.0028 28.002734,28.002734 0 0 0 15.166324,-5.819318 C 48.552388,50.107376 46.473322,45.67668 41.997852,40.529348 36.36063,33.943112 27.698218,24.739592 21.304814,23.673014 Z"
       id="path4" />
    <path
       id="path5"
       style="fill:url(#radialGradient10);fill-rule:evenodd"
       d="M 30.53125 12.03125 C 29.627176 12.04115 28.684064 12.110207 27.691406 12.255859 C 20.513444 13.309012 15.915344 17.244766 10.023438 24.355469 C 7.6295749 27.244523 5.5133068 30.727347 4 33.400391 C 4.052554 34.387313 4.1556213 35.369877 4.3105469 36.345703 C 8.4452675 30.623807 19.957202 22.303441 22.548828 26.033203 C 25.51606 30.303523 16.967831 35.798817 18.115234 37.412109 C 19.344687 39.140767 24.729223 36.696785 29.726562 36.337891 C 35.30569 35.937217 38.271309 37.664761 41.998047 40.529297 C 41.059481 38.758307 40.442985 37.463337 40.085938 36.193359 C 39.343779 33.553537 41.325586 30.540387 42.066406 29.095703 C 43.243422 26.800417 44.234597 23.601198 45.984375 21.875 C 49.046835 18.853801 54.39341 17.290158 59.117188 15.722656 C 60.595514 15.2321 61.905424 15.337775 63.447266 15 C 62.01632 14.201286 60.230354 13.904421 58.771484 13.882812 C 50.994614 13.767622 46.255651 14.945374 43.117188 14.603516 C 39.136626 14.169931 35.413248 11.977441 30.53125 12.03125 z M 11.351562 40.0625 C 10.162705 40.04138 7.5449809 41.177611 5.8398438 41.953125 A 28 28 0 0 0 8.5585938 47.296875 C 9.6719035 43.726745 12.472359 41.232188 11.890625 40.273438 C 11.80511 40.132503 11.616999 40.067212 11.351562 40.0625 z " />
    <ellipse
       style="opacity:0.86392929;fill:url(#radialGradient14)"
       cx="35.1"
       cy="12.258"
       rx="2.001"
       ry="1.999"
       transform="matrix(0.98003409,0.19882953,-0.19571032,0.98066175,0,0)"
       id="ellipse5" />
    <path
       style="opacity:0.1;fill-rule:evenodd"
       d="m 47.105598,18.093255 c 3.346804,-0.93265 9.120878,-3.210029 13.331386,-3.741379 -0.7753,-0.144688 -2.17842,0.09359 -2.95382,0.176194 -4.157948,0.823217 -8.216468,2.481157 -10.377566,3.565189 z"
       id="path7" />
    <path
       style="fill:url(#radialGradient16);fill-rule:evenodd"
       d="m 39.05837,21.123332 c 1.648666,-0.855 2.445344,-1.565909 6.29594,-2.52793 3.73794,-0.933875 8.38789,-3.191197 12.128854,-4.067336 -6.40035,0.771221 -14.12264,2.385749 -18.424794,6.595266 z"
       id="path8" />
  </g>
  <g
     id="g24"
     style="stroke:#000000;stroke-opacity:1;stroke-width:0.2;stroke-dasharray:none;filter:url(#filter24)">
    <path
       d="M 32.001953,4 C 16.53647,4 4,16.53647 4,32.001953 c 0,0.45299 0.011603,0.900666 0.033203,1.341797 1.5110398,-2.665387 3.6134227,-6.119806 5.9902349,-8.988281 5.891906,-7.110703 10.490006,-11.046457 17.667968,-12.09961 0.992658,-0.145649 1.93577,-0.214709 2.839844,-0.224609 4.881998,-0.05381 8.605375,2.138681 12.585937,2.572266 2.347939,0.25575 5.590707,-0.339815 10.332032,-0.607422 C 48.312109,7.8838966 40.61101,4 32.001953,4 Z m 23.582031,12.892578 c -3.667789,1.248865 -7.285812,2.699799 -9.599609,4.982422 -1.749778,1.726198 -2.740953,4.925417 -3.917969,7.220703 -0.74082,1.444684 -2.722628,4.457834 -1.980469,7.097656 0.357048,1.269978 0.973544,2.564948 1.91211,4.335938 4.474088,5.145742 6.554302,9.574213 7.167969,13.578125 6.588817,-5.123497 10.839843,-13.112688 10.839843,-22.105469 0,-5.564751 -1.622957,-10.750619 -4.421875,-15.109375 z M 4.1269531,34.607422 c 0.00241,0.02445 0.00338,0.04981 0.00586,0.07422 0.00226,0.02223 0.00744,0.04228 0.00977,0.06445 -0.00466,-0.04629 -0.011187,-0.09236 -0.015625,-0.138672 z m 0.234375,1.667969 c -0.00131,0.0018 -0.0026,0.0041 -0.00391,0.0059 0.010309,0.05685 0.020495,0.1135 0.03125,0.169922 A 28.002734,28.002734 0 0 1 4.3613281,36.275391 Z M 49.123047,54.142578 a 28.002734,28.002734 0 0 1 -0.658203,0.496094 c 0.135309,-0.08536 0.270597,-0.178733 0.40625,-0.28125 0.08822,-0.06667 0.164547,-0.147154 0.251953,-0.214844 z"
       style="fill:none;stroke:#000000;stroke-opacity:1;stroke-width:0.2;stroke-dasharray:none"
       id="path24" />
    <path
       d="M 20.269531,25.109375 C 15.936381,25.319667 7.7553997,31.628346 4.3613281,36.275391 a 28.002734,28.002734 0 0 0 1.4980469,5.669921 c 1.705522,-0.775285 4.307699,-1.903854 5.492188,-1.882812 0.265436,0.0047 0.453547,0.07 0.539062,0.210937 0.580456,0.956644 -2.2059831,3.44243 -3.3242187,7 A 28.002734,28.002734 0 0 0 31.871094,60 c 0.70347,-0.004 1.408906,-0.02313 2.111328,-0.06641 a 28.002734,28.002734 0 0 0 0.01563,-0.002 28.002734,28.002734 0 0 0 15.167969,-5.820313 c -0.61295,-4.004886 -2.692499,-8.434699 -7.167969,-13.582031 -3.726738,-2.864536 -6.692357,-4.59208 -12.271485,-4.191406 -4.997339,0.358894 -10.381875,2.802876 -11.611328,1.074218 -1.147403,-1.613292 7.400826,-7.108586 4.433594,-11.378906 -0.483957,-0.696491 -1.279339,-0.972357 -2.279297,-0.923828 z"
       style="fill:none;fill-rule:evenodd;stroke:#000000;stroke-opacity:1;stroke-width:0.2;stroke-dasharray:none"
       id="path23" />
    <path
       d="m 30.53125,12.03125 c -0.904074,0.0099 -1.847186,0.07896 -2.839844,0.224609 -7.177962,1.053153 -11.776062,4.988907 -17.667968,12.09961 C 7.6295744,27.244523 5.5133068,30.727347 4,33.400391 c 0.052554,0.986922 0.1556213,1.969486 0.3105469,2.945312 4.1347206,-5.721896 15.6466551,-14.042262 18.2382811,-10.3125 2.967232,4.27032 -5.580997,9.765614 -4.433594,11.378906 1.229453,1.728658 6.613989,-0.715324 11.611328,-1.074218 5.579128,-0.400674 8.544747,1.32687 12.271485,4.191406 -0.938566,-1.77099 -1.555062,-3.06596 -1.91211,-4.335938 -0.742159,-2.639822 1.239649,-5.652972 1.980469,-7.097656 1.177016,-2.295286 2.168191,-5.494505 3.917969,-7.220703 3.06246,-3.021199 8.409035,-4.584842 13.132812,-6.152344 C 60.595514,15.2321 61.905424,15.337775 63.447266,15 62.01632,14.201286 60.230354,13.904421 58.771484,13.882813 50.994614,13.767623 46.255651,14.945374 43.117187,14.603516 39.136625,14.169931 35.413248,11.977441 30.53125,12.03125 Z m 29.226562,2.275391 c 0.252685,-0.0033 0.485863,0.0087 0.679688,0.04492 -4.2105,0.531349 -9.985225,2.809534 -13.332031,3.742187 0.0059,-0.0029 0.01168,-0.0068 0.01758,-0.0098 -0.606814,0.194725 -1.198765,0.369121 -1.769531,0.511719 -3.850596,0.962021 -4.646256,1.672344 -6.294922,2.527344 4.302154,-4.209517 12.023478,-5.824482 18.423828,-6.595703 0.58155,-0.06195 1.517336,-0.210856 2.27539,-0.220703 z m -27.886718,2.697265 a 2.0033326,1.9966622 47.653688 0 1 0.519531,0.03516 2.0033326,1.9966622 47.653688 0 1 1.570312,2.359375 2.0033326,1.9966622 47.653688 0 1 -2.351562,1.5625 2.0033326,1.9966622 47.653688 0 1 -1.570313,-2.359375 2.0033326,1.9966622 47.653688 0 1 1.832032,-1.597656 z M 11.351563,40.0625 c -1.188857,-0.02112 -3.8065821,1.115111 -5.5117193,1.890625 a 28,28 0 0 0 2.7187501,5.34375 C 9.6719035,43.726745 12.472359,41.232188 11.890625,40.273437 11.80511,40.132502 11.616999,40.067212 11.351563,40.0625 Z"
       style="fill:none;fill-rule:evenodd;stroke:#000000;stroke-opacity:1;stroke-width:0.2;stroke-dasharray:none"
       id="path22" />
    <path
       d="m 31.871094,17.003906 a 2.0033326,1.9966622 47.653688 0 0 -1.832032,1.597656 2.0033326,1.9966622 47.653688 0 0 1.570313,2.359375 2.0033326,1.9966622 47.653688 0 0 2.351562,-1.5625 2.0033326,1.9966622 47.653688 0 0 -1.570312,-2.359375 2.0033326,1.9966622 47.653688 0 0 -0.519531,-0.03516 z"
       style="opacity:0.863929;fill:none;stroke:#000000;stroke-opacity:1;stroke-width:0.2;stroke-dasharray:none"
       id="path21" />
    <path
       d="m 59.757812,14.306641 c -0.758054,0.0098 -1.69384,0.15875 -2.27539,0.220703 -3.169736,0.742356 -6.992174,2.476117 -10.359375,3.55664 -0.0059,0.003 -0.01171,0.0068 -0.01758,0.0098 3.346806,-0.932653 9.121531,-3.210838 13.332031,-3.742187 -0.193825,-0.03617 -0.427003,-0.04821 -0.679688,-0.04492 z"
       style="opacity:0.1;fill-rule:evenodd;fill:none;stroke:#000000;stroke-opacity:1;stroke-width:0.2;stroke-dasharray:none"
       id="path20" />
    <path
       d="m 57.482422,14.527344 c -6.40035,0.771221 -14.121674,2.386186 -18.423828,6.595703 1.648666,-0.855 2.444326,-1.565323 6.294922,-2.527344 3.73794,-0.933875 8.387942,-3.19222 12.128906,-4.068359 z"
       style="fill:none;fill-rule:evenodd;stroke:#000000;stroke-opacity:1;stroke-width:0.2;stroke-dasharray:none"
       id="path19" />
  </g>
</svg>
