<?xml version="1.0" encoding="UTF-8" standalone="no"?>
<svg
   width="64"
   height="64"
   version="1"
   id="svg6"
   sodipodi:docname="org.freecad.FreeCAD.svg"
   inkscape:version="1.4.2 (ebf0e940d0, 2025-05-08)"
   xmlns:inkscape="http://www.inkscape.org/namespaces/inkscape"
   xmlns:sodipodi="http://sodipodi.sourceforge.net/DTD/sodipodi-0.dtd"
   xmlns:xlink="http://www.w3.org/1999/xlink"
   xmlns="http://www.w3.org/2000/svg"
   xmlns:svg="http://www.w3.org/2000/svg">
  <defs
     id="defs6">
    <linearGradient
       id="linearGradient11"
       inkscape:collect="always">
      <stop
         style="stop-color:#f27f48;stop-opacity:1;"
         offset="0"
         id="stop10" />
      <stop
         style="stop-color:#f34947;stop-opacity:1;"
         offset="1"
         id="stop11" />
    </linearGradient>
    <inkscape:path-effect
       effect="fillet_chamfer"
       id="path-effect9"
       is_visible="true"
       lpeversion="1"
       nodesatellites_param="F,0,1,1,0,5.684207,0,1 @ F,0,0,1,0,5.684207,0,1 @ F,0,0,1,0,4.43931,0,1 @ F,0,0,1,0,0,0,1 @ F,0,0,1,0,0,0,1 @ F,0,0,1,0,0,0,1 @ F,0,0,1,0,0,0,1 @ F,0,0,1,0,0,0,1 @ F,0,0,1,0,0,0,1 @ F,0,0,1,0,0,0,1 @ F,0,0,1,0,0,0,1 @ F,0,0,1,0,0,0,1 @ F,0,0,1,0,0,0,1 @ F,0,0,1,0,0,0,1 @ F,0,0,1,0,0,0,1 @ F,0,0,1,0,0,0,1 @ F,0,0,1,0,4.43931,0,1 | F,0,0,1,0,0,0,1 @ F,0,0,1,0,0,0,1"
       radius="0"
       unit="px"
       method="auto"
       mode="F"
       chamfer_steps="1"
       flexible="false"
       use_knot_distance="true"
       apply_no_radius="true"
       apply_with_radius="true"
       only_selected="false"
       hide_knots="false" />
    <inkscape:path-effect
       effect="fillet_chamfer"
       id="path-effect7"
       is_visible="true"
       lpeversion="1"
       nodesatellites_param="F,0,0,1,0,9.6573171,0,1 @ F,0,0,1,0,3.8621031,0,1 @ F,0,0,1,0,3.8621031,0,1 @ F,0,0,1,0,3.0819782,0,1 @ F,0,0,1,0,3.0819782,0,1 @ F,0,0,1,0,3.4720407,0,1 @ F,0,0,1,0,3.4720407,0,1 @ F,0,0,1,0,3.8621031,0,1 @ F,0,0,1,0,3.8621031,0,1 @ F,0,0,1,0,3.8621031,0,1"
       radius="0"
       unit="px"
       method="auto"
       mode="F"
       chamfer_steps="1"
       flexible="false"
       use_knot_distance="true"
       apply_no_radius="true"
       apply_with_radius="true"
       only_selected="false"
       hide_knots="false" />
    <radialGradient
       inkscape:collect="always"
       xlink:href="#linearGradient11"
       id="radialGradient7"
       cx="18.483999"
       cy="39.289425"
       fx="18.483999"
       fy="39.289425"
       r="19.386885"
       gradientTransform="matrix(0,4.5949319,-3.9939118,0,150.20374,-99.831084)"
       gradientUnits="userSpaceOnUse" />
    <radialGradient
       inkscape:collect="always"
       xlink:href="#SVGID_1_-3-2"
       id="radialGradient10"
       cx="63.048157"
       cy="56.877907"
       fx="63.048157"
       fy="56.877907"
       r="15.524057"
       gradientTransform="matrix(0,-3.9684732,5.1980737,0,-232.60739,313.66967)"
       gradientUnits="userSpaceOnUse" />
    <radialGradient
       id="SVGID_1_-3-2"
       cx="-159.43106"
       cy="15.462561"
       r="64.706802"
       gradientTransform="matrix(-0.89413329,0,0,0.96304834,-80.753654,49.330428)"
       gradientUnits="userSpaceOnUse"
       fx="-159.43106"
       fy="15.462561">
      <stop
         offset="0"
         style="stop-color:#006fff;stop-opacity:1;"
         id="stop1-6-9" />
      <stop
         offset="1"
         style="stop-color:#15baff;stop-opacity:1;"
         id="stop2-7-1" />
    </radialGradient>
    <radialGradient
       id="radialGradient16-9-1"
       cx="-159.43106"
       cy="15.462561"
       r="64.706802"
       gradientTransform="matrix(-0.89413329,0,0,0.96304834,-80.753654,49.330428)"
       gradientUnits="userSpaceOnUse"
       fx="-159.43106"
       fy="15.462561">
      <stop
         offset="0"
         style="stop-color:#bd3362;stop-opacity:1;"
         id="stop15-1-0" />
      <stop
         offset="1"
         style="stop-color:#ec407a;stop-opacity:1;"
         id="stop16-2-6" />
    </radialGradient>
    <inkscape:path-effect
       effect="fillet_chamfer"
       id="path-effect20-7-3"
       is_visible="true"
       lpeversion="1"
       nodesatellites_param="F,0,0,1,0,1.4582365,0,1 @ F,0,0,1,0,4.7943319,0,1 @ F,0,0,1,0,0,0,1 @ F,0,0,1,0,0,0,1 @ F,0,0,1,0,0,0,1 @ F,0,0,1,0,0,0,1 @ F,0,0,1,0,0,0,1 @ F,0,0,1,0,0,0,1 @ F,0,0,1,0,2.051402,0,1"
       radius="0"
       unit="px"
       method="auto"
       mode="F"
       chamfer_steps="1"
       flexible="false"
       use_knot_distance="true"
       apply_no_radius="true"
       apply_with_radius="true"
       only_selected="false"
       hide_knots="false" />
    <inkscape:path-effect
       effect="fillet_chamfer"
       id="path-effect2-5-3-2"
       is_visible="true"
       lpeversion="1"
       nodesatellites_param="F,0,1,1,0,2.9410078,0,1 @ F,0,1,1,0,2.9410078,0,1 @ F,0,0,1,0,13.761382,0,1 @ F,0,0,1,0,14.755441,0,1"
       radius="0"
       unit="px"
       method="auto"
       mode="F"
       chamfer_steps="1"
       flexible="false"
       use_knot_distance="true"
       apply_no_radius="true"
       apply_with_radius="true"
       only_selected="false"
       hide_knots="false" />
    <radialGradient
       id="SVGID_1_-3-2-7-0"
       cx="-159.43106"
       cy="15.462561"
       r="64.706802"
       gradientTransform="matrix(-0.89413329,0,0,0.96304834,-80.753654,49.330428)"
       gradientUnits="userSpaceOnUse"
       fx="-159.43106"
       fy="15.462561">
      <stop
         offset="0"
         style="stop-color:#ee5387;stop-opacity:1;"
         id="stop1-6-9-5-6" />
      <stop
         offset="1"
         style="stop-color:#f06292;stop-opacity:1;"
         id="stop2-7-1-3-1" />
    </radialGradient>
    <inkscape:path-effect
       effect="fillet_chamfer"
       id="path-effect20-7-9-5"
       is_visible="true"
       lpeversion="1"
       nodesatellites_param="F,0,0,1,0,1.4582365,0,1 @ F,0,0,1,0,4.7943319,0,1 @ F,0,0,1,0,0,0,1 @ F,0,0,1,0,0,0,1 @ F,0,0,1,0,0,0,1 @ F,0,0,1,0,0,0,1 @ F,0,0,1,0,0,0,1 @ F,0,0,1,0,0,0,1 @ F,0,0,1,0,2.051402,0,1"
       radius="0"
       unit="px"
       method="auto"
       mode="F"
       chamfer_steps="1"
       flexible="false"
       use_knot_distance="true"
       apply_no_radius="true"
       apply_with_radius="true"
       only_selected="false"
       hide_knots="false" />
    <inkscape:path-effect
       effect="fillet_chamfer"
       id="path-effect5"
       is_visible="true"
       lpeversion="1"
       nodesatellites_param="F,0,1,1,0,14.461821,0,1 @ F,0,0,1,0,14.461821,0,1 @ F,0,1,1,0,14.461821,0,1 @ F,0,1,1,0,14.461821,0,1"
       radius="0"
       unit="px"
       method="auto"
       mode="F"
       chamfer_steps="1"
       flexible="false"
       use_knot_distance="true"
       apply_no_radius="true"
       apply_with_radius="true"
       only_selected="false"
       hide_knots="false" />
    <inkscape:path-effect
       effect="fillet_chamfer"
       id="path-effect9-2"
       is_visible="true"
       lpeversion="1"
       nodesatellites_param="F,0,1,1,0,5.684207,0,1 @ F,0,0,1,0,5.684207,0,1 @ F,0,0,1,0,4.43931,0,1 @ F,0,0,1,0,0,0,1 @ F,0,0,1,0,0,0,1 @ F,0,0,1,0,0,0,1 @ F,0,0,1,0,0,0,1 @ F,0,0,1,0,0,0,1 @ F,0,0,1,0,0,0,1 @ F,0,0,1,0,0,0,1 @ F,0,0,1,0,0,0,1 @ F,0,0,1,0,0,0,1 @ F,0,0,1,0,0,0,1 @ F,0,0,1,0,0,0,1 @ F,0,0,1,0,0,0,1 @ F,0,0,1,0,0,0,1 @ F,0,0,1,0,4.43931,0,1 | F,0,0,1,0,0,0,1 @ F,0,0,1,0,0,0,1"
       radius="0"
       unit="px"
       method="auto"
       mode="F"
       chamfer_steps="1"
       flexible="false"
       use_knot_distance="true"
       apply_no_radius="true"
       apply_with_radius="true"
       only_selected="false"
       hide_knots="false" />
    <radialGradient
       id="SVGID_1_-3-2-1"
       cx="-159.43106"
       cy="15.462561"
       r="64.706802"
       gradientTransform="matrix(-0.89413329,0,0,0.96304834,-80.753654,49.330428)"
       gradientUnits="userSpaceOnUse"
       fx="-159.43106"
       fy="15.462561">
      <stop
         offset="0"
         style="stop-color:#006fff;stop-opacity:1;"
         id="stop1-6-9-2" />
      <stop
         offset="1"
         style="stop-color:#15baff;stop-opacity:1;"
         id="stop2-7-1-7" />
    </radialGradient>
    <filter
       inkscape:collect="always"
       style="color-interpolation-filters:sRGB"
       id="filter14"
       x="-0.12313573"
       y="-0.1039037"
       width="1.2462714"
       height="1.2078074">
      <feGaussianBlur
         inkscape:collect="always"
         stdDeviation="1.9547216"
         id="feGaussianBlur14" />
    </filter>
  </defs>
  <sodipodi:namedview
     id="namedview6"
     pagecolor="#ffffff"
     bordercolor="#000000"
     borderopacity="0.25"
     inkscape:showpageshadow="2"
     inkscape:pageopacity="0.0"
     inkscape:pagecheckerboard="0"
     inkscape:deskcolor="#d1d1d1"
     inkscape:zoom="10.448818"
     inkscape:cx="29.189906"
     inkscape:cy="40.291641"
     inkscape:current-layer="svg6" />
  <g
     id="g15"
     transform="matrix(1.1515589,0,0,1.1515589,-6.3158242,-5.9554294)">
    <g
       id="g11">
      <path
         d="m 17.58324,13.961618 a 13.046732,13.046732 111.64474 0 0 -3.710193,9.349542 l 0,28.171405 a 4.43931,4.43931 45 0 0 4.43931,4.43931 h 3.314596 l 7.753906,-7.660156 v -3.861328 c -4.28e-4,2.132375 -1.728953,3.8609 -3.861328,3.861328 h -0.03125 c -2.132375,-4.28e-4 -3.8609,-1.728953 -3.861328,-3.861328 V 27.283203 c 5.89e-4,-5.333518 4.324685,-9.656739 9.658203,-9.65625 h 9.744141 c 2.132375,4.28e-4 3.8609,1.728953 3.861328,3.861328 -0.01781,2.089536 -1.707339,3.77907 -3.796875,3.796875 h 0.677734 c 6.649927,-2.123085 10.875,-10 10.875,-10 V 14.406107 A 4.43931,4.43931 45 0 0 48.207174,9.9667969 H 27.31116 a 13.841797,13.841797 157.67424 0 0 -9.72792,3.9948211 z m 14.459729,17.067679 c 0.139787,0.01022 0.280135,0.01022 0.419922,0 z"
         style="clip-rule:evenodd;fill:url(#radialGradient7);fill-rule:evenodd;stroke-width:0.722506"
         id="path9"
         inkscape:path-effect="#path-effect9"
         inkscape:original-d="m 21.626953,9.9667969 -7.753906,7.6601561 v 38.294922 h 7.753906 l 7.753906,-7.660156 v -3.861328 a 3.8621031,3.8621031 0 0 1 -3.861328,3.861328 h -0.03125 A 3.8621031,3.8621031 0 0 1 21.626953,44.400391 V 27.283203 a 9.6573171,9.6573171 0 0 1 9.658203,-9.65625 h 9.744141 a 3.8621031,3.8621031 0 0 1 3.861328,3.861328 3.8296462,3.8296462 0 0 1 -3.796875,3.796875 h 0.677734 c 6.649927,-2.123085 10.875,-10 10.875,-10 V 9.9667969 Z M 32.042969,31.029297 a 2.8798224,2.8798224 0 0 0 0.419922,0 z" />
      <path
         d="m 52.646484,15.285156 c 0,0 -4.225073,7.876915 -10.875,10 H 41.09375 32.462891 c -1.702171,-3e-5 -3.082061,1.37986 -3.082032,3.082031 0.1042,1.424853 1.237257,2.55791 2.66211,2.66211 h 0.419922 0.605468 0.595703 c 1.918036,-3.4e-4 3.472997,1.55462 3.472657,3.472656 -0.01469,1.903281 -1.569374,3.434361 -3.472657,3.419922 h -0.419921 c -2.133138,-6.51e-4 -3.862854,1.72819 -3.863282,3.861328 v 0.002 2.615235 c 0,0 -0.02814,0.571277 -0.174447,1.387228 -1.362261,4.085623 -7.579459,10.134256 -7.579459,10.134256 h 4.652344 c 0.250943,0.0471 1.476746,0.03133 2.666015,0.01563 0.581065,-0.0077 1.154216,-0.01563 1.59961,-0.01563 h 0.111328 c 0.570207,0.0011 0.725766,3.78e-4 0.833984,-0.291016 0.03695,-0.09918 0.308147,-1.329289 0.59961,-2.732422 0.353035,-1.675409 0.562085,-2.598923 0.611328,-2.68164 0.160097,-0.255812 0.279206,-0.318187 1.53125,-0.796875 1.350529,-0.520047 1.522582,-0.557706 1.822265,-0.396485 0.07386,0.04098 1.018206,0.78902 2.09375,1.664063 1.079617,0.874659 2.016184,1.620751 2.085938,1.662109 0.09034,0.05362 0.183857,0.07085 0.339844,0.05859 0.20934,-0.01264 0.255452,-0.04606 1.433593,-0.941406 2.393273,-1.820165 2.619292,-1.997936 2.697266,-2.109375 0.04517,-0.05782 0.08944,-0.197156 0.09766,-0.308594 0.02052,-0.181518 -0.06136,-0.422118 -0.93164,-2.716797 -0.525423,-1.386665 -0.964475,-2.581728 -0.972657,-2.660156 -0.04106,-0.284763 0.05219,-0.463118 0.708985,-1.371094 0.353035,-0.482863 0.681187,-0.925093 0.730469,-0.974609 0.143657,-0.160954 0.391204,-0.267808 0.621093,-0.263672 0.110854,0 1.337294,0.124624 2.720703,0.277344 l 2.513672,0.271484 0.175782,-0.07813 c 0.09441,-0.04538 0.205032,-0.114776 0.246093,-0.160156 0.05746,-0.06602 1.494312,-3.937452 1.732422,-4.667969 0.0903,-0.268258 0.0336,-0.496331 -0.175781,-0.710937 -0.08208,-0.08666 -1.09998,-0.858374 -2.261719,-1.716797 -2.08537,-1.539385 -2.110256,-1.560096 -2.21289,-1.78711 l -0.103516,-0.226562 0.04883,-0.886719 c 0.06569,-1.159689 0.07464,-1.214623 0.226563,-1.4375 0.123146,-0.17746 0.216806,-0.230897 2.515625,-1.390625 1.317727,-0.664458 1.836095,-0.937922 1.873046,-0.966797 0.36141,-0.282618 0.388672,-0.845593 0.388672,-0.957031 0,-0.02539 5.3e-5,-0.145994 0.002,-0.335938 v -0.0039 c 0.0128,-1.111706 0.05389,-4.52957 -0.002,-4.638672 z"
         style="fill:url(#radialGradient10);stroke-width:0.722506"
         id="path8"
         sodipodi:nodetypes="ccccccccccccsccccccsccccccccccccccccccccccccccccccscccc" />
      <path
         d="m 31.285156,17.626953 a 9.6573171,9.6573171 0 0 0 -9.658203,9.65625 v 17.117188 a 3.8621031,3.8621031 0 0 0 3.861328,3.861328 h 0.03125 a 3.8621031,3.8621031 0 0 0 3.861328,-3.861328 v -2.615235 a 3.8621031,3.8621031 0 0 1 3.863282,-3.863281 h 0.419921 a 3.4466135,3.4466135 0 0 0 3.472657,-3.419922 3.4720407,3.4720407 0 0 0 -3.472657,-3.472656 h -1.201171 a 2.8798224,2.8798224 0 0 1 -3.082032,-2.66211 3.0819782,3.0819782 0 0 1 3.082032,-3.082031 h 8.566406 a 3.8296462,3.8296462 0 0 0 3.861328,-3.796875 3.8621031,3.8621031 0 0 0 -3.861328,-3.861328 z"
         style="clip-rule:evenodd;fill:#ffffff;fill-rule:evenodd;stroke-width:0.722506"
         id="path7" />
    </g>
  </g>
  <g
     id="g14"
     style="mix-blend-mode:normal;stroke-width:0.17367762;stroke-dasharray:none;filter:url(#filter14)"
     transform="matrix(1.1515589,0,0,1.1515589,-6.9620999,-26.808163)">
    <path
       d="m 27.873711,28.075041 a 13.841797,13.841797 0 0 0 -9.728515,3.994141 13.046732,13.046732 0 0 0 -3.710938,9.349609 v 28.171875 a 4.43931,4.43931 0 0 0 4.439453,4.439453 h 3.314453 c 0,0 0.05764,-0.05609 0.16211,-0.160156 0.985595,-0.981781 6.186259,-6.28053 7.417969,-9.974609 0.04087,-0.227933 0.07333,-0.436572 0.09766,-0.619141 -0.02656,0.131596 -0.06199,0.260341 -0.101563,0.386719 a 3.8621031,3.8621031 0 0 1 -0.04883,0.136718 c -0.03042,0.08559 -0.06344,0.169262 -0.09961,0.251954 a 3.8621031,3.8621031 0 0 1 -0.05469,0.125 c -0.05844,0.12167 -0.120996,0.241276 -0.191406,0.355468 -0.08659,0.140437 -0.183794,0.27264 -0.28711,0.400391 a 3.8621031,3.8621031 0 0 1 -0.08008,0.0918 c -0.07649,0.08872 -0.15609,0.174446 -0.240234,0.255859 a 3.8621031,3.8621031 0 0 1 -0.126953,0.119141 c -0.117315,0.103772 -0.237817,0.201949 -0.367188,0.291015 a 3.8621031,3.8621031 0 0 1 -0.425781,0.251954 c -0.06024,0.03097 -0.123517,0.05614 -0.185547,0.08398 a 3.8621031,3.8621031 0 0 1 -0.289062,0.119141 c -0.06937,0.02457 -0.139812,0.04575 -0.210938,0.06641 a 3.8621031,3.8621031 0 0 1 -0.287109,0.07031 c -0.07265,0.01514 -0.144669,0.03002 -0.21875,0.04102 a 3.8621031,3.8621031 0 0 1 -0.507813,0.04687 3.8621031,3.8621031 0 0 1 -0.0625,0 h -0.03125 c -0.158567,-3.2e-5 -0.31324,-0.01265 -0.466796,-0.03125 a 3.8621031,3.8621031 0 0 1 -0.103517,-0.01563 c -0.124303,-0.01849 -0.247047,-0.04223 -0.367187,-0.07227 a 3.8621031,3.8621031 0 0 1 -0.09766,-0.02539 c -0.302474,-0.08414 -0.589719,-0.202472 -0.857422,-0.353516 a 3.8621031,3.8621031 0 0 1 -0.09766,-0.05859 c -0.09732,-0.05875 -0.191735,-0.122602 -0.283204,-0.189453 a 3.8621031,3.8621031 0 0 1 -0.113281,-0.08399 c -0.117232,-0.0924 -0.230241,-0.187841 -0.335938,-0.292969 a 3.8621031,3.8621031 0 0 1 -0.01563,-0.01563 C 23.20609,65.125596 23.11064,65.012573 23.018242,64.895349 a 3.8621031,3.8621031 0 0 1 -0.08398,-0.113282 c -0.06685,-0.09146 -0.130701,-0.185889 -0.189453,-0.283203 a 3.8621031,3.8621031 0 0 1 -0.05859,-0.09766 C 22.53518,64.133528 22.41685,63.846244 22.332704,63.543791 a 3.8621031,3.8621031 0 0 1 -0.02539,-0.09766 c -0.03004,-0.120132 -0.05377,-0.242893 -0.07227,-0.367188 a 3.8621031,3.8621031 0 0 1 -0.01563,-0.103515 c -0.0186,-0.153546 -0.03121,-0.308241 -0.03125,-0.466797 V 45.391447 c 4.3e-5,-0.387805 0.02973,-0.768682 0.07422,-1.144531 a 9.6573171,9.6573171 0 0 1 0.04883,-0.318359 c 0.0449,-0.294496 0.101006,-0.584026 0.171875,-0.869141 a 9.6573171,9.6573171 0 0 1 0.07422,-0.285156 c 0.09631,-0.342205 0.207897,-0.678237 0.339843,-1.003906 a 9.6573171,9.6573171 0 0 1 0.03125,-0.08203 c 0.150091,-0.360967 0.322607,-0.707656 0.513672,-1.044922 a 9.6573171,9.6573171 0 0 1 0.126954,-0.208986 c 0.158455,-0.263884 0.32955,-0.518917 0.511718,-0.765625 a 9.6573171,9.6573171 0 0 1 0.179688,-0.242187 c 0.234845,-0.298172 0.480315,-0.587139 0.748047,-0.855469 a 9.6573171,9.6573171 0 0 1 0.01758,-0.01563 c 0.267786,-0.26708 0.556024,-0.51371 0.853515,-0.748047 a 9.6573171,9.6573171 0 0 1 0.257813,-0.191406 c 0.236072,-0.173582 0.478718,-0.336334 0.730469,-0.488277 a 9.6573171,9.6573171 0 0 1 0.238281,-0.144531 c 0.336274,-0.18991 0.683203,-0.364458 1.042969,-0.513672 a 9.6573171,9.6573171 0 0 1 0.03516,-0.01172 c 0.338394,-0.138825 0.688553,-0.253282 1.044922,-0.353514 a 9.6573171,9.6573171 0 0 1 0.287109,-0.07422 c 0.289588,-0.07187 0.583567,-0.130713 0.882813,-0.17578 a 9.6573171,9.6573171 0 0 1 0.285156,-0.04297 c 0.381585,-0.04582 0.768174,-0.07619 1.162109,-0.07617 h 9.744141 c 0.158568,3.3e-5 0.313241,0.01265 0.466797,0.03125 a 3.8621031,3.8621031 0 0 1 0.103516,0.01563 c 0.124303,0.01849 0.247047,0.04222 0.367187,0.07227 a 3.8621031,3.8621031 0 0 1 0.09766,0.02539 c 0.302473,0.08414 0.589718,0.202471 0.857421,0.353515 a 3.8621031,3.8621031 0 0 1 0.09766,0.05859 c 0.09732,0.05875 0.191734,0.122603 0.283203,0.189453 a 3.8621031,3.8621031 0 0 1 0.113281,0.08398 c 0.117232,0.0924 0.230241,0.187842 0.335938,0.292969 a 3.8621031,3.8621031 0 0 1 0.01563,0.01563 c 0.105121,0.105691 0.200571,0.218713 0.292968,0.335938 a 3.8621031,3.8621031 0 0 1 0.08398,0.113281 c 0.06685,0.09146 0.130702,0.185889 0.189453,0.283203 a 3.8621031,3.8621031 0 0 1 0.05859,0.09766 c 0.151039,0.267686 0.269368,0.55497 0.353515,0.857422 a 3.8621031,3.8621031 0 0 1 0.02539,0.09766 c 0.03004,0.120133 0.05377,0.242893 0.07227,0.367188 a 3.8621031,3.8621031 0 0 1 0.01563,0.103516 c 0.0186,0.153545 0.03121,0.30824 0.03125,0.466796 -0.0013,0.154421 -0.01609,0.30554 -0.03516,0.455079 a 3.8296462,3.8296462 0 0 1 -0.01563,0.101562 c -0.02003,0.129232 -0.04552,0.256245 -0.07813,0.380859 a 3.8296462,3.8296462 0 0 1 -0.01758,0.07227 c -0.04105,0.145283 -0.08928,0.288073 -0.146484,0.425781 a 3.8296462,3.8296462 0 0 1 -0.0039,0.01172 c -3.22e-4,7.69e-4 -0.0016,0.0012 -0.002,0.002 -0.06007,0.143026 -0.12877,0.280497 -0.205078,0.414063 a 3.8296462,3.8296462 0 0 1 -0.04687,0.07813 c -0.0643,0.10658 -0.134925,0.209121 -0.208984,0.308593 a 3.8296462,3.8296462 0 0 1 -0.06445,0.08789 c -0.09304,0.117837 -0.190867,0.231844 -0.296875,0.337891 -0.10604,0.106002 -0.220061,0.20384 -0.337891,0.296875 a 3.8296462,3.8296462 0 0 1 -0.08789,0.06445 c -0.09947,0.07406 -0.20202,0.144688 -0.308593,0.208984 a 3.8296462,3.8296462 0 0 1 -0.07813,0.04687 c -0.133556,0.0763 -0.271048,0.14501 -0.414063,0.205078 a 3.8296462,3.8296462 0 0 1 -0.002,0.002 c -0.0038,0.0016 -0.0079,0.0023 -0.01172,0.0039 -0.137698,0.05721 -0.280508,0.105431 -0.425781,0.146484 a 3.8296462,3.8296462 0 0 1 -0.07227,0.01758 c -0.124605,0.0326 -0.251637,0.05809 -0.380859,0.07813 a 3.8296462,3.8296462 0 0 1 -0.101562,0.01563 c -0.149528,0.01907 -0.300669,0.03383 -0.455078,0.03516 h 0.677734 c 0.430786,-0.137534 0.851774,-0.298347 1.261719,-0.480468 5.91826,-2.629235 9.613281,-9.519532 9.613281,-9.519532 v -0.878906 a 4.43931,4.43931 0 0 0 -4.4375,-4.439453 z"
       style="clip-rule:evenodd;fill:none;fill-rule:evenodd;stroke:#000000;stroke-width:0.17367762;stroke-dasharray:none;stroke-opacity:1"
       id="path14" />
    <path
       d="m 53.207696,33.3934 c 0,0 -4.225073,7.876915 -10.875,10 h -0.677734 -0.06445 -8.566406 a 3.0819782,3.0819782 0 0 0 -0.361328,0.02344 c -0.03876,0.0045 -0.07693,0.01161 -0.115235,0.01758 a 3.0819782,3.0819782 0 0 0 -0.27539,0.05469 c -0.02548,0.0064 -0.05095,0.0125 -0.07617,0.01953 a 3.0819782,3.0819782 0 0 0 -0.328125,0.111328 3.0819782,3.0819782 0 0 0 -0.0293,0.0098 3.0819782,3.0819782 0 0 0 -0.330078,0.164062 c -0.02444,0.01385 -0.04824,0.02847 -0.07227,0.04297 a 3.0819782,3.0819782 0 0 0 -0.240235,0.160156 c -0.0261,0.01929 -0.05266,0.03851 -0.07813,0.05859 a 3.0819782,3.0819782 0 0 0 -0.273437,0.240234 3.0819782,3.0819782 0 0 0 -0.240235,0.273438 c -0.02009,0.02546 -0.0393,0.05202 -0.05859,0.07813 a 3.0819782,3.0819782 0 0 0 -0.160156,0.240234 c -0.0145,0.02402 -0.02911,0.04782 -0.04297,0.07227 a 3.0819782,3.0819782 0 0 0 -0.164062,0.330078 3.0819782,3.0819782 0 0 0 -0.0098,0.0293 3.0819782,3.0819782 0 0 0 -0.111329,0.328125 c -0.007,0.02522 -0.01313,0.05069 -0.01953,0.07617 a 3.0819782,3.0819782 0 0 0 -0.05469,0.27539 c -0.006,0.0383 -0.01304,0.07648 -0.01758,0.115235 a 3.0819782,3.0819782 0 0 0 -0.02344,0.361328 2.8798224,2.8798224 0 0 0 0.04492,0.330078 c 0.0055,0.02893 0.01317,0.05732 0.01953,0.08594 a 2.8798224,2.8798224 0 0 0 0.08398,0.304688 2.8798224,2.8798224 0 0 0 0.002,0.0098 2.8798224,2.8798224 0 0 0 0.128907,0.310547 c 0.01315,0.02722 0.029,0.05335 0.04297,0.08008 a 2.8798224,2.8798224 0 0 0 0.140625,0.242188 2.8798224,2.8798224 0 0 0 0.02539,0.04297 2.8798224,2.8798224 0 0 0 0.210937,0.271484 2.8798224,2.8798224 0 0 0 0.03125,0.0332 2.8798224,2.8798224 0 0 0 0.220703,0.220703 2.8798224,2.8798224 0 0 0 0.0332,0.03125 2.8798224,2.8798224 0 0 0 0.271485,0.210938 2.8798224,2.8798224 0 0 0 0.04297,0.02539 2.8798224,2.8798224 0 0 0 0.242187,0.140625 c 0.02673,0.01397 0.05286,0.02982 0.08008,0.04297 a 2.8798224,2.8798224 0 0 0 0.310547,0.128906 c 5.87e-4,2.03e-4 0.0014,-2.02e-4 0.002,0 a 2.8798224,2.8798224 0 0 0 0.0078,0.002 2.8798224,2.8798224 0 0 0 0.304688,0.08398 c 0.02861,0.0064 0.05701,0.01402 0.08594,0.01953 a 2.8798224,2.8798224 0 0 0 0.330078,0.04492 h 0.419935 1.201172 c 0.140899,-2.4e-5 0.279507,0.01105 0.416015,0.02734 a 3.4720407,3.4720407 0 0 1 0.111329,0.01758 c 0.09991,0.01524 0.198004,0.03307 0.294921,0.05664 a 3.4720407,3.4720407 0 0 1 0.132813,0.03516 c 0.126895,0.03628 0.252543,0.07705 0.373047,0.126953 0.134725,0.05579 0.263125,0.12172 0.388672,0.193359 a 3.4720407,3.4720407 0 0 1 0.05273,0.03125 c 0.09979,0.05931 0.196046,0.1227 0.289062,0.191407 a 3.4720407,3.4720407 0 0 1 0.08789,0.06641 c 0.106995,0.08438 0.212303,0.173362 0.308594,0.269531 a 3.4720407,3.4720407 0 0 0 0.002,0.002 c 0.09617,0.09629 0.185148,0.201599 0.269532,0.308594 a 3.4720407,3.4720407 0 0 1 0.06641,0.08789 c 0.06871,0.09302 0.132092,0.189268 0.191406,0.289062 a 3.4720407,3.4720407 0 0 1 0.03125,0.05273 c 0.07164,0.125548 0.137566,0.253946 0.193359,0.388672 0.04991,0.120505 0.09068,0.246152 0.126954,0.373047 a 3.4720407,3.4720407 0 0 1 0.03516,0.132813 c 0.02359,0.09701 0.04334,0.194911 0.05859,0.294922 a 3.4720407,3.4720407 0 0 1 0.01563,0.111328 c 0.01629,0.136509 0.02737,0.275115 0.02734,0.416015 -0.0011,0.14256 -0.01334,0.282034 -0.03125,0.419922 a 3.4466135,3.4466135 0 0 1 -0.01367,0.07813 c -0.01674,0.10915 -0.03773,0.21677 -0.06445,0.322266 a 3.4466135,3.4466135 0 0 1 -0.02539,0.101562 c -0.032,0.111835 -0.07059,0.22128 -0.113282,0.328125 a 3.4466135,3.4466135 0 0 1 -0.02539,0.06641 c -10e-4,0.0024 -9.14e-4,0.0054 -0.002,0.0078 -0.0527,0.123595 -0.113471,0.24177 -0.179688,0.357422 a 3.4466135,3.4466135 0 0 1 -0.03516,0.05664 c -0.05752,0.0961 -0.119243,0.18958 -0.185547,0.279296 a 3.4466135,3.4466135 0 0 1 -0.06445,0.08594 c -0.08307,0.105377 -0.169103,0.207823 -0.263672,0.302734 a 3.4466135,3.4466135 0 0 1 -0.04687,0.04492 c -0.09615,0.09297 -0.200236,0.178411 -0.306641,0.259766 a 3.4466135,3.4466135 0 0 1 -0.08789,0.06445 c -0.08289,0.05931 -0.167733,0.114098 -0.255859,0.166016 a 3.4466135,3.4466135 0 0 1 -0.09766,0.05859 c -0.117398,0.06402 -0.240103,0.121622 -0.365235,0.171875 a 3.4466135,3.4466135 0 0 1 -0.002,0.002 c -0.0052,0.0021 -0.01046,0.0038 -0.01563,0.0059 -0.114831,0.04537 -0.23306,0.08223 -0.353515,0.115234 a 3.4466135,3.4466135 0 0 1 -0.121094,0.0293 c -0.09751,0.02293 -0.196387,0.04219 -0.296875,0.05664 a 3.4466135,3.4466135 0 0 1 -0.119141,0.01563 c -0.131827,0.01402 -0.264617,0.02421 -0.400408,0.02318 h -0.419922 a 3.8621031,3.8621031 0 0 0 -0.466797,0.03125 c -0.03478,0.0042 -0.06903,0.01051 -0.103516,0.01563 a 3.8621031,3.8621031 0 0 0 -0.367187,0.07227 c -0.03328,0.0083 -0.06668,0.01623 -0.09961,0.02539 a 3.8621031,3.8621031 0 0 0 -0.417969,0.140625 3.8621031,3.8621031 0 0 0 -0.02148,0.0078 3.8621031,3.8621031 0 0 0 -0.417969,0.205078 c -0.02994,0.01688 -0.05846,0.03508 -0.08789,0.05273 a 3.8621031,3.8621031 0 0 0 -0.3125,0.210938 c -0.02585,0.01916 -0.05278,0.03685 -0.07813,0.05664 a 3.8621031,3.8621031 0 0 0 -0.351562,0.304687 3.8621031,3.8621031 0 0 0 -0.01367,0.01563 3.8621031,3.8621031 0 0 0 -0.289063,0.328125 c -0.03185,0.04018 -0.06153,0.08159 -0.0918,0.123047 a 3.8621031,3.8621031 0 0 0 -0.193359,0.291016 c -0.01708,0.02848 -0.03442,0.05699 -0.05078,0.08594 a 3.8621031,3.8621031 0 0 0 -0.203125,0.408203 3.8621031,3.8621031 0 0 0 -0.01758,0.04883 3.8621031,3.8621031 0 0 0 -0.134766,0.404297 c -0.0072,0.02588 -0.01483,0.05203 -0.02148,0.07813 a 3.8621031,3.8621031 0 0 0 -0.07617,0.382813 c -0.005,0.03331 -0.01151,0.06603 -0.01563,0.09961 a 3.8621031,3.8621031 0 0 0 -0.03125,0.466797 c -3e-6,0.002 1e-6,0.0038 0,0.0059 a 3.8621031,3.8621031 0 0 0 0,0.002 v 2.615235 a 3.8621031,3.8621031 0 0 1 -0.07617,0.765625 c -0.02435,0.183025 -0.05664,0.392362 -0.09766,0.621094 -1.362261,4.085623 -7.580078,10.134765 -7.580078,10.134765 h 4.652344 c 0.250943,0.0471 1.476747,0.03132 2.666016,0.01563 0.581065,-0.0077 1.154215,-0.01563 1.599609,-0.01563 h 0.111328 c 0.570207,0.0011 0.725766,3.79e-4 0.833984,-0.291015 0.03695,-0.09918 0.308147,-1.329289 0.59961,-2.732422 0.353035,-1.675409 0.562085,-2.598924 0.611328,-2.681641 0.160097,-0.255812 0.279206,-0.318187 1.53125,-0.796875 1.350529,-0.520047 1.522583,-0.557705 1.822266,-0.396484 0.07386,0.04098 1.018206,0.789019 2.09375,1.664062 1.079617,0.874659 2.016184,1.620752 2.085938,1.66211 0.09034,0.05362 0.183856,0.07085 0.339843,0.05859 0.20934,-0.01264 0.255453,-0.04606 1.433594,-0.941406 2.393273,-1.820165 2.619292,-1.997936 2.697266,-2.109375 0.04517,-0.05782 0.08944,-0.197156 0.09766,-0.308594 0.02052,-0.181518 -0.06136,-0.422118 -0.931641,-2.716797 -0.525423,-1.386665 -0.964474,-2.581728 -0.972656,-2.660156 -0.04106,-0.284763 0.05219,-0.463118 0.708984,-1.371094 0.353035,-0.482863 0.681187,-0.925093 0.730469,-0.974609 0.143657,-0.160954 0.391205,-0.267808 0.621094,-0.263672 0.110854,0 1.337294,0.124624 2.720703,0.277344 l 2.513672,0.271484 0.175781,-0.07813 c 0.09441,-0.04538 0.205033,-0.114776 0.246094,-0.160156 0.05746,-0.06602 1.494312,-3.937452 1.732422,-4.667969 0.0903,-0.268258 0.0336,-0.496331 -0.175782,-0.710937 -0.08208,-0.08666 -1.099979,-0.858374 -2.261718,-1.716797 -2.08537,-1.539385 -2.110257,-1.560095 -2.212891,-1.787109 L 48.154945,50.372 l 0.04883,-0.886719 c 0.06569,-1.159689 0.07464,-1.214623 0.226562,-1.4375 0.123146,-0.17746 0.216806,-0.230897 2.515625,-1.390625 1.317727,-0.664458 1.836096,-0.937921 1.873047,-0.966797 0.36141,-0.282618 0.388672,-0.845593 0.388672,-0.957031 0,-0.02539 6e-6,-0.145993 0.002,-0.335937 v -0.0039 c 0.0128,-1.111706 0.05394,-4.529569 -0.002,-4.638671 z"
       style="fill:none;stroke:#000000;stroke-width:0.17367762;stroke-dasharray:none;stroke-opacity:1"
       id="path13" />
    <path
       d="m 31.846367,35.735197 a 9.6573171,9.6573171 0 0 0 -9.658203,9.65625 v 17.117188 a 3.8621031,3.8621031 0 0 0 3.861329,3.861328 h 0.03125 a 3.8621031,3.8621031 0 0 0 3.861328,-3.861328 V 59.8934 a 3.8621031,3.8621031 0 0 1 3.863281,-3.863281 h 0.419922 A 3.4466135,3.4466135 0 0 0 37.69793,52.610197 3.4720407,3.4720407 0 0 0 34.225274,49.137541 H 33.024102 A 2.8798224,2.8798224 0 0 1 29.942071,46.475432 3.0819782,3.0819782 0 0 1 33.024102,43.3934 h 8.566406 a 3.8296462,3.8296462 0 0 0 3.861328,-3.796875 3.8621031,3.8621031 0 0 0 -3.861328,-3.861328 z"
       style="clip-rule:evenodd;fill:none;fill-rule:evenodd;stroke:#000000;stroke-width:0.17367762;stroke-dasharray:none;stroke-opacity:1"
       id="path12" />
  </g>
</svg>
