<?xml version="1.0" encoding="UTF-8" standalone="no"?>
<svg
   width="64"
   height="64"
   version="1"
   id="svg4"
   sodipodi:docname="system-suspend-hibernate.svg"
   inkscape:version="1.4.2 (ebf0e940d0, 2025-05-08)"
   xmlns:inkscape="http://www.inkscape.org/namespaces/inkscape"
   xmlns:sodipodi="http://sodipodi.sourceforge.net/DTD/sodipodi-0.dtd"
   xmlns:xlink="http://www.w3.org/1999/xlink"
   xmlns="http://www.w3.org/2000/svg"
   xmlns:svg="http://www.w3.org/2000/svg">
  <defs
     id="defs4">
    <linearGradient
       id="linearGradient5"
       inkscape:collect="always">
      <stop
         style="stop-color:#158ce4;stop-opacity:1;"
         offset="0"
         id="stop5" />
      <stop
         style="stop-color:#5e2db7;stop-opacity:1;"
         offset="1"
         id="stop6" />
    </linearGradient>
    <radialGradient
       inkscape:collect="always"
       xlink:href="#linearGradient5"
       id="radialGradient6"
       cx="11.777593"
       cy="17.501501"
       fx="11.777593"
       fy="17.501501"
       r="29"
       gradientUnits="userSpaceOnUse"
       gradientTransform="matrix(0,3.9936765,-3.9936765,0,69.983651,-47.096366)" />
    <filter
       inkscape:collect="always"
       style="color-interpolation-filters:sRGB"
       id="filter2"
       x="-0.098874727"
       y="-0.098874727"
       width="1.1977495"
       height="1.1977495">
      <feGaussianBlur
         inkscape:collect="always"
         stdDeviation="2.12903"
         id="feGaussianBlur2" />
    </filter>
  </defs>
  <sodipodi:namedview
     id="namedview4"
     pagecolor="#ffffff"
     bordercolor="#000000"
     borderopacity="0.25"
     inkscape:showpageshadow="2"
     inkscape:pageopacity="0.0"
     inkscape:pagecheckerboard="0"
     inkscape:deskcolor="#d1d1d1"
     inkscape:zoom="11.135104"
     inkscape:cx="31.432127"
     inkscape:cy="44.18459"
     inkscape:window-width="1920"
     inkscape:window-height="1020"
     inkscape:window-x="0"
     inkscape:window-y="0"
     inkscape:window-maximized="1"
     inkscape:current-layer="svg4" />
  <circle
     style="fill:url(#radialGradient6);stroke-width:0.91714"
     cx="32"
     cy="32"
     r="26.597052"
     id="circle2" />
  <path
     style="fill:#ffffff;stroke-width:0.91714;opacity:1"
     d="M 32,12.740066 A 19.259934,19.259934 0 0 0 12.740066,32 19.259934,19.259934 0 0 0 32,51.259934 19.259934,19.259934 0 0 0 51.259934,32 19.259934,19.259934 0 0 0 32,12.740066 Z m 0,5.502838 A 13.757096,13.757096 0 0 1 45.757096,32 13.757096,13.757096 0 0 1 32,45.757096 13.757096,13.757096 0 0 1 18.242904,32 13.757096,13.757096 0 0 1 32,18.242904 Z m 0,8.254258 A 5.5028381,5.5028381 0 0 0 26.497162,32 5.5028381,5.5028381 0 0 0 32,37.502838 5.5028381,5.5028381 0 0 0 37.502838,32 5.5028381,5.5028381 0 0 0 32,26.497162 Z"
     id="path3" />
  <path
     id="circle2-5"
     style="fill:none;stroke-width:0.3;stroke:#000000;stroke-opacity:1;stroke-dasharray:none;filter:url(#filter2)"
     d="M 32 5.4023438 A 26.597052 26.597052 0 0 0 5.4023438 32 A 26.597052 26.597052 0 0 0 32 58.597656 A 26.597052 26.597052 0 0 0 58.597656 32 A 26.597052 26.597052 0 0 0 32 5.4023438 z M 32 12.740234 A 19.259934 19.259934 0 0 1 51.259766 32 A 19.259934 19.259934 0 0 1 32 51.259766 A 19.259934 19.259934 0 0 1 12.740234 32 A 19.259934 19.259934 0 0 1 32 12.740234 z M 32 18.242188 A 13.757096 13.757096 0 0 0 18.242188 32 A 13.757096 13.757096 0 0 0 32 45.757812 A 13.757096 13.757096 0 0 0 45.757812 32 A 13.757096 13.757096 0 0 0 32 18.242188 z M 32 26.498047 A 5.5028381 5.5028381 0 0 1 37.501953 32 A 5.5028381 5.5028381 0 0 1 32 37.501953 A 5.5028381 5.5028381 0 0 1 26.498047 32 A 5.5028381 5.5028381 0 0 1 32 26.498047 z " />
</svg>
