<?xml version="1.0" encoding="UTF-8" standalone="no"?>
<svg
   width="64"
   height="64"
   version="1.1"
   id="svg6"
   sodipodi:docname="system-config-samba.svg"
   inkscape:version="1.4.3 (0d15f75042, 2025-12-25)"
   xmlns:inkscape="http://www.inkscape.org/namespaces/inkscape"
   xmlns:sodipodi="http://sodipodi.sourceforge.net/DTD/sodipodi-0.dtd"
   xmlns:xlink="http://www.w3.org/1999/xlink"
   xmlns="http://www.w3.org/2000/svg"
   xmlns:svg="http://www.w3.org/2000/svg">
  <defs
     id="defs6">
    <filter
       inkscape:collect="always"
       style="color-interpolation-filters:sRGB"
       id="filter1"
       x="-0.10203644"
       y="-0.10203644"
       width="1.2040729"
       height="1.2040729">
      <feGaussianBlur
         inkscape:collect="always"
         stdDeviation="2.3154179"
         id="feGaussianBlur1" />
    </filter>
    <radialGradient
       inkscape:collect="always"
       xlink:href="#linearGradient4"
       id="radialGradient5"
       cx="11.001936"
       cy="34.411228"
       fx="11.001936"
       fy="34.411228"
       r="28"
       gradientUnits="userSpaceOnUse"
       gradientTransform="matrix(0.51712686,1.9299437,-1.6733204,0.44836488,71.771563,-49.575891)" />
    <linearGradient
       id="linearGradient4"
       inkscape:collect="always">
      <stop
         style="stop-color:#00c8ff;stop-opacity:1;"
         offset="0"
         id="stop4" />
      <stop
         style="stop-color:#009cff;stop-opacity:1;"
         offset="1"
         id="stop5" />
    </linearGradient>
    <filter
       inkscape:collect="always"
       style="color-interpolation-filters:sRGB"
       id="filter2"
       x="-0.055505021"
       y="-0.038327208"
       width="1.11101"
       height="1.0766544">
      <feGaussianBlur
         inkscape:collect="always"
         stdDeviation="0.65646189"
         id="feGaussianBlur2" />
    </filter>
  </defs>
  <sodipodi:namedview
     id="namedview6"
     pagecolor="#ffffff"
     bordercolor="#000000"
     borderopacity="0.25"
     inkscape:showpageshadow="2"
     inkscape:pageopacity="0.0"
     inkscape:pagecheckerboard="0"
     inkscape:deskcolor="#d1d1d1"
     inkscape:zoom="7.8263548"
     inkscape:cx="37.054287"
     inkscape:cy="30.41007"
     inkscape:current-layer="svg6" />
  <g
     id="g6"
     transform="translate(-9.2031551,25.796845)">
    <rect
       style="fill:url(#radialGradient5);stroke-width:0.955185"
       width="53.490372"
       height="53.490372"
       x="14.396342"
       y="-20.498653"
       rx="26.745186"
       ry="26.745186"
       id="rect1" />
    <rect
       style="mix-blend-mode:normal;fill:none;stroke:#000000;stroke-width:0.314075;stroke-dasharray:none;stroke-opacity:1;filter:url(#filter1)"
       width="56"
       height="56"
       x="4.0645156"
       y="3.9545853"
       rx="28"
       ry="28"
       id="rect1-5"
       transform="matrix(0.95518521,0,0,0.95518521,10.575602,-24.319394)" />
  </g>
  <g
     id="g1"
     transform="translate(-1.2777328,-0.31943389)">
    <path
       id="rect3"
       style="fill:#ffffff;stroke-width:2"
       d="m 39.227617,26.177498 c -1.599952,0 -2.888672,1.28872 -2.888672,2.888672 v 13.111328 h -4.003906 c -1.536811,-1.39e-4 -2.497266,1.238143 -1.728516,2.228516 l 7.003906,9.029296 c 0.337517,0.434807 0.947351,0.713273 1.621094,0.740235 0.750426,0.03017 1.460011,-0.25593 1.835938,-0.740235 l 7.003906,-9.029296 c 0.76875,-0.990373 -0.191705,-2.228655 -1.728516,-2.228516 H 42.338945 V 29.06617 c 0,-1.599952 -1.28872,-2.888672 -2.888672,-2.888672 z M 27.1091,10.463322 c -0.673743,0.02696 -1.283577,0.305428 -1.621094,0.740235 L 18.4841,20.232853 c -0.76875,0.990373 0.191705,2.228654 1.728516,2.228516 h 4.003906 v 13.111328 c 0,1.599952 1.28872,2.888672 2.888672,2.888672 h 0.222656 c 1.599952,0 2.888672,-1.28872 2.888672,-2.888672 V 22.461369 h 4.003906 c 1.536811,1.38e-4 2.497266,-1.238143 1.728516,-2.228516 L 28.945038,11.203557 C 28.569111,10.719252 27.859526,10.433153 27.1091,10.463322 Z"
       sodipodi:nodetypes="sscccccccccssscccccssssccccc" />
    <path
       id="rect3-8"
       style="fill:none;stroke:#0001ff;stroke-width:0.2;stroke-dasharray:none;stroke-opacity:1;filter:url(#filter2)"
       d="m 39.227599,26.177498 c -1.599952,0 -2.888672,1.28872 -2.888672,2.888672 v 13.111328 h -4.003906 c -1.536811,-1.39e-4 -2.497266,1.238143 -1.728516,2.228516 l 7.003906,9.029296 c 0.337518,0.434807 0.947351,0.713273 1.621094,0.740235 0.750426,0.03017 1.460011,-0.25593 1.835938,-0.740235 l 7.003906,-9.029296 C 48.8401,43.415641 47.879644,42.177359 46.342833,42.177498 H 42.338927 V 29.06617 c 0,-1.599952 -1.28872,-2.888672 -2.888672,-2.888672 z M 27.109082,10.463369 c -0.673743,0.02696 -1.283577,0.305428 -1.621094,0.740235 L 18.484082,20.2329 c -0.768677,0.990362 0.191754,2.228587 1.728516,2.228469 h 4.003906 v 13.111328 c 0,1.599952 1.28872,2.888672 2.888672,2.888672 h 0.222656 c 1.599952,0 2.888672,-1.28872 2.888672,-2.888672 V 22.461369 h 4.003906 c 1.536811,1.38e-4 2.497266,-1.238143 1.728516,-2.228516 L 28.94502,11.203557 c -0.375927,-0.484305 -1.085512,-0.770404 -1.835938,-0.740235 z"
       sodipodi:nodetypes="sscccccccccssscccccsssscccccc" />
  </g>
</svg>
