<?xml version="1.0" encoding="UTF-8" standalone="no"?>
<svg
   width="64"
   height="64"
   version="1"
   id="svg5"
   sodipodi:docname="unity-tweak-tool.svg"
   inkscape:version="1.4.2 (ebf0e940d0, 2025-05-08)"
   xmlns:inkscape="http://www.inkscape.org/namespaces/inkscape"
   xmlns:sodipodi="http://sodipodi.sourceforge.net/DTD/sodipodi-0.dtd"
   xmlns:xlink="http://www.w3.org/1999/xlink"
   xmlns="http://www.w3.org/2000/svg"
   xmlns:svg="http://www.w3.org/2000/svg">
  <defs
     id="defs5">
    <radialGradient
       inkscape:collect="always"
       xlink:href="#radialGradient75"
       id="radialGradient74"
       cx="-1.8319243"
       cy="63.984921"
       fx="-1.8319243"
       fy="63.984921"
       r="28"
       gradientUnits="userSpaceOnUse"
       gradientTransform="matrix(0,-2.2850347,2.2850347,0,-82.243428,60.079175)" />
    <radialGradient
       id="radialGradient75"
       cx="21.0371"
       cy="56.209099"
       r="40.250599"
       gradientTransform="matrix(1,0,0,-1,0,66)"
       gradientUnits="userSpaceOnUse">
      <stop
         offset="0"
         style="stop-color:#b0b0b0;stop-opacity:1;"
         id="stop74" />
      <stop
         offset="1"
         style="stop-color:#e5e5e5;stop-opacity:1;"
         id="stop75" />
    </radialGradient>
    <filter
       inkscape:collect="always"
       style="color-interpolation-filters:sRGB"
       id="filter4-3"
       x="-0.070802977"
       y="-0.070802978"
       width="1.141606"
       height="1.141606">
      <feGaussianBlur
         inkscape:collect="always"
         stdDeviation="1.5895694"
         id="feGaussianBlur4-3" />
    </filter>
    <linearGradient
       inkscape:collect="always"
       xlink:href="#SVGID_1_-3-2-4"
       id="linearGradient1"
       x1="-33.937069"
       y1="9.3669081"
       x2="-33.937069"
       y2="49.811241"
       gradientUnits="userSpaceOnUse"
       gradientTransform="rotate(90,-1.2803996,63.743147)" />
    <radialGradient
       id="SVGID_1_-3-2-4"
       cx="-159.43106"
       cy="15.462561"
       r="64.706802"
       gradientTransform="matrix(-0.89413329,0,0,0.96304834,-135.76624,49.941471)"
       gradientUnits="userSpaceOnUse"
       fx="-159.43106"
       fy="15.462561">
      <stop
         offset="0"
         style="stop-color:#006fff;stop-opacity:1;"
         id="stop1-6-9-3" />
      <stop
         offset="1"
         style="stop-color:#15baff;stop-opacity:1;"
         id="stop2-7-1-0" />
    </radialGradient>
    <filter
       inkscape:collect="always"
       style="color-interpolation-filters:sRGB"
       id="filter2"
       x="-0.068674159"
       y="-0.068674159"
       width="1.1373483"
       height="1.1373483">
      <feGaussianBlur
         inkscape:collect="always"
         stdDeviation="0.93121723"
         id="feGaussianBlur2" />
    </filter>
    <filter
       inkscape:collect="always"
       style="color-interpolation-filters:sRGB"
       id="filter1-6"
       x="-0.12143912"
       y="-0.1103992"
       width="1.2428782"
       height="1.2207984">
      <feGaussianBlur
         inkscape:collect="always"
         stdDeviation="0.94949263"
         id="feGaussianBlur1-0" />
    </filter>
    <radialGradient
       inkscape:collect="always"
       xlink:href="#SVGID_2_-3-3"
       id="radialGradient8-5"
       gradientUnits="userSpaceOnUse"
       gradientTransform="matrix(1.1153392,-0.64394141,-0.64394139,-1.1153392,17.351609,42.159239)"
       cx="15.931056"
       cy="6.6758757"
       r="40.250599"
       fx="15.931056"
       fy="6.6758757" />
    <radialGradient
       id="SVGID_2_-3-3"
       cx="21.0371"
       cy="56.209099"
       r="40.250599"
       gradientTransform="matrix(1,0,0,-1,0,66)"
       gradientUnits="userSpaceOnUse">
      <stop
         offset="0"
         style="stop-color:#ffffff;stop-opacity:1;"
         id="stop5-5-6" />
      <stop
         offset="1"
         style="stop-color:#d6d4d4;stop-opacity:1;"
         id="stop6-6-7" />
    </radialGradient>
    <filter
       inkscape:collect="always"
       style="color-interpolation-filters:sRGB"
       id="filter2-4"
       x="-0.10149862"
       y="-0.14499802"
       width="1.2029972"
       height="1.289996">
      <feGaussianBlur
         inkscape:collect="always"
         stdDeviation="1.6291436"
         id="feGaussianBlur2-8" />
    </filter>
  </defs>
  <sodipodi:namedview
     id="namedview5"
     pagecolor="#ffffff"
     bordercolor="#000000"
     borderopacity="0.25"
     inkscape:showpageshadow="2"
     inkscape:pageopacity="0.0"
     inkscape:pagecheckerboard="0"
     inkscape:deskcolor="#d1d1d1"
     inkscape:zoom="19.09375"
     inkscape:cx="32"
     inkscape:cy="32"
     inkscape:current-layer="svg5" />
  <g
     id="g1">
    <path
       class="st1"
       d="m 20.773851,4.0517692 h 22.4 c 9.3,0 16.8,7.4999988 16.8,16.7999988 v 22.4 c 0,9.3 -7.5,16.8 -16.8,16.8 h -22.4 c -9.3,0 -16.799999,-7.5 -16.799999,-16.8 v -22.4 c 0,-9.3 7.499999,-16.7999988 16.799999,-16.7999988 z"
       id="path2-8"
       style="fill:url(#radialGradient74)" />
    <path
       class="st1"
       d="m 20.8,3.9999999 h 22.4 c 9.3,0 16.8,7.4999991 16.8,16.7999991 v 22.4 c 0,9.3 -7.5,16.8 -16.8,16.8 H 20.8 c -9.3,0 -16.8,-7.5 -16.8,-16.8 v -22.4 c 0,-9.3 7.5,-16.7999991 16.8,-16.7999991 z"
       id="path2-2-8"
       style="opacity:0.673189;fill:none;stroke:#000000;stroke-width:0.3;stroke-dasharray:none;stroke-opacity:1;filter:url(#filter4-3)" />
    <path
       class="st2"
       d="m 47.691244,17.201136 c 0,-1.7 -1.4,-3 -3,-3 h -28 c -1.7,0 -3,1.3 -3,3 0,1.7 1.3,3 3,3 h 28 c 1.6,0 3,-1.3 3,-3 z m -17,25 h -14 c -1.7,0 -3,1.3 -3,3 0,1.7 1.3,3 3,3 h 14 z m -5,-14 h -9 c -1.7,0 -3,1.3 -3,3 0,1.7 1.3,3 3,3 h 9 z"
       id="path3-97"
       style="fill:url(#linearGradient1)" />
    <path
       class="st2"
       d="m 47.691244,17.201136 c 0,-1.7 -1.4,-3 -3,-3 h -28 c -1.7,0 -3,1.3 -3,3 0,1.7 1.3,3 3,3 h 28 c 1.6,0 3,-1.3 3,-3 z m -17,25 h -14 c -1.7,0 -3,1.3 -3,3 0,1.7 1.3,3 3,3 h 14 z m -5,-14 h -9 c -1.7,0 -3,1.3 -3,3 0,1.7 1.3,3 3,3 h 9 z"
       id="path3-97-4"
       style="fill:none;stroke:#0037ff;stroke-width:0.2;stroke-dasharray:none;stroke-opacity:1;filter:url(#filter2)" />
    <path
       class="st0"
       d="m 47.691244,31.201136 c 0,-1.7 -1.4,-3 -3,-3 h -19 v 6 h 19 c 1.7,0 3,-1.4 3,-3 z m 0,14 c 0,-1.7 -1.4,-3 -3,-3 h -14 v 6 h 14 c 1.7,0 3,-1.4 3,-3 z"
       id="path4-7"
       style="opacity:0.2;enable-background:new" />
    <path
       class="st0"
       d="m -33.796262,14.719734 c -1.7,0 -3,1.4 -3,3 v 19 h 6 v -19 c 0,-1.7 -1.4,-3 -3,-3 z m 14,0 c -1.7,0 -3,1.4 -3,3 v 14 h 6 v -14 c 0,-1.7 -1.4,-3 -3,-3 z"
       id="path4-1"
       style="opacity:0.306104;fill:none;stroke:#000000;stroke-width:0.3;stroke-dasharray:none;stroke-opacity:1;filter:url(#filter1-6);enable-background:new"
       transform="rotate(90,-1.2803996,63.743147)" />
    <path
       class="st4"
       d="m 48.351051,16.959001 c 0,-3.3 -2.7,-6 -6,-6 -3.3,0 -6,2.7 -6,6 0,3.3 2.7,6 6,6 3.3,0 6,-2.7 6,-6 z m -11,28 c 0,-3.3 -2.7,-6 -6,-6 -3.3,0 -6,2.7 -6,6 0,3.3 2.7,6 6,6 3.3,0 6,-2.7 6,-6 z m -5,-14 c 0,-3.3 -2.7,-6 -6,-6 -3.3,0 -6,2.7 -6,6 0,3.3 2.7,6 6,6 3.3,0 6,-2.7 6,-6 z"
       id="path6-2-6"
       style="fill:url(#radialGradient8-5)" />
    <path
       class="st4"
       d="m -48.038397,14.059927 c -3.3,0 -6,2.7 -6,6 0,3.3 2.7,6 6,6 3.3,0 6,-2.7 6,-6 0,-3.3 -2.7,-6 -6,-6 z m 28,11 c -3.3,0 -6,2.7 -6,6 0,3.3 2.7,6 6,6 3.3,0 6,-2.7 6,-6 0,-3.3 -2.7,-6 -6,-6 z m -14,5 c -3.3,0 -6,2.7 -6,6 0,3.3 2.7,6 6,6 3.3,0 6,-2.7 6,-6 0,-3.3 -2.7,-6 -6,-6 z"
       id="path6-2-2"
       style="fill:none;stroke:#000000;stroke-width:0.3;stroke-dasharray:none;stroke-opacity:1;filter:url(#filter2-4)"
       transform="rotate(90,-1.2803996,63.743147)" />
  </g>
</svg>
