<?xml version="1.0" encoding="UTF-8" standalone="no"?>
<svg
   width="64"
   height="64"
   version="1"
   id="svg8"
   sodipodi:docname="winemine.svg"
   inkscape:version="1.4.3 (0d15f75042, 2025-12-25)"
   xmlns:inkscape="http://www.inkscape.org/namespaces/inkscape"
   xmlns:sodipodi="http://sodipodi.sourceforge.net/DTD/sodipodi-0.dtd"
   xmlns:xlink="http://www.w3.org/1999/xlink"
   xmlns="http://www.w3.org/2000/svg"
   xmlns:svg="http://www.w3.org/2000/svg">
  <defs
     id="defs8">
    <linearGradient
       id="linearGradient10"
       inkscape:collect="always">
      <stop
         style="stop-color:#ffffff;stop-opacity:1;"
         offset="0"
         id="stop9" />
      <stop
         style="stop-color:#bfdcff;stop-opacity:1;"
         offset="1"
         id="stop10" />
    </linearGradient>
    <filter
       inkscape:collect="always"
       style="color-interpolation-filters:sRGB"
       id="filter4"
       x="-0.2493183"
       y="-0.2493183"
       width="1.4986366"
       height="1.4986366">
      <feGaussianBlur
         inkscape:collect="always"
         stdDeviation="2.6245562"
         id="feGaussianBlur4" />
    </filter>
    <filter
       inkscape:collect="always"
       style="color-interpolation-filters:sRGB"
       id="filter5"
       x="-0.0769893"
       y="-0.070687495"
       width="1.1539844"
       height="1.141375">
      <feGaussianBlur
         inkscape:collect="always"
         stdDeviation="1.6077082"
         id="feGaussianBlur5" />
    </filter>
    <inkscape:path-effect
       effect="fillet_chamfer"
       id="path-effect4-3"
       is_visible="true"
       lpeversion="1"
       nodesatellites_param="F,0,0,1,0,0,0,1 @ F,0,1,1,0,1.0258698,0,1 @ F,0,1,1,0,1.0258698,0,1 @ F,0,0,1,0,1.0258698,0,1 @ F,0,1,1,0,1.0258698,0,1 @ F,0,1,1,0,1.0258698,0,1 @ F,0,0,1,0,0,0,1 @ F,0,0,1,0,0,0,1 @ F,0,1,1,0,1.0258698,0,1 @ F,0,1,1,0,1.0258698,0,1 @ F,0,1,1,0,1.0258698,0,1 @ F,0,0,1,0,0,0,1 @ F,0,0,1,0,0,0,1 @ F,0,0,1,0,0,0,1 @ F,0,0,1,0,0,0,1 @ F,0,1,1,0,1.0258698,0,1 @ F,0,1,1,0,1.0258698,0,1 @ F,0,0,1,0,0,0,1 @ F,0,0,1,0,0,0,1 @ F,0,0,1,0,0,0,1 @ F,0,0,1,0,0,0,1 @ F,0,1,1,0,1.0258698,0,1 @ F,0,1,1,0,1.0258698,0,1 @ F,0,0,1,0,0,0,1 @ F,0,0,1,0,0,0,1 @ F,0,0,1,0,0,0,1 @ F,0,1,1,0,1.0258698,0,1 @ F,0,1,1,0,1.0258698,0,1 @ F,0,1,1,0,1.0258698,0,1 @ F,0,1,1,0,1.0258698,0,1 @ F,0,0,1,0,0,0,1 @ F,0,0,1,0,0,0,1 @ F,0,0,1,0,0,0,1 @ F,0,0,1,0,0,0,1 @ F,0,1,1,0,1.0258698,0,1 @ F,0,1,1,0,1.0258698,0,1 @ F,0,0,1,0,0,0,1 @ F,0,0,1,0,0,0,1"
       radius="0"
       unit="px"
       method="auto"
       mode="F"
       chamfer_steps="1"
       flexible="false"
       use_knot_distance="true"
       apply_no_radius="true"
       apply_with_radius="true"
       only_selected="false"
       hide_knots="false" />
    <radialGradient
       inkscape:collect="always"
       xlink:href="#linearGradient3"
       id="radialGradient4"
       cx="12.128831"
       cy="37.204941"
       fx="12.128831"
       fy="37.204941"
       r="25.7041"
       gradientTransform="matrix(1.6682612,-1.6682612,1.8172708,1.817271,-77.765931,7.2625198)"
       gradientUnits="userSpaceOnUse" />
    <linearGradient
       id="linearGradient3"
       inkscape:collect="always">
      <stop
         style="stop-color:#4f4f4f;stop-opacity:1;"
         offset="0"
         id="stop3" />
      <stop
         style="stop-color:#2f2f2f;stop-opacity:1;"
         offset="1"
         id="stop4" />
    </linearGradient>
    <inkscape:path-effect
       effect="fillet_chamfer"
       id="path-effect4"
       is_visible="true"
       lpeversion="1"
       nodesatellites_param="F,0,0,1,0,0,0,1 @ F,0,1,1,0,1.0258698,0,1 @ F,0,1,1,0,1.0258698,0,1 @ F,0,0,1,0,1.0258698,0,1 @ F,0,1,1,0,1.0258698,0,1 @ F,0,1,1,0,1.0258698,0,1 @ F,0,0,1,0,0,0,1 @ F,0,0,1,0,0,0,1 @ F,0,1,1,0,1.0258698,0,1 @ F,0,1,1,0,1.0258698,0,1 @ F,0,1,1,0,1.0258698,0,1 @ F,0,0,1,0,0,0,1 @ F,0,0,1,0,0,0,1 @ F,0,0,1,0,0,0,1 @ F,0,0,1,0,0,0,1 @ F,0,1,1,0,1.0258698,0,1 @ F,0,1,1,0,1.0258698,0,1 @ F,0,0,1,0,0,0,1 @ F,0,0,1,0,0,0,1 @ F,0,0,1,0,0,0,1 @ F,0,0,1,0,0,0,1 @ F,0,1,1,0,1.0258698,0,1 @ F,0,1,1,0,1.0258698,0,1 @ F,0,0,1,0,0,0,1 @ F,0,0,1,0,0,0,1 @ F,0,0,1,0,0,0,1 @ F,0,1,1,0,1.0258698,0,1 @ F,0,1,1,0,1.0258698,0,1 @ F,0,1,1,0,1.0258698,0,1 @ F,0,1,1,0,1.0258698,0,1 @ F,0,0,1,0,0,0,1 @ F,0,0,1,0,0,0,1 @ F,0,0,1,0,0,0,1 @ F,0,0,1,0,0,0,1 @ F,0,1,1,0,1.0258698,0,1 @ F,0,1,1,0,1.0258698,0,1 @ F,0,0,1,0,0,0,1 @ F,0,0,1,0,0,0,1"
       radius="0"
       unit="px"
       method="auto"
       mode="F"
       chamfer_steps="1"
       flexible="false"
       use_knot_distance="true"
       apply_no_radius="true"
       apply_with_radius="true"
       only_selected="false"
       hide_knots="false" />
    <inkscape:path-effect
       effect="fillet_chamfer"
       id="path-effect13"
       is_visible="true"
       lpeversion="1"
       nodesatellites_param="F,0,1,1,0,13.994114,0,1 @ F,0,1,1,0,13.994114,0,1 @ F,0,1,1,0,13.994114,0,1 @ F,0,0,1,0,13.994114,0,1"
       radius="0"
       unit="px"
       method="auto"
       mode="F"
       chamfer_steps="1"
       flexible="false"
       use_knot_distance="true"
       apply_no_radius="true"
       apply_with_radius="true"
       only_selected="false"
       hide_knots="false" />
    <radialGradient
       inkscape:collect="always"
       xlink:href="#linearGradient10"
       id="radialGradient12"
       cx="31.962891"
       cy="31.968748"
       fx="31.962891"
       fy="31.968748"
       r="19.625"
       gradientTransform="matrix(2.0003572,0,0,2.0121027,-31.974309,-32.355658)"
       gradientUnits="userSpaceOnUse" />
    <linearGradient
       id="linearGradient11"
       inkscape:collect="always">
      <stop
         style="stop-color:#00dfff;stop-opacity:1;"
         offset="0"
         id="stop11" />
      <stop
         style="stop-color:#0097ff;stop-opacity:1;"
         offset="1"
         id="stop12" />
    </linearGradient>
    <inkscape:path-effect
       effect="fillet_chamfer"
       id="path-effect11"
       is_visible="true"
       lpeversion="1"
       nodesatellites_param="F,0,1,1,0,5.2536766,0,1 @ F,0,1,1,0,5.2536766,0,1 @ F,0,1,1,0,5.2536766,0,1 @ F,0,1,1,0,5.2536766,0,1 | F,0,1,1,0,5.2536766,0,1 @ F,0,1,1,0,5.2536766,0,1 @ F,0,1,1,0,5.2536766,0,1 @ F,0,1,1,0,5.2536766,0,1 | F,0,1,1,0,5.2536766,0,1 @ F,0,1,1,0,5.2536766,0,1 @ F,0,1,1,0,5.2536766,0,1 @ F,0,1,1,0,5.2536766,0,1 | F,0,1,1,0,5.2536766,0,1 @ F,0,1,1,0,5.2536766,0,1 @ F,0,0,1,0,5.2536766,0,1 @ F,0,1,1,0,5.2536766,0,1"
       radius="0"
       unit="px"
       method="auto"
       mode="F"
       chamfer_steps="1"
       flexible="false"
       use_knot_distance="true"
       apply_no_radius="true"
       apply_with_radius="true"
       only_selected="false"
       hide_knots="false" />
    <filter
       inkscape:collect="always"
       style="color-interpolation-filters:sRGB"
       id="filter14"
       x="-0.10874642"
       y="-0.10874642"
       width="1.2174928"
       height="1.2174928">
      <feGaussianBlur
         inkscape:collect="always"
         stdDeviation="2.4332496"
         id="feGaussianBlur14" />
    </filter>
    <inkscape:path-effect
       effect="fillet_chamfer"
       id="path-effect13-9"
       is_visible="true"
       lpeversion="1"
       nodesatellites_param="F,0,1,1,0,13.994114,0,1 @ F,0,1,1,0,13.994114,0,1 @ F,0,1,1,0,13.994114,0,1 @ F,0,0,1,0,13.994114,0,1"
       radius="0"
       unit="px"
       method="auto"
       mode="F"
       chamfer_steps="1"
       flexible="false"
       use_knot_distance="true"
       apply_no_radius="true"
       apply_with_radius="true"
       only_selected="false"
       hide_knots="false" />
    <inkscape:path-effect
       effect="fillet_chamfer"
       id="path-effect11-2"
       is_visible="true"
       lpeversion="1"
       nodesatellites_param="F,0,1,1,0,5.2536766,0,1 @ F,0,1,1,0,5.2536766,0,1 @ F,0,1,1,0,5.2536766,0,1 @ F,0,1,1,0,5.2536766,0,1 | F,0,1,1,0,5.2536766,0,1 @ F,0,1,1,0,5.2536766,0,1 @ F,0,1,1,0,5.2536766,0,1 @ F,0,1,1,0,5.2536766,0,1 | F,0,1,1,0,5.2536766,0,1 @ F,0,1,1,0,5.2536766,0,1 @ F,0,1,1,0,5.2536766,0,1 @ F,0,1,1,0,5.2536766,0,1 | F,0,1,1,0,5.2536766,0,1 @ F,0,1,1,0,5.2536766,0,1 @ F,0,0,1,0,5.2536766,0,1 @ F,0,1,1,0,5.2536766,0,1"
       radius="0"
       unit="px"
       method="auto"
       mode="F"
       chamfer_steps="1"
       flexible="false"
       use_knot_distance="true"
       apply_no_radius="true"
       apply_with_radius="true"
       only_selected="false"
       hide_knots="false" />
    <radialGradient
       inkscape:collect="always"
       xlink:href="#linearGradient11"
       id="radialGradient9"
       cx="32"
       cy="32.011497"
       fx="32"
       fy="32.011497"
       r="28"
       gradientUnits="userSpaceOnUse" />
    <filter
       inkscape:collect="always"
       style="color-interpolation-filters:sRGB"
       id="filter9"
       x="-0.064373571"
       y="-0.063997789"
       width="1.1287471"
       height="1.1279956">
      <feGaussianBlur
         inkscape:collect="always"
         stdDeviation="0.99588832"
         id="feGaussianBlur9" />
    </filter>
  </defs>
  <sodipodi:namedview
     id="namedview8"
     pagecolor="#ffffff"
     bordercolor="#000000"
     borderopacity="0.25"
     inkscape:showpageshadow="2"
     inkscape:pageopacity="0.0"
     inkscape:pagecheckerboard="0"
     inkscape:deskcolor="#d1d1d1"
     inkscape:zoom="14.188853"
     inkscape:cx="19.029023"
     inkscape:cy="39.22093"
     inkscape:current-layer="svg8" />
  <g
     id="g8"
     transform="translate(-31.66213,5.0415015)">
    <path
       style="fill:url(#radialGradient4);stroke:none"
       d="m 30.599609,3.9999999 c -2.75371,0 -5.030624,1.9674146 -5.507659,4.5791615 C 24.990278,9.1358136 25,10.058907 25,10.625479 v 0.57326 c 0,0.566572 -0.434072,1.177002 -0.958138,1.392164 -1.741732,0.715091 -3.379426,1.661196 -4.868965,2.812829 -0.448184,0.346513 -1.193798,0.417557 -1.684576,0.134465 l -0.498127,-0.287332 c -0.490778,-0.283092 -1.285391,-0.752878 -1.81826,-0.943092 -2.183978,-0.779595 -4.629362,-0.123835 -6.1308993,1.643529 -0.3663788,0.431241 -0.8197726,1.235373 -1.1033806,1.725853 l -0.8868729,1.533783 c -1.5511999,2.686758 -0.6359758,6.09919 2.0507813,7.65039 l 1.3772865,0.795502 c 0.490616,0.283373 0.800181,0.964187 0.721988,1.525281 -0.08289,0.594779 -0.140222,1.19284 -0.171849,1.792533 -0.02984,0.565729 -0.02984,1.484984 0,2.050714 0.03163,0.599693 0.08896,1.197754 0.17185,1.792533 0.07819,0.561093 -0.231373,1.241906 -0.721989,1.525279 l -1.3772865,0.795502 c -2.6867571,1.5512 -3.6019813,4.963633 -2.0507813,7.65039 l 1.4003907,2.421876 c 1.5512001,2.686757 4.9636331,3.601981 7.6503901,2.050781 l 1.371339,-0.79175 c 0.490665,-0.283288 1.236908,-0.213239 1.685925,0.132195 1.494116,1.149442 3.136244,2.092494 4.88204,2.80369 C 24.565518,51.619585 25,52.228829 25,52.795401 v 1.60499 C 25,57.502791 27.497209,60 30.599609,60 h 2.800782 C 36.502791,60 39,57.502791 39,54.400391 v -1.614755 c 0,-0.566572 0.43431,-1.176315 0.958716,-1.390648 1.740401,-0.71133 3.377433,-1.65319 4.867121,-2.800281 0.448862,-0.345634 1.195064,-0.415996 1.685842,-0.132904 l 1.386759,0.799916 c 2.686757,1.5512 6.09919,0.635976 7.65039,-2.050781 l 1.400391,-2.421876 c 1.376864,-2.384798 0.810542,-5.341325 -1.213021,-7.060527 -0.431241,-0.366379 -1.235483,-0.819582 -1.726099,-1.102955 l -0.488948,-0.28241 c -0.490616,-0.283373 -0.800181,-0.964187 -0.721988,-1.525281 0.08289,-0.594779 0.140222,-1.19284 0.171849,-1.792533 0.02983,-0.565729 0.02983,-1.484984 0,-2.050714 -0.03163,-0.599693 -0.08896,-1.197754 -0.17185,-1.792533 -0.07819,-0.561093 0.231373,-1.241906 0.721989,-1.525279 l 1.377287,-0.795502 c 2.686757,-1.5512 3.601981,-4.963632 2.050781,-7.65039 l -1.400391,-2.421876 c -1.5512,-2.686758 -4.963634,-3.601981 -7.65039,-2.050781 l -1.371339,0.79175 c -0.490665,0.283288 -1.236835,0.213153 -1.685767,-0.13239 -1.494098,-1.15001 -3.136308,-2.093593 -4.88227,-2.805258 C 39.434453,12.378548 39,11.769218 39,11.202646 V 9.5996094 c 0,-3.1024 -2.497209,-5.5996095 -5.599609,-5.5996095 z"
       id="path2"
       inkscape:path-effect="#path-effect4"
       inkscape:original-d="M 30.599609,3.9999999 C 27.497209,3.9999999 25,6.4972094 25,9.5996094 v 2.6249996 a 21,21 0 0 0 -6.623047,3.826172 l -2.275391,-1.3125 c -2.686757,-1.5512 -6.09919,-0.635976 -7.6503901,2.050781 l -1.4003907,2.421876 c -1.5511999,2.686758 -0.6359758,6.09919 2.0507813,7.65039 l 2.2656255,1.308594 A 21,21 0 0 0 11,32 a 21,21 0 0 0 0.367188,3.830078 l -2.2656255,1.308594 c -2.6867571,1.5512 -3.6019813,4.963633 -2.0507813,7.65039 l 1.4003907,2.421876 c 1.5512001,2.686757 4.9636331,3.601981 7.6503901,2.050781 l 2.259766,-1.304688 A 21,21 0 0 0 25,51.769531 v 2.63086 C 25,57.502791 27.497209,60 30.599609,60 h 2.800782 C 36.502791,60 39,57.502791 39,54.400391 v -2.640625 a 21,21 0 0 0 6.623047,-3.810547 l 2.275391,1.3125 c 2.686757,1.5512 6.09919,0.635976 7.65039,-2.050781 l 1.400391,-2.421876 c 1.5512,-2.686757 0.635975,-6.09919 -2.050781,-7.65039 L 52.632812,35.830078 A 21,21 0 0 0 53,32 21,21 0 0 0 52.632812,28.169922 l 2.265626,-1.308594 c 2.686757,-1.5512 3.601981,-4.963632 2.050781,-7.65039 l -1.400391,-2.421876 c -1.5512,-2.686758 -4.963634,-3.601981 -7.65039,-2.050781 l -2.259766,1.304688 A 21,21 0 0 0 39,12.228516 V 9.5996094 c 0,-3.1024 -2.497209,-5.5996095 -5.599609,-5.5996095 z"
       transform="translate(31.66198,-5.0415002)" />
    <path
       style="opacity:0.650751;fill:none;stroke:#010101;stroke-width:0.2;stroke-dasharray:none;stroke-opacity:1;filter:url(#filter5)"
       d="m 30.599609,3.9999999 c -2.75371,0 -5.030624,1.9674146 -5.507659,4.5791615 C 24.990278,9.1358136 25,10.058907 25,10.625479 v 0.57326 c 0,0.566572 -0.434072,1.177002 -0.958138,1.392164 -1.741732,0.715091 -3.379426,1.661196 -4.868965,2.812829 -0.448184,0.346513 -1.193798,0.417557 -1.684576,0.134465 l -0.498127,-0.287332 c -0.490778,-0.283092 -1.285391,-0.752878 -1.81826,-0.943092 -2.183978,-0.779595 -4.629362,-0.123835 -6.1308993,1.643529 -0.3663788,0.431241 -0.8197726,1.235373 -1.1033806,1.725853 l -0.8868729,1.533783 c -1.5511999,2.686758 -0.6359758,6.09919 2.0507813,7.65039 l 1.3772865,0.795502 c 0.490616,0.283373 0.800181,0.964187 0.721988,1.525281 -0.08289,0.594779 -0.140222,1.19284 -0.171849,1.792533 -0.02984,0.565729 -0.02984,1.484984 0,2.050714 0.03163,0.599693 0.08896,1.197754 0.17185,1.792533 0.07819,0.561093 -0.231373,1.241906 -0.721989,1.525279 l -1.3772865,0.795502 c -2.6867571,1.5512 -3.6019813,4.963633 -2.0507813,7.65039 l 1.4003907,2.421876 c 1.5512001,2.686757 4.9636331,3.601981 7.6503901,2.050781 l 1.371339,-0.79175 c 0.490665,-0.283288 1.236908,-0.213239 1.685925,0.132195 1.494116,1.149442 3.136244,2.092494 4.88204,2.80369 C 24.565518,51.619585 25,52.228829 25,52.795401 v 1.60499 C 25,57.502791 27.497209,60 30.599609,60 h 2.800782 C 36.502791,60 39,57.502791 39,54.400391 v -1.614755 c 0,-0.566572 0.43431,-1.176315 0.958716,-1.390648 1.740401,-0.71133 3.377433,-1.65319 4.867121,-2.800281 0.448862,-0.345634 1.195064,-0.415996 1.685842,-0.132904 l 1.386759,0.799916 c 2.686757,1.5512 6.09919,0.635976 7.65039,-2.050781 l 1.400391,-2.421876 c 1.376864,-2.384798 0.810542,-5.341325 -1.213021,-7.060527 -0.431241,-0.366379 -1.235483,-0.819582 -1.726099,-1.102955 l -0.488948,-0.28241 c -0.490616,-0.283373 -0.800181,-0.964187 -0.721988,-1.525281 0.08289,-0.594779 0.140222,-1.19284 0.171849,-1.792533 0.02983,-0.565729 0.02983,-1.484984 0,-2.050714 -0.03163,-0.599693 -0.08896,-1.197754 -0.17185,-1.792533 -0.07819,-0.561093 0.231373,-1.241906 0.721989,-1.525279 l 1.377287,-0.795502 c 2.686757,-1.5512 3.601981,-4.963632 2.050781,-7.65039 l -1.400391,-2.421876 c -1.5512,-2.686758 -4.963634,-3.601981 -7.65039,-2.050781 l -1.371339,0.79175 c -0.490665,0.283288 -1.236835,0.213153 -1.685767,-0.13239 -1.494098,-1.15001 -3.136308,-2.093593 -4.88227,-2.805258 C 39.434453,12.378548 39,11.769218 39,11.202646 V 9.5996094 c 0,-3.1024 -2.497209,-5.5996095 -5.599609,-5.5996095 z"
       id="path2-5"
       inkscape:path-effect="#path-effect4-3"
       inkscape:original-d="M 30.599609,3.9999999 C 27.497209,3.9999999 25,6.4972094 25,9.5996094 v 2.6249996 a 21,21 0 0 0 -6.623047,3.826172 l -2.275391,-1.3125 c -2.686757,-1.5512 -6.09919,-0.635976 -7.6503901,2.050781 l -1.4003907,2.421876 c -1.5511999,2.686758 -0.6359758,6.09919 2.0507813,7.65039 l 2.2656255,1.308594 A 21,21 0 0 0 11,32 a 21,21 0 0 0 0.367188,3.830078 l -2.2656255,1.308594 c -2.6867571,1.5512 -3.6019813,4.963633 -2.0507813,7.65039 l 1.4003907,2.421876 c 1.5512001,2.686757 4.9636331,3.601981 7.6503901,2.050781 l 2.259766,-1.304688 A 21,21 0 0 0 25,51.769531 v 2.63086 C 25,57.502791 27.497209,60 30.599609,60 h 2.800782 C 36.502791,60 39,57.502791 39,54.400391 v -2.640625 a 21,21 0 0 0 6.623047,-3.810547 l 2.275391,1.3125 c 2.686757,1.5512 6.09919,0.635976 7.65039,-2.050781 l 1.400391,-2.421876 c 1.5512,-2.686757 0.635975,-6.09919 -2.050781,-7.65039 L 52.632812,35.830078 A 21,21 0 0 0 53,32 21,21 0 0 0 52.632812,28.169922 l 2.265626,-1.308594 c 2.686757,-1.5512 3.601981,-4.963632 2.050781,-7.65039 l -1.400391,-2.421876 c -1.5512,-2.686758 -4.963634,-3.601981 -7.65039,-2.050781 l -2.259766,1.304688 A 21,21 0 0 0 39,12.228516 V 9.5996094 c 0,-3.1024 -2.497209,-5.5996095 -5.599609,-5.5996095 z"
       transform="translate(31.66198,-5.0415002)" />
    <circle
       style="opacity:0.287828;fill:#000000;stroke:none;stroke-width:7.681;stroke-linecap:round;stroke-linejoin:round;paint-order:stroke fill markers"
       id="path4"
       cx="63.407261"
       cy="27.116627"
       r="15.320646" />
    <circle
       style="opacity:0.321549;fill:none;stroke:#000000;stroke-width:2.681;stroke-linecap:round;stroke-linejoin:round;stroke-dasharray:none;stroke-opacity:1;paint-order:stroke fill markers;filter:url(#filter4)"
       id="path4-3"
       cx="63.66198"
       cy="26.9585"
       r="15.320646" />
  </g>
  <g
     id="g1"
     transform="matrix(0.3892738,0,0,0.3892738,39.001892,38.929104)">
    <path
       id="rect1"
       d="M 17.994114,4.0114961 H 46.005886 A 13.994114,13.994114 45 0 1 60,18.00561 V 46.017382 A 13.994114,13.994114 135 0 1 46.005886,60.011496 H 17.994114 A 13.994114,13.994114 45 0 1 4,46.017382 V 18.00561 A 13.994114,13.994114 135 0 1 17.994114,4.0114961 Z"
       style="fill:url(#radialGradient9);fill-opacity:1"
       inkscape:path-effect="#path-effect13"
       inkscape:original-d="M 4,4.0114961 H 60 V 60.011496 H 4 Z"
       transform="matrix(0.94077205,0,0,0.94077205,1.8952948,1.8952947)" />
    <path
       id="rect1-3"
       style="fill:url(#radialGradient12);stroke-width:0.329007"
       d="m 12.509766,17.482193 0,7.918427 a 5.2536766,5.2536766 45 0 0 5.253677,5.253677 h 7.916474 a 5.2536766,5.2536766 135 0 0 5.253677,-5.253677 v -7.918427 a 5.2536766,5.2536766 45 0 0 -5.253677,-5.253677 h -7.916474 a 5.2536766,5.2536766 135 0 0 -5.253677,5.253677 z m 20.652343,0.04687 v 7.918432 a 5.2536766,5.2536766 45 0 0 5.253677,5.253677 h 7.918428 a 5.2536766,5.2536766 135 0 0 5.253677,-5.253677 V 17.529068 A 5.253678,5.253678 45.000008 0 0 46.334214,12.27539 l -7.918428,-3e-6 a 5.2536752,5.2536752 135.00001 0 0 -5.253677,5.253676 z M 12.337891,38.47438 v 7.916474 a 5.2536766,5.2536766 45 0 0 5.253677,5.253677 h 7.916474 a 5.2536766,5.2536766 135 0 0 5.253677,-5.253677 V 38.47438 a 5.2536766,5.2536766 45 0 0 -5.253677,-5.253677 h -7.916474 a 5.2536766,5.2536766 135 0 0 -5.253677,5.253677 z m 20.824218,0.06445 v 7.916477 a 5.2536766,5.2536766 45 0 0 5.253677,5.253677 h 7.918428 a 5.2536766,5.2536766 135 0 0 5.253677,-5.253677 v -7.916474 a 5.2536775,5.2536775 45.000005 0 0 -5.253677,-5.253678 l -7.918428,-1e-6 a 5.2536757,5.2536757 135 0 0 -5.253677,5.253676 z"
       inkscape:path-effect="#path-effect11"
       inkscape:original-d="M 12.509766,12.228516 V 30.654297 H 30.933594 V 12.228516 Z m 20.652343,0.04687 V 30.701172 H 51.587891 V 12.275391 Z M 12.337891,33.220703 V 51.644531 H 30.761719 V 33.220703 Z m 20.824218,0.06445 V 51.708984 H 51.587891 V 33.285156 Z"
       transform="matrix(0.94077205,0,0,0.94077205,1.8952948,1.9061101)" />
    <path
       id="rect1-1"
       d="M 17.994114,4.0114961 H 46.005886 A 13.994114,13.994114 45 0 1 60,18.00561 V 46.017382 A 13.994114,13.994114 135 0 1 46.005886,60.011496 H 17.994114 A 13.994114,13.994114 45 0 1 4,46.017382 V 18.00561 A 13.994114,13.994114 135 0 1 17.994114,4.0114961 Z"
       style="mix-blend-mode:normal;fill:none;fill-opacity:1;stroke:#000000;stroke-width:0.5;stroke-dasharray:none;stroke-opacity:1;filter:url(#filter14)"
       inkscape:path-effect="#path-effect13-9"
       inkscape:original-d="M 4,4.0114961 H 60 V 60.011496 H 4 Z"
       transform="matrix(0.94077205,0,0,0.94077205,1.8952948,1.8844796)" />
    <path
       id="rect1-3-2"
       style="mix-blend-mode:normal;fill:none;stroke:#0005ff;stroke-width:0.27306152;stroke-dasharray:none;stroke-opacity:1;filter:url(#filter9)"
       d="m 12.509766,17.482193 0,7.918427 a 5.2536766,5.2536766 45 0 0 5.253677,5.253677 h 7.916474 a 5.2536766,5.2536766 135 0 0 5.253677,-5.253677 v -7.918427 a 5.2536766,5.2536766 45 0 0 -5.253677,-5.253677 h -7.916474 a 5.2536766,5.2536766 135 0 0 -5.253677,5.253677 z m 20.652343,0.04687 v 7.918432 a 5.2536766,5.2536766 45 0 0 5.253677,5.253677 h 7.918428 a 5.2536766,5.2536766 135 0 0 5.253677,-5.253677 V 17.529068 A 5.253678,5.253678 45.000008 0 0 46.334214,12.27539 l -7.918428,-3e-6 a 5.2536752,5.2536752 135.00001 0 0 -5.253677,5.253676 z M 12.337891,38.47438 v 7.916474 a 5.2536766,5.2536766 45 0 0 5.253677,5.253677 h 7.916474 a 5.2536766,5.2536766 135 0 0 5.253677,-5.253677 V 38.47438 a 5.2536766,5.2536766 45 0 0 -5.253677,-5.253677 h -7.916474 a 5.2536766,5.2536766 135 0 0 -5.253677,5.253677 z m 20.824218,0.06445 v 7.916477 a 5.2536766,5.2536766 45 0 0 5.253677,5.253677 h 7.918428 a 5.2536766,5.2536766 135 0 0 5.253677,-5.253677 v -7.916474 a 5.2536775,5.2536775 45.000005 0 0 -5.253677,-5.253678 l -7.918428,-1e-6 a 5.2536757,5.2536757 135 0 0 -5.253677,5.253676 z"
       inkscape:path-effect="#path-effect11-2"
       inkscape:original-d="M 12.509766,12.228516 V 30.654297 H 30.933594 V 12.228516 Z m 20.652343,0.04687 V 30.701172 H 51.587891 V 12.275391 Z M 12.337891,33.220703 V 51.644531 H 30.761719 V 33.220703 Z m 20.824218,0.06445 V 51.708984 H 51.587891 V 33.285156 Z"
       transform="matrix(0.94077205,0,0,0.94077205,1.9302059,1.9246939)" />
  </g>
</svg>
