<?xml version="1.0" encoding="UTF-8" standalone="no"?>
<svg
   width="64"
   height="64"
   version="1"
   id="svg3"
   sodipodi:docname="org.gnome.Extensions.svg"
   inkscape:version="1.4.2 (ebf0e940d0, 2025-05-08)"
   inkscape:export-filename="org.gnome.Extensions.png"
   inkscape:export-xdpi="108"
   inkscape:export-ydpi="108"
   xmlns:inkscape="http://www.inkscape.org/namespaces/inkscape"
   xmlns:sodipodi="http://sodipodi.sourceforge.net/DTD/sodipodi-0.dtd"
   xmlns:xlink="http://www.w3.org/1999/xlink"
   xmlns="http://www.w3.org/2000/svg"
   xmlns:svg="http://www.w3.org/2000/svg">
  <defs
     id="defs3">
    <linearGradient
       id="SVGID_1_"
       gradientUnits="userSpaceOnUse"
       x1="-0.4874"
       y1="62.567902"
       x2="70.614098"
       y2="-5.4541998"
       gradientTransform="matrix(0.89830777,0,0,0.89830777,3.2870353,3.2811968)">
      <stop
         offset="0"
         style="stop-color:#00e1ff;stop-opacity:1;"
         id="stop1" />
      <stop
         offset="1"
         style="stop-color:#3f99ff;stop-opacity:1;"
         id="stop3" />
    </linearGradient>
    <radialGradient
       inkscape:collect="always"
       xlink:href="#SVGID_1_-3-2"
       id="radialGradient4"
       cx="55.161572"
       cy="-10.205897"
       fx="55.161572"
       fy="-10.205897"
       r="26.945292"
       gradientTransform="matrix(1.7527958,-1.7527958,1.7452539,1.7452539,-46.785957,193.62634)"
       gradientUnits="userSpaceOnUse" />
    <radialGradient
       id="SVGID_1_-3-2"
       cx="-159.43106"
       cy="15.462561"
       r="64.706802"
       gradientTransform="matrix(-0.89413329,0,0,0.96304834,-13.556236,37.151586)"
       gradientUnits="userSpaceOnUse"
       fx="-159.43106"
       fy="15.462561">
	<stop
   offset="0"
   style="stop-color:#006fff;stop-opacity:1;"
   id="stop1-6-9" />

	<stop
   offset="1"
   style="stop-color:#15baff;stop-opacity:1;"
   id="stop2-7-1" />

</radialGradient>
    <radialGradient
       id="SVGID_1_-3-2-1"
       cx="-159.43106"
       cy="15.462561"
       r="64.706802"
       gradientTransform="matrix(-0.89413329,0,0,0.96304834,-13.556236,37.151586)"
       gradientUnits="userSpaceOnUse"
       fx="-159.43106"
       fy="15.462561">
	<stop
   offset="0"
   style="stop-color:#006fff;stop-opacity:1;"
   id="stop1-6-9-5" />

	<stop
   offset="1"
   style="stop-color:#15baff;stop-opacity:1;"
   id="stop2-7-1-9" />

</radialGradient>
    <filter
       inkscape:collect="always"
       style="color-interpolation-filters:sRGB"
       id="filter1"
       x="-0.070186091"
       y="-0.070273667"
       width="1.1403737"
       height="1.1405741">
      <feGaussianBlur
         inkscape:collect="always"
         stdDeviation="1.5849517"
         id="feGaussianBlur1" />
    </filter>
  </defs>
  <sodipodi:namedview
     id="namedview3"
     pagecolor="#272727"
     bordercolor="#000000"
     borderopacity="0.25"
     inkscape:showpageshadow="2"
     inkscape:pageopacity="0.0"
     inkscape:pagecheckerboard="0"
     inkscape:deskcolor="#d1d1d1"
     inkscape:zoom="7.5442534"
     inkscape:cx="28.299686"
     inkscape:cy="47.320786"
     inkscape:window-width="3440"
     inkscape:window-height="1361"
     inkscape:window-x="0"
     inkscape:window-y="0"
     inkscape:window-maximized="1"
     inkscape:current-layer="svg3" />
  <path
     class="st1"
     d="m 28.706247,9.8192288 c -1.057136,1.3214182 -1.916058,2.7089082 -3.171405,3.8321152 -0.594639,0.594639 -1.32142,1.057135 -2.114271,1.321419 -0.396426,0.132141 -0.792852,0.132142 -1.255349,0.06607 -0.462496,-0.06607 -0.858921,-0.198213 -1.123205,-0.462497 -0.528569,-0.396422 -0.792853,-1.057134 -1.057136,-1.717843 -0.264285,-0.66071 -0.462496,-1.255349 -0.858922,-1.783916 -0.396424,-0.52857 -0.924993,-0.924994 -1.651775,-1.1232064 -0.594638,-0.198213 -1.321418,-0.264284 -1.916057,-0.066072 -1.32142,0.2642854 -3.039265,1.8499874 -3.898187,2.8410524 -0.66071,0.792852 -1.057135,1.717844 -1.123207,2.70891 0,0.528567 0.06607,0.991063 0.198214,1.51963 0.198212,0.462497 0.462496,0.858922 0.924993,1.189278 0.528569,0.396424 1.255348,0.594639 1.916058,0.858923 0.330354,0.06607 0.66071,0.264284 0.924993,0.396427 0.330356,0.19821 0.528569,0.396423 0.72678,0.726779 0.198212,0.330357 0.330355,0.726781 0.264284,1.057136 0,0.396426 -0.06607,0.726781 -0.198212,1.123205 -0.264284,0.660712 -0.792852,1.32142 -1.32142,1.849988 -2.77498,3.039263 -5.8803172,5.74817 -9.1838642,8.126728 -0.5285688,0.396424 -0.7267809,1.123207 -0.4624955,1.783915 1.2553471,2.576768 2.6428381,4.889251 4.294612,7.201734 0.5946388,0.858925 1.2553477,1.783916 2.1803397,2.312486 0.462499,0.330354 0.991065,0.462495 1.519633,0.462497 0.528569,0 1.057134,-0.132143 1.519632,-0.462497 0.330356,-0.198211 0.396426,-0.396425 0.594637,-0.726782 0.198211,-0.330356 0.330355,-0.726779 0.462496,-1.123207 0.198214,-0.726781 0.264284,-1.717844 0.726781,-2.444625 0.396423,-0.52857 0.991064,-0.991065 1.651774,-1.255349 0.66071,-0.264283 1.453561,-0.264283 2.114271,-0.132141 1.45356,0.264285 2.70891,1.255347 3.832116,2.246412 0.924994,0.924993 1.916057,2.180341 2.246412,3.435689 0.132142,0.660711 0.132142,1.32142 0,1.98213 -0.132142,0.660709 -0.528567,1.189277 -0.991064,1.651774 -0.396427,0.264282 -0.858923,0.462496 -1.321419,0.660709 -0.462497,0.198212 -0.858923,0.198213 -1.38749,0.330355 -0.462498,0.198212 -1.189279,0.132142 -1.519633,0.462496 -0.396428,0.264283 -0.528567,0.528568 -0.660709,1.057136 -0.06607,0.330355 -0.06607,0.726781 0,1.057135 0.06607,0.330355 0.264284,0.66071 0.330355,0.991065 0.991064,2.0482 2.70891,3.898187 4.558896,5.219606 1.717845,1.189277 3.567832,1.98213 5.616031,2.312484 0.462497,0.06607 0.924993,-0.132141 1.32142,-0.528567 l 4.757108,-6.342813 c 0.924995,-1.189278 1.651775,-2.312484 2.708911,-3.369619 0.528567,-0.528569 1.321418,-0.924993 1.982128,-1.189278 0.396426,-0.132141 0.72678,-0.198212 1.189277,-0.132142 0.396426,10e-7 0.792852,0.132141 1.123207,0.330356 0.330355,0.19821 0.59464,0.462495 0.79285,0.792851 0.198212,0.330356 0.396427,0.660708 0.528569,0.924993 0.264284,0.660709 0.594638,1.387491 0.991065,1.916057 0.396424,0.52857 0.991064,0.991065 1.585703,1.189278 0.660709,0.264284 1.321419,0.264283 2.0482,0.198213 1.387489,-0.198213 3.039264,-1.45356 3.832115,-2.510697 0.726779,-0.858923 1.123207,-1.916058 1.189277,-3.039263 0,-0.528568 -0.06607,-1.123207 -0.330353,-1.651774 -0.198215,-0.462497 -0.59464,-0.991065 -0.924995,-1.32142 -0.59464,-0.462495 -1.255348,-0.72678 -1.982129,-1.057136 -0.330356,-0.198211 -0.660709,-0.264283 -0.924993,-0.528567 -0.330357,-0.19821 -0.594641,-0.462494 -0.792851,-0.79285 -0.330354,-0.462499 -0.396427,-1.057137 -0.396426,-1.585704 0,-0.528568 0.264283,-1.057135 0.594637,-1.519633 0.13214,-0.264286 0.330353,-0.462498 0.59464,-0.594639 3.303548,-2.378553 6.342812,-4.624966 9.382076,-7.399947 0.462497,-0.462497 0.594639,-1.123207 0.330355,-1.651774 -1.519628,-2.708908 -3.435685,-5.549959 -5.351743,-7.994585 -0.66071,-0.792853 -1.38749,-1.651775 -2.312483,-2.180342 -0.462497,-0.198213 -0.991064,-0.330355 -1.519632,-0.330355 -0.528569,-1e-6 -1.057136,0.264284 -1.38749,0.594638 -0.264285,0.264285 -0.396427,0.660709 -0.462498,0.991065 -0.132142,0.396426 -0.132142,0.792852 -0.198212,1.123205 -0.06607,0.726782 0.06607,0.991066 -0.264285,1.717847 -0.330355,0.726779 -0.924993,1.321419 -1.651773,1.651773 -0.726781,0.330355 -1.519632,0.462497 -2.378556,0.396427 -0.79285,-0.132143 -1.585702,-0.396427 -2.312483,-0.858923 -0.66071,-0.396426 -1.38749,-1.123207 -1.982128,-1.717845 -0.858921,-0.991066 -1.651776,-2.180342 -1.849987,-3.567832 -0.132142,-0.66071 -1e-6,-1.321419 0.198212,-1.916058 0.198214,-0.594639 0.594639,-1.123206 1.123207,-1.519632 0.660711,-0.528565 1.519632,-0.198213 2.312483,-0.462497 0.396427,-0.132142 0.858923,-0.198213 1.32142,-0.396426 0.396428,-0.264282 0.72678,-0.462497 0.991066,-0.85892 0.264282,-0.396428 0.330352,-0.858925 0.396423,-1.321422 -0.06607,-0.462497 -0.132142,-0.924993 -0.330355,-1.387489 C 43.638285,10.61208 42.250796,9.2245898 42.250796,9.2245898 39.211531,6.4496096 34.982989,4.071055 34.982989,4.071055 34.388351,3.6085579 33.595499,3.7407002 33.066932,4.2692678 Z"
     id="path3"
     style="fill:url(#radialGradient4);stroke-width:0.934384" />
  <path
     class="st1"
     d="m 28.706247,9.819228 c -1.057136,1.321418 -1.916058,2.708908 -3.171405,3.832115 -0.594639,0.594639 -1.32142,1.057135 -2.114271,1.321419 -0.396426,0.132141 -0.792852,0.132142 -1.255349,0.06607 -0.462496,-0.06607 -0.858921,-0.198213 -1.123205,-0.462497 -0.528569,-0.396422 -0.792853,-1.057134 -1.057136,-1.717843 -0.264285,-0.66071 -0.462496,-1.255349 -0.858922,-1.783916 C 18.729535,10.546006 18.200966,10.149582 17.474184,9.95137 16.879546,9.753157 16.152766,9.687086 15.558127,9.8853 c -1.32142,0.264285 -3.039265,1.849987 -3.898187,2.841052 -0.66071,0.792852 -1.057135,1.717844 -1.123207,2.70891 0,0.528567 0.06607,0.991063 0.198214,1.51963 0.198212,0.462497 0.462496,0.858922 0.924993,1.189278 0.528569,0.396424 1.255348,0.594639 1.916058,0.858923 0.330354,0.06607 0.66071,0.264284 0.924993,0.396427 0.330356,0.19821 0.528569,0.396423 0.72678,0.726779 0.198212,0.330357 0.330355,0.726781 0.264284,1.057136 0,0.396426 -0.06607,0.726781 -0.198212,1.123205 -0.264284,0.660712 -0.792852,1.32142 -1.32142,1.849988 -2.77498,3.039263 -5.880317,5.74817 -9.183864,8.126728 -0.528569,0.396424 -0.726781,1.123207 -0.462496,1.783915 1.255348,2.576768 2.642839,4.889251 4.294612,7.201734 0.594639,0.858925 1.255348,1.783916 2.18034,2.312486 0.462499,0.330354 0.991065,0.462495 1.519633,0.462497 0.528569,0 1.057134,-0.132143 1.519632,-0.462497 0.330356,-0.198211 0.396426,-0.396425 0.594637,-0.726782 0.198211,-0.330356 0.330355,-0.726779 0.462496,-1.123207 0.198214,-0.726781 0.264284,-1.717844 0.726781,-2.444625 0.396423,-0.52857 0.991064,-0.991065 1.651774,-1.255349 0.66071,-0.264283 1.453561,-0.264283 2.114271,-0.132141 1.45356,0.264285 2.70891,1.255347 3.832116,2.246412 0.924994,0.924993 1.916057,2.180341 2.246412,3.435689 0.132142,0.660711 0.132142,1.32142 0,1.98213 -0.132142,0.660709 -0.528567,1.189277 -0.991064,1.651774 -0.396427,0.264282 -0.858923,0.462496 -1.321419,0.660709 -0.462497,0.198212 -0.858923,0.198213 -1.38749,0.330355 -0.462498,0.198212 -1.189279,0.132142 -1.519633,0.462496 -0.396428,0.264283 -0.528567,0.528568 -0.660709,1.057136 -0.06607,0.330355 -0.06607,0.726781 0,1.057135 0.06607,0.330355 0.264284,0.66071 0.330355,0.991065 0.991064,2.0482 2.70891,3.898187 4.558896,5.219606 1.717845,1.189277 3.567832,1.98213 5.616031,2.312484 0.462497,0.06607 0.924993,-0.132141 1.32142,-0.528567 l 4.757108,-6.342813 c 0.924995,-1.189278 1.651775,-2.312484 2.708911,-3.369619 0.528567,-0.528569 1.321418,-0.924993 1.982128,-1.189278 0.396426,-0.132141 0.72678,-0.198212 1.189277,-0.132142 0.396426,1e-6 0.792852,0.132141 1.123207,0.330356 0.330355,0.19821 0.59464,0.462495 0.79285,0.792851 0.198212,0.330356 0.396427,0.660708 0.528569,0.924993 0.264284,0.660709 0.594638,1.387491 0.991065,1.916057 0.396424,0.52857 0.991064,0.991065 1.585703,1.189278 0.660709,0.264284 1.321419,0.264283 2.0482,0.198213 1.387489,-0.198213 3.039264,-1.45356 3.832115,-2.510697 0.726779,-0.858923 1.123207,-1.916058 1.189277,-3.039263 0,-0.528568 -0.06607,-1.123207 -0.330353,-1.651774 -0.198215,-0.462497 -0.59464,-0.991065 -0.924995,-1.32142 -0.59464,-0.462495 -1.255348,-0.72678 -1.982129,-1.057136 -0.330356,-0.198211 -0.660709,-0.264283 -0.924993,-0.528567 -0.330357,-0.19821 -0.594641,-0.462494 -0.792851,-0.79285 -0.330354,-0.462499 -0.396427,-1.057137 -0.396426,-1.585704 0,-0.528568 0.264283,-1.057135 0.594637,-1.519633 0.13214,-0.264286 0.330353,-0.462498 0.59464,-0.594639 3.303548,-2.378553 6.342812,-4.624966 9.382076,-7.399947 0.462497,-0.462497 0.594639,-1.123207 0.330355,-1.651774 -1.519628,-2.708908 -3.435685,-5.549959 -5.351743,-7.994585 -0.66071,-0.792853 -1.38749,-1.651775 -2.312483,-2.180342 -0.462497,-0.198213 -0.991064,-0.330355 -1.519632,-0.330355 -0.528569,-1e-6 -1.057136,0.264284 -1.38749,0.594638 -0.264285,0.264285 -0.396427,0.660709 -0.462498,0.991065 -0.132142,0.396426 -0.132142,0.792852 -0.198212,1.123205 -0.06607,0.726782 0.06607,0.991066 -0.264285,1.717847 -0.330355,0.726779 -0.924993,1.321419 -1.651773,1.651773 -0.726781,0.330355 -1.519632,0.462497 -2.378556,0.396427 -0.79285,-0.132143 -1.585702,-0.396427 -2.312483,-0.858923 -0.66071,-0.396426 -1.38749,-1.123207 -1.982128,-1.717845 -0.858921,-0.991066 -1.651776,-2.180342 -1.849987,-3.567832 -0.132142,-0.66071 -1e-6,-1.321419 0.198212,-1.916058 0.198214,-0.594639 0.594639,-1.123206 1.123207,-1.519632 0.660711,-0.528565 1.519632,-0.198213 2.312483,-0.462497 0.396427,-0.132142 0.858923,-0.198213 1.32142,-0.396426 0.396428,-0.264282 0.72678,-0.462497 0.991066,-0.85892 0.264282,-0.396428 0.330352,-0.858925 0.396423,-1.321422 -0.06607,-0.462497 -0.132142,-0.924993 -0.330355,-1.387489 C 43.638285,10.612079 42.250796,9.224589 42.250796,9.224589 39.211531,6.449609 34.982989,4.071054 34.982989,4.071054 34.388351,3.608557 33.595499,3.740699 33.066932,4.269267 Z"
     id="path3-7"
     style="fill:none;stroke-width:0.2;stroke:#000000;stroke-opacity:1;stroke-dasharray:none;filter:url(#filter1)" />
</svg>
