<?xml version="1.0" encoding="UTF-8" standalone="no"?>
<svg
   width="64"
   height="64"
   version="1"
   id="svg5"
   sodipodi:docname="preferences-activities.svg"
   inkscape:version="1.4.2 (ebf0e940d0, 2025-05-08)"
   xmlns:inkscape="http://www.inkscape.org/namespaces/inkscape"
   xmlns:sodipodi="http://sodipodi.sourceforge.net/DTD/sodipodi-0.dtd"
   xmlns:xlink="http://www.w3.org/1999/xlink"
   xmlns="http://www.w3.org/2000/svg"
   xmlns:svg="http://www.w3.org/2000/svg">
  <defs
     id="defs5">
    <radialGradient
       id="radialGradient6"
       cx="-159.43106"
       cy="15.462561"
       r="64.706802"
       gradientTransform="matrix(-0.89413329,0,0,0.96304834,-140.85439,38.047622)"
       gradientUnits="userSpaceOnUse"
       fx="-159.43106"
       fy="15.462561">
      <stop
         offset="0"
         style="stop-color:#656565;stop-opacity:1;"
         id="stop5" />
      <stop
         offset="1"
         style="stop-color:#424242;stop-opacity:1;"
         id="stop6" />
    </radialGradient>
    <radialGradient
       id="radialGradient2"
       cx="-159.43106"
       cy="15.462561"
       r="64.706802"
       gradientTransform="matrix(-0.89413329,0,0,0.96304834,-140.85439,38.047622)"
       gradientUnits="userSpaceOnUse"
       fx="-159.43106"
       fy="15.462561">
      <stop
         offset="0"
         style="stop-color:#646464;stop-opacity:1;"
         id="stop1" />
      <stop
         offset="1"
         style="stop-color:#848484;stop-opacity:1;"
         id="stop2" />
    </radialGradient>
    <radialGradient
       id="SVGID_1_-3-2"
       cx="-159.43106"
       cy="15.462561"
       r="64.706802"
       gradientTransform="matrix(-0.89413329,0,0,0.96304834,-140.85439,38.047622)"
       gradientUnits="userSpaceOnUse"
       fx="-159.43106"
       fy="15.462561">
      <stop
         offset="0"
         style="stop-color:#006fff;stop-opacity:1;"
         id="stop1-6-9" />
      <stop
         offset="1"
         style="stop-color:#15baff;stop-opacity:1;"
         id="stop2-7-1" />
    </radialGradient>
    <radialGradient
       inkscape:collect="always"
       xlink:href="#radialGradient2"
       id="radialGradient4"
       cx="7.449986"
       cy="80.080933"
       fx="7.449986"
       fy="80.080933"
       r="25.648539"
       gradientTransform="matrix(0,-2.588585,2.5971628,0,-142.69391,84.58441)"
       gradientUnits="userSpaceOnUse" />
    <radialGradient
       inkscape:collect="always"
       xlink:href="#radialGradient6"
       id="radialGradient5"
       cx="-9.0670118"
       cy="42.035221"
       fx="-9.0670118"
       fy="42.035221"
       r="26.990362"
       gradientTransform="matrix(2.2612436,0,0,2.4538299,19.296448,-38.053322)"
       gradientUnits="userSpaceOnUse" />
    <radialGradient
       id="radialGradient6-3"
       cx="-159.43106"
       cy="15.462561"
       r="64.706802"
       gradientTransform="matrix(-0.89413329,0,0,0.96304834,-140.85439,38.047622)"
       gradientUnits="userSpaceOnUse"
       fx="-159.43106"
       fy="15.462561">
      <stop
         offset="0"
         style="stop-color:#129ed1;stop-opacity:1;"
         id="stop5-7" />
      <stop
         offset="1"
         style="stop-color:#2274e5;stop-opacity:1;"
         id="stop6-5" />
    </radialGradient>
    <filter
       inkscape:collect="always"
       style="color-interpolation-filters:sRGB"
       id="filter6"
       x="-0.026222495"
       y="-0.02416742"
       width="1.052445"
       height="1.0483348">
      <feGaussianBlur
         inkscape:collect="always"
         stdDeviation="0.53127932"
         id="feGaussianBlur6" />
    </filter>
    <radialGradient
       inkscape:collect="always"
       xlink:href="#radialGradient6"
       id="radialGradient7"
       cx="46.100525"
       cy="18.018635"
       fx="46.100525"
       fy="18.018635"
       r="8.1699219"
       gradientUnits="userSpaceOnUse"
       gradientTransform="matrix(-8.6916992,0,0,-8.6916992,468.28181,153.32339)" />
    <radialGradient
       id="radialGradient6-2"
       cx="-159.43106"
       cy="15.462561"
       r="64.706802"
       gradientTransform="matrix(-0.89413329,0,0,0.96304834,-140.85439,38.047622)"
       gradientUnits="userSpaceOnUse"
       fx="-159.43106"
       fy="15.462561">
      <stop
         offset="0"
         style="stop-color:#656565;stop-opacity:1;"
         id="stop5-9" />
      <stop
         offset="1"
         style="stop-color:#424242;stop-opacity:1;"
         id="stop6-3" />
    </radialGradient>
    <filter
       inkscape:collect="always"
       style="color-interpolation-filters:sRGB"
       id="filter7"
       x="-0.083678448"
       y="-0.083678448"
       width="1.1673569"
       height="1.1673569">
      <feGaussianBlur
         inkscape:collect="always"
         stdDeviation="0.54887202"
         id="feGaussianBlur7" />
    </filter>
  </defs>
  <sodipodi:namedview
     id="namedview5"
     pagecolor="#ffffff"
     bordercolor="#000000"
     borderopacity="0.25"
     inkscape:showpageshadow="2"
     inkscape:pageopacity="0.0"
     inkscape:pagecheckerboard="0"
     inkscape:deskcolor="#d1d1d1"
     inkscape:zoom="11.100348"
     inkscape:cx="16.666144"
     inkscape:cy="35.854731"
     inkscape:window-width="1920"
     inkscape:window-height="1020"
     inkscape:window-x="0"
     inkscape:window-y="0"
     inkscape:window-maximized="1"
     inkscape:current-layer="svg5" />
  <g
     id="g7">
    <path
       id="path2"
       style="baseline-shift:baseline;display:inline;overflow:visible;vector-effect:none;fill:url(#radialGradient4);stroke-width:1.04162;enable-background:accumulate;stop-color:#000000"
       d="m 30.637198,2.8986353 c -3.224523,0 -5.820707,2.5940109 -5.820707,5.8185341 V 11.44712 a 21.826643,21.826643 0 0 0 -6.883563,3.975383 L 15.568129,14.059701 C 12.775612,12.447438 9.2296251,13.39724 7.6173646,16.189759 l -1.456264,2.516945 c -1.6122613,2.792518 -0.6602891,6.340675 2.1322313,7.952938 l 2.3539301,1.358455 A 21.826643,21.826643 0 0 0 10.266895,32 a 21.826643,21.826643 0 0 0 0.380367,3.981903 l -2.3539301,1.358455 c -2.7925193,1.612261 -3.7444926,5.160419 -2.1322313,7.952938 l 1.456264,2.516946 c 1.6122605,2.792519 5.1582474,3.74232 7.9507644,2.130057 l 2.349584,-1.354108 a 21.826643,21.826643 0 0 0 6.898778,3.962342 v 2.734298 c 0,3.224521 2.596184,5.818534 5.820707,5.818534 h 2.910354 c 3.224522,0 5.820708,-2.594013 5.820708,-5.818534 v -2.745166 a 21.826643,21.826643 0 0 0 6.883563,-3.960168 l 2.364798,1.362802 c 2.792519,1.612263 6.338504,0.662462 7.950765,-2.130057 l 1.456264,-2.516946 c 1.612261,-2.792519 0.660286,-6.340677 -2.132232,-7.952938 l -2.35393,-1.358455 A 21.826643,21.826643 0 0 0 53.920029,32 21.826643,21.826643 0 0 0 53.537488,28.018097 l 2.35393,-1.358455 c 2.792519,-1.612263 3.744493,-5.16042 2.132232,-7.952938 l -1.456264,-2.516945 c -1.612261,-2.79252 -5.158247,-3.742321 -7.950765,-2.130058 l -2.34741,1.354108 A 21.826643,21.826643 0 0 0 39.36826,11.449294 V 8.7171694 c 0,-3.2245232 -2.596186,-5.8185341 -5.820708,-5.8185341 z m 1.375843,20.0377537 c 5.00666,0 9.063611,4.056952 9.063611,9.063611 0,5.006659 -4.056951,9.065784 -9.063611,9.065784 -5.006658,0 -9.065785,-4.059125 -9.065785,-9.065784 0,-5.006659 4.059127,-9.063611 9.065785,-9.063611 z" />
    <path
       style="baseline-shift:baseline;display:inline;overflow:visible;vector-effect:none;fill:url(#radialGradient5);stroke-width:1.04162;enable-background:accumulate;stop-color:#000000"
       d="m 30.636812,1.4920622 c -3.979106,0 -7.226207,3.2471013 -7.226207,7.2262067 v 1.8329991 c -1.992628,0.807995 -3.852399,1.883747 -5.547823,3.206223 l -1.590905,-0.917517 v 0.0021 C 12.825448,10.852241 8.3885259,12.040647 6.3989089,15.486766 l -1.4545997,2.516559 v 0.0021 c -1.9897965,3.446429 -0.8013938,7.881314 2.6447268,9.870934 l 1.5786982,0.911414 c -0.152973,1.064536 -0.3030637,2.129828 -0.3071946,3.206174 v 0.0061 0.0061 c 0.00412,1.076346 0.1542216,2.141637 0.3071946,3.206223 L 7.589036,36.123839 c -3.4461199,1.989576 -4.6345233,6.424462 -2.6447268,9.870892 v 0.0021 l 1.4545997,2.51656 c 1.989617,3.446119 6.4265391,4.634525 9.8729681,2.644725 l 1.576663,-0.909379 c 1.700119,1.319846 3.565444,2.390378 5.562065,3.194016 v 1.839102 c 0,3.979105 3.247101,7.226207 7.226207,7.226207 h 2.911234 c 3.979105,0 7.226207,-3.247102 7.226207,-7.226207 v -1.849273 c 1.991751,-0.804135 3.851789,-1.87394 5.547823,-3.191982 l 1.592938,0.919551 c 3.446101,1.987924 7.881765,0.798586 9.870934,-2.64676 l 1.454599,-2.51656 0.0021,-0.0021 c 1.989796,-3.44643 0.799358,-7.881316 -2.646761,-9.870934 l -1.576664,-0.911415 c 0.15296,-1.064536 0.303065,-2.129925 0.307196,-3.206222 v -0.0061 -0.0061 c -0.0041,-1.076297 -0.154236,-2.141685 -0.307196,-3.206222 l 1.576664,-0.911414 c 3.446119,-1.98962 4.636557,-6.424504 2.646761,-9.870934 l -0.0021,-0.0021 -1.454599,-2.516468 C 55.79633,12.04067 51.359408,10.852265 47.912979,12.842065 l -1.574628,0.909379 C 44.637886,12.43044 42.771603,11.359697 40.774253,10.555337 V 8.7182689 c 0,-3.9791054 -3.247103,-7.2262067 -7.226207,-7.2262067 z m 0,2.8115479 h 2.911234 c 2.469938,0 4.414659,1.9447192 4.414659,4.4146588 V 12.4453 l 0.937861,0.331607 c 2.360948,0.830367 4.550848,2.087178 6.4572,3.708722 l 0.754766,0.642871 3.208257,-1.851308 c 2.138605,-1.234727 4.795073,-0.523599 6.029976,1.615318 v 0.0021 l 1.456635,2.516559 h -0.0021 c 1.234725,2.138608 0.523599,4.79507 -1.615319,6.029977 l -3.220463,1.859446 0.187165,0.980582 c 0.23241,1.225877 0.350909,2.471113 0.35607,3.718844 -0.0052,1.247732 -0.12366,2.492968 -0.356022,3.718893 l -0.187164,0.980584 3.220463,1.859446 c 2.138917,1.234905 2.850044,3.891369 1.615319,6.029976 h 0.0021 l -1.456635,2.516559 v 0.0021 c -1.234903,2.138918 -3.89137,2.850045 -6.029976,1.615317 h -0.0021 L 46.09624,46.863447 45.341475,47.50632 c -1.902107,1.618587 -4.085626,2.873755 -6.440926,3.704652 l -0.937861,0.331608 v 3.739236 c 0,2.469939 -1.944721,4.41466 -4.414659,4.41466 h -2.911234 c -2.46994,0 -4.412625,-1.944721 -4.412625,-4.41466 v -3.731148 l -0.939895,-0.329573 c -2.360808,-0.829792 -4.550699,-2.08582 -6.457203,-3.706687 l -0.754763,-0.642871 -3.206223,1.851307 c -2.138607,1.234728 -4.797108,0.523601 -6.0320114,-1.615317 v -0.0021 L 7.3794921,44.5889 C 6.1447663,42.450293 6.8579271,39.793829 8.9968444,38.558923 l 3.2184296,-1.859446 -0.185131,-0.980583 c -0.23236,-1.225925 -0.352895,-2.47116 -0.358055,-3.718893 0.0052,-1.247732 0.125695,-2.492967 0.358055,-3.718893 L 12.215274,27.300526 8.9968444,25.44108 C 6.8579252,24.206173 6.1447663,21.549711 7.3794921,19.411102 l 1.4545996,-2.516558 v -0.0021 c 1.2349033,-2.138918 3.8934043,-2.850045 6.0320123,-1.615318 l 3.224532,1.859446 0.756798,-0.644907 c 1.900902,-1.623996 4.082463,-2.885439 6.438892,-3.720927 L 26.224188,12.43913 V 8.7182377 c 0,-2.4699396 1.942684,-4.4146588 4.412624,-4.4146588 z"
       id="path3" />
    <path
       style="baseline-shift:baseline;display:inline;overflow:visible;mix-blend-mode:normal;fill:none;stroke:#000000;stroke-width:0.1;stroke-dasharray:none;stroke-opacity:1;filter:url(#filter6);enable-background:accumulate;stop-color:#000000"
       d="m 30.691268,4.585605 c -3.575612,0 -6.493446,2.917835 -6.493446,6.493446 v 1.647127 c -1.790569,0.726062 -3.461753,1.692729 -4.985256,2.881101 l -1.429582,-0.824477 v 0.0019 C 14.686035,12.996631 10.699031,14.064529 8.9111674,17.1612 l -1.3070985,2.261372 v 0.0019 c -1.7880246,3.09695 -0.7201298,7.082123 2.3765428,8.869989 l 1.4186133,0.818994 c -0.137461,0.956588 -0.272332,1.913856 -0.276044,2.881057 v 0.0055 0.0055 c 0.0037,0.967201 0.138583,1.924468 0.276044,2.881101 l -1.4186133,0.818993 c -3.096672,1.787827 -4.1645674,5.773001 -2.3765428,8.869951 v 0.0019 l 1.3070985,2.261372 c 1.7878636,3.096672 5.7748676,4.164569 8.8718166,2.376542 l 1.416785,-0.817165 c 1.527721,1.186009 3.203896,2.147985 4.998053,2.870132 v 1.652611 c 0,3.575611 2.917834,6.493446 6.493446,6.493446 h 2.616025 c 3.575611,0 6.493446,-2.917835 6.493446,-6.493446 v -1.661751 c 1.789781,-0.722593 3.461205,-1.683916 4.985255,-2.868304 l 1.431409,0.826305 c 3.096655,1.786342 7.082528,0.717607 8.869989,-2.37837 l 1.307098,-2.261372 0.0019,-0.0019 c 1.788025,-3.09695 0.718301,-7.082124 -2.37837,-8.869989 l -1.416785,-0.818994 c 0.137449,-0.956589 0.272333,-1.913944 0.276045,-2.881101 v -0.0055 -0.0055 c -0.0037,-0.967157 -0.138596,-1.924511 -0.276045,-2.881101 l 1.416785,-0.818993 c 3.096671,-1.787866 4.166395,-5.773039 2.37837,-8.869989 l -0.0019,-0.0019 -1.307098,-2.26129 c -1.787864,-3.096701 -5.774868,-4.164597 -8.871817,-2.37657 l -1.414956,0.817165 c -1.528032,-1.186999 -3.205068,-2.149165 -4.99988,-2.871961 v -1.650783 c 0,-3.575611 -2.917836,-6.493446 -6.493446,-6.493446 z m 0,2.526448 h 2.616025 c 2.219478,0 3.966998,1.7475184 3.966998,3.966998 v 3.349098 l 0.842759,0.297981 c 2.12154,0.746165 4.089377,1.875531 5.802419,3.332645 l 0.67823,0.577682 2.882929,-1.663579 c 1.921743,-1.109522 4.308837,-0.470505 5.418517,1.451519 v 0.0019 l 1.308927,2.261371 h -0.0019 c 1.10952,1.921747 0.470505,4.308835 -1.45152,5.418518 l -2.893897,1.670892 0.168185,0.881148 c 0.208843,1.101569 0.315326,2.220534 0.319964,3.341741 -0.0047,1.121208 -0.111121,2.240173 -0.31992,3.341785 l -0.168185,0.881149 2.893897,1.670892 c 1.922024,1.109682 2.56104,3.496772 1.45152,5.418517 h 0.0019 l -1.308927,2.261372 v 0.0019 c -1.10968,1.922025 -3.496773,2.561041 -5.418517,1.451519 h -0.0019 l -2.895726,-1.670892 -0.678229,0.577683 c -1.709227,1.454457 -3.67133,2.582347 -5.787795,3.328988 l -0.842759,0.297982 v 3.360065 c 0,2.219479 -1.74752,3.966999 -3.966998,3.966999 H 30.69124 c -2.21948,0 -3.96517,-1.74752 -3.96517,-3.966999 V 49.56813 L 25.881483,49.271977 C 23.760069,48.526328 21.79224,47.397666 20.079062,45.94116 l -0.678228,-0.577682 -2.881101,1.663579 c -1.921746,1.109522 -4.310666,0.470506 -5.420346,-1.451519 v -0.0019 L 9.7923163,43.312282 C 8.6827957,41.390537 9.3236397,39.003447 11.245664,37.893765 l 2.89207,-1.670892 -0.166358,-0.881149 c -0.208798,-1.101612 -0.31711,-2.220576 -0.321747,-3.341785 0.0047,-1.121208 0.112949,-2.240172 0.321747,-3.341785 l 0.166358,-0.881148 -2.89207,-1.670892 C 9.323638,24.996431 8.6827957,22.609343 9.7923163,20.687596 l 1.3070987,-2.261371 v -0.0019 c 1.10968,-1.922024 3.4986,-2.561041 5.420346,-1.451519 l 2.897554,1.670892 0.680056,-0.579511 c 1.708145,-1.459318 3.668488,-2.592846 5.785968,-3.343613 l 0.842759,-0.297982 v -3.343569 c 0,-2.2194796 1.74569,-3.966998 3.96517,-3.966998 z"
       id="path3-2"
       transform="matrix(1.1128463,0,0,1.1128463,-3.6110807,-3.6110807)" />
    <path
       id="path5-8"
       style="opacity:1;fill:url(#radialGradient7);stroke-width:0.757757"
       d="m 32,22.908133 c -5.02182,0 -9.091867,4.070047 -9.091867,9.091867 0,5.02182 4.070047,9.091867 9.091867,9.091867 5.021821,0 9.091867,-4.070047 9.091867,-9.091867 0,-5.02182 -4.070046,-9.091867 -9.091867,-9.091867 z m 0,3.105972 c 3.305406,0 5.985896,2.680489 5.985896,5.985895 0,3.305406 -2.68049,5.985896 -5.985896,5.985896 -3.305406,0 -5.985895,-2.68049 -5.985895,-5.985896 0,-3.305406 2.680489,-5.985895 5.985895,-5.985895 z" />
    <path
       id="path5-8-9"
       style="opacity:1;mix-blend-mode:normal;fill:none;stroke:#000000;stroke-width:0.1;stroke-dasharray:none;stroke-opacity:1;filter:url(#filter7)"
       d="m 32,23.830078 c -4.512591,0 -8.169922,3.657331 -8.169922,8.169922 0,4.512591 3.657331,8.169922 8.169922,8.169922 4.512592,0 8.169922,-3.657331 8.169922,-8.169922 0,-4.512591 -3.65733,-8.169922 -8.169922,-8.169922 z m 0,2.791016 c 2.970227,0 5.378906,2.408679 5.378906,5.378906 0,2.970227 -2.408679,5.378906 -5.378906,5.378906 -2.970227,0 -5.378906,-2.408679 -5.378906,-5.378906 0,-2.970227 2.408679,-5.378906 5.378906,-5.378906 z"
       transform="matrix(1.1128463,0,0,1.1128463,-3.6110807,-3.6110807)" />
  </g>
</svg>
