<?xml version="1.0" encoding="UTF-8" standalone="no"?>
<!-- Generator: Adobe Illustrator 25.2.1, SVG Export Plug-In . SVG Version: 6.00 Build 0)  -->

<svg
   version="1.1"
   id="Layer_1"
   x="0px"
   y="0px"
   viewBox="0 0 64 64"
   style="enable-background:new 0 0 64 64;"
   xml:space="preserve"
   sodipodi:docname="folder-blue-remote-drag-accept.svg"
   inkscape:version="1.4.2 (ebf0e940d0, 2025-05-08)"
   xmlns:inkscape="http://www.inkscape.org/namespaces/inkscape"
   xmlns:sodipodi="http://sodipodi.sourceforge.net/DTD/sodipodi-0.dtd"
   xmlns:xlink="http://www.w3.org/1999/xlink"
   xmlns="http://www.w3.org/2000/svg"
   xmlns:svg="http://www.w3.org/2000/svg"><defs
   id="defs14"><inkscape:path-effect
     effect="fillet_chamfer"
     id="path-effect1"
     is_visible="true"
     lpeversion="1"
     nodesatellites_param="F,0,0,1,0,0,0,1 @ F,0,1,1,0,3.8097327,0,1 @ F,0,0,1,0,0,0,1 @ F,0,0,1,0,0,0,1 @ F,0,0,1,0,0,0,1 @ F,0,0,1,0,0,0,1 @ F,0,1,1,0,3.8097327,0,1 @ F,0,0,1,0,0,0,1 @ F,0,0,1,0,0,0,1 @ F,0,0,1,0,0,0,1 | F,0,0,1,0,0,0,1 @ F,0,0,1,0,0,0,1 @ F,0,0,1,0,0,0,1 @ F,0,0,1,0,3.8097327,0,1 @ F,0,0,1,0,0,0,1 @ F,0,0,1,0,0,0,1 @ F,0,0,1,0,0,0,1 @ F,0,0,1,0,0,0,1 @ F,0,1,1,0,3.8097327,0,1 @ F,0,0,1,0,0,0,1"
     radius="0"
     unit="px"
     method="auto"
     mode="F"
     chamfer_steps="1"
     flexible="false"
     use_knot_distance="true"
     apply_no_radius="true"
     apply_with_radius="true"
     only_selected="false"
     hide_knots="false" /><radialGradient
     id="SVGID_2_-5"
     cx="28.198799"
     cy="26.138901"
     r="40.0504"
     fx="5.5560002"
     fy="8.5401001"
     gradientUnits="userSpaceOnUse">
	<stop
   offset="0"
   style="stop-color:#15C7FF"
   id="stop3-3" />
	<stop
   offset="1"
   style="stop-color:#005A9E"
   id="stop4-5" />
</radialGradient><radialGradient
     id="SVGID_4_-3"
     cx="25.2845"
     cy="26.629101"
     r="32.348301"
     fx="16.6394"
     fy="18.710199"
     gradientUnits="userSpaceOnUse">
	<stop
   offset="0"
   style="stop-color:#FFFFFF"
   id="stop7-6" />
	<stop
   offset="1"
   style="stop-color:#B7B7B7"
   id="stop8-7" />
</radialGradient><radialGradient
     id="SVGID_6_-3"
     cx="32"
     cy="39"
     r="40.048599"
     fx="14.0678"
     fy="24.8514"
     gradientUnits="userSpaceOnUse"
     gradientTransform="translate(4.209578e-7,0.19779612)">
	<stop
   offset="0"
   style="stop-color:#00F0F4"
   id="stop11-6" />
	<stop
   offset="1"
   style="stop-color:#1598FF"
   id="stop12-7" />
</radialGradient><radialGradient
     id="radialGradient16-9"
     cx="-159.43106"
     cy="15.462561"
     r="64.706802"
     gradientTransform="matrix(-0.89413329,0,0,0.96304834,-80.753654,49.330428)"
     gradientUnits="userSpaceOnUse"
     fx="-159.43106"
     fy="15.462561">
	<stop
   offset="0"
   style="stop-color:#3d6aa4;stop-opacity:1;"
   id="stop15-1" />
	<stop
   offset="1"
   style="stop-color:#0097d2;stop-opacity:1;"
   id="stop16-2" />
</radialGradient><inkscape:path-effect
     effect="fillet_chamfer"
     id="path-effect20-7"
     is_visible="true"
     lpeversion="1"
     nodesatellites_param="F,0,0,1,0,1.4582365,0,1 @ F,0,0,1,0,4.7943319,0,1 @ F,0,0,1,0,0,0,1 @ F,0,0,1,0,0,0,1 @ F,0,0,1,0,0,0,1 @ F,0,0,1,0,0,0,1 @ F,0,0,1,0,0,0,1 @ F,0,0,1,0,0,0,1 @ F,0,0,1,0,2.051402,0,1"
     radius="0"
     unit="px"
     method="auto"
     mode="F"
     chamfer_steps="1"
     flexible="false"
     use_knot_distance="true"
     apply_no_radius="true"
     apply_with_radius="true"
     only_selected="false"
     hide_knots="false" /><inkscape:path-effect
     effect="fillet_chamfer"
     id="path-effect2-5"
     is_visible="true"
     lpeversion="1"
     nodesatellites_param="F,0,1,1,0,2.9410078,0,1 @ F,0,1,1,0,2.9410078,0,1 @ F,0,0,1,0,13.761382,0,1 @ F,0,0,1,0,14.755441,0,1"
     radius="0"
     unit="px"
     method="auto"
     mode="F"
     chamfer_steps="1"
     flexible="false"
     use_knot_distance="true"
     apply_no_radius="true"
     apply_with_radius="true"
     only_selected="false"
     hide_knots="false" /><radialGradient
     id="SVGID_1_-3-2-7"
     cx="-159.43106"
     cy="15.462561"
     r="64.706802"
     gradientTransform="matrix(-0.89413329,0,0,0.96304834,-80.753654,49.330428)"
     gradientUnits="userSpaceOnUse"
     fx="-159.43106"
     fy="15.462561">
	<stop
   offset="0"
   style="stop-color:#006fff;stop-opacity:1;"
   id="stop1-6-9-5" />
	<stop
   offset="1"
   style="stop-color:#15baff;stop-opacity:1;"
   id="stop2-7-1-3" />
</radialGradient><inkscape:path-effect
     effect="fillet_chamfer"
     id="path-effect20-7-9"
     is_visible="true"
     lpeversion="1"
     nodesatellites_param="F,0,0,1,0,1.4582365,0,1 @ F,0,0,1,0,4.7943319,0,1 @ F,0,0,1,0,0,0,1 @ F,0,0,1,0,0,0,1 @ F,0,0,1,0,0,0,1 @ F,0,0,1,0,0,0,1 @ F,0,0,1,0,0,0,1 @ F,0,0,1,0,0,0,1 @ F,0,0,1,0,2.051402,0,1"
     radius="0"
     unit="px"
     method="auto"
     mode="F"
     chamfer_steps="1"
     flexible="false"
     use_knot_distance="true"
     apply_no_radius="true"
     apply_with_radius="true"
     only_selected="false"
     hide_knots="false" /><filter
     inkscape:collect="always"
     style="color-interpolation-filters:sRGB"
     id="filter5"
     x="-0.093479798"
     y="-0.22151661"
     width="1.1869596"
     height="1.4510468"><feGaussianBlur
       inkscape:collect="always"
       stdDeviation="2.056684"
       id="feGaussianBlur5" /></filter><radialGradient
     inkscape:collect="always"
     xlink:href="#SVGID_1_-3-2-7-3"
     id="radialGradient14-6"
     cx="51.925644"
     cy="78.491135"
     fx="51.925644"
     fy="78.491135"
     r="27.708172"
     gradientTransform="matrix(0,-2.1910082,2.2418851,0,-92.25493,184.46437)"
     gradientUnits="userSpaceOnUse" /><radialGradient
     id="SVGID_1_-3-2-7-3"
     cx="-159.43106"
     cy="15.462561"
     r="64.706802"
     gradientTransform="matrix(-0.89413329,0,0,0.96304834,-80.753654,49.330428)"
     gradientUnits="userSpaceOnUse"
     fx="-159.43106"
     fy="15.462561">
	<stop
   offset="0"
   style="stop-color:#006fff;stop-opacity:1;"
   id="stop1-6-9-5-6" />
	<stop
   offset="1"
   style="stop-color:#15baff;stop-opacity:1;"
   id="stop2-7-1-3-7" />
</radialGradient><inkscape:path-effect
     effect="fillet_chamfer"
     id="path-effect2-5-3"
     is_visible="true"
     lpeversion="1"
     nodesatellites_param="F,0,1,1,0,2.9410078,0,1 @ F,0,1,1,0,2.9410078,0,1 @ F,0,0,1,0,13.761382,0,1 @ F,0,0,1,0,14.755441,0,1"
     radius="0"
     unit="px"
     method="auto"
     mode="F"
     chamfer_steps="1"
     flexible="false"
     use_knot_distance="true"
     apply_no_radius="true"
     apply_with_radius="true"
     only_selected="false"
     hide_knots="false" /><radialGradient
     inkscape:collect="always"
     xlink:href="#radialGradient16-9-5"
     id="radialGradient15-2"
     cx="10.757424"
     cy="61.399044"
     fx="10.757424"
     fy="61.399044"
     r="24.565832"
     gradientTransform="matrix(0,-2.330989,2.5178893,0,-79.137526,79.401559)"
     gradientUnits="userSpaceOnUse" /><radialGradient
     id="radialGradient16-9-5"
     cx="-159.43106"
     cy="15.462561"
     r="64.706802"
     gradientTransform="matrix(-0.89413329,0,0,0.96304834,-80.753654,49.330428)"
     gradientUnits="userSpaceOnUse"
     fx="-159.43106"
     fy="15.462561">
	<stop
   offset="0"
   style="stop-color:#3d6aa4;stop-opacity:1;"
   id="stop15-1-3" />
	<stop
   offset="1"
   style="stop-color:#0097d2;stop-opacity:1;"
   id="stop16-2-5" />
</radialGradient><inkscape:path-effect
     effect="fillet_chamfer"
     id="path-effect20-7-6"
     is_visible="true"
     lpeversion="1"
     nodesatellites_param="F,0,0,1,0,1.4582365,0,1 @ F,0,0,1,0,4.7943319,0,1 @ F,0,0,1,0,0,0,1 @ F,0,0,1,0,0,0,1 @ F,0,0,1,0,0,0,1 @ F,0,0,1,0,0,0,1 @ F,0,0,1,0,0,0,1 @ F,0,0,1,0,0,0,1 @ F,0,0,1,0,2.051402,0,1"
     radius="0"
     unit="px"
     method="auto"
     mode="F"
     chamfer_steps="1"
     flexible="false"
     use_knot_distance="true"
     apply_no_radius="true"
     apply_with_radius="true"
     only_selected="false"
     hide_knots="false" /><filter
     inkscape:collect="always"
     style="color-interpolation-filters:sRGB"
     id="filter4-0"
     x="-0.088388749"
     y="-0.15392826"
     width="1.1767787"
     height="1.3078565"><feGaussianBlur
       inkscape:collect="always"
       stdDeviation="2.056684"
       id="feGaussianBlur4-7" /></filter><inkscape:path-effect
     effect="fillet_chamfer"
     id="path-effect1-0"
     is_visible="true"
     lpeversion="1"
     nodesatellites_param="F,0,0,1,0,0,0,1 @ F,0,1,1,0,3.8097327,0,1 @ F,0,0,1,0,0,0,1 @ F,0,0,1,0,0,0,1 @ F,0,0,1,0,0,0,1 @ F,0,0,1,0,0,0,1 @ F,0,1,1,0,3.8097327,0,1 @ F,0,0,1,0,0,0,1 @ F,0,0,1,0,0,0,1 @ F,0,0,1,0,0,0,1 | F,0,0,1,0,0,0,1 @ F,0,0,1,0,0,0,1 @ F,0,0,1,0,0,0,1 @ F,0,0,1,0,3.8097327,0,1 @ F,0,0,1,0,0,0,1 @ F,0,0,1,0,0,0,1 @ F,0,0,1,0,0,0,1 @ F,0,0,1,0,0,0,1 @ F,0,1,1,0,3.8097327,0,1 @ F,0,0,1,0,0,0,1"
     radius="0"
     unit="px"
     method="auto"
     mode="F"
     chamfer_steps="1"
     flexible="false"
     use_knot_distance="true"
     apply_no_radius="true"
     apply_with_radius="true"
     only_selected="false"
     hide_knots="false" /></defs><sodipodi:namedview
   id="namedview14"
   pagecolor="#ffffff"
   bordercolor="#000000"
   borderopacity="0.25"
   inkscape:showpageshadow="2"
   inkscape:pageopacity="0.0"
   inkscape:pagecheckerboard="0"
   inkscape:deskcolor="#d1d1d1"
   inkscape:zoom="10.726707"
   inkscape:cx="45.307474"
   inkscape:cy="24.704693"
   inkscape:window-width="1920"
   inkscape:window-height="1020"
   inkscape:window-x="0"
   inkscape:window-y="0"
   inkscape:window-maximized="1"
   inkscape:current-layer="Layer_1" />
<style
   type="text/css"
   id="style1">
	.st0{opacity:0.15;fill:url(#SVGID_1_);enable-background:new    ;}
	.st1{fill:url(#SVGID_2_);}
	.st2{opacity:0.34;fill:url(#SVGID_3_);enable-background:new    ;}
	.st3{fill:url(#SVGID_4_);}
	.st4{opacity:0.12;fill:url(#SVGID_5_);enable-background:new    ;}
	.st5{fill:url(#SVGID_6_);}
	.st6{fill:url(#SVGID_7_);}
</style>
<radialGradient
   id="SVGID_1_"
   cx="28.1988"
   cy="40.4481"
   r="40.0504"
   fx="5.556"
   fy="22.8493"
   gradientTransform="matrix(1 0 0 -1 0 66)"
   gradientUnits="userSpaceOnUse">
	<stop
   offset="0"
   style="stop-color:#000000"
   id="stop1" />
	<stop
   offset="1"
   style="stop-color:#545454"
   id="stop2" />
</radialGradient>

<radialGradient
   id="SVGID_2_"
   cx="28.1988"
   cy="39.8611"
   r="40.0504"
   fx="5.556"
   fy="22.2623"
   gradientTransform="matrix(1 0 0 -1 0 66)"
   gradientUnits="userSpaceOnUse">
	<stop
   offset="0"
   style="stop-color:#15C7FF"
   id="stop3" />
	<stop
   offset="1"
   style="stop-color:#005A9E"
   id="stop4" />
</radialGradient>

<linearGradient
   id="SVGID_3_"
   gradientUnits="userSpaceOnUse"
   x1="8.1"
   y1="38.15"
   x2="56.1"
   y2="38.15"
   gradientTransform="matrix(1 0 0 -1 0 66)">
	<stop
   offset="0"
   style="stop-color:#000000"
   id="stop5" />
	<stop
   offset="1"
   style="stop-color:#404040"
   id="stop6" />
</linearGradient>

<radialGradient
   id="SVGID_4_"
   cx="25.2845"
   cy="39.3709"
   r="32.3483"
   fx="16.6394"
   fy="31.452"
   gradientTransform="matrix(1 0 0 -1 0 66)"
   gradientUnits="userSpaceOnUse">
	<stop
   offset="0"
   style="stop-color:#FFFFFF"
   id="stop7" />
	<stop
   offset="1"
   style="stop-color:#B7B7B7"
   id="stop8" />
</radialGradient>


<radialGradient
   id="SVGID_7_"
   cx="32.1"
   cy="47.4759"
   r="40.1553"
   fx="18.2785"
   fy="31.4803"
   gradientUnits="userSpaceOnUse">
	<stop
   offset="0"
   style="stop-color:#15C7FF"
   id="stop13" />
	<stop
   offset="1"
   style="stop-color:#005A9E"
   id="stop14" />
</radialGradient>
<path
   class="st1"
   d="M 22.196242,11.795294 H 12.203491 A 4.7943319,4.7943319 135 0 0 7.409159,16.589626 V 40.29912 c 0,3.691468 2.98833,6.76769 6.679798,6.76769 h 35.772071 c 3.691466,0 6.679797,-2.98833 6.679797,-6.679797 v -18.28155 c 0,-3.691467 -2.988331,-6.679798 -6.679797,-6.679798 H 30.037826 a 5.6416074,5.6416074 19.982285 0 1 -3.623682,-1.317644 l -1.642012,-1.376082 a 4.0103294,4.0103294 19.982285 0 0 -2.57589,-0.936645 z"
   id="path4-0"
   style="fill:url(#radialGradient15-2);stroke-width:0.878921"
   sodipodi:nodetypes="ccsssssscc"
   inkscape:path-effect="#path-effect20-7-6"
   inkscape:original-d="M 23.654479,11.795294 H 7.409159 V 40.29912 c 0,3.691468 2.98833,6.76769 6.679798,6.76769 h 35.772071 c 3.691466,0 6.679797,-2.98833 6.679797,-6.679797 v -18.28155 c 0,-3.691467 -2.988331,-6.679798 -6.679797,-6.679798 H 27.986424 Z"
   transform="matrix(1.0965063,0,0,1.0965063,-3.0347409,-4.5220224)" /><path
   id="rect1-9"
   style="opacity:0.870323;fill:#ffffff;stroke-width:0.2"
   d="m 12.825606,20.662382 h 38.244945 a 2.9410078,2.9410078 45 0 1 2.941008,2.941008 l 0,10.569571 A 13.761382,13.761382 135 0 1 40.250177,47.934343 H 24.640039 A 14.755441,14.755441 45 0 1 9.8845978,33.178902 V 23.60339 a 2.9410078,2.9410078 135 0 1 2.9410082,-2.941008 z"
   inkscape:path-effect="#path-effect2-5-3"
   inkscape:original-d="M 9.8845978,20.662382 H 54.011559 V 47.934343 H 9.8845978 Z"
   transform="matrix(1.0965063,0,0,1.0965063,-3.4110916,-7.0121511)" /><path
   id="rect13-36"
   style="fill:url(#radialGradient14-6);fill-opacity:1;stroke:none;stroke-width:0.681659;stroke-linecap:round;stroke-linejoin:round"
   d="M 11.847389,27.954411 H 23.29465 c 2.153266,0 4.20154,-0.930282 5.618374,-2.551743 1.41408,-1.612298 3.455777,-2.535052 5.600331,-2.531094 h 17.691336 c 4.574292,1e-6 8.282488,3.708197 8.282488,8.282489 l -1.478977,16.582252 c 0,4.33659 -3.5155,7.852092 -7.85209,7.852093 H 12.895968 c -4.3365923,0 -7.2989073,-3.55093 -7.8520939,-7.852093 L 3.5648971,36.236902 C 2.9813885,31.699977 7.2730944,27.95441 11.847389,27.954411 Z"
   sodipodi:nodetypes="cccccccssssc" /><path
   d="M 10.34699,8.4121094 C 7.4437605,8.411669 5.0898156,10.764739 5.0891773,13.667969 V 31.146484 C 6.6568464,29.212399 9.2012608,27.955078 11.84699,27.955078 h 11.447266 c 2.153266,0 4.202306,-0.931273 5.61914,-2.552734 1.41408,-1.612298 3.455056,-2.535208 5.59961,-2.53125 h 17.691406 c 2.792462,0 5.257273,1.386408 6.757813,3.503906 v -6.658203 c 0,-4.047717 -3.276503,-7.324219 -7.324219,-7.324219 H 29.901678 c -1.452855,-3.15e-4 -2.859247,-0.511981 -3.972657,-1.445312 L 24.12824,9.4394531 C 23.336698,8.775958 22.336865,8.4122564 21.304021,8.4121094 Z"
   style="fill:none;stroke:#000000;stroke-width:0.2;stroke-dasharray:none;stroke-opacity:1;filter:url(#filter5)"
   id="path4" /><path
   class="st1"
   d="M 22.196242,11.795294 H 12.203491 A 4.7943319,4.7943319 135 0 0 7.409159,16.589626 V 40.29912 c 0,3.691468 2.98833,6.76769 6.679798,6.76769 h 35.772071 c 3.691466,0 6.679797,-2.98833 6.679797,-6.679797 v -18.28155 c 0,-3.691467 -2.988331,-6.679798 -6.679797,-6.679798 H 30.037826 a 5.6416074,5.6416074 19.982285 0 1 -3.623682,-1.317644 l -1.642012,-1.376082 a 4.0103294,4.0103294 19.982285 0 0 -2.57589,-0.936645 z"
   id="path4-0-1"
   style="fill:none;stroke-width:0.878921"
   sodipodi:nodetypes="ccsssssscc"
   inkscape:path-effect="#path-effect20-7-9"
   inkscape:original-d="M 23.654479,11.795294 H 7.409159 V 40.29912 c 0,3.691468 2.98833,6.76769 6.679798,6.76769 h 35.772071 c 3.691466,0 6.679797,-2.98833 6.679797,-6.679797 v -18.28155 c 0,-3.691467 -2.988331,-6.679798 -6.679797,-6.679798 H 27.986424 Z"
   transform="matrix(1.0965063,0,0,1.0965063,-3.0347409,-4.5220221)" /><path
   id="rect13-36-2"
   style="fill:none;fill-opacity:1;stroke:none;stroke-width:0.681659;stroke-linecap:round;stroke-linejoin:round"
   d="m 11.847388,27.954411 h 11.447261 c 2.153266,0 4.20154,-0.930282 5.618374,-2.551743 1.41408,-1.612298 3.455777,-2.535052 5.600331,-2.531094 H 52.20469 c 4.574292,1e-6 8.282488,3.708197 8.282488,8.282489 l -1.478977,16.582252 c 0,4.33659 -3.5155,7.852092 -7.85209,7.852093 H 12.895967 c -4.3365913,0 -7.2989063,-3.55093 -7.8520929,-7.852093 L 3.5648971,36.236902 C 2.9813885,31.699977 7.2730944,27.95441 11.847388,27.954411 Z"
   sodipodi:nodetypes="cccccccssssc" />
<g
   id="g3"
   transform="translate(-49.524322,-2.1644609)"><path
     d="m 84.036662,25.036055 c -2.144554,-0.004 -4.18553,0.918952 -5.59961,2.53125 -1.416834,1.621461 -3.465874,2.552734 -5.61914,2.552734 H 61.370646 c -4.574294,-10e-7 -8.864758,3.744325 -8.28125,8.28125 l 1.478516,11.5 c 0.553187,4.301163 3.514971,7.851563 7.851562,7.851563 h 38.259766 c 4.33659,-10e-7 7.85352,-3.514973 7.85352,-7.851563 l 1.47851,-16.582031 c 0,-4.574292 -3.70891,-8.283202 -8.2832,-8.283203 z"
     style="fill:none;stroke:#000000;stroke-width:0.2;stroke-linecap:round;stroke-linejoin:round;stroke-dasharray:none;stroke-opacity:1;filter:url(#filter4-0)"
     id="path3-7-0" /><path
     class="st6"
     d="m 29.7,38.3 c -0.30594,0.07199 -0.595685,0.160165 -0.870986,0.263372 -1.947181,0.729977 -4.074786,3.691042 -5.910787,4.690318 C 21.819972,43.851435 20.597332,44.2 19.3,44.2 H 3.6425895 l 0.5052208,4 H 19.3 c 1.307431,0 2.539003,0.328726 3.643852,0.922601 1.839259,0.988632 3.964035,3.931522 5.898343,4.685999 0.273624,0.106727 0.559559,0.20368 0.857805,0.2914 0.3,0.1 0.6,-0.2 0.6,-0.5 V 38.8 c 0,-0.3 -0.3,-0.6 -0.6,-0.5 z m 4.6,0.5 v 14.7 c 0,0.3 0.3,0.6 0.6,0.5 0.30594,-0.07199 0.595685,-0.160165 0.870986,-0.263372 1.947181,-0.729977 4.074786,-3.691042 5.910787,-4.690318 C 42.780028,48.448565 44.002668,48.1 45.3,48.1 L 60.1,48 60.460928,44 45.3,44.1 c -1.307431,0 -2.539003,-0.328726 -3.643852,-0.922601 C 39.816889,42.188767 37.692113,39.245877 35.757805,38.4914 35.484181,38.384673 35.198246,38.28772 34.9,38.2 c -0.3,0 -0.6,0.3 -0.6,0.6 z"
     id="path14-3"
     style="opacity:0.3;fill:#000000;fill-opacity:1"
     inkscape:path-effect="#path-effect1-0"
     inkscape:original-d="m 29.7,38.3 c -1.7,0.4 -2.9,1.3 -3.9,2.5 -1.6,2 -3.9,3.4 -6.5,3.4 H 3.6425895 l 0.5052208,4 H 19.3 c 2.6,0 4.9,1.3 6.5,3.4 0.9,1.2 2.2,2 3.9,2.5 0.3,0.1 0.6,-0.2 0.6,-0.5 V 38.8 c 0,-0.3 -0.3,-0.6 -0.6,-0.5 z m 4.6,0.5 v 14.7 c 0,0.3 0.3,0.6 0.6,0.5 1.7,-0.4 2.9,-1.3 3.9,-2.5 1.6,-2 3.9,-3.4 6.5,-3.4 L 60.1,48 60.460928,44 45.3,44.1 c -2.6,0 -4.9,-1.3 -6.5,-3.4 -0.9,-1.2 -2.2,-2 -3.9,-2.5 -0.3,0 -0.6,0.3 -0.6,0.6 z"
     transform="matrix(0.96322924,0,0,0.96322924,50.61651,3.8622925)"
     sodipodi:nodetypes="ccsccsccsscssccccccccs" /></g></svg>
