<?xml version="1.0" encoding="UTF-8" standalone="no"?>
<!-- Generator: Adobe Illustrator 25.4.1, SVG Export Plug-In . SVG Version: 6.00 Build 0)  -->

<svg
   version="1.1"
   id="Layer_1"
   x="0px"
   y="0px"
   viewBox="0 0 1499 1499"
   xml:space="preserve"
   sodipodi:docname="FairyWren-Colour.svg"
   inkscape:version="1.4.2 (ebf0e940d0, 2025-05-08)"
   width="1499"
   height="1499"
   inkscape:export-filename="FairyWren-Colour.png"
   inkscape:export-xdpi="8.1974649"
   inkscape:export-ydpi="8.1974649"
   xmlns:inkscape="http://www.inkscape.org/namespaces/inkscape"
   xmlns:sodipodi="http://sodipodi.sourceforge.net/DTD/sodipodi-0.dtd"
   xmlns:xlink="http://www.w3.org/1999/xlink"
   xmlns="http://www.w3.org/2000/svg"
   xmlns:svg="http://www.w3.org/2000/svg"><defs
   id="defs11"><linearGradient
     id="linearGradient76"
     inkscape:collect="always"><stop
       style="stop-color:#01aaf6;stop-opacity:1;"
       offset="0"
       id="stop75" /><stop
       style="stop-color:#0077ff;stop-opacity:1;"
       offset="1"
       id="stop76" /></linearGradient><linearGradient
     id="linearGradient73"
     inkscape:collect="always"><stop
       style="stop-color:#00163c;stop-opacity:1;"
       offset="0"
       id="stop73" /><stop
       style="stop-color:#000000;stop-opacity:1;"
       offset="1"
       id="stop74" /></linearGradient><linearGradient
     id="linearGradient69"
     inkscape:collect="always"><stop
       style="stop-color:#000000;stop-opacity:1;"
       offset="0"
       id="stop68" /><stop
       style="stop-color:#2d2d2d;stop-opacity:1;"
       offset="1"
       id="stop69" /></linearGradient><linearGradient
     id="linearGradient51"
     inkscape:collect="always"><stop
       style="stop-color:#019cf6;stop-opacity:1;"
       offset="0"
       id="stop50" /><stop
       style="stop-color:#0055c7;stop-opacity:1;"
       offset="1"
       id="stop51" /></linearGradient><linearGradient
     id="linearGradient49"
     inkscape:collect="always"><stop
       style="stop-color:#002463;stop-opacity:1;"
       offset="0"
       id="stop48" /><stop
       style="stop-color:#0077ff;stop-opacity:1;"
       offset="1"
       id="stop49" /></linearGradient><inkscape:path-effect
     effect="fillet_chamfer"
     id="path-effect48"
     is_visible="true"
     lpeversion="1"
     nodesatellites_param="F,0,0,1,0,27.042843,0,1 @ F,0,0,1,0,0,0,1 @ F,0,0,1,0,0,0,1 @ F,0,0,1,0,0,0,1 @ F,0,0,1,0,0,0,1 @ F,0,0,1,0,0,0,1 @ F,0,0,1,0,0,0,1 @ F,0,0,1,0,0,0,1"
     radius="0"
     unit="px"
     method="auto"
     mode="F"
     chamfer_steps="1"
     flexible="false"
     use_knot_distance="true"
     apply_no_radius="true"
     apply_with_radius="true"
     only_selected="false"
     hide_knots="false" /><inkscape:path-effect
     effect="fillet_chamfer"
     id="path-effect34"
     is_visible="true"
     lpeversion="1"
     nodesatellites_param="F,0,0,1,0,0,0,1 @ F,0,0,1,0,0,0,1 @ F,0,0,1,0,0,0,1 @ F,0,0,1,0,0,0,1 @ F,0,0,1,0,0,0,1 @ F,0,0,1,0,0,0,1 @ F,0,0,1,0,0,0,1 @ F,0,0,1,0,11.894973,0,1 @ F,0,0,1,0,0,0,1 @ F,0,0,1,0,0,0,1 @ F,0,0,1,0,0,0,1 @ F,0,0,1,0,0,0,1 @ F,0,0,1,0,0,0,1 @ F,0,0,1,0,0,0,1 @ F,0,0,1,0,0,0,1 @ F,0,0,1,0,0,0,1 @ F,0,0,1,0,0,0,1"
     radius="0"
     unit="px"
     method="auto"
     mode="F"
     chamfer_steps="1"
     flexible="false"
     use_knot_distance="true"
     apply_no_radius="true"
     apply_with_radius="true"
     only_selected="false"
     hide_knots="false" /><inkscape:path-effect
     effect="fillet_chamfer"
     id="path-effect33"
     is_visible="true"
     lpeversion="1"
     nodesatellites_param="F,0,0,1,0,0,0,1 @ F,0,0,1,0,0,0,1 @ F,0,0,1,0,0,0,1 @ F,0,0,1,0,0,0,1 @ F,0,0,1,0,0,0,1 @ F,0,0,1,0,12.37512,0,1 @ F,0,0,1,0,10.762537,0,1 @ F,0,0,1,0,0,0,1 @ F,0,0,1,0,0,0,1 @ F,0,0,1,0,0,0,1 @ F,0,0,1,0,0,0,1 @ F,0,0,1,0,0,0,1 @ F,0,0,1,0,0,0,1 @ F,0,0,1,0,0,0,1 @ F,0,0,1,0,38.574343,0,1 @ F,0,0,1,0,0,0,1 @ F,0,0,1,0,0,0,1 @ F,0,0,1,0,0,0,1 @ F,0,0,1,0,0,0,1 @ F,0,0,1,0,0,0,1 @ F,0,0,1,0,0,0,1 @ F,0,0,1,0,0,0,1 @ F,0,0,1,0,0,0,1 @ F,0,0,1,0,0,0,1 @ F,0,0,1,0,0,0,1 @ F,0,0,1,0,0,0,1 @ F,0,0,1,0,0,0,1 @ F,0,0,1,0,0,0,1 @ F,0,0,1,0,0,0,1 @ F,0,0,1,0,0,0,1"
     radius="0"
     unit="px"
     method="auto"
     mode="F"
     chamfer_steps="1"
     flexible="false"
     use_knot_distance="true"
     apply_no_radius="true"
     apply_with_radius="true"
     only_selected="false"
     hide_knots="false" /><inkscape:path-effect
     effect="fillet_chamfer"
     id="path-effect1"
     is_visible="true"
     lpeversion="1"
     nodesatellites_param="F,0,0,1,0,0,0,1 @ F,0,0,1,0,0,0,1 @ F,0,0,1,0,0,0,1 @ F,0,0,1,0,0,0,1"
     radius="0"
     unit="px"
     method="auto"
     mode="F"
     chamfer_steps="1"
     flexible="false"
     use_knot_distance="true"
     apply_no_radius="true"
     apply_with_radius="true"
     only_selected="false"
     hide_knots="false" /><inkscape:path-effect
     effect="fillet_chamfer"
     id="path-effect1-3"
     is_visible="true"
     lpeversion="1"
     nodesatellites_param="F,0,0,1,0,0,0,1 @ F,0,0,1,0,0,0,1 @ F,0,0,1,0,0,0,1 @ F,0,0,1,0,0,0,1 @ F,0,0,1,0,0,0,1 @ F,0,0,1,0,0,0,1 | F,0,0,1,0,2.2313425,0,1 @ F,0,0,1,0,0,0,1 @ F,0,0,1,0,0,0,1 @ F,0,0,1,0,0,0,1 @ F,0,0,1,0,0,0,1 @ F,0,0,1,0,0,0,1 @ F,0,0,1,0,0,0,1 @ F,0,0,1,0,3.0996664,0,1 @ F,0,0,1,0,0,0,1 @ F,0,0,1,0,0,0,1 @ F,0,0,1,0,2.774701,0,1 @ F,0,0,1,0,0,0,1 @ F,0,0,1,0,0,0,1 | F,0,0,1,0,1.8892532,0,1 @ F,0,0,1,0,0,0,1 @ F,0,0,1,0,1.0211566,0,1 @ F,0,0,1,0,0,0,1 @ F,0,0,1,0,0,0,1"
     radius="0"
     unit="px"
     method="auto"
     mode="F"
     chamfer_steps="1"
     flexible="false"
     use_knot_distance="true"
     apply_no_radius="true"
     apply_with_radius="true"
     only_selected="false"
     hide_knots="false" /><linearGradient
     id="linearGradient5"
     inkscape:collect="always"><stop
       style="stop-color:#01d9f6;stop-opacity:1;"
       offset="0"
       id="stop5-6" /><stop
       style="stop-color:#0077ff;stop-opacity:1;"
       offset="1"
       id="stop6-7" /></linearGradient><radialGradient
     inkscape:collect="always"
     xlink:href="#linearGradient5"
     id="radialGradient31"
     gradientUnits="userSpaceOnUse"
     gradientTransform="matrix(-1.5797121,-0.5468488,-0.47150458,1.3620611,1620.8821,-223.01039)"
     cx="253.5471"
     cy="733.10278"
     fx="253.5471"
     fy="733.10278"
     r="555.85223" /><radialGradient
     inkscape:collect="always"
     xlink:href="#linearGradient5"
     id="radialGradient31-6"
     gradientUnits="userSpaceOnUse"
     gradientTransform="matrix(0.4305421,-1.8930761,1.6322502,0.37122249,-1117.8988,1195.5111)"
     cx="407.32083"
     cy="665.45312"
     fx="407.32083"
     fy="665.45312"
     r="555.85223" /><radialGradient
     inkscape:collect="always"
     xlink:href="#linearGradient5"
     id="radialGradient31-6-7"
     gradientUnits="userSpaceOnUse"
     gradientTransform="matrix(-2.0227644,-0.50990147,-0.43964796,1.7440701,1778.6839,-706.72774)"
     cx="95.848305"
     cy="1057.7134"
     fx="95.848305"
     fy="1057.7134"
     r="555.85223" /><radialGradient
     inkscape:collect="always"
     xlink:href="#linearGradient5"
     id="radialGradient43"
     cx="127.12067"
     cy="1626.2808"
     fx="127.12067"
     fy="1626.2808"
     r="262.2345"
     gradientTransform="matrix(4.4812545,1.2007485,-0.49908537,1.8626119,201.78115,-1899.4731)"
     gradientUnits="userSpaceOnUse" /><radialGradient
     inkscape:collect="always"
     xlink:href="#linearGradient5"
     id="radialGradient44"
     cx="154.50182"
     cy="1363.1232"
     fx="154.50182"
     fy="1363.1232"
     r="271.87567"
     gradientTransform="matrix(5.4229458,0.82810824,-0.28803856,1.886248,-106.25401,-1819.1479)"
     gradientUnits="userSpaceOnUse" /><radialGradient
     inkscape:collect="always"
     xlink:href="#linearGradient51"
     id="radialGradient45"
     cx="477.66885"
     cy="1339.8009"
     fx="477.66885"
     fy="1339.8009"
     r="214.09865"
     gradientTransform="matrix(3.1282575,-0.34634371,0.20783939,1.8772541,-385.81691,-1552.6632)"
     gradientUnits="userSpaceOnUse" /><radialGradient
     inkscape:collect="always"
     xlink:href="#linearGradient5"
     id="radialGradient46"
     cx="720.6087"
     cy="975.70258"
     fx="720.6087"
     fy="975.70258"
     r="103.08921"
     gradientTransform="matrix(1.274615,1.7340521,-1.788462,1.3146091,1909.317,-1900.7397)"
     gradientUnits="userSpaceOnUse" /><radialGradient
     inkscape:collect="always"
     xlink:href="#linearGradient5"
     id="radialGradient47"
     cx="975.9964"
     cy="1145.4718"
     fx="975.9964"
     fy="1145.4718"
     r="161.05615"
     gradientTransform="matrix(-2.9970376,-7.6799738,2.5784362,-1.0062104,1448.0631,9131.9465)"
     gradientUnits="userSpaceOnUse" /><radialGradient
     inkscape:collect="always"
     xlink:href="#linearGradient5"
     id="radialGradient48"
     cx="652.9751"
     cy="1128.9486"
     fx="652.9751"
     fy="1128.9486"
     r="115.37684"
     gradientTransform="matrix(8.3749287,1.2788894,-0.69222163,4.5330795,-3729.5261,-5209.6197)"
     gradientUnits="userSpaceOnUse" /><radialGradient
     inkscape:collect="always"
     xlink:href="#linearGradient49"
     id="radialGradient44-7"
     cx="154.50182"
     cy="1363.1232"
     fx="154.50182"
     fy="1363.1232"
     r="271.87567"
     gradientTransform="matrix(5.6075409,1.2209209,-0.46768555,1.8615148,118.88333,-1850.1184)"
     gradientUnits="userSpaceOnUse" /><radialGradient
     inkscape:collect="always"
     xlink:href="#linearGradient51"
     id="radialGradient53-6"
     cx="369.59564"
     cy="671.18585"
     fx="369.59564"
     fy="671.18585"
     r="49.315395"
     gradientTransform="matrix(5.059623,-1.9744703,2.1326032,5.464842,-2680.1153,-1821.2087)"
     gradientUnits="userSpaceOnUse" /><radialGradient
     inkscape:collect="always"
     xlink:href="#linearGradient69"
     id="radialGradient71-4"
     cx="603.8075"
     cy="1598.5011"
     fx="603.8075"
     fy="1598.5011"
     r="135.30403"
     gradientTransform="matrix(-2.1948503,2.1948503,-2.0946648,-2.0946648,5468.7778,3040.868)"
     gradientUnits="userSpaceOnUse" /><radialGradient
     inkscape:collect="always"
     xlink:href="#linearGradient51"
     id="radialGradient53-6-4"
     cx="440.39548"
     cy="684.07599"
     fx="440.39554"
     fy="684.07599"
     r="49.315395"
     gradientTransform="matrix(5.0996867,-1.9901039,2.1325579,5.4648536,-3028.4207,-1778.0553)"
     gradientUnits="userSpaceOnUse" /><radialGradient
     inkscape:collect="always"
     xlink:href="#linearGradient69"
     id="radialGradient65-2"
     cx="986.96307"
     cy="1777.2234"
     fx="986.96307"
     fy="1777.2234"
     r="95.105995"
     gradientTransform="matrix(2.932019,0.77014756,-1.3822059,2.3940522,639.53486,-3644.9434)"
     gradientUnits="userSpaceOnUse" /><radialGradient
     inkscape:collect="always"
     xlink:href="#linearGradient69"
     id="radialGradient64-8"
     cx="706.32764"
     cy="1884.4808"
     fx="706.32764"
     fy="1884.4808"
     r="71.242676"
     gradientTransform="matrix(3.1341206,0.82323364,-1.2024363,2.0826807,785.67419,-3167.3798)"
     gradientUnits="userSpaceOnUse" /><radialGradient
     inkscape:collect="always"
     xlink:href="#linearGradient69"
     id="radialGradient66-6"
     cx="952.01184"
     cy="1875.6858"
     fx="952.01184"
     fy="1875.6858"
     r="93.381042"
     gradientTransform="matrix(3.7020967,-3.2352594,2.3888097,2.3888096,-6979.7273,11.396297)"
     gradientUnits="userSpaceOnUse" /><radialGradient
     inkscape:collect="always"
     xlink:href="#linearGradient5"
     id="radialGradient31-6-8"
     gradientUnits="userSpaceOnUse"
     gradientTransform="matrix(0.4305421,-1.8930761,1.6322502,0.37122249,-858.7933,1595.1554)"
     cx="698.48547"
     cy="642.83331"
     fx="698.48547"
     fy="642.83331"
     r="555.85223" /><radialGradient
     inkscape:collect="always"
     xlink:href="#linearGradient5"
     id="radialGradient31-7"
     gradientUnits="userSpaceOnUse"
     gradientTransform="matrix(-1.577296,0.5537792,0.4774801,1.3599778,1174.6432,-584.25767)"
     cx="253.5471"
     cy="733.10278"
     fx="253.5471"
     fy="733.10278"
     r="555.85223" /><radialGradient
     inkscape:collect="always"
     xlink:href="#linearGradient5"
     id="radialGradient31-6-8-6"
     gradientUnits="userSpaceOnUse"
     gradientTransform="matrix(-0.15959475,-1.9348471,1.668266,-0.13760596,-572.07621,1974.3199)"
     cx="373.1019"
     cy="255.38107"
     fx="373.1019"
     fy="255.38107"
     r="555.85223" /><radialGradient
     inkscape:collect="always"
     xlink:href="#linearGradient73"
     id="radialGradient74"
     cx="576.41235"
     cy="1546.8887"
     fx="576.41235"
     fy="1546.8887"
     r="251.97559"
     gradientTransform="matrix(3.2706056,1.2301594,-1.1167524,2.9690924,554.54326,-4448.7455)"
     gradientUnits="userSpaceOnUse" /><radialGradient
     inkscape:collect="always"
     xlink:href="#linearGradient5"
     id="radialGradient31-6-7-0"
     gradientUnits="userSpaceOnUse"
     gradientTransform="matrix(-1.7338057,-0.0306956,-0.02646651,1.494924,1298.2059,-670.82358)"
     cx="95.848305"
     cy="1057.7134"
     fx="95.848305"
     fy="1057.7134"
     r="555.85223" /><radialGradient
     inkscape:collect="always"
     xlink:href="#linearGradient5"
     id="radialGradient31-6-77"
     gradientUnits="userSpaceOnUse"
     gradientTransform="matrix(-1.6005999,-0.20641042,-0.17797142,1.380071,1284.5616,-586.50711)"
     cx="407.32083"
     cy="665.45312"
     fx="407.32083"
     fy="665.45312"
     r="555.85223" /><radialGradient
     inkscape:collect="always"
     xlink:href="#linearGradient5"
     id="radialGradient31-9"
     gradientUnits="userSpaceOnUse"
     gradientTransform="matrix(-1.3821206,-0.14429487,-0.12441407,1.1916935,1261.8311,-249.4321)"
     cx="253.5471"
     cy="733.10278"
     fx="253.5471"
     fy="733.10278"
     r="555.85223" /><radialGradient
     inkscape:collect="always"
     xlink:href="#linearGradient76"
     id="radialGradient31-6-8-7"
     gradientUnits="userSpaceOnUse"
     gradientTransform="matrix(-0.00905106,-1.6138288,1.3914773,-0.00780402,-402.10344,1690.8205)"
     cx="698.48547"
     cy="642.83331"
     fx="698.48547"
     fy="642.83331"
     r="555.85223" /><radialGradient
     inkscape:collect="always"
     xlink:href="#linearGradient5"
     id="radialGradient31-6-8-6-7"
     gradientUnits="userSpaceOnUse"
     gradientTransform="matrix(-0.494675,-1.5361712,1.3245192,-0.42651921,-98.37591,1943.607)"
     cx="373.1019"
     cy="255.38107"
     fx="373.1019"
     fy="255.38107"
     r="555.85223" /><radialGradient
     inkscape:collect="always"
     xlink:href="#linearGradient5"
     id="radialGradient31-7-6"
     gradientUnits="userSpaceOnUse"
     gradientTransform="matrix(-1.1722643,0.74624055,0.64342431,1.0107509,832.35024,-457.58154)"
     cx="253.5471"
     cy="733.10278"
     fx="253.5471"
     fy="733.10278"
     r="555.85223" /><inkscape:path-effect
     effect="fillet_chamfer"
     id="path-effect48-2"
     is_visible="true"
     lpeversion="1"
     nodesatellites_param="F,0,0,1,0,27.042843,0,1 @ F,0,0,1,0,0,0,1 @ F,0,0,1,0,0,0,1 @ F,0,0,1,0,0,0,1 @ F,0,0,1,0,0,0,1 @ F,0,0,1,0,0,0,1 @ F,0,0,1,0,0,0,1 @ F,0,0,1,0,0,0,1"
     radius="0"
     unit="px"
     method="auto"
     mode="F"
     chamfer_steps="1"
     flexible="false"
     use_knot_distance="true"
     apply_no_radius="true"
     apply_with_radius="true"
     only_selected="false"
     hide_knots="false" /><inkscape:path-effect
     effect="fillet_chamfer"
     id="path-effect48-29"
     is_visible="true"
     lpeversion="1"
     nodesatellites_param="F,0,0,1,0,27.042843,0,1 @ F,0,0,1,0,0,0,1 @ F,0,0,1,0,0,0,1 @ F,0,0,1,0,0,0,1 @ F,0,0,1,0,0,0,1 @ F,0,0,1,0,0,0,1 @ F,0,0,1,0,0,0,1 @ F,0,0,1,0,0,0,1"
     radius="0"
     unit="px"
     method="auto"
     mode="F"
     chamfer_steps="1"
     flexible="false"
     use_knot_distance="true"
     apply_no_radius="true"
     apply_with_radius="true"
     only_selected="false"
     hide_knots="false" /><radialGradient
     inkscape:collect="always"
     xlink:href="#linearGradient69"
     id="radialGradient65-2-0"
     cx="986.96307"
     cy="1777.2234"
     fx="986.96307"
     fy="1777.2234"
     r="95.105995"
     gradientTransform="matrix(2.8434233,0.38882339,-1.9686644,2.5738152,1838.8493,-3679.1244)"
     gradientUnits="userSpaceOnUse" /><radialGradient
     inkscape:collect="always"
     xlink:href="#linearGradient69"
     id="radialGradient64-8-6"
     cx="706.32764"
     cy="1884.4808"
     fx="706.32764"
     fy="1884.4808"
     r="71.242676"
     gradientTransform="matrix(3.039418,0.41562512,-1.7126197,2.2390637,1880.5037,-3220.567)"
     gradientUnits="userSpaceOnUse" /><radialGradient
     inkscape:collect="always"
     xlink:href="#linearGradient69"
     id="radialGradient71-4-0"
     cx="603.8075"
     cy="1598.5011"
     fx="603.8075"
     fy="1598.5011"
     r="135.30403"
     gradientTransform="matrix(-1.9969856,2.3762963,-2.2678285,-1.9058318,5681.8871,2582.1674)"
     gradientUnits="userSpaceOnUse" /><radialGradient
     inkscape:collect="always"
     xlink:href="#linearGradient69"
     id="radialGradient66-6-6"
     cx="952.01184"
     cy="1875.6858"
     fx="952.01184"
     fy="1875.6858"
     r="93.381042"
     gradientTransform="matrix(4.5489762,-3.7167361,1.9152953,2.0781326,-6839.3184,968.13956)"
     gradientUnits="userSpaceOnUse" /><inkscape:path-effect
     effect="fillet_chamfer"
     id="path-effect48-3"
     is_visible="true"
     lpeversion="1"
     nodesatellites_param="F,0,0,1,0,27.042843,0,1 @ F,0,0,1,0,0,0,1 @ F,0,0,1,0,0,0,1 @ F,0,0,1,0,0,0,1 @ F,0,0,1,0,0,0,1 @ F,0,0,1,0,0,0,1 @ F,0,0,1,0,0,0,1 @ F,0,0,1,0,0,0,1"
     radius="0"
     unit="px"
     method="auto"
     mode="F"
     chamfer_steps="1"
     flexible="false"
     use_knot_distance="true"
     apply_no_radius="true"
     apply_with_radius="true"
     only_selected="false"
     hide_knots="false" /><filter
     inkscape:collect="always"
     style="color-interpolation-filters:sRGB"
     id="filter34"
     x="-0.036579394"
     y="-0.037532835"
     width="1.0712037"
     height="1.0741898"><feGaussianBlur
       inkscape:collect="always"
       stdDeviation="18.969796"
       id="feGaussianBlur34" /></filter></defs><sodipodi:namedview
   id="namedview11"
   pagecolor="#2f2f2f"
   bordercolor="#000000"
   borderopacity="0.25"
   inkscape:showpageshadow="2"
   inkscape:pageopacity="0.0"
   inkscape:pagecheckerboard="0"
   inkscape:deskcolor="#d1d1d1"
   inkscape:zoom="0.62607062"
   inkscape:cx="716.37286"
   inkscape:cy="608.55755"
   inkscape:window-width="1920"
   inkscape:window-height="1028"
   inkscape:window-x="0"
   inkscape:window-y="0"
   inkscape:window-maximized="1"
   inkscape:current-layer="Colour" />
<style
   type="text/css"
   id="style1">
	.st0{fill:#333333;}
	.st1{fill:#333333;stroke:#333333;stroke-width:10;stroke-miterlimit:10;}
	.st2{fill:#618DFF;stroke:#618DFF;stroke-width:10;stroke-miterlimit:10;}
	.st3{fill:#7ADFFF;stroke:#7ADFFF;stroke-width:10;stroke-miterlimit:10;}
	.st4{fill:#94BEFF;stroke:#94BEFF;stroke-width:10;stroke-miterlimit:10;}
	.st5{fill:#7FEEFF;}
</style>
<g
   id="Colour">
	
	
	
	
	
	
	
	
	
	
	
<g
   id="g35"
   transform="matrix(1.0359929,0,0,1.0359929,-26.954401,-26.967264)"><path
     style="fill:url(#radialGradient71-4-0);fill-opacity:1;stroke:none;stroke-width:0;stroke-linecap:round;stroke-linejoin:round;stroke-dasharray:none"
     d="m 834.81123,956.84374 c 0,0 7.03945,62.01836 44.393,134.74766 37.35361,72.7294 61.85847,122.9093 62.51301,141.7164 0.65469,18.807 31.64751,28.5024 31.64751,28.5024 l 34.21125,10.377 c 0,0 -14.55961,-8.9975 -34.51016,-42.907 -19.95043,-33.9096 -62.53728,-121.8938 -73.67767,-155.7928 -11.14044,-33.8985 -26.67495,-76.61262 -35.28966,-97.80138 -8.61456,-21.18897 -29.28728,-18.84228 -29.28728,-18.84228 z"
     id="path53-1-1-7" /><path
     style="fill:url(#radialGradient65-2-0);fill-opacity:1;stroke:none;stroke-width:0;stroke-linecap:round;stroke-linejoin:round;stroke-dasharray:none"
     d="m 966.54293,1229.6622 c -56.24184,-9.1618 -46.64755,26.1515 -6.90453,29.6279 26.23384,2.2947 54.6956,7.0256 76.4997,7.8146 21.8043,0.7887 30.0389,0.7694 51.6272,-6.239 16.5331,-5.3673 28.1764,17.891 28.1764,17.891 0,0 -6.5911,-45.4601 -44.642,-36.9614 -38.0508,8.4986 -46.4302,-3.8759 -55.8401,-5.676 -9.4101,-1.8001 -48.91667,-6.4571 -48.91667,-6.4571 z"
     id="path54-6-5-1"
     sodipodi:nodetypes="cssscssc" /><path
     style="fill:url(#radialGradient64-8-6);fill-opacity:1;stroke:none;stroke-width:0;stroke-linecap:round;stroke-linejoin:round;stroke-dasharray:none"
     d="m 948.95107,1261.1791 c -23.88627,2.7501 -87.44184,7.7617 -101.0718,1.6316 -10.4382,-4.6948 -51.0471,19.8665 -51.0471,19.8665 0,0 62.71067,-47.1884 91.47483,-40.3556 28.76433,6.8326 46.2809,-21.0585 56.96105,-21.0525 21.58849,0.012 69.10785,32.3776 3.68302,39.91 z"
     id="path54-6-6-6-3-0-8"
     sodipodi:nodetypes="sscsss" /><path
     style="fill:url(#radialGradient66-6-6);fill-opacity:1;stroke:none;stroke-width:0;stroke-linecap:round;stroke-linejoin:round;stroke-dasharray:none"
     d="m 969.89017,1239.0735 c -51.6281,-14.8578 -46.94465,23.2565 -10.09561,30.5954 24.32354,4.8444 50.43894,12.4629 70.79184,15.3105 20.3533,2.8472 28.0786,3.5881 49.182,-1.8043 16.1616,-4.1298 24.2398,21.4656 24.2398,21.4656 0,0 -0.6271,-48.5336 -37.3524,-43.0918 -36.7249,5.4414 -43.0718,-8.3784 -51.6772,-11.1461 -8.6054,-2.7676 -45.08843,-11.3293 -45.08843,-11.3293 z"
     id="path54-6-6-4-9"
     sodipodi:nodetypes="cssscssc" /><path
     d="M 474.68328,696.36543 C 458.7502,642.67101 208.57641,249.90321 100.98457,108.06036 c 32.83118,9.04467 67.48747,9.84932 99.66978,4.63669 140.45292,183.06526 371.59862,659.5465 375.61145,666.73368"
     style="baseline-shift:baseline;display:inline;overflow:visible;fill:url(#radialGradient31-6-7);stroke:#7adfff;stroke-width:0;stroke-miterlimit:10;enable-background:accumulate;stop-color:#000000"
     id="path1-7-2-6"
     sodipodi:nodetypes="cccc" /><path
     d="M 596.22222,705.85996 C 558.40472,669.98649 338.1585,296.73235 265.89619,147.63181 c -6.35058,31.05046 -20.30653,60.13799 -38.20996,84.63435 92.59133,193.75364 331.47145,541.58688 335.74011,547.94819"
     style="baseline-shift:baseline;display:inline;overflow:visible;fill:url(#radialGradient31-6);stroke:#7adfff;stroke-width:0;stroke-miterlimit:10;enable-background:accumulate;stop-color:#000000"
     id="path1-7-2" /><path
     d="M 502.15586,762.30276 C 493.14492,718.33325 301.24134,432.26917 225.14174,311.59092 c 25.58696,9.48942 53.20037,12.52623 79.25432,10.588 99.48738,155.86017 278.76488,528.8121 281.47209,534.82727"
     style="baseline-shift:baseline;display:inline;overflow:visible;fill:url(#radialGradient31);stroke:#7adfff;stroke-width:0;stroke-miterlimit:10;enable-background:accumulate;stop-color:#000000"
     id="path1-7"
     sodipodi:nodetypes="cccc" /><path
     d="M 639.29831,754.75594 C 601.48082,718.88247 597.26396,696.37666 525.00166,547.27608 518.65108,578.32663 504.69513,607.4141 486.7917,631.91047 579.38303,825.6641 602.23376,822.74902 606.50242,829.11044"
     style="baseline-shift:baseline;display:inline;overflow:visible;fill:url(#radialGradient31-6-8);stroke:#7adfff;stroke-width:0;stroke-miterlimit:10;enable-background:accumulate;stop-color:#000000"
     id="path1-7-2-61"
     sodipodi:nodetypes="cccc" /><path
     d="M 603.35059,721.75397 C 556.48484,698.93579 545.6856,678.74488 431.87318,558.33079 c 3.29593,31.52147 -1.25163,63.46159 -10.94609,92.21271 146.64586,156.87119 167.55768,147.20933 173.54403,151.98985"
     style="baseline-shift:baseline;display:inline;overflow:visible;fill:url(#radialGradient31-6-8-6);stroke:#7adfff;stroke-width:0;stroke-miterlimit:10;enable-background:accumulate;stop-color:#000000"
     id="path1-7-2-61-4"
     sodipodi:nodetypes="cccc" /><path
     d="M 411.35782,610.80431 C 394.19933,571.01574 166.03576,292.20828 70.390029,193.10061 c 26.049369,3.94056 52.746041,1.38397 76.991051,-5.56838 124.666,127.76463 327.65393,413.82966 331.39488,418.98319"
     style="baseline-shift:baseline;display:inline;overflow:visible;fill:url(#radialGradient31-6-77);stroke:#7adfff;stroke-width:0;stroke-miterlimit:10;enable-background:accumulate;stop-color:#000000"
     id="path1-7-2-5" /><path
     d="m 523.69291,742.58404 c -34.39358,-28.83736 24.71714,6.82815 -109.91378,-40.3831 25.94074,-8.47472 49.45712,-23.26323 68.6591,-40.97907 174.82206,60.22761 88.82159,41.92868 94.68168,44.95711"
     style="baseline-shift:baseline;display:inline;overflow:visible;fill:url(#radialGradient31-7);stroke:#7adfff;stroke-width:0;stroke-miterlimit:10;enable-background:accumulate;stop-color:#000000"
     id="path1-7-0"
     sodipodi:nodetypes="cccc" /><path
     d="M 507.61159,711.33891 C 484.57081,670.88128 207.85662,400.17977 93.964702,305.67708 c 28.286308,1.12035 56.493618,-4.77461 81.561548,-15.07338 148.28057,121.6664 425.40378,463.7307 430.0099,468.7909"
     style="baseline-shift:baseline;display:inline;overflow:visible;fill:url(#radialGradient31-6-7-0);stroke:#7adfff;stroke-width:0;stroke-miterlimit:10;enable-background:accumulate;stop-color:#000000"
     id="path1-7-2-6-6"
     sodipodi:nodetypes="cccc" /><path
     d="m 542.30656,759.52786 c -15.60015,-33.89259 -224.98729,-229.2209 -309.38745,-312.539 22.5059,2.84884 45.43342,0.0912 66.15878,-6.39931 109.97887,107.38123 325.55729,375.43288 328.88508,379.79101"
     style="baseline-shift:baseline;display:inline;overflow:visible;fill:url(#radialGradient31-9);stroke:#7adfff;stroke-width:0;stroke-miterlimit:10;enable-background:accumulate;stop-color:#000000"
     id="path1-7-6"
     sodipodi:nodetypes="cccc" /><path
     d="M 651.902,727.51338 C 614.51136,705.6161 606.84652,688.19344 520.18399,581.14184 c 0.72422,26.33593 -5.07918,52.51931 -14.94531,75.73173 111.5541,139.35966 129.50183,132.68341 134.15906,137.0268"
     style="baseline-shift:baseline;display:inline;overflow:visible;fill:url(#radialGradient31-6-8-7);stroke:#7adfff;stroke-width:0;stroke-miterlimit:10;enable-background:accumulate;stop-color:#000000"
     id="path1-7-2-61-3"
     sodipodi:nodetypes="cccc" /><path
     d="m 616.5674,707.58743 c -42.24943,-9.61939 -54.80565,-23.92465 -169.68559,-99.90517 8.62232,24.89499 10.97418,51.61047 8.5571,76.71654 148.34608,99.2917 163.44978,87.52011 169.1989,90.25931"
     style="baseline-shift:baseline;display:inline;overflow:visible;fill:url(#radialGradient31-6-8-6-7);stroke:#7adfff;stroke-width:0;stroke-miterlimit:10;enable-background:accumulate;stop-color:#000000"
     id="path1-7-2-61-4-9"
     sodipodi:nodetypes="cccc" /><path
     d="m 556.01672,739.49677 c -33.2898,-16.84795 21.29908,0.85869 -96.60659,-11.92942 19.39901,-11.7606 35.64278,-28.17449 47.84098,-46.14301 152.90032,15.73351 79.82378,17.16477 85.13977,18.50943"
     style="baseline-shift:baseline;display:inline;overflow:visible;fill:url(#radialGradient31-7-6);stroke:#7adfff;stroke-width:0;stroke-miterlimit:10;enable-background:accumulate;stop-color:#000000"
     id="path1-7-0-4"
     sodipodi:nodetypes="cccc" /><path
     style="fill:url(#radialGradient53-6);fill-opacity:1;stroke:none;stroke-width:0;stroke-linecap:round;stroke-linejoin:round;stroke-dasharray:none"
     d="m 819.07431,984.47507 6.44684,52.51183 c 0,0 -18.77949,34.2137 14.68481,34.2692 33.46433,0.056 52.21601,-3.9831 64.69402,-17.3774 12.47806,-13.3939 -3.99733,-10.2431 -5.85718,-31.8125 -1.85981,-21.5693 10.72928,-48.12141 10.72928,-48.12141 l -21.014,-37.0454 -33.99179,8.67481 z"
     id="path52-5"
     sodipodi:nodetypes="ccssscccc" /><path
     style="fill:url(#radialGradient74);stroke:none;stroke-width:0;stroke-linecap:round;stroke-linejoin:round;stroke-dasharray:none"
     d="m 1428.61,623.23134 c 0,0 -16.3216,-26.44137 -52.6211,-28.50671 -36.2997,-2.06534 -43.6698,-4.05831 -59.6469,-10.9812 -15.9772,-6.92291 -38.1547,-27.73395 -107.031,-37.49209 -68.8766,-9.75793 -76.0311,-11.57277 -146.588,6.66845 -70.55692,18.24191 -98.98762,20.52045 -111.9165,25.42844 -12.9289,4.90821 -92.77745,17.3571 -109.2851,25.26903 -16.50766,7.91205 142.58717,79.25698 142.58717,79.25698 l -6.35556,150.63724 66.40169,116.94135 c 0,0 47.1895,-19.22034 83.8372,-53.26456 36.6477,-34.04422 24.2934,-48.55274 24.2934,-48.55274 0,0 85.5497,-99.26341 126.7689,-150.181 13.1147,-16.2004 10.4217,-31.00217 28.683,-46.3225 19.5355,-16.38934 19.9812,-15.34666 37.5362,-17.72483 17.5547,-2.37819 43.1141,-11.11546 56.9001,-12.20716 13.7858,-1.09172 26.4365,1.0313 26.4365,1.0313 z"
     id="path42"
     sodipodi:nodetypes="csssssscccscssssc" /><path
     style="fill:url(#radialGradient65-2);fill-opacity:1;stroke:none;stroke-width:0;stroke-linecap:round;stroke-linejoin:round;stroke-dasharray:none"
     d="m 885.72358,1295.8613 c -58.3294,-16.7478 -40.68879,20.8597 -0.15365,29.6079 26.75671,5.7746 56.29641,14.3473 78.28035,17.9954 21.984,3.6478 30.21417,4.6989 50.20552,0.2905 15.3101,-3.3761 32.253,22.0857 32.253,22.0857 0,0 -16.9495,-47.6645 -53.06385,-43.8627 -36.11432,3.8018 -47.31329,-10.0292 -57.13345,-13.1065 -9.82019,-3.0772 -50.38792,-13.0103 -50.38792,-13.0103 z"
     id="path54-6-5"
     sodipodi:nodetypes="cssscssc" /><path
     style="fill:url(#radialGradient64-8);fill-opacity:1;stroke:none;stroke-width:0;stroke-linecap:round;stroke-linejoin:round;stroke-dasharray:none"
     d="m 875.31303,1326.0243 c -23.25966,-0.275 -85.6733,-3.3806 -100.70004,-11.465 -11.50792,-6.1914 -46.5204,13.8163 -46.5204,13.8163 0,0 51.95853,-40.4309 82.27958,-29.6547 30.32117,10.776 41.4826,-15.6635 52.16412,-14.2683 21.59128,2.8203 76.4852,42.3249 12.77674,41.5717 z"
     id="path54-6-6-6-3-0"
     sodipodi:nodetypes="sscsss" /><path
     style="fill:url(#radialGradient71-4);fill-opacity:1;stroke:none;stroke-width:0;stroke-linecap:round;stroke-linejoin:round;stroke-dasharray:none"
     d="m 780.27431,1002.7914 c 0,0 1.65416,62.3947 32.58351,138.0797 30.92942,75.685 51.00661,127.7947 50.0336,146.588 -0.97286,18.7932 29.06627,31.1304 29.06627,31.1304 l 33.18661,13.2944 c 0,0 -13.72768,-10.2219 -30.67352,-45.7285 -16.9457,-35.5067 -51.77062,-126.8417 -59.94016,-161.5765 -8.16962,-34.7344 -19.95513,-78.6311 -26.70672,-100.485 -6.75141,-21.8541 -27.54959,-21.3025 -27.54959,-21.3025 z"
     id="path53-1-1" /><path
     style="fill:url(#radialGradient66-6);fill-opacity:1;stroke:none;stroke-width:0;stroke-linecap:round;stroke-linejoin:round;stroke-dasharray:none"
     d="m 891.21523,1305.9868 c -55.01354,-22.0126 -41.64552,17.8403 -3.12427,30.1891 25.42738,8.1514 53.27866,19.3921 74.28051,24.9711 21.00201,5.5786 28.89611,7.3462 48.77073,4.5386 15.2206,-2.1503 29.1309,25.2542 29.1309,25.2542 0,0 -11.6858,-50.0534 -47.17104,-49.2267 -35.48515,0.8264 -44.9809,-14.2284 -54.21694,-18.1972 -9.23602,-3.9688 -47.66989,-17.5291 -47.66989,-17.5291 z"
     id="path54-6-6-4"
     sodipodi:nodetypes="cssscssc" /><path
     style="fill:url(#radialGradient53-6-4);fill-opacity:1;stroke:none;stroke-width:0;stroke-linecap:round;stroke-linejoin:round;stroke-dasharray:none"
     d="m 781.32278,981.97276 -29.55141,52.78904 c 0,0 -21.07538,32.8494 12.30685,35.1933 33.38213,2.3442 52.36618,-0.403 65.73093,-12.9124 13.36477,-12.5093 -3.28756,-10.4926 -3.66798,-32.1386 -0.38051,-21.6461 13.99497,-47.27492 13.99497,-47.27492 l -18.4314,-38.39591 -34.50551,6.32987 z"
     id="path52-5-4" /><path
     style="fill:url(#radialGradient45);stroke:none;stroke-width:0;stroke-linecap:round;stroke-linejoin:round;stroke-dasharray:none"
     d="m 544.67734,797.92174 c 47.8846,193.13127 271.18668,228.80616 454.97137,171.35668 42.50419,-13.28636 51.36219,-21.44689 70.70949,-32.05445 28.7016,-15.73623 -27.7271,-43.40274 -28.2533,-78.55811 -0.5469,-36.54761 52.7831,-99.76088 21.3211,-125.59443 -31.4618,-25.83342 -197.28924,-36.45897 -278.48447,-27.11188 -81.19521,9.34698 -156.18557,6.92382 -197.35777,25.7831 -41.17215,18.8593 -51.93867,29.74964 -42.90642,66.17909 z"
     id="path40"
     sodipodi:nodetypes="ssssssss" /><path
     style="fill:url(#radialGradient46);stroke:none;stroke-width:0;stroke-linecap:round;stroke-linejoin:round;stroke-dasharray:none"
     d="m 1290.1022,622.95469 c 11.6639,9.15265 5.6242,49.71282 -5.9577,68.3173 -11.5819,18.6046 -16.1704,20.44952 -39.6029,51.82937 -23.4325,31.37984 -77.5273,106.69002 -100.295,136.84159 -25.6853,34.01525 -66.122,18.52456 -65.8041,-21.64262 0.1587,-20.05734 0.4027,-60.97096 7.3994,-82.21495 6.9966,-21.24399 5.975,-28.66939 19.6958,-46.58394 13.7207,-17.91455 31.4158,-40.91352 61.0272,-54.14812 29.6113,-13.2346 83.175,-33.7305 103.3554,-41.07576 20.1805,-7.34514 9.6722,-5.67829 20.1819,-11.32287 z"
     id="path39"
     sodipodi:nodetypes="czzzzzzzzc" /><path
     style="fill:url(#radialGradient48);stroke:none;stroke-width:0;stroke-linecap:round;stroke-linejoin:round;stroke-dasharray:none"
     d="m 1290.1612,622.84854 c -19.2145,-2.9752 -43.3209,1.87677 -60.2169,12.77312 -21.7591,10.64933 -49.8256,9.76471 -69.1542,-5.72416 -11.1784,-8.21396 -15.1499,-24.92963 -29.5029,-28.81657 -28.6405,-1.56115 -57.5618,-9.58207 -86.1999,-3.68762 -49.14424,9.28786 -24.5542,90.84372 37.5747,133.29122 16.3958,10.63004 20.3386,15.19367 27.4317,10.00413 38.4737,-28.14851 57.6653,-38.52137 128.5238,-72.64022 36.5507,-17.59941 43.7093,-28.50622 51.5437,-45.1999 z"
     id="path37"
     sodipodi:nodetypes="ccccccssc" /><path
     style="fill:url(#radialGradient47);stroke:none;stroke-width:0;stroke-linecap:round;stroke-linejoin:round;stroke-dasharray:none"
     d="m 1324.2729,586.91245 c -12.2331,-31.32364 -35.2395,-57.85343 -62.0603,-77.69599 -23.6672,-16.44648 -53.6714,-14.76784 -81.1619,-16.12383 -51.6708,-0.36332 -104.2188,9.51317 -150.4973,33.01165 -25.3338,12.90983 -44.64851,34.7827 -70.2081,47.3833 -35.7051,16.10044 19.27199,39.79332 34.19563,46.08927 9.12087,4.71482 5.95507,-14.03451 13.75157,-20.34834 16.7014,-13.52482 37.7996,-17.94604 57.9001,-14.38621 19.0217,3.5928 37.3257,-3.71191 54.4437,-11.11044 19.9835,-9.24829 42.4969,-7.76618 63.4451,-3.1243 22.1532,4.50378 44.4135,11.45326 62.6454,25.24507 16.291,8.47186 36.0204,11.26966 53.8958,6.94599 8.8038,-3.71208 16.3556,-9.83339 23.6503,-15.88617 z"
     id="path38"
     sodipodi:nodetypes="ccccccscccccc" /><path
     style="fill:url(#radialGradient44-7);stroke:none;stroke-width:0;stroke-linecap:round;stroke-linejoin:round;stroke-dasharray:none"
     d="m 572.25592,706.26278 c 0,0 -25.13438,10.14546 -49.79441,37.34642 -24.66,27.20107 -41.06355,32.6121 -63.74009,50.49465 -22.67657,17.88243 -45.77379,35.01707 -79.15724,54.7817 -31.26389,18.50969 -43.36718,33.2068 -43.36718,33.2068 0,0 70.27012,-35.46178 191.41039,-34.09636 121.14023,1.36518 165.65612,19.91072 236.23129,27.13267 77.40596,7.92131 126.82712,-1.81325 173.0357,-8.73143 94.97082,-14.2187 85.25142,-75.90316 85.25142,-75.90316 0,0 -39.22263,-75.41964 -80.98856,-98.82603 -41.76596,-23.40627 -204.05947,-26.14739 -204.05947,-26.14739 z"
     id="path41-2"
     sodipodi:nodetypes="cssscssscscc" /><path
     style="fill:url(#radialGradient44);stroke:none;stroke-width:0;stroke-linecap:round;stroke-linejoin:round;stroke-dasharray:none"
     d="m 537.80002,695.42426 c 0,0 -23.00043,11.84227 -44.12387,40.63744 -21.12344,28.79528 -36.23556,35.31869 -56.25652,54.69629 -20.02098,19.37782 -40.50369,38.03983 -70.52662,60.03247 -28.11671,20.59628 -38.37157,36.07036 -38.37157,36.07036 0,0 63.71022,-40.17657 178.77033,-47.19513 115.06007,-7.01844 154.8414,-0.68083 222.41195,1.63073 74.11058,2.53534 172.04208,2.16344 226.35455,-7.63286 -14.04864,-69.0105 -14.86681,-98.52537 -14.86681,-98.52537 0,0 -13.00506,-59.3387 -54.59349,-79.76088 C 845.00951,634.95514 690.7854,643.44955 690.7854,643.44955 Z"
     id="path41"
     sodipodi:nodetypes="cssscssccscc" /><path
     style="fill:url(#radialGradient43);stroke:none;stroke-width:0;stroke-linecap:round;stroke-linejoin:round;stroke-dasharray:none"
     d="m 611.32463,945.23929 c 15.57884,24.77575 39.29039,44.32402 56.45731,68.10141 9.60711,15.3429 27.80677,39.261 32.0755,52.6832 -20.90563,-9.2247 -31.4991,-4.149 -40.12845,7.1838 -11.3605,17.066 3.32611,47.0065 -24.81577,52.3083 -28.5153,9.9466 -59.49534,8.3396 -89.34472,7.8936 -1.13973,-66.2491 -109.61564,-146.54217 -186.27341,-144.6188 -143.72877,3.60622 -195.60081,61.573 -196.8291,49.2357 123.12827,-126.91142 271.93079,-130.82551 410.36091,-119.52969 14.88578,1.21467 30.5686,14.1324 38.49773,26.74248 z"
     id="path36"
     inkscape:path-effect="#path-effect48"
     inkscape:original-d="m 599.76518,920.87071 c 12.08231,37.62528 45.61956,61.4483 68.01676,92.46999 9.60711,15.3429 27.80677,39.261 32.0755,52.6832 -20.90563,-9.2247 -31.4991,-4.149 -40.12845,7.1838 -11.3605,17.066 3.32611,47.0065 -24.81577,52.3083 -28.5153,9.9466 -59.49534,8.3396 -89.34472,7.8936 -1.13973,-66.2491 -109.61564,-146.54217 -186.27341,-144.6188 -143.72877,3.60622 -195.60081,61.573 -196.8291,49.2357 C 293.62331,902.83934 453.91242,907.21353 599.76518,920.87071 Z"
     sodipodi:nodetypes="ccccccscc"
     transform="matrix(1.1523663,-0.12758374,0.12758374,1.1523663,128.3935,-396.64901)" /><path
     id="path51-0"
     style="fill:#121212;fill-opacity:1;stroke:none;stroke-width:0;stroke-linecap:round;stroke-linejoin:round;stroke-dasharray:none"
     d="m 1193.3182,577.20802 a 41.868706,41.868706 0 0 0 -23.6537,3.37382 30.535823,30.535823 0 0 0 -7.1905,15.39544 30.535823,30.535823 0 0 0 25.5749,34.79326 30.535823,30.535823 0 0 0 34.7969,-25.57417 30.535823,30.535823 0 0 0 0.1725,-7.81983 41.868706,41.868706 0 0 0 -29.7001,-20.16852 z" /><path
     id="path51-6-0"
     style="fill:#000000;fill-opacity:1;stroke:none;stroke-width:0;stroke-linecap:round;stroke-linejoin:round;stroke-dasharray:none"
     d="m 1193.2758,580.56917 a 36.52875,36.52875 0 0 0 -20.637,2.94379 26.641269,26.641269 0 0 0 -6.2734,13.43144 26.641269,26.641269 0 0 0 22.3132,30.35588 26.641269,26.641269 0 0 0 30.3588,-22.31262 26.641269,26.641269 0 0 0 0.1505,-6.82209 36.52875,36.52875 0 0 0 -25.9121,-17.5964 z" /><path
     id="path51"
     style="opacity:0.600704;mix-blend-mode:normal;fill:#ffffff;fill-opacity:1;stroke:none;stroke-width:0;stroke-linecap:round;stroke-linejoin:round;stroke-dasharray:none"
     d="m 1211.8739,593.19226 a 10.018486,10.018486 0 0 0 -5.6599,0.80718 7.3067151,7.3067151 0 0 0 -1.7206,3.68389 7.3067151,7.3067151 0 0 0 6.1197,8.32553 7.3067151,7.3067151 0 0 0 8.3263,-6.11963 7.3067151,7.3067151 0 0 0 0.041,-1.87112 10.018486,10.018486 0 0 0 -7.1068,-4.82585 z" /><g
     id="g34"
     style="stroke:#000000;stroke-width:3;stroke-dasharray:none;stroke-opacity:1;filter:url(#filter34)"
     transform="translate(-863.84281,386.2048)"><path
       d="m 1759.9652,675.66121 c -7.0188,4.21378 -15.664,6.80347 -26.6856,8.23242 3.1951,7.11802 6.6794,14.39969 10.4766,21.79297 31.8496,62.01293 54.358,107.63289 60.705,131.38867 1.9543,-1.06787 3.7344,-1.71185 5.3575,-1.71094 7.2935,0.004 17.5461,3.70055 25.4043,8.88477 0.9231,0.11076 1.9776,0.23673 3.1367,0.37695 -0.2463,-0.41378 -0.4942,-0.83051 -0.7422,-1.25195 -19.9504,-33.9096 -62.5373,-121.89397 -73.6777,-155.79297 -1.2729,-3.87301 -2.6039,-7.86202 -3.9746,-11.91992 z"
       style="fill:none;stroke:#000000;stroke-width:3;stroke-linecap:round;stroke-linejoin:round;stroke-dasharray:none;stroke-opacity:1"
       id="path34" /><path
       d="m 1835.223,844.2491 c 5.2422,3.45845 9.4193,7.57902 10.9394,11.70703 11.4575,2.75299 27.9453,6.79725 33.3672,8.54101 8.6054,2.7677 14.9528,16.58789 51.6777,11.14649 5.9508,-0.88177 10.9541,-0.34652 15.1602,1.16992 1.8732,-0.55547 3.8478,-1.17132 5.9492,-1.85352 16.5331,-5.3673 28.1758,17.89063 28.1758,17.89063 0,0 -6.5917,-45.45964 -44.6426,-36.96094 -38.0508,8.4986 -46.4299,-3.87568 -55.8398,-5.67578 -7.5412,-1.44258 -34.4115,-4.71993 -44.7871,-5.96484 z"
       style="fill:none;stroke:#000000;stroke-width:3;stroke-linecap:round;stroke-linejoin:round;stroke-dasharray:none;stroke-opacity:1"
       id="path33" /><path
       d="m 1809.8187,835.36433 c -10.6801,-0.006 -28.1967,27.88533 -56.961,21.05273 -3.7342,-0.88704 -8.04,-0.86281 -12.707,-0.15039 3.3644,8.37134 6.6378,16.29462 9.6914,23.44922 19.2822,-0.43841 41.3636,-2.15556 56.0957,-3.63281 -13.7484,-9.98566 -13.8047,-24.98561 5.2422,-26.23828 1.47,-0.0967 3.0538,-0.11103 4.7539,-0.0352 5.1004,0.22763 11.2476,1.27 18.5078,3.35938 0,0 4.9936,1.17071 11.7207,2.78711 -3.7987,-10.31589 -24.1846,-20.58504 -36.3437,-20.5918 z m -90.9453,27.39453 c -27.8656,11.72216 -57.4903,34.01367 -57.4903,34.01367 0,0 40.6087,-24.56198 51.0469,-19.86718 2.4043,1.08135 6.3631,1.81577 11.3828,2.27734 -1.316,-4.91445 -2.9713,-10.39704 -4.9394,-16.42383 z"
       style="fill:none;stroke:#000000;stroke-width:3;stroke-linecap:round;stroke-linejoin:round;stroke-dasharray:none;stroke-opacity:1"
       id="path32" /><path
       d="m 1815.9339,849.80964 c -1.7001,-0.0759 -3.2839,-0.0615 -4.7539,0.0352 -25.4801,1.67577 -16.7738,27.95511 13.166,33.91797 24.3236,4.8444 50.4381,12.46294 70.791,15.31054 20.3533,2.84721 28.0783,3.58967 49.1817,-1.80273 16.1616,-4.1298 24.2402,21.46484 24.2402,21.46484 0,0 -0.6263,-48.53359 -37.3516,-43.09179 -36.7249,5.4414 -43.0723,-8.37879 -51.6777,-11.14649 -8.6054,-2.7676 -45.0879,-11.32812 -45.0879,-11.32812 -7.2602,-2.08938 -13.4074,-3.13175 -18.5078,-3.35938 z"
       style="fill:none;stroke:#000000;stroke-width:3;stroke-linecap:round;stroke-linejoin:round;stroke-dasharray:none;stroke-opacity:1"
       id="path31" /><path
       d="m 965.53547,-277.84465 c 23.9547,31.5806 54.97843,75.59888 88.91013,125.54492 23.5077,26.63631 48.4168,56.485531 73.3653,87.388668 3.7762,0.508725 7.5581,0.901999 11.3359,1.185547 -17.8393,-32.114244 -33.8336,-62.550375 -46.9102,-89.914065 9.9142,-13.56512 18.6179,-28.53795 25.4903,-44.47265 -18.4096,-28.23473 -36.0863,-53.67419 -52.5215,-75.0957 -32.1823,5.21263 -66.83873,4.40795 -99.66993,-4.63672 z"
       style="baseline-shift:baseline;display:inline;overflow:visible;fill:none;stroke:#000000;stroke-width:3;stroke-miterlimit:10;stroke-dasharray:none;stroke-opacity:1;enable-background:accumulate;stop-color:#000000"
       id="path30" /><path
       d="m 1130.4476,-238.27434 c -6.3506,31.05046 -20.3076,60.1384 -38.211,84.63476 13.0766,27.36369 29.0709,57.799821 46.9102,89.914065 10.0268,0.752578 20.0234,0.727368 29.8008,0 32.1945,50.436947 72.7449,123.607793 112.9629,199.720705 36.1012,49.00593 60.1509,82.87249 61.416,84.61523 l -1.5586,0.0996 c 0.5555,0.64592 1.1108,1.28981 1.664,1.9336 4.8615,5.23922 9.4554,10.20152 13.8086,14.90625 8.0844,-12.14907 15.1794,-25.27296 20.8887,-39.08789 -82.0471,-132.177192 -198.7672,-335.81002 -247.6816,-436.73633 z"
       style="baseline-shift:baseline;display:inline;overflow:visible;fill:none;stroke:#000000;stroke-width:3;stroke-miterlimit:10;stroke-dasharray:none;stroke-opacity:1;enable-background:accumulate;stop-color:#000000"
       id="path29" /><path
       d="m 1127.8109,-64.911062 c 56.4276,69.8959004 113.0528,145.1871 154.0996,200.906252 -40.218,-76.112912 -80.7684,-149.283758 -112.9629,-199.720705 -13.4612,1.001418 -27.3376,0.673411 -41.1367,-1.185547 z m 225.0175,409.421872 c 0.3038,0.57899 0.6034,1.15125 0.8985,1.71875 0.5076,-0.50581 1.0166,-1.00947 1.5254,-1.51171 -0.7949,-0.0671 -1.6034,-0.13571 -2.4239,-0.20704 z"
       style="baseline-shift:baseline;display:inline;overflow:visible;fill:none;stroke:#000000;stroke-width:3;stroke-miterlimit:10;stroke-dasharray:none;stroke-opacity:1;enable-background:accumulate;stop-color:#000000"
       id="path28" /><path
       d="m 1389.553,161.37019 c -5.6346,27.55045 -17.2578,53.55581 -32.3125,76.17969 6.4706,6.99296 12.4093,13.41693 17.9024,19.33593 6.552,-19.48061 10.1729,-40.51455 9.5918,-61.64843 21.6564,26.75158 38.3801,47.90565 51.8672,64.93164 -11.8145,-25.00926 -26.7458,-56.90705 -47.0489,-98.79883 z"
       style="baseline-shift:baseline;display:inline;overflow:visible;fill:none;stroke:#000000;stroke-width:3;stroke-miterlimit:10;stroke-dasharray:none;stroke-opacity:1;enable-background:accumulate;stop-color:#000000"
       id="path27" /><path
       d="m 1343.4319,222.64363 c 10.7935,12.55879 21.1657,24.71046 31.0059,36.29883 0.2384,-0.68341 0.4739,-1.3693 0.7051,-2.05665 -9.1887,-9.90118 -19.6236,-21.21553 -31.711,-34.24218 z m -53.0429,25.4375 c -1.4424,5.61586 -3.0847,11.14284 -4.9102,16.55664 11.3058,12.09414 21.8647,23.19908 31.7266,33.39648 1.0062,-0.62588 2.0053,-1.26116 2.998,-1.90429 0.4931,-5.87118 0.7245,-11.82354 0.6758,-17.81446 -9.736,-9.74455 -19.9602,-19.87452 -30.4902,-30.23437 z"
       style="baseline-shift:baseline;display:inline;overflow:visible;fill:none;stroke:#000000;stroke-width:3;stroke-miterlimit:10;stroke-dasharray:none;stroke-opacity:1;enable-background:accumulate;stop-color:#000000"
       id="path26" /><path
       d="m 1011.9319,-198.37395 c -24.24503,6.95235 -50.94083,9.50892 -76.99023,5.56836 24.0897,24.96161 56.5863,61.32211 92.00003,102.392575 4.4602,-1.491933 8.8432,-3.125533 13.1348,-4.888672 83.5867,68.584193 208.1152,207.203407 301.6914,316.011717 l 1.5586,-0.0996 c -3.7409,-5.15354 -206.7286,-291.219756 -331.3946,-418.98438 z"
       style="baseline-shift:baseline;display:inline;overflow:visible;fill:none;stroke:#000000;stroke-width:3;stroke-miterlimit:10;stroke-dasharray:none;stroke-opacity:1;enable-background:accumulate;stop-color:#000000"
       id="path25" /><path
       d="m 1320.2034,296.12996 c -12.9231,8.37203 -26.9994,15.30685 -41.873,20.16601 24.5077,8.59415 42.5958,14.44109 55.9961,18.43164 6.2935,-4.6196 12.1901,-9.72623 17.6543,-15.19336 -9.9097,-6.3922 -20.5535,-13.38611 -31.9903,-21.04101 0.076,-0.78617 0.1467,-1.57407 0.2129,-2.36328 z"
       style="baseline-shift:baseline;display:inline;overflow:visible;fill:none;stroke:#000000;stroke-width:3;stroke-miterlimit:10;stroke-dasharray:none;stroke-opacity:1;enable-background:accumulate;stop-color:#000000"
       id="path24" /><path
       d="m 1040.0765,-95.301687 c -25.068,10.29877 -53.27433,16.194569 -81.56063,15.074219 38.9287,32.301355 96.87903,85.1884844 157.22073,142.429686 16.457,-0.03 32.7619,-2.77914 47.8926,-7.517577 42.9315,41.917507 101.9547,108.317799 158.1621,173.958989 20.1573,13.39521 36.9352,24.73014 51.1758,34.36718 0.5041,-1.34767 0.9948,-2.70425 1.4707,-4.06835 -95.319,-112.25286 -240.5989,-277.310628 -334.3613,-354.244147 z"
       style="baseline-shift:baseline;display:inline;overflow:visible;fill:none;stroke:#000000;stroke-width:3;stroke-miterlimit:10;stroke-dasharray:none;stroke-opacity:1;enable-background:accumulate;stop-color:#000000"
       id="path23" /><path
       d="m 1163.6292,54.684641 c -20.7254,6.490517 -43.6523,9.247277 -66.1582,6.398437 51.911,51.245542 151.1036,144.864602 223.4082,217.232422 -0.1537,-18.92103 -3.1035,-38.223 -9.4473,-56.53906 3.5495,2.34756 7.0014,4.63569 10.3594,6.86719 C 1265.5839,163.00244 1206.5607,96.602148 1163.6292,54.684641 Z"
       style="baseline-shift:baseline;display:inline;overflow:visible;fill:none;stroke:#000000;stroke-width:3;stroke-miterlimit:10;stroke-dasharray:none;stroke-opacity:1;enable-background:accumulate;stop-color:#000000"
       id="path22" /><path
       d="m 1384.7347,195.23738 c 0.6426,23.36795 -3.8537,46.6148 -11.7676,67.77343 18.7869,12.71366 33.1577,22.47324 45.0469,30.11329 9.8608,-6.67795 19.8652,-12.86061 29.9941,-18.58594 -15.2194,-19.09907 -35.0608,-44.45064 -63.2734,-79.30078 z"
       style="baseline-shift:baseline;display:inline;overflow:visible;fill:none;stroke:#000000;stroke-width:3;stroke-miterlimit:10;stroke-dasharray:none;stroke-opacity:1;enable-background:accumulate;stop-color:#000000"
       id="path21" /><path
       d="m 1311.4319,221.77644 c 8.6223,24.89499 10.9757,51.61073 8.5586,76.7168 11.4368,7.6549 22.0806,14.64881 31.9903,21.04101 7.4416,-7.44558 14.0806,-15.55792 19.8222,-24.01562 14.1977,1.46095 26.4477,2.79773 36.9922,4.02343 3.0586,-2.18881 6.1317,-4.32732 9.2188,-6.41796 -22.4027,-14.39601 -53.6175,-36.31742 -106.5821,-71.34766 z"
       style="baseline-shift:baseline;display:inline;overflow:visible;fill:none;stroke:#000000;stroke-width:3;stroke-miterlimit:10;stroke-dasharray:none;stroke-opacity:1;enable-background:accumulate;stop-color:#000000"
       id="path20" /><path
       d="m 1371.803,295.51863 c -12.1982,17.96852 -28.4428,34.38198 -47.8418,46.14258 12.1736,1.32035 22.5086,2.31484 31.2911,3.05664 17.2446,-17.0245 35.1311,-31.99987 53.5429,-45.17579 -10.5445,-1.2257 -22.7945,-2.56248 -36.9922,-4.02343 z"
       style="baseline-shift:baseline;display:inline;overflow:visible;fill:none;stroke:#000000;stroke-width:3;stroke-miterlimit:10;stroke-dasharray:none;stroke-opacity:1;enable-background:accumulate;stop-color:#000000"
       id="path19" /><path
       d="m 1768.18,604.27058 c -23.7661,2.98079 -47.5784,4.351 -71.0234,3.98633 -3.4085,8.96523 -6.6482,20.31614 -6.4649,30.74219 0.3805,21.64596 17.0328,19.62937 3.668,32.13867 -2.4563,2.29911 -5.102,4.26906 -7.9922,5.9375 2.3439,4.75769 7.7026,8.25767 18.3887,8.27539 33.4644,0.056 52.2173,-3.98265 64.6953,-17.37695 12.4781,-13.39386 -3.9976,-10.2431 -5.8574,-31.8125 -0.9214,-10.6853 1.7027,-22.59362 4.5859,-31.89063 z"
       style="fill:none;stroke:#000000;stroke-width:3;stroke-linecap:round;stroke-linejoin:round;stroke-dasharray:none;stroke-opacity:1"
       id="path18" /><path
       d="m 2016.5491,181.05574 c -10.7448,0.20545 -21.3695,2.14734 -31.3613,6.77148 -17.118,7.39853 -35.4217,14.70218 -54.4434,11.10938 -20.1005,-3.55983 -41.1989,0.86189 -57.9003,14.38671 -7.7965,6.31383 -4.6311,25.06248 -13.752,20.34766 -13.7497,-5.80072 -61.5002,-26.36831 -41.0019,-42.16016 -0.9819,0.30272 -1.8897,0.61173 -2.7325,0.93165 -5.9772,2.26914 -26.2586,6.14995 -47.9707,10.44921 0.95,-0.0287 1.9004,-0.0566 2.8496,-0.084 17.3089,-0.49944 37.0293,12.3845 47.7754,25.9043 21.1135,26.56313 50.9319,46.06534 73.7481,71.27539 13.0284,16.45493 37.052,41.69451 43.6836,56.61718 -0.053,-0.0168 -0.1069,-0.0341 -0.1602,-0.0508 13.4661,29.53372 -29.1159,83.5292 -28.6269,116.20703 0.524,35.01387 56.4721,62.59481 28.5664,78.36329 16.7396,-9.06228 37.9371,-21.83558 57.3203,-39.8418 4.1188,-3.82624 7.6179,-7.40625 10.5859,-10.74609 -25.5481,25.19553 -60.4301,9.17808 -60.1348,-28.14063 0.1587,-20.05734 0.4018,-60.97085 7.3985,-82.21484 5.358,-16.26864 6.0143,-24.43264 12.1894,-35.41016 -3.6693,-2.04272 -8.3921,-5.46874 -15.3691,-9.99219 -62.1289,-42.4475 -86.7185,-124.00315 -37.5742,-133.29101 7.1595,-1.47361 14.3354,-2.07636 21.5215,-2.12891 21.5583,-0.15766 43.1973,4.64554 64.6777,5.81641 14.353,3.88694 18.3255,20.60244 29.5039,28.8164 19.3286,15.48887 47.3932,16.37394 69.1523,5.72461 16.896,-10.89635 41.0043,-15.74863 60.2188,-12.77343 -0.018,0.0378 -0.035,0.0756 -0.053,0.11328 9.1248,7.1752 7.4035,33.58915 0.6679,53.64453 3.4074,-8.20534 7.1751,-16.26441 16.959,-24.47266 19.5355,-16.38934 19.9821,-15.34839 37.5371,-17.72656 17.5547,-2.37819 43.1144,-11.11533 56.9004,-12.20703 13.7858,-1.09172 26.4356,1.03125 26.4356,1.03125 0,0 -16.3216,-26.44052 -52.6211,-28.50586 -29.8975,-1.70107 -40.1689,-3.35243 -51.7891,-7.75 -7.2714,6.03243 -14.8026,12.12489 -23.5762,15.82422 -17.8754,4.32367 -37.6054,1.52459 -53.8964,-6.94727 -18.232,-13.79181 -40.4914,-20.74036 -62.6446,-25.24414 -10.4741,-2.32094 -21.3391,-3.85193 -32.084,-3.64648 z m 36.4961,9.8125 a 41.868706,41.868706 0 0 1 4.8242,0.43359 41.868706,41.868706 0 0 1 29.6993,20.16992 30.535823,30.535823 0 0 1 -0.1719,7.81836 30.535823,30.535823 0 0 1 -34.7969,25.57422 30.535823,30.535823 0 0 1 -25.5742,-34.79297 30.535823,30.535823 0 0 1 7.1895,-15.39453 41.868706,41.868706 0 0 1 18.83,-3.80859 z"
       style="fill:none;stroke:#000000;stroke-width:3;stroke-linecap:round;stroke-linejoin:round;stroke-dasharray:none;stroke-opacity:1"
       id="path17" /><path
       d="m 1765.9964,913.85261 c 2.6623,4.82022 5.1912,8.98528 7.5371,12.56641 11.3759,4.09469 24.908,9.04529 29.9024,11.1914 9.236,3.9688 18.7317,19.02367 54.2168,18.19727 5.7509,-0.13398 10.8773,1.06862 15.4296,3.17773 1.7463,-0.32823 3.5799,-0.70575 5.5254,-1.13476 15.3101,-3.3761 32.252,22.08403 32.252,22.08403 0,0 -16.9501,-47.66318 -53.0645,-43.86138 -36.1143,3.8018 -47.3127,-10.03012 -57.1328,-13.10742 -5.7664,-1.80693 -22.1347,-5.97786 -34.666,-9.11328 z"
       style="fill:none;stroke:#000000;stroke-width:3;stroke-linecap:round;stroke-linejoin:round;stroke-dasharray:none;stroke-opacity:1"
       id="path16" /><path
       d="m 1726.0843,898.49519 c -10.3945,0.27216 -21.7865,24.75956 -51.1602,14.32031 -30.321,-10.7762 -82.2812,29.6543 -82.2812,29.6543 0,0 35.0135,-20.00781 46.5215,-13.81641 13.6383,7.33744 66.3116,10.5735 93.3183,11.31446 -15.1968,-11.44834 -19.1041,-25.93907 -3.455,-26.38672 0.6449,-0.0185 1.3232,-0.0129 2.0351,0.0176 -2.3815,-3.61216 -3.8485,-7.65229 -3.6211,-12.04493 0.047,-0.9084 0.044,-1.89405 -0.01,-2.95703 -0.1171,-0.0171 -0.2326,-0.0338 -0.3477,-0.0488 -0.3338,-0.0436 -0.6686,-0.0615 -1.0039,-0.0527 z"
       style="fill:none;stroke:#000000;stroke-width:3;stroke-linecap:round;stroke-linejoin:round;stroke-dasharray:none;stroke-opacity:1"
       id="path15" /><path
       d="m 1683.8148,678.43855 c -7.6559,3.77882 -16.9664,5.69744 -28.8047,6.2207 4.8318,20.65166 11.9421,44.71978 22.3984,70.30664 30.9294,75.685 51.0062,127.79459 50.0332,146.58789 -0.2274,4.39264 1.2396,8.43277 3.6211,12.04493 5.8478,0.25008 13.975,2.18978 24.7031,6.48242 0,0 8.1061,2.86028 17.7676,6.33789 -4.32,-6.59466 -9.2613,-15.16875 -14.5117,-26.16992 -16.9458,-35.5067 -51.77,-126.84138 -59.9395,-161.57618 -4.4778,-19.03829 -10.0413,-40.82949 -15.2675,-60.23437 z"
       style="fill:none;stroke:#000000;stroke-width:3;stroke-linecap:round;stroke-linejoin:round;stroke-dasharray:none;stroke-opacity:1"
       id="path14" /><path
       d="m 1729.0277,913.58113 c -21.2228,0.60709 -6.4795,27.04195 23.6152,36.68945 25.4274,8.1514 53.2775,19.39171 74.2793,24.97071 21.0021,5.5786 28.8969,7.3467 48.7715,4.5391 15.2206,-2.1503 29.1308,25.25391 29.1308,25.25391 0,0 -11.6865,-50.05331 -47.1718,-49.22661 -35.4851,0.8264 -44.9808,-14.22847 -54.2168,-18.19727 -9.236,-3.9688 -47.67,-17.52929 -47.67,-17.52929 -12.0342,-4.81526 -20.7959,-6.66999 -26.7382,-6.5 z"
       style="fill:none;stroke:#000000;stroke-width:3;stroke-linecap:round;stroke-linejoin:round;stroke-dasharray:none;stroke-opacity:1"
       id="path13" /><path
       d="m 1641.4671,603.9405 -25.1445,44.91602 c 0,0 -21.0756,32.84946 12.3066,35.19336 33.3821,2.3442 52.3658,-0.40271 65.7305,-12.91211 13.3648,-12.5093 -3.2875,-10.49271 -3.668,-32.13867 -0.1833,-10.42605 3.0564,-21.77696 6.4649,-30.74219 -18.8737,-0.29357 -37.5081,-1.70975 -55.6895,-4.31641 z"
       style="fill:none;stroke:#000000;stroke-width:3;stroke-linecap:round;stroke-linejoin:round;stroke-dasharray:none;stroke-opacity:1"
       id="path12" /><path
       d="m 1915.3694,353.33503 c -12.1498,0.51445 -19.4217,6.95322 -25.2519,16.66797 -5.7269,11.07983 -2.7359,25.32946 -3.1875,37.77344 0.4465,12.81087 -3.5339,60.44259 -85.5039,72.71484 -46.2085,6.91818 -95.6311,16.65374 -173.0371,8.73243 -63.2466,-6.47202 -105.5634,-22.03806 -200.8555,-26.1836 71.8203,148.06611 270.4116,172.30171 436.666,120.33203 42.5042,-13.28636 51.3617,-21.44517 70.709,-32.05273 28.7016,-15.73623 -27.7257,-43.40322 -28.2519,-78.5586 -0.489,-32.67783 42.093,-86.67331 28.6269,-116.20703 -7.8614,-2.46318 -14.3914,-3.45259 -19.9141,-3.21875 z"
       style="fill:none;stroke:#000000;stroke-width:3;stroke-linecap:round;stroke-linejoin:round;stroke-dasharray:none;stroke-opacity:1"
       id="path11" /><path
       d="m 2154.6605,237.05574 c -7.8138,16.62985 -15.0242,27.5283 -51.4922,45.08789 -70.8585,34.11885 -90.0498,44.49211 -128.5235,72.64062 -4.0747,2.98121 -7.1089,2.74397 -12.0625,-0.0137 -6.1751,10.97752 -6.8314,19.14152 -12.1894,35.41016 -6.9967,21.24399 -7.2398,62.1575 -7.3985,82.21484 -0.3179,40.16718 40.1175,55.65783 65.8028,21.64258 22.7677,-30.15157 76.8624,-105.46196 100.2949,-136.8418 23.4325,-31.37985 28.0216,-33.22548 39.6035,-51.83008 11.5795,-18.60055 17.6188,-59.14658 5.9649,-68.31054 z"
       style="fill:none;stroke:#000000;stroke-width:3;stroke-linecap:round;stroke-linejoin:round;stroke-dasharray:none;stroke-opacity:1"
       id="path10" /><path
       d="m 1931.1605,209.35847 c -7.1861,0.0525 -14.362,0.6553 -21.5215,2.12891 -49.1443,9.28786 -24.5547,90.84351 37.5742,133.29101 16.3958,10.63004 20.3385,15.1954 27.4316,10.00586 38.4737,-28.14851 57.665,-38.52177 128.5235,-72.64062 36.5507,-17.59941 43.7105,-28.50749 51.5449,-45.20117 -19.2145,-2.9752 -43.3228,1.87708 -60.2188,12.77343 -21.7591,10.64933 -49.8237,9.76426 -69.1523,-5.72461 -11.1784,-8.21396 -15.1509,-24.92946 -29.5039,-28.8164 -21.4804,-1.17087 -43.1194,-5.97407 -64.6777,-5.81641 z"
       style="fill:none;stroke:#000000;stroke-width:3;stroke-linecap:round;stroke-linejoin:round;stroke-dasharray:none;stroke-opacity:1"
       id="path9" /><path
       d="m 2045.6019,107.1866 c -51.6708,-0.36332 -104.2196,9.51323 -150.4981,33.01171 -25.3338,12.90983 -44.6474,34.78417 -70.207,47.38477 -35.7051,16.10044 19.2717,39.79194 34.1953,46.08789 9.1209,4.71482 5.9555,-14.03383 13.752,-20.34766 16.7014,-13.52482 37.7998,-17.94654 57.9003,-14.38671 19.0217,3.5928 37.3254,-3.71085 54.4434,-11.10938 19.9835,-9.24829 42.4971,-7.76688 63.4453,-3.125 22.1532,4.50378 44.4126,11.45233 62.6446,25.24414 16.291,8.47186 36.021,11.27094 53.8964,6.94727 8.8038,-3.71208 16.3557,-9.83394 23.6504,-15.88672 -12.2331,-31.32364 -35.2397,-57.85275 -62.0605,-77.69531 -23.6672,-16.44648 -53.6716,-14.76901 -81.1621,-16.125 z"
       style="fill:none;stroke:#000000;stroke-width:3;stroke-linecap:round;stroke-linejoin:round;stroke-dasharray:none;stroke-opacity:1"
       id="path8" /><path
       d="m 1886.93,407.77644 c -0.4091,11.2715 -3.6427,21.06163 -18.7344,25.67187 -15.0887,7.21228 -31.1627,11.45972 -47.5918,14.28711 0,0.008 0,0.0153 0.01,0.0234 -14.9065,2.68868 -33.0979,4.66674 -53.1817,6.07031 -0.3944,0.0374 -0.7895,0.0756 -1.1836,0.11329 0,-0.0102 0,-0.0211 0,-0.0312 -52.8911,3.62362 -118.6158,3.30628 -171.9863,1.48046 -67.5706,-2.31156 -107.352,-8.6493 -222.4121,-1.63086 -81.2908,4.95867 -136.9504,26.46925 -162.6191,38.66797 22.0541,-9.08734 86.3141,-31.42695 182.9355,-30.33789 121.1402,1.36518 165.6554,19.91087 236.2305,27.13282 77.406,7.92131 126.8286,-1.81425 173.0371,-8.73243 81.97,-12.27225 85.9504,-59.90397 85.5039,-72.71484 z"
       style="fill:none;stroke:#000000;stroke-width:3;stroke-linecap:round;stroke-linejoin:round;stroke-dasharray:none;stroke-opacity:1"
       id="path7" /><path
       d="m 1550.1624,309.8448 c -5.8312,0.0642 -11.5203,0.45929 -17.0254,1.20898 -156.2019,21.2721 -211.5284,88.09139 -219.6035,83.39063 -3.715,3.14053 -7.5396,6.51462 -11.5625,10.4082 -20.021,19.37782 -40.5044,38.04056 -70.5273,60.0332 -28.1167,20.59628 -38.3711,36.07032 -38.3711,36.07032 0,0 63.7094,-40.17676 178.7695,-47.19532 115.0601,-7.01844 154.8415,-0.6807 222.4121,1.63086 53.3705,1.82582 119.0952,2.14316 171.9863,-1.48046 -9.1854,-71.42657 -128.6097,-145.02867 -216.0781,-144.06641 z m 270.4414,137.89062 c -17.5748,3.02457 -35.5552,4.42357 -53.1758,6.09375 20.0838,-1.40357 38.2752,-3.38163 53.1817,-6.07031 0,-0.008 0,-0.0153 -0.01,-0.0234 z"
       style="fill:none;stroke:#000000;stroke-width:3;stroke-linecap:round;stroke-linejoin:round;stroke-dasharray:none;stroke-opacity:1"
       id="path6" /><path
       d="m 1770.2366,202.80769 c -160.9633,4.64451 -331.9396,28.14005 -457.6367,190.09766 2.9895,14.06038 55.369,-59.35843 220.5371,-81.85157 88.0925,-11.99671 223.3418,66.69086 233.1074,142.88868 34.4544,-3.29434 70.3602,-5.39393 101.9512,-20.49415 31.7533,-9.70006 11.0078,-42.32961 21.9219,-63.44531 8.4983,-14.1605 20.0583,-21.36145 45.3262,-13.39844 -6.6316,-14.92267 -30.6552,-40.16225 -43.6836,-56.61718 -22.8162,-25.21005 -52.6346,-44.71226 -73.7481,-71.27539 -10.7461,-13.5198 -30.4665,-26.40374 -47.7754,-25.9043 z"
       style="fill:none;stroke:#000000;stroke-width:3;stroke-linecap:round;stroke-linejoin:round;stroke-dasharray:none;stroke-opacity:1"
       id="path5" /><path
       d="m 2053.0452,190.86824 a 41.868706,41.868706 0 0 0 -18.83,3.80859 30.535823,30.535823 0 0 0 -7.1895,15.39453 30.535823,30.535823 0 0 0 25.5742,34.79297 30.535823,30.535823 0 0 0 34.7969,-25.57422 30.535823,30.535823 0 0 0 0.1719,-7.81836 41.868706,41.868706 0 0 0 -29.6993,-20.16992 41.868706,41.868706 0 0 0 -4.8242,-0.43359 z m 0.5723,3.41601 a 36.52875,36.52875 0 0 1 4.209,0.37891 36.52875,36.52875 0 0 1 25.9121,17.59765 26.641269,26.641269 0 0 1 -0.1504,6.82227 26.641269,26.641269 0 0 1 -30.3594,22.3125 26.641269,26.641269 0 0 1 -22.3125,-30.35742 26.641269,26.641269 0 0 1 6.2735,-13.42969 36.52875,36.52875 0 0 1 16.4277,-3.32422 z"
       style="fill:none;stroke:#000000;stroke-width:3;stroke-linecap:round;stroke-linejoin:round;stroke-dasharray:none;stroke-opacity:1"
       id="path4" /><path
       d="m 2053.6175,194.28425 a 36.52875,36.52875 0 0 0 -16.4277,3.32422 26.641269,26.641269 0 0 0 -6.2735,13.42969 26.641269,26.641269 0 0 0 22.3125,30.35742 26.641269,26.641269 0 0 0 30.3594,-22.3125 26.641269,26.641269 0 0 0 0.1504,-6.82227 36.52875,36.52875 0 0 0 -25.9121,-17.59765 36.52875,36.52875 0 0 0 -4.209,-0.37891 z m 21.6523,12.89844 a 10.018486,10.018486 0 0 1 1.1543,0.10352 10.018486,10.018486 0 0 1 7.1075,4.82617 7.3067151,7.3067151 0 0 1 -0.041,1.87109 7.3067151,7.3067151 0 0 1 -8.3261,6.11914 7.3067151,7.3067151 0 0 1 -6.1192,-8.32422 7.3067151,7.3067151 0 0 1 1.7207,-3.68359 10.018486,10.018486 0 0 1 4.5039,-0.91211 z"
       style="fill:none;stroke:#000000;stroke-width:3;stroke-linecap:round;stroke-linejoin:round;stroke-dasharray:none;stroke-opacity:1"
       id="path3" /><path
       d="m 2075.2698,207.18269 a 10.018486,10.018486 0 0 0 -4.5039,0.91211 7.3067151,7.3067151 0 0 0 -1.7207,3.68359 7.3067151,7.3067151 0 0 0 6.1192,8.32422 7.3067151,7.3067151 0 0 0 8.3261,-6.11914 7.3067151,7.3067151 0 0 0 0.041,-1.87109 10.018486,10.018486 0 0 0 -7.1075,-4.82617 10.018486,10.018486 0 0 0 -1.1542,-0.10352 z"
       style="opacity:0.600704;fill:none;stroke:#000000;stroke-width:3;stroke-linecap:round;stroke-linejoin:round;stroke-dasharray:none;stroke-opacity:1"
       id="path2" /></g></g></g>
</svg>
