<?xml version="1.0" encoding="UTF-8" standalone="no"?>
<svg
   width="48"
   height="48"
   version="1.1"
   id="svg2"
   sodipodi:docname="emblem-encrypted-unlocked.svg"
   inkscape:version="1.4.2 (ebf0e940d0, 2025-05-08)"
   xmlns:inkscape="http://www.inkscape.org/namespaces/inkscape"
   xmlns:sodipodi="http://sodipodi.sourceforge.net/DTD/sodipodi-0.dtd"
   xmlns:xlink="http://www.w3.org/1999/xlink"
   xmlns="http://www.w3.org/2000/svg"
   xmlns:svg="http://www.w3.org/2000/svg">
  <defs
     id="defs2">
    <inkscape:path-effect
       effect="fillet_chamfer"
       id="path-effect1"
       is_visible="true"
       lpeversion="1"
       nodesatellites_param="F,0,0,1,0,0,0,1 @ F,0,0,1,0,0,0,1 @ F,0,0,1,0,0,0,1 @ F,0,0,1,0,0,0,1 @ F,0,1,1,0,1.058749,0,1 @ F,0,0,1,0,1.9824176,0,1 @ F,0,0,1,0,1.9824176,0,1 @ F,0,0,1,0,1.058749,0,1 @ F,0,0,1,0,1.9824176,0,1 @ F,0,0,1,0,1.9824176,0,1 @ F,0,0,1,0,0,0,1 | F,0,0,1,0,0,0,1 @ F,0,0,1,0,0,0,1 @ F,0,0,1,0,0,0,1 @ F,0,0,1,0,0,0,1"
       radius="0"
       unit="px"
       method="auto"
       mode="F"
       chamfer_steps="1"
       flexible="false"
       use_knot_distance="true"
       apply_no_radius="true"
       apply_with_radius="true"
       only_selected="false"
       hide_knots="false" />
    <radialGradient
       inkscape:collect="always"
       xlink:href="#linearGradient5-7"
       id="radialGradient6-6"
       cx="-34.96265"
       cy="-10.95596"
       fx="-34.96265"
       fy="-10.95596"
       r="27.999001"
       gradientUnits="userSpaceOnUse"
       gradientTransform="matrix(3.5197738,-0.94312064,-0.69243479,-2.5842018,120.73744,-56.392992)" />
    <linearGradient
       id="linearGradient5-7"
       inkscape:collect="always">
      <stop
         style="stop-color:#01a4f6;stop-opacity:1;"
         offset="0"
         id="stop5-5" />
      <stop
         style="stop-color:#002c6f;stop-opacity:1;"
         offset="1"
         id="stop6-3" />
    </linearGradient>
  </defs>
  <sodipodi:namedview
     id="namedview2"
     pagecolor="#ffffff"
     bordercolor="#000000"
     borderopacity="0.25"
     inkscape:showpageshadow="2"
     inkscape:pageopacity="0.0"
     inkscape:pagecheckerboard="0"
     inkscape:deskcolor="#d1d1d1"
     inkscape:zoom="25.416667"
     inkscape:cx="24"
     inkscape:cy="24"
     inkscape:current-layer="svg2" />
  <path
     id="rect1-6"
     style="fill:url(#radialGradient6-6);stroke-width:0.714513"
     d="M 44.005638,24 C 44.005638,12.916876 35.083124,3.994361 24,3.994361 12.916876,3.994361 3.994362,12.916876 3.994362,24 3.994362,35.083124 12.916876,44.005639 24,44.005639 35.083124,44.005639 44.005639,35.083124 44.005638,24 Z" />
  <path
     id="path1"
     style="fill:#ffffff"
     d="m 18,16 c -4.418278,0 -8,3.581722 -8,8 0,4.418278 3.581722,8 8,8 3.648034,5.8e-5 6.834086,-2.467807 7.746094,-6 h 3.505385 a 1.058749,1.058749 45 0 1 1.058749,1.058749 l 0,0.958833 A 1.9824176,1.9824176 45 0 0 32.292646,30 h 0.03516 a 1.9824176,1.9824176 135 0 0 1.982418,-1.982418 V 27.058749 A 1.058749,1.058749 135 0 1 35.368977,26 l 0.648605,0 A 1.9824176,1.9824176 135 0 0 38,24.017582 v -0.03516 A 1.9824176,1.9824176 45 0 0 36.017582,22 L 25.746094,22 C 24.834086,18.467807 21.648034,15.999942 18,16 Z m 0,4 c 2.209139,0 4,1.790861 4,4 0,2.209139 -1.790861,4 -4,4 -2.209139,0 -4,-1.790861 -4,-4 0,-2.209139 1.790861,-4 4,-4 z"
     inkscape:path-effect="#path-effect1"
     inkscape:original-d="m 18,16 c -4.418278,0 -8,3.581722 -8,8 0,4.418278 3.581722,8 8,8 3.648034,5.8e-5 6.834086,-2.467807 7.746094,-6 h 4.564134 v 4 h 4 V 26 H 38 V 22 H 25.746094 C 24.834086,18.467807 21.648034,15.999942 18,16 Z m 0,4 c 2.209139,0 4,1.790861 4,4 0,2.209139 -1.790861,4 -4,4 -2.209139,0 -4,-1.790861 -4,-4 0,-2.209139 1.790861,-4 4,-4 z"
     sodipodi:nodetypes="csccccccccccsssss"
     transform="rotate(-90,24,24)" />
</svg>
