<?xml version="1.0" encoding="UTF-8" standalone="no"?>
<svg
   width="48"
   height="48"
   version="1.1"
   id="svg1"
   sodipodi:docname="emblem-shared.svg"
   inkscape:version="1.4.2 (ebf0e940d0, 2025-05-08)"
   xmlns:inkscape="http://www.inkscape.org/namespaces/inkscape"
   xmlns:sodipodi="http://sodipodi.sourceforge.net/DTD/sodipodi-0.dtd"
   xmlns:xlink="http://www.w3.org/1999/xlink"
   xmlns="http://www.w3.org/2000/svg"
   xmlns:svg="http://www.w3.org/2000/svg">
  <defs
     id="defs1">
    <radialGradient
       inkscape:collect="always"
       xlink:href="#linearGradient5-7"
       id="radialGradient6-6"
       cx="-34.96265"
       cy="-10.95596"
       fx="-34.96265"
       fy="-10.95596"
       r="27.999001"
       gradientUnits="userSpaceOnUse"
       gradientTransform="matrix(3.5197738,-0.94312064,-0.69243479,-2.5842018,120.73744,-56.392992)" />
    <linearGradient
       id="linearGradient5-7"
       inkscape:collect="always">
      <stop
         style="stop-color:#01a4f6;stop-opacity:1;"
         offset="0"
         id="stop5-5" />
      <stop
         style="stop-color:#002c6f;stop-opacity:1;"
         offset="1"
         id="stop6-3" />
    </linearGradient>
  </defs>
  <sodipodi:namedview
     id="namedview1"
     pagecolor="#ffffff"
     bordercolor="#000000"
     borderopacity="0.25"
     inkscape:showpageshadow="2"
     inkscape:pageopacity="0.0"
     inkscape:pagecheckerboard="0"
     inkscape:deskcolor="#d1d1d1"
     inkscape:zoom="24.645833"
     inkscape:cx="24.020287"
     inkscape:cy="24.020287"
     inkscape:current-layer="svg1" />
  <path
     id="rect1"
     style="fill:url(#radialGradient6-6);stroke-width:0.714513"
     d="M 44.005638,24 C 44.005638,12.916876 35.083124,3.994361 24,3.994361 12.916876,3.994361 3.994362,12.916876 3.994362,24 3.994362,35.083124 12.916876,44.005639 24,44.005639 35.083124,44.005639 44.005639,35.083124 44.005638,24 Z" />
  <path
     style="fill:#ffffff"
     d="m 28.81102,13.147437 a 4,4 0 0 0 -3.2754,1.9961 4,4 0 0 0 -0.38672,3.0684 l -5.2949,3.0586 a 4,4 0 0 0 -2.854,-1.199 4,4 0 0 0 -4,4 4,4 0 0 0 4,4 4,4 0 0 0 2.8516,-1.1992 l 5.2949,3.0586 a 4,4 0 0 0 0.388,3.068 4,4 0 0 0 5.465,1.465 4,4 0 0 0 1.465,-5.465 4,4 0 0 0 -5.465,-1.463 4,4 0 0 0 -0.854,0.662 l -5.296,-3.057 a 4,4 0 0 0 0.15,-1.07 4,4 0 0 0 -0.146,-1.07 l 5.2949,-3.0566 a 4,4 0 0 0 0.851,0.662 4,4 0 0 0 5.465,-1.463 4,4 0 0 0 -1.465,-5.465 4,4 0 0 0 -2.189,-0.531 z"
     id="path1" />
</svg>
