<?xml version="1.0" encoding="UTF-8" standalone="no"?>
<svg
   width="48"
   height="48"
   version="1.1"
   id="svg1"
   sodipodi:docname="emblem-system.svg"
   inkscape:version="1.4.2 (ebf0e940d0, 2025-05-08)"
   xmlns:inkscape="http://www.inkscape.org/namespaces/inkscape"
   xmlns:sodipodi="http://sodipodi.sourceforge.net/DTD/sodipodi-0.dtd"
   xmlns:xlink="http://www.w3.org/1999/xlink"
   xmlns="http://www.w3.org/2000/svg"
   xmlns:svg="http://www.w3.org/2000/svg">
  <defs
     id="defs1">
    <radialGradient
       inkscape:collect="always"
       xlink:href="#linearGradient5-7"
       id="radialGradient6-6"
       cx="-34.96265"
       cy="-10.95596"
       fx="-34.96265"
       fy="-10.95596"
       r="27.999001"
       gradientUnits="userSpaceOnUse"
       gradientTransform="matrix(3.5197738,-0.94312064,-0.69243479,-2.5842018,120.73744,-56.392992)" />
    <linearGradient
       id="linearGradient5-7"
       inkscape:collect="always">
      <stop
         style="stop-color:#01a4f6;stop-opacity:1;"
         offset="0"
         id="stop5-5" />
      <stop
         style="stop-color:#002c6f;stop-opacity:1;"
         offset="1"
         id="stop6-3" />
    </linearGradient>
  </defs>
  <sodipodi:namedview
     id="namedview1"
     pagecolor="#ffffff"
     bordercolor="#000000"
     borderopacity="0.25"
     inkscape:showpageshadow="2"
     inkscape:pageopacity="0.0"
     inkscape:pagecheckerboard="0"
     inkscape:deskcolor="#d1d1d1"
     inkscape:zoom="24.645833"
     inkscape:cx="24.020287"
     inkscape:cy="24"
     inkscape:current-layer="svg1" />
  <path
     id="rect1"
     style="fill:url(#radialGradient6-6);stroke-width:0.714513"
     d="M 44.005638,24 C 44.005638,12.916876 35.083124,3.994361 24,3.994361 12.916876,3.994361 3.994362,12.916876 3.994362,24 3.994362,35.083124 12.916876,44.005639 24,44.005639 35.083124,44.005639 44.005639,35.083124 44.005638,24 Z" />
  <path
     style="fill:#ffffff"
     d="m 21,10 0,3.419922 a 11.000001,11.000001 0 0 0 -2.351562,0.984375 l -2.425782,-2.425781 -4.24414,4.24414 2.419922,2.419922 A 11.000001,11.000001 0 0 0 13.427734,21 L 10,21 l 0,6 3.419922,0 a 11.000001,11.000001 0 0 0 0.984375,2.351562 l -2.425781,2.425782 4.24414,4.24414 2.419922,-2.419922 A 11.000001,11.000001 0 0 0 21,34.572266 L 21,38 l 6,0 0,-3.419922 a 11.000001,11.000001 0 0 0 2.351562,-0.984375 l 2.425782,2.425781 4.24414,-4.24414 -2.419922,-2.419922 A 11.000001,11.000001 0 0 0 34.572266,27 L 38,27 l 0,-6 -3.419922,0 a 11.000001,11.000001 0 0 0 -0.984375,-2.351562 l 2.425781,-2.425782 -4.24414,-4.24414 -2.419922,2.419922 A 11.000001,11.000001 0 0 0 27,13.427734 L 27,10 21,10 Z m 3,9 a 5,5 0 0 1 5,5 5,5 0 0 1 -5,5 5,5 0 0 1 -5,-5 5,5 0 0 1 5,-5 z"
     id="path1" />
</svg>
