<?xml version="1.0" encoding="UTF-8" standalone="no"?>
<svg
   width="48"
   height="48"
   version="1.1"
   id="svg1"
   sodipodi:docname="vcs-update-required.svg"
   inkscape:version="1.4.2 (ebf0e940d0, 2025-05-08)"
   xmlns:inkscape="http://www.inkscape.org/namespaces/inkscape"
   xmlns:sodipodi="http://sodipodi.sourceforge.net/DTD/sodipodi-0.dtd"
   xmlns:xlink="http://www.w3.org/1999/xlink"
   xmlns="http://www.w3.org/2000/svg"
   xmlns:svg="http://www.w3.org/2000/svg">
  <defs
     id="defs1">
    <inkscape:path-effect
       effect="fillet_chamfer"
       id="path-effect2"
       is_visible="true"
       lpeversion="1"
       nodesatellites_param="F,0,0,1,0,0,0,1 @ F,0,0,1,0,0,0,1 @ F,0,0,1,0,0,0,1 @ F,0,1,1,0,2.9149133,0,1 @ F,0,0,1,0,2.9149133,0,1 @ F,0,0,1,0,0,0,1 @ F,0,0,1,0,0,0,1 @ F,0,0,1,0,0,0,1 | F,0,0,1,0,1.8738145,0,1 @ F,0,0,1,0,1.8738145,0,1 @ F,0,0,1,0,1.8738145,0,1"
       radius="0"
       unit="px"
       method="auto"
       mode="F"
       chamfer_steps="1"
       flexible="false"
       use_knot_distance="true"
       apply_no_radius="true"
       apply_with_radius="true"
       only_selected="false"
       hide_knots="false" />
    <radialGradient
       inkscape:collect="always"
       xlink:href="#linearGradient5"
       id="radialGradient6"
       cx="-34.96265"
       cy="-10.95596"
       fx="-34.96265"
       fy="-10.95596"
       r="27.999001"
       gradientUnits="userSpaceOnUse"
       gradientTransform="matrix(3.5197738,-0.94312064,-0.69243479,-2.5842018,120.73744,-56.392992)" />
    <linearGradient
       id="linearGradient5"
       inkscape:collect="always">
      <stop
         style="stop-color:#01d9f6;stop-opacity:1;"
         offset="0"
         id="stop5" />
      <stop
         style="stop-color:#0077ff;stop-opacity:1;"
         offset="1"
         id="stop6" />
    </linearGradient>
  </defs>
  <sodipodi:namedview
     id="namedview1"
     pagecolor="#ffffff"
     bordercolor="#000000"
     borderopacity="0.25"
     inkscape:showpageshadow="2"
     inkscape:pageopacity="0.0"
     inkscape:pagecheckerboard="0"
     inkscape:deskcolor="#d1d1d1"
     inkscape:zoom="17.427236"
     inkscape:cx="30.15395"
     inkscape:cy="25.764269"
     inkscape:window-width="2214"
     inkscape:window-height="1380"
     inkscape:window-x="0"
     inkscape:window-y="0"
     inkscape:window-maximized="0"
     inkscape:current-layer="svg1" />
  <path
     id="rect1"
     style="fill:url(#radialGradient6);stroke-width:0.714513"
     d="M 44.005638,24 C 44.005638,12.916876 35.083124,3.9943612 24,3.9943612 12.916876,3.9943612 3.9943611,12.916876 3.9943611,24 3.9943611,35.083124 12.916876,44.005639 24,44.005639 35.083124,44.005639 44.005639,35.083124 44.005638,24 Z" />
  <path
     style="fill:#ffffff"
     d="m 24,11 c -7.179702,0 -13,5.820298 -13,13 0,7.179702 5.820298,13 13,13 6.186092,0 11.363005,-4.32081 12.677409,-10.109101 C 37.033158,25.324274 35.694949,24 34.085087,24 c -1.151584,0 -2.037393,1.355423 -2.6081,2.851183 C 30.328361,29.861601 27.413905,32 24,32 c -4.418278,0 -8,-3.581722 -8,-8 0,-4.418278 3.581722,-8 8,-8 z m 1.559108,-2.9605947 5.881784,3.9211897 a 1.3505691,1.3505691 87.907542 0 1 0.08001,2.189816 l -6.0418,4.699178 A 0.91645233,0.91645233 26.062508 0 1 24,18.126185 V 8.8738145 a 1.0028351,1.0028351 151.84503 0 1 1.559108,-0.8344092 z"
     id="path1"
     inkscape:path-effect="#path-effect2"
     inkscape:original-d="M 24,11 A 13,13 0 0 0 11,24 13,13 0 0 0 24,37 13,13 0 0 0 37,24 h -5 a 8,8 0 0 1 -8,8 8,8 0 0 1 -8,-8 8,8 0 0 1 8,-8 z m 0,-4 9,6 -9,7 z" />
</svg>
