<?xml version="1.0" encoding="UTF-8" standalone="no"?>
<svg
   width="48"
   height="48"
   version="1"
   id="svg1"
   sodipodi:docname="emblem-question.svg"
   inkscape:version="1.4.2 (ebf0e940d0, 2025-05-08)"
   xmlns:inkscape="http://www.inkscape.org/namespaces/inkscape"
   xmlns:sodipodi="http://sodipodi.sourceforge.net/DTD/sodipodi-0.dtd"
   xmlns:xlink="http://www.w3.org/1999/xlink"
   xmlns="http://www.w3.org/2000/svg"
   xmlns:svg="http://www.w3.org/2000/svg">
  <defs
     id="defs1">
    <inkscape:path-effect
       effect="fillet_chamfer"
       id="path-effect1"
       is_visible="true"
       lpeversion="1"
       nodesatellites_param="F,0,0,1,0,1.9737705,0,1 @ F,0,1,1,0,1.9737705,0,1 @ F,0,1,1,0,1.9737705,0,1 @ F,0,1,1,0,1.9737705,0,1 | F,0,0,1,0,0,0,1 @ F,0,0,1,0,0,0,1 @ F,0,0,1,0,2.052459,0,1 @ F,0,0,1,0,2.052459,0,1 @ F,0,0,1,0,0,0,1 @ F,0,0,1,0,0,0,1 @ F,0,0,1,0,0,0,1 @ F,0,0,1,0,0,0,1 @ F,0,0,1,0,1.9737705,0,1 @ F,0,0,1,0,1.9737705,0,1 @ F,0,0,1,0,0,0,1 @ F,0,0,1,0,0,0,1"
       radius="0"
       unit="px"
       method="auto"
       mode="F"
       chamfer_steps="1"
       flexible="false"
       use_knot_distance="true"
       apply_no_radius="true"
       apply_with_radius="true"
       only_selected="false"
       hide_knots="false" />
    <radialGradient
       inkscape:collect="always"
       xlink:href="#linearGradient5-7"
       id="radialGradient6-6"
       cx="-34.96265"
       cy="-10.95596"
       fx="-34.96265"
       fy="-10.95596"
       r="27.999001"
       gradientUnits="userSpaceOnUse"
       gradientTransform="matrix(3.5197738,-0.94312064,-0.69243479,-2.5842018,120.73744,-56.392992)" />
    <linearGradient
       id="linearGradient5-7"
       inkscape:collect="always">
      <stop
         style="stop-color:#01a4f6;stop-opacity:1;"
         offset="0"
         id="stop5-5" />
      <stop
         style="stop-color:#002c6f;stop-opacity:1;"
         offset="1"
         id="stop6-3" />
    </linearGradient>
  </defs>
  <sodipodi:namedview
     id="namedview1"
     pagecolor="#ffffff"
     bordercolor="#000000"
     borderopacity="0.25"
     inkscape:showpageshadow="2"
     inkscape:pageopacity="0.0"
     inkscape:pagecheckerboard="0"
     inkscape:deskcolor="#d1d1d1"
     inkscape:zoom="25.416667"
     inkscape:cx="24"
     inkscape:cy="24"
     inkscape:current-layer="svg1" />
  <path
     id="rect1-9"
     style="fill:url(#radialGradient6-6);stroke-width:0.714513"
     d="M 44.005638,24 C 44.005638,12.916876 35.083124,3.994361 24,3.994361 12.916876,3.994361 3.994362,12.916876 3.994362,24 3.994362,35.083124 12.916876,44.005639 24,44.005639 35.083124,44.005639 44.005639,35.083124 44.005638,24 Z" />
  <path
     style="fill:#ffffff"
     d="M 24.026229,38 H 23.97377 A 1.9737705,1.9737705 45 0 1 22,36.026229 V 35.97377 A 1.9737705,1.9737705 135 0 1 23.97377,34 h 0.05246 A 1.9737705,1.9737705 45 0 1 26,35.97377 v 0.05246 A 1.9737705,1.9737705 135 0 1 24.026229,38 Z M 30.14,22.5 l -1.8,1.84 c -1.059132,1.073842 -1.826138,2.007031 -2.15778,3.61922 C 25.954219,29.067588 25.081083,30 23.947541,30 22.871926,30 21.905561,29.070037 22.090142,27.954293 22.371306,26.25473 23.163139,24.726364 24.34,23.34 l 2.48,-2.52 C 27.56,20.1 28,19.1 28,18 28,15.8 26.2,14 24,14 22.483965,14 21.157877,14.854763 20.479866,16.106159 19.965859,17.054855 19.116313,18 18.026229,18 H 17.97377 C 16.883687,18 15.975603,17.10057 16.240124,16.045898 17.111601,12.571221 20.254149,10 24,10 c 4.42,0 8,3.58 8,8 0,1.76 -0.72,3.36 -1.86,4.5 z"
     id="path1"
     inkscape:path-effect="#path-effect1"
     inkscape:original-d="m 26,38 h -4 v -4 h 4 z m 4.14,-15.5 -1.8,1.84 C 26.9,25.8 26,27 26,30 h -4 c -0.182484,-2.544552 0.708997,-4.738648 2.34,-6.66 l 2.48,-2.52 C 27.56,20.1 28,19.1 28,18 c 0,-2.2 -1.8,-4 -4,-4 -2.2,0 -4,1.8 -4,4 h -4 c 0,-4.42 3.58,-8 8,-8 4.42,0 8,3.58 8,8 0,1.76 -0.72,3.36 -1.86,4.5 z"
     sodipodi:nodetypes="cccccccccccssccssc" />
</svg>
