<?xml version="1.0" encoding="UTF-8" standalone="no"?>
<svg
   width="48"
   height="48"
   version="1.1"
   id="svg2"
   sodipodi:docname="Nextcloud_sync_shared.svg"
   inkscape:version="1.4.2 (ebf0e940d0, 2025-05-08)"
   xmlns:inkscape="http://www.inkscape.org/namespaces/inkscape"
   xmlns:sodipodi="http://sodipodi.sourceforge.net/DTD/sodipodi-0.dtd"
   xmlns:xlink="http://www.w3.org/1999/xlink"
   xmlns="http://www.w3.org/2000/svg"
   xmlns:svg="http://www.w3.org/2000/svg">
  <defs
     id="defs2">
    <radialGradient
       inkscape:collect="always"
       xlink:href="#linearGradient5"
       id="radialGradient6"
       cx="-34.96265"
       cy="-10.95596"
       fx="-34.96265"
       fy="-10.95596"
       r="27.999001"
       gradientUnits="userSpaceOnUse"
       gradientTransform="matrix(3.5197738,-0.94312064,-0.69243479,-2.5842018,120.73744,-55.387353)" />
    <linearGradient
       id="linearGradient5"
       inkscape:collect="always">
      <stop
         style="stop-color:#01d9f6;stop-opacity:1;"
         offset="0"
         id="stop5" />
      <stop
         style="stop-color:#0077ff;stop-opacity:1;"
         offset="1"
         id="stop6" />
    </linearGradient>
    <inkscape:path-effect
       effect="fillet_chamfer"
       id="path-effect2"
       is_visible="true"
       lpeversion="1"
       nodesatellites_param="F,0,0,1,0,0,0,1 @ F,0,0,1,0,0,0,1 @ F,0,0,1,0,0,0,1 @ F,0,1,1,0,2.9149133,0,1 @ F,0,0,1,0,2.9149133,0,1 @ F,0,0,1,0,0,0,1 @ F,0,0,1,0,0,0,1 @ F,0,0,1,0,0,0,1 | F,0,0,1,0,1.8738145,0,1 @ F,0,0,1,0,1.8738145,0,1 @ F,0,0,1,0,1.8738145,0,1"
       radius="0"
       unit="px"
       method="auto"
       mode="F"
       chamfer_steps="1"
       flexible="false"
       use_knot_distance="true"
       apply_no_radius="true"
       apply_with_radius="true"
       only_selected="false"
       hide_knots="false" />
  </defs>
  <sodipodi:namedview
     id="namedview2"
     pagecolor="#ffffff"
     bordercolor="#000000"
     borderopacity="0.25"
     inkscape:showpageshadow="2"
     inkscape:pageopacity="0.0"
     inkscape:pagecheckerboard="0"
     inkscape:deskcolor="#d1d1d1"
     inkscape:zoom="17.427236"
     inkscape:cx="34.141961"
     inkscape:cy="21.43197"
     inkscape:current-layer="svg2" />
  <rect
     style="fill:#455a64"
     width="24"
     height="20"
     x="14"
     y="28"
     id="rect1" />
  <circle
     style="fill:#455a64"
     cx="14"
     cy="38"
     r="10"
     id="circle1" />
  <path
     style="fill:#ffffff"
     d="m 19,30 a 3,3 0 0 0 -3,3 3,3 0 0 0 0.03906,0.472656 l -4.882812,2.441406 a 3,3 0 0 1 -0.0039,-0.004 A 3,3 0 0 0 9,35 a 3,3 0 0 0 -3,3 3,3 0 0 0 3,3 3,3 0 0 0 2.152344,-0.917968 l 4.886718,2.445312 A 3,3 0 0 0 16,43 a 3,3 0 0 0 3,3 3,3 0 0 0 3,-3 3,3 0 0 0 -3,-3 3,3 0 0 0 -2.152344,0.917968 L 11.960938,38.472656 A 3,3 0 0 0 12,38 3,3 0 0 0 11.960938,37.523438 L 16.84375,35.082032 A 3,3 0 0 0 19,36 3,3 0 0 0 22,33 3,3 0 0 0 19,30 Z"
     id="path1" />
  <g
     id="g1"
     transform="translate(13.996052,13.996052)">
    <g
       id="g2"
       transform="matrix(0.50005643,0,0,0.50005643,11.998646,11.495769)">
      <path
         id="rect1-9"
         style="fill:url(#radialGradient6);stroke-width:0.714513"
         d="M 44.005638,25.005639 C 44.005638,13.922515 35.083124,5 24,5 12.916876,5 3.9943615,13.922515 3.9943615,25.005639 c 0,11.083124 8.9225145,20.005639 20.0056385,20.005639 11.083124,0 20.005639,-8.922515 20.005638,-20.005639 z" />
    </g>
    <path
       id="path1-3"
       style="fill:#ffffff;stroke-width:0.489732"
       d="m 23.66857,15.771163 a 0.49112053,0.49112053 0 0 0 -0.514602,0.49069 v 1.04068 c -3.51613,0 -6.366516,2.850386 -6.366516,6.366517 0,1.880158 0.815011,3.570241 2.111012,4.735671 0.533896,0.480107 1.328231,0.254712 1.62989,-0.396951 0.269754,-0.582743 -0.03139,-1.371461 -0.470603,-1.936928 -0.515132,-0.66323 -0.82164,-1.496987 -0.82164,-2.401792 0,-2.163772 1.754085,-3.917857 3.917857,-3.917857 v 1.041637 a 0.44881611,0.44881611 0 0 0 0.724077,0.353909 l 2.95848,-2.301359 a 0.66141703,0.66141703 0 0 0 -0.03826,-1.072245 l -2.881002,-1.920668 a 0.49112053,0.49112053 0 0 0 -0.248692,-0.0813 z m 4.762452,3.566819 c -0.389573,0.0061 -0.77084,0.246962 -0.959377,0.654251 -0.269754,0.582744 0.03139,1.371462 0.470603,1.93693 0.515132,0.663228 0.821639,1.496986 0.821639,2.401791 0,2.163772 -1.754084,3.917857 -3.917856,3.917857 v -1.041638 a 0.44881611,0.44881611 0 0 0 -0.724077,-0.353908 l -2.958479,2.301358 a 0.66141703,0.66141703 0 0 0 0.03826,1.072245 l 2.881001,1.920669 a 0.49112053,0.49112053 0 0 0 0.248693,0.0813 0.49112053,0.49112053 0 0 0 0.514601,-0.490688 v -1.040682 c 3.51613,0 6.366517,-2.850386 6.366517,-6.366516 0,-1.880158 -0.815011,-3.570242 -2.111012,-4.735672 -0.200212,-0.180041 -0.436769,-0.260958 -0.670513,-0.257301 z" />
  </g>
</svg>
