<?xml version="1.0" encoding="UTF-8" standalone="no"?>
<svg
   width="48"
   height="48"
   version="1.1"
   id="svg2"
   sodipodi:docname="Nextcloud_error_shared.svg"
   inkscape:version="1.4.2 (ebf0e940d0, 2025-05-08)"
   xmlns:inkscape="http://www.inkscape.org/namespaces/inkscape"
   xmlns:sodipodi="http://sodipodi.sourceforge.net/DTD/sodipodi-0.dtd"
   xmlns:xlink="http://www.w3.org/1999/xlink"
   xmlns="http://www.w3.org/2000/svg"
   xmlns:svg="http://www.w3.org/2000/svg">
  <defs
     id="defs2">
    <radialGradient
       inkscape:collect="always"
       xlink:href="#linearGradient5"
       id="radialGradient6"
       cx="-34.96265"
       cy="-10.95596"
       fx="-34.96265"
       fy="-10.95596"
       r="27.999001"
       gradientUnits="userSpaceOnUse"
       gradientTransform="matrix(3.5197738,-0.94312064,-0.69243479,-2.5842018,120.73744,-56.392992)" />
    <linearGradient
       id="linearGradient5"
       inkscape:collect="always">
      <stop
         style="stop-color:#ff4a39;stop-opacity:1;"
         offset="0"
         id="stop5" />
      <stop
         style="stop-color:#98002c;stop-opacity:1;"
         offset="1"
         id="stop6" />
    </linearGradient>
    <inkscape:path-effect
       effect="fillet_chamfer"
       id="path-effect1"
       is_visible="true"
       lpeversion="1"
       nodesatellites_param="F,0,1,1,0,2.8322526,0,1 @ F,0,0,1,0,0,0,1 @ F,0,1,1,0,2.8322526,0,1 @ F,0,1,1,0,2.8322526,0,1 @ F,0,0,1,0,0,0,1 @ F,0,1,1,0,2.8322526,0,1 @ F,0,1,1,0,2.8322526,0,1 @ F,0,0,1,0,0,0,1 @ F,0,1,1,0,2.8322526,0,1 @ F,0,1,1,0,2.8322526,0,1 @ F,0,0,1,0,0,0,1 @ F,0,0,1,0,2.8322526,0,1"
       radius="0"
       unit="px"
       method="auto"
       mode="F"
       chamfer_steps="1"
       flexible="false"
       use_knot_distance="true"
       apply_no_radius="true"
       apply_with_radius="true"
       only_selected="false"
       hide_knots="false" />
  </defs>
  <sodipodi:namedview
     id="namedview2"
     pagecolor="#ffffff"
     bordercolor="#000000"
     borderopacity="0.25"
     inkscape:showpageshadow="2"
     inkscape:pageopacity="0.0"
     inkscape:pagecheckerboard="0"
     inkscape:deskcolor="#d1d1d1"
     inkscape:zoom="24.645833"
     inkscape:cx="24"
     inkscape:cy="24"
     inkscape:current-layer="svg2" />
  <rect
     style="fill:#455a64"
     width="24"
     height="20"
     x="14"
     y="28"
     id="rect1" />
  <circle
     style="fill:#455a64"
     cx="14"
     cy="38"
     r="10"
     id="circle1" />
  <path
     style="fill:#ffffff"
     d="m 19,30 a 3,3 0 0 0 -3,3 3,3 0 0 0 0.03906,0.472656 l -4.882812,2.441406 a 3,3 0 0 1 -0.0039,-0.004 A 3,3 0 0 0 9,35 a 3,3 0 0 0 -3,3 3,3 0 0 0 3,3 3,3 0 0 0 2.152344,-0.917968 l 4.886718,2.445312 A 3,3 0 0 0 16,43 a 3,3 0 0 0 3,3 3,3 0 0 0 3,-3 3,3 0 0 0 -3,-3 3,3 0 0 0 -2.152344,0.917968 L 11.960938,38.472656 A 3,3 0 0 0 12,38 3,3 0 0 0 11.960938,37.523438 L 16.84375,35.082032 A 3,3 0 0 0 19,36 3,3 0 0 0 22,33 3,3 0 0 0 19,30 Z"
     id="path1" />
  <g
     id="g2"
     transform="matrix(0.49904234,0,0,0.49904234,26.039323,26.039323)">
    <path
       id="rect1-6"
       style="fill:url(#radialGradient6);stroke-width:0.714513"
       d="M 44.005638,24 C 44.005638,12.916876 35.083124,3.994361 24,3.994361 12.916876,3.994361 3.994362,12.916876 3.994362,24 3.994362,35.083124 12.916876,44.005639 24,44.005639 35.083124,44.005639 44.005639,35.083124 44.005638,24 Z" />
    <path
       style="fill:#ffffff"
       d="M 17.502705,13.502705 24,20 30.497295,13.502705 a 2.8322526,2.8322526 0 0 1 4.00541,0 2.8284297,2.8284297 90.077493 0 1 -0.0054,4 L 28,24 l 6.497295,6.497295 a 2.8322526,2.8322526 90 0 1 0,4.00541 2.8284297,2.8284297 0.07749305 0 1 -4,-0.0054 L 24,28 17.502705,34.497295 a 2.8322526,2.8322526 0 0 1 -4.00541,0 2.8284297,2.8284297 90.077493 0 1 0.0054,-4 L 20,24 13.502705,17.502705 a 2.8322526,2.8322526 90 0 1 0,-4.00541 2.8284297,2.8284297 0.07749305 0 1 4,0.0054 z"
       id="path1-2"
       inkscape:path-effect="#path-effect1"
       inkscape:original-d="m 15.5,11.5 8.5,8.5 8.5,-8.5 4,4 -8.5,8.5 8.5,8.5 -4,4 -8.5,-8.5 -8.5,8.5 -4,-4 L 20,24 11.5,15.5 Z" />
  </g>
</svg>
