<?xml version="1.0" encoding="UTF-8" standalone="no"?>
<svg
   viewBox="0 0 16 16"
   version="1.1"
   id="svg1"
   sodipodi:docname="system-run.svg"
   inkscape:version="1.4.2 (ebf0e940d0, 2025-05-08)"
   xmlns:inkscape="http://www.inkscape.org/namespaces/inkscape"
   xmlns:sodipodi="http://sodipodi.sourceforge.net/DTD/sodipodi-0.dtd"
   xmlns="http://www.w3.org/2000/svg"
   xmlns:svg="http://www.w3.org/2000/svg">
  <sodipodi:namedview
     id="namedview1"
     pagecolor="#ffffff"
     bordercolor="#000000"
     borderopacity="0.25"
     inkscape:showpageshadow="2"
     inkscape:pageopacity="0.0"
     inkscape:pagecheckerboard="0"
     inkscape:deskcolor="#d1d1d1"
     inkscape:zoom="64.982861"
     inkscape:cx="7.2865367"
     inkscape:cy="8.756155"
     inkscape:current-layer="svg1" />
  <defs
     id="defs3051">
    <style
       type="text/css"
       id="current-color-scheme">.ColorScheme-Text { color: #fcfcfc; } </style>
  </defs>
  <g
     id="g2"
     transform="matrix(0.25094912,0,0,0.25094912,-4.7645539,-0.81927657)">
    <path
       id="path1-3-5"
       style="fill:#ffffff;fill-opacity:1;stroke-width:0.169765"
       d="m 75.932553,4.3124381 c -2.13516,0.058172 -4.279901,0.338653 -6.371581,0.6327932 -9.621426,1.617318 -19.049569,5.7369747 -25.960138,12.7556307 -0.311301,0.252146 -0.560475,0.784226 -1.038033,0.61409 -2.041266,-0.309368 -4.083703,-0.606558 -6.131553,-0.8697 -3.59802,-0.398705 -7.316597,1.261078 -9.426449,4.202001 -2.47002,3.502593 -4.881928,7.045781 -7.328565,10.564231 -1.151418,1.61578 -0.425355,4.112382 1.368456,4.915844 1.186694,0.490932 2.504265,0.388604 3.753123,0.576683 2.637244,0.339946 5.35638,0.461351 7.942656,0.913342 -0.02509,3.502212 1.265967,7.064537 3.840405,9.49191 2.202369,2.13999 5.21819,3.332647 8.263727,3.516214 0.18205,3.782958 0.251538,7.571377 0.43641,11.352886 0.151955,2.240892 2.912192,3.749431 4.872202,2.62781 3.760316,-2.233693 7.480611,-4.542121 11.215729,-6.820461 2.913909,-1.850078 4.794983,-5.201498 4.791152,-8.66273 C 66.091071,47.77292 65.902196,45.42694 65.792264,43.078084 73.757766,36.675426 78.909751,27.294238 81.344033,17.47019 82.250901,13.416052 83.113976,9.1495434 82.257374,5.016928 80.195495,4.4207132 78.067716,4.2542689 75.932553,4.3124381 Z M 62.896373,15.783777 c 2.178991,0.05602 4.320966,1.135206 5.610981,2.905243 1.650149,2.141119 1.906917,5.233678 0.657732,7.627815 -1.262269,2.519752 -4.101555,4.171282 -6.923325,3.927688 -3.849532,-0.13678 -7.096043,-3.814615 -6.751884,-7.652756 0.126193,-3.44208 3.048404,-6.47911 6.47445,-6.767465 0.310459,-0.03465 0.620762,-0.04852 0.932046,-0.04053 z m -36.019378,26.94518 c -0.360621,0.01612 -0.715418,0.148225 -0.991275,0.417705 -1.904574,1.750079 -3.814128,3.491609 -5.701382,5.258736 -0.943903,0.850815 -0.413088,2.653976 0.847882,2.836663 1.000837,0.104268 2.012912,0.103843 3.017461,0.152743 -0.85136,2.378745 -1.804742,4.719282 -2.662099,7.094775 -0.391134,1.132158 0.790489,2.409963 1.951377,2.097882 2.430244,-0.661766 4.838547,-1.406857 7.266219,-2.079181 -0.0218,1.008666 -0.109136,2.019358 -0.08729,3.026814 0.08454,1.272175 1.82872,1.959859 2.755615,1.078556 1.936804,-1.765458 3.862454,-3.544575 5.77931,-5.330434 0.85758,-0.840539 0.392982,-2.442913 -0.745012,-2.764966 -4.638743,-1.697856 -8.338461,-5.711593 -9.650888,-10.473831 -0.153252,-0.828717 -0.986568,-1.350953 -1.779927,-1.315462 z" />
  </g>
</svg>
