<?xml version="1.0" encoding="UTF-8" standalone="no"?>
<svg
   width="48"
   height="48"
   version="1.1"
   id="svg2"
   sodipodi:docname="emblem-pause.svg"
   inkscape:version="1.4.2 (ebf0e940d0, 2025-05-08)"
   xmlns:inkscape="http://www.inkscape.org/namespaces/inkscape"
   xmlns:sodipodi="http://sodipodi.sourceforge.net/DTD/sodipodi-0.dtd"
   xmlns:xlink="http://www.w3.org/1999/xlink"
   xmlns="http://www.w3.org/2000/svg"
   xmlns:svg="http://www.w3.org/2000/svg">
  <defs
     id="defs2">
    <inkscape:path-effect
       effect="fillet_chamfer"
       id="path-effect2"
       is_visible="true"
       lpeversion="1"
       nodesatellites_param="F,0,1,1,0,3.0393443,0,1 @ F,0,1,1,0,3.0393443,0,1 @ F,0,1,1,0,3.0393443,0,1 @ F,0,1,1,0,3.0393443,0,1 | F,0,1,1,0,3.0393443,0,1 @ F,0,0,1,0,3.0393443,0,1 @ F,0,1,1,0,3.0393443,0,1 @ F,0,1,1,0,3.0393443,0,1"
       radius="0"
       unit="px"
       method="auto"
       mode="F"
       chamfer_steps="1"
       flexible="false"
       use_knot_distance="true"
       apply_no_radius="true"
       apply_with_radius="true"
       only_selected="false"
       hide_knots="false" />
    <radialGradient
       inkscape:collect="always"
       xlink:href="#linearGradient5-7"
       id="radialGradient6-6"
       cx="-34.96265"
       cy="-10.95596"
       fx="-34.96265"
       fy="-10.95596"
       r="27.999001"
       gradientUnits="userSpaceOnUse"
       gradientTransform="matrix(3.5197738,-0.94312064,-0.69243479,-2.5842018,120.73744,-56.392992)" />
    <linearGradient
       id="linearGradient5-7"
       inkscape:collect="always">
      <stop
         style="stop-color:#01a4f6;stop-opacity:1;"
         offset="0"
         id="stop5-5" />
      <stop
         style="stop-color:#002c6f;stop-opacity:1;"
         offset="1"
         id="stop6-3" />
    </linearGradient>
  </defs>
  <sodipodi:namedview
     id="namedview2"
     pagecolor="#ffffff"
     bordercolor="#000000"
     borderopacity="0.25"
     inkscape:showpageshadow="2"
     inkscape:pageopacity="0.0"
     inkscape:pagecheckerboard="0"
     inkscape:deskcolor="#d1d1d1"
     inkscape:zoom="25.416667"
     inkscape:cx="24"
     inkscape:cy="24"
     inkscape:current-layer="svg2" />
  <path
     id="rect1-9"
     style="fill:url(#radialGradient6-6);stroke-width:0.714513"
     d="M 44.005638,24 C 44.005638,12.916876 35.083124,3.994361 24,3.994361 12.916876,3.994361 3.994362,12.916876 3.994362,24 3.994362,35.083124 12.916876,44.005639 24,44.005639 35.083124,44.005639 44.005639,35.083124 44.005638,24 Z" />
  <path
     id="rect1"
     style="fill:#ffffff"
     d="M 16,17.039344 V 30.960656 A 3.0393443,3.0393443 45 0 0 19.039344,34 3.000258,3.000258 134.24862 0 0 22,30.960656 V 17.039344 A 3.0393443,3.0393443 45 0 0 18.960656,14 3.000258,3.000258 134.24862 0 0 16,17.039344 Z m 10,0 0,13.921312 A 3.0393443,3.0393443 45 0 0 29.039344,34 3.000258,3.000258 134.24862 0 0 32,30.960656 V 17.039344 A 3.0393443,3.0393443 45 0 0 28.960656,14 3.000258,3.000258 134.24862 0 0 26,17.039344 Z"
     inkscape:path-effect="#path-effect2"
     inkscape:original-d="m 16,14 v 20 h 6 V 14 Z m 10,0 v 20 h 6 V 14 Z" />
</svg>
