<?xml version="1.0" encoding="UTF-8" standalone="no"?>
<svg
   width="48"
   height="48"
   version="1"
   id="svg1"
   sodipodi:docname="emblem-dropbox-app.svg"
   inkscape:version="1.4.2 (ebf0e940d0, 2025-05-08)"
   xmlns:inkscape="http://www.inkscape.org/namespaces/inkscape"
   xmlns:sodipodi="http://sodipodi.sourceforge.net/DTD/sodipodi-0.dtd"
   xmlns:xlink="http://www.w3.org/1999/xlink"
   xmlns="http://www.w3.org/2000/svg"
   xmlns:svg="http://www.w3.org/2000/svg">
  <defs
     id="defs1">
    <radialGradient
       inkscape:collect="always"
       xlink:href="#SVGID_1_"
       id="radialGradient4"
       cx="21.177057"
       cy="20.165461"
       fx="21.177057"
       fy="20.165461"
       r="26.945292"
       gradientTransform="matrix(0,0.99105735,-1.1442939,0,36.014957,-7.062897)"
       gradientUnits="userSpaceOnUse" />
    <linearGradient
       id="SVGID_1_"
       gradientUnits="userSpaceOnUse"
       x1="-0.4874"
       y1="62.567902"
       x2="70.614098"
       y2="-5.4541998"
       gradientTransform="matrix(0.89830777,0,0,0.89830777,3.2870353,3.2811968)">
      <stop
         offset="0"
         style="stop-color:#00e1ff;stop-opacity:1;"
         id="stop1" />
      <stop
         offset="1"
         style="stop-color:#3f99ff;stop-opacity:1;"
         id="stop3" />
    </linearGradient>
  </defs>
  <sodipodi:namedview
     id="namedview1"
     pagecolor="#ffffff"
     bordercolor="#000000"
     borderopacity="0.25"
     inkscape:showpageshadow="2"
     inkscape:pageopacity="0.0"
     inkscape:pagecheckerboard="0"
     inkscape:deskcolor="#d1d1d1"
     inkscape:zoom="13.091783"
     inkscape:cx="14.589304"
     inkscape:cy="24.824732"
     inkscape:current-layer="svg1" />
  <path
     class="st1"
     d="m 11.231611,14.537196 c 0.132564,1.193084 0.397694,2.319885 0.331412,3.512968 0,0.596542 -0.132565,1.193084 -0.397695,1.723343 -0.132565,0.26513 -0.331412,0.463978 -0.596542,0.662825 -0.265129,0.198847 -0.530259,0.331412 -0.7953887,0.331412 -0.4639767,0.06628 -0.9279541,-0.132565 -1.3919307,-0.331412 -0.4639774,-0.198847 -0.8616715,-0.397695 -1.3256489,-0.463978 -0.4639766,-0.06628 -0.927954,0 -1.3919307,0.265131 -0.3976948,0.198847 -0.7953896,0.530259 -0.9942366,0.927953 -0.5302593,0.79539 -0.5965418,2.45245 -0.5302593,3.380404 0.066282,0.729107 0.3314122,1.391931 0.7953889,1.922191 0.2651296,0.265129 0.5302592,0.463976 0.8616715,0.662823 0.3314122,0.132566 0.6628244,0.198848 1.0605192,0.132566 0.4639766,-0.06628 0.927954,-0.331413 1.3919307,-0.53026 0.198847,-0.132565 0.4639774,-0.198847 0.6628244,-0.265129 0.2651297,-0.06628 0.4639767,-0.06628 0.7291063,0 0.2651296,0.06628 0.5302589,0.198847 0.6628249,0.397694 0.198847,0.198848 0.331412,0.397695 0.463976,0.662824 0.198848,0.463978 0.26513,1.060519 0.26513,1.590779 0.132565,2.916426 -0.06628,5.832853 -0.530259,8.682998 -0.06628,0.463976 0.198847,0.927954 0.662824,1.126801 1.92219,0.662824 3.778098,1.126801 5.766571,1.458213 0.729107,0.132565 1.524496,0.26513 2.253603,0.06628 0.397695,-0.06628 0.729106,-0.26513 0.994237,-0.530259 0.265129,-0.265131 0.463976,-0.596542 0.530259,-0.994237 0.06628,-0.26513 0,-0.397695 -0.06628,-0.662824 -0.06628,-0.26513 -0.198847,-0.53026 -0.331412,-0.795389 -0.26513,-0.463978 -0.729107,-0.994237 -0.861672,-1.590779 -0.06628,-0.463976 0,-0.994236 0.198847,-1.458213 0.198848,-0.463977 0.596542,-0.861671 0.994237,-1.126801 0.861671,-0.596542 1.988472,-0.729107 3.048992,-0.79539 0.927954,0 2.054755,0.132565 2.850144,0.596542 0.397695,0.26513 0.729107,0.596542 0.994236,0.994237 0.26513,0.397695 0.331413,0.861671 0.331413,1.325649 -0.06628,0.331412 -0.198848,0.662823 -0.331413,0.994236 -0.132565,0.331412 -0.331412,0.53026 -0.530259,0.861671 -0.132565,0.331412 -0.53026,0.662824 -0.53026,0.994237 -0.06628,0.331412 0,0.530259 0.198848,0.861671 0.132564,0.198848 0.331412,0.397695 0.530259,0.530259 0.198847,0.132566 0.463977,0.198848 0.662825,0.331413 1.524495,0.530259 3.314121,0.596541 4.904899,0.331412 1.458213,-0.26513 2.783862,-0.795389 3.976946,-1.657061 0.265129,-0.198847 0.397694,-0.530259 0.397694,-0.927954 l -0.795389,-5.567723 c -0.132565,-1.060519 -0.331412,-1.988473 -0.331412,-3.048992 0,-0.530259 0.198847,-1.126801 0.397694,-1.590778 0.132566,-0.26513 0.26513,-0.463977 0.53026,-0.662825 0.198847,-0.198847 0.463977,-0.331412 0.729107,-0.397694 0.265129,-0.06628 0.530259,-0.06628 0.795389,0 0.265129,0.06628 0.530259,0.132564 0.729107,0.198847 0.463976,0.198847 0.994235,0.397695 1.458213,0.463977 0.463977,0.06628 0.994236,0 1.391931,-0.198847 0.463977,-0.198847 0.795388,-0.53026 1.126801,-0.927954 0.596542,-0.795389 0.795389,-2.253603 0.662824,-3.181557 -0.06628,-0.795388 -0.397695,-1.524496 -0.927954,-2.121037 -0.26513,-0.26513 -0.596542,-0.53026 -0.994236,-0.662825 -0.331412,-0.132564 -0.795389,-0.198847 -1.126802,-0.198847 -0.530259,0.06628 -0.994236,0.26513 -1.524496,0.463977 -0.265129,0.06628 -0.463976,0.198848 -0.729106,0.198848 -0.265129,0.06628 -0.530259,0.06628 -0.795389,0 -0.397695,-0.06628 -0.729107,-0.331413 -0.994236,-0.596542 -0.26513,-0.26513 -0.397695,-0.662825 -0.463978,-1.060519 -0.06628,-0.198847 -0.06628,-0.397695 0,-0.596542 0.463978,-2.850144 0.861672,-5.501441 0.994237,-8.4178679 0,-0.4639773 -0.26513,-0.8616722 -0.662825,-0.9942366 C 34.496743,8.2403647 32.110576,7.7763873 29.923256,7.5112576 29.194149,7.444975 28.39876,7.3786928 27.669653,7.5775402 27.338241,7.710105 27.006829,7.9089524 26.741699,8.1740821 c -0.26513,0.2651296 -0.397694,0.6628244 -0.397694,0.9942359 0,0.2651303 0.132564,0.53026 0.265129,0.729107 0.132565,0.26513 0.331413,0.463977 0.463977,0.662824 0.331412,0.397695 0.53026,0.463978 0.729107,0.994237 0.198847,0.530259 0.198847,1.126801 0,1.65706 -0.198847,0.53026 -0.530259,0.994237 -0.994237,1.391932 -0.463976,0.331411 -0.994236,0.596542 -1.590777,0.729106 -0.53026,0.132565 -1.259367,0.132565 -1.855909,0.132565 -0.927954,-0.06628 -1.92219,-0.265129 -2.717579,-0.861671 -0.397695,-0.265131 -0.662825,-0.662825 -0.861672,-1.060519 -0.198847,-0.397695 -0.265129,-0.861672 -0.198847,-1.325648 0.06628,-0.596542 0.662824,-0.861673 0.927954,-1.391932 0.132565,-0.26513 0.331412,-0.530259 0.463977,-0.8616714 C 21.04141,9.6322954 21.107693,9.3671658 21.04141,9.0357535 20.975128,8.7043413 20.77628,8.4392117 20.577433,8.1740821 20.312303,7.975235 20.047173,7.776388 19.715761,7.6438232 19.119219,7.4449759 17.727289,7.4449759 17.727289,7.4449759 14.810862,7.5775408 11.49674,8.505495 11.49674,8.505495 10.966481,8.5717769 10.635069,9.0357543 10.635069,9.5660135 Z"
     id="path3"
     style="fill:url(#radialGradient4);stroke-width:0.662824" />
</svg>
