<?xml version="1.0" encoding="UTF-8" standalone="no"?>
<svg
   width="48"
   height="48"
   version="1.1"
   id="svg1"
   sodipodi:docname="emblem-generic.svg"
   inkscape:version="1.4.2 (ebf0e940d0, 2025-05-08)"
   xmlns:inkscape="http://www.inkscape.org/namespaces/inkscape"
   xmlns:sodipodi="http://sodipodi.sourceforge.net/DTD/sodipodi-0.dtd"
   xmlns:xlink="http://www.w3.org/1999/xlink"
   xmlns="http://www.w3.org/2000/svg"
   xmlns:svg="http://www.w3.org/2000/svg">
  <defs
     id="defs1">
    <inkscape:path-effect
       effect="fillet_chamfer"
       id="path-effect1"
       is_visible="true"
       lpeversion="1"
       nodesatellites_param="F,0,0,1,0,2.0188268,0,1 @ F,0,0,1,0,0,0,1 @ F,0,1,1,0,2.0188268,0,1 @ F,0,1,1,0,2.0188268,0,1 @ F,0,0,1,0,0,0,1 @ F,0,1,1,0,2.0188268,0,1 @ F,0,1,1,0,2.0188268,0,1 @ F,0,0,1,0,0,0,1 @ F,0,1,1,0,2.0188268,0,1 @ F,0,1,1,0,2.0188268,0,1 @ F,0,0,1,0,0,0,1 @ F,0,1,1,0,2.0188268,0,1 @ F,0,1,1,0,2.0188268,0,1 @ F,0,0,1,0,0,0,1 @ F,0,1,1,0,2.0188268,0,1 @ F,0,1,1,0,2.0188268,0,1 @ F,0,0,1,0,0,0,1 @ F,0,1,1,0,2.0188268,0,1 @ F,0,1,1,0,2.0188268,0,1 @ F,0,0,1,0,0,0,1 @ F,0,1,1,0,2.0188268,0,1 @ F,0,1,1,0,2.0188268,0,1 @ F,0,0,1,0,0,0,1 @ F,0,1,1,0,2.0188268,0,1"
       radius="0"
       unit="px"
       method="auto"
       mode="F"
       chamfer_steps="1"
       flexible="false"
       use_knot_distance="true"
       apply_no_radius="true"
       apply_with_radius="true"
       only_selected="false"
       hide_knots="false" />
    <radialGradient
       inkscape:collect="always"
       xlink:href="#linearGradient5-7"
       id="radialGradient6-6"
       cx="-34.96265"
       cy="-10.95596"
       fx="-34.96265"
       fy="-10.95596"
       r="27.999001"
       gradientUnits="userSpaceOnUse"
       gradientTransform="matrix(3.5197738,-0.94312064,-0.69243479,-2.5842018,120.73744,-56.392992)" />
    <linearGradient
       id="linearGradient5-7"
       inkscape:collect="always">
      <stop
         style="stop-color:#01a4f6;stop-opacity:1;"
         offset="0"
         id="stop5-5" />
      <stop
         style="stop-color:#002c6f;stop-opacity:1;"
         offset="1"
         id="stop6-3" />
    </linearGradient>
  </defs>
  <sodipodi:namedview
     id="namedview1"
     pagecolor="#ffffff"
     bordercolor="#000000"
     borderopacity="0.25"
     inkscape:showpageshadow="2"
     inkscape:pageopacity="0.0"
     inkscape:pagecheckerboard="0"
     inkscape:deskcolor="#d1d1d1"
     inkscape:zoom="25.416667"
     inkscape:cx="24"
     inkscape:cy="24"
     inkscape:current-layer="svg1" />
  <path
     id="rect1"
     style="fill:url(#radialGradient6-6);stroke-width:0.714513"
     d="M 44.005638,24 C 44.005638,12.916876 35.083124,3.994361 24,3.994361 12.916876,3.994361 3.994362,12.916876 3.994362,24 3.994362,35.083124 12.916876,44.005639 24,44.005639 35.083124,44.005639 44.005639,35.083124 44.005638,24 Z" />
  <path
     style="fill:#ffffff"
     d="m 22,12.018827 v 7.153048 l -5.057064,-5.058587 a 2.0185228,2.0185228 0.00431352 0 0 -2.854837,-2.15e-4 2.000944,2.000944 89.490012 0 0 0.02519,2.829863 L 19.171875,22 H 12.018827 A 2.0188268,2.0188268 135 0 0 10,24.018827 2.0000886,2.0000886 44.460668 0 0 12.018827,26 h 7.153048 l -5.058587,5.057064 a 2.0185228,2.0185228 90.004314 0 0 -2.15e-4,2.854837 2.000944,2.000944 179.49001 0 0 2.829863,-0.02519 L 22,28.828125 v 7.153048 A 2.0188268,2.0188268 45 0 0 24.018827,38 2.0000886,2.0000886 134.46067 0 0 26,35.981173 v -7.153048 l 5.057064,5.058587 a 2.0185228,2.0185228 0.00431352 0 0 2.854837,2.15e-4 2.000944,2.000944 89.490012 0 0 -0.02519,-2.829863 L 28.828125,26 h 7.153048 A 2.0188268,2.0188268 135 0 0 38,23.981173 2.0000886,2.0000886 44.460668 0 0 35.981173,22 h -7.153048 l 5.058587,-5.057064 a 2.0185228,2.0185228 90.004314 0 0 2.15e-4,-2.854837 2.000944,2.000944 179.49001 0 0 -2.829863,0.02519 L 26,19.171875 V 12.018827 A 2.0188268,2.0188268 45 0 0 23.981173,10 2.0000886,2.0000886 134.46067 0 0 22,12.018827 Z"
     id="path1"
     inkscape:path-effect="#path-effect1"
     inkscape:original-d="m 22,10 v 9.171875 L 15.515625,12.685547 12.685547,15.515625 19.171875,22 H 10 v 4 h 9.171875 l -6.486328,6.484375 2.830078,2.830078 L 22,28.828125 V 38 h 4 v -9.171875 l 6.484375,6.486328 2.830078,-2.830078 L 28.828125,26 H 38 V 22 H 28.828125 L 35.314453,15.515625 32.484375,12.685547 26,19.171875 V 10 Z" />
</svg>
