<?xml version="1.0" encoding="UTF-8" standalone="no"?>
<svg
   width="48"
   height="48"
   version="1.1"
   id="svg1"
   sodipodi:docname="emblem-dropbox-infinite.svg"
   inkscape:version="1.4.2 (ebf0e940d0, 2025-05-08)"
   xmlns:inkscape="http://www.inkscape.org/namespaces/inkscape"
   xmlns:sodipodi="http://sodipodi.sourceforge.net/DTD/sodipodi-0.dtd"
   xmlns:xlink="http://www.w3.org/1999/xlink"
   xmlns="http://www.w3.org/2000/svg"
   xmlns:svg="http://www.w3.org/2000/svg">
  <defs
     id="defs1">
    <radialGradient
       inkscape:collect="always"
       xlink:href="#linearGradient5-7"
       id="radialGradient6-6"
       cx="-34.96265"
       cy="-10.95596"
       fx="-34.96265"
       fy="-10.95596"
       r="27.999001"
       gradientUnits="userSpaceOnUse"
       gradientTransform="matrix(3.5197738,-0.94312064,-0.69243479,-2.5842018,120.73744,-56.392992)" />
    <linearGradient
       id="linearGradient5-7"
       inkscape:collect="always">
      <stop
         style="stop-color:#01a4f6;stop-opacity:1;"
         offset="0"
         id="stop5-5" />
      <stop
         style="stop-color:#002c6f;stop-opacity:1;"
         offset="1"
         id="stop6-3" />
    </linearGradient>
  </defs>
  <sodipodi:namedview
     id="namedview1"
     pagecolor="#ffffff"
     bordercolor="#000000"
     borderopacity="0.25"
     inkscape:showpageshadow="2"
     inkscape:pageopacity="0.0"
     inkscape:pagecheckerboard="0"
     inkscape:deskcolor="#d1d1d1"
     inkscape:zoom="25.416667"
     inkscape:cx="24"
     inkscape:cy="24"
     inkscape:current-layer="svg1" />
  <path
     id="rect1-6"
     style="fill:url(#radialGradient6-6);stroke-width:0.714513"
     d="M 44.005638,24 C 44.005638,12.916876 35.083124,3.994361 24,3.994361 12.916876,3.994361 3.994362,12.916876 3.994362,24 3.994362,35.083124 12.916876,44.005639 24,44.005639 35.083124,44.005639 44.005639,35.083124 44.005638,24 Z" />
  <path
     style="fill:#ffffff"
     d="M 24,15 C 20.636,15 17.776,17.189 16.541,20.097 13.405,20.569 11,23.234 11,26.5 11,30.091 13.909,33 17.5,33 H 31 C 34.137,33 37,30.136 37,27 37,24.075 34.806,22 31.979,21.674 31.231,17.952 27.949,15 24,15 Z"
     id="path1" />
</svg>
