<?xml version="1.0" encoding="UTF-8" standalone="no"?>
<svg
   viewBox="0 0 16 16"
   version="1.1"
   id="svg1"
   sodipodi:docname="rating-unrated.svg"
   inkscape:version="1.4.2 (ebf0e940d0, 2025-05-08)"
   xmlns:inkscape="http://www.inkscape.org/namespaces/inkscape"
   xmlns:sodipodi="http://sodipodi.sourceforge.net/DTD/sodipodi-0.dtd"
   xmlns="http://www.w3.org/2000/svg"
   xmlns:svg="http://www.w3.org/2000/svg">
  <defs
     id="defs1">
    <inkscape:path-effect
       effect="fillet_chamfer"
       id="path-effect1"
       is_visible="true"
       lpeversion="1"
       nodesatellites_param="F,0,0,1,0,2.7446722,0,1 @ F,0,0,1,0,0.63254642,0,1 @ F,0,0,1,0,2.7446722,0,1 @ F,0,0,1,0,0.63254642,0,1 @ F,0,0,1,0,2.7446722,0,1 @ F,0,0,1,0,0.63254642,0,1 @ F,0,0,1,0,2.7446722,0,1 @ F,0,0,1,0,0.63254642,0,1 @ F,0,0,1,0,2.7446722,0,1 @ F,0,0,1,0,0.63254642,0,1 | F,0,0,1,0,0.63254642,0,1 @ F,0,1,1,0,1.0686288,0,1 @ F,0,0,1,0,0.63254642,0,1 @ F,0,0,1,0,1.0686288,0,1 @ F,0,0,1,0,0.63254642,0,1 @ F,0,1,1,0,1.0686288,0,1 @ F,0,0,1,0,0.63254642,0,1 @ F,0,1,1,0,1.0686288,0,1 @ F,0,0,1,0,0.63254642,0,1 @ F,0,1,1,0,1.0686288,0,1"
       radius="0"
       unit="px"
       method="auto"
       mode="F"
       chamfer_steps="1"
       flexible="false"
       use_knot_distance="true"
       apply_no_radius="true"
       apply_with_radius="true"
       only_selected="false"
       hide_knots="false" />
  </defs>
  <sodipodi:namedview
     id="namedview1"
     pagecolor="#ffffff"
     bordercolor="#000000"
     borderopacity="0.25"
     inkscape:showpageshadow="2"
     inkscape:pageopacity="0.0"
     inkscape:pagecheckerboard="0"
     inkscape:deskcolor="#d1d1d1"
     inkscape:zoom="77.75"
     inkscape:cx="7.9935691"
     inkscape:cy="8"
     inkscape:current-layer="svg1" />
  <style
     type="text/css"
     id="current-color-scheme">.ColorScheme-Text { color: #232629; } </style>
  <path
     style="fill:#fcfcfc;stroke:none;fill-opacity:1"
     class="ColorScheme-Text"
     d="M 6.7851374,2.6491652 5.8069813,4.6307916 A 1.2029827,1.2029827 144.0076 0 1 4.9010096,5.2888349 L 2.7162251,5.6058599 A 1.3540113,1.3540113 108.00188 0 0 1.9656769,7.9155521 L 3.5469835,9.4565354 A 1.2033294,1.2033294 71.989355 0 1 3.89322,10.521469 l -0.3728925,2.177249 a 1.3546295,1.3546295 35.987209 0 0 1.9658027,1.427568 l 1.9540443,-1.02782 a 1.2030308,1.2030308 179.99092 0 1 1.1197444,-1.77e-4 l 1.9535461,1.026767 a 1.3550673,1.3550673 144.00198 0 0 1.966044,-1.42831 L 12.106818,10.521462 A 1.2032411,1.2032411 108.00891 0 1 12.453017,9.4565354 L 14.034323,7.9155521 A 1.3543136,1.3543136 72.003197 0 0 13.283845,5.6053786 L 11.098974,5.2879458 a 1.2033573,1.2033573 35.995202 0 1 -0.906,-0.6581321 L 9.2150576,2.649069 a 1.3549405,1.3549405 179.99773 0 0 -2.4299202,9.62e-5 z M 8.2801544,3.016123 9.335705,5.1528981 a 2.033881,2.033881 35.992932 0 0 1.530798,1.1119015 l 2.359536,0.3431628 a 0.31221964,0.31221964 72.004321 0 1 0.172992,0.5325509 L 11.691249,8.8051041 A 2.0327934,2.0327934 108.00309 0 0 11.10656,10.604264 l 0.402563,2.348284 a 0.3123017,0.3123017 143.99588 0 1 -0.453076,0.329229 L 8.9459894,12.173063 a 2.0334881,2.0334881 179.99674 0 0 -1.8919221,1.08e-4 L 4.9449198,13.281713 A 0.3122569,0.3122569 36.000855 0 1 4.4918775,12.952548 L 4.8944404,10.604264 A 2.032372,2.032372 71.992017 0 0 4.3096231,8.8052348 L 2.6010445,7.1404359 A 0.31215247,0.31215247 107.99079 0 1 2.773961,6.6079624 L 5.1334967,6.2647996 A 2.033881,2.033881 144.00707 0 0 6.664295,5.1528981 L 7.7198456,3.016123 a 0.31247309,0.31247309 0 0 1 0.5603088,0 z"
     id="path1"
     inkscape:path-effect="#path-effect1"
     inkscape:original-d="M 8,0.188 5.527,5.198 0,6 4,9.898 3.057,15.404 8,12.804 12.943,15.402 12,9.898 16,6 10.473,5.197 Z m 0,2.261 1.809,3.662 4.043,0.588 -2.926,2.852 0.69,4.025 L 8,11.676 4.385,13.576 5.075,9.551 2.148,6.699 6.191,6.111 Z" />
</svg>
