<?xml version="1.0" encoding="UTF-8" standalone="no"?>
<svg
   width="48"
   height="48"
   version="1.1"
   id="svg1"
   sodipodi:docname="vcs-normal.svg"
   inkscape:version="1.4.2 (ebf0e940d0, 2025-05-08)"
   xmlns:inkscape="http://www.inkscape.org/namespaces/inkscape"
   xmlns:sodipodi="http://sodipodi.sourceforge.net/DTD/sodipodi-0.dtd"
   xmlns:xlink="http://www.w3.org/1999/xlink"
   xmlns="http://www.w3.org/2000/svg"
   xmlns:svg="http://www.w3.org/2000/svg">
  <defs
     id="defs1">
    <inkscape:path-effect
       effect="fillet_chamfer"
       id="path-effect1"
       is_visible="true"
       lpeversion="1"
       nodesatellites_param="F,0,0,1,0,2.8609433,0,1 @ F,0,0,1,0,1.217443,0,1 @ F,0,0,1,0,2.8609433,0,1 @ F,0,0,1,0,2.8609433,0,1 @ F,0,1,1,0,5.578433,0,1 @ F,0,0,1,0,2.8609433,0,1"
       radius="0"
       unit="px"
       method="auto"
       mode="F"
       chamfer_steps="1"
       flexible="false"
       use_knot_distance="true"
       apply_no_radius="true"
       apply_with_radius="true"
       only_selected="false"
       hide_knots="false" />
    <radialGradient
       inkscape:collect="always"
       xlink:href="#linearGradient5"
       id="radialGradient6"
       cx="-34.96265"
       cy="-10.95596"
       fx="-34.96265"
       fy="-10.95596"
       r="27.999001"
       gradientUnits="userSpaceOnUse"
       gradientTransform="matrix(3.5197738,-0.94312064,-0.69243479,-2.5842018,120.73744,-56.392992)" />
    <linearGradient
       id="linearGradient5"
       inkscape:collect="always">
      <stop
         style="stop-color:#01f67a;stop-opacity:1;"
         offset="0"
         id="stop5" />
      <stop
         style="stop-color:#006955;stop-opacity:1;"
         offset="1"
         id="stop6" />
    </linearGradient>
  </defs>
  <sodipodi:namedview
     id="namedview1"
     pagecolor="#ffffff"
     bordercolor="#000000"
     borderopacity="0.25"
     inkscape:showpageshadow="2"
     inkscape:pageopacity="0.0"
     inkscape:pagecheckerboard="0"
     inkscape:deskcolor="#d1d1d1"
     inkscape:zoom="16.406372"
     inkscape:cx="29.226449"
     inkscape:cy="23.344588"
     inkscape:window-width="2214"
     inkscape:window-height="1380"
     inkscape:window-x="0"
     inkscape:window-y="0"
     inkscape:window-maximized="0"
     inkscape:current-layer="svg1" />
  <path
     id="rect1-6"
     style="fill:url(#radialGradient6);stroke-width:0.714513"
     d="M 44.005638,24 C 44.005638,12.916876 35.083124,3.994361 24,3.994361 12.916876,3.994361 3.994362,12.916876 3.994362,24 3.994362,35.083124 12.916876,44.005639 24,44.005639 35.083124,44.005639 44.005639,35.083124 44.005638,24 Z" />
  <path
     style="fill:#ffffff"
     d="M 32.977008,16.022992 22.860862,26.139138 a 1.217443,1.217443 0 0 1 -1.721724,0 l -5.116146,-5.116146 a 2.8609433,2.8609433 0 0 0 -4.045984,0 2.828614,2.828614 89.341345 0 0 0.04598,4 l 6.03246,6.03246 a 5.578433,5.578433 180 0 0 7.889096,0 l 11.03246,-11.03246 a 2.8609433,2.8609433 90 0 0 0,-4.045984 2.828614,2.828614 179.34135 0 0 -4,0.04598 z"
     id="path1"
     inkscape:path-effect="#path-effect1"
     inkscape:original-d="M 35,14 22,27 14,19 10,23 22,35 39,18 Z" />
</svg>
