<?xml version="1.0" encoding="UTF-8" standalone="no"?>
<svg
   width="64"
   height="64"
   version="1"
   id="svg16"
   sodipodi:docname="bashtop.svg"
   inkscape:version="1.4.2 (ebf0e940d0, 2025-05-08)"
   xmlns:inkscape="http://www.inkscape.org/namespaces/inkscape"
   xmlns:sodipodi="http://sodipodi.sourceforge.net/DTD/sodipodi-0.dtd"
   xmlns:xlink="http://www.w3.org/1999/xlink"
   xmlns="http://www.w3.org/2000/svg"
   xmlns:svg="http://www.w3.org/2000/svg">
  <defs
     id="defs16">
    <radialGradient
       inkscape:collect="always"
       xlink:href="#linearGradient5"
       id="radialGradient1"
       gradientUnits="userSpaceOnUse"
       gradientTransform="matrix(3.4186852,-0.91603393,0.71985353,2.6865299,-36.070608,-138.14414)"
       cx="-4.1000733"
       cy="74.51799"
       fx="-4.1000733"
       fy="74.51799"
       r="25.896484" />
    <linearGradient
       id="linearGradient5"
       inkscape:collect="always">
      <stop
         style="stop-color:#ff7c5a;stop-opacity:1;"
         offset="0"
         id="stop5-3" />
      <stop
         style="stop-color:#ba2031;stop-opacity:1;"
         offset="1"
         id="stop6-6" />
    </linearGradient>
    <radialGradient
       inkscape:collect="always"
       xlink:href="#linearGradient6"
       id="radialGradient15-7-2"
       cx="5.8015566"
       cy="34.666862"
       fx="5.8015566"
       fy="34.666862"
       r="28"
       gradientTransform="matrix(1.9330047,1.0600342,-1.1366554,2.072726,35.816604,-43.764034)"
       gradientUnits="userSpaceOnUse" />
    <linearGradient
       id="linearGradient6"
       inkscape:collect="always">
      <stop
         style="stop-color:#3c3c3c;stop-opacity:1;"
         offset="0"
         id="stop5" />
      <stop
         style="stop-color:#000000;stop-opacity:1;"
         offset="1"
         id="stop6" />
    </linearGradient>
    <radialGradient
       inkscape:collect="always"
       xlink:href="#linearGradient14"
       id="radialGradient15-7"
       cx="5.8015566"
       cy="34.666862"
       fx="5.8015566"
       fy="34.666862"
       r="28"
       gradientTransform="matrix(1.9330047,1.0600342,-1.1366554,2.072726,35.816604,-43.795284)"
       gradientUnits="userSpaceOnUse" />
    <linearGradient
       id="linearGradient14"
       inkscape:collect="always">
      <stop
         style="stop-color:#4e4e4e;stop-opacity:1;"
         offset="0"
         id="stop14" />
      <stop
         style="stop-color:#232323;stop-opacity:1;"
         offset="1"
         id="stop15" />
    </linearGradient>
  </defs>
  <sodipodi:namedview
     id="namedview16"
     pagecolor="#ffffff"
     bordercolor="#000000"
     borderopacity="0.25"
     inkscape:showpageshadow="2"
     inkscape:pageopacity="0.0"
     inkscape:pagecheckerboard="0"
     inkscape:deskcolor="#d1d1d1"
     inkscape:zoom="9.1796875"
     inkscape:cx="9.3140426"
     inkscape:cy="30.556596"
     inkscape:window-width="2546"
     inkscape:window-height="1383"
     inkscape:window-x="0"
     inkscape:window-y="0"
     inkscape:window-maximized="0"
     inkscape:current-layer="svg16" />
  <rect
     style="fill:url(#radialGradient15-7);stroke-width:0.93019"
     width="52.09066"
     height="46.509518"
     x="5.9509706"
     y="8.7398081"
     rx="10.057882"
     ry="9.5330811"
     id="rect2-56" />
  <path
     id="rect2-56-7"
     style="opacity:0.495955;fill:url(#radialGradient15-7-2);stroke-width:0.93019"
     d="M 8.681848,11.775817 C 7.229706,13.240112 6.257212,15.136301 6.013879,17.250426 H 57.978723 C 57.73539,15.136301 56.762896,13.240112 55.310754,11.775817 Z M 5.951379,22.117614 v 5.474609 h 52.089844 v -5.474609 z m 0,10.341797 v 5.474609 h 52.089844 v -5.474609 z m 0,10.341797 v 2.945312 c 0,0.877475 0.13512,1.723443 0.367188,2.529297 h 51.355468 c 0.232068,-0.805854 0.367188,-1.651822 0.367188,-2.529297 v -2.945312 z" />
  <path
     id="path14"
     style="fill:url(#radialGradient1);stroke-width:1.00573"
     d="m 13.482629,15.55902 a 1.1133566,1.1133566 0 0 0 -1.113281,1.115235 v 0.951171 a 1.1133327,1.1133327 0 0 0 1.113281,1.113282 h 0.01758 v 13.878906 h -0.01758 a 1.1133327,1.1133327 0 0 0 -1.113281,1.113281 v 0.951172 a 1.1133327,1.1133327 0 0 0 1.113281,1.113281 h 7.72461 c 3.207564,-5.1e-4 5.827616,-2.620564 5.828124,-5.828125 v -0.04883 c -0.0011,-2.709344 -1.231927,-3.719395 -2.923828,-4.765625 0.906282,-1.045681 1.538462,-2.305013 1.542969,-3.712891 v -0.002 -0.05078 c -5.19e-4,-3.207558 -2.620567,-5.827616 -5.828125,-5.828125 z m 3.841797,3.175781 h 2.136719 c 1.479994,2.08e-4 2.65995,1.182122 2.660156,2.66211 v 0.03516 c -0.0017,1.478686 -1.181092,2.657996 -2.660156,2.658203 h -2.136719 a 0.51363035,0.51363035 0 0 1 -0.513672,-0.513672 v -4.328125 a 0.51363035,0.51363035 0 0 1 0.513672,-0.513672 z m 0.0039,8.53125 h 3.517578 c 1.479995,2.07e-4 2.659949,1.180163 2.660157,2.660157 v 0.03516 c -2.08e-4,1.479994 -1.180162,2.661902 -2.660157,2.662109 h -3.517578 a 0.51363073,0.51363073 0 0 1 -0.513672,-0.513672 v -4.330078 a 0.51362997,0.51362997 0 0 1 0.513672,-0.513672 z m 30.613281,7.830078 c -6.105148,0 -5.196484,6.068529 -14.576171,10.390626 -7.040708,3.244309 -11.678723,-1.746094 -18.304688,-1.746094 -3.717114,0 -6.806663,2.268115 -8.804687,4.259765 1.072119,4.174124 5.016676,7.259766 9.759765,7.259766 h 31.97461 c 5.572067,0 10.058593,-4.251876 10.058593,-9.533203 V 40.674255 C 54.404524,40.405126 53.370101,35.096129 47.941613,35.096129 Z" />
</svg>
