<?xml version="1.0" encoding="UTF-8" standalone="no"?>
<svg
   width="64"
   height="64"
   version="1.1"
   id="svg13"
   sodipodi:docname="basilisk2.svg"
   xml:space="preserve"
   inkscape:version="1.4.2 (ebf0e940d0, 2025-05-08)"
   xmlns:inkscape="http://www.inkscape.org/namespaces/inkscape"
   xmlns:sodipodi="http://sodipodi.sourceforge.net/DTD/sodipodi-0.dtd"
   xmlns:xlink="http://www.w3.org/1999/xlink"
   xmlns="http://www.w3.org/2000/svg"
   xmlns:svg="http://www.w3.org/2000/svg"><defs
     id="defs13"><linearGradient
       id="linearGradient15"
       inkscape:collect="always"><stop
         style="stop-color:#ffffff;stop-opacity:1;"
         offset="0"
         id="stop15" /><stop
         style="stop-color:#000000;stop-opacity:1;"
         offset="1"
         id="stop16" /></linearGradient><filter
       inkscape:collect="always"
       style="color-interpolation-filters:sRGB"
       id="filter15"
       x="-0.14322394"
       y="-0.11742845"
       width="1.2869576"
       height="1.2348569"><feGaussianBlur
         inkscape:collect="always"
         stdDeviation="2.6983303"
         id="feGaussianBlur15" /></filter><radialGradient
       inkscape:collect="always"
       xlink:href="#linearGradient15"
       id="radialGradient16"
       cx="17.012526"
       cy="22.103134"
       fx="17.012526"
       fy="22.103134"
       r="21.245926"
       gradientTransform="matrix(-0.54863254,2.0475245,-1.8385354,-0.49263407,70.091514,1.9937762)"
       gradientUnits="userSpaceOnUse" /></defs><sodipodi:namedview
     id="namedview13"
     pagecolor="#ffffff"
     bordercolor="#000000"
     borderopacity="0.25"
     inkscape:showpageshadow="2"
     inkscape:pageopacity="0.0"
     inkscape:pagecheckerboard="0"
     inkscape:deskcolor="#d1d1d1"
     inkscape:zoom="16.497789"
     inkscape:cx="33.307494"
     inkscape:cy="32.640738"
     inkscape:window-width="2546"
     inkscape:window-height="1383"
     inkscape:window-x="0"
     inkscape:window-y="0"
     inkscape:window-maximized="0"
     inkscape:current-layer="svg13" /><path
     id="rect13-0"
     style="opacity:1;fill:#00a1de;fill-opacity:1;stroke:#000000;stroke-width:0"
     d="m 15.376848,51.219664 c 1.699713,3.445241 3.710454,6.079407 5.755234,6.59936 h 2.805316 c 4.014716,-0.376148 5.830933,-1.756937 9.028705,-1.756937 3.19777,0 5.013989,1.380789 9.028705,1.756937 h 2.8017 c 2.038233,-0.520774 4.032425,-3.161863 5.724507,-6.59936 z" /><path
     id="rect13-0-3"
     style="opacity:1;fill:#ffc728;fill-opacity:1;stroke:#000000;stroke-width:0"
     d="m 13.440963,24.824032 c -1.001021,1.595378 -1.772029,3.415143 -2.2269,5.325038 -0.100286,0.421085 -0.187104,0.845066 -0.256671,1.272514 h 35.243582 a 11.105563,11.105578 0 0 1 0.372355,-1.272514 11.105563,11.105578 0 0 1 4.001912,-5.325038 z" /><path
     id="rect13-0-5"
     style="opacity:1;fill:#ff661c;fill-opacity:1;stroke:#000000;stroke-width:0"
     d="m 10.957392,31.421584 c -0.13064,0.802701 -0.202446,1.6155 -0.202446,2.429346 0,1.060175 0.139247,2.338239 0.350665,3.701859 0.02403,0.154983 0.04915,0.310581 0.07592,0.468155 h 35.567134 a 11.105563,11.105578 0 0 1 -0.178947,-0.468155 11.105563,11.105578 0 0 1 -0.647103,-3.701859 11.105563,11.105578 0 0 1 0.278363,-2.429346 z" /><path
     id="rect13-0-2"
     style="opacity:1;fill:#cf0f2b;fill-opacity:1;stroke:#000000;stroke-width:0"
     d="m 11.181528,38.020944 c 0.271216,1.596862 0.680714,3.322994 1.178522,5.084634 0.142584,0.504581 0.292091,1.009926 0.448272,1.514726 h 40.331831 c 0.03609,-0.114581 0.07142,-0.228664 0.106645,-0.343434 a 11.105563,11.105578 0 0 1 -2.313662,-1.171292 11.105563,11.105578 0 0 1 -4.184475,-5.084634 z" /><path
     id="rect13-0-8"
     style="opacity:1;fill:#b01cab;fill-opacity:1;stroke:#000000;stroke-width:0"
     d="m 12.808322,44.620304 c 0.63018,2.036845 1.371293,4.055536 2.226899,5.888993 0.112188,0.240405 0.226496,0.477002 0.341627,0.710367 h 35.144167 c 0.114898,-0.233418 0.227773,-0.470018 0.339819,-0.710367 0.856039,-1.836279 1.635792,-3.845948 2.279319,-5.888993 z" /><path
     id="rect13-0-7"
     style="opacity:1;fill:#75bd21;fill-opacity:1;stroke:#000000;stroke-width:0"
     d="m 42.220752,6.0869837 c 0,0 -3.701865,0 -7.403719,3.7018595 -3.701855,3.7018598 -3.70186,9.2546488 -3.70186,9.2546488 0,0 5.552795,0 9.254649,-5.552789 1.451988,-2.177984 1.85093,-7.4037193 1.85093,-7.4037193 z M 21.860525,19.043492 c -3.072733,0 -6.143147,2.273071 -8.274958,5.552789 -0.04736,0.07286 -0.09461,0.146682 -0.140988,0.220521 h 37.1397 a 11.105563,11.105578 0 0 1 0.319936,-0.220521 11.105563,11.105578 0 0 1 1.023072,-0.607336 c -2.104939,-2.947517 -4.977262,-4.945453 -7.855605,-4.945453 -7.403708,0 -7.403725,1.85093 -11.105579,1.85093 -3.701855,0 -3.701869,-1.85093 -11.105578,-1.85093 z" /><path
     id="path2-6-4"
     style="opacity:0.13039395;fill:url(#radialGradient16);stroke:none;stroke-width:0.185093;stroke-dasharray:none;stroke-opacity:1;fill-opacity:1"
     d="m 42.220752,6.0869835 c 0,0 -3.701865,0 -7.403719,3.7018599 -3.701855,3.7018596 -3.70186,9.2546486 -3.70186,9.2546486 0,0 5.552795,0 9.254649,-5.552789 1.451988,-2.177984 1.85093,-7.4037195 1.85093,-7.4037195 z M 21.860525,19.043492 c -3.072733,0 -6.143147,2.273071 -8.274958,5.552789 -1.071637,1.648677 -1.894922,3.551729 -2.371503,5.552789 -0.288615,1.211834 -0.459118,2.454631 -0.459118,3.70186 0,1.060175 0.139247,2.338239 0.350665,3.701859 0.267531,1.725576 0.707509,3.617315 1.254439,5.552789 0.717906,2.540537 1.607517,5.115868 2.675171,7.403719 1.964939,4.210619 4.394581,7.403719 6.825304,7.403719 5.552782,0 7.403723,-1.850929 11.105578,-1.850929 3.701854,0 5.552798,1.850929 11.105579,1.850929 2.426582,0 4.8316,-3.204596 6.789152,-7.403719 0.904048,-1.939265 1.72264,-4.071235 2.385964,-6.232427 a 11.105563,11.105578 0 0 1 -2.313662,-1.171292 11.105563,11.105578 0 0 1 -4.363422,-5.552789 11.105563,11.105578 0 0 1 -0.647103,-3.701859 11.105563,11.105578 0 0 1 0.650718,-3.70186 11.105563,11.105578 0 0 1 4.330886,-5.552789 11.105563,11.105578 0 0 1 1.023072,-0.607336 c -2.104939,-2.947517 -4.977262,-4.945453 -7.855605,-4.945453 -7.403708,0 -7.403725,1.85093 -11.105579,1.85093 -3.701855,0 -3.701869,-1.85093 -11.105578,-1.85093 z" /><path
     id="path2-6"
     style="mix-blend-mode:normal;fill:none;stroke:#000000;stroke-width:0.2;stroke-dasharray:none;stroke-opacity:1;filter:url(#filter15)"
     d="m 43.042969,4 c 0,0 -4.000006,0 -8,4 -3.999995,4 -4,10 -4,10 0,0 6.000006,0 10,-6 1.568928,-2.353394 2,-8 2,-8 z m -22,14 c -3.320205,0 -6.637904,2.45614 -8.941407,6 -1.157944,1.781458 -2.047535,3.837778 -2.5624988,6 -0.311859,1.309432 -0.496094,2.652322 -0.496094,4 0,1.14556 0.150461,2.526556 0.378906,4 0.289078,1.86455 0.7644908,3.908646 1.3554688,6 0.775725,2.745146 1.736984,5.52789 2.890625,8 2.123191,4.549734 4.748512,8 7.375,8 5.999992,0 8.000005,-2 12,-2 3.999994,0 6.000009,2 12,2 2.622015,0 5.220728,-3.462688 7.335937,-8 0.976859,-2.09545 1.861378,-4.399125 2.578125,-6.734375 A 11.999983,12 0 0 1 52.457031,44 11.999983,12 0 0 1 47.742188,38 11.999983,12 0 0 1 47.042969,34 11.999983,12 0 0 1 47.746094,30 11.999983,12 0 0 1 52.425781,24 11.999983,12 0 0 1 53.53125,23.34375 C 51.256783,20.158846 48.153129,18 45.042969,18 c -7.999988,0 -8.000006,2 -12,2 -3.999995,0 -4.000011,-2 -12,-2 z"
     transform="matrix(0.92546487,0,0,0.92546487,2.3859963,2.3851242)" /></svg>
