<?xml version="1.0" encoding="UTF-8" standalone="no"?>
<svg
   width="64"
   height="64"
   version="1.1"
   id="svg4"
   sodipodi:docname="facebook.svg"
   inkscape:version="1.4.2 (ebf0e940d0, 2025-05-08)"
   xmlns:inkscape="http://www.inkscape.org/namespaces/inkscape"
   xmlns:sodipodi="http://sodipodi.sourceforge.net/DTD/sodipodi-0.dtd"
   xmlns:xlink="http://www.w3.org/1999/xlink"
   xmlns="http://www.w3.org/2000/svg"
   xmlns:svg="http://www.w3.org/2000/svg">
  <defs
     id="defs4">
    <inkscape:path-effect
       effect="fillet_chamfer"
       id="path-effect2"
       is_visible="true"
       lpeversion="1"
       nodesatellites_param="F,0,0,1,0,0,0,1 @ F,0,0,1,0,0,0,1 @ F,0,0,1,0,0,0,1 @ F,0,1,1,0,1.7737801,0,1 @ F,0,0,1,0,0,0,1 @ F,0,0,1,0,0,0,1 @ F,0,0,1,0,1.08991,0,1 @ F,0,0,1,0,1.08991,0,1 @ F,0,0,1,0,0,0,1 @ F,0,0,1,0,1.7737801,0,1 @ F,0,0,1,0,0,0,1 @ F,0,0,1,0,0,0,1 @ F,0,0,1,0,0,0,1 @ F,0,0,1,0,0,0,1 @ F,0,0,1,0,1.08991,0,1 @ F,0,0,1,0,1.08991,0,1"
       radius="0"
       unit="px"
       method="auto"
       mode="F"
       chamfer_steps="1"
       flexible="false"
       use_knot_distance="true"
       apply_no_radius="true"
       apply_with_radius="true"
       only_selected="false"
       hide_knots="false" />
    <radialGradient
       id="SVGID_1_-3-2-4"
       cx="-159.43106"
       cy="15.462561"
       r="64.706802"
       gradientTransform="matrix(-0.89413329,0,0,0.96304834,-19.43607,43.676448)"
       gradientUnits="userSpaceOnUse"
       fx="-159.43106"
       fy="15.462561">
      <stop
         offset="0"
         style="stop-color:#006fff;stop-opacity:1;"
         id="stop1-6-9-5" />
      <stop
         offset="1"
         style="stop-color:#15baff;stop-opacity:1;"
         id="stop2-7-1-0" />
    </radialGradient>
    <inkscape:path-effect
       effect="fillet_chamfer"
       id="path-effect8-6"
       is_visible="true"
       lpeversion="1"
       nodesatellites_param="F,0,0,1,0,0,0,1 @ F,0,0,1,0,0,0,1 @ F,0,0,1,0,0,0,1 @ F,0,0,1,0,0,0,1 @ F,0,0,1,0,0,0,1 | F,0,0,1,0,0,0,1 @ F,0,0,1,0,0,0,1 | F,0,0,1,0,0,0,1 @ F,0,0,1,0,0,0,1 @ F,0,0,1,0,0,0,1 @ F,0,0,1,0,0,0,1 @ F,0,0,1,0,0,0,1 | F,0,0,1,0,0,0,1 @ F,0,0,1,0,0,0,1 @ F,0,0,1,0,0,0,1 @ F,0,0,1,0,0,0,1 @ F,0,0,1,0,0,0,1 @ F,0,0,1,0,0,0,1 @ F,0,0,1,0,0,0,1 @ F,0,0,1,0,0,0,1 @ F,0,0,1,0,0,0,1 @ F,0,0,1,0,0,0,1 @ F,0,0,1,0,0,0,1 @ F,0,0,1,0,0,0,1 @ F,0,0,1,0,0,0,1 @ F,0,0,1,0,0,0,1 @ F,0,0,1,0,3.3647819,0,1 @ F,0,0,1,0,1.6692262,0,1 @ F,0,0,1,0,0,0,1 @ F,0,0,1,0,0,0,1 @ F,0,0,1,0,0,0,1 @ F,0,0,1,0,0,0,1 @ F,0,0,1,0,0,0,1 @ F,0,0,1,0,0,0,1 @ F,0,0,1,0,0,0,1 @ F,0,0,1,0,0,0,1 @ F,0,0,1,0,0,0,1 @ F,0,0,1,0,0,0,1 @ F,0,0,1,0,0,0,1 | F,0,0,1,0,0,0,1 @ F,0,0,1,0,0,0,1 @ F,0,0,1,0,0,0,1 @ F,0,0,1,0,0,0,1 @ F,0,0,1,0,0,0,1 @ F,0,0,1,0,0,0,1 @ F,0,0,1,0,0,0,1 @ F,0,0,1,0,0,0,1 @ F,0,0,1,0,0,0,1 @ F,0,0,1,0,0,0,1 @ F,0,0,1,0,0,0,1 @ F,0,0,1,0,0,0,1 @ F,0,0,1,0,0,0,1 @ F,0,0,1,0,0,0,1 @ F,0,0,1,0,0,0,1 @ F,0,0,1,0,0,0,1 @ F,0,0,1,0,0,0,1 @ F,0,0,1,0,0,0,1 @ F,0,0,1,0,0,0,1 @ F,0,0,1,0,0,0,1 @ F,0,0,1,0,0,0,1 @ F,0,0,1,0,0,0,1 | F,0,0,1,0,0,0,1 @ F,0,0,1,0,0,0,1 | F,0,0,1,0,0,0,1 @ F,0,0,1,0,0,0,1 @ F,0,0,1,0,0,0,1 | F,0,0,1,0,0,0,1 @ F,0,0,1,0,0,0,1 | F,0,0,1,0,0,0,1 | F,0,0,1,0,0,0,1 | F,0,0,1,0,0,0,1 @ F,0,0,1,0,0,0,1 @ F,0,0,1,0,0,0,1"
       radius="0"
       unit="px"
       method="auto"
       mode="F"
       chamfer_steps="1"
       flexible="false"
       use_knot_distance="true"
       apply_no_radius="true"
       apply_with_radius="true"
       only_selected="false"
       hide_knots="false" />
    <inkscape:path-effect
       effect="fillet_chamfer"
       id="path-effect2-3"
       is_visible="true"
       lpeversion="1"
       nodesatellites_param="F,0,0,1,0,0,0,1 @ F,0,0,1,0,0,0,1 @ F,0,0,1,0,0,0,1 @ F,0,0,1,0,1.7336113,0,1 @ F,0,0,1,0,1.1204095,0,1 @ F,0,0,1,0,0,0,1 @ F,0,0,1,0,1.3734341,0,1 @ F,0,0,1,0,1.3734341,0,1 @ F,0,0,1,0,0,0,1 @ F,0,0,1,0,1.7717827,0,1 @ F,0,0,1,0,0.77668325,0,1 @ F,0,0,1,0,0,0,1 @ F,0,0,1,0,0,0,1 @ F,0,0,1,0,0,0,1 @ F,0,0,1,0,1.3734341,0,1 @ F,0,0,1,0,1.3734341,0,1"
       radius="0"
       unit="px"
       method="auto"
       mode="F"
       chamfer_steps="1"
       flexible="false"
       use_knot_distance="true"
       apply_no_radius="true"
       apply_with_radius="true"
       only_selected="false"
       hide_knots="false" />
    <inkscape:path-effect
       effect="fillet_chamfer"
       id="path-effect2-9"
       is_visible="true"
       lpeversion="1"
       nodesatellites_param="F,0,0,1,0,0,0,1 @ F,0,0,1,0,0,0,1 @ F,0,0,1,0,0,0,1 @ F,0,1,1,0,1.7737801,0,1 @ F,0,0,1,0,0,0,1 @ F,0,0,1,0,0,0,1 @ F,0,0,1,0,1.08991,0,1 @ F,0,0,1,0,1.08991,0,1 @ F,0,0,1,0,0,0,1 @ F,0,0,1,0,1.7737801,0,1 @ F,0,0,1,0,0,0,1 @ F,0,0,1,0,0,0,1 @ F,0,0,1,0,0,0,1 @ F,0,0,1,0,0,0,1 @ F,0,0,1,0,1.08991,0,1 @ F,0,0,1,0,1.08991,0,1"
       radius="0"
       unit="px"
       method="auto"
       mode="F"
       chamfer_steps="1"
       flexible="false"
       use_knot_distance="true"
       apply_no_radius="true"
       apply_with_radius="true"
       only_selected="false"
       hide_knots="false" />
    <filter
       inkscape:collect="always"
       style="color-interpolation-filters:sRGB"
       id="filter4"
       x="-0.11364588"
       y="-0.056822944"
       width="1.2278569"
       height="1.1136459">
      <feGaussianBlur
         inkscape:collect="always"
         stdDeviation="0.90062836"
         id="feGaussianBlur4" />
    </filter>
    <radialGradient
       id="SVGID_1_-3-2-4-0"
       cx="-159.43106"
       cy="15.462561"
       r="64.706802"
       gradientTransform="matrix(-0.89413329,0,0,0.96304834,-19.43607,43.676448)"
       gradientUnits="userSpaceOnUse"
       fx="-159.43106"
       fy="15.462561">
      <stop
         offset="0"
         style="stop-color:#006fff;stop-opacity:1;"
         id="stop1-6-9-5-9" />
      <stop
         offset="1"
         style="stop-color:#15baff;stop-opacity:1;"
         id="stop2-7-1-0-3" />
    </radialGradient>
    <inkscape:path-effect
       effect="fillet_chamfer"
       id="path-effect2-3-6"
       is_visible="true"
       lpeversion="1"
       nodesatellites_param="F,0,0,1,0,0,0,1 @ F,0,0,1,0,0,0,1 @ F,0,0,1,0,0,0,1 @ F,0,0,1,0,1.7336113,0,1 @ F,0,0,1,0,1.1204095,0,1 @ F,0,0,1,0,0,0,1 @ F,0,0,1,0,1.3734341,0,1 @ F,0,0,1,0,1.3734341,0,1 @ F,0,0,1,0,0,0,1 @ F,0,0,1,0,1.7717827,0,1 @ F,0,0,1,0,0.77668325,0,1 @ F,0,0,1,0,0,0,1 @ F,0,0,1,0,0,0,1 @ F,0,0,1,0,0,0,1 @ F,0,0,1,0,1.3734341,0,1 @ F,0,0,1,0,1.3734341,0,1"
       radius="0"
       unit="px"
       method="auto"
       mode="F"
       chamfer_steps="1"
       flexible="false"
       use_knot_distance="true"
       apply_no_radius="true"
       apply_with_radius="true"
       only_selected="false"
       hide_knots="false" />
    <radialGradient
       inkscape:collect="always"
       xlink:href="#SVGID_1_-3-2-4-0"
       id="radialGradient5"
       cx="67.188179"
       cy="54.180645"
       fx="67.188179"
       fy="54.180645"
       r="13.568359"
       gradientTransform="matrix(0,-5.0628101,5.0913858,0,-209.44528,406.66752)"
       gradientUnits="userSpaceOnUse" />
    <radialGradient
       id="SVGID_1_-3-2-4-0-6"
       cx="-159.43106"
       cy="15.462561"
       r="64.706802"
       gradientTransform="matrix(-0.89413329,0,0,0.96304834,-19.43607,43.676448)"
       gradientUnits="userSpaceOnUse"
       fx="-159.43106"
       fy="15.462561">
      <stop
         offset="0"
         style="stop-color:#006fff;stop-opacity:1;"
         id="stop1-6-9-5-9-7" />
      <stop
         offset="1"
         style="stop-color:#15baff;stop-opacity:1;"
         id="stop2-7-1-0-3-5" />
    </radialGradient>
    <filter
       inkscape:collect="always"
       style="color-interpolation-filters:sRGB"
       id="filter1"
       x="-0.12435014"
       y="-0.071951917"
       width="1.2487003"
       height="1.1439039">
      <feGaussianBlur
         inkscape:collect="always"
         stdDeviation="1.5123209"
         id="feGaussianBlur1" />
    </filter>
  </defs>
  <sodipodi:namedview
     id="namedview4"
     pagecolor="#ffffff"
     bordercolor="#000000"
     borderopacity="0.25"
     inkscape:showpageshadow="2"
     inkscape:pageopacity="0.0"
     inkscape:pagecheckerboard="0"
     inkscape:deskcolor="#d1d1d1"
     inkscape:zoom="15.589456"
     inkscape:cx="21.296445"
     inkscape:cy="32.650273"
     inkscape:window-width="1920"
     inkscape:window-height="1017"
     inkscape:window-x="0"
     inkscape:window-y="0"
     inkscape:window-maximized="1"
     inkscape:current-layer="svg4" />
  <path
     style="baseline-shift:baseline;display:inline;overflow:visible;opacity:1;vector-effect:none;fill:url(#radialGradient5);stroke-width:1.18916;enable-background:accumulate;stop-color:#000000;stop-opacity:1"
     d="m 35.246441,4.1155157 c 0,0 -3.05131,-0.060671 -6.233801,1.5305799 -3.18249,1.5912449 -6.698315,5.6669474 -6.698315,11.4015364 v 4.166706 c -3.490903,0.02333 -6.407994,2.942713 -6.407994,6.438188 v 5.151478 c 0,3.106759 2.61143,5.718189 5.718188,5.718189 h 0.689806 v 15.342953 c 0,3.272933 2.74719,6.020123 6.020123,6.020123 h 5.276898 c 3.272933,0 6.022446,-2.74719 6.022446,-6.020123 V 38.522193 h 0.982451 c 3.381485,0 6.30212,-2.576493 6.721542,-5.931865 l 0.692128,-5.537027 c 0.370369,-2.962951 -2.012318,-5.683143 -4.972641,-5.804124 2.844576,-0.462341 5.118963,-2.878807 5.118963,-5.834317 v -5.279221 c 0,-3.2729327 -2.74719,-6.0201233 -6.020123,-6.0201233 z"
     id="path3-62"
     sodipodi:nodetypes="csscssscsssscssscsssc" />
  <path
     style="baseline-shift:baseline;display:inline;overflow:visible;mix-blend-mode:normal;fill:none;stroke:#000000;stroke-width:0.18552447;stroke-dasharray:none;stroke-opacity:1;filter:url(#filter1);enable-background:accumulate;stop-color:#000000"
     d="m 34.973176,6.1335068 c 0,0 -2.830463,-0.05628 -5.782613,1.419801 -2.952148,1.4760739 -6.213507,5.2567862 -6.213507,10.5763192 v 3.865129 c -3.238238,0.02164 -5.944198,2.729727 -5.944198,5.972207 v 4.778627 c 0,2.881898 2.422421,5.304319 5.304319,5.304319 h 0.639879 v 14.232466 c 0,3.036045 2.548356,5.584401 5.584401,5.584401 h 4.894969 c 3.036045,0 5.586555,-2.548356 5.586555,-5.584401 V 38.049909 h 0.911343 c 3.136741,0 5.845988,-2.390012 6.235053,-5.50253 l 0.642033,-5.13627 c 0.343562,-2.7485 -1.866671,-5.27181 -4.612733,-5.384036 2.638692,-0.428877 4.748465,-2.670445 4.748465,-5.412042 v -4.897123 c 0,-3.0360454 -2.548355,-5.5844012 -5.584401,-5.5844012 z"
     id="path3-62-5"
     sodipodi:nodetypes="csscssscsssscssscsssc"
     transform="matrix(1.0780249,0,0,1.0780249,-2.4967982,-2.4967984)" />
  <path
     style="opacity:1;fill:#ffffff;fill-opacity:1;stroke-width:0.898184"
     d="m 40.981831,17.63065 c 0,0 -7.185321,0 -7.185321,7.185321 v 7.185321 h -3.615211 a 1.7737801,1.7737801 135 0 0 -1.77378,1.77378 v 5.411542 h 5.388991 v 16.873393 a 1.08991,1.08991 45 0 0 1.08991,1.08991 h 5.005501 a 1.08991,1.08991 135 0 0 1.08991,-1.08991 l 0,-16.873393 h 4.513377 a 2.0093065,2.0093065 138.56251 0 0 1.99379,-1.760083 l 0.678155,-5.425239 h -7.185322 v -5.388991 c 0,-1.79633 1.796331,-1.79633 1.796331,-1.79633 h 4.299081 a 1.08991,1.08991 135 0 0 1.08991,-1.08991 V 18.72056 a 1.08991,1.08991 45 0 0 -1.08991,-1.08991 z"
     id="path3"
     inkscape:path-effect="#path-effect2"
     inkscape:original-d="m 40.981831,17.63065 c 0,0 -7.185321,0 -7.185321,7.185321 v 7.185321 h -5.388991 v 7.185322 h 5.388991 v 17.963303 h 7.185321 V 39.186614 h 6.287157 l 0.898165,-7.185322 h -7.185322 v -5.388991 c 0,-1.79633 1.796331,-1.79633 1.796331,-1.79633 h 5.388991 V 17.63065 Z"
     transform="matrix(1.1891602,0,0,1.1891602,-13.488222,-12.463049)" />
  <path
     style="fill:none;fill-opacity:1;stroke:#000bff;stroke-width:0.16818592;stroke-dasharray:none;stroke-opacity:1;filter:url(#filter4)"
     d="m 40.981831,17.63065 c 0,0 -7.185321,0 -7.185321,7.185321 v 7.185321 h -3.615211 a 1.7737801,1.7737801 135 0 0 -1.77378,1.77378 v 5.411542 h 5.388991 v 16.873393 a 1.08991,1.08991 45 0 0 1.08991,1.08991 h 5.005501 a 1.08991,1.08991 135 0 0 1.08991,-1.08991 l 0,-16.873393 h 4.513377 a 2.0093065,2.0093065 138.56251 0 0 1.99379,-1.760083 l 0.678155,-5.425239 h -7.185322 v -5.388991 c 0,-1.79633 1.796331,-1.79633 1.796331,-1.79633 h 4.299081 a 1.08991,1.08991 135 0 0 1.08991,-1.08991 V 18.72056 a 1.08991,1.08991 45 0 0 -1.08991,-1.08991 z"
     id="path3-2"
     inkscape:path-effect="#path-effect2-9"
     inkscape:original-d="m 40.981831,17.63065 c 0,0 -7.185321,0 -7.185321,7.185321 v 7.185321 h -5.388991 v 7.185322 h 5.388991 v 17.963303 h 7.185321 V 39.186614 h 6.287157 l 0.898165,-7.185322 h -7.185322 v -5.388991 c 0,-1.79633 1.796331,-1.79633 1.796331,-1.79633 h 5.388991 V 17.63065 Z"
     transform="matrix(1.1891602,0,0,1.1891602,-13.529774,-12.463035)" />
</svg>
