<?xml version="1.0" encoding="UTF-8" standalone="no"?>
<svg
   width="64"
   height="64"
   version="1"
   id="svg5"
   sodipodi:docname="whatsapp.svg"
   inkscape:version="1.4.3 (0d15f75042, 2025-12-25)"
   xmlns:inkscape="http://www.inkscape.org/namespaces/inkscape"
   xmlns:sodipodi="http://sodipodi.sourceforge.net/DTD/sodipodi-0.dtd"
   xmlns:xlink="http://www.w3.org/1999/xlink"
   xmlns="http://www.w3.org/2000/svg"
   xmlns:svg="http://www.w3.org/2000/svg">
  <defs
     id="defs5">
    <radialGradient
       inkscape:collect="always"
       xlink:href="#linearGradient18"
       id="radialGradient19"
       cx="10.792354"
       cy="29.205273"
       fx="10.792354"
       fy="29.205273"
       r="25.411133"
       gradientTransform="matrix(0,2.1358158,-2.1775055,0,68.235825,-18.516699)"
       gradientUnits="userSpaceOnUse" />
    <linearGradient
       id="linearGradient18"
       inkscape:collect="always">
      <stop
         style="stop-color:#47e8ab;stop-opacity:1;"
         offset="0"
         id="stop18" />
      <stop
         style="stop-color:#4dc35d;stop-opacity:1;"
         offset="1"
         id="stop19" />
    </linearGradient>
    <filter
       inkscape:collect="always"
       style="color-interpolation-filters:sRGB"
       id="filter20"
       x="-0.074743393"
       y="-0.07474052"
       width="1.1494868"
       height="1.149481">
      <feGaussianBlur
         inkscape:collect="always"
         stdDeviation="1.5442771"
         id="feGaussianBlur20" />
    </filter>
    <filter
       inkscape:collect="always"
       style="color-interpolation-filters:sRGB"
       id="filter5"
       x="-0.07194497"
       y="-0.077478446"
       width="1.1438932"
       height="1.1549008">
      <feGaussianBlur
         inkscape:collect="always"
         stdDeviation="0.79769251"
         id="feGaussianBlur5" />
    </filter>
  </defs>
  <sodipodi:namedview
     id="namedview5"
     pagecolor="#ffffff"
     bordercolor="#000000"
     borderopacity="0.25"
     inkscape:showpageshadow="2"
     inkscape:pageopacity="0.0"
     inkscape:pagecheckerboard="0"
     inkscape:deskcolor="#d1d1d1"
     inkscape:zoom="9.1686657"
     inkscape:cx="25.41264"
     inkscape:cy="34.301611"
     inkscape:current-layer="svg5" />
  <path
     d="M 32.001058,4.4868161 C 16.805853,4.4865552 4.4876123,16.804795 4.4878731,32 c 0.012846,4.969154 1.3690193,9.832113 3.9141426,14.076955 0.4557466,0.760111 0.7950022,2.065823 0.7062798,2.947766 l -0.7253112,7.196016 a 2.920186,2.920186 0 0 0 3.6942227,3.104247 l 6.844991,-1.92218 c 0.853406,-0.239565 2.195008,-0.125907 3.019662,0.198773 3.198936,1.259477 6.611783,1.908922 10.059198,1.911607 C 47.195436,59.512278 59.512388,47.194379 59.512127,32 59.512388,16.805621 47.195436,4.4877232 32.001058,4.4868161 Z"
     style="fill:url(#radialGradient19);stroke-width:0.108268;stroke-linejoin:round"
     id="path18" />
  <path
     d="M 32.000976,6.587891 C 17.96617,6.58765 6.5886265,17.965194 6.5888675,32 c 0.01187,4.589679 1.264472,9.081273 3.6152335,13.001953 0.420943,0.702064 0.734291,1.908064 0.652344,2.722656 l -0.669922,6.646485 a 2.6971828,2.6971828 0 0 0 3.412109,2.867187 l 6.322266,-1.77539 c 0.788235,-0.221271 2.027384,-0.116292 2.789062,0.183593 2.954646,1.163296 6.106867,1.763145 9.291016,1.765625 C 46.035019,57.411272 57.411373,46.034043 57.411132,32 57.411373,17.965957 46.035019,6.5887288 32.000976,6.587891 Z"
     style="mix-blend-mode:normal;fill:none;fill-opacity:1;stroke:#000000;stroke-width:0.184727;stroke-linejoin:round;stroke-dasharray:none;stroke-opacity:1;filter:url(#filter20)"
     id="path18-7"
     transform="matrix(1.0826801,0,0,1.0826801,-2.6457621,-2.645762)" />
  <path
     style="fill:#ffffff;stroke:none;stroke-opacity:0.87450981;stroke-width:0.2;stroke-dasharray:none"
     d="m 42.501273,44.331841 c 2.099033,-1.002433 3.074917,-2.260154 3.411421,-4.396614 0.256452,-1.628209 0.138182,-2.044762 -3.054911,-3.582134 -4.06,-1.954828 -3.809721,-1.964158 -5.558755,0.20739 -1.088514,1.35145 -1.556254,1.78993 -1.909502,1.78993 -4.137549,-1.118683 -8.347537,-4.350119 -9.686543,-8.593602 0,-0.181703 0.440383,-0.846498 0.978656,-1.477319 1.582699,-1.854803 1.584435,-1.900255 0.20258,-5.304738 -1.590819,-3.91937 -2.12892,-3.892756 -3.861981,-3.964445 -1.773547,-0.07334 -2.334009,0.208556 -3.456149,1.738395 -1.160979,1.582809 -1.57549,2.856112 -1.565928,4.810281 0.0126,2.480269 0.825412,4.471743 3.179496,7.785766 4.04124,5.689125 7.984114,8.776943 13.664444,10.701129 3.47407,1.176845 5.6237,1.257117 7.657172,0.285961 z"
     id="path4" />
  <path
     style="fill:none;stroke:#5aff00;stroke-width:0.2;stroke-dasharray:none;stroke-opacity:0.87450981;filter:url(#filter5)"
     d="m 42.501273,44.331841 c 2.099033,-1.002433 3.074917,-2.260154 3.411421,-4.396614 0.256452,-1.628209 0.138182,-2.044762 -3.054911,-3.582134 -4.06,-1.954828 -3.809721,-1.964158 -5.558755,0.20739 -1.088514,1.35145 -1.556254,1.78993 -1.909502,1.78993 -4.137549,-1.118683 -8.347537,-4.350119 -9.686543,-8.593602 0,-0.181703 0.440383,-0.846498 0.978656,-1.477319 1.582699,-1.854803 1.584435,-1.900255 0.20258,-5.304738 -1.590819,-3.91937 -2.12892,-3.892756 -3.861981,-3.964445 -1.773547,-0.07334 -2.334009,0.208556 -3.456149,1.738395 -1.160979,1.582809 -1.57549,2.856112 -1.565928,4.810281 0.0126,2.480269 0.825412,4.471743 3.179496,7.785766 4.04124,5.689125 7.984114,8.776943 13.664444,10.701129 3.47407,1.176845 5.6237,1.257117 7.657172,0.285961 z"
     id="path4-5" />
</svg>
