<?xml version="1.0" encoding="UTF-8" standalone="no"?>
<svg
   width="64"
   height="64"
   version="1.1"
   id="svg7"
   sodipodi:docname="designer-qt4.svg"
   inkscape:version="1.4.2 (ebf0e940d0, 2025-05-08)"
   xmlns:inkscape="http://www.inkscape.org/namespaces/inkscape"
   xmlns:sodipodi="http://sodipodi.sourceforge.net/DTD/sodipodi-0.dtd"
   xmlns:xlink="http://www.w3.org/1999/xlink"
   xmlns="http://www.w3.org/2000/svg"
   xmlns:svg="http://www.w3.org/2000/svg">
  <defs
     id="defs7">
    <inkscape:path-effect
       effect="fillet_chamfer"
       id="path-effect2"
       is_visible="true"
       lpeversion="1"
       nodesatellites_param="F,0,1,1,0,1.6453716,0,1 @ F,0,0,1,0,1.6453716,0,1 @ F,0,0,1,0,0,0,1 @ F,0,0,1,0,0,0,1 @ F,0,0,1,0,0,0,1 @ F,0,0,1,0,0,0,1 @ F,0,0,1,0,0,0,1 @ F,0,0,1,0,0,0,1 @ F,0,0,1,0,0,0,1 @ F,0,0,1,0,0,0,1 @ F,0,0,1,0,0,0,1 @ F,0,0,1,0,0,0,1 | F,0,0,1,0,0,0,1 @ F,0,0,1,0,0,0,1 @ F,0,0,1,0,0,0,1 @ F,0,0,1,0,0,0,1 @ F,0,0,1,0,0,0,1 @ F,0,0,1,0,0,0,1 @ F,0,0,1,0,0,0,1 @ F,0,0,1,0,0,0,1 @ F,0,0,1,0,0,0,1 @ F,0,0,1,0,0,0,1"
       radius="0"
       unit="px"
       method="auto"
       mode="F"
       chamfer_steps="1"
       flexible="false"
       use_knot_distance="true"
       apply_no_radius="true"
       apply_with_radius="true"
       only_selected="false"
       hide_knots="false" />
    <linearGradient
       id="linearGradient6"
       inkscape:collect="always">
      <stop
         style="stop-color:#00ab60;stop-opacity:1;"
         offset="0"
         id="stop6" />
      <stop
         style="stop-color:#00f06d;stop-opacity:1;"
         offset="1"
         id="stop7" />
    </linearGradient>
    <radialGradient
       inkscape:collect="always"
       xlink:href="#linearGradient6"
       id="radialGradient7-0"
       cx="34.988251"
       cy="58.377243"
       fx="34.988251"
       fy="58.377243"
       r="30"
       gradientTransform="matrix(-5.0453484e-8,-2.1573604,2.1108489,0,-59.255975,139.88037)"
       gradientUnits="userSpaceOnUse" />
    <inkscape:path-effect
       effect="fillet_chamfer"
       id="path-effect1"
       is_visible="true"
       lpeversion="1"
       nodesatellites_param="F,0,1,1,0,5.769553,0,1 @ F,0,0,1,0,0,0,1 @ F,0,0,1,0,0,0,1 @ F,0,1,1,0,5.769553,0,1 @ F,0,1,1,0,5.769553,0,1 @ F,0,0,1,0,0,0,1 @ F,0,0,1,0,0,0,1 @ F,0,1,1,0,5.769553,0,1"
       radius="0"
       unit="px"
       method="auto"
       mode="F"
       chamfer_steps="1"
       flexible="false"
       use_knot_distance="true"
       apply_no_radius="true"
       apply_with_radius="true"
       only_selected="false"
       hide_knots="false" />
    <filter
       inkscape:collect="always"
       style="color-interpolation-filters:sRGB"
       id="filter3"
       x="-0.081923944"
       y="-0.10240493"
       width="1.1638479"
       height="1.2048099">
      <feGaussianBlur
         inkscape:collect="always"
         stdDeviation="1.9999386"
         id="feGaussianBlur3" />
    </filter>
    <inkscape:path-effect
       effect="fillet_chamfer"
       id="path-effect1-6"
       is_visible="true"
       lpeversion="1"
       nodesatellites_param="F,0,1,1,0,5.769553,0,1 @ F,0,0,1,0,0,0,1 @ F,0,0,1,0,0,0,1 @ F,0,1,1,0,5.769553,0,1 @ F,0,1,1,0,5.769553,0,1 @ F,0,0,1,0,0,0,1 @ F,0,0,1,0,0,0,1 @ F,0,1,1,0,5.769553,0,1"
       radius="0"
       unit="px"
       method="auto"
       mode="F"
       chamfer_steps="1"
       flexible="false"
       use_knot_distance="true"
       apply_no_radius="true"
       apply_with_radius="true"
       only_selected="false"
       hide_knots="false" />
    <inkscape:path-effect
       effect="fillet_chamfer"
       id="path-effect3"
       is_visible="true"
       lpeversion="1"
       nodesatellites_param="F,0,0,1,0,3.1631051,0,1 @ F,0,0,1,0,0,0,1 @ F,0,1,1,0,3.4481806,0,1 @ F,0,0,1,0,0,0,1 @ F,0,0,1,0,0,0,1 @ F,0,0,1,0,3.4481806,0,1 @ F,0,0,1,0,0,0,1 @ F,0,0,1,0,3.1631051,0,1 | F,0,0,1,0,0,0,1 @ F,0,0,1,0,0,0,1 @ F,0,0,1,0,0,0,1"
       radius="0"
       unit="px"
       method="auto"
       mode="F"
       chamfer_steps="1"
       flexible="false"
       use_knot_distance="true"
       apply_no_radius="true"
       apply_with_radius="true"
       only_selected="false"
       hide_knots="false" />
    <inkscape:path-effect
       effect="fillet_chamfer"
       id="path-effect3-1"
       is_visible="true"
       lpeversion="1"
       nodesatellites_param="F,0,0,1,0,3.1631051,0,1 @ F,0,0,1,0,0,0,1 @ F,0,1,1,0,3.4481806,0,1 @ F,0,0,1,0,0,0,1 @ F,0,0,1,0,0,0,1 @ F,0,0,1,0,3.4481806,0,1 @ F,0,0,1,0,0,0,1 @ F,0,0,1,0,3.1631051,0,1 | F,0,0,1,0,0,0,1 @ F,0,0,1,0,0,0,1 @ F,0,0,1,0,0,0,1"
       radius="0"
       unit="px"
       method="auto"
       mode="F"
       chamfer_steps="1"
       flexible="false"
       use_knot_distance="true"
       apply_no_radius="true"
       apply_with_radius="true"
       only_selected="false"
       hide_knots="false" />
    <filter
       inkscape:collect="always"
       style="color-interpolation-filters:sRGB"
       id="filter1"
       x="-0.13094077"
       y="-0.098205581"
       width="1.2618815"
       height="1.1964112">
      <feGaussianBlur
         inkscape:collect="always"
         stdDeviation="0.94038913"
         id="feGaussianBlur1" />
    </filter>
  </defs>
  <sodipodi:namedview
     id="namedview7"
     pagecolor="#ffffff"
     bordercolor="#000000"
     borderopacity="0.25"
     inkscape:showpageshadow="2"
     inkscape:pageopacity="0.0"
     inkscape:pagecheckerboard="0"
     inkscape:deskcolor="#d1d1d1"
     inkscape:zoom="17.288217"
     inkscape:cx="32.392004"
     inkscape:cy="36.325319"
     inkscape:window-width="1920"
     inkscape:window-height="1014"
     inkscape:window-x="0"
     inkscape:window-y="0"
     inkscape:window-maximized="1"
     inkscape:current-layer="svg7" />
  <g
     id="g1">
    <path
       style="fill:url(#radialGradient7-0)"
       d="m 15.951371,8.0000002 h 43.191487 c 0,0 2.857142,0 2.857142,2.8235288 v 30.93633 a 14.277802,14.277802 112.00327 0 1 -4.008341,9.919365 l -0.165136,0.170964 A 13.594369,13.594369 157.00327 0 1 48.048629,56 H 4.857143 C 4.857143,56 2,56 2,53.17647 V 22.240141 A 14.277802,14.277802 112.00327 0 1 6.0083414,12.320776 L 6.1734766,12.149812 A 13.59437,13.59437 157.00327 0 1 15.951371,8.0000002 Z"
       id="path2-0"
       inkscape:path-effect="#path-effect1"
       inkscape:original-d="m 10.181818,8.0000002 h 48.96104 c 0,0 2.857142,0 2.857142,2.8235288 V 47.529412 L 53.818182,56 H 4.857143 C 4.857143,56 2,56 2,53.17647 V 16.470588 Z"
       transform="matrix(0.91504011,0,0,0.91504011,2.7187164,2.7187164)" />
    <path
       style="mix-blend-mode:normal;fill:none;stroke:#000000;stroke-width:0.231168;stroke-dasharray:none;stroke-opacity:1;filter:url(#filter3)"
       d="m 15.951371,8.0000002 h 43.191487 c 0,0 2.857142,0 2.857142,2.8235288 v 30.93633 a 14.277802,14.277802 112.00327 0 1 -4.008341,9.919365 l -0.165136,0.170964 A 13.594369,13.594369 157.00327 0 1 48.048629,56 H 4.857143 C 4.857143,56 2,56 2,53.17647 V 22.240141 A 14.277802,14.277802 112.00327 0 1 6.0083414,12.320776 L 6.1734766,12.149812 A 13.59437,13.59437 157.00327 0 1 15.951371,8.0000002 Z"
       id="path2-9"
       inkscape:path-effect="#path-effect1-6"
       inkscape:original-d="m 10.181818,8.0000002 h 48.96104 c 0,0 2.857142,0 2.857142,2.8235288 V 47.529412 L 53.818182,56 H 4.857143 C 4.857143,56 2,56 2,53.17647 V 16.470588 Z"
       transform="matrix(0.91504011,0,0,0.91504011,2.7187164,2.7187163)" />
    <path
       style="fill:#ffffff"
       d="M 23,21.645372 V 42.354628 A 1.6453716,1.6453716 45 0 0 24.645372,44 h 0.926056 1.285714 4.5 H 32 32.642858 C 37.272714,44 41,40.134666 41,35.333334 V 28.666666 C 41,23.865332 37.272714,20 32.642858,20 H 32 26.857142 24.645372 A 1.6453716,1.6453716 135 0 0 23,21.645372 Z M 27,24 H 31.357142 32 32.642858 C 35.202576,24 37,26.012144 37,28.666666 v 6.666668 C 37,37.987856 35.202576,40 32.642858,40 H 32 31.357142 27 Z"
       id="path6"
       inkscape:path-effect="#path-effect2"
       inkscape:original-d="m 23,20 v 24 h 2.571428 1.285714 4.5 H 32 32.642858 C 37.272714,44 41,40.134666 41,35.333334 V 28.666666 C 41,23.865332 37.272714,20 32.642858,20 H 32 26.857142 Z m 4,4 H 31.357142 32 32.642858 C 35.202576,24 37,26.012144 37,28.666666 v 6.666668 C 37,37.987856 35.202576,40 32.642858,40 H 32 31.357142 27 Z" />
    <path
       style="fill:none;stroke:#006fff;stroke-opacity:1;stroke-width:0.19999991;stroke-dasharray:none;filter:url(#filter1)"
       d="m 23,20 v 24 h 2.571428 1.285714 4.5 H 32 32.642858 C 37.272714,44 41,40.134666 41,35.333334 V 28.666666 C 41,23.865332 37.272714,20 32.642858,20 H 32 26.857142 Z m 4,4 H 31.357142 32 32.642858 C 35.202576,24 37,26.012144 37,28.666666 v 6.666668 C 37,37.987856 35.202576,40 32.642858,40 H 32 31.357142 27 Z"
       id="path6-6" />
  </g>
</svg>
