<?xml version="1.0" encoding="UTF-8" standalone="no"?>
<svg
   width="64"
   height="64"
   version="1"
   id="svg5"
   sodipodi:docname="apparmor_view_profile.svg"
   inkscape:version="1.4.2 (ebf0e940d0, 2025-05-08)"
   xmlns:inkscape="http://www.inkscape.org/namespaces/inkscape"
   xmlns:sodipodi="http://sodipodi.sourceforge.net/DTD/sodipodi-0.dtd"
   xmlns:xlink="http://www.w3.org/1999/xlink"
   xmlns="http://www.w3.org/2000/svg"
   xmlns:svg="http://www.w3.org/2000/svg">
  <defs
     id="defs5">
    <radialGradient
       id="radialGradient2"
       cx="-159.43106"
       cy="15.462561"
       r="64.706802"
       gradientTransform="matrix(-0.89413329,0,0,0.96304834,-142.52548,48.016032)"
       gradientUnits="userSpaceOnUse"
       fx="-159.43106"
       fy="15.462561">
      <stop
         offset="0"
         style="stop-color:#5fa4ff;stop-opacity:1;"
         id="stop1" />
      <stop
         offset="1"
         style="stop-color:#5acfff;stop-opacity:1;"
         id="stop2" />
    </radialGradient>
    <linearGradient
       id="linearGradient5"
       inkscape:collect="always">
      <stop
         style="stop-color:#5ee2f6;stop-opacity:1;"
         offset="0"
         id="stop5" />
      <stop
         style="stop-color:#875ef6;stop-opacity:1;"
         offset="1"
         id="stop6" />
    </linearGradient>
    <radialGradient
       inkscape:collect="always"
       xlink:href="#linearGradient5"
       id="radialGradient1"
       cx="52.953053"
       cy="114.39207"
       fx="52.953053"
       fy="114.39207"
       r="151.4955"
       gradientTransform="matrix(0.90426906,1.54249,-1.8509192,1.0524244,216.79972,-97.822177)"
       gradientUnits="userSpaceOnUse" />
    <radialGradient
       inkscape:collect="always"
       xlink:href="#radialGradient2"
       id="radialGradient9-8"
       cx="47.950642"
       cy="45.898148"
       fx="47.950642"
       fy="45.898148"
       r="20"
       gradientTransform="matrix(0,-2.8598745,2.8612669,0,-70.667508,197.00124)"
       gradientUnits="userSpaceOnUse" />
    <radialGradient
       inkscape:collect="always"
       xlink:href="#SVGID_1_-3-2"
       id="radialGradient9"
       cx="47.950642"
       cy="45.898148"
       fx="47.950642"
       fy="45.898148"
       r="20"
       gradientTransform="matrix(0,-4.0234745,4.0254334,0,-112.43992,264.13545)"
       gradientUnits="userSpaceOnUse" />
    <radialGradient
       id="SVGID_1_-3-2"
       cx="-159.43106"
       cy="15.462561"
       r="64.706802"
       gradientTransform="matrix(-0.89413329,0,0,0.96304834,-142.52548,48.016032)"
       gradientUnits="userSpaceOnUse"
       fx="-159.43106"
       fy="15.462561">
      <stop
         offset="0"
         style="stop-color:#006fff;stop-opacity:1;"
         id="stop1-6-9" />
      <stop
         offset="1"
         style="stop-color:#15baff;stop-opacity:1;"
         id="stop2-7-1" />
    </radialGradient>
    <radialGradient
       id="radialGradient2-6"
       cx="-159.43106"
       cy="15.462561"
       r="64.706802"
       gradientTransform="matrix(-0.89413329,0,0,0.96304834,-142.52548,48.016032)"
       gradientUnits="userSpaceOnUse"
       fx="-159.43106"
       fy="15.462561">
      <stop
         offset="0"
         style="stop-color:#5fa4ff;stop-opacity:1;"
         id="stop1-7" />
      <stop
         offset="1"
         style="stop-color:#5acfff;stop-opacity:1;"
         id="stop2-5" />
    </radialGradient>
    <filter
       inkscape:collect="always"
       style="color-interpolation-filters:sRGB"
       id="filter1"
       x="-0.071238737"
       y="-0.06194506"
       width="1.1424775"
       height="1.123807">
      <feGaussianBlur
         inkscape:collect="always"
         stdDeviation="1.0165"
         id="feGaussianBlur1" />
    </filter>
    <radialGradient
       id="SVGID_1_-3-2-2"
       cx="-159.43106"
       cy="15.462561"
       r="64.706802"
       gradientTransform="matrix(-0.89413329,0,0,0.96304834,-142.52548,48.016032)"
       gradientUnits="userSpaceOnUse"
       fx="-159.43106"
       fy="15.462561">
      <stop
         offset="0"
         style="stop-color:#006fff;stop-opacity:1;"
         id="stop1-6-9-9" />
      <stop
         offset="1"
         style="stop-color:#15baff;stop-opacity:1;"
         id="stop2-7-1-1" />
    </radialGradient>
    <filter
       inkscape:collect="always"
       style="color-interpolation-filters:sRGB"
       id="filter2"
       x="-0.058394224"
       y="-0.050767171"
       width="1.1167884"
       height="1.1014753">
      <feGaussianBlur
         inkscape:collect="always"
         stdDeviation="1.1786204"
         id="feGaussianBlur2" />
    </filter>
  </defs>
  <sodipodi:namedview
     id="namedview5"
     pagecolor="#505050"
     bordercolor="#eeeeee"
     borderopacity="1"
     inkscape:showpageshadow="0"
     inkscape:pageopacity="0"
     inkscape:pagecheckerboard="0"
     inkscape:deskcolor="#505050"
     inkscape:zoom="9.5136833"
     inkscape:cx="21.705579"
     inkscape:cy="37.89279"
     inkscape:window-width="1920"
     inkscape:window-height="1024"
     inkscape:window-x="0"
     inkscape:window-y="0"
     inkscape:window-maximized="1"
     inkscape:current-layer="svg5" />
  <path
     d="M 28.376694,3.8714708 C 23.310746,6.3617336 20.253601,7.900231 13.419435,10.611594 9.8119384,12.042817 6.923127,16.438076 6.923127,20.320006 l 0,11.810042 c 0,18.130078 20.412073,28.747876 25.076873,28.747876 4.6648,0 25.076873,-10.617798 25.076873,-28.747876 l 0,-10.864036 c 0,-4.265331 -3.190005,-9.058104 -7.159288,-10.619185 C 42.388899,7.6858639 40.655675,6.3637686 35.620432,3.875132 33.589606,2.8714089 30.41008,2.8719214 28.376694,3.871492 Z"
     style="fill:url(#radialGradient9);fill-rule:evenodd;stroke-width:1.25385"
     id="path3"
     sodipodi:nodetypes="ccsssccsscc" />
  <path
     d="M 28.376694,3.8714704 C 23.310746,6.361733 20.253601,7.900231 13.419435,10.611594 9.811938,12.042817 6.923127,16.438076 6.923127,20.320006 v 11.810042 c 0,18.130078 20.412073,28.747876 25.076873,28.747876 4.6648,0 25.076873,-10.617798 25.076873,-28.747876 V 21.266012 c 0,-4.265331 -3.190005,-9.058104 -7.159288,-10.619185 C 42.388899,7.685864 40.655675,6.363768 35.620432,3.8751316 33.589606,2.8714085 30.41008,2.871921 28.376694,3.8714916 Z"
     style="fill:none;fill-rule:evenodd;stroke-width:0.2;stroke:#000000;stroke-opacity:1;stroke-dasharray:none;filter:url(#filter2)"
     id="path3-7"
     sodipodi:nodetypes="ccsssccsscc" />
  <path
     d="m 29.424563,12.006323 c -3.600861,1.770071 -7.620446,3.239217 -11.531465,4.790859 -2.064477,0.819054 -3.71767,3.334347 -3.71767,5.555876 v 9.739383 c 0,12.886809 14.508843,20.433911 17.824572,20.433911 3.315727,0 17.824572,-7.547102 17.824572,-20.433911 v -9.739383 c 0,-2.221529 -1.661462,-4.717767 -3.728799,-5.530831 -3.921197,-1.54217 -7.943343,-3.044385 -11.522381,-4.813303 -1.443505,-0.713442 -3.703503,-0.713079 -5.148829,-0.0026 z"
     style="fill:url(#radialGradient9-8);fill-rule:evenodd;stroke-width:0.891231"
     id="path3-5"
     sodipodi:nodetypes="ccssscc" />
  <path
     d="m 29.424563,12.00632 c -3.600861,1.770071 -7.620446,3.239217 -11.531465,4.790859 -2.064477,0.819054 -3.71767,3.334347 -3.71767,5.555876 v 9.739383 c 0,12.886809 14.508843,20.433911 17.824572,20.433911 3.315727,0 17.824572,-7.547102 17.824572,-20.433911 v -9.739383 c 0,-2.221529 -1.661462,-4.717767 -3.728799,-5.530831 -3.921197,-1.54217 -7.943343,-3.044385 -11.522381,-4.813303 -1.443505,-0.713442 -3.703503,-0.713079 -5.148829,-0.0026 z"
     style="fill:none;fill-rule:evenodd;stroke-width:0.20000001;stroke:#0600ff;stroke-opacity:1;stroke-dasharray:none;filter:url(#filter1)"
     id="path3-5-5"
     sodipodi:nodetypes="ccssscc" />
</svg>
