<?xml version="1.0" encoding="UTF-8" standalone="no"?>
<svg
   width="64"
   height="64"
   version="1"
   id="svg4"
   sodipodi:docname="emacs.svg"
   inkscape:version="1.4.2 (ebf0e940d0, 2025-05-08)"
   xmlns:inkscape="http://www.inkscape.org/namespaces/inkscape"
   xmlns:sodipodi="http://sodipodi.sourceforge.net/DTD/sodipodi-0.dtd"
   xmlns:xlink="http://www.w3.org/1999/xlink"
   xmlns="http://www.w3.org/2000/svg"
   xmlns:svg="http://www.w3.org/2000/svg">
  <defs
     id="defs4">
    <inkscape:path-effect
       effect="fillet_chamfer"
       id="path-effect5"
       is_visible="true"
       lpeversion="1"
       nodesatellites_param="F,0,0,1,0,3.2684149,0,1 @ F,0,0,1,0,0,0,1 @ F,0,0,1,0,0,0,1 @ F,0,0,1,0,0,0,1 @ F,0,0,1,0,0,0,1 @ F,0,0,1,0,0,0,1 @ F,0,0,1,0,0,0,1 @ F,0,0,1,0,0,0,1 @ F,0,0,1,0,0,0,1 @ F,0,0,1,0,9.2802424,0,1 @ F,0,0,1,0,0,0,1 @ F,0,0,1,0,0,0,1 @ F,0,0,1,0,0,0,1 @ F,0,0,1,0,0,0,1 @ F,0,0,1,0,0,0,1 @ F,0,0,1,0,0,0,1 @ F,0,0,1,0,0,0,1 @ F,0,1,1,0,3.2684149,0,1 @ F,0,0,1,0,0,0,1 @ F,0,0,1,0,0,0,1 @ F,0,0,1,0,0,0,1 @ F,0,0,1,0,0,0,1 @ F,0,0,1,0,0,0,1 @ F,0,0,1,0,0,0,1 @ F,0,0,1,0,2.9498386,0,1 @ F,0,0,1,0,0,0,1 @ F,0,0,1,0,0,0,1 @ F,0,0,1,0,0,0,1 @ F,0,0,1,0,0,0,1"
       radius="0"
       unit="px"
       method="auto"
       mode="F"
       chamfer_steps="1"
       flexible="false"
       use_knot_distance="true"
       apply_no_radius="true"
       apply_with_radius="true"
       only_selected="false"
       hide_knots="false" />
    <linearGradient
       id="linearGradient4"
       inkscape:collect="always">
      <stop
         style="stop-color:#4e61cc;stop-opacity:1;"
         offset="0"
         id="stop4" />
      <stop
         style="stop-color:#9f35ff;stop-opacity:1;"
         offset="1"
         id="stop5" />
    </linearGradient>
    <radialGradient
       inkscape:collect="always"
       xlink:href="#linearGradient4"
       id="radialGradient5"
       cx="64.632019"
       cy="64.201408"
       fx="64.632019"
       fy="64.201408"
       r="28"
       gradientUnits="userSpaceOnUse"
       gradientTransform="matrix(0,-2.2808695,2.2808695,0,-82.273801,210.29566)" />
    <inkscape:path-effect
       effect="fillet_chamfer"
       id="path-effect5-3"
       is_visible="true"
       lpeversion="1"
       nodesatellites_param="F,0,0,1,0,3.2684149,0,1 @ F,0,0,1,0,0,0,1 @ F,0,0,1,0,0,0,1 @ F,0,0,1,0,0,0,1 @ F,0,0,1,0,0,0,1 @ F,0,0,1,0,0,0,1 @ F,0,0,1,0,0,0,1 @ F,0,0,1,0,0,0,1 @ F,0,0,1,0,0,0,1 @ F,0,0,1,0,9.2802424,0,1 @ F,0,0,1,0,0,0,1 @ F,0,0,1,0,0,0,1 @ F,0,0,1,0,0,0,1 @ F,0,0,1,0,0,0,1 @ F,0,0,1,0,0,0,1 @ F,0,0,1,0,0,0,1 @ F,0,0,1,0,0,0,1 @ F,0,1,1,0,3.2684149,0,1 @ F,0,0,1,0,0,0,1 @ F,0,0,1,0,0,0,1 @ F,0,0,1,0,0,0,1 @ F,0,0,1,0,0,0,1 @ F,0,0,1,0,0,0,1 @ F,0,0,1,0,0,0,1 @ F,0,0,1,0,2.9498386,0,1 @ F,0,0,1,0,0,0,1 @ F,0,0,1,0,0,0,1 @ F,0,0,1,0,0,0,1 @ F,0,0,1,0,0,0,1"
       radius="0"
       unit="px"
       method="auto"
       mode="F"
       chamfer_steps="1"
       flexible="false"
       use_knot_distance="true"
       apply_no_radius="true"
       apply_with_radius="true"
       only_selected="false"
       hide_knots="false" />
    <filter
       inkscape:collect="always"
       style="color-interpolation-filters:sRGB"
       id="filter5"
       x="-0.095019364"
       y="-0.088649345"
       width="1.1900519"
       height="1.1772986">
      <feGaussianBlur
         inkscape:collect="always"
         stdDeviation="1.3022438"
         id="feGaussianBlur5" />
    </filter>
    <filter
       inkscape:collect="always"
       style="color-interpolation-filters:sRGB"
       id="filter6"
       x="-0.070232097"
       y="-0.070232097"
       width="1.1404642"
       height="1.1404642">
      <feGaussianBlur
         inkscape:collect="always"
         stdDeviation="1.5970822"
         id="feGaussianBlur6" />
    </filter>
  </defs>
  <sodipodi:namedview
     id="namedview4"
     pagecolor="#ffffff"
     bordercolor="#000000"
     borderopacity="0.25"
     inkscape:showpageshadow="2"
     inkscape:pageopacity="0.0"
     inkscape:pagecheckerboard="0"
     inkscape:deskcolor="#d1d1d1"
     inkscape:zoom="13.37857"
     inkscape:cx="24.965299"
     inkscape:cy="33.860121"
     inkscape:current-layer="svg4" />
  <rect
     style="fill:url(#radialGradient5)"
     width="56"
     height="56"
     x="4"
     y="4"
     rx="27.999"
     ry="27.999"
     id="rect1" />
  <rect
     style="fill:none;stroke:#000000;stroke-opacity:1;stroke-width:0.2;stroke-dasharray:none;filter:url(#filter6)"
     width="56"
     height="56"
     x="4"
     y="4"
     rx="27.999001"
     ry="27.999001"
     id="rect1-2" />
  <path
     style="fill:#ffffff"
     d="m 24.173218,49.021994 c 0.580874,0.136685 1.221611,0.258768 1.902751,0.343707 1.156807,0.144256 5.558241,0.648461 8.932945,0.635262 0,0 4.110083,0.0038 6.378818,-0.317631 2.373932,-0.337211 3.718694,-0.767578 4.467272,-1.626414 0.0196,-0.204774 0.36127,-0.872275 -0.561504,-1.515977 -2.359132,-1.645713 -5.408845,-2.09614 -11.332676,-3.5031 -6.550613,-1.646933 -8.608652,-3.224108 -9.586824,-4.365275 -0.927214,-1.143887 0.27455,-3.519499 5.552939,-4.684866 0.632199,-0.153846 1.640885,-0.290176 2.812563,-0.408668 5.098415,-0.515604 6.01071,-3.167946 2.000644,-6.359965 -0.683259,-0.543875 -1.215948,-0.967098 -1.499701,-1.19062 -0.961093,-0.757078 -2.509929,-1.918885 -2.676324,-2.957116 -0.224574,-1.010651 1.366241,-1.497277 2.208537,-1.553415 2.713722,-0.187155 6.419617,0.530667 9.713523,1.185708 1.655752,0.329271 1.946444,0.280752 1.946444,0.280752 2.358133,0.112297 4.660972,-1.522599 4.567375,-4.124144 -0.0188,-2.638925 -3.125816,-4.755065 -6.045933,-4.847462 -1.62209,-0.007 -4.464091,-0.188584 -6.697202,-0.350898 -1.799414,-0.130791 -1.819781,0.02806 -0.07032,0.472151 5.203352,1.32086 6.493073,2.459837 6.842525,3.26629 0.243993,0.561784 -0.405988,1.119968 -2.581926,1.010971 -2.369933,-0.118796 -7.225794,-0.69258 -7.225794,-0.69258 -4.621868,-0.711179 -7.441767,-1.38496 -8.845727,0.449187 -0.917054,1.198266 0.131036,2.657725 0.542765,3.5185 1.834147,3.200509 4.605848,5.396246 6.61839,6.943602 0.135482,0.104167 0.320729,0.230967 0.533596,0.368967 1.365932,0.88552 1.262459,1.137266 -0.342935,0.863939 -5.933459,-1.010204 -10.930356,0.03819 -14.065889,1.68677 -4.173681,2.47053 -3.459701,6.639411 3.16291,10.5371 3.911688,2.302134 6.259045,3.407902 12.663463,4.19428 3.743493,0.596903 4.501481,0.841136 4.473082,1.152727 -4.374371,1.083504 -9.047516,0.801532 -13.621547,0.640606 -1.803081,-0.06344 -1.920881,0.53473 -0.166235,0.947612 z"
     id="path4"
     inkscape:path-effect="#path-effect5"
     inkscape:original-d="m 21.073512,48 c 0,0 2.145939,1.009491 5.002457,1.365701 1.156807,0.144256 5.558241,0.648461 8.932945,0.635262 0,0 4.110083,0.0038 6.378818,-0.317631 2.373932,-0.337211 3.718694,-0.767578 4.467272,-1.626414 0.0196,-0.204774 0.36127,-0.872275 -0.561504,-1.515977 -2.359132,-1.645713 -5.408845,-2.09614 -11.332676,-3.5031 C 27.410211,41.390908 25.352172,39.813733 24.374,38.672566 23.446786,37.528679 24.64855,35.153067 29.926939,33.9877 32.599463,33.337338 42,33 42,33 c -2.855719,-2.267136 -7.663787,-6.108378 -8.759555,-6.971553 -0.961093,-0.757078 -2.509929,-1.918885 -2.676324,-2.957116 -0.224574,-1.010651 1.366241,-1.497277 2.208537,-1.553415 2.713722,-0.187155 6.419617,0.530667 9.713523,1.185708 1.655752,0.329271 1.946444,0.280752 1.946444,0.280752 C 46.790758,23.096673 49.093597,21.461777 49,18.860232 48.9812,16.221307 45.874184,14.105167 42.954067,14.01277 40,14 33,13.408289 33,13.408289 c 7.898175,1.628293 9.617077,3.041252 10.029065,3.992024 0.243993,0.561784 -0.405988,1.119968 -2.581926,1.010971 -2.369933,-0.118796 -7.225794,-0.69258 -7.225794,-0.69258 -4.621868,-0.711179 -7.441767,-1.38496 -8.845727,0.449187 -0.917054,1.198266 0.131036,2.657725 0.542765,3.5185 1.834147,3.200509 4.605848,5.396246 6.61839,6.943602 0.757279,0.582243 3.069313,1.871586 3.069313,1.871586 -7.186795,-1.965164 -13.313645,-0.860935 -16.944541,1.04809 -4.173681,2.47053 -3.459701,6.639411 3.16291,10.5371 3.911688,2.302134 6.259045,3.407902 12.663463,4.19428 3.743493,0.596903 4.501481,0.841136 4.473082,1.152727 C 32.538313,48.776941 26.65649,48.021738 21.073512,48 Z"
     sodipodi:nodetypes="csccccccccsccscccccccccscccccc"
     transform="translate(-0.03294284,0.19062842)" />
  <path
     style="fill:none;stroke:#ff00fb;stroke-opacity:1;stroke-width:0.19999991;stroke-dasharray:none;filter:url(#filter5)"
     d="m 24.173218,49.021994 c 0.580874,0.136685 1.221611,0.258768 1.902751,0.343707 1.156807,0.144256 5.558241,0.648461 8.932945,0.635262 0,0 4.110083,0.0038 6.378818,-0.317631 2.373932,-0.337211 3.718694,-0.767578 4.467272,-1.626414 0.0196,-0.204774 0.36127,-0.872275 -0.561504,-1.515977 -2.359132,-1.645713 -5.408845,-2.09614 -11.332676,-3.5031 -6.550613,-1.646933 -8.608652,-3.224108 -9.586824,-4.365275 -0.927214,-1.143887 0.27455,-3.519499 5.552939,-4.684866 0.632199,-0.153846 1.640885,-0.290176 2.812563,-0.408668 5.098415,-0.515604 6.01071,-3.167946 2.000644,-6.359965 -0.683259,-0.543875 -1.215948,-0.967098 -1.499701,-1.19062 -0.961093,-0.757078 -2.509929,-1.918885 -2.676324,-2.957116 -0.224574,-1.010651 1.366241,-1.497277 2.208537,-1.553415 2.713722,-0.187155 6.419617,0.530667 9.713523,1.185708 1.655752,0.329271 1.946444,0.280752 1.946444,0.280752 2.358133,0.112297 4.660972,-1.522599 4.567375,-4.124144 -0.0188,-2.638925 -3.125816,-4.755065 -6.045933,-4.847462 -1.62209,-0.007 -4.464091,-0.188584 -6.697202,-0.350898 -1.799414,-0.130791 -1.819781,0.02806 -0.07032,0.472151 5.203352,1.32086 6.493073,2.459837 6.842525,3.26629 0.243993,0.561784 -0.405988,1.119968 -2.581926,1.010971 -2.369933,-0.118796 -7.225794,-0.69258 -7.225794,-0.69258 -4.621868,-0.711179 -7.441767,-1.38496 -8.845727,0.449187 -0.917054,1.198266 0.131036,2.657725 0.542765,3.5185 1.834147,3.200509 4.605848,5.396246 6.61839,6.943602 0.135482,0.104167 0.320729,0.230967 0.533596,0.368967 1.365932,0.88552 1.262459,1.137266 -0.342935,0.863939 -5.933459,-1.010204 -10.930356,0.03819 -14.065889,1.68677 -4.173681,2.47053 -3.459701,6.639411 3.16291,10.5371 3.911688,2.302134 6.259045,3.407902 12.663463,4.19428 3.743493,0.596903 4.501481,0.841136 4.473082,1.152727 -4.374371,1.083504 -9.047516,0.801532 -13.621547,0.640606 -1.803081,-0.06344 -1.920881,0.53473 -0.166235,0.947612 z"
     id="path4-7"
     inkscape:path-effect="#path-effect5-3"
     inkscape:original-d="m 21.073512,48 c 0,0 2.145939,1.009491 5.002457,1.365701 1.156807,0.144256 5.558241,0.648461 8.932945,0.635262 0,0 4.110083,0.0038 6.378818,-0.317631 2.373932,-0.337211 3.718694,-0.767578 4.467272,-1.626414 0.0196,-0.204774 0.36127,-0.872275 -0.561504,-1.515977 -2.359132,-1.645713 -5.408845,-2.09614 -11.332676,-3.5031 C 27.410211,41.390908 25.352172,39.813733 24.374,38.672566 23.446786,37.528679 24.64855,35.153067 29.926939,33.9877 32.599463,33.337338 42,33 42,33 c -2.855719,-2.267136 -7.663787,-6.108378 -8.759555,-6.971553 -0.961093,-0.757078 -2.509929,-1.918885 -2.676324,-2.957116 -0.224574,-1.010651 1.366241,-1.497277 2.208537,-1.553415 2.713722,-0.187155 6.419617,0.530667 9.713523,1.185708 1.655752,0.329271 1.946444,0.280752 1.946444,0.280752 C 46.790758,23.096673 49.093597,21.461777 49,18.860232 48.9812,16.221307 45.874184,14.105167 42.954067,14.01277 40,14 33,13.408289 33,13.408289 c 7.898175,1.628293 9.617077,3.041252 10.029065,3.992024 0.243993,0.561784 -0.405988,1.119968 -2.581926,1.010971 -2.369933,-0.118796 -7.225794,-0.69258 -7.225794,-0.69258 -4.621868,-0.711179 -7.441767,-1.38496 -8.845727,0.449187 -0.917054,1.198266 0.131036,2.657725 0.542765,3.5185 1.834147,3.200509 4.605848,5.396246 6.61839,6.943602 0.757279,0.582243 3.069313,1.871586 3.069313,1.871586 -7.186795,-1.965164 -13.313645,-0.860935 -16.944541,1.04809 -4.173681,2.47053 -3.459701,6.639411 3.16291,10.5371 3.911688,2.302134 6.259045,3.407902 12.663463,4.19428 3.743493,0.596903 4.501481,0.841136 4.473082,1.152727 C 32.538313,48.776941 26.65649,48.021738 21.073512,48 Z"
     sodipodi:nodetypes="csccccccccsccscccccccccscccccc"
     transform="translate(-0.03294284,0.19062842)" />
</svg>
