<?xml version="1.0" encoding="UTF-8" standalone="no"?>
<svg
   width="64"
   height="64"
   version="1.1"
   id="svg5"
   sodipodi:docname="distributor-logo-fedora.svg"
   inkscape:version="1.4.2 (ebf0e940d0, 2025-05-08)"
   xmlns:inkscape="http://www.inkscape.org/namespaces/inkscape"
   xmlns:sodipodi="http://sodipodi.sourceforge.net/DTD/sodipodi-0.dtd"
   xmlns:xlink="http://www.w3.org/1999/xlink"
   xmlns="http://www.w3.org/2000/svg"
   xmlns:svg="http://www.w3.org/2000/svg">
  <defs
     id="defs5">
    <inkscape:path-effect
       effect="fillet_chamfer"
       id="path-effect6"
       is_visible="true"
       lpeversion="1"
       nodesatellites_param="F,0,0,1,0,0,0,1 @ F,0,0,1,0,0,0,1 @ F,0,0,1,0,8.3797737,0,1 @ F,0,0,1,0,0,0,1 @ F,0,0,1,0,0,0,1 @ F,0,0,1,0,0,0,1"
       radius="0"
       unit="px"
       method="auto"
       mode="F"
       chamfer_steps="1"
       flexible="false"
       use_knot_distance="true"
       apply_no_radius="true"
       apply_with_radius="true"
       only_selected="false"
       hide_knots="false" />
    <radialGradient
       inkscape:collect="always"
       xlink:href="#SVGID_1_-3-2"
       id="radialGradient6"
       cx="18.306629"
       cy="43.498436"
       fx="18.306629"
       fy="43.498436"
       r="28"
       gradientTransform="matrix(2.2782207,0,1.0212087e-8,2.2875775,-41.576433,-35.524243)"
       gradientUnits="userSpaceOnUse" />
    <radialGradient
       id="SVGID_1_-3-2"
       cx="-159.43106"
       cy="15.462561"
       r="64.706802"
       gradientTransform="matrix(-0.89413329,0,0,0.96304834,-22.573308,47.105431)"
       gradientUnits="userSpaceOnUse"
       fx="-159.43106"
       fy="15.462561">
	<stop
   offset="0"
   style="stop-color:#315cc4;stop-opacity:1;"
   id="stop1-6-9" />

	<stop
   offset="1"
   style="stop-color:#59afff;stop-opacity:1;"
   id="stop2-7-1" />

</radialGradient>
    <filter
       inkscape:collect="always"
       style="color-interpolation-filters:sRGB"
       id="filter6"
       x="-0.0557923"
       y="-0.052957535"
       width="1.1115847"
       height="1.1059151">
      <feGaussianBlur
         inkscape:collect="always"
         stdDeviation="0.80783246"
         id="feGaussianBlur6" />
    </filter>
  </defs>
  <sodipodi:namedview
     id="namedview5"
     pagecolor="#ffffff"
     bordercolor="#000000"
     borderopacity="0.25"
     inkscape:showpageshadow="2"
     inkscape:pageopacity="0.0"
     inkscape:pagecheckerboard="0"
     inkscape:deskcolor="#d1d1d1"
     inkscape:zoom="15.707747"
     inkscape:cx="27.247701"
     inkscape:cy="32.277066"
     inkscape:current-layer="svg5" />
  <path
     style="fill:url(#radialGradient6)"
     d="M 32.00014,4.00154 C 16.542663,4.00154 4.0112,16.531603 4,31.98628 v 19.634086 a 8.3797737,8.3797737 45 0 0 8.379774,8.379774 H 32.01526 C 47.474138,60.00014 60,47.460418 60,32 60,16.535523 47.463778,3.99986 31.99986,3.99986 Z"
     id="path2"
     sodipodi:nodetypes="cccsscc"
     inkscape:path-effect="#path-effect6"
     inkscape:original-d="M 32.00014,4.00154 C 16.542663,4.00154 4.0112,16.531603 4,31.98628 V 60.00014 H 32.01526 C 47.474138,60.00014 60,47.460418 60,32 60,16.535523 47.463778,3.99986 31.99986,3.99986 Z" />
  <path
     fill="#ffffff"
     d="m 37.945846,15.539758 c -4.691824,0 -8.836352,3.463625 -9.41012,8.008558 -0.03854,0.380455 -0.04963,0.654694 -0.05185,0.999605 l 0.0055,18.582092 c 0,3.564555 -2.72054,5.990527 -6.1197,5.990527 -3.403843,0 -6.146081,-2.667628 -6.146081,-5.996263 0.05582,-3.65416 3.037909,-5.97172 6.516375,-6.072665 h 0.0186 l 3.531319,-0.0319 v -4.906265 l -3.531319,0.02615 c -6.331169,-0.05582 -11.356538,4.806316 -11.540101,10.987645 0,6.01094 5.035617,10.911248 11.149389,10.911248 5.767094,0 10.566534,-4.418535 11.090657,-9.947661 0.07557,-1.882017 0.03876,-4.365736 0.03876,-4.365736 0.01054,-1.02268 -0.0162,-0.655439 -0.0055,-2.686115 l 4.380426,-0.03188 c 3.389409,0.02351 3.35133,-4.983868 -0.03903,-4.914984 l -4.342337,0.03166 c 0,-2.52072 0.04044,-5.025855 0,-7.550393 0.0031,-2.183447 2.111633,-4.112911 4.451081,-4.112911 2.340041,0 4.815183,1.145634 4.815183,4.112911 0,0.423938 -0.0086,0.670708 -0.03259,0.827766 -0.261181,1.376114 0.697318,2.691302 2.109568,2.889845 1.412246,0.19625 2.709083,-0.804084 2.849008,-2.196062 0.08107,-0.550269 0.07801,-1.035747 0.07801,-1.521091 0,-5.232396 -4.768247,-9.025371 -9.818496,-9.025371 z"
     id="path2-8"
     style="stroke-width:0.443966" />
  <path
     fill="#ffffff"
     d="m 37.945846,15.539758 c -4.691824,0 -8.836352,3.463625 -9.41012,8.008558 -0.03854,0.380455 -0.04963,0.654694 -0.05185,0.999605 l 0.0055,18.582092 c 0,3.564555 -2.72054,5.990527 -6.1197,5.990527 -3.403843,0 -6.146081,-2.667628 -6.146081,-5.996263 0.05582,-3.65416 3.037909,-5.97172 6.516375,-6.072665 h 0.0186 l 3.531319,-0.0319 v -4.906265 l -3.531319,0.02615 c -6.331169,-0.05582 -11.356538,4.806316 -11.540101,10.987645 0,6.01094 5.035617,10.911248 11.149389,10.911248 5.767094,0 10.566534,-4.418535 11.090657,-9.947661 0.07557,-1.882017 0.03876,-4.365736 0.03876,-4.365736 0.01054,-1.02268 -0.0162,-0.655439 -0.0055,-2.686115 l 4.380426,-0.03188 c 3.389409,0.02351 3.35133,-4.983868 -0.03903,-4.914984 l -4.342337,0.03166 c 0,-2.52072 0.04044,-5.025855 0,-7.550393 0.0031,-2.183447 2.111633,-4.112911 4.451081,-4.112911 2.340041,0 4.815183,1.145634 4.815183,4.112911 0,0.423938 -0.0086,0.670708 -0.03259,0.827766 -0.261181,1.376114 0.697318,2.691302 2.109568,2.889845 1.412246,0.19625 2.709083,-0.804084 2.849008,-2.196062 0.08107,-0.550269 0.07801,-1.035747 0.07801,-1.521091 0,-5.232396 -4.768247,-9.025371 -9.818496,-9.025371 z"
     id="path2-8-8"
     style="stroke-width:0.2;fill:none;stroke:#001bff;stroke-opacity:1;stroke-dasharray:none;filter:url(#filter6)" />
</svg>
