<?xml version="1.0" encoding="UTF-8" standalone="no"?>
<svg
   width="64"
   height="64"
   version="1"
   id="svg5"
   sodipodi:docname="inkscape.svg"
   inkscape:version="1.4.2 (ebf0e940d0, 2025-05-08)"
   xmlns:inkscape="http://www.inkscape.org/namespaces/inkscape"
   xmlns:sodipodi="http://sodipodi.sourceforge.net/DTD/sodipodi-0.dtd"
   xmlns:xlink="http://www.w3.org/1999/xlink"
   xmlns="http://www.w3.org/2000/svg"
   xmlns:svg="http://www.w3.org/2000/svg">
  <defs
     id="defs5">
    <linearGradient
       id="linearGradient3"
       inkscape:collect="always">
      <stop
         style="stop-color:#ffffff;stop-opacity:1;"
         offset="0"
         id="stop3" />
      <stop
         style="stop-color:#aeaeae;stop-opacity:1;"
         offset="1"
         id="stop4" />
    </linearGradient>
    <inkscape:path-effect
       effect="fillet_chamfer"
       id="path-effect2"
       is_visible="true"
       lpeversion="1"
       nodesatellites_param="F,0,0,1,0,0,0,1 @ F,0,0,1,0,0,0,1 @ F,0,0,1,0,0,0,1 @ F,0,0,1,0,0,0,1 @ F,0,0,1,0,0,0,1 @ F,0,0,1,0,2.0824973,0,1 @ F,0,0,1,0,0,0,1 @ F,0,0,1,0,1.7828397,0,1 @ F,0,0,1,0,3.1979049,0,1 @ F,0,1,1,0,3.7817329,0,1 @ F,0,0,1,0,3.7817329,0,1 @ F,0,1,1,0,3.7817329,0,1 @ F,0,0,1,0,0,0,1 @ F,0,0,1,0,0,0,1 @ F,0,0,1,0,0,0,1 @ F,0,0,1,0,0,0,1 @ F,0,0,1,0,0,0,1"
       radius="0"
       unit="px"
       method="auto"
       mode="F"
       chamfer_steps="1"
       flexible="false"
       use_knot_distance="true"
       apply_no_radius="true"
       apply_with_radius="true"
       only_selected="false"
       hide_knots="false" />
    <linearGradient
       id="linearGradient2"
       inkscape:collect="always">
      <stop
         style="stop-color:#575757;stop-opacity:1;"
         offset="0"
         id="stop1" />
      <stop
         style="stop-color:#222222;stop-opacity:1;"
         offset="1"
         id="stop2" />
    </linearGradient>
    <inkscape:path-effect
       effect="fillet_chamfer"
       id="path-effect3"
       is_visible="true"
       lpeversion="1"
       nodesatellites_param="F,0,0,1,0,0,0,1 @ F,0,0,1,0,0,0,1 @ F,0,0,1,0,1.6590727,0,1 @ F,0,1,1,0,1.0574349,0,1 @ F,0,0,1,0,1.6590727,0,1 @ F,0,0,1,0,2.1132606,0,1 @ F,0,0,1,0,1.6590727,0,1 @ F,0,0,1,0,1.6590727,0,1 @ F,0,0,1,0,1.6590727,0,1 @ F,0,0,1,0,0,0,1 @ F,0,0,1,0,0,0,1 | F,0,0,1,0,0,0,1 @ F,0,0,1,0,0,0,1 @ F,0,0,1,0,0,0,1 @ F,0,0,1,0,0,0,1 @ F,0,0,1,0,0,0,1 @ F,0,0,1,0,0,0,1 @ F,0,0,1,0,0,0,1 @ F,0,0,1,0,0,0,1 @ F,0,0,1,0,0,0,1 @ F,0,0,1,0,0,0,1 @ F,0,0,1,0,0,0,1 @ F,0,0,1,0,0,0,1 @ F,0,0,1,0,0,0,1 @ F,0,0,1,0,0,0,1 @ F,0,0,1,0,0,0,1 @ F,0,0,1,0,0,0,1 @ F,0,0,1,0,0,0,1 @ F,0,0,1,0,0,0,1 @ F,0,0,1,0,0,0,1 @ F,0,0,1,0,0,0,1 | F,0,0,1,0,0,0,1 @ F,0,0,1,0,0,0,1 @ F,0,0,1,0,0,0,1 @ F,0,0,1,0,0,0,1 @ F,0,0,1,0,0,0,1 | F,0,0,1,0,0,0,1 @ F,0,0,1,0,0,0,1 @ F,0,0,1,0,0,0,1 @ F,0,0,1,0,0,0,1 @ F,0,0,1,0,0,0,1 @ F,0,0,1,0,0,0,1"
       radius="0"
       unit="px"
       method="auto"
       mode="F"
       chamfer_steps="1"
       flexible="false"
       use_knot_distance="true"
       apply_no_radius="true"
       apply_with_radius="true"
       only_selected="false"
       hide_knots="false" />
    <radialGradient
       inkscape:collect="always"
       xlink:href="#linearGradient2"
       id="radialGradient3"
       cx="30.598557"
       cy="50.652023"
       fx="30.598557"
       fy="50.652023"
       r="11.46865"
       gradientTransform="matrix(-3.4204833,2.4658904,-2.2374465,-3.1036044,255.18649,85.232915)"
       gradientUnits="userSpaceOnUse" />
    <inkscape:path-effect
       effect="fillet_chamfer"
       id="path-effect3-5"
       is_visible="true"
       lpeversion="1"
       nodesatellites_param="F,0,0,1,0,0,0,1 @ F,0,0,1,0,0,0,1 @ F,0,0,1,0,1.6590727,0,1 @ F,0,1,1,0,1.0574349,0,1 @ F,0,0,1,0,1.6590727,0,1 @ F,0,0,1,0,2.1132606,0,1 @ F,0,0,1,0,1.6590727,0,1 @ F,0,0,1,0,1.6590727,0,1 @ F,0,0,1,0,1.6590727,0,1 @ F,0,0,1,0,0,0,1 @ F,0,0,1,0,0,0,1"
       radius="0"
       unit="px"
       method="auto"
       mode="F"
       chamfer_steps="1"
       flexible="false"
       use_knot_distance="true"
       apply_no_radius="true"
       apply_with_radius="true"
       only_selected="false"
       hide_knots="false" />
    <inkscape:path-effect
       effect="fillet_chamfer"
       id="path-effect3-9"
       is_visible="true"
       lpeversion="1"
       nodesatellites_param="F,0,0,1,0,0,0,1 @ F,0,0,1,0,0,0,1 @ F,0,0,1,0,1.6590727,0,1 @ F,0,1,1,0,1.0574349,0,1 @ F,0,0,1,0,1.6590727,0,1 @ F,0,0,1,0,2.1132606,0,1 @ F,0,0,1,0,1.6590727,0,1 @ F,0,0,1,0,1.6590727,0,1 @ F,0,0,1,0,1.6590727,0,1 @ F,0,0,1,0,0,0,1 @ F,0,0,1,0,0,0,1"
       radius="0"
       unit="px"
       method="auto"
       mode="F"
       chamfer_steps="1"
       flexible="false"
       use_knot_distance="true"
       apply_no_radius="true"
       apply_with_radius="true"
       only_selected="false"
       hide_knots="false" />
    <inkscape:path-effect
       effect="fillet_chamfer"
       id="path-effect3-53"
       is_visible="true"
       lpeversion="1"
       nodesatellites_param="F,0,0,1,0,0,0,1 @ F,0,0,1,0,0,0,1 @ F,0,0,1,0,1.6590727,0,1 @ F,0,1,1,0,1.0574349,0,1 @ F,0,0,1,0,1.6590727,0,1 @ F,0,0,1,0,2.1132606,0,1 @ F,0,0,1,0,1.6590727,0,1 @ F,0,0,1,0,1.6590727,0,1 @ F,0,0,1,0,1.6590727,0,1 @ F,0,0,1,0,0,0,1 @ F,0,0,1,0,0,0,1 | F,0,0,1,0,0,0,1 @ F,0,0,1,0,0,0,1 @ F,0,0,1,0,0,0,1 @ F,0,0,1,0,0,0,1 @ F,0,0,1,0,0,0,1 @ F,0,0,1,0,0,0,1 @ F,0,0,1,0,0,0,1 @ F,0,0,1,0,0,0,1 @ F,0,0,1,0,0,0,1 @ F,0,0,1,0,0,0,1 @ F,0,0,1,0,0,0,1 @ F,0,0,1,0,0,0,1 @ F,0,0,1,0,0,0,1 @ F,0,0,1,0,0,0,1 @ F,0,0,1,0,0,0,1 @ F,0,0,1,0,0,0,1 @ F,0,0,1,0,0,0,1 @ F,0,0,1,0,0,0,1 @ F,0,0,1,0,0,0,1 @ F,0,0,1,0,0,0,1 | F,0,0,1,0,0,0,1 @ F,0,0,1,0,0,0,1 @ F,0,0,1,0,0,0,1 @ F,0,0,1,0,0,0,1 @ F,0,0,1,0,0,0,1 | F,0,0,1,0,0,0,1 @ F,0,0,1,0,0,0,1 @ F,0,0,1,0,0,0,1 @ F,0,0,1,0,0,0,1 @ F,0,0,1,0,0,0,1 @ F,0,0,1,0,0,0,1"
       radius="0"
       unit="px"
       method="auto"
       mode="F"
       chamfer_steps="1"
       flexible="false"
       use_knot_distance="true"
       apply_no_radius="true"
       apply_with_radius="true"
       only_selected="false"
       hide_knots="false" />
    <inkscape:path-effect
       effect="fillet_chamfer"
       id="path-effect3-53-7"
       is_visible="true"
       lpeversion="1"
       nodesatellites_param="F,0,0,1,0,0,0,1 @ F,0,0,1,0,0,0,1 @ F,0,0,1,0,1.6590727,0,1 @ F,0,1,1,0,1.0574349,0,1 @ F,0,0,1,0,1.6590727,0,1 @ F,0,0,1,0,2.1132606,0,1 @ F,0,0,1,0,1.6590727,0,1 @ F,0,0,1,0,1.6590727,0,1 @ F,0,0,1,0,1.6590727,0,1 @ F,0,0,1,0,0,0,1 @ F,0,0,1,0,0,0,1 | F,0,0,1,0,0,0,1 @ F,0,0,1,0,0,0,1 @ F,0,0,1,0,0,0,1 @ F,0,0,1,0,0,0,1 @ F,0,0,1,0,0,0,1 @ F,0,0,1,0,0,0,1 @ F,0,0,1,0,0,0,1 @ F,0,0,1,0,0,0,1 @ F,0,0,1,0,0,0,1 @ F,0,0,1,0,0,0,1 @ F,0,0,1,0,0,0,1 @ F,0,0,1,0,0,0,1 @ F,0,0,1,0,0,0,1 @ F,0,0,1,0,0,0,1 @ F,0,0,1,0,0,0,1 @ F,0,0,1,0,0,0,1 @ F,0,0,1,0,0,0,1 @ F,0,0,1,0,0,0,1 @ F,0,0,1,0,0,0,1 @ F,0,0,1,0,0,0,1 | F,0,0,1,0,0,0,1 @ F,0,0,1,0,0,0,1 @ F,0,0,1,0,0,0,1 @ F,0,0,1,0,0,0,1 @ F,0,0,1,0,0,0,1 | F,0,0,1,0,0,0,1 @ F,0,0,1,0,0,0,1 @ F,0,0,1,0,0,0,1 @ F,0,0,1,0,0,0,1 @ F,0,0,1,0,0,0,1 @ F,0,0,1,0,0,0,1"
       radius="0"
       unit="px"
       method="auto"
       mode="F"
       chamfer_steps="1"
       flexible="false"
       use_knot_distance="true"
       apply_no_radius="true"
       apply_with_radius="true"
       only_selected="false"
       hide_knots="false" />
    <inkscape:path-effect
       effect="fillet_chamfer"
       id="path-effect3-6"
       is_visible="true"
       lpeversion="1"
       nodesatellites_param="F,0,0,1,0,0,0,1 @ F,0,0,1,0,0,0,1 @ F,0,0,1,0,0,0,1 @ F,0,0,1,0,0,0,1 @ F,0,0,1,0,0,0,1 @ F,0,0,1,0,0,0,1 @ F,0,0,1,0,0,0,1 @ F,0,0,1,0,0,0,1 @ F,0,0,1,0,0,0,1 @ F,0,0,1,0,0,0,1 @ F,0,0,1,0,0,0,1 @ F,0,0,1,0,0,0,1 @ F,0,0,1,0,0,0,1 @ F,0,0,1,0,0,0,1 @ F,0,0,1,0,0,0,1 @ F,0,0,1,0,0,0,1 @ F,0,0,1,0,0,0,1 @ F,0,0,1,0,0,0,1 @ F,0,0,1,0,0,0,1 @ F,0,0,1,0,0,0,1 | F,0,0,1,0,0,0,1 @ F,0,0,1,0,0,0,1 | F,0,0,1,0,0,0,1 @ F,0,0,1,0,0,0,1 @ F,0,0,1,0,0,0,1 @ F,0,0,1,0,0,0,1 @ F,0,0,1,0,0,0,1 @ F,0,0,1,0,0,0,1"
       radius="0"
       unit="px"
       method="auto"
       mode="F"
       chamfer_steps="1"
       flexible="false"
       use_knot_distance="true"
       apply_no_radius="true"
       apply_with_radius="true"
       only_selected="false"
       hide_knots="false" />
    <radialGradient
       inkscape:collect="always"
       xlink:href="#linearGradient3"
       id="radialGradient4"
       cx="26.530008"
       cy="42.444832"
       fx="26.530008"
       fy="42.444832"
       r="28.309626"
       gradientTransform="matrix(2.2680692,-1.3094704,1.3088265,2.266954,-85.076234,-45.101789)"
       gradientUnits="userSpaceOnUse" />
    <inkscape:path-effect
       effect="fillet_chamfer"
       id="path-effect3-93"
       is_visible="true"
       lpeversion="1"
       nodesatellites_param="F,0,0,1,0,0,0,1 @ F,0,0,1,0,0,0,1 @ F,0,0,1,0,1.6590727,0,1 @ F,0,1,1,0,1.0574349,0,1 @ F,0,0,1,0,1.6590727,0,1 @ F,0,0,1,0,2.1132606,0,1 @ F,0,0,1,0,1.6590727,0,1 @ F,0,0,1,0,1.6590727,0,1 @ F,0,0,1,0,1.6590727,0,1 @ F,0,0,1,0,0,0,1 @ F,0,0,1,0,0,0,1 | F,0,0,1,0,0,0,1 @ F,0,0,1,0,0,0,1 @ F,0,0,1,0,0,0,1 @ F,0,0,1,0,0,0,1 @ F,0,0,1,0,0,0,1 @ F,0,0,1,0,0,0,1 @ F,0,0,1,0,0,0,1 @ F,0,0,1,0,0,0,1 @ F,0,0,1,0,0,0,1 @ F,0,0,1,0,0,0,1 @ F,0,0,1,0,0,0,1 @ F,0,0,1,0,0,0,1 @ F,0,0,1,0,0,0,1 @ F,0,0,1,0,0,0,1 @ F,0,0,1,0,0,0,1 @ F,0,0,1,0,0,0,1 @ F,0,0,1,0,0,0,1 @ F,0,0,1,0,0,0,1 @ F,0,0,1,0,0,0,1 @ F,0,0,1,0,0,0,1 | F,0,0,1,0,0,0,1 @ F,0,0,1,0,0,0,1 @ F,0,0,1,0,0,0,1 @ F,0,0,1,0,0,0,1 @ F,0,0,1,0,0,0,1 | F,0,0,1,0,0,0,1 @ F,0,0,1,0,0,0,1 @ F,0,0,1,0,0,0,1 @ F,0,0,1,0,0,0,1 @ F,0,0,1,0,0,0,1 @ F,0,0,1,0,0,0,1"
       radius="0"
       unit="px"
       method="auto"
       mode="F"
       chamfer_steps="1"
       flexible="false"
       use_knot_distance="true"
       apply_no_radius="true"
       apply_with_radius="true"
       only_selected="false"
       hide_knots="false" />
    <filter
       inkscape:collect="always"
       style="color-interpolation-filters:sRGB"
       id="filter1"
       x="-0.099038005"
       y="-0.099086994"
       width="1.1980774"
       height="1.1981796">
      <feGaussianBlur
         inkscape:collect="always"
         stdDeviation="2.2921582"
         id="feGaussianBlur1" />
    </filter>
    <filter
       inkscape:collect="always"
       style="color-interpolation-filters:sRGB"
       id="filter2"
       x="-0.096566566"
       y="-0.096567992"
       width="1.193132"
       height="1.193136">
      <feGaussianBlur
         inkscape:collect="always"
         stdDeviation="2.1035984"
         id="feGaussianBlur2" />
    </filter>
  </defs>
  <sodipodi:namedview
     id="namedview5"
     pagecolor="#ffffff"
     bordercolor="#000000"
     borderopacity="0.25"
     inkscape:showpageshadow="2"
     inkscape:pageopacity="0.0"
     inkscape:pagecheckerboard="0"
     inkscape:deskcolor="#d1d1d1"
     inkscape:zoom="8.9714173"
     inkscape:cx="46.592415"
     inkscape:cy="29.203858"
     inkscape:window-width="2425"
     inkscape:window-height="1380"
     inkscape:window-x="0"
     inkscape:window-y="0"
     inkscape:window-maximized="0"
     inkscape:current-layer="svg5" />
  <path
     d="m 31.982259,5.5347803 c -3.273918,-0.1065831 -5.994105,1.943761 -8.02656,4.3054551 -5.492,5.7141216 -11.070625,11.3486066 -16.5070013,17.1134036 -2.4675222,2.97371 -3.1271137,8.196153 0.3289272,10.72413 1.2323713,1.474216 4.9756881,0.47167 3.1294031,2.938294 -0.49305,1.735338 0.702778,3.096556 0.738707,4.492889 0.02707,1.052038 -1.017288,2.640072 -0.841612,3.699052 0.44213,2.665185 3.267938,4.700662 6.021757,4.51494 1.50905,0.204011 2.830068,-1.004458 3.95999,-0.795673 0.880429,0.162683 1.897545,1.405399 2.752698,1.760404 0.628424,0.260881 1.23888,0.503277 1.802668,0.814048 1.431714,0.789194 3.192818,2.955581 4.790577,3.375639 2.56482,0.674303 5.440746,0.164839 7.791349,-1.166864 1.701361,-0.963886 2.963638,-3.919657 4.125371,-5.492534 0.673449,-0.911762 3.506017,-1.321535 4.672972,-2.826201 0.08574,-0.11055 0.170475,-0.219207 0.255425,-0.325252 1.079412,-1.347448 4.64942,-0.370711 6.558331,-0.771785 2.20453,-0.463187 4.18343,-1.816844 4.847541,-4.094133 1.02701,-2.251975 -1.669732,-5.281165 -3.471193,-5.801247 5.166817,-2.058532 4.115845,-7.418979 2.036042,-10.371314 -2.689666,-3.22436 -5.780212,-6.104744 -8.643987,-9.178724 C 44.810011,14.872314 41.412038,11.198204 37.857008,7.6847514 36.225208,6.3207157 34.110676,5.5364101 31.982259,5.5347803 Z"
     style="fill:url(#radialGradient4);fill-rule:evenodd;stroke-width:0.940842;stroke-linecap:round;stroke-linejoin:round"
     id="path3" />
  <path
     id="path4"
     style="fill:url(#radialGradient3);fill-opacity:1;fill-rule:evenodd;stroke-width:0.903797;stroke-dasharray:none"
     transform="matrix(0.83448163,0,0,0.83448146,5.2552277,6.9903561)"
     inkscape:path-effect="#path-effect3"
     inkscape:original-d="m 32.095412,9.811548 c 1.569587,0.01335 5.870436,5.335729 9.707684,9.321691 1.079354,1.448271 -0.417494,2.932605 -0.417494,2.932605 l -8.037171,-4.398971 -3.548997,4.818225 -3.131018,-4.712456 -1.87963,7.331194 -5.531847,-3.351475 1.461651,-1.886002 8.662865,-8.902056 c 0.664497,-0.67738 1.173348,-1.16411 2.713932,-1.152118 z M 31.996082,3.3472991 C 30.470872,3.3479212 28.987214,3.9206268 27.81831,5.129791 L 7.0159662,26.613415 c -1.1462197,1.18581 -1.7542752,2.749164 -1.777085,4.296724 -3.429e-4,0.02355 0,0.08061 0,0.106337 -2.159e-4,4.604244 11.6333718,0.132688 12.7423838,5.762009 0.600084,3.046636 -6.277473,1.651323 -6.277473,4.716665 0,3.595744 11.1699,0.66252 13.57866,4.085853 1.843845,2.620474 -4.687258,2.734227 -3.224346,5.242941 1.254906,2.152013 5.743562,0.773614 6.491948,3.665913 0.854829,3.303821 6.358264,2.934969 9.467572,0.315406 1.906028,-1.605809 -2.532225,-2.611424 -0.800227,-4.40306 1.731881,-1.791766 9.980813,-1.454997 9.519839,-5.343872 -0.305077,-2.573704 -3.497646,-2.856649 -3.546961,-5.763811 -0.172208,-2.462022 3.041849,-1.743807 11.911516,-4.193993 3.546592,-1.666291 3.672212,-2.551272 3.658705,-4.085853 -2.8e-4,-0.03041 0,-0.07207 0,-0.104534 -0.0202,-1.547433 -0.735517,-3.110954 -1.881619,-4.296725 L 36.177462,5.129791 C 35.008304,3.9204998 33.524136,3.3479213 31.999688,3.3472991 Z m 24.38175,36.9150649 c -0.410797,-0.01421 -0.825143,0.02213 -1.117437,0.111748 -0.550957,0.174198 -3.161897,0.27436 -2.946789,2.451151 2.364686,1.08789 5.97031,1.953049 6.400029,-0.223487 0.32262,-1.632182 -1.103231,-2.28945 -2.335803,-2.339407 z M 14.441513,46.73809 c -0.230405,0.03006 -0.389407,0.134477 -0.61459,0.2325 -1.800681,0.783427 -3.007005,2.432176 -1.324703,3.152252 1.682549,0.719908 2.807416,-0.04084 4.282306,-0.9336 1.475139,-0.893187 1.434998,-1.055851 1.328308,-1.400401 -0.204477,0.04676 -1.545385,-0.908735 -2.957603,-1.050751 -0.23533,-0.02253 -0.483375,-0.03006 -0.713718,0 z"
     d="m 32.095412,9.811548 c 1.569587,0.01335 5.870436,5.335729 9.707684,9.321691 0.383809,0.514992 0.441869,1.034545 0.357318,1.490296 -0.16494,0.889058 -1.426392,1.085681 -2.230157,0.645758 l -5.65424,-3.094726 a 1.2096308,1.2096308 167.53383 0 0 -1.554709,0.343708 l -1.937943,2.631008 a 1.1611585,1.1611585 1.3869717 0 1 -1.902062,-0.04605 L 27.837895,19.53281 a 0.94045967,0.94045967 170.3898 0 0 -1.694318,0.286882 l -0.942752,3.677052 a 1.2314753,1.2314753 157.79491 0 1 -1.831006,0.747409 l -2.693913,-1.632109 a 1.4790617,1.4790617 79.492646 0 1 -0.402666,-2.171039 21.197806,21.197806 132.25748 0 1 1.602409,-1.763653 l 7.505806,-7.713049 c 0.664497,-0.67738 1.173348,-1.16411 2.713932,-1.152118 z M 31.996082,3.3472991 C 30.470872,3.3479212 28.987214,3.9206268 27.81831,5.129791 L 7.0159662,26.613415 c -1.1462197,1.18581 -1.7542752,2.749164 -1.777085,4.296724 -3.429e-4,0.02355 0,0.08061 0,0.106337 -2.159e-4,4.604244 11.6333718,0.132688 12.7423838,5.762009 0.600084,3.046636 -6.277473,1.651323 -6.277473,4.716665 0,3.595744 11.1699,0.66252 13.57866,4.085853 1.843845,2.620474 -4.687258,2.734227 -3.224346,5.242941 1.254906,2.152013 5.743562,0.773614 6.491948,3.665913 0.854829,3.303821 6.358264,2.934969 9.467572,0.315406 1.906028,-1.605809 -2.532225,-2.611424 -0.800227,-4.40306 1.731881,-1.791766 9.980813,-1.454997 9.519839,-5.343872 -0.305077,-2.573704 -3.497646,-2.856649 -3.546961,-5.763811 -0.172208,-2.462022 3.041849,-1.743807 11.911516,-4.193993 3.546592,-1.666291 3.672212,-2.551272 3.658705,-4.085853 -2.8e-4,-0.03041 0,-0.07207 0,-0.104534 -0.0202,-1.547433 -0.735517,-3.110954 -1.881619,-4.296725 L 36.177462,5.129791 C 35.008304,3.9204998 33.524136,3.3479213 31.999688,3.3472991 Z m 24.38175,36.9150649 c -0.410797,-0.01421 -0.825143,0.02213 -1.117437,0.111748 -0.550957,0.174198 -3.161897,0.27436 -2.946789,2.451151 2.364686,1.08789 5.97031,1.953049 6.400029,-0.223487 0.32262,-1.632182 -1.103231,-2.28945 -2.335803,-2.339407 z M 14.441513,46.73809 c -0.230405,0.03006 -0.389407,0.134477 -0.61459,0.2325 -1.800681,0.783427 -3.007005,2.432176 -1.324703,3.152252 1.682549,0.719908 2.807416,-0.04084 4.282306,-0.9336 1.475139,-0.893187 1.434998,-1.055851 1.328308,-1.400401 -0.204477,0.04676 -1.545385,-0.908735 -2.957603,-1.050751 -0.23533,-0.02253 -0.483375,-0.03006 -0.713718,0 z" />
  <path
     d="m 31.99629,3.7082223 c -3.479774,-0.113285 -6.371,2.06598 -8.53125,4.576172 C 17.627716,14.357805 11.69832,20.346573 5.9201181,26.473847 c -2.622674,3.16069 -3.323739,8.711507 0.349609,11.398437 1.30986,1.566912 5.2885479,0.501328 3.326172,3.123047 -0.524052,1.844452 0.7469679,3.29126 0.7851559,4.775391 0.02877,1.118188 -1.0812529,2.806074 -0.8945309,3.93164 0.46993,2.832765 3.4734179,4.996228 6.4003909,4.798828 1.603935,0.216839 3.008016,-1.067615 4.208984,-0.845703 0.935789,0.172913 2.016858,1.493768 2.925781,1.871094 0.667938,0.277285 1.316778,0.534922 1.916016,0.865234 1.521737,0.838817 3.393575,3.141421 5.091797,3.587891 2.72609,0.716702 5.782847,0.175204 8.28125,-1.240234 1.808339,-1.024492 3.149985,-4.166115 4.384765,-5.837891 0.715793,-0.969091 3.726467,-1.40463 4.966797,-3.003906 0.09113,-0.117501 0.181194,-0.23299 0.271485,-0.345703 1.147283,-1.432172 4.941765,-0.39402 6.970703,-0.820313 2.343146,-0.492311 4.446475,-1.931083 5.152343,-4.351562 1.091586,-2.393574 -1.774721,-5.613232 -3.689453,-6.166016 5.491694,-2.187967 4.374639,-7.885466 2.164063,-11.023437 -2.858785,-3.4271 -6.143657,-6.488595 -9.1875,-9.75586 C 45.630621,13.632877 42.018991,9.7277483 38.24043,5.9933783 36.506026,4.5435753 34.258537,3.7099543 31.99629,3.7082223 Z"
     style="fill:none;fill-rule:evenodd;stroke:#010101;stroke-width:0.21257552;stroke-linecap:round;stroke-linejoin:round;stroke-dasharray:none;stroke-opacity:1;filter:url(#filter1)"
     id="path3-2"
     transform="matrix(0.94084211,0,0,0.94084211,1.8955242,1.8930526)" />
  <path
     id="path4-6"
     style="opacity:1;fill:none;fill-opacity:1;fill-rule:evenodd;stroke:#010101;stroke-width:0.23967;stroke-dasharray:none;stroke-opacity:1;filter:url(#filter2)"
     transform="matrix(0.83448163,0,0,0.83448146,5.2719507,7.0049243)"
     inkscape:path-effect="#path-effect3-93"
     inkscape:original-d="m 32.095412,9.811548 c 1.569587,0.01335 5.870436,5.335729 9.707684,9.321691 1.079354,1.448271 -0.417494,2.932605 -0.417494,2.932605 l -8.037171,-4.398971 -3.548997,4.818225 -3.131018,-4.712456 -1.87963,7.331194 -5.531847,-3.351475 1.461651,-1.886002 8.662865,-8.902056 c 0.664497,-0.67738 1.173348,-1.16411 2.713932,-1.152118 z M 31.996082,3.3472991 C 30.470872,3.3479212 28.987214,3.9206268 27.81831,5.129791 L 7.0159662,26.613415 c -1.1462197,1.18581 -1.7542752,2.749164 -1.777085,4.296724 -3.429e-4,0.02355 0,0.08061 0,0.106337 -2.159e-4,4.604244 11.6333718,0.132688 12.7423838,5.762009 0.600084,3.046636 -6.277473,1.651323 -6.277473,4.716665 0,3.595744 11.1699,0.66252 13.57866,4.085853 1.843845,2.620474 -4.687258,2.734227 -3.224346,5.242941 1.254906,2.152013 5.743562,0.773614 6.491948,3.665913 0.854829,3.303821 6.358264,2.934969 9.467572,0.315406 1.906028,-1.605809 -2.532225,-2.611424 -0.800227,-4.40306 1.731881,-1.791766 9.980813,-1.454997 9.519839,-5.343872 -0.305077,-2.573704 -3.497646,-2.856649 -3.546961,-5.763811 -0.172208,-2.462022 3.041849,-1.743807 11.911516,-4.193993 3.546592,-1.666291 3.672212,-2.551272 3.658705,-4.085853 -2.8e-4,-0.03041 0,-0.07207 0,-0.104534 -0.0202,-1.547433 -0.735517,-3.110954 -1.881619,-4.296725 L 36.177462,5.129791 C 35.008304,3.9204998 33.524136,3.3479213 31.999688,3.3472991 Z m 24.38175,36.9150649 c -0.410797,-0.01421 -0.825143,0.02213 -1.117437,0.111748 -0.550957,0.174198 -3.161897,0.27436 -2.946789,2.451151 2.364686,1.08789 5.97031,1.953049 6.400029,-0.223487 0.32262,-1.632182 -1.103231,-2.28945 -2.335803,-2.339407 z M 14.441513,46.73809 c -0.230405,0.03006 -0.389407,0.134477 -0.61459,0.2325 -1.800681,0.783427 -3.007005,2.432176 -1.324703,3.152252 1.682549,0.719908 2.807416,-0.04084 4.282306,-0.9336 1.475139,-0.893187 1.434998,-1.055851 1.328308,-1.400401 -0.204477,0.04676 -1.545385,-0.908735 -2.957603,-1.050751 -0.23533,-0.02253 -0.483375,-0.03006 -0.713718,0 z"
     d="m 32.095412,9.811548 c 1.569587,0.01335 5.870436,5.335729 9.707684,9.321691 0.383809,0.514992 0.441869,1.034545 0.357318,1.490296 -0.16494,0.889058 -1.426392,1.085681 -2.230157,0.645758 l -5.65424,-3.094726 a 1.2096308,1.2096308 167.53383 0 0 -1.554709,0.343708 l -1.937943,2.631008 a 1.1611585,1.1611585 1.3869717 0 1 -1.902062,-0.04605 L 27.837895,19.53281 a 0.94045967,0.94045967 170.3898 0 0 -1.694318,0.286882 l -0.942752,3.677052 a 1.2314753,1.2314753 157.79491 0 1 -1.831006,0.747409 l -2.693913,-1.632109 a 1.4790617,1.4790617 79.492646 0 1 -0.402666,-2.171039 21.197806,21.197806 132.25748 0 1 1.602409,-1.763653 l 7.505806,-7.713049 c 0.664497,-0.67738 1.173348,-1.16411 2.713932,-1.152118 z M 31.996082,3.3472991 C 30.470872,3.3479212 28.987214,3.9206268 27.81831,5.129791 L 7.0159662,26.613415 c -1.1462197,1.18581 -1.7542752,2.749164 -1.777085,4.296724 -3.429e-4,0.02355 0,0.08061 0,0.106337 -2.159e-4,4.604244 11.6333718,0.132688 12.7423838,5.762009 0.600084,3.046636 -6.277473,1.651323 -6.277473,4.716665 0,3.595744 11.1699,0.66252 13.57866,4.085853 1.843845,2.620474 -4.687258,2.734227 -3.224346,5.242941 1.254906,2.152013 5.743562,0.773614 6.491948,3.665913 0.854829,3.303821 6.358264,2.934969 9.467572,0.315406 1.906028,-1.605809 -2.532225,-2.611424 -0.800227,-4.40306 1.731881,-1.791766 9.980813,-1.454997 9.519839,-5.343872 -0.305077,-2.573704 -3.497646,-2.856649 -3.546961,-5.763811 -0.172208,-2.462022 3.041849,-1.743807 11.911516,-4.193993 3.546592,-1.666291 3.672212,-2.551272 3.658705,-4.085853 -2.8e-4,-0.03041 0,-0.07207 0,-0.104534 -0.0202,-1.547433 -0.735517,-3.110954 -1.881619,-4.296725 L 36.177462,5.129791 C 35.008304,3.9204998 33.524136,3.3479213 31.999688,3.3472991 Z m 24.38175,36.9150649 c -0.410797,-0.01421 -0.825143,0.02213 -1.117437,0.111748 -0.550957,0.174198 -3.161897,0.27436 -2.946789,2.451151 2.364686,1.08789 5.97031,1.953049 6.400029,-0.223487 0.32262,-1.632182 -1.103231,-2.28945 -2.335803,-2.339407 z M 14.441513,46.73809 c -0.230405,0.03006 -0.389407,0.134477 -0.61459,0.2325 -1.800681,0.783427 -3.007005,2.432176 -1.324703,3.152252 1.682549,0.719908 2.807416,-0.04084 4.282306,-0.9336 1.475139,-0.893187 1.434998,-1.055851 1.328308,-1.400401 -0.204477,0.04676 -1.545385,-0.908735 -2.957603,-1.050751 -0.23533,-0.02253 -0.483375,-0.03006 -0.713718,0 z" />
</svg>
