<?xml version="1.0" encoding="UTF-8" standalone="no"?>
<svg
   width="64"
   height="64"
   version="1.1"
   id="svg5"
   sodipodi:docname="kde-frameworks.svg"
   inkscape:version="1.4.2 (ebf0e940d0, 2025-05-08)"
   xmlns:inkscape="http://www.inkscape.org/namespaces/inkscape"
   xmlns:sodipodi="http://sodipodi.sourceforge.net/DTD/sodipodi-0.dtd"
   xmlns:xlink="http://www.w3.org/1999/xlink"
   xmlns="http://www.w3.org/2000/svg"
   xmlns:svg="http://www.w3.org/2000/svg">
  <defs
     id="defs5">
    <inkscape:path-effect
       effect="fillet_chamfer"
       id="path-effect5"
       is_visible="true"
       lpeversion="1"
       nodesatellites_param="F,0,0,1,0,22.588476,0,1 @ F,0,0,1,0,3.3697257,0,1 @ F,0,0,1,0,20.995163,0,1 @ F,0,0,1,0,3.9290927,0,1"
       radius="0"
       unit="px"
       method="auto"
       mode="F"
       chamfer_steps="1"
       flexible="false"
       use_knot_distance="true"
       apply_no_radius="true"
       apply_with_radius="true"
       only_selected="false"
       hide_knots="false" />
    <inkscape:path-effect
       effect="fillet_chamfer"
       id="path-effect4"
       is_visible="true"
       lpeversion="1"
       nodesatellites_param="F,0,0,1,0,1.9331451,0,1 @ F,0,0,1,0,1.9331451,0,1 @ F,0,0,1,0,1.9331451,0,1 @ F,0,0,1,0,1.9331451,0,1 @ F,0,0,1,0,0.64620671,0,1 @ F,0,0,1,0,1.9331451,0,1 @ F,0,0,1,0,1.9331451,0,1 @ F,0,0,1,0,1.3872211,0,1 @ F,0,0,1,0,1.9331451,0,1 @ F,0,0,1,0,1.9331451,0,1 @ F,0,0,1,0,0.64620671,0,1 | F,0,0,1,0,0,0,1 @ F,0,0,1,0,0,0,1 @ F,0,0,1,0,0,0,1 @ F,0,0,1,0,0,0,1 @ F,0,0,1,0,0,0,1 @ F,0,0,1,0,0,0,1 @ F,0,0,1,0,0,0,1 @ F,0,0,1,0,0,0,1 @ F,0,0,1,0,0,0,1 @ F,0,0,1,0,0,0,1 @ F,0,0,1,0,0,0,1 @ F,0,0,1,0,0,0,1 @ F,0,0,1,0,0,0,1 @ F,0,0,1,0,0,0,1 @ F,0,0,1,0,0,0,1 @ F,0,0,1,0,0,0,1 @ F,0,0,1,0,0,0,1 @ F,0,0,1,0,0,0,1 @ F,0,0,1,0,0,0,1 @ F,0,0,1,0,0,0,1 @ F,0,0,1,0,0,0,1 @ F,0,0,1,0,0,0,1 @ F,0,0,1,0,0,0,1 @ F,0,0,1,0,0,0,1 @ F,0,0,1,0,0,0,1 @ F,0,0,1,0,0,0,1 @ F,0,0,1,0,0,0,1 @ F,0,0,1,0,0,0,1 @ F,0,0,1,0,0,0,1 @ F,0,0,1,0,0,0,1 @ F,0,0,1,0,0,0,1 @ F,0,0,1,0,0,0,1 @ F,0,0,1,0,0,0,1 @ F,0,0,1,0,0,0,1 @ F,0,0,1,0,0,0,1 @ F,0,0,1,0,1.9331451,0,1 @ F,0,0,1,0,0,0,1 @ F,0,0,1,0,0,0,1 @ F,0,0,1,0,0,0,1 @ F,0,0,1,0,0,0,1 @ F,0,0,1,0,0,0,1 @ F,0,0,1,0,0,0,1 @ F,0,0,1,0,0,0,1 @ F,0,0,1,0,0,0,1"
       radius="0"
       unit="px"
       method="auto"
       mode="F"
       chamfer_steps="1"
       flexible="false"
       use_knot_distance="true"
       apply_no_radius="true"
       apply_with_radius="true"
       only_selected="false"
       hide_knots="false" />
    <inkscape:path-effect
       effect="fillet_chamfer"
       id="path-effect4-9"
       is_visible="true"
       lpeversion="1"
       nodesatellites_param="F,0,0,1,0,1.9331451,0,1 @ F,0,0,1,0,1.9331451,0,1 @ F,0,0,1,0,1.9331451,0,1 @ F,0,0,1,0,1.9331451,0,1 @ F,0,0,1,0,0.64620671,0,1 @ F,0,0,1,0,1.9331451,0,1 @ F,0,0,1,0,1.9331451,0,1 @ F,0,0,1,0,1.3872211,0,1 @ F,0,0,1,0,1.9331451,0,1 @ F,0,0,1,0,1.9331451,0,1 @ F,0,0,1,0,0.64620671,0,1 | F,0,0,1,0,0,0,1 @ F,0,0,1,0,0,0,1 @ F,0,0,1,0,0,0,1 @ F,0,0,1,0,0,0,1 @ F,0,0,1,0,0,0,1 @ F,0,0,1,0,0,0,1 @ F,0,0,1,0,0,0,1 @ F,0,0,1,0,0,0,1 @ F,0,0,1,0,0,0,1 @ F,0,0,1,0,0,0,1 @ F,0,0,1,0,0,0,1 @ F,0,0,1,0,0,0,1 @ F,0,0,1,0,0,0,1 @ F,0,0,1,0,0,0,1 @ F,0,0,1,0,0,0,1 @ F,0,0,1,0,0,0,1 @ F,0,0,1,0,0,0,1 @ F,0,0,1,0,0,0,1 @ F,0,0,1,0,0,0,1 @ F,0,0,1,0,0,0,1 @ F,0,0,1,0,0,0,1 @ F,0,0,1,0,0,0,1 @ F,0,0,1,0,0,0,1 @ F,0,0,1,0,0,0,1 @ F,0,0,1,0,0,0,1 @ F,0,0,1,0,0,0,1 @ F,0,0,1,0,0,0,1 @ F,0,0,1,0,0,0,1 @ F,0,0,1,0,0,0,1 @ F,0,0,1,0,0,0,1 @ F,0,0,1,0,0,0,1 @ F,0,0,1,0,0,0,1 @ F,0,0,1,0,0,0,1 @ F,0,0,1,0,0,0,1 @ F,0,0,1,0,0,0,1 @ F,0,0,1,0,1.9331451,0,1 @ F,0,0,1,0,0,0,1 @ F,0,0,1,0,0,0,1 @ F,0,0,1,0,0,0,1 @ F,0,0,1,0,0,0,1 @ F,0,0,1,0,0,0,1 @ F,0,0,1,0,0,0,1 @ F,0,0,1,0,0,0,1 @ F,0,0,1,0,0,0,1"
       radius="0"
       unit="px"
       method="auto"
       mode="F"
       chamfer_steps="1"
       flexible="false"
       use_knot_distance="true"
       apply_no_radius="true"
       apply_with_radius="true"
       only_selected="false"
       hide_knots="false" />
    <inkscape:path-effect
       effect="fillet_chamfer"
       id="path-effect5-2"
       is_visible="true"
       lpeversion="1"
       nodesatellites_param="F,0,0,1,0,22.588476,0,1 @ F,0,0,1,0,3.3697257,0,1 @ F,0,0,1,0,20.995163,0,1 @ F,0,0,1,0,3.9290927,0,1"
       radius="0"
       unit="px"
       method="auto"
       mode="F"
       chamfer_steps="1"
       flexible="false"
       use_knot_distance="true"
       apply_no_radius="true"
       apply_with_radius="true"
       only_selected="false"
       hide_knots="false" />
    <filter
       inkscape:collect="always"
       style="color-interpolation-filters:sRGB"
       id="filter5"
       x="-0.047547325"
       y="-0.044541249"
       width="1.0950794"
       height="1.0890824">
      <feGaussianBlur
         inkscape:collect="always"
         stdDeviation="0.83425679"
         id="feGaussianBlur5" />
    </filter>
    <filter
       inkscape:collect="always"
       style="color-interpolation-filters:sRGB"
       id="filter4"
       x="-0.089932241"
       y="-0.084931008"
       width="1.1798788"
       height="1.169862">
      <feGaussianBlur
         inkscape:collect="always"
         stdDeviation="1.5089985"
         id="feGaussianBlur4" />
    </filter>
    <radialGradient
       inkscape:collect="always"
       xlink:href="#linearGradient3"
       id="radialGradient4"
       cx="8.7152748"
       cy="54.991913"
       fx="8.7152748"
       fy="54.991913"
       r="20.691114"
       gradientTransform="matrix(3.1677688,0,0,3.3543059,-21.221323,-129.2493)"
       gradientUnits="userSpaceOnUse" />
    <linearGradient
       id="linearGradient3"
       inkscape:collect="always">
      <stop
         style="stop-color:#006fff;stop-opacity:1;"
         offset="0"
         id="stop3" />
      <stop
         style="stop-color:#00abff;stop-opacity:1;"
         offset="1"
         id="stop4" />
    </linearGradient>
  </defs>
  <sodipodi:namedview
     id="namedview5"
     pagecolor="#ffffff"
     bordercolor="#000000"
     borderopacity="0.25"
     inkscape:showpageshadow="2"
     inkscape:pageopacity="0.0"
     inkscape:pagecheckerboard="0"
     inkscape:deskcolor="#d1d1d1"
     inkscape:zoom="13.8125"
     inkscape:cx="32.036199"
     inkscape:cy="31.384615"
     inkscape:window-width="3440"
     inkscape:window-height="1385"
     inkscape:window-x="0"
     inkscape:window-y="0"
     inkscape:window-maximized="1"
     inkscape:current-layer="svg5" />
  <g
     id="g1"
     transform="translate(-2.4655993,6.0142774)">
    <path
       style="baseline-shift:baseline;display:inline;overflow:visible;vector-effect:none;fill:url(#radialGradient4);stroke-width:1.24792;stroke-linecap:round;stroke-linejoin:round;enable-background:accumulate;stop-color:#000000"
       d="m 37.531419,-1.3540694 c -0.243925,0.00349 -0.487356,0.02089 -0.728769,0.056057 -0.0074,8.099e-4 -0.01462,0.00162 -0.02194,0.0025 l -4.723592,0.7165822 C 29.011155,-0.117928 26.713031,2.5532302 26.712003,5.633882 v 0.0025 4.340927 L 24.186905,8.368655 c 0.09684,0.06171 -0.138567,-0.11275 -0.506969,-0.346103 -0.366861,-0.232374 -0.822994,-0.683569 -2.244802,-0.794578 -8.29e-4,-6.5e-5 -0.0016,6.5e-5 -0.0025,0 -0.120188,-0.0094 -0.228468,-0.01463 -0.353417,-0.01463 -1.171457,0 -2.364585,0.468305 -3.239243,1.342982 l -3.556098,3.558537 c -0.898569,0.898565 -1.35997,2.324952 -1.308858,3.395233 0.05111,1.07028 0.406473,1.835834 0.797014,2.449539 l 1.735396,2.724961 -3.12225,0.694646 c -0.712642,0.158589 -1.502651,0.448519 -2.29355,1.167493 -0.7915657,0.719579 -1.4770359,2.052029 -1.4770359,3.326986 v 2.220429 2.222866 c 0,1.274965 0.6854652,2.607389 1.4770359,3.326988 0.791572,0.719597 1.582762,1.009 2.295988,1.167492 l 3.122249,0.694645 -1.735395,2.720087 -0.0025,0.0025 c -0.392431,0.616673 -0.746143,1.383593 -0.797015,2.451978 -0.05088,1.068383 0.407012,2.49339 1.308859,3.395233 l 3.556098,3.556097 c 1.748542,1.748535 4.729951,1.748495 6.478485,0 l -0.636149,0.511844 2.746897,-1.750018 0.701958,3.163684 -0.08774,-0.811639 c 0,2.477405 2.10483,4.582224 4.582224,4.582224 h 5.023502 c 1.268415,0 2.599809,-0.678328 3.322112,-1.469724 0.722303,-0.791396 1.013566,-1.586249 1.172367,-2.300861 0.0025,-0.0081 0.005,-0.01624 0.0074,-0.02437 l 0.714143,-3.317239 2.537286,1.813391 -0.47041,-0.397288 c 1.742004,1.741991 4.734042,1.742006 6.476049,0 l 3.558506,-3.556108 c 0.90185,-0.901843 1.359731,-2.326848 1.308858,-3.395233 -0.05088,-1.068386 -0.404584,-1.835307 -0.797014,-2.451978 l 0.0975,0.16574 -0.255922,-0.453348 2.622593,-1.035875 0.0025,-0.0025 c 3.269152,-1.29426 4.382905,-5.658188 2.132683,-8.360122 v -0.0025 l -7.992081,-9.588548 8.152946,-10.587862 0.0025,-0.0025 C 61.426094,5.519791 59.895128,1.0738575 56.425961,0.1765733 l -4.543226,-1.174804 h -0.0025 c -2.825449,-0.7287819 -5.836616,0.4703262 -7.387622,2.9418976 L 43.193505,4.008105 C 43.045149,1.0355545 40.533987,-1.4022243 37.531532,-1.3540719 Z"
       id="path2"
       sodipodi:nodetypes="scccscccsscsccscccsscssccccssscccccssscccccccscccccccccccccccss" />
    <path
       style="baseline-shift:baseline;display:inline;overflow:visible;mix-blend-mode:normal;fill:none;stroke:#000000;stroke-width:0.2;stroke-linecap:round;stroke-linejoin:round;stroke-dasharray:none;stroke-opacity:1;filter:url(#filter4);enable-background:accumulate;stop-color:#000000"
       d="m 34.48081,10.091033 c -0.195464,0.0028 -0.390533,0.01674 -0.583984,0.04492 -0.0059,6.49e-4 -0.01172,0.0013 -0.01758,0.002 l -3.785157,0.574219 c -2.440823,0.369415 -4.282379,2.509895 -4.283203,4.978515 v 0.002 3.478516 L 23.787449,17.88214 c 0.0776,0.04945 -0.111038,-0.09035 -0.40625,-0.277343 -0.293977,-0.186208 -0.65949,-0.547764 -1.798828,-0.636719 -6.64e-4,-5.2e-5 -0.0013,5.2e-5 -0.002,0 -0.09631,-0.0075 -0.183078,-0.01172 -0.283204,-0.01172 -0.938724,0 -1.894813,0.375267 -2.595703,1.076172 l -2.849609,2.851563 c -0.720051,0.720048 -1.089785,1.863055 -1.048828,2.720703 0.04096,0.857648 0.325719,1.47111 0.638672,1.96289 l 1.390625,2.183594 -2.501953,0.556641 c -0.571062,0.127082 -1.20412,0.359412 -1.837891,0.935547 -0.634306,0.576621 -1.183594,1.644353 -1.183594,2.666015 v 1.779297 1.78125 c 0,1.021668 0.549284,2.08938 1.183594,2.666016 0.63431,0.576635 1.268315,0.808542 1.839844,0.935547 l 2.501953,0.55664 -1.390625,2.179688 -0.002,0.002 c -0.314467,0.494159 -0.597907,1.108715 -0.638672,1.964844 -0.04077,0.856128 0.326151,1.998029 1.048828,2.720703 l 2.849609,2.849609 c 1.40116,1.401154 3.790253,1.401122 5.191407,0 l -0.509766,0.410156 2.201172,-1.402343 0.5625,2.535156 -0.07031,-0.650391 c 0,1.98522 1.686664,3.671875 3.671875,3.671875 h 4.025484 c 1.016419,0 2.083306,-0.543565 2.662109,-1.177734 0.578803,-0.63417 0.812201,-1.27111 0.939453,-1.84375 0.002,-0.0065 0.004,-0.01301 0.0059,-0.01953 l 0.572265,-2.658204 2.033204,1.453125 -0.376954,-0.318359 c 1.395921,1.39591 3.793531,1.395922 5.189454,0 l 2.851562,-2.849609 c 0.72268,-0.722674 1.089594,-1.864574 1.048828,-2.720703 -0.04077,-0.85613 -0.324206,-1.470687 -0.638672,-1.964844 l 0.07813,0.132812 -0.205078,-0.363281 2.101563,-0.830078 0.002,-0.002 c 2.619671,-1.03713 3.512155,-4.534078 1.708984,-6.699219 v -0.002 l -6.404297,-7.683594 6.533203,-8.484375 0.002,-0.002 c 1.750898,-2.276912 0.524088,-5.839573 -2.25586,-6.558594 l -3.640625,-0.941406 h -0.002 c -2.264115,-0.5840042 -4.677054,0.376877 -5.919922,2.357422 l -1.041015,1.654297 c -0.118882,-2.381995 -2.131152,-4.335461 -4.53711,-4.296875 z"
       id="path2-9"
       sodipodi:nodetypes="scccscccsscsccscccsscssccccssscccccssscccccccscccccccccccccccss"
       transform="matrix(1.2479249,0,0,1.2479249,-5.4683676,-13.947874)" />
    <path
       d="m 37.590135,2.3874115 a 1.8804533,1.8804533 0 0 0 -0.248611,0.019505 l -4.72359,0.7165822 A 2.5423862,2.5423862 0 0 0 30.456002,5.636409 v 28.358606 a 1.6767894,1.6767894 0 0 0 2.110748,1.618403 l 4.825959,-1.296673 a 2.8511862,2.8511862 0 0 0 2.110748,-2.751772 v -9.729914 a 0.2014616,0.2014616 0 0 1 0.375353,-0.102367 l 7.850714,13.161707 a 1.8034007,1.8034007 0 0 0 2.213118,0.753142 l 5.62541,-2.225304 a 1.581608,1.581608 0 0 0 0.633713,-2.48367 L 47.295676,20.250773 A 1.9587134,1.9587134 0 0 1 47.246932,17.80367 L 56.272451,6.080001 A 1.4441684,1.4441684 0 0 0 55.48762,3.8010758 L 50.944393,2.6262718 A 2.9911486,2.9911486 0 0 0 47.663716,3.9326932 L 39.893433,16.297386 A 0.21057162,0.21057162 0 0 1 39.503457,16.185273 V 4.266615 A 1.8804533,1.8804533 0 0 0 37.590135,2.3874165 Z M 21.079503,10.957145 c -0.213979,0 -0.428195,0.08209 -0.592276,0.246173 l -3.556098,3.558535 c -0.328162,0.328161 -0.249161,0.795455 0,1.186991 l 3.219744,5.055071 c 0.254538,0.399684 0.294803,1.070561 0.114559,1.508722 -0.03282,0.07978 -0.06562,0.157103 -0.09505,0.231549 -0.174117,0.440283 -0.670815,0.886707 -1.13337,0.989565 l -5.837461,1.299109 c -0.453041,0.100695 -0.840887,0.3768 -0.840887,0.840887 v 2.220429 2.222866 c 0,0.464087 0.387849,0.740213 0.840887,0.840887 l 5.837461,1.296672 c 0.462555,0.102854 0.960257,0.550485 1.138244,0.989565 0.0317,0.07818 0.0649,0.156155 0.0975,0.233986 0.182979,0.437002 0.13281,1.111564 -0.121872,1.511159 l -3.219744,5.050196 c -0.24916,0.391537 -0.328161,0.861268 0,1.189429 l 3.556098,3.556098 c 0.328162,0.32816 0.856386,0.32816 1.184554,0 l 5.047759,-3.214869 c 0.399638,-0.254598 1.068746,-0.291461 1.506277,-0.10968 0.09565,0.03975 0.188435,0.07648 0.277858,0.112113 0.439893,0.17527 0.886935,0.675639 0.989565,1.138244 l 1.294235,5.835023 c 0,0.46409 0.374365,0.83845 0.838449,0.83845 h 5.023386 c 0.464087,0 0.740213,-0.385413 0.840886,-0.83845 l 1.29911,-6.037323 c 0.09973,-0.463239 0.541939,-0.97031 0.974941,-1.162618 0.140884,-0.06257 0.280378,-0.128019 0.419225,-0.194988 0.42674,-0.205829 1.074569,-0.170873 1.459974,0.1048 l 4.935641,3.529288 c 0.328163,0.32816 0.853956,0.32816 1.182116,0 l 3.558535,-3.556088 c 0.328164,-0.328161 0.249161,-0.797892 0,-1.189429 l -1.884073,-3.32455 c -0.799056,0.295434 -1.653574,-0.04923 -2.135122,-0.694645 -0.08702,-0.116631 -0.201693,-0.322864 -0.275421,-0.448473 l -1.559906,-2.656715 c -0.07373,-0.12561 -0.177395,-0.118528 -0.236423,0.01463 -1.651063,3.724245 -5.07629,6.488783 -9.203446,7.217003 -1.187699,0.209565 -3.162959,0.209457 -4.350675,0 C 25.840547,39.317898 21.40855,34.223419 21.40855,28.094182 c 0,-5.272844 3.285489,-9.768371 7.916524,-11.579865 0.01,-0.409444 10e-4,-1.140917 -0.0074,-1.701272 -0.0057,-0.384644 -0.305124,-0.594783 -0.66296,-0.453348 -0.194914,0.07703 -0.389604,0.156806 -0.582528,0.238861 -0.354054,0.150585 -0.901477,0.109305 -1.225989,-0.0975 l -4.669935,-2.976014 c -0.277702,-0.176969 -0.711961,-0.541155 -1.033438,-0.565466 -0.02071,-0.0016 -0.04262,-0.0025 -0.06337,-0.0025 z"
       style="fill:#ffffff;fill-opacity:1;stroke-width:1.24792"
       id="path2-2" />
    <path
       d="m 37.590544,2.387414 a 1.8804533,1.8804533 0 0 0 -0.248611,0.019505 l -4.72359,0.7165822 A 2.5423862,2.5423862 0 0 0 30.456411,5.636411 v 28.358607 a 1.6767894,1.6767894 0 0 0 2.110748,1.618403 l 4.825959,-1.296673 a 2.8511862,2.8511862 0 0 0 2.110748,-2.751772 v -9.729914 a 0.2014616,0.2014616 0 0 1 0.375353,-0.102367 l 7.850714,13.161707 a 1.8034007,1.8034007 0 0 0 2.213118,0.753142 l 5.62541,-2.225304 a 1.581608,1.581608 0 0 0 0.633713,-2.48367 L 47.296085,20.250776 a 1.9587134,1.9587134 0 0 1 -0.04874,-2.447103 L 56.27286,6.080003 A 1.4441684,1.4441684 0 0 0 55.488029,3.8010783 L 50.944802,2.6262743 A 2.9911486,2.9911486 0 0 0 47.664125,3.9326957 L 39.893842,16.297389 A 0.21057162,0.21057162 0 0 1 39.503866,16.185276 V 4.266617 A 1.8804533,1.8804533 0 0 0 37.590544,2.387419 Z m -16.510632,8.569734 c -0.213979,0 -0.428195,0.08209 -0.592276,0.246173 l -3.556098,3.558535 c -0.328162,0.328161 -0.249161,0.795455 0,1.186991 l 3.219744,5.055071 c 0.254538,0.399684 0.294803,1.070561 0.114559,1.508722 -0.03282,0.07978 -0.06562,0.157103 -0.09505,0.231549 -0.174117,0.440283 -0.670815,0.886707 -1.13337,0.989565 l -5.837461,1.299109 c -0.453041,0.100695 -0.840887,0.3768 -0.840887,0.840887 v 2.220429 2.222866 c 0,0.464087 0.387849,0.740213 0.840887,0.840887 l 5.837461,1.296672 c 0.462555,0.102854 0.960257,0.550485 1.138244,0.989565 0.0317,0.07818 0.0649,0.156155 0.0975,0.233986 0.182979,0.437002 0.13281,1.111564 -0.121872,1.511159 l -3.219744,5.050196 c -0.24916,0.391537 -0.328161,0.861268 0,1.189429 l 3.556098,3.556098 c 0.328162,0.32816 0.856386,0.32816 1.184554,0 l 5.047759,-3.214869 c 0.399638,-0.254598 1.068746,-0.291461 1.506277,-0.10968 0.09565,0.03975 0.188435,0.07648 0.277858,0.112113 0.439893,0.17527 0.886935,0.675639 0.989565,1.138244 l 1.294235,5.835023 c 0,0.46409 0.374365,0.83845 0.838449,0.83845 h 5.023386 c 0.464087,0 0.740213,-0.385413 0.840886,-0.83845 l 1.29911,-6.037323 c 0.09973,-0.463239 0.541939,-0.97031 0.974941,-1.162618 0.140884,-0.06257 0.280378,-0.128019 0.419225,-0.194988 0.42674,-0.205829 1.074569,-0.170873 1.459974,0.1048 l 4.935641,3.529288 c 0.328163,0.32816 0.853956,0.32816 1.182116,0 l 3.558535,-3.556088 c 0.328164,-0.328161 0.249161,-0.797892 0,-1.189429 l -1.884073,-3.32455 c -0.799056,0.295434 -1.653574,-0.04923 -2.135122,-0.694645 -0.08702,-0.116631 -0.201693,-0.322864 -0.275421,-0.448473 l -1.559906,-2.656715 c -0.07373,-0.12561 -0.177395,-0.118528 -0.236423,0.01463 -1.651063,3.724245 -5.07629,6.488783 -9.203446,7.217003 -1.187699,0.209565 -3.162959,0.209457 -4.350675,0 -5.834136,-1.028859 -10.266133,-6.123338 -10.266133,-12.252575 0,-5.272844 3.285489,-9.768371 7.916524,-11.579865 0.01,-0.409444 0.001,-1.140917 -0.0074,-1.701272 -0.0057,-0.384644 -0.305124,-0.594783 -0.66296,-0.453348 -0.194914,0.07703 -0.389604,0.156806 -0.582528,0.238861 -0.354054,0.150585 -0.901477,0.109305 -1.225989,-0.0975 l -4.669935,-2.976014 c -0.277702,-0.176969 -0.711961,-0.541155 -1.033438,-0.565466 -0.02071,-0.0016 -0.04262,-0.0025 -0.06337,-0.0025 z"
       style="fill:none;fill-opacity:1;stroke:#0026ff;stroke-width:0.2;stroke-dasharray:none;stroke-opacity:1;filter:url(#filter5)"
       id="path2-2-0" />
  </g>
</svg>
