<?xml version="1.0" encoding="UTF-8" standalone="no"?>
<svg
   width="64"
   height="64"
   version="1.1"
   id="svg12"
   sodipodi:docname="org.gnome.Software.svg"
   inkscape:version="1.4.2 (ebf0e940d0, 2025-05-08)"
   xmlns:inkscape="http://www.inkscape.org/namespaces/inkscape"
   xmlns:sodipodi="http://sodipodi.sourceforge.net/DTD/sodipodi-0.dtd"
   xmlns:xlink="http://www.w3.org/1999/xlink"
   xmlns="http://www.w3.org/2000/svg"
   xmlns:svg="http://www.w3.org/2000/svg">
  <defs
     id="defs12">
    <radialGradient
       id="SVGID_1_-2"
       cx="11.7752"
       cy="19.0165"
       r="57.6096"
       gradientUnits="userSpaceOnUse"
       gradientTransform="translate(0.05000052,1.9999996)">
      <stop
         offset="0"
         style="stop-color:#67c9ff;stop-opacity:1;"
         id="stop1-9" />
      <stop
         offset="1"
         style="stop-color:#348dff;stop-opacity:1;"
         id="stop2-1" />
    </radialGradient>
    <radialGradient
       id="SVGID_1_-2-5"
       cx="11.7752"
       cy="19.0165"
       r="57.6096"
       gradientUnits="userSpaceOnUse"
       gradientTransform="translate(0.13949926,2.0512584)">
      <stop
         offset="0"
         style="stop-color:#7f35fb;stop-opacity:1;"
         id="stop1-9-3" />
      <stop
         offset="1"
         style="stop-color:#ac68ff;stop-opacity:1;"
         id="stop2-1-5" />
    </radialGradient>
    <radialGradient
       id="SVGID_1_-2-3"
       cx="11.7752"
       cy="19.0165"
       r="57.6096"
       gradientUnits="userSpaceOnUse"
       gradientTransform="translate(-0.0499999,2.3000001)">
      <stop
         offset="0"
         style="stop-color:#75c2ff;stop-opacity:1;"
         id="stop1-9-6" />
      <stop
         offset="1"
         style="stop-color:#2663ff;stop-opacity:1;"
         id="stop2-1-7" />
    </radialGradient>
    <radialGradient
       id="SVGID_1_-2-3-5"
       cx="11.7752"
       cy="19.0165"
       r="57.6096"
       gradientUnits="userSpaceOnUse"
       gradientTransform="matrix(0.918263,0,0,0.918263,2.5349175,5.0028939)"
       xlink:href="#SVGID_1_-2">
      <stop
         offset="0"
         style="stop-color:#2ddbf6;stop-opacity:1;"
         id="stop1-9-6-6" />
      <stop
         offset="1"
         style="stop-color:#26acff;stop-opacity:1;"
         id="stop2-1-7-2" />
    </radialGradient>
    <filter
       inkscape:collect="always"
       style="color-interpolation-filters:sRGB"
       id="filter3"
       x="-0.11913381"
       y="-0.13313559"
       width="1.2382676"
       height="1.2662712">
      <feGaussianBlur
         inkscape:collect="always"
         stdDeviation="2.7430862"
         id="feGaussianBlur3" />
    </filter>
    <radialGradient
       id="SVGID_1_-3-2-7"
       cx="-159.43106"
       cy="15.462561"
       r="64.706802"
       gradientTransform="matrix(-0.89413329,0,0,0.96304834,-80.753654,49.330428)"
       gradientUnits="userSpaceOnUse"
       fx="-159.43106"
       fy="15.462561">
	<stop
   offset="0"
   style="stop-color:#006fff;stop-opacity:1;"
   id="stop1-6-9-5" />

	<stop
   offset="1"
   style="stop-color:#15baff;stop-opacity:1;"
   id="stop2-7-1-3" />

</radialGradient>
    <radialGradient
       inkscape:collect="always"
       xlink:href="#SVGID_1_-3-2-7"
       id="radialGradient2"
       cx="63.929249"
       cy="67.915588"
       fx="63.929249"
       fy="67.915588"
       r="25.757278"
       gradientTransform="matrix(0,-2.4081956,2.1549273,0,-82.423905,218.12146)"
       gradientUnits="userSpaceOnUse" />
    <filter
       inkscape:collect="always"
       style="color-interpolation-filters:sRGB"
       id="filter2"
       x="-0.074510998"
       y="-0.066815823"
       width="1.149022"
       height="1.1336171">
      <feGaussianBlur
         inkscape:collect="always"
         stdDeviation="0.69978892"
         id="feGaussianBlur2" />
    </filter>
  </defs>
  <sodipodi:namedview
     id="namedview12"
     pagecolor="#ffffff"
     bordercolor="#000000"
     borderopacity="0.25"
     inkscape:showpageshadow="2"
     inkscape:pageopacity="0.0"
     inkscape:pagecheckerboard="0"
     inkscape:deskcolor="#d1d1d1"
     inkscape:zoom="13.890625"
     inkscape:cx="20.985377"
     inkscape:cy="32.683915"
     inkscape:window-width="1920"
     inkscape:window-height="1020"
     inkscape:window-x="0"
     inkscape:window-y="0"
     inkscape:window-maximized="1"
     inkscape:current-layer="svg12" />
  <path
     class="st1"
     d="m 20.900177,15.654745 v 0 c 0,1.561047 -1.193742,2.846615 -2.754789,2.846615 h -4.95862 c -3.8567048,0 -6.978799,3.122094 -6.978799,6.978799 V 47.79395 c 0,4.132184 3.3975731,7.529757 7.529757,7.529757 h 36.455041 c 4.132184,0 7.529757,-3.397573 7.529757,-7.529757 V 25.388333 c 0,-3.856705 -3.122094,-6.978799 -6.978799,-6.978799 h -5.050447 c -1.561047,0 -2.754789,-1.193742 -2.754789,-2.754789 v 0 c 0,-3.581226 -2.846615,-6.4278413 -6.336014,-6.4278413 H 27.236192 C 23.746793,9.31873 20.900177,12.165346 20.900177,15.654745 Z m 6.427841,-2.662963 h 9.18263 c 1.561047,0 2.754789,1.193742 2.754789,2.754789 v 0 c 0,1.561047 -1.193742,2.754789 -2.754789,2.754789 h -9.18263 c -1.561047,0 -2.754789,-1.193742 -2.754789,-2.754789 v 0 c 0,-1.561047 1.193742,-2.754789 2.754789,-2.754789 z"
     id="path2"
     style="fill:url(#radialGradient2);stroke-width:0.918263" />
  <path
     class="st1"
     d="m 19.949999,13.900001 v 0 c 0,1.7 -1.3,3.1 -3,3.1 h -5.4 c -4.2000011,0 -7.6000001,3.4 -7.6000001,7.6 v 24.3 c 0,4.5 3.699999,8.2 8.2000001,8.2 h 39.7 c 4.5,0 8.2,-3.7 8.2,-8.2 v -24.4 c 0,-4.2 -3.4,-7.6 -7.6,-7.6 h -5.5 c -1.7,0 -3,-1.3 -3,-3 v 0 c 0,-3.9 -3.1,-7.0000003 -6.9,-7.0000003 h -10.2 c -3.8,0.1 -6.9,3.2000003 -6.9,7.0000003 z m 7,-2.9 h 10 c 1.7,0 3,1.3 3,3 v 0 c 0,1.7 -1.3,3 -3,3 h -10 c -1.7,0 -3,-1.3 -3,-3 v 0 c 0,-1.7 1.3,-3 3,-3 z"
     id="path2-2"
     style="mix-blend-mode:normal;fill:none;stroke:#000000;stroke-width:0.2;stroke-dasharray:none;stroke-opacity:1;filter:url(#filter3)"
     transform="matrix(0.918263,0,0,0.918263,2.6155839,2.6155839)" />
  <path
     id="path10"
     style="opacity:0.3;fill:#000000;fill-opacity:1;stroke-width:0.918263"
     d="m 40.290496,37.595291 -7.903537,4.7837 c -0.481239,0.290146 -0.778352,0.831864 -0.778827,1.41852 -4.74e-4,0.586658 0.295762,1.128857 0.776531,1.419783 l 7.895786,4.796483 c 0.484276,0.294653 1.079387,0.291411 1.562383,-0.0042 0.483001,-0.297652 0.780116,-0.843097 0.780596,-1.435339 l 0.0077,-9.535474 c 4.79e-4,-0.592242 -0.295753,-1.138167 -0.778272,-1.436541 -0.482517,-0.296512 -1.077622,-0.300716 -1.562374,-0.0068 z m 0,0 m -3.165358,-2.975919 c -3.043538,-0.0025 -5.507581,-2.470496 -5.505119,-5.514033 0.0025,-3.043538 2.470496,-5.50758 5.514034,-5.505117 3.04354,0.0025 5.507581,2.470494 5.505119,5.514032 -0.0025,3.043537 -2.470495,5.507581 -5.514034,5.505118 z m 0,0 m -14.689232,-3.684937 3.673051,0.003 c 2.02843,0.0016 3.67172,1.647592 3.670079,3.676023 l -0.003,3.673049 c -0.0016,2.028429 -1.647593,3.671722 -3.676023,3.670081 l -3.673051,-0.003 c -2.028428,-0.0016 -3.67172,-1.647595 -3.670079,-3.676024 l 0.003,-3.673049 c 0.0016,-2.028432 1.647594,-3.67172 3.676022,-3.670079 z m 0,0" />
  <path
     id="path10-1"
     style="opacity:0.3;fill:none;fill-opacity:1;stroke-width:0.20000001;stroke:#000000;stroke-opacity:1;stroke-dasharray:none;filter:url(#filter2)"
     d="m 40.290496,37.595291 -7.903537,4.7837 c -0.481239,0.290146 -0.778352,0.831864 -0.778827,1.41852 -4.74e-4,0.586658 0.295762,1.128857 0.776531,1.419783 l 7.895786,4.796483 c 0.484276,0.294653 1.079387,0.291411 1.562383,-0.0042 0.483001,-0.297652 0.780116,-0.843097 0.780596,-1.435339 l 0.0077,-9.535474 c 4.79e-4,-0.592242 -0.295753,-1.138167 -0.778272,-1.436541 -0.482517,-0.296512 -1.077622,-0.300716 -1.562374,-0.0068 z m 0,0 m -3.165358,-2.975919 c -3.043538,-0.0025 -5.507581,-2.470496 -5.505119,-5.514033 0.0025,-3.043538 2.470496,-5.50758 5.514034,-5.505117 3.04354,0.0025 5.507581,2.470494 5.505119,5.514032 -0.0025,3.043537 -2.470495,5.507581 -5.514034,5.505118 z m 0,0 m -14.689232,-3.684937 3.673051,0.003 c 2.02843,0.0016 3.67172,1.647592 3.670079,3.676023 l -0.003,3.673049 c -0.0016,2.028429 -1.647593,3.671722 -3.676023,3.670081 l -3.673051,-0.003 c -2.028428,-0.0016 -3.67172,-1.647595 -3.670079,-3.676024 l 0.003,-3.673049 c 0.0016,-2.028432 1.647594,-3.67172 3.676022,-3.670079 z m 0,0" />
</svg>
