<?xml version="1.0" encoding="UTF-8" standalone="no"?>
<svg
   width="64"
   height="64"
   version="1.1"
   id="svg9"
   sodipodi:docname="pdfstudio.svg"
   inkscape:version="1.4.3 (0d15f75042, 2025-12-25)"
   xmlns:inkscape="http://www.inkscape.org/namespaces/inkscape"
   xmlns:sodipodi="http://sodipodi.sourceforge.net/DTD/sodipodi-0.dtd"
   xmlns:xlink="http://www.w3.org/1999/xlink"
   xmlns="http://www.w3.org/2000/svg"
   xmlns:svg="http://www.w3.org/2000/svg">
  <defs
     id="defs9">
    <inkscape:path-effect
       effect="fillet_chamfer"
       id="path-effect9"
       is_visible="true"
       lpeversion="1"
       nodesatellites_param="F,0,0,1,0,0,0,1 @ F,0,0,1,0,0,0,1 @ F,0,0,1,0,0,0,1 @ F,0,0,1,0,0,0,1 @ F,0,0,1,0,0,0,1 @ F,0,0,1,0,0,0,1 @ F,0,1,1,0,2.2894978,0,1 @ F,0,0,1,0,2.2894978,0,1 @ F,0,0,1,0,0,0,1 @ F,0,0,1,0,0,0,1 @ F,0,0,1,0,0,0,1 @ F,0,0,1,0,0,0,1 @ F,0,0,1,0,0,0,1 | F,0,0,1,0,0,0,1 @ F,0,0,1,0,0,0,1 @ F,0,0,1,0,0,0,1 @ F,0,0,1,0,0,0,1 @ F,0,0,1,0,0,0,1 @ F,0,0,1,0,0,0,1 @ F,0,0,1,0,0,0,1 @ F,0,0,1,0,0,0,1"
       radius="0"
       unit="px"
       method="auto"
       mode="F"
       chamfer_steps="1"
       flexible="false"
       use_knot_distance="true"
       apply_no_radius="true"
       apply_with_radius="true"
       only_selected="false"
       hide_knots="false" />
    <radialGradient
       inkscape:collect="always"
       xlink:href="#linearGradient6-3"
       id="radialGradient12"
       cx="8.9159527"
       cy="52.562355"
       fx="8.9159527"
       fy="52.562355"
       r="21.984943"
       gradientTransform="matrix(2.4108181,-2.4108181,3.075631,3.075631,-180.22015,-81.761033)"
       gradientUnits="userSpaceOnUse" />
    <linearGradient
       id="linearGradient6-3"
       inkscape:collect="always">
      <stop
         style="stop-color:#ff423b;stop-opacity:1;"
         offset="0.00165814"
         id="stop6" />
      <stop
         style="stop-color:#f16232;stop-opacity:1;"
         offset="0.99860948"
         id="stop8-6" />
    </linearGradient>
    <filter
       inkscape:collect="always"
       style="color-interpolation-filters:sRGB"
       id="filter5"
       x="-0.049361263"
       y="-0.037020948"
       width="1.0987225"
       height="1.0740419">
      <feGaussianBlur
         inkscape:collect="always"
         stdDeviation="0.69875228"
         id="feGaussianBlur5" />
    </filter>
    <filter
       inkscape:collect="always"
       style="color-interpolation-filters:sRGB"
       id="filter1"
       x="-0.086579163"
       y="-0.067864647"
       width="1.1731583"
       height="1.1357293">
      <feGaussianBlur
         inkscape:collect="always"
         stdDeviation="1.5236983"
         id="feGaussianBlur1" />
    </filter>
  </defs>
  <sodipodi:namedview
     id="namedview9"
     pagecolor="#ffffff"
     bordercolor="#000000"
     borderopacity="0.25"
     inkscape:showpageshadow="2"
     inkscape:pageopacity="0.0"
     inkscape:pagecheckerboard="0"
     inkscape:deskcolor="#d1d1d1"
     inkscape:zoom="18.064328"
     inkscape:cx="37.14503"
     inkscape:cy="34.432501"
     inkscape:current-layer="svg9" />
  <g
     id="g5">
    <rect
       style="fill:url(#radialGradient12);fill-opacity:1;stroke:none;stroke-width:8.3;stroke-linejoin:bevel;stroke-opacity:1;paint-order:stroke fill markers"
       id="rect10"
       width="43.969887"
       height="56.095127"
       x="10.015057"
       y="3.9524364"
       rx="6.4782028"
       ry="6.4782028" />
    <path
       id="path4-2"
       style="fill:#f5f5f5"
       d="M 17.800781,8 C 15.701595,7.9998255 13.999825,9.7015956 14,11.800781 V 52.199219 C 13.999826,54.298405 15.701595,56.000175 17.800781,56 H 46.199219 C 48.298405,56.000175 50.000175,54.298405 50,52.199219 V 11.236328 C 49.9994,9.4484394 48.549608,7.9995213 46.761719,8 Z m 0.953125,2.701172 h 8.550782 c 1.184327,0 2.136718,0.954345 2.136718,2.138672 v 8.548828 c 0,1.184326 -0.952391,2.138672 -2.136718,2.138672 h -8.550782 c -1.184326,0 -2.138672,-0.954346 -2.138672,-2.138672 v -8.548828 c 0,-1.184327 0.954346,-2.138672 2.138672,-2.138672 z m 15.628906,0 h 11.863282 a 1.1323632,1.1323632 0 0 1 1.167968,1.09375 1.1686281,1.1686281 0 0 1 -1.167968,1.169922 H 34.382812 a 1.1323632,1.1323632 0 0 1 -1.167968,-1.095703 1.1686281,1.1686281 0 0 1 1.167968,-1.167969 z m 0,5.28125 h 11.863282 a 1.1323632,1.1323632 0 0 1 1.167968,1.095703 1.1686281,1.1686281 0 0 1 -1.167968,1.167969 H 34.382812 a 1.1323632,1.1323632 0 0 1 -1.167968,-1.095703 1.1686281,1.1686281 0 0 1 1.167968,-1.167969 z m 0,5.28125 h 11.863282 a 1.1323632,1.1323632 0 0 1 1.167968,1.095703 1.1686281,1.1686281 0 0 1 -1.167968,1.167969 H 34.382812 a 1.1323632,1.1323632 0 0 1 -1.167968,-1.09375 1.1686281,1.1686281 0 0 1 1.167968,-1.169922 z m -16.597656,5.28125 h 28.460938 a 1.1323632,1.1323632 0 0 1 1.167968,1.095703 1.1686281,1.1686281 0 0 1 -1.167968,1.167969 H 17.785156 a 1.1323632,1.1323632 0 0 1 -1.169922,-1.09375 1.1686281,1.1686281 0 0 1 1.169922,-1.169922 z m 0,5.283203 h 28.460938 a 1.1323632,1.1323632 0 0 1 1.167968,1.09375 1.1686281,1.1686281 0 0 1 -1.167968,1.167969 H 17.785156 a 1.1323632,1.1323632 0 0 1 -1.169922,-1.09375 1.1686281,1.1686281 0 0 1 1.169922,-1.167969 z m 0,5.28125 h 28.460938 a 1.1323632,1.1323632 0 0 1 1.167968,1.09375 1.1686281,1.1686281 0 0 1 -1.167968,1.169922 H 17.785156 a 1.1323632,1.1323632 0 0 1 -1.169922,-1.095703 1.1686281,1.1686281 0 0 1 1.169922,-1.167969 z m 0,5.28125 h 28.460938 a 1.1323632,1.1323632 0 0 1 1.167968,1.09375 1.1686281,1.1686281 0 0 1 -1.167968,1.169922 H 17.785156 a 1.1323632,1.1323632 0 0 1 -1.169922,-1.095703 1.1686281,1.1686281 0 0 1 1.169922,-1.167969 z" />
    <path
       id="path4-2-5"
       style="fill:none;fill-opacity:1;stroke:#ff0064;stroke-width:0.2;stroke-dasharray:none;stroke-opacity:1;filter:url(#filter5)"
       d="M 17.800781,8.0000002 C 15.701595,7.9998257 13.999825,9.7015958 14,11.800781 V 52.199219 C 13.999826,54.298405 15.701595,56.000175 17.800781,56 H 46.199219 C 48.298405,56.000175 50.000175,54.298405 50,52.199219 V 11.236328 C 49.9994,9.4484396 48.549608,7.9995215 46.761719,8.0000002 Z m 0.953125,2.7011718 h 8.550782 c 1.184327,0 2.136718,0.954345 2.136718,2.138672 v 8.548828 c 0,1.184326 -0.952391,2.138672 -2.136718,2.138672 h -8.550782 c -1.184326,0 -2.138672,-0.954346 -2.138672,-2.138672 v -8.548828 c 0,-1.184327 0.954346,-2.138672 2.138672,-2.138672 z m 15.628906,0 h 11.863282 a 1.1323632,1.1323632 0 0 1 1.167968,1.09375 1.1686281,1.1686281 0 0 1 -1.167968,1.169922 H 34.382812 a 1.1323632,1.1323632 0 0 1 -1.167968,-1.095703 1.1686281,1.1686281 0 0 1 1.167968,-1.167969 z m 0,5.28125 h 11.863282 a 1.1323632,1.1323632 0 0 1 1.167968,1.095703 1.1686281,1.1686281 0 0 1 -1.167968,1.167969 H 34.382812 a 1.1323632,1.1323632 0 0 1 -1.167968,-1.095703 1.1686281,1.1686281 0 0 1 1.167968,-1.167969 z m 0,5.28125 h 11.863282 a 1.1323632,1.1323632 0 0 1 1.167968,1.095703 1.1686281,1.1686281 0 0 1 -1.167968,1.167969 H 34.382812 a 1.1323632,1.1323632 0 0 1 -1.167968,-1.09375 1.1686281,1.1686281 0 0 1 1.167968,-1.169922 z m -16.597656,5.28125 h 28.460938 a 1.1323632,1.1323632 0 0 1 1.167968,1.095703 1.1686281,1.1686281 0 0 1 -1.167968,1.167969 H 17.785156 a 1.1323632,1.1323632 0 0 1 -1.169922,-1.09375 1.1686281,1.1686281 0 0 1 1.169922,-1.169922 z m 0,5.283203 h 28.460938 a 1.1323632,1.1323632 0 0 1 1.167968,1.09375 1.1686281,1.1686281 0 0 1 -1.167968,1.167969 H 17.785156 a 1.1323632,1.1323632 0 0 1 -1.169922,-1.09375 1.1686281,1.1686281 0 0 1 1.169922,-1.167969 z m 0,5.28125 h 28.460938 a 1.1323632,1.1323632 0 0 1 1.167968,1.09375 1.1686281,1.1686281 0 0 1 -1.167968,1.169922 H 17.785156 a 1.1323632,1.1323632 0 0 1 -1.169922,-1.095703 1.1686281,1.1686281 0 0 1 1.169922,-1.167969 z m 0,5.28125 h 28.460938 a 1.1323632,1.1323632 0 0 1 1.167968,1.09375 1.1686281,1.1686281 0 0 1 -1.167968,1.169922 H 17.785156 a 1.1323632,1.1323632 0 0 1 -1.169922,-1.095703 1.1686281,1.1686281 0 0 1 1.169922,-1.167969 z" />
    <rect
       style="fill:none;fill-opacity:1;stroke:#000000;stroke-width:0.3;stroke-linejoin:bevel;stroke-dasharray:none;stroke-opacity:1;paint-order:stroke fill markers;filter:url(#filter1)"
       id="rect10-5"
       width="43.969887"
       height="56.095127"
       x="10.015058"
       y="3.952436"
       rx="6.4782028"
       ry="6.4782028" />
  </g>
</svg>
