<?xml version="1.0" encoding="UTF-8" standalone="no"?>
<svg
   width="64"
   height="64"
   version="1.1"
   id="svg9"
   sodipodi:docname="spotify-qt.svg"
   inkscape:version="1.4.2 (ebf0e940d0, 2025-05-08)"
   xmlns:inkscape="http://www.inkscape.org/namespaces/inkscape"
   xmlns:sodipodi="http://sodipodi.sourceforge.net/DTD/sodipodi-0.dtd"
   xmlns:xlink="http://www.w3.org/1999/xlink"
   xmlns="http://www.w3.org/2000/svg"
   xmlns:svg="http://www.w3.org/2000/svg">
  <defs
     id="defs9">
    <radialGradient
       inkscape:collect="always"
       xlink:href="#linearGradient11"
       id="radialGradient10"
       cx="63.945484"
       cy="63.945484"
       fx="63.945484"
       fy="63.945484"
       r="28"
       gradientUnits="userSpaceOnUse"
       gradientTransform="matrix(0,-2.3007195,2.3007195,0,-83.196441,211.04482)" />
    <linearGradient
       id="linearGradient11"
       inkscape:collect="always">
      <stop
         style="stop-color:#00ab60;stop-opacity:1;"
         offset="0"
         id="stop10" />
      <stop
         style="stop-color:#2edd6c;stop-opacity:1;"
         offset="1"
         id="stop11" />
    </linearGradient>
    <filter
       inkscape:collect="always"
       style="color-interpolation-filters:sRGB"
       id="filter12"
       x="-0.074159756"
       y="-0.074159756"
       width="1.1483195"
       height="1.1483195">
      <feGaussianBlur
         inkscape:collect="always"
         stdDeviation="1.6003295"
         id="feGaussianBlur12" />
    </filter>
    <filter
       inkscape:collect="always"
       style="color-interpolation-filters:sRGB"
       id="filter11"
       x="-0.047539473"
       y="-0.07135663"
       width="1.0950686"
       height="1.1427147">
      <feGaussianBlur
         inkscape:collect="always"
         stdDeviation="0.73065109"
         id="feGaussianBlur11" />
    </filter>
  </defs>
  <sodipodi:namedview
     id="namedview9"
     pagecolor="#ffffff"
     bordercolor="#000000"
     borderopacity="0.25"
     inkscape:showpageshadow="2"
     inkscape:pageopacity="0.0"
     inkscape:pagecheckerboard="0"
     inkscape:deskcolor="#d1d1d1"
     inkscape:zoom="19.5"
     inkscape:cx="32"
     inkscape:cy="32"
     inkscape:current-layer="svg9" />
  <g
     id="g12">
    <path
       fill="#1ed760"
       d="m 59.981332,32 v 0 C 59.981332,16.510334 47.489666,4.0186674 32,4.0186674 v 0 C 16.510334,4.0186674 4.0186674,16.510334 4.0186674,32 v 0 C 4.0186674,47.489666 16.510334,59.981332 32,59.981332 v 0 C 47.489666,59.981332 59.981332,47.489666 59.981332,32 Z"
       id="path2"
       style="fill:url(#radialGradient10);stroke-width:0.999333" />
    <path
       fill="#1ed760"
       d="m 58.569605,32 v 0 C 58.569605,17.291826 46.708174,5.4303948 32,5.4303948 v 0 C 17.291826,5.4303948 5.4303948,17.291826 5.4303948,32 v 0 C 5.4303948,46.708174 17.291826,58.569605 32,58.569605 v 0 C 46.708174,58.569605 58.569605,46.708174 58.569605,32 Z"
       id="path2-93"
       style="mix-blend-mode:normal;fill:none;stroke:#000000;stroke-width:0.2;stroke-dasharray:none;stroke-opacity:1;filter:url(#filter12)"
       transform="matrix(1.0531332,0,0,1.0531332,-1.7002615,-1.7002615)" />
    <path
       id="path5"
       style="baseline-shift:baseline;display:inline;overflow:visible;opacity:1;vector-effect:none;fill:#ffffff;stroke-width:1.05313;stroke-linecap:round;enable-background:accumulate;stop-color:#000000;stop-opacity:1"
       d="m 25.917465,18.339521 c -4.924225,0.122855 -9.386532,0.887704 -12.798035,2.252307 a 2.6328329,2.6328329 0 0 0 -1.46657,3.420625 2.6328329,2.6328329 0 0 0 3.420624,1.46657 c 3.349826,-1.33993 9.308955,-2.165951 15.58308,-1.789503 6.274127,0.376447 12.911511,1.916934 17.940289,4.790521 a 2.6328329,2.6328329 0 0 0 3.591349,-0.979085 2.6328329,2.6328329 0 0 0 -0.979086,-3.591348 c -6.02912,-3.445212 -13.34575,-5.064125 -20.235788,-5.477527 -1.72251,-0.10335 -3.414454,-0.133512 -5.055863,-0.09256 z M 22.5894,28.87908 c -2.820825,0.134179 -5.399873,0.484398 -7.491232,1.08193 a 2.1062663,2.1062663 0 0 0 -1.448058,2.604036 2.1062663,2.1062663 0 0 0 2.604036,1.448058 c 3.189212,-0.911203 9.164082,-1.227734 14.900189,-0.717858 5.736106,0.509877 11.386542,1.931809 13.894364,3.603689 a 2.1062663,2.1062663 0 0 0 2.920799,-0.584159 2.1062663,2.1062663 0 0 0 -0.58416,-2.920798 C 43.574361,30.853325 37.640333,29.642426 31.52869,29.099168 28.47287,28.82754 25.410225,28.744901 22.5894,28.87908 Z m 7.042828,9.480255 c -5.046156,-0.26936 -9.93312,0.193436 -13.413049,1.063418 a 2.1062663,2.1062663 0 0 0 -1.532391,2.552614 2.1062663,2.1062663 0 0 0 2.552613,1.532391 c 5.677739,-1.419435 18.365438,-1.307474 24.876158,1.947884 a 2.1062663,2.1062663 0 0 0 2.826181,-0.94206 2.1062663,2.1062663 0 0 0 -0.94206,-2.826181 C 39.883107,39.629116 34.678384,38.628695 29.632228,38.359335 Z" />
    <path
       id="path5-7"
       style="baseline-shift:baseline;display:inline;overflow:visible;mix-blend-mode:normal;fill:none;stroke:#00a2ff;stroke-width:0.2;stroke-linecap:round;stroke-dasharray:none;stroke-opacity:1;filter:url(#filter11);enable-background:accumulate;stop-color:#000000"
       d="m 26.224344,19.028726 c -4.675786,0.116657 -8.912958,0.842917 -12.152343,2.138672 a 2.5,2.5 0 0 0 -1.392578,3.248046 2.5,2.5 0 0 0 3.248046,1.392578 c 3.180819,-1.272327 8.839295,-2.056673 14.796875,-1.699218 5.957581,0.357455 12.260093,1.82022 17.035157,4.548828 a 2.5,2.5 0 0 0 3.410156,-0.929688 2.5,2.5 0 0 0 -0.929688,-3.410156 C 44.515033,21.046396 37.567545,19.509161 31.025126,19.116616 29.389521,19.01848 27.78294,18.98984 26.224344,19.028726 Z m -3.160156,10.007812 c -2.678507,0.127409 -5.127436,0.459959 -7.113281,1.027344 a 2,2 0 0 0 -1.375,2.472656 2,2 0 0 0 2.472656,1.375 c 3.028309,-0.865231 8.701732,-1.165792 14.148438,-0.68164 5.446705,0.484152 10.812063,1.834344 13.193359,3.421874 a 2,2 0 0 0 2.773437,-0.554687 2,2 0 0 0 -0.554687,-2.773437 c -3.618704,-2.41247 -9.253346,-3.562277 -15.056641,-4.078126 -2.901647,-0.257924 -5.809774,-0.336393 -8.488281,-0.208984 z m 6.6875,9.001953 c -4.791565,-0.25577 -9.43197,0.183676 -12.736328,1.009766 a 2,2 0 0 0 -1.455078,2.423828 2,2 0 0 0 2.423828,1.455078 c 5.391283,-1.347821 17.438856,-1.241509 23.621094,1.849609 a 2,2 0 0 0 2.683593,-0.894531 2,2 0 0 0 -0.894531,-2.683593 c -3.908881,-1.95444 -8.851013,-2.904387 -13.642578,-3.160157 z"
       transform="matrix(1.0531332,0,0,1.0531332,-1.7002615,-1.7002615)" />
  </g>
</svg>
