<?xml version="1.0" encoding="UTF-8" standalone="no"?>
<svg
   width="64"
   height="64"
   version="1"
   id="svg4"
   sodipodi:docname="system-shutdown.svg"
   inkscape:version="1.4.2 (ebf0e940d0, 2025-05-08)"
   xmlns:inkscape="http://www.inkscape.org/namespaces/inkscape"
   xmlns:sodipodi="http://sodipodi.sourceforge.net/DTD/sodipodi-0.dtd"
   xmlns:xlink="http://www.w3.org/1999/xlink"
   xmlns="http://www.w3.org/2000/svg"
   xmlns:svg="http://www.w3.org/2000/svg">
  <defs
     id="defs4">
    <linearGradient
       id="linearGradient5"
       inkscape:collect="always">
      <stop
         style="stop-color:#ff524e;stop-opacity:1;"
         offset="0"
         id="stop5" />
      <stop
         style="stop-color:#ff7f50;stop-opacity:1;"
         offset="1"
         id="stop6" />
    </linearGradient>
    <radialGradient
       inkscape:collect="always"
       xlink:href="#linearGradient5"
       id="radialGradient6"
       cx="8.5747252"
       cy="55.929565"
       fx="8.5747252"
       fy="55.929565"
       r="29"
       gradientUnits="userSpaceOnUse"
       gradientTransform="matrix(2.2711885,0,0,2.2711885,-8.6839224,-73.360903)" />
    <filter
       inkscape:collect="always"
       style="color-interpolation-filters:sRGB"
       id="filter1"
       x="-0.068655748"
       y="-0.065535138"
       width="1.1373115"
       height="1.1310701">
      <feGaussianBlur
         inkscape:collect="always"
         stdDeviation="1.138988"
         id="feGaussianBlur1" />
    </filter>
    <filter
       inkscape:collect="always"
       style="color-interpolation-filters:sRGB"
       id="filter2"
       x="-0.10836105"
       y="-0.10836105"
       width="1.2167221"
       height="1.2167221">
      <feGaussianBlur
         inkscape:collect="always"
         stdDeviation="2.5562252"
         id="feGaussianBlur2" />
    </filter>
  </defs>
  <sodipodi:namedview
     id="namedview4"
     pagecolor="#ffffff"
     bordercolor="#000000"
     borderopacity="0.25"
     inkscape:showpageshadow="2"
     inkscape:pageopacity="0.0"
     inkscape:pagecheckerboard="0"
     inkscape:deskcolor="#d1d1d1"
     inkscape:zoom="14.650836"
     inkscape:cx="24.36721"
     inkscape:cy="32.08008"
     inkscape:window-width="1920"
     inkscape:window-height="1020"
     inkscape:window-x="0"
     inkscape:window-y="0"
     inkscape:window-maximized="1"
     inkscape:current-layer="svg4" />
  <circle
     style="fill:url(#radialGradient6);stroke-width:0.905394"
     cx="32"
     cy="32"
     r="26.256428"
     id="circle2" />
  <path
     style="fill:#ffffff;stroke-width:0.894639"
     d="m 31.958063,10.925308 a 2.6841867,2.6745958 0 0 0 -2.641981,2.711877 v 16.047594 a 2.6841867,2.6745958 0 1 0 5.367836,0 V 13.637185 a 2.6841867,2.6745958 0 0 0 -2.725855,-2.711877 z m -8.921931,4.473198 a 2.6844736,2.6829934 0 0 0 -1.432821,0.468288 c -6.881426,4.569487 -9.971561,13.132529 -7.597446,21.0415 2.374114,7.908973 9.66599,13.352327 17.927736,13.381151 8.261746,0.02882 15.596286,-5.363129 18.025586,-13.255341 2.429305,-7.892216 -0.60482,-16.476531 -7.454162,-21.093921 a 2.6844736,2.6829934 0 1 0 -3.001936,4.448734 c 4.908627,3.309084 7.063382,9.409578 5.322407,15.065588 -1.740976,5.656008 -6.950089,9.491254 -12.870927,9.470597 -5.920837,-0.02066 -11.106595,-3.89344 -12.808022,-9.561458 -1.701425,-5.668019 0.495627,-11.7489 5.427245,-15.023653 a 2.6844736,2.6829934 0 0 0 -1.53766,-4.941485 z"
     id="path3" />
  <circle
     style="mix-blend-mode:normal;fill:none;stroke:#000000;stroke-width:0.3;stroke-dasharray:none;stroke-opacity:1;filter:url(#filter2)"
     cx="32"
     cy="32"
     r="29"
     id="circle2-5"
     transform="matrix(0.90539404,0,0,0.90539404,3.0273907,3.0273907)" />
  <path
     style="mix-blend-mode:normal;fill:none;stroke:#ff0000;stroke-width:0.3;stroke-dasharray:none;stroke-opacity:1;filter:url(#filter1)"
     d="m 31.951681,9.0000024 a 3.0003,2.9895796 0 0 0 -2.953124,3.0312496 v 17.9375 a 3.0003,2.9895796 0 1 0 6,0 v -17.9375 A 3.0003,2.9895796 0 0 0 31.951681,9.0000024 Z m -9.972656,4.9999996 a 3.0006206,2.998966 0 0 0 -1.601562,0.523438 c -7.691843,5.107629 -11.1458975,14.67913 -8.492187,23.51953 2.65371,8.840402 10.804341,14.924814 20.039063,14.957032 9.23472,0.03222 17.43304,-5.994738 20.148436,-14.816406 2.7154,-8.821672 -0.67605,-18.416951 -8.33203,-23.578125 a 3.0006206,2.998966 0 1 0 -3.35547,4.972656 c 5.48671,3.698791 7.895228,10.517733 5.94922,16.839843 -1.946008,6.32211 -7.768592,10.609028 -14.38672,10.585938 -6.618126,-0.0231 -12.414604,-4.351966 -14.316406,-10.6875 -1.901799,-6.335534 0.553996,-13.132552 6.066406,-16.792968 a 3.0006206,2.998966 0 0 0 -1.71875,-5.523438 z"
     id="path3-3"
     transform="matrix(0.89463946,0,0,0.89463946,3.3715372,2.8735537)" />
</svg>
