<?xml version="1.0" encoding="UTF-8" standalone="no"?>
<svg
   width="64"
   height="64"
   x="0"
   y="0"
   version="1.1"
   xml:space="preserve"
   id="svg15"
   sodipodi:docname="thunderbird.svg"
   inkscape:version="1.4.3 (0d15f75042, 2025-12-25)"
   xmlns:inkscape="http://www.inkscape.org/namespaces/inkscape"
   xmlns:sodipodi="http://sodipodi.sourceforge.net/DTD/sodipodi-0.dtd"
   xmlns:xlink="http://www.w3.org/1999/xlink"
   xmlns="http://www.w3.org/2000/svg"
   xmlns:svg="http://www.w3.org/2000/svg"><defs
   id="defs15"><filter
     inkscape:collect="always"
     style="color-interpolation-filters:sRGB"
     id="filter24"
     x="-0.11357772"
     y="-0.16014142"
     width="1.2225398"
     height="1.317531"><feGaussianBlur
       inkscape:collect="always"
       stdDeviation="2.1235414"
       id="feGaussianBlur24" /></filter><radialGradient
     inkscape:collect="always"
     xlink:href="#linearGradient10"
     id="radialGradient11"
     cx="28.254826"
     cy="55.917095"
     fx="28.254826"
     fy="55.917095"
     r="25.999146"
     gradientTransform="matrix(-2.2042312,-3.8178405,2.6431204,-1.5260063,-14.316789,285.10896)"
     gradientUnits="userSpaceOnUse" /><linearGradient
     id="linearGradient10"
     inkscape:collect="always"><stop
       style="stop-color:#00acff;stop-opacity:1;"
       offset="0"
       id="stop10" /><stop
       style="stop-color:#bf4dff;stop-opacity:1;"
       offset="1"
       id="stop11" /></linearGradient><filter
     inkscape:collect="always"
     style="color-interpolation-filters:sRGB"
     id="filter23"
     x="-0.10896203"
     y="-0.16014142"
     width="1.2225397"
     height="1.317531"><feGaussianBlur
       inkscape:collect="always"
       stdDeviation="2.1235414"
       id="feGaussianBlur23" /></filter><radialGradient
     inkscape:collect="always"
     xlink:href="#linearGradient2"
     id="radialGradient13"
     cx="40.687477"
     cy="56.745132"
     fx="40.687477"
     fy="56.745132"
     r="25.999146"
     gradientTransform="matrix(-4.5014038,-1.2061475,0.83502519,-3.1163567,145.49864,229.80772)"
     gradientUnits="userSpaceOnUse" /><linearGradient
     id="linearGradient2"
     inkscape:collect="always"><stop
       style="stop-color:#00adff;stop-opacity:1;"
       offset="0"
       id="stop1" /><stop
       style="stop-color:#ad00ff;stop-opacity:1;"
       offset="1"
       id="stop2" /></linearGradient><filter
     inkscape:collect="always"
     style="color-interpolation-filters:sRGB"
     id="filter1"
     x="-0.13869057"
     y="-0.16951237"
     width="1.2773811"
     height="1.3390247"><feGaussianBlur
       inkscape:collect="always"
       stdDeviation="2.3068038"
       id="feGaussianBlur1" /></filter><filter
     inkscape:collect="always"
     style="color-interpolation-filters:sRGB"
     id="filter22"
     x="-0.128772"
     y="-0.1573888"
     width="1.257544"
     height="1.3147776"><feGaussianBlur
       inkscape:collect="always"
       stdDeviation="2.1235414"
       id="feGaussianBlur22" /></filter><filter
     inkscape:collect="always"
     style="color-interpolation-filters:sRGB"
     id="filter21"
     x="-0.10117897"
     y="-0.11294886"
     width="1.2023579"
     height="1.2253762"><feGaussianBlur
       inkscape:collect="always"
       stdDeviation="2.1235414"
       id="feGaussianBlur21" /></filter><radialGradient
     inkscape:collect="always"
     xlink:href="#linearGradient13"
     id="radialGradient15"
     cx="22.769993"
     cy="63.621971"
     fx="22.769993"
     fy="63.621971"
     r="27.999096"
     gradientTransform="matrix(2.0797874,-2.0797874,1.8717037,1.8717037,-130.63,5.0912673)"
     gradientUnits="userSpaceOnUse" /><linearGradient
     id="linearGradient13"
     inkscape:collect="always"><stop
       style="stop-color:#b400e5;stop-opacity:1;"
       offset="0"
       id="stop14" /><stop
       style="stop-color:#00c7e9;stop-opacity:1;"
       offset="1"
       id="stop15-3" /></linearGradient></defs><sodipodi:namedview
   id="namedview15"
   pagecolor="#ffffff"
   bordercolor="#000000"
   borderopacity="0.25"
   inkscape:showpageshadow="2"
   inkscape:pageopacity="0.0"
   inkscape:pagecheckerboard="0"
   inkscape:deskcolor="#d1d1d1"
   inkscape:zoom="7.2909447"
   inkscape:cx="39.912523"
   inkscape:cy="52.393759"
   inkscape:current-layer="svg15" />
 
 
 
 
 
 
 
 
 
 
 
 
 
 
 
 
<g
   id="g1"><path
     style="fill:url(#radialGradient15);stroke-width:0.917163"
     d="m 7.488811,23.545579 c -0.05274,0.0343 -0.100536,0.07484 -0.150483,0.112807 l -0.03008,0.02256 v 0.0037 C 6.71046,24.154035 6.320165,24.876021 6.320165,25.698487 l 2.8e-5,22.376207 c 3e-6,3.66854 2.892821,3.66854 3.668533,3.66854 h 44.022386 c 0,0 3.668532,0 3.668532,-3.66854 l -3.7e-5,-22.376207 c 0,-0.84103 -0.406987,-1.578496 -1.028179,-2.046307 L 56.662438,23.63751 32.000727,5.522264 c 0,0 -24.661708,18.138323 -24.511299,18.025516 z"
     id="path2-6" /><path
     style="fill:none;stroke:#000000;stroke-width:0.2;stroke-dasharray:none;stroke-opacity:1;filter:url(#filter21)"
     d="m 7.488811,23.439518 c -0.05274,0.0343 -0.100536,0.07484 -0.150483,0.112807 l -0.03008,0.02256 v 0.0037 C 6.710461,24.047974 6.320165,24.76996 6.320165,25.592426 l 2.8e-5,22.376208 c 4e-6,3.66854 2.892822,3.66854 3.668533,3.66854 h 44.022386 c 0,0 3.668532,0 3.668532,-3.66854 l -3.7e-5,-22.376208 c 0,-0.84103 -0.406987,-1.578496 -1.028179,-2.046307 l 0.01101,-0.01467 L 32.000727,5.416204 c 0,0 -24.661708,18.138322 -24.511299,18.025515 z"
     id="path2-6-3" /><rect
     style="fill:none;stroke:#000000;stroke-width:0.2;stroke-dasharray:none;stroke-opacity:1;filter:url(#filter22)"
     width="40.354263"
     height="33.016956"
     x="11.82314"
     y="10.916091"
     rx="2.7514896"
     ry="2.7496552"
     id="rect3-5-6" /><path
     d="m 14.607422,10.953125 c -1.521516,0 -2.748047,1.225592 -2.748047,2.746094 v 27.466797 c 0,1.520506 1.226531,2.74414 2.748047,2.74414 h 34.785156 c 1.521516,0 2.746094,-1.223634 2.746094,-2.74414 V 13.699219 c 0,-1.520502 -1.224578,-2.746094 -2.746094,-2.746094 z m 21.503906,4.380859 c 1.853857,0 3.655777,0.739701 4.796875,1.712891 -0.681918,0.03427 -1.501511,0.342874 -2.056641,0.685547 1.028018,0.116508 1.814421,0.345425 2.400391,1.027344 -0.442047,-0.07882 -0.917292,-0.07882 -1.373047,0 0.524868,0.795451 0.934998,1.772452 1.22461,2.794921 -0.0022,-0.0079 -0.006,-0.02898 -0.0078,-0.03516 0.01235,0.03917 0.02497,0.07865 0.03711,0.119141 0.131801,0.439513 0.242106,0.967098 0.326172,1.542969 0.07923,0.528479 0.124025,1.051708 0.132813,1.550781 0.0012,0.06587 0.0021,0.130305 0.002,0.195312 0,5.534159 -4.112944,9.595703 -9.595703,9.595703 -5.482758,0 -9.59375,-4.112944 -9.59375,-9.595703 0,-0.579116 0.07117,-1.363364 0.11914,-1.71289 0.01371,-0.106228 0.163789,-1.023216 0.273438,-1.300782 0.06511,-0.185043 0.132048,-0.325997 0.238281,-0.394531 0.01392,-0.01186 0.03316,-0.01758 0.05469,-0.01758 0.102799,0 0.187942,0.182462 0.205078,0.244141 0.140496,0.548276 0.244024,1.298492 0.480469,1.8125 0,-1.257608 0.46515,-2.413224 1.109375,-3.314453 0.42834,-0.603103 1.236832,-1.095992 1.421875,-2.703125 0,0 0.02394,-0.152344 0.208984,-0.152344 1.322222,0.450467 1.369885,3.113759 1.371094,5.140625 -0.08644,0.133715 -0.16134,0.279838 -0.232422,0.427734 -0.03222,0.06704 -0.0609,0.135721 -0.08984,0.205078 -0.04287,0.102792 -0.08172,0.207605 -0.117187,0.314453 -0.02518,0.0759 -0.05093,0.151096 -0.07227,0.228516 -0.03299,0.119698 -0.05851,0.241281 -0.08203,0.363281 -0.01192,0.06189 -0.02766,0.123374 -0.03711,0.185547 -0.02857,0.18859 -0.04801,0.379166 -0.05273,0.566406 -9.41e-4,0.03624 -0.002,0.07136 -0.002,0.107422 0,0.264988 0.01523,0.521367 0.04492,0.767578 0.05212,0.431874 0.156377,0.830338 0.292968,1.205079 0.01907,0.05231 0.03212,0.108956 0.05273,0.160156 0.04066,0.100911 0.09408,0.194383 0.140625,0.291015 0.04962,0.103002 0.09236,0.210424 0.148437,0.308594 l 0.002,0.002 c 0.108656,0.189958 0.229688,0.371011 0.361329,0.542969 0.115573,0.150806 0.244849,0.294577 0.376953,0.431641 0.01859,0.01928 0.03384,0.04154 0.05273,0.06055 l 0.0039,0.002 c 0.01843,0.01852 0.03988,0.03448 0.05859,0.05273 0.136895,0.133526 0.277587,0.262962 0.429688,0.382813 l 0.002,0.002 h 0.002 c 1.387053,1.091267 3.382502,1.617187 5.572265,1.617187 -0.257004,-0.03084 -1.827311,-0.0895 -2.910156,-1.371094 -0.09937,-0.116508 -0.173828,-0.215007 -0.173828,-0.341796 0,-0.202176 0.187595,-0.34375 0.341797,-0.34375 2.398647,0 4.798708,-1.713566 4.798828,-3.769532 0,-0.112778 -0.01586,-0.223963 -0.02344,-0.335937 -0.0071,-0.104347 -0.0077,-0.209387 -0.02148,-0.3125 v -0.002 -0.002 c -0.05633,-0.417448 -0.167449,-0.823054 -0.33789,-1.199219 -6.59e-4,-0.0014 -0.0014,-0.0026 -0.002,-0.0039 -0.04262,-0.09379 -0.08869,-0.185492 -0.138671,-0.275391 v -0.002 c -0.0503,-0.09039 -0.104264,-0.179703 -0.16211,-0.265625 -0.104087,-0.154631 -0.21902,-0.302576 -0.34375,-0.44336 -0.249458,-0.281569 -0.539904,-0.533215 -0.861328,-0.75 C 34.586779,21.119153 34.232765,20.938298 33.853516,20.798828 33.284641,20.589625 32.659216,20.474609 32,20.474609 c -0.162429,0 -0.323086,0.0069 -0.480469,0.01953 -0.631996,0.0511 -1.221069,0.201447 -1.748047,0.439453 -0.131703,0.05938 -0.259138,0.123397 -0.382812,0.193359 l -0.002,0.002 c -0.122832,0.06958 -0.241153,0.143061 -0.355469,0.222656 l -0.0039,0.002 c -0.114241,0.07965 -0.224933,0.164677 -0.330078,0.253906 l -0.002,0.002 c 2.08e-4,-0.0051 0,-0.0078 0,-0.0078 -0.106239,-0.280991 -0.123046,-0.442484 -0.123046,-0.785156 0,-0.685345 0.527244,-1.881002 1.71289,-2.398437 0.527715,-1.95666 3.259555,-3.083985 5.826172,-3.083985 z m -3.208984,2.398438 c -0.02058,-7.24e-4 -0.04251,8.75e-4 -0.06445,0.002 -0.08102,0.004 -0.169944,0.02067 -0.269532,0.05664 -0.496878,0.181615 -0.572265,0.568359 -0.572265,0.568359 0,0 0.26895,0.565973 0.878906,0.353516 h 0.0039 c 0.534573,-0.185043 0.486328,-0.767579 0.486328,-0.767579 0,0 -0.154258,-0.202031 -0.46289,-0.21289 z"
     style="fill:#ebebeb;stroke-width:0.915474"
     id="path13" /><path
     id="rect3-7"
     style="fill:none;stroke:#000000;stroke-width:0.1;stroke-dasharray:none;stroke-opacity:1;filter:url(#filter1)"
     d="m 14.60672,10.953917 c -1.521516,0 -2.746423,1.224133 -2.746423,2.744635 v 27.467806 c 0,1.520506 1.224907,2.742846 2.746423,2.742846 h 34.786237 c 1.521516,0 2.746423,-1.22234 2.746423,-2.742846 V 13.698552 c 0,-1.520502 -1.224907,-2.744635 -2.746423,-2.744635 z m 17.394012,5.492846 v 0.0018 a 9.1544425,9.1544425 0 0 1 9.152956,9.154743 v 2.746423 c 0,1.521466 -1.224957,2.746423 -2.746423,2.746423 -1.122334,0 -2.078442,-0.671261 -2.505038,-1.632476 a 5.4926655,5.4926655 0 0 1 -3.901495,1.630645 5.4926655,5.4926655 0 0 1 -5.492846,-5.492846 5.4926655,5.4926655 0 0 1 5.492846,-5.492846 5.4926655,5.4926655 0 0 1 5.492846,5.492846 v 2.746423 c 0,0.507156 0.408319,0.915475 0.915475,0.915475 0.507155,0 0.915474,-0.408319 0.915474,-0.915475 v -2.746423 a 7.323554,7.323554 0 0 0 -7.323795,-7.323794 7.323554,7.323554 0 0 0 -7.323794,7.323794 7.323554,7.323554 0 0 0 7.323794,7.323795 h 6.408321 c 0.507155,0 0.915474,0.408319 0.915474,0.915474 0,0.507155 -0.408319,0.915475 -0.915474,0.915475 h -6.408321 a 9.1544425,9.1544425 0 0 1 -9.154743,-9.154744 9.1544425,9.1544425 0 0 1 9.154743,-9.154743 z m 0,5.492846 a 3.661777,3.661777 0 0 0 -3.661897,3.661897 3.661777,3.661777 0 0 0 3.661897,3.661898 3.661777,3.661777 0 0 0 3.661898,-3.661898 3.661777,3.661777 0 0 0 -3.661898,-3.661897 z" /><path
     style="fill:url(#radialGradient13);stroke-width:0.917163"
     d="m 6.320383,25.697173 47.69092,33.016791 H 9.988916 c -1.834266,-2e-5 -3.668533,-0.90705 -3.668533,-3.62818 z"
     id="path4-3" /><path
     style="fill:none;stroke:#000000;stroke-width:0.2;stroke-dasharray:none;stroke-opacity:1;filter:url(#filter23)"
     d="M 6.320384,25.591112 54.011303,58.607904 H 9.988916 c -1.834266,-2e-5 -3.668532,-0.90705 -3.668532,-3.62818 z"
     id="path4-3-0" /><path
     style="fill:url(#radialGradient11);stroke-width:0.917163"
     d="m 54.011303,58.713964 c 3.668531,0 3.668531,-3.62818 3.668531,-3.62818 V 25.697173 L 9.988916,58.713964 Z"
     id="path5-5-3" /><path
     style="fill:none;stroke:#000000;stroke-width:0.2;stroke-dasharray:none;stroke-opacity:1;filter:url(#filter24)"
     d="m 54.011303,58.607904 c 3.668531,0 3.668531,-3.62818 3.668531,-3.62818 V 25.591112 L 9.988916,58.607904 Z"
     id="path5-5-6" /></g></svg>
