<?xml version="1.0" encoding="UTF-8" standalone="no"?>
<svg
   width="64"
   height="64"
   version="1"
   id="svg11"
   sodipodi:docname="vmware-netcfg.svg"
   inkscape:version="1.4.2 (ebf0e940d0, 2025-05-08)"
   xmlns:inkscape="http://www.inkscape.org/namespaces/inkscape"
   xmlns:sodipodi="http://sodipodi.sourceforge.net/DTD/sodipodi-0.dtd"
   xmlns:xlink="http://www.w3.org/1999/xlink"
   xmlns="http://www.w3.org/2000/svg"
   xmlns:svg="http://www.w3.org/2000/svg">
  <defs
     id="defs11">
    <radialGradient
       id="SVGID_1_-3-2"
       cx="-159.43106"
       cy="15.462561"
       r="64.706802"
       gradientTransform="matrix(-0.52567171,0,0,0.56618769,-31.097083,38.399978)"
       gradientUnits="userSpaceOnUse"
       fx="-159.43106"
       fy="15.462561">
      <stop
         offset="0"
         style="stop-color:#006fff;stop-opacity:1;"
         id="stop1-6-9" />
      <stop
         offset="1"
         style="stop-color:#15baff;stop-opacity:1;"
         id="stop2-7-1" />
    </radialGradient>
    <radialGradient
       id="SVGID_1_-3-2-6"
       cx="-159.43106"
       cy="15.462561"
       r="64.706802"
       gradientTransform="matrix(-0.52567171,0,0,0.56618769,-38.175103,45.47005)"
       gradientUnits="userSpaceOnUse"
       fx="-159.43106"
       fy="15.462561">
      <stop
         offset="0"
         style="stop-color:#ff8b4a;stop-opacity:1;"
         id="stop1-6-9-0" />
      <stop
         offset="1"
         style="stop-color:#ff9515;stop-opacity:1;"
         id="stop2-7-1-6" />
    </radialGradient>
    <radialGradient
       id="SVGID_1_-3-2-1"
       cx="-159.43106"
       cy="15.462561"
       r="64.706802"
       gradientTransform="matrix(-0.52567171,0,0,0.56618769,-31.097082,38.399978)"
       gradientUnits="userSpaceOnUse"
       fx="-159.43106"
       fy="15.462561">
      <stop
         offset="0"
         style="stop-color:#006fff;stop-opacity:1;"
         id="stop1-6-9-8" />
      <stop
         offset="1"
         style="stop-color:#15baff;stop-opacity:1;"
         id="stop2-7-1-79" />
    </radialGradient>
    <radialGradient
       id="radialGradient2"
       cx="-159.43106"
       cy="15.462561"
       r="64.706802"
       gradientTransform="matrix(-0.52567171,0,0,0.56618769,-38.175103,45.47005)"
       gradientUnits="userSpaceOnUse"
       fx="-159.43106"
       fy="15.462561">
      <stop
         offset="0"
         style="stop-color:#ff8b4a;stop-opacity:1;"
         id="stop1" />
      <stop
         offset="1"
         style="stop-color:#ff9515;stop-opacity:1;"
         id="stop2" />
    </radialGradient>
    <radialGradient
       inkscape:collect="always"
       xlink:href="#linearGradient6"
       id="radialGradient12"
       cx="7.9728637"
       cy="50.236794"
       fx="7.9728637"
       fy="50.236794"
       r="28"
       gradientTransform="matrix(3.0062894,1.3256936,-1.0446712,2.3690117,36.485055,-82.949589)"
       gradientUnits="userSpaceOnUse" />
    <linearGradient
       id="linearGradient6"
       inkscape:collect="always">
      <stop
         style="stop-color:#4c4c4c;stop-opacity:1;"
         offset="0"
         id="stop6" />
      <stop
         style="stop-color:#727272;stop-opacity:1;"
         offset="1"
         id="stop7" />
    </linearGradient>
    <inkscape:path-effect
       effect="fillet_chamfer"
       id="path-effect2"
       is_visible="true"
       lpeversion="1"
       nodesatellites_param="F,0,0,1,0,2.8119908,0,1 @ F,0,0,1,0,2.8119908,0,1 @ F,0,1,1,0,10.976441,0,1 @ F,0,1,1,0,10.976441,0,1 @ F,0,0,1,0,10.976441,0,1 @ F,0,1,1,0,10.976441,0,1 @ F,0,0,1,0,2.8119908,0,1 @ F,0,0,1,0,2.8119908,0,1"
       radius="0"
       unit="px"
       method="auto"
       mode="F"
       chamfer_steps="1"
       flexible="false"
       use_knot_distance="true"
       apply_no_radius="true"
       apply_with_radius="true"
       only_selected="false"
       hide_knots="false" />
    <filter
       inkscape:collect="always"
       style="color-interpolation-filters:sRGB"
       id="filter2"
       x="-0.11705515"
       y="-0.14631894"
       width="1.2341103"
       height="1.2926379">
      <feGaussianBlur
         inkscape:collect="always"
         stdDeviation="1.9509191"
         id="feGaussianBlur2" />
    </filter>
    <inkscape:path-effect
       effect="fillet_chamfer"
       id="path-effect1-3"
       is_visible="true"
       lpeversion="1"
       nodesatellites_param="F,0,1,1,0,2.8267781,0,1 @ F,0,1,1,0,2.8267781,0,1 @ F,0,1,1,0,2.8267781,0,1 @ F,0,1,1,0,2.8267781,0,1 @ F,0,1,1,0,2.8267781,0,1 @ F,0,1,1,0,2.8267781,0,1 @ F,0,0,1,0,2.8267781,0,1 @ F,0,1,1,0,2.8267781,0,1"
       radius="0"
       unit="px"
       method="auto"
       mode="F"
       chamfer_steps="1"
       flexible="false"
       use_knot_distance="true"
       apply_no_radius="true"
       apply_with_radius="true"
       only_selected="false"
       hide_knots="false" />
    <inkscape:path-effect
       effect="fillet_chamfer"
       id="path-effect1"
       is_visible="true"
       lpeversion="1"
       nodesatellites_param="F,0,1,1,0,2.8267781,0,1 @ F,0,1,1,0,2.8267781,0,1 @ F,0,1,1,0,2.8267781,0,1 @ F,0,1,1,0,2.8267781,0,1 @ F,0,1,1,0,2.8267781,0,1 @ F,0,1,1,0,2.8267781,0,1 @ F,0,0,1,0,2.8267781,0,1 @ F,0,1,1,0,2.8267781,0,1"
       radius="0"
       unit="px"
       method="auto"
       mode="F"
       chamfer_steps="1"
       flexible="false"
       use_knot_distance="true"
       apply_no_radius="true"
       apply_with_radius="true"
       only_selected="false"
       hide_knots="false" />
    <radialGradient
       inkscape:collect="always"
       xlink:href="#linearGradient12"
       id="radialGradient14"
       gradientUnits="userSpaceOnUse"
       gradientTransform="matrix(2.6138886,0,5.5082764e-8,2.9437339,-25.980658,-55.355402)"
       cx="16.098173"
       cy="14.255119"
       fx="16.098173"
       fy="14.255119"
       r="14" />
    <linearGradient
       id="linearGradient12"
       inkscape:collect="always">
      <stop
         style="stop-color:#f8c44e;stop-opacity:1;"
         offset="0"
         id="stop12" />
      <stop
         style="stop-color:#f8a44e;stop-opacity:1;"
         offset="1"
         id="stop13-3" />
    </linearGradient>
    <inkscape:path-effect
       effect="fillet_chamfer"
       id="path-effect5"
       is_visible="true"
       lpeversion="1"
       nodesatellites_param="F,0,1,1,0,2.0354679,0,1 @ F,0,1,1,0,2.0354679,0,1 @ F,0,1,1,0,2.0354679,0,1 @ F,0,1,1,0,2.0354679,0,1 | F,0,1,1,0,2.0354679,0,1 @ F,0,1,1,0,2.0354679,0,1 @ F,0,1,1,0,2.0354679,0,1 @ F,0,1,1,0,2.0354679,0,1 | F,0,1,1,0,2.0354679,0,1 @ F,0,1,1,0,2.0354679,0,1 @ F,0,1,1,0,2.0354679,0,1 @ F,0,1,1,0,2.0354679,0,1 | F,0,1,1,0,2.0354679,0,1 @ F,0,1,1,0,2.0354679,0,1 @ F,0,1,1,0,2.0354679,0,1 @ F,0,1,1,0,2.0354679,0,1 | F,0,1,1,0,2.0354679,0,1 @ F,0,1,1,0,2.0354679,0,1 @ F,0,1,1,0,2.0354679,0,1 @ F,0,0,1,0,2.0354679,0,1"
       radius="0"
       unit="px"
       method="auto"
       mode="F"
       chamfer_steps="1"
       flexible="false"
       use_knot_distance="true"
       apply_no_radius="true"
       apply_with_radius="true"
       only_selected="false"
       hide_knots="false" />
    <inkscape:path-effect
       effect="fillet_chamfer"
       id="path-effect4-2"
       is_visible="true"
       lpeversion="1"
       nodesatellites_param="F,0,0,1,0,0,0,1 @ F,0,0,1,0,0,0,1 @ F,0,0,1,0,0,0,1 @ F,0,0,1,0,0,0,1 @ F,0,0,1,0,0,0,1 @ F,0,0,1,0,0,0,1 @ F,0,0,1,0,0,0,1 @ F,0,0,1,0,1.2980027,0,1 @ F,0,0,1,0,0.77088566,0,1 @ F,0,0,1,0,0.77088566,0,1 @ F,0,1,1,0,1.2980027,0,1 @ F,0,0,1,0,0,0,1 @ F,0,0,1,0,0,0,1 @ F,0,0,1,0,0,0,1 @ F,0,0,1,0,0,0,1 @ F,0,0,1,0,0,0,1 | F,0,0,1,0,0,0,1 @ F,0,0,1,0,0,0,1 @ F,0,0,1,0,0,0,1 @ F,0,0,1,0,0,0,1 @ F,0,0,1,0,0,0,1 @ F,0,1,1,0,1.2980027,0,1 @ F,0,0,1,0,0.77088566,0,1 @ F,0,0,1,0,0.77088566,0,1 @ F,0,1,1,0,1.2980027,0,1 @ F,0,0,1,0,0,0,1 @ F,0,0,1,0,0,0,1 @ F,0,0,1,0,0,0,1 @ F,0,0,1,0,0,0,1 @ F,0,0,1,0,0,0,1 @ F,0,0,1,0,0,0,1 @ F,0,0,1,0,0,0,1 | F,0,1,1,0,1.2980027,0,1 @ F,0,0,1,0,0,0,1 @ F,0,0,1,0,0,0,1 @ F,0,1,1,0,1.2980027,0,1 @ F,0,0,1,0,0.77088566,0,1 @ F,0,0,1,0,0.77088566,0,1 | F,0,0,1,0,0.77088566,0,1 @ F,0,0,1,0,0.77088566,0,1 @ F,0,1,1,0,1.2980027,0,1 @ F,0,0,1,0,0,0,1 @ F,0,0,1,0,0,0,1 @ F,0,0,1,0,0,0,1 @ F,0,0,1,0,0,0,1 @ F,0,0,1,0,0,0,1 @ F,0,0,1,0,0,0,1 @ F,0,0,1,0,0,0,1 @ F,0,0,1,0,0,0,1 @ F,0,0,1,0,0,0,1 @ F,0,0,1,0,0,0,1 @ F,0,0,1,0,0,0,1 @ F,0,0,1,0,0,0,1 @ F,0,1,1,0,1.2980027,0,1"
       radius="0"
       unit="px"
       method="auto"
       mode="F"
       chamfer_steps="1"
       flexible="false"
       use_knot_distance="true"
       apply_no_radius="true"
       apply_with_radius="true"
       only_selected="false"
       hide_knots="false" />
    <inkscape:path-effect
       effect="fillet_chamfer"
       id="path-effect4"
       is_visible="true"
       lpeversion="1"
       nodesatellites_param="F,0,0,1,0,0,0,1 @ F,0,0,1,0,0,0,1 @ F,0,0,1,0,0,0,1 @ F,0,0,1,0,0,0,1 @ F,0,0,1,0,0,0,1 @ F,0,0,1,0,0,0,1 @ F,0,0,1,0,0,0,1 @ F,0,0,1,0,1.2980027,0,1 @ F,0,0,1,0,0.77088566,0,1 @ F,0,0,1,0,0.77088566,0,1 @ F,0,1,1,0,1.2980027,0,1 @ F,0,0,1,0,0,0,1 @ F,0,0,1,0,0,0,1 @ F,0,0,1,0,0,0,1 @ F,0,0,1,0,0,0,1 @ F,0,0,1,0,0,0,1 | F,0,0,1,0,0,0,1 @ F,0,0,1,0,0,0,1 @ F,0,0,1,0,0,0,1 @ F,0,0,1,0,0,0,1 @ F,0,0,1,0,0,0,1 @ F,0,1,1,0,1.2980027,0,1 @ F,0,0,1,0,0.77088566,0,1 @ F,0,0,1,0,0.77088566,0,1 @ F,0,1,1,0,1.2980027,0,1 @ F,0,0,1,0,0,0,1 @ F,0,0,1,0,0,0,1 @ F,0,0,1,0,0,0,1 @ F,0,0,1,0,0,0,1 @ F,0,0,1,0,0,0,1 @ F,0,0,1,0,0,0,1 @ F,0,0,1,0,0,0,1 | F,0,1,1,0,1.2980027,0,1 @ F,0,0,1,0,0,0,1 @ F,0,0,1,0,0,0,1 @ F,0,1,1,0,1.2980027,0,1 @ F,0,0,1,0,0.77088566,0,1 @ F,0,0,1,0,0.77088566,0,1 | F,0,0,1,0,0.77088566,0,1 @ F,0,0,1,0,0.77088566,0,1 @ F,0,1,1,0,1.2980027,0,1 @ F,0,0,1,0,0,0,1 @ F,0,0,1,0,0,0,1 @ F,0,0,1,0,0,0,1 @ F,0,0,1,0,0,0,1 @ F,0,0,1,0,0,0,1 @ F,0,0,1,0,0,0,1 @ F,0,0,1,0,0,0,1 @ F,0,0,1,0,0,0,1 @ F,0,0,1,0,0,0,1 @ F,0,0,1,0,0,0,1 @ F,0,0,1,0,0,0,1 @ F,0,0,1,0,0,0,1 @ F,0,1,1,0,1.2980027,0,1"
       radius="0"
       unit="px"
       method="auto"
       mode="F"
       chamfer_steps="1"
       flexible="false"
       use_knot_distance="true"
       apply_no_radius="true"
       apply_with_radius="true"
       only_selected="false"
       hide_knots="false" />
  </defs>
  <sodipodi:namedview
     id="namedview11"
     pagecolor="#ffffff"
     bordercolor="#000000"
     borderopacity="0.25"
     inkscape:showpageshadow="2"
     inkscape:pageopacity="0.0"
     inkscape:pagecheckerboard="0"
     inkscape:deskcolor="#d1d1d1"
     inkscape:zoom="15.907567"
     inkscape:cx="32.531688"
     inkscape:cy="33.128888"
     inkscape:current-layer="svg11" />
  <g
     id="g1"
     transform="translate(-12.019788,13)">
    <path
       style="fill:url(#radialGradient12)"
       d="m 18.01162,53.011622 -0.02324,-0.02324 A 6.7887463,6.7887463 22.5 0 0 13.188007,51 10.121802,10.121802 50.068433 0 1 3.999998,40.023559 V 17.976441 A 10.976441,10.976441 135 0 1 14.976439,7.0000004 H 49.023557 A 10.976441,10.976441 45 0 1 59.999998,17.976441 V 40.023559 A 10.976441,10.976441 135 0 1 49.023557,51 4.7154814,4.7154814 146.56857 0 0 46.01162,52.988378 l -0.02324,0.02324 A 6.7887463,6.7887463 157.5 0 1 41.188007,55 H 22.811989 A 6.7887463,6.7887463 22.5 0 1 18.01162,53.011622 Z"
       id="path2-4"
       inkscape:path-effect="#path-effect2"
       inkscape:original-d="m 19.999998,55 -4,-4 h -12 V 7.0000004 h 56 V 51 h -12 l -4,4 z"
       sodipodi:nodetypes="ccccccccc"
       transform="translate(12.039579,-12)" />
    <path
       style="opacity:0.45;filter:url(#filter2)"
       d="m 22.001164,45.001166 -0.0023,-0.0023 A 6.824446,6.824446 22.5 0 0 17.17322,43 H 14.826776 A 2.8267781,2.8267781 45 0 1 11.999998,40.173222 V 17.826778 A 2.8267781,2.8267781 135 0 1 14.826776,15 H 49.17322 a 2.8267781,2.8267781 45 0 1 2.826778,2.826778 V 40.173222 A 2.8267781,2.8267781 135 0 1 49.17322,43 h -2.346444 a 6.824446,6.824446 157.5 0 0 -4.825612,1.998834 l -0.0023,0.0023 A 6.824446,6.824446 157.5 0 1 37.17322,47 H 26.826776 a 6.824446,6.824446 22.5 0 1 -4.825612,-1.998834 z"
       id="path3-5"
       inkscape:path-effect="#path-effect1-3"
       inkscape:original-d="m 23.999998,47 -4,-4 h -8 V 15 h 40 v 28 h -8 l -4,4 z"
       transform="translate(12.039579,-12)" />
    <path
       style="opacity:0.45;fill:#080000;fill-opacity:1"
       d="m 22.001164,45.001166 -0.0023,-0.0023 A 6.824446,6.824446 22.5 0 0 17.17322,43 H 14.826776 A 2.8267781,2.8267781 45 0 1 11.999998,40.173222 V 17.826778 A 2.8267781,2.8267781 135 0 1 14.826776,15 H 49.17322 a 2.8267781,2.8267781 45 0 1 2.826778,2.826778 V 40.173222 A 2.8267781,2.8267781 135 0 1 49.17322,43 h -2.346444 a 6.824446,6.824446 157.5 0 0 -4.825612,1.998834 l -0.0023,0.0023 A 6.824446,6.824446 157.5 0 1 37.17322,47 H 26.826776 a 6.824446,6.824446 22.5 0 1 -4.825612,-1.998834 z"
       id="path3-4"
       inkscape:path-effect="#path-effect1"
       inkscape:original-d="m 23.999998,47 -4,-4 h -8 V 15 h 40 v 28 h -8 l -4,4 z"
       transform="translate(12.039579,-12)" />
    <path
       d="M 18,17.035468 A 2.0003145,2.0003145 43.984026 0 0 20.035468,19 2.0003145,2.0003145 133.98403 0 0 22,16.964532 2.0003145,2.0003145 43.984026 0 0 19.964532,15 2.0003145,2.0003145 133.98403 0 0 18,17.035468 Z m 6,0 A 2.0003145,2.0003145 43.984026 0 0 26.035468,19 2.0003145,2.0003145 133.98403 0 0 28,16.964532 2.0003145,2.0003145 43.984026 0 0 25.964532,15 2.0003145,2.0003145 133.98403 0 0 24,17.035468 Z m 6,0 A 2.0003145,2.0003145 43.984026 0 0 32.035468,19 2.0003145,2.0003145 133.98403 0 0 34,16.964532 2.0003145,2.0003145 43.984026 0 0 31.964532,15 2.0003145,2.0003145 133.98403 0 0 30,17.035468 Z m 6,0 A 2.0003145,2.0003145 43.984026 0 0 38.035468,19 2.0003145,2.0003145 133.98403 0 0 40,16.964532 2.0003145,2.0003145 43.984026 0 0 37.964532,15 2.0003145,2.0003145 133.98403 0 0 36,17.035468 Z m 6,0 A 2.0003145,2.0003145 43.984026 0 0 44.035468,19 2.0003145,2.0003145 133.98403 0 0 46,16.964532 2.0003145,2.0003145 43.984026 0 0 43.964532,15 2.0003145,2.0003145 133.98403 0 0 42,17.035468 Z"
       style="baseline-shift:baseline;display:inline;overflow:visible;vector-effect:none;fill:url(#radialGradient14);enable-background:accumulate;stop-color:#000000"
       id="path1"
       inkscape:path-effect="#path-effect5"
       inkscape:original-d="m 18,15 v 4 h 4 v -4 z m 6,0 v 4 h 4 v -4 z m 6,0 v 4 h 4 v -4 z m 6,0 v 4 h 4 v -4 z m 6,0 v 4 h 4 v -4 z"
       transform="translate(12.039579,-12)" />
  </g>
</svg>
