<?xml version="1.0" encoding="UTF-8" standalone="no"?>
<svg
   width="64"
   height="64"
   version="1.1"
   id="svg8"
   sodipodi:docname="alligator.svg"
   inkscape:version="1.4.3 (0d15f75042, 2025-12-25)"
   xmlns:inkscape="http://www.inkscape.org/namespaces/inkscape"
   xmlns:sodipodi="http://sodipodi.sourceforge.net/DTD/sodipodi-0.dtd"
   xmlns:xlink="http://www.w3.org/1999/xlink"
   xmlns="http://www.w3.org/2000/svg"
   xmlns:svg="http://www.w3.org/2000/svg">
  <defs
     id="defs8">
    <linearGradient
       id="linearGradient11"
       inkscape:collect="always">
      <stop
         style="stop-color:#e9b310;stop-opacity:1;"
         offset="0"
         id="stop11" />
      <stop
         style="stop-color:#e97c10;stop-opacity:1;"
         offset="1"
         id="stop12" />
    </linearGradient>
    <filter
       inkscape:collect="always"
       style="color-interpolation-filters:sRGB"
       id="filter11"
       x="-0.14414947"
       y="-0.14414947"
       width="1.2882989"
       height="1.2882989">
      <feGaussianBlur
         inkscape:collect="always"
         stdDeviation="2.9241575"
         id="feGaussianBlur11" />
    </filter>
    <radialGradient
       inkscape:collect="always"
       xlink:href="#linearGradient11"
       id="radialGradient12"
       cx="22.430855"
       cy="39.551361"
       fx="22.430855"
       fy="39.551361"
       r="24.689573"
       gradientUnits="userSpaceOnUse"
       gradientTransform="matrix(1.8917573,-0.50689485,0.50689481,1.8917572,-44.756866,-12.315595)" />
    <filter
       inkscape:collect="always"
       style="color-interpolation-filters:sRGB"
       id="filter10"
       x="-0.064157523"
       y="-0.06697047"
       width="1.1283052"
       height="1.1339409">
      <feGaussianBlur
         inkscape:collect="always"
         stdDeviation="1.1541472"
         id="feGaussianBlur10" />
    </filter>
  </defs>
  <sodipodi:namedview
     id="namedview8"
     pagecolor="#505050"
     bordercolor="#eeeeee"
     borderopacity="1"
     inkscape:showpageshadow="0"
     inkscape:pageopacity="0"
     inkscape:pagecheckerboard="0"
     inkscape:deskcolor="#505050"
     inkscape:zoom="12.959941"
     inkscape:cx="33.603548"
     inkscape:cy="30.517114"
     inkscape:current-layer="svg8" />
  <rect
     style="fill:url(#radialGradient12);stroke-width:0.88177"
     width="49.379147"
     height="49.379147"
     x="7.3104267"
     y="7.3104267"
     rx="15.839342"
     ry="15.839342"
     id="rect2" />
  <rect
     style="fill:none;stroke-width:0.2;stroke:#000000;stroke-opacity:1;stroke-dasharray:none;filter:url(#filter11)"
     width="49.379147"
     height="49.379147"
     x="7.3104267"
     y="7.3104267"
     rx="15.839342"
     ry="15.839342"
     id="rect2-5" />
  <g
     id="g1">
    <path
       id="rect2-6"
       style="fill:#4bae4f;stroke-width:0.88177;fill-opacity:1"
       d="M 24.513672 13.650391 C 23.584286 13.593961 22.718101 14.192466 22.466797 15.128906 L 22.085938 16.542969 C 21.660042 18.131038 23.204689 18.41836 22.783203 20.011719 L 20.970703 26.994141 C 19.877307 29.455162 18.286736 30.651506 15.966797 30.398438 C 12.978477 30.398438 10.675781 32.675561 10.675781 35.689453 C 10.675958 36.188535 10.743907 36.683498 10.878906 37.164062 C 11.207894 38.685997 10.835032 40.318948 9.7265625 41.550781 L 7.6171875 43.96875 C 8.9011213 50.448506 14.110168 55.480942 20.683594 56.5 L 22.339844 54.615234 C 27.19664 49.090942 40.503173 46.880444 49.898438 43.070312 C 51.465344 42.311108 52.724203 40.779413 52.248047 39 L 51.935547 37.830078 L 20.857422 46.158203 L 29.185547 14.861328 L 24.513672 13.650391 z " />
    <path
       style="fill:#e4e4e4;stroke-width:0.88177"
       d="m 26.885283,19.67506 -1.219488,4.550817 c 6.133595,0.22397 12.954972,3.053571 17.63541,7.054164 C 39.589833,25.793665 33.130864,21.357478 26.885283,19.67506 Z m 1.425823,10.723211 c 4.127568,2.836655 7.662586,7.828358 9.699476,12.344787 L 42.062317,41.65848 C 38.812111,36.993032 33.831871,32.309067 28.311106,30.398271 Z"
       id="path4" />
    <circle
       style="fill:#e4e4e4;stroke-width:0.88177"
       cx="15.966319"
       cy="35.688892"
       r="4.4088526"
       id="circle5" />
    <path
       style="fill:#79de7d;stroke-width:0.88177"
       d="M 28.01395,14.546683 17.260758,48.270877 h 0.0026 c -0.105813,0.394151 -0.0053,0.815638 0.267176,1.119848 0.305093,0.339482 0.775077,0.478802 1.21508,0.360645 v 0.0044 L 52.245885,38.99906 51.932856,37.828951 20.855737,46.157273 29.185823,14.861475 Z"
       id="path6" />
    <circle
       style="fill:#4f4f4f;stroke-width:0.88177"
       cx="16.848089"
       cy="34.807125"
       r="1.763541"
       id="circle6" />
    <path
       style="fill:#3c8b3f;stroke-width:0.88177"
       d="m 24.299051,14.526402 a 1.2786554,1.2127871 0 0 0 -1.278568,1.213316 1.2786554,1.2127871 0 0 0 0.952312,1.170109 1.2786554,1.2127871 0 0 1 -0.178117,-0.611066 1.2786554,1.2127871 0 0 1 1.279449,-1.212435 1.2786554,1.2127871 0 0 1 0.326255,0.04232 1.2786554,1.2127871 0 0 0 -1.101331,-0.602249 z"
       id="path7" />
  </g>
  <g
     id="g10"
     style="fill:none;stroke:#000000;stroke-width:0.2;stroke-linejoin:round;stroke-dasharray:none;stroke-opacity:1;filter:url(#filter10)"
     transform="translate(4.6174081,8.6468654)">
    <path
       d="M 19.722656,5 C 18.860784,5.022686 18.085207,5.6045094 17.849609,6.4824219 L 17.46875,7.8964844 c -0.425896,1.588069 1.118752,1.875391 0.697266,3.4687496 l -1.8125,6.982422 c -1.093396,2.461021 -2.683968,3.657365 -5.003907,3.404297 -2.9883196,0 -5.2910153,2.277124 -5.2910153,5.291016 1.771e-4,0.499082 0.06813,0.994045 0.203125,1.474609 0.3289881,1.521935 -0.04387,3.154886 -1.1523437,4.386719 L 3,35.322266 c 1.2839338,6.479756 6.4929802,11.512192 13.066406,12.53125 l 1.65625,-1.884766 c 4.856796,-5.524292 18.163329,-7.73479 27.558594,-11.544922 1.566906,-0.759204 2.825765,-2.290899 2.349609,-4.070312 l -0.3125,-1.169922 h -0.002 l 0.3125,1.167968 -33.5,10.757813 v -0.0039 c -0.440003,0.118157 -0.909751,-0.02185 -1.214843,-0.361328 -0.272476,-0.30421 -0.373392,-0.72499 -0.267579,-1.119141 h -0.002 L 23.392578,5.9101562 19.896484,5.0039062 C 19.838398,5.0003794 19.780114,4.9984876 19.722656,5 Z m -0.04102,0.8789062 A 1.2786554,1.2127871 0 0 1 20.783203,6.4824219 1.2786554,1.2127871 0 0 0 20.457031,6.4394531 1.2786554,1.2127871 0 0 0 19.177734,7.6523437 1.2786554,1.2127871 0 0 0 19.355469,8.2636719 1.2786554,1.2127871 0 0 1 18.402344,7.09375 1.2786554,1.2127871 0 0 1 19.681641,5.8789062 Z m 2.376953,9.7617188 -5.820313,21.869141 h 0.002 l 5.820313,-21.869141 z m -10.708985,6.992187 a 4.4088526,4.4088526 0 0 1 4.408204,4.410157 4.4088526,4.4088526 0 0 1 -4.408204,4.408203 4.4088526,4.4088526 0 0 1 -4.4101559,-4.408203 4.4088526,4.4088526 0 0 1 4.4101559,-4.410157 z"
       style="fill:none;stroke:#000000;stroke-width:0.2;stroke-linejoin:round;stroke-dasharray:none;stroke-opacity:1"
       id="path10" />
    <path
       d="m 23.212891,11.304688 -1.152344,4.335937 c 5.861554,0.476653 12.198265,3.210116 16.623047,6.992187 -3.524236,-5.209739 -9.526745,-9.471083 -15.470703,-11.328124 z m 0.480468,10.447265 c 3.80996,2.61838 7.115138,7.071068 9.203125,11.292969 l 3.832032,-1.025391 C 33.486317,27.695852 28.822331,23.527145 23.693359,21.751953 Z"
       style="fill:none;stroke:#000000;stroke-width:0.2;stroke-linejoin:round;stroke-dasharray:none;stroke-opacity:1"
       id="path9" />
    <path
       d="m 11.349609,22.632812 a 4.4088526,4.4088526 0 0 0 -4.4101559,4.410157 4.4088526,4.4088526 0 0 0 4.4101559,4.408203 4.4088526,4.4088526 0 0 0 4.408204,-4.408203 4.4088526,4.4088526 0 0 0 -4.408204,-4.410157 z m 0.88086,1.763672 a 1.763541,1.763541 0 0 1 1.763672,1.763672 1.763541,1.763541 0 0 1 -1.763672,1.763672 1.763541,1.763541 0 0 1 -1.763672,-1.763672 1.763541,1.763541 0 0 1 1.763672,-1.763672 z"
       style="fill:none;stroke:#000000;stroke-width:0.2;stroke-linejoin:round;stroke-dasharray:none;stroke-opacity:1"
       id="path8" />
    <path
       d="M 23.396484,5.9003906 12.644531,39.625 h 0.002 c -0.105813,0.394151 -0.0049,0.814931 0.267579,1.119141 0.305092,0.339482 0.77484,0.479485 1.214843,0.361328 v 0.0039 l 33.5,-10.757813 -0.3125,-1.169921 -31.078125,8.328125 8.330078,-31.2949223 z"
       style="fill:none;stroke:#000000;stroke-width:0.2;stroke-linejoin:round;stroke-dasharray:none;stroke-opacity:1"
       id="path5" />
    <path
       d="m 12.230469,24.396484 a 1.763541,1.763541 0 0 0 -1.763672,1.763672 1.763541,1.763541 0 0 0 1.763672,1.763672 1.763541,1.763541 0 0 0 1.763672,-1.763672 1.763541,1.763541 0 0 0 -1.763672,-1.763672 z"
       style="fill:none;stroke:#000000;stroke-width:0.2;stroke-linejoin:round;stroke-dasharray:none;stroke-opacity:1"
       id="path3" />
    <path
       d="M 19.681641,5.8789062 A 1.2786554,1.2127871 0 0 0 18.402344,7.09375 1.2786554,1.2127871 0 0 0 19.355469,8.2636719 1.2786554,1.2127871 0 0 1 19.177734,7.6523437 1.2786554,1.2127871 0 0 1 20.457031,6.4394531 1.2786554,1.2127871 0 0 1 20.783203,6.4824219 1.2786554,1.2127871 0 0 0 19.681641,5.8789062 Z"
       style="fill:none;stroke:#000000;stroke-width:0.2;stroke-linejoin:round;stroke-dasharray:none;stroke-opacity:1"
       id="path2" />
  </g>
</svg>
