<?xml version="1.0" encoding="UTF-8" standalone="no"?>
<svg
   width="64"
   height="64"
   version="1"
   id="svg6"
   sodipodi:docname="applications-development-web.svg"
   inkscape:version="1.4.2 (ebf0e940d0, 2025-05-08)"
   xmlns:inkscape="http://www.inkscape.org/namespaces/inkscape"
   xmlns:sodipodi="http://sodipodi.sourceforge.net/DTD/sodipodi-0.dtd"
   xmlns:xlink="http://www.w3.org/1999/xlink"
   xmlns="http://www.w3.org/2000/svg"
   xmlns:svg="http://www.w3.org/2000/svg">
  <defs
     id="defs6">
    <filter
       inkscape:collect="always"
       style="color-interpolation-filters:sRGB"
       id="filter1"
       x="-0.051500043"
       y="-0.051500043"
       width="1.1030001"
       height="1.1030001">
      <feGaussianBlur
         inkscape:collect="always"
         stdDeviation="0.81664319"
         id="feGaussianBlur1" />
    </filter>
    <filter
       inkscape:collect="always"
       style="color-interpolation-filters:sRGB"
       id="filter2"
       x="-0.069953985"
       y="-0.069953985"
       width="1.139908"
       height="1.139908">
      <feGaussianBlur
         inkscape:collect="always"
         stdDeviation="1.590593"
         id="feGaussianBlur2" />
    </filter>
    <radialGradient
       inkscape:collect="always"
       xlink:href="#linearGradient5"
       id="radialGradient6"
       cx="3.9041595"
       cy="42.012211"
       fx="3.9041595"
       fy="42.012211"
       r="28"
       gradientUnits="userSpaceOnUse"
       gradientTransform="matrix(2.1449973,1.2384147,-1.2384147,2.1449973,59.571544,-69.456807)" />
    <linearGradient
       id="linearGradient5"
       inkscape:collect="always">
      <stop
         style="stop-color:#02b3f3;stop-opacity:1;"
         offset="0"
         id="stop5" />
      <stop
         style="stop-color:#0270f3;stop-opacity:1;"
         offset="1"
         id="stop6" />
    </linearGradient>
    <radialGradient
       id="SVGID_2_-3-3"
       cx="21.0371"
       cy="56.209099"
       r="40.250599"
       gradientTransform="matrix(1,0,0,-1,0,66)"
       gradientUnits="userSpaceOnUse">
	<stop
   offset="0"
   style="stop-color:#FFFFFF"
   id="stop5-5-6" />

	<stop
   offset="1"
   style="stop-color:#C4C4C4"
   id="stop6-6-7" />

</radialGradient>
    <radialGradient
       inkscape:collect="always"
       xlink:href="#linearGradient7"
       id="radialGradient9"
       cx="28.406076"
       cy="35.043697"
       fx="28.406076"
       fy="35.043697"
       r="12"
       gradientUnits="userSpaceOnUse"
       gradientTransform="matrix(5.8151441,0,0,5.8151451,-154.08462,-154.08464)" />
    <linearGradient
       id="linearGradient7"
       inkscape:collect="always">
      <stop
         style="stop-color:#f0f0f0;stop-opacity:1;"
         offset="0"
         id="stop8" />
      <stop
         style="stop-color:#c4c4c4;stop-opacity:1;"
         offset="1"
         id="stop9" />
    </linearGradient>
    <radialGradient
       inkscape:collect="always"
       xlink:href="#linearGradient6"
       id="radialGradient7"
       cx="18.449625"
       cy="24.624121"
       fx="18.449625"
       fy="24.624121"
       r="11.999999"
       gradientTransform="matrix(5.9347518,5.9347518,-5.9347523,5.9347523,35.324156,-248.70917)"
       gradientUnits="userSpaceOnUse" />
    <linearGradient
       id="linearGradient6"
       inkscape:collect="always">
      <stop
         style="stop-color:#a4a4a4;stop-opacity:1;"
         offset="0"
         id="stop6-6" />
      <stop
         style="stop-color:#9a9a9a;stop-opacity:1;"
         offset="1"
         id="stop7" />
    </linearGradient>
    <filter
       inkscape:collect="always"
       style="color-interpolation-filters:sRGB"
       id="filter11"
       x="-0.079452983"
       y="-0.079436802"
       width="1.158888"
       height="1.1588879">
      <feGaussianBlur
         inkscape:collect="always"
         stdDeviation="1.8024501"
         id="feGaussianBlur11" />
    </filter>
  </defs>
  <sodipodi:namedview
     id="namedview6"
     pagecolor="#ffffff"
     bordercolor="#000000"
     borderopacity="0.25"
     inkscape:showpageshadow="2"
     inkscape:pageopacity="0.0"
     inkscape:pagecheckerboard="0"
     inkscape:deskcolor="#d1d1d1"
     inkscape:zoom="15.195017"
     inkscape:cx="28.29875"
     inkscape:cy="46.001922"
     inkscape:current-layer="svg6" />
  <rect
     style="fill:url(#radialGradient6)"
     width="56"
     height="56"
     x="4.0000005"
     y="4.0000005"
     rx="27.999001"
     ry="27.999001"
     id="rect1-3" />
  <rect
     style="fill:none;stroke:#000000;stroke-width:0.2;stroke-dasharray:none;stroke-opacity:1;filter:url(#filter2)"
     width="56"
     height="56"
     x="4.0000005"
     y="4.0000005"
     rx="27.999001"
     ry="27.999001"
     id="rect1-5" />
  <path
     style="fill:#ffffff"
     d="m 31.99921,12.00141 c -11.045402,0 -19.999436,8.954033 -19.999436,19.999436 0,11.045403 8.954034,19.999436 19.999436,19.999436 11.045403,0 19.999436,-8.954033 19.999436,-19.999436 0,-11.045403 -8.954033,-19.999436 -19.999436,-19.999436 z m -1.871041,3.988169 c 0.217606,-0.02278 0.491358,0.013 0.710918,0 0.02602,0.104077 -0.154156,0.477495 -0.402333,1.019501 -1.580387,3.452479 -1.673753,7.494845 -0.207026,9.655978 0.265424,0.391827 0.5078,0.764019 0.5078,0.812478 0,0.04848 -0.285708,0.101557 -0.609359,0.101557 -0.759779,2e-6 -1.480088,-0.461669 -2.949135,-1.624954 -0.652606,-0.516766 -1.499382,-0.949898 -1.828074,-1.015596 -0.516148,-0.103117 -0.65255,-0.05844 -1.320275,0.609359 -0.621253,0.62115 -0.812477,0.958653 -0.812477,1.527299 0,2.156385 2.561581,3.866181 7.320105,4.874862 6.462266,1.369638 8.051983,2.597833 8.230238,5.995925 0.2238,4.261114 -2.042602,7.473272 -7.011522,9.960657 -0.593075,0.296976 -0.969881,0.415747 -1.218716,0.511704 -0.110277,-0.0098 -0.198654,0.0098 -0.308585,0 -0.04228,-0.131736 -0.101557,-0.436476 -0.101557,-1.015595 0,-2.263207 -0.890111,-4.595543 -2.234311,-5.898272 -0.360824,-0.349736 -1.369144,-1.089387 -2.234313,-1.624954 -0.865138,-0.535535 -1.739025,-1.15641 -1.93354,-1.421834 -0.322273,-0.440456 -0.345322,-0.709716 -0.09766,-1.523395 0.451347,-1.486086 0.986796,-2.318743 2.031193,-3.25772 0.547536,-0.492268 1.097419,-0.900333 1.218715,-0.910133 0.121337,-0.0098 -0.69814,-0.259778 -1.929633,-0.511703 -1.231431,-0.252413 -3.037278,-0.780072 -3.968638,-1.117157 -1.703081,-0.616232 -4.00215,-1.9113 -4.878767,-2.847573 -0.03706,-0.0397 -0.06936,-0.06642 -0.101559,-0.101557 1.255988,-5.003071 4.780267,-9.10176 9.452858,-11.077812 0.977682,-0.413525 1.986784,-0.696427 3.050696,-0.914039 0.529939,-0.108317 1.077773,-0.151395 1.624954,-0.207026 z m 15.24957,7.624786 c 0.382039,0.236149 1.826446,3.360381 2.238219,4.882674 0.531623,1.965286 0.493144,5.363893 0,7.316199 -0.187695,0.74306 -0.431688,1.436878 -0.511706,1.523396 -0.08002,0.08652 -0.373471,-0.406777 -0.714824,-1.011692 -0.341374,-0.604821 -1.425778,-1.891427 -2.331964,-2.847576 -2.615676,-2.760066 -3.029199,-4.199393 -1.93354,-6.402163 0.552549,-1.110785 2.958139,-3.643313 3.253815,-3.460838 z"
     id="path4-6" />
  <path
     style="fill:none;stroke:#9800ff;stroke-width:0.2;stroke-dasharray:none;stroke-opacity:1;filter:url(#filter1)"
     d="m 31.99921,11.901354 c -11.045402,0 -19.999436,8.954033 -19.999436,19.999436 0,11.045402 8.954034,19.999436 19.999436,19.999436 11.045403,0 19.999436,-8.954034 19.999436,-19.999436 0,-11.045403 -8.954033,-19.999436 -19.999436,-19.999436 z m -1.871041,3.988169 c 0.217606,-0.02278 0.491358,0.013 0.710918,0 0.02602,0.104077 -0.154156,0.477494 -0.402333,1.019501 -1.580387,3.452479 -1.673753,7.494845 -0.207026,9.655978 0.265424,0.391827 0.5078,0.764019 0.5078,0.812477 0,0.04848 -0.285708,0.101557 -0.609359,0.101557 -0.759779,2e-6 -1.480088,-0.461669 -2.949135,-1.624954 -0.652606,-0.516765 -1.499382,-0.949897 -1.828074,-1.015595 -0.516148,-0.103117 -0.65255,-0.05844 -1.320275,0.609359 -0.621253,0.62115 -0.812477,0.958653 -0.812477,1.527299 0,2.156385 2.561581,3.86618 7.320105,4.874862 6.462266,1.369637 8.051983,2.597833 8.230238,5.995925 0.2238,4.261114 -2.042602,7.473271 -7.011522,9.960657 -0.593075,0.296976 -0.969881,0.415746 -1.218716,0.511704 -0.110277,-0.0098 -0.198654,0.0098 -0.308585,0 -0.04228,-0.131737 -0.101557,-0.436476 -0.101557,-1.015596 0,-2.263206 -0.890111,-4.595542 -2.234311,-5.898271 -0.360824,-0.349737 -1.369144,-1.089388 -2.234313,-1.624955 -0.865138,-0.535534 -1.739025,-1.156409 -1.93354,-1.421833 -0.322273,-0.440456 -0.345322,-0.709716 -0.09766,-1.523396 0.451347,-1.486086 0.986796,-2.318742 2.031193,-3.25772 0.547536,-0.492268 1.097419,-0.900332 1.218715,-0.910132 0.121337,-0.0098 -0.69814,-0.259779 -1.929633,-0.511704 -1.231431,-0.252412 -3.037278,-0.780072 -3.968638,-1.117156 -1.703081,-0.616233 -4.00215,-1.9113 -4.878767,-2.847574 -0.03706,-0.0397 -0.06936,-0.06642 -0.101559,-0.101557 1.255988,-5.003071 4.780267,-9.101759 9.452858,-11.077812 0.977682,-0.413524 1.986784,-0.696426 3.050696,-0.914038 0.529939,-0.108317 1.077773,-0.151396 1.624954,-0.207026 z m 15.24957,7.624785 c 0.382039,0.236149 1.826446,3.360381 2.238219,4.882674 0.531623,1.965287 0.493144,5.363893 0,7.3162 -0.187695,0.743059 -0.431688,1.436878 -0.511706,1.523395 -0.08002,0.08652 -0.373471,-0.406776 -0.714824,-1.011691 -0.341374,-0.604821 -1.425778,-1.891427 -2.331964,-2.847576 -2.615676,-2.760066 -3.029199,-4.199394 -1.93354,-6.402163 0.552549,-1.110785 2.958139,-3.643314 3.253815,-3.460839 z"
     id="path3-7" />
  <g
     id="g1"
     transform="matrix(0.37365176,0,0,0.37365176,40.027127,40.031964)">
    <path
       style="fill:url(#radialGradient9);stroke-width:2.29101"
       d="m 39.07506,4.5879357 c -2.900533,-0.384798 -6.000361,0.6283598 -8.108617,2.8103037 0.560225,1.1798425 3.988433,0.5941596 5.22457,2.23932 1.840877,1.5856906 5.00686,5.0613216 2.649113,7.4608106 C 29.6721,26.061203 18.60234,37.061454 9.4927722,46.09754 c -1.661509,2.098158 -4.5425912,3.491064 -4.984889,6.409668 0.5432534,2.908139 3.0850921,4.987616 5.103687,6.73846 0.9018288,0.485195 2.1341168,0.225802 2.8428588,-0.531065 12.081127,-12.912255 20.635972,-23.758889 31.689581,-36.147982 1.354349,-1.167833 3.676924,-1.048146 3.639356,1.398661 -1.528406,2.658744 2.33968,4.219389 3.564573,6.174038 1.406763,1.042895 2.377569,-0.987476 3.410402,-1.729823 1.520309,-2.018237 4.662736,-3.279071 4.733776,-6.13777 C 57.750661,20.533166 56.306995,16.268122 53.672645,17.370446 51.057943,16.163913 52.150686,11.758691 49.370317,10.252159 47.17607,8.437391 44.327671,8.0204685 42.317315,5.6955197 41.314696,5.1031013 40.210053,4.7385191 39.07506,4.5879357 Z"
       id="path3" />
    <path
       style="fill:url(#radialGradient7);stroke-width:2.29101"
       d="m 14.6455,4.5107607 c -0.918177,0.015579 -1.832835,0.088845 -2.71245,0.1753539 -4.1757268,0.2603962 -1.57604,3.3715232 0.972103,3.9919974 4.173588,1.1906102 4.150229,5.92983 1.670792,8.904884 -2.268956,3.852709 -5.6779327,0.192399 -8.3247362,-1.067967 -3.9459527,-0.65413 -0.1347114,4.828422 1.1194469,6.172296 1.879746,2.906636 5.0790033,4.300784 8.3687423,3.79936 4.130035,-0.591218 7.034596,2.9277 9.760746,5.580405 7.679918,7.159286 15.497558,14.992954 23.223375,22.847397 1.135759,0.972185 2.376052,2.08086 3.250429,3.324736 4.244307,3.986788 10.573537,-2.370842 5.832352,-7.463812 C 47.986565,41.732246 37.896005,31.320198 28.822622,22.46983 27.337612,21.015419 25.95101,19.477556 25.003027,17.584188 23.400324,14.264629 25.109422,9.8299125 22.138399,7.1721809 20.184727,4.944513 17.400055,4.4651834 14.6455,4.510747 Z"
       id="path5" />
    <path
       id="path10"
       style="color:#000000;fill:#000000;stroke:#000000;stroke-width:0.1;stroke-dasharray:none;stroke-opacity:1;filter:url(#filter11)"
       d="m 38.039062,4.4746094 c -2.578909,-0.034209 -5.195871,0.9865082 -7.050781,2.90625 l -0.02539,0.025391 0.01563,0.03125 c 0.149219,0.3142591 0.483205,0.5041703 0.908203,0.6425781 0.424996,0.138408 0.946139,0.2269727 1.486328,0.3300781 1.080378,0.2062108 2.232921,0.4708896 2.835937,1.2734376 l 0.002,0.00586 0.0039,0.00195 c 0.917491,0.7903058 2.166633,2.0547378 2.888672,3.4121098 0.361018,0.678685 0.589749,1.380135 0.583984,2.05664 -0.0058,0.676506 -0.242936,1.328349 -0.824219,1.919922 -2.402984,2.349203 -5.107059,5.027296 -7.703125,7.585938 C 30.418,23.935533 29.645813,23.162986 28.916061,22.45117 27.432514,20.998192 26.049601,19.465663 25.105514,17.580076 24.310935,15.93442 24.336246,14.0016 24.191406,12.142578 24.04671,10.285389 23.727975,8.4970641 22.232422,7.15625 L 22.228522,7.1543 C 20.261814,4.9144886 17.462653,4.4309166 14.703125,4.4765625 c -0.920285,0.015615 -1.838529,0.091165 -2.71875,0.1777344 l 0.002,-0.00195 C 10.935952,4.7178509 10.302704,4.9620933 9.984422,5.3164093 9.6661405,5.6707255 9.6813929,6.1310274 9.910203,6.5859406 c 0.457421,0.9094283 1.750687,1.8439421 3.039063,2.1582031 2.069935,0.5904958 3.089239,2.0512923 3.292969,3.7402343 0.20373,1.688942 -0.417031,3.60643 -1.648438,5.083984 l -0.002,0.002 -0.002,0.0039 c -0.562703,0.955474 -1.189936,1.438177 -1.855469,1.613281 -0.665533,0.175104 -1.375846,0.04135 -2.103516,-0.251953 C 9.1755222,18.348948 7.6629189,17.121006 6.3300781,16.486328 l -0.00586,-0.0039 h -0.00781 c -0.4981622,-0.08258 -0.8776697,-0.07036 -1.1601562,0.02344 -0.2824865,0.0938 -0.4665442,0.27187 -0.5605469,0.50586 -0.1880052,0.467978 -0.032843,1.14347 0.2773438,1.876953 0.6203723,1.466965 1.8845891,3.17134 2.5175781,3.849609 1.8903671,2.918094 5.1082141,4.318334 8.4140631,3.814453 2.049608,-0.293402 3.793685,0.431429 5.371093,1.564454 1.214841,0.872599 2.313965,1.975971 3.384766,3.048828 -5.187206,5.13281 -10.368469,10.275331 -15.0449221,14.914062 l -0.00195,0.002 -0.00195,0.002 c -0.8253604,1.042268 -1.9591168,1.91457 -2.9453126,2.892578 -0.9861956,0.97801 -1.8254469,2.065032 -2.0488281,3.539063 l -0.00195,0.0078 0.00195,0.0098 c 0.5476312,2.931571 3.1014452,5.015561 5.1191407,6.765625 l 0.00391,0.0039 0.00586,0.0039 c 0.9250391,0.497584 2.1777261,0.232804 2.9023431,-0.541016 7.04109,-7.525486 12.88898,-14.353618 18.726563,-21.189453 5.810207,5.600142 11.666102,11.489383 17.470703,17.390625 l 0.002,0.002 c 1.135153,0.971666 2.372567,2.079297 3.242187,3.316406 l 0.0039,0.0039 0.002,0.0039 c 1.070426,1.005479 2.278194,1.360449 3.408203,1.24414 1.130007,-0.116308 2.181538,-0.701833 2.949219,-1.574218 1.535358,-1.744771 1.932089,-4.640934 -0.453125,-7.203125 l -0.002,-0.002 -0.002,-0.002 C 50.980698,44.38696 43.947823,37.352587 37.212891,30.648438 c 2.265441,-2.628355 4.576874,-5.287312 7.021484,-8.027344 0.665822,-0.574128 1.571506,-0.829131 2.296875,-0.644532 0.723709,0.184179 1.275655,0.79596 1.259766,1.998047 -0.378339,0.66741 -0.426758,1.276279 -0.257813,1.833985 0.170452,0.562675 0.554297,1.072432 1.021485,1.558594 0.934376,0.972324 2.205545,1.854079 2.808593,2.816406 l 0.0059,0.0078 0.0078,0.0059 c 0.360137,0.266984 0.701305,0.339009 1.019531,0.28125 0.318228,-0.05776 0.609425,-0.242372 0.886719,-0.480469 0.554589,-0.476195 1.057607,-1.168358 1.5625,-1.53125 l 0.0059,-0.0039 0.0039,-0.0078 c 0.753196,-0.999881 1.917967,-1.818143 2.90625,-2.746094 0.988282,-0.92795 1.803874,-1.9705 1.839843,-3.417968 v -0.02148 l -0.01562,-0.01563 C 58.724859,21.39424 57.9262,19.893792 57.013738,18.742235 56.557506,18.166456 56.072976,17.675956 55.529363,17.398485 54.998017,17.127276 54.404609,17.082555 53.752019,17.341845 53.110057,17.045616 52.696119,16.55474 52.390691,15.955126 52.085168,15.355466 51.890199,14.64797 51.689519,13.927782 51.288413,12.488317 50.861597,10.991343 49.453191,10.22661 48.350655,9.3163873 47.089609,8.7586406 45.855535,8.1387199 44.619375,7.5177516 43.410675,6.8344869 42.412175,5.6797355 l -0.0039,-0.00586 -0.0078,-0.00391 c -1.008815,-0.596073 -2.120581,-0.961915 -3.261803,-1.1133249 -0.36447,-0.048352 -0.731116,-0.077143 -1.09961,-0.082031 z m 0,0.1015625 c 0.364442,0.00483 0.727231,0.030278 1.087891,0.078125 1.128756,0.1497557 2.226157,0.5127599 3.222656,1.1015625 1.009784,1.1627926 2.22619,1.8504439 3.460938,2.4707031 1.239054,0.6224225 2.495557,1.1802238 3.585937,2.0820315 l 0.0039,0.002 0.0039,0.0039 c 1.369825,0.742234 1.788211,2.198722 2.189453,3.638672 0.200621,0.719974 0.395002,1.434302 0.707031,2.046875 0.31203,0.612573 0.742821,1.124605 1.408203,1.431641 l 0.01953,0.0098 0.02148,-0.0078 c 0.646489,-0.270519 1.211815,-0.21204 1.734375,0.05469 0.52256,0.266726 0.999301,0.744178 1.451172,1.314453 0.897111,1.132184 1.687931,2.614686 2.560547,3.496094 -0.03976,1.40422 -0.824794,2.41965 -1.802735,3.337891 -0.977214,0.917558 -2.13903,1.735239 -2.90625,2.748047 -0.527934,0.379452 -1.02777,1.072934 -1.568359,1.537109 -0.270295,0.232088 -0.548164,0.406044 -0.839844,0.458984 -0.291679,0.05294 -0.600116,-0.01116 -0.943359,-0.265625 -0.625118,-0.986501 -1.889337,-1.859815 -2.808594,-2.816406 -0.461862,-0.48062 -0.834841,-0.980773 -0.998047,-1.519531 -0.163206,-0.538759 -0.120646,-1.116532 0.25586,-1.771485 l 0.0059,-0.01172 0.002,-0.01367 c 0.01903,-1.239235 -0.570192,-1.90864 -1.335937,-2.103516 -0.765747,-0.194875 -1.700151,0.07427 -2.388672,0.667969 l -0.002,0.002 -0.002,0.002 c -2.445435,2.740891 -4.755661,5.398572 -7.021484,8.027344 -2.009359,-2.000109 -3.97103,-3.930917 -5.912109,-5.841797 2.596192,-2.558766 5.300495,-5.237083 7.703125,-7.585937 0.597586,-0.608167 0.847554,-1.290629 0.853515,-1.990235 0.006,-0.699605 -0.229516,-1.415116 -0.595703,-2.103515 C 38.460624,11.682726 37.20992,10.420694 36.287109,9.625 35.653994,8.7823941 34.475412,8.5191796 33.392578,8.3125 32.851162,8.2091602 32.331959,8.1191985 31.917969,7.984375 31.521975,7.8554126 31.244976,7.6756976 31.105469,7.4199219 32.937563,5.547876 35.505962,4.5425706 38.039062,4.5761719 Z m -23.335937,0.00195 c 2.748183,-0.045458 5.51459,0.4318964 7.455078,2.6445312 l 0.002,0.00195 0.002,0.00195 c 1.471659,1.3164729 1.785341,3.0711239 1.929688,4.9238289 0.144347,1.852703 0.115664,3.798767 0.923828,5.472656 0.951873,1.901139 2.343615,3.442603 3.830078,4.898437 0.729732,0.711797 1.501907,1.484328 2.244141,2.214844 0.0098,0.0096 0.01954,0.01969 0.0293,0.0293 l 0.0059,0.0059 c 1.964195,1.933414 3.948193,3.891107 5.982422,5.916016 l 0.03711,0.03906 0.002,-0.002 c 6.733638,6.702934 13.767541,13.736355 20.683594,20.105469 2.351367,2.529633 1.95321,5.357282 0.449219,7.066406 -0.752435,0.855063 -1.782559,1.427569 -2.884766,1.541016 -1.102206,0.113447 -2.276404,-0.230841 -3.328125,-1.21875 -0.878286,-1.246712 -2.11655,-2.352003 -3.25,-3.322266 l -0.002,-0.002 C 43.0092,48.992717 37.151678,43.103573 31.339844,37.501953 l -0.0332,-0.03125 C 29.39653,35.629993 27.49068,33.817186 25.593753,32.048828 l -0.002,-0.002 c -0.300682,-0.292617 -0.618922,-0.608652 -0.925781,-0.916016 l -0.03516,-0.03516 c -1.071277,-1.073054 -2.174187,-2.179236 -3.398437,-3.058594 -1.5894,-1.141637 -3.362947,-1.879844 -5.44336,-1.582031 C 12.51775,26.953695 9.3383978,25.568755 7.46875,22.677734 l -0.00195,-0.0039 -0.00195,-0.002 C 6.8436837,22.006233 5.5769934,20.297076 4.96485,18.849568 4.6587721,18.125856 4.5214031,17.467136 4.6894531,17.048828 4.773478,16.839674 4.9280177,16.687721 5.1875,16.601562 c 0.2581171,-0.08571 0.6229632,-0.101006 1.1074219,-0.02148 1.3123471,0.626708 2.8236011,1.854603 4.2988281,2.449219 0.738914,0.297832 1.471608,0.436607 2.166016,0.253906 0.692726,-0.182259 1.341344,-0.686068 1.912109,-1.652344 l 0.002,-0.0039 c 1.24607,-1.496989 1.875502,-3.433829 1.667969,-5.154297 -0.207693,-1.721784 -1.261596,-3.2260608 -3.365235,-3.8261716 h -0.002 C 11.715455,8.3398684 10.435601,7.4070621 10,6.5410156 9.7821996,6.1079925 9.7696283,5.7044933 10.058594,5.3828125 10.347558,5.0611317 10.956707,4.8186001 11.994141,4.7539062 l 0.002,-0.00195 c 0.879003,-0.086449 1.790968,-0.1582849 2.707031,-0.1738281 z m 9.927734,26.6582031 c 0.295622,0.29615 0.601939,0.600003 0.892579,0.882813 v 0.002 h 0.002 c 1.886103,1.758243 3.778394,3.558612 5.677734,5.388672 -5.838247,6.836618 -11.688286,13.664885 -18.728516,21.189453 -0.692406,0.739421 -1.900838,0.989013 -2.7792965,0.517578 h -0.00195 C 7.677772,57.468901 5.1614151,55.398405 4.6191406,52.523438 c 0.220997,-1.43991 1.0396157,-2.506719 2.0175782,-3.476563 0.9787293,-0.970604 2.1133908,-1.842498 2.9492187,-2.896484 l 0.00391,-0.0039 C 14.265354,41.508678 19.445076,36.367731 24.630859,31.236328 Z" />
  </g>
</svg>
