<?xml version="1.0" encoding="UTF-8" standalone="no"?>
<svg
   width="64"
   height="64"
   version="1"
   id="svg8"
   sodipodi:docname="applications-all.svg"
   inkscape:version="1.4.2 (ebf0e940d0, 2025-05-08)"
   xmlns:inkscape="http://www.inkscape.org/namespaces/inkscape"
   xmlns:sodipodi="http://sodipodi.sourceforge.net/DTD/sodipodi-0.dtd"
   xmlns:xlink="http://www.w3.org/1999/xlink"
   xmlns="http://www.w3.org/2000/svg"
   xmlns:svg="http://www.w3.org/2000/svg">
  <defs
     id="defs8">
    <linearGradient
       id="linearGradient1"
       inkscape:collect="always">
      <stop
         style="stop-color:#d2d2d2;stop-opacity:1;"
         offset="0"
         id="stop1" />
      <stop
         style="stop-color:#ffffff;stop-opacity:1;"
         offset="1"
         id="stop2" />
    </linearGradient>
    <radialGradient
       id="SVGID_1_-3-2"
       cx="-159.43106"
       cy="15.462561"
       r="64.706802"
       gradientTransform="matrix(-0.89413329,0,0,0.96304834,-80.727499,49.278658)"
       gradientUnits="userSpaceOnUse"
       fx="-159.43106"
       fy="15.462561">
      <stop
         offset="0"
         style="stop-color:#006fff;stop-opacity:1;"
         id="stop1-6-9" />
      <stop
         offset="1"
         style="stop-color:#15baff;stop-opacity:1;"
         id="stop2-7-1" />
    </radialGradient>
    <filter
       inkscape:collect="always"
       style="color-interpolation-filters:sRGB"
       id="filter4"
       x="-0.070802978"
       y="-0.070802978"
       width="1.141606"
       height="1.141606">
      <feGaussianBlur
         inkscape:collect="always"
         stdDeviation="1.5895694"
         id="feGaussianBlur4" />
    </filter>
    <filter
       inkscape:collect="always"
       style="color-interpolation-filters:sRGB"
       id="filter16"
       x="-0.079625777"
       y="-0.079625777"
       width="1.1592516"
       height="1.1592516">
      <feGaussianBlur
         inkscape:collect="always"
         stdDeviation="1.1369121"
         id="feGaussianBlur16" />
    </filter>
    <radialGradient
       inkscape:collect="always"
       xlink:href="#linearGradient1"
       id="radialGradient2"
       cx="5.9836855"
       cy="44.458122"
       fx="5.9836855"
       fy="44.458122"
       r="20.631081"
       gradientUnits="userSpaceOnUse"
       gradientTransform="matrix(0,3.0646764,-3.0646768,0,136.5577,-18.132766)" />
  </defs>
  <sodipodi:namedview
     id="namedview8"
     pagecolor="#4f4f4f"
     bordercolor="#000000"
     borderopacity="0.25"
     inkscape:showpageshadow="2"
     inkscape:pageopacity="0.0"
     inkscape:pagecheckerboard="0"
     inkscape:deskcolor="#d1d1d1"
     inkscape:zoom="4.7243093"
     inkscape:cx="14.816981"
     inkscape:cy="39.582505"
     inkscape:window-width="2713"
     inkscape:window-height="1380"
     inkscape:window-x="0"
     inkscape:window-y="0"
     inkscape:window-maximized="0"
     inkscape:current-layer="svg8" />
  <path
     d="M 20.800781,4 C 11.500782,4 4,11.500781 4,20.800781 V 43.199219 C 4,52.499219 11.500782,60 20.800781,60 H 43.199219 C 52.49922,60 60,52.499219 60,43.199219 V 20.800781 C 60,11.500781 52.49922,4 43.199219,4 Z"
     style="fill:url(#SVGID_1_-3-2)"
     id="path3"
     sodipodi:nodetypes="sssssssss" />
  <path
     class="st1"
     d="m 20.799999,3.9999999 h 22.4 c 9.3,0 16.8,7.4999991 16.8,16.7999991 v 22.4 c 0,9.3 -7.5,16.8 -16.8,16.8 h -22.4 c -9.3,0 -16.7999989,-7.5 -16.7999989,-16.8 v -22.4 c 0,-9.3 7.4999989,-16.7999991 16.7999989,-16.7999991 z"
     id="path2-2"
     style="opacity:0.673189;fill:none;stroke:#000000;stroke-width:0.3;stroke-dasharray:none;stroke-opacity:1;filter:url(#filter4)" />
  <path
     id="rect2-5-2-8"
     style="mix-blend-mode:normal;fill:none;fill-opacity:1;stroke:#000000;stroke-width:0.185143;stroke-dasharray:none;stroke-opacity:1;filter:url(#filter16)"
     d="m 14.931103,-17.063799 c 0,1.695847 1.365155,3.061002 3.061002,3.061002 h 4.080734 c 1.695847,0 3.061002,-1.365155 3.061002,-3.061002 v -4.080734 c 0,-1.695847 -1.365155,-3.061002 -3.061002,-3.061002 h -4.080734 c -1.695847,0 -3.061002,1.365155 -3.061002,3.061002 z m 0,-12.612848 c 0,1.695847 1.365155,3.061002 3.061002,3.061002 h 4.080734 c 1.695847,0 3.061002,-1.365155 3.061002,-3.061002 v -4.082542 c 0,-1.695847 -1.365155,-3.061002 -3.061002,-3.061002 h -4.080734 c -1.695847,0 -3.061002,1.365155 -3.061002,3.061002 z m 0,-12.614656 c 0,1.695847 1.365155,3.061002 3.061002,3.061002 h 4.080734 c 1.695847,0 3.061002,-1.365155 3.061002,-3.061002 v -4.080734 c 0,-1.695847 -1.365155,-3.061002 -3.061002,-3.061002 h -4.080734 c -1.695847,0 -3.061002,1.365155 -3.061002,3.061002 z m 12.612848,25.227504 c 0,1.695847 1.365155,3.061002 3.061002,3.061002 h 4.082542 c 1.695847,0 3.061002,-1.365155 3.061002,-3.061002 v -4.080734 c 0,-1.695847 -1.365155,-3.061002 -3.061002,-3.061002 h -4.082542 c -1.695847,0 -3.061002,1.365155 -3.061002,3.061002 z m 0,-12.612848 c 0,1.695847 1.365155,3.061002 3.061002,3.061002 h 4.082542 c 1.695847,0 3.061002,-1.365155 3.061002,-3.061002 v -4.082542 c 0,-1.695847 -1.365155,-3.061002 -3.061002,-3.061002 h -4.082542 c -1.695847,0 -3.061002,1.365155 -3.061002,3.061002 z m 0,-12.614656 c 0,1.695847 1.365155,3.061002 3.061002,3.061002 h 4.082542 c 1.695847,0 3.061002,-1.365155 3.061002,-3.061002 v -4.080734 c 0,-1.695847 -1.365155,-3.061002 -3.061002,-3.061002 h -4.082542 c -1.695847,0 -3.061002,1.365155 -3.061002,3.061002 z m 12.614656,25.227504 c 0,1.695847 1.365155,3.061002 3.061002,3.061002 h 4.080734 c 1.695847,0 3.061002,-1.365155 3.061002,-3.061002 v -4.080734 c 0,-1.695847 -1.365155,-3.061002 -3.061002,-3.061002 h -4.080734 c -1.695847,0 -3.061002,1.365155 -3.061002,3.061002 z m 0,-12.612848 c 0,1.695847 1.365155,3.061002 3.061002,3.061002 h 4.080734 c 1.695847,0 3.061002,-1.365155 3.061002,-3.061002 v -4.082542 c 0,-1.695847 -1.365155,-3.061002 -3.061002,-3.061002 h -4.080734 c -1.695847,0 -3.061002,1.365155 -3.061002,3.061002 z m 0,-12.614656 c 0,1.695847 1.365155,3.061002 3.061002,3.061002 h 4.080734 c 1.695847,0 3.061002,-1.365155 3.061002,-3.061002 v -4.080734 c 0,-1.695847 -1.365155,-3.061002 -3.061002,-3.061002 h -4.080734 c -1.695847,0 -3.061002,1.365155 -3.061002,3.061002 z"
     transform="matrix(0,1.0146384,-1.0146384,0,-0.18221704,-1.1241114)" />
  <path
     d="m 17.130859,14.025391 c -1.720672,0 -3.105468,1.384796 -3.105468,3.105468 v 4.140625 c 0,1.720671 1.384796,3.105469 3.105468,3.105469 h 4.140625 c 1.720671,0 3.105469,-1.384798 3.105469,-3.105469 v -4.140625 c 0,-1.720672 -1.384798,-3.105468 -3.105469,-3.105468 z m 12.798828,0 c -1.720671,0 -3.107421,1.384796 -3.107421,3.105468 v 4.140625 c 0,1.720671 1.386749,3.105469 3.107421,3.105469 h 4.140625 c 1.720672,0 3.107422,-1.384798 3.107422,-3.105469 v -4.140625 c 0,-1.720672 -1.386751,-3.105468 -3.107422,-3.105468 z m 12.798829,0 c -1.720671,0 -3.105469,1.384796 -3.105469,3.105468 v 4.140625 c 0,1.720671 1.384798,3.105469 3.105469,3.105469 h 4.140625 c 1.720672,0 3.105468,-1.384798 3.105468,-3.105469 v -4.140625 c 0,-1.720672 -1.384796,-3.105468 -3.105468,-3.105468 z M 17.130859,26.822266 c -1.720672,0 -3.105468,1.38675 -3.105468,3.107421 v 4.140625 c 0,1.720672 1.384796,3.107422 3.105468,3.107422 h 4.140625 c 1.720671,0 3.105469,-1.38675 3.105469,-3.107422 v -4.140625 c 0,-1.720671 -1.384798,-3.107421 -3.105469,-3.107421 z m 12.798828,0 c -1.720671,0 -3.107421,1.38675 -3.107421,3.107421 v 4.140625 c 0,1.720672 1.386749,3.107422 3.107421,3.107422 h 4.140625 c 1.720672,0 3.107422,-1.38675 3.107422,-3.107422 v -4.140625 c 0,-1.720671 -1.386751,-3.107421 -3.107422,-3.107421 z m 12.798829,0 c -1.720671,0 -3.105469,1.38675 -3.105469,3.107421 v 4.140625 c 0,1.720672 1.384798,3.107422 3.105469,3.107422 h 4.140625 c 1.720672,0 3.105468,-1.38675 3.105468,-3.107422 v -4.140625 c 0,-1.720671 -1.384796,-3.107421 -3.105468,-3.107421 z M 17.130859,39.623047 c -1.720672,0 -3.105468,1.384798 -3.105468,3.105469 v 4.140625 c 0,1.720672 1.384796,3.105468 3.105468,3.105468 h 4.140625 c 1.720671,0 3.105469,-1.384796 3.105469,-3.105468 v -4.140625 c 0,-1.720671 -1.384798,-3.105469 -3.105469,-3.105469 z m 12.798828,0 c -1.720671,0 -3.107421,1.384798 -3.107421,3.105469 v 4.140625 c 0,1.720672 1.386749,3.105468 3.107421,3.105468 h 4.140625 c 1.720672,0 3.107422,-1.384796 3.107422,-3.105468 v -4.140625 c 0,-1.720671 -1.386751,-3.105469 -3.107422,-3.105469 z m 12.798829,0 c -1.720671,0 -3.105469,1.384798 -3.105469,3.105469 v 4.140625 c 0,1.720672 1.384798,3.105468 3.105469,3.105468 h 4.140625 c 1.720672,0 3.105468,-1.384796 3.105468,-3.105468 v -4.140625 c 0,-1.720671 -1.384796,-3.105469 -3.105468,-3.105469 z"
     style="opacity:0.96441157;fill:url(#radialGradient2);stroke-width:0.2"
     id="path4" />
</svg>
