<?xml version="1.0" encoding="UTF-8" standalone="no"?>
<svg
   width="64"
   height="64"
   version="1"
   id="svg13"
   sodipodi:docname="archive-manager.svg"
   inkscape:version="1.4.3 (0d15f75042, 2025-12-25)"
   xmlns:inkscape="http://www.inkscape.org/namespaces/inkscape"
   xmlns:sodipodi="http://sodipodi.sourceforge.net/DTD/sodipodi-0.dtd"
   xmlns:xlink="http://www.w3.org/1999/xlink"
   xmlns="http://www.w3.org/2000/svg"
   xmlns:svg="http://www.w3.org/2000/svg">
  <defs
     id="defs13">
    <linearGradient
       id="linearGradient54"
       inkscape:collect="always">
      <stop
         style="stop-color:#006f39;stop-opacity:1;"
         offset="0"
         id="stop53" />
      <stop
         style="stop-color:#00582d;stop-opacity:1;"
         offset="1"
         id="stop54" />
    </linearGradient>
    <linearGradient
       id="linearGradient3"
       inkscape:collect="always">
      <stop
         style="stop-color:#80f8bd;stop-opacity:1;"
         offset="0"
         id="stop51" />
      <stop
         style="stop-color:#b1ffd9;stop-opacity:1;"
         offset="1"
         id="stop52" />
    </linearGradient>
    <inkscape:path-effect
       effect="fillet_chamfer"
       id="path-effect1"
       is_visible="true"
       lpeversion="1"
       nodesatellites_param="F,0,1,1,0,0.66589586,0,1 @ F,0,1,1,0,0.66589586,0,1 | F,0,1,1,0,0.66589586,0,1 @ F,0,1,1,0,0.66589586,0,1 @ F,0,1,1,0,0.66589586,0,1 @ F,0,0,1,0,0.66589586,0,1 | F,0,0,1,0,0.66589586,0,1 @ F,0,1,1,0,0.66589586,0,1 @ F,0,1,1,0,0.66589586,0,1 @ F,0,1,1,0,0.66589586,0,1 | F,0,1,1,0,0.66589586,0,1 @ F,0,1,1,0,0.66589586,0,1 @ F,0,1,1,0,0.66589586,0,1 @ F,0,1,1,0,0.66589586,0,1 | F,0,1,1,0,0.66589586,0,1 @ F,0,1,1,0,0.66589586,0,1 @ F,0,1,1,0,0.66589586,0,1 @ F,0,1,1,0,0.66589586,0,1 | F,0,1,1,0,0.66589586,0,1 @ F,0,1,1,0,0.66589586,0,1 @ F,0,1,1,0,0.66589586,0,1 @ F,0,1,1,0,0.66589586,0,1 | F,0,1,1,0,0.66589586,0,1 @ F,0,1,1,0,0.66589586,0,1 @ F,0,1,1,0,0.66589586,0,1 @ F,0,1,1,0,0.66589586,0,1 | F,0,1,1,0,0.66589586,0,1 @ F,0,1,1,0,0.66589586,0,1 @ F,0,1,1,0,0.66589586,0,1 @ F,0,1,1,0,0.66589586,0,1"
       radius="0"
       unit="px"
       method="auto"
       mode="F"
       chamfer_steps="1"
       flexible="false"
       use_knot_distance="true"
       apply_no_radius="true"
       apply_with_radius="true"
       only_selected="false"
       hide_knots="false" />
    <inkscape:path-effect
       effect="fillet_chamfer"
       id="path-effect4"
       is_visible="true"
       lpeversion="1"
       nodesatellites_param="F,0,0,1,0,0,0,1 @ F,0,0,1,0,0,0,1 @ F,0,0,1,0,0,0,1 @ F,0,0,1,0,0,0,1 @ F,0,0,1,0,0,0,1 @ F,0,0,1,0,0,0,1 @ F,0,0,1,0,0,0,1"
       radius="0"
       unit="px"
       method="auto"
       mode="F"
       chamfer_steps="1"
       flexible="false"
       use_knot_distance="true"
       apply_no_radius="true"
       apply_with_radius="true"
       only_selected="false"
       hide_knots="false" />
    <linearGradient
       id="linearGradient49"
       inkscape:collect="always">
      <stop
         style="stop-color:#15f19f;stop-opacity:1;"
         offset="0"
         id="stop49" />
      <stop
         style="stop-color:#1cbf6d;stop-opacity:1;"
         offset="1"
         id="stop50" />
    </linearGradient>
    <radialGradient
       id="radialGradient48"
       cx="32"
       cy="39"
       r="40.048599"
       fx="14.0678"
       fy="24.8514"
       gradientUnits="userSpaceOnUse"
       gradientTransform="translate(-1.9999998e-8,-2.62354)"
       fr="0"
       spreadMethod="pad">
      <stop
         offset="0"
         style="stop-color:#20f488;stop-opacity:1;"
         id="stop47" />
      <stop
         offset="1"
         style="stop-color:#15ff67;stop-opacity:1;"
         id="stop48" />
    </radialGradient>
    <radialGradient
       id="radialGradient46"
       cx="32"
       cy="39"
       r="40.048599"
       fx="14.0678"
       fy="24.8514"
       gradientUnits="userSpaceOnUse"
       gradientTransform="translate(-1.9999998e-8,-2.62354)"
       fr="0"
       spreadMethod="pad">
      <stop
         offset="0"
         style="stop-color:#20f488;stop-opacity:1;"
         id="stop45" />
      <stop
         offset="1"
         style="stop-color:#15ff67;stop-opacity:1;"
         id="stop46" />
    </radialGradient>
    <radialGradient
       id="radialGradient44"
       cx="32"
       cy="39"
       r="40.048599"
       fx="14.0678"
       fy="24.8514"
       gradientUnits="userSpaceOnUse"
       gradientTransform="translate(-1.9999998e-8,-2.62354)"
       fr="0"
       spreadMethod="pad">
      <stop
         offset="0"
         style="stop-color:#20f488;stop-opacity:1;"
         id="stop43" />
      <stop
         offset="1"
         style="stop-color:#15ff67;stop-opacity:1;"
         id="stop44" />
    </radialGradient>
    <radialGradient
       id="radialGradient42"
       cx="32"
       cy="39"
       r="40.048599"
       fx="14.0678"
       fy="24.8514"
       gradientUnits="userSpaceOnUse"
       gradientTransform="translate(-1.9999998e-8,-2.62354)"
       fr="0"
       spreadMethod="pad">
      <stop
         offset="0"
         style="stop-color:#1cf488;stop-opacity:1;"
         id="stop41" />
      <stop
         offset="1"
         style="stop-color:#15ff67;stop-opacity:1;"
         id="stop42" />
    </radialGradient>
    <radialGradient
       id="radialGradient40"
       cx="32"
       cy="39"
       r="40.048599"
       fx="14.0678"
       fy="24.8514"
       gradientUnits="userSpaceOnUse"
       gradientTransform="translate(-1.9999998e-8,-2.62354)"
       fr="0"
       spreadMethod="pad">
      <stop
         offset="0"
         style="stop-color:#10f488;stop-opacity:1;"
         id="stop39" />
      <stop
         offset="1"
         style="stop-color:#15ff67;stop-opacity:1;"
         id="stop40" />
    </radialGradient>
    <radialGradient
       id="radialGradient38"
       cx="32"
       cy="39"
       r="40.048599"
       fx="14.0678"
       fy="24.8514"
       gradientUnits="userSpaceOnUse"
       gradientTransform="translate(-1.9999998e-8,-2.62354)"
       fr="0"
       spreadMethod="pad">
      <stop
         offset="0"
         style="stop-color:#02f488;stop-opacity:1;"
         id="stop37" />
      <stop
         offset="1"
         style="stop-color:#15ff67;stop-opacity:1;"
         id="stop38" />
    </radialGradient>
    <radialGradient
       id="radialGradient36"
       cx="32"
       cy="39"
       r="40.048599"
       fx="14.0678"
       fy="24.8514"
       gradientUnits="userSpaceOnUse"
       gradientTransform="translate(-1.9999998e-8,-2.62354)"
       fr="0"
       spreadMethod="pad">
      <stop
         offset="0"
         style="stop-color:#01f488;stop-opacity:1;"
         id="stop35" />
      <stop
         offset="1"
         style="stop-color:#15ff67;stop-opacity:1;"
         id="stop36" />
    </radialGradient>
    <radialGradient
       id="radialGradient34"
       cx="32"
       cy="39"
       r="40.048599"
       fx="14.0678"
       fy="24.8514"
       gradientUnits="userSpaceOnUse"
       gradientTransform="translate(-1.9999998e-8,-2.62354)"
       fr="0"
       spreadMethod="pad">
      <stop
         offset="0"
         style="stop-color:#01f488;stop-opacity:1;"
         id="stop33" />
      <stop
         offset="1"
         style="stop-color:#15ff67;stop-opacity:1;"
         id="stop34" />
    </radialGradient>
    <radialGradient
       id="radialGradient32"
       cx="32"
       cy="39"
       r="40.048599"
       fx="14.0678"
       fy="24.8514"
       gradientUnits="userSpaceOnUse"
       gradientTransform="translate(-1.9999998e-8,-2.62354)"
       fr="0"
       spreadMethod="pad">
      <stop
         offset="0"
         style="stop-color:#01f488;stop-opacity:1;"
         id="stop31" />
      <stop
         offset="1"
         style="stop-color:#15ff67;stop-opacity:1;"
         id="stop32" />
    </radialGradient>
    <radialGradient
       id="radialGradient30"
       cx="32"
       cy="39"
       r="40.048599"
       fx="14.0678"
       fy="24.8514"
       gradientUnits="userSpaceOnUse"
       gradientTransform="translate(-1.9999998e-8,-2.62354)"
       fr="0"
       spreadMethod="pad">
      <stop
         offset="0"
         style="stop-color:#59f488;stop-opacity:1;"
         id="stop29" />
      <stop
         offset="1"
         style="stop-color:#15ff67;stop-opacity:1;"
         id="stop30" />
    </radialGradient>
    <radialGradient
       id="radialGradient28"
       cx="32"
       cy="39"
       r="40.048599"
       fx="14.0678"
       fy="24.8514"
       gradientUnits="userSpaceOnUse"
       gradientTransform="translate(-1.9999998e-8,-2.62354)"
       fr="0"
       spreadMethod="pad">
      <stop
         offset="0"
         style="stop-color:#59f488;stop-opacity:1;"
         id="stop27" />
      <stop
         offset="1"
         style="stop-color:#15ff67;stop-opacity:1;"
         id="stop28" />
    </radialGradient>
    <radialGradient
       id="radialGradient26"
       cx="32"
       cy="39"
       r="40.048599"
       fx="14.0678"
       fy="24.8514"
       gradientUnits="userSpaceOnUse"
       gradientTransform="translate(-1.9999998e-8,-2.62354)"
       fr="0"
       spreadMethod="pad">
      <stop
         offset="0"
         style="stop-color:#59f488;stop-opacity:1;"
         id="stop25" />
      <stop
         offset="1"
         style="stop-color:#15ff67;stop-opacity:1;"
         id="stop26" />
    </radialGradient>
    <radialGradient
       id="radialGradient24"
       cx="32"
       cy="39"
       r="40.048599"
       fx="14.0678"
       fy="24.8514"
       gradientUnits="userSpaceOnUse"
       gradientTransform="translate(-1.9999998e-8,-2.62354)"
       fr="0"
       spreadMethod="pad">
      <stop
         offset="0"
         style="stop-color:#54f488;stop-opacity:1;"
         id="stop23" />
      <stop
         offset="1"
         style="stop-color:#15ff67;stop-opacity:1;"
         id="stop24" />
    </radialGradient>
    <radialGradient
       id="radialGradient22"
       cx="32"
       cy="39"
       r="40.048599"
       fx="14.0678"
       fy="24.8514"
       gradientUnits="userSpaceOnUse"
       gradientTransform="translate(-1.9999998e-8,-2.62354)"
       fr="0"
       spreadMethod="pad">
      <stop
         offset="0"
         style="stop-color:#50f488;stop-opacity:1;"
         id="stop21" />
      <stop
         offset="1"
         style="stop-color:#15ff67;stop-opacity:1;"
         id="stop22" />
    </radialGradient>
    <radialGradient
       id="radialGradient20"
       cx="32"
       cy="39"
       r="40.048599"
       fx="14.0678"
       fy="24.8514"
       gradientUnits="userSpaceOnUse"
       gradientTransform="translate(-1.9999998e-8,-2.62354)"
       fr="0"
       spreadMethod="pad">
      <stop
         offset="0"
         style="stop-color:#40f488;stop-opacity:1;"
         id="stop19" />
      <stop
         offset="1"
         style="stop-color:#15ff67;stop-opacity:1;"
         id="stop20" />
    </radialGradient>
    <radialGradient
       id="radialGradient18"
       cx="32"
       cy="39"
       r="40.048599"
       fx="14.0678"
       fy="24.8514"
       gradientUnits="userSpaceOnUse"
       gradientTransform="translate(-1.9999998e-8,-2.62354)"
       fr="0"
       spreadMethod="pad">
      <stop
         offset="0"
         style="stop-color:#3ef488;stop-opacity:1;"
         id="stop17" />
      <stop
         offset="1"
         style="stop-color:#15ff67;stop-opacity:1;"
         id="stop18" />
    </radialGradient>
    <radialGradient
       id="radialGradient16"
       cx="32"
       cy="39"
       r="40.048599"
       fx="14.0678"
       fy="24.8514"
       gradientUnits="userSpaceOnUse"
       gradientTransform="translate(-1.9999998e-8,-2.62354)"
       fr="0"
       spreadMethod="pad">
      <stop
         offset="0"
         style="stop-color:#3ef488;stop-opacity:1;"
         id="stop15" />
      <stop
         offset="1"
         style="stop-color:#15ff67;stop-opacity:1;"
         id="stop16" />
    </radialGradient>
    <radialGradient
       id="radialGradient14"
       cx="32"
       cy="39"
       r="40.048599"
       fx="14.0678"
       fy="24.8514"
       gradientUnits="userSpaceOnUse"
       gradientTransform="translate(-1.9999998e-8,-2.62354)">
      <stop
         offset="0"
         style="stop-color:#57eec4;stop-opacity:1;"
         id="stop13" />
      <stop
         offset="1"
         style="stop-color:#15ff67;stop-opacity:1;"
         id="stop14" />
    </radialGradient>
    <radialGradient
       id="SVGID_6_"
       cx="32"
       cy="39"
       r="40.048599"
       fx="14.0678"
       fy="24.8514"
       gradientUnits="userSpaceOnUse"
       gradientTransform="translate(-1.9999998e-8,-2.62354)"
       fr="0"
       spreadMethod="pad">
      <stop
         offset="0"
         style="stop-color:#00f488;stop-opacity:1;"
         id="stop11" />
      <stop
         offset="1"
         style="stop-color:#15ff67;stop-opacity:1;"
         id="stop12" />
    </radialGradient>
    <radialGradient
       id="SVGID_5_"
       cx="32"
       cy="38.171398"
       r="40.048599"
       fx="14.0678"
       fy="24.0229"
       gradientUnits="userSpaceOnUse"
       gradientTransform="translate(1.7e-7,0.5000002)">
      <stop
         offset="0"
         style="stop-color:#000000"
         id="stop9" />
      <stop
         offset="1"
         style="stop-color:#545454"
         id="stop10" />
    </radialGradient>
    <radialGradient
       id="SVGID_4_"
       cx="25.213699"
       cy="25.563499"
       r="32.348301"
       fx="16.568701"
       fy="17.644699"
       gradientUnits="userSpaceOnUse"
       gradientTransform="translate(1.7e-7,0.5000002)">
      <stop
         offset="0"
         style="stop-color:#FFFFFF"
         id="stop7" />
      <stop
         offset="1"
         style="stop-color:#B7B7B7"
         id="stop8" />
    </radialGradient>
    <linearGradient
       id="SVGID_3_"
       gradientUnits="userSpaceOnUse"
       x1="8"
       y1="26.7181"
       x2="56"
       y2="26.7181"
       gradientTransform="translate(1.7e-7,0.5000002)">
      <stop
         offset="0"
         style="stop-color:#000000"
         id="stop5" />
      <stop
         offset="1"
         style="stop-color:#404040"
         id="stop6" />
    </linearGradient>
    <radialGradient
       id="SVGID_2_"
       cx="28.128099"
       cy="25.073299"
       r="40.0504"
       fx="5.4853001"
       fy="7.4745002"
       gradientUnits="userSpaceOnUse"
       gradientTransform="translate(0.05000007,0.5000002)"
       xlink:href="#SVGID_6_">
      <stop
         offset="0"
         style="stop-color:#1e7b36;stop-opacity:1;"
         id="stop3" />
      <stop
         offset="1"
         style="stop-color:#32806a;stop-opacity:1;"
         id="stop4" />
    </radialGradient>
    <radialGradient
       id="SVGID_1_"
       cx="28.128099"
       cy="24.486401"
       r="40.0504"
       fx="5.4853001"
       fy="6.8875999"
       gradientUnits="userSpaceOnUse"
       gradientTransform="translate(0.05000007,0.8000002)">
      <stop
         offset="0"
         style="stop-color:#000000"
         id="stop1" />
      <stop
         offset="1"
         style="stop-color:#545454"
         id="stop2" />
    </radialGradient>
    <radialGradient
       id="SVGID_6_-7"
       cx="32"
       cy="39"
       r="40.048599"
       fx="14.0678"
       fy="24.8514"
       gradientUnits="userSpaceOnUse"
       gradientTransform="translate(0.00441344,-2.8431324)">
      <stop
         offset="0"
         style="stop-color:#00F0F4"
         id="stop11-5" />
      <stop
         offset="1"
         style="stop-color:#1598FF"
         id="stop12-3" />
    </radialGradient>
    <radialGradient
       inkscape:collect="always"
       xlink:href="#linearGradient49"
       id="radialGradient50"
       cx="1.0694224"
       cy="66.392639"
       fx="1.0694224"
       fy="66.392639"
       r="28"
       gradientTransform="matrix(0,2.2856319,-2.2867372,5.3961618e-8,151.98892,-2.1474848)"
       gradientUnits="userSpaceOnUse" />
    <inkscape:path-effect
       effect="fillet_chamfer"
       id="path-effect4-3"
       is_visible="true"
       lpeversion="1"
       nodesatellites_param="F,0,0,1,0,0,0,1 @ F,0,0,1,0,0,0,1 @ F,0,0,1,0,0,0,1 @ F,0,0,1,0,0,0,1 @ F,0,0,1,0,0,0,1 @ F,0,0,1,0,0,0,1 @ F,0,0,1,0,0,0,1"
       radius="0"
       unit="px"
       method="auto"
       mode="F"
       chamfer_steps="1"
       flexible="false"
       use_knot_distance="true"
       apply_no_radius="true"
       apply_with_radius="true"
       only_selected="false"
       hide_knots="false" />
    <filter
       inkscape:collect="always"
       style="color-interpolation-filters:sRGB"
       id="filter20"
       x="-0.30855757"
       y="-0.11429489"
       width="1.6171151"
       height="1.2285898">
      <feGaussianBlur
         inkscape:collect="always"
         stdDeviation="1.0860289"
         id="feGaussianBlur20" />
    </filter>
    <inkscape:path-effect
       effect="fillet_chamfer"
       id="path-effect1-3"
       is_visible="true"
       lpeversion="1"
       nodesatellites_param="F,0,1,1,0,0.66589586,0,1 @ F,0,1,1,0,0.66589586,0,1 @ F,0,1,1,0,0.66589586,0,1 @ F,0,0,1,0,0.66589586,0,1 | F,0,0,1,0,0.66589586,0,1 @ F,0,1,1,0,0.66589586,0,1 @ F,0,1,1,0,0.66589586,0,1 @ F,0,1,1,0,0.66589586,0,1 | F,0,1,1,0,0.66589586,0,1 @ F,0,1,1,0,0.66589586,0,1 @ F,0,1,1,0,0.66589586,0,1 @ F,0,1,1,0,0.66589586,0,1 | F,0,1,1,0,0.66589586,0,1 @ F,0,1,1,0,0.66589586,0,1 @ F,0,1,1,0,0.66589586,0,1 @ F,0,1,1,0,0.66589586,0,1 | F,0,1,1,0,0.66589586,0,1 @ F,0,1,1,0,0.66589586,0,1 @ F,0,1,1,0,0.66589586,0,1 @ F,0,1,1,0,0.66589586,0,1 | F,0,1,1,0,0.66589586,0,1 @ F,0,1,1,0,0.66589586,0,1 @ F,0,1,1,0,0.66589586,0,1 @ F,0,1,1,0,0.66589586,0,1 | F,0,1,1,0,0.66589586,0,1 @ F,0,1,1,0,0.66589586,0,1 @ F,0,1,1,0,0.66589586,0,1 @ F,0,1,1,0,0.66589586,0,1"
       radius="0"
       unit="px"
       method="auto"
       mode="F"
       chamfer_steps="1"
       flexible="false"
       use_knot_distance="true"
       apply_no_radius="true"
       apply_with_radius="true"
       only_selected="false"
       hide_knots="false" />
    <filter
       inkscape:collect="always"
       style="color-interpolation-filters:sRGB"
       id="filter1"
       x="-0.14585609"
       y="-0.041663989"
       width="1.2917122"
       height="1.083328">
      <feGaussianBlur
         inkscape:collect="always"
         stdDeviation="0.28410427"
         id="feGaussianBlur1" />
    </filter>
    <filter
       inkscape:collect="always"
       style="color-interpolation-filters:sRGB"
       id="filter2"
       x="-0.24506804"
       y="-0.12899103"
       width="1.4901361"
       height="1.2579821">
      <feGaussianBlur
         inkscape:collect="always"
         stdDeviation="0.87095459"
         id="feGaussianBlur2" />
    </filter>
    <filter
       inkscape:collect="always"
       style="color-interpolation-filters:sRGB"
       id="filter3"
       x="-0.099664705"
       y="-0.083307756"
       width="1.1993294"
       height="1.1666155">
      <feGaussianBlur
         inkscape:collect="always"
         stdDeviation="1.8370309"
         id="feGaussianBlur3" />
    </filter>
    <radialGradient
       inkscape:collect="always"
       xlink:href="#linearGradient3"
       id="radialGradient52"
       cx="31.946993"
       cy="39.464268"
       fx="31.946993"
       fy="39.464268"
       r="4.4687405"
       gradientTransform="matrix(4.6035773,0,0,5.0643165,-115.01288,-151.94955)"
       gradientUnits="userSpaceOnUse" />
    <radialGradient
       inkscape:collect="always"
       xlink:href="#linearGradient54"
       id="radialGradient52-3"
       cx="31.946993"
       cy="39.464268"
       fx="31.946993"
       fy="39.464268"
       r="4.4687405"
       gradientTransform="matrix(4.6035773,0,0,5.0643165,-115.01289,-156.12823)"
       gradientUnits="userSpaceOnUse" />
  </defs>
  <sodipodi:namedview
     id="namedview13"
     pagecolor="#ffffff"
     bordercolor="#000000"
     borderopacity="0.25"
     inkscape:showpageshadow="2"
     inkscape:pageopacity="0.0"
     inkscape:pagecheckerboard="0"
     inkscape:deskcolor="#d1d1d1"
     inkscape:zoom="14.158455"
     inkscape:cx="31.677185"
     inkscape:cy="34.078577"
     inkscape:window-width="3440"
     inkscape:window-height="1361"
     inkscape:window-x="0"
     inkscape:window-y="0"
     inkscape:window-maximized="1"
     inkscape:current-layer="svg13" />
  <path
     class="st5"
     d="m 21.473514,4.6960353 h 20.930547 c 6.892102,0 12.405783,5.5136807 12.405783,12.4057817 v 29.911721 c 0,6.892102 -5.513681,12.405783 -12.405783,12.405783 H 21.473514 c -6.892101,0 -12.4057826,-5.513681 -12.4057826,-12.405783 V 17.101817 c 0,-6.892101 5.5136816,-12.4057817 12.4057826,-12.4057817 z"
     id="path12"
     style="fill:url(#radialGradient50);fill-opacity:1;stroke-width:1.37842"
     sodipodi:nodetypes="sssssssss" />
  <path
     class="st5"
     d="m 21.534727,4.638357 h 20.930547 c 6.892102,0 12.405782,5.513681 12.405782,12.405782 V 46.95586 c 0,6.892102 -5.513681,12.405783 -12.405783,12.405783 H 21.534727 c -6.892101,0 -12.4057835,-5.513681 -12.4057835,-12.405783 V 17.044139 c 0,-6.892101 5.5136825,-12.405782 12.4057835,-12.405782 z"
     id="path12-1"
     style="fill:none;fill-opacity:1;stroke-width:0.3;stroke:#000000;stroke-opacity:1;stroke-dasharray:none;filter:url(#filter3)"
     sodipodi:nodetypes="sssssssss" />
  <rect
     style="opacity:0.187567;stroke-width:0.893646"
     width="8.9364624"
     height="24.128447"
     x="27.49044"
     y="4.7713566"
     id="rect3" />
  <path
     id="rect4"
     style="fill:#ffffff;stroke-width:0.893646"
     d="m 32.624567,7.4524046 h 1.348419 a 0,0 0 0 1 0,0 h -1.348419 z m -1.331792,0 H 29.944356 A 0.66589586,0.66589586 135 0 0 29.27846,8.1183005 v 1.3484196 a 0.66589586,0.66589586 45 0 0 0.665896,0.6658959 h 1.348419 A 0.66589586,0.66589586 135 0 0 31.958671,9.4667201 V 8.1183005 A 0.66589586,0.66589586 45 0 0 31.292775,7.4524046 Z m 0.665896,3.3461074 0,1.350485 a 0.66589586,0.66589586 45 0 0 0.665896,0.665896 h 1.348419 a 0.66589586,0.66589586 135 0 0 0.665896,-0.665896 v -1.350485 a 0.66589586,0.66589586 45 0 0 -0.665896,-0.665896 l -1.348419,0 a 0.66589586,0.66589586 135 0 0 -0.665896,0.665896 z m -0.665896,2.016381 h -1.348419 a 0.66589586,0.66589586 135 0 0 -0.665896,0.665896 v 1.348419 a 0.66589586,0.66589586 45 0 0 0.665896,0.665896 h 1.348419 a 0.66589586,0.66589586 135 0 0 0.665896,-0.665896 v -1.348419 a 0.66589586,0.66589586 45 0 0 -0.665896,-0.665896 z m 0.665896,3.346107 0,1.34842 a 0.66589586,0.66589586 45 0 0 0.665896,0.665896 h 1.348419 A 0.66589586,0.66589586 135 0 0 34.638882,17.50942 V 16.161 a 0.66589586,0.66589586 45 0 0 -0.665896,-0.665896 l -1.348419,0 A 0.66589586,0.66589586 135 0 0 31.958671,16.161 Z m -0.665896,2.014316 h -1.348419 a 0.66589586,0.66589586 135 0 0 -0.665896,0.665896 v 1.350485 a 0.66589586,0.66589586 45 0 0 0.665896,0.665896 h 1.348419 a 0.66589586,0.66589586 135 0 0 0.665896,-0.665896 v -1.350485 a 0.66589586,0.66589586 45 0 0 -0.665896,-0.665896 z m 0.665896,3.348173 0,1.34842 a 0.66589586,0.66589586 45 0 0 0.665896,0.665896 h 1.348419 a 0.66589586,0.66589586 135 0 0 0.665896,-0.665896 v -1.34842 a 0.66589586,0.66589586 45 0 0 -0.665896,-0.665896 h -1.348419 a 0.66589586,0.66589586 135 0 0 -0.665896,0.665896 z m -0.665896,2.014316 h -1.348419 a 0.66589586,0.66589586 135 0 0 -0.665896,0.665896 v 1.348419 a 0.66589586,0.66589586 45 0 0 0.665896,0.665896 h 1.348419 a 0.66589586,0.66589586 135 0 0 0.665896,-0.665896 v -1.348419 a 0.66589586,0.66589586 45 0 0 -0.665896,-0.665896 z"
     inkscape:path-effect="#path-effect1"
     inkscape:original-d="m 31.958671,7.4524046 h 2.680211 z m 0,0 H 29.27846 v 2.6802114 h 2.680211 z m 0,2.6802114 v 2.682277 h 2.680211 v -2.682277 z m 0,2.682277 H 29.27846 v 2.680211 h 2.680211 z m 0,2.680211 v 2.680212 h 2.680211 v -2.680212 z m 0,2.680212 H 29.27846 v 2.682277 h 2.680211 z m 0,2.682277 v 2.680212 h 2.680211 v -2.680212 z m 0,2.680212 H 29.27846 v 2.680211 h 2.680211 z"
     sodipodi:nodetypes="cccccccccccccccccccccccccccccccccccccc"
     transform="translate(0,-1.8363585)" />
  <path
     id="rect4-7"
     style="mix-blend-mode:normal;fill:none;stroke:#00a15f;stroke-width:0.2;stroke-dasharray:none;stroke-opacity:1;filter:url(#filter1)"
     d="M 31.292775,7.4524046 H 29.944356 A 0.66589586,0.66589586 135 0 0 29.27846,8.1183005 v 1.3484196 a 0.66589586,0.66589586 45 0 0 0.665896,0.6658959 h 1.348419 A 0.66589586,0.66589586 135 0 0 31.958671,9.4667201 V 8.1183005 A 0.66589586,0.66589586 45 0 0 31.292775,7.4524046 Z m 0.665896,3.3461074 0,1.350485 a 0.66589586,0.66589586 45 0 0 0.665896,0.665896 h 1.348419 a 0.66589586,0.66589586 135 0 0 0.665896,-0.665896 v -1.350485 a 0.66589586,0.66589586 45 0 0 -0.665896,-0.665896 l -1.348419,0 a 0.66589586,0.66589586 135 0 0 -0.665896,0.665896 z m -0.665896,2.016381 h -1.348419 a 0.66589586,0.66589586 135 0 0 -0.665896,0.665896 v 1.348419 a 0.66589586,0.66589586 45 0 0 0.665896,0.665896 h 1.348419 a 0.66589586,0.66589586 135 0 0 0.665896,-0.665896 v -1.348419 a 0.66589586,0.66589586 45 0 0 -0.665896,-0.665896 z m 0.665896,3.346107 0,1.34842 a 0.66589586,0.66589586 45 0 0 0.665896,0.665896 h 1.348419 A 0.66589586,0.66589586 135 0 0 34.638882,17.50942 V 16.161 a 0.66589586,0.66589586 45 0 0 -0.665896,-0.665896 l -1.348419,0 A 0.66589586,0.66589586 135 0 0 31.958671,16.161 Z m -0.665896,2.014316 h -1.348419 a 0.66589586,0.66589586 135 0 0 -0.665896,0.665896 v 1.350485 a 0.66589586,0.66589586 45 0 0 0.665896,0.665896 h 1.348419 a 0.66589586,0.66589586 135 0 0 0.665896,-0.665896 v -1.350485 a 0.66589586,0.66589586 45 0 0 -0.665896,-0.665896 z m 0.665896,3.348173 0,1.34842 a 0.66589586,0.66589586 45 0 0 0.665896,0.665896 h 1.348419 a 0.66589586,0.66589586 135 0 0 0.665896,-0.665896 v -1.34842 a 0.66589586,0.66589586 45 0 0 -0.665896,-0.665896 h -1.348419 a 0.66589586,0.66589586 135 0 0 -0.665896,0.665896 z m -0.665896,2.014316 h -1.348419 a 0.66589586,0.66589586 135 0 0 -0.665896,0.665896 v 1.348419 a 0.66589586,0.66589586 45 0 0 0.665896,0.665896 h 1.348419 a 0.66589586,0.66589586 135 0 0 0.665896,-0.665896 v -1.348419 a 0.66589586,0.66589586 45 0 0 -0.665896,-0.665896 z"
     inkscape:path-effect="#path-effect1-3"
     inkscape:original-d="M 31.958671,7.4524046 H 29.27846 v 2.6802114 h 2.680211 z m 0,2.6802114 v 2.682277 h 2.680211 v -2.682277 z m 0,2.682277 H 29.27846 v 2.680211 h 2.680211 z m 0,2.680211 v 2.680212 h 2.680211 v -2.680212 z m 0,2.680212 H 29.27846 v 2.682277 h 2.680211 z m 0,2.682277 v 2.680212 h 2.680211 v -2.680212 z m 0,2.680212 H 29.27846 v 2.680211 h 2.680211 z"
     sodipodi:nodetypes="ccccccccccccccccccccccccccccccccccccc"
     transform="translate(0,-1.8363585)" />
  <path
     d="m 31.61977,23.869933 c -2.310371,0 -4.172202,1.878581 -4.172202,4.209399 v 4.551347 h 8.937481 v -4.551347 c 0,-2.330818 -1.861831,-4.209399 -4.172202,-4.209399 z"
     style="fill:url(#radialGradient52-3);fill-opacity:1;stroke-width:0.893646"
     id="path3-35"
     sodipodi:nodetypes="ssccsss" />
  <path
     d="m 31.61977,28.89616 c -2.310371,0 -4.172202,1.878581 -4.172202,4.209399 v 8.559317 c 0,2.330818 1.861831,4.211465 4.172202,4.211465 h 0.593077 c 2.310371,0 4.172202,-1.880646 4.172202,-4.211465 v -8.559317 c 0,-2.330818 -1.861831,-4.209399 -4.172202,-4.209399 z m 0.297219,10.155507 c 1.300426,2e-6 2.353539,1.055876 2.353539,2.356262 0,1.300387 -1.053113,2.353539 -2.353539,2.353539 -1.300426,0 -2.3549,-1.053152 -2.3549,-2.353539 0,-1.300386 1.054474,-2.35626 2.3549,-2.356262 z"
     style="fill:url(#radialGradient52);stroke-width:0.893646;fill-opacity:1"
     id="path3"
     sodipodi:nodetypes="ssssssssssssss" />
  <path
     d="m 31.61977,28.89616 c -2.310371,0 -4.172202,1.878581 -4.172202,4.209399 v 8.559317 c 0,2.330818 1.861831,4.211465 4.172202,4.211465 h 0.593077 c 2.310371,0 4.172202,-1.880646 4.172202,-4.211465 v -8.559317 c 0,-2.330818 -1.861831,-4.209399 -4.172202,-4.209399 z m 0.297219,10.155507 c 1.300426,2e-6 2.353539,1.055876 2.353539,2.356262 0,1.300387 -1.053113,2.353539 -2.353539,2.353539 -1.300426,0 -2.3549,-1.053152 -2.3549,-2.353539 0,-1.300386 1.054474,-2.35626 2.3549,-2.356262 z"
     style="fill:none;fill-opacity:1;stroke-width:0.2;stroke:#005f38;stroke-opacity:1;stroke-dasharray:none;filter:url(#filter2)"
     id="path3-3"
     sodipodi:nodetypes="ssssssssssssss" />
  <path
     d="M 27.839844,7.0820312 V 29.533203 c 0.01416,-0.0029 0.02918,-0.0012 0.04297,-0.0059 0.002,-5.09e-4 0.0039,-0.0014 0.0059,-0.002 0.0013,-4.68e-4 0.0026,-0.0015 0.0039,-0.002 0.03626,-0.01337 0.07143,-0.03374 0.105469,-0.05859 0.03179,-0.02321 0.06353,-0.05158 0.09375,-0.08398 9.17e-4,-9.85e-4 10e-4,-0.0029 0.002,-0.0039 0.01428,-0.01549 0.02898,-0.03337 0.04297,-0.05078 0.01943,-0.02416 0.03769,-0.04849 0.05664,-0.07617 0.0015,-0.0021 0.0044,-0.0037 0.0059,-0.0059 0.02435,-0.03601 0.04851,-0.0758 0.07227,-0.117188 0.0016,-0.0027 0.0023,-0.007 0.0039,-0.0098 0.05009,-0.08833 0.09943,-0.191913 0.148437,-0.300781 0.02813,-0.06243 0.05765,-0.129224 0.08594,-0.197265 0.03408,-0.08198 0.06861,-0.161231 0.103515,-0.25 0.0014,-0.0036 0.0025,-0.0081 0.0039,-0.01172 0.0037,-0.0094 0.008,-0.01985 0.01172,-0.0293 0.08998,-0.229915 0.185238,-0.478612 0.289063,-0.734375 0.02466,-0.06081 0.04644,-0.114371 0.07227,-0.175781 0.03172,-0.07542 0.06783,-0.150808 0.101563,-0.226563 0.04534,-0.101844 0.08715,-0.20354 0.136719,-0.304687 0.04006,-0.08175 0.08179,-0.161784 0.125,-0.242188 0.0028,-0.0051 0.005,-0.01049 0.0078,-0.01563 0.04481,-0.08285 0.09204,-0.165597 0.140625,-0.246094 v -1.564453 h 2.347656 c 0.04796,-0.0023 0.09699,-0.0039 0.146485,-0.0039 0.0046,0 0.0091,-2.91e-4 0.01367,0 0.0046,-1.49e-4 0.009,0 0.01367,0 0.004,0 0.0078,-2.25e-4 0.01172,0 V 22.285156 H 29.501953 V 19.75 h 2.533203 v -2.533203 h -2.533203 v -2.533203 h 2.533203 V 12.148438 H 29.501953 V 9.6152344 h 2.533203 V 7.0820312 Z m 6.755859,0 V 9.6152344 H 34.568359 32.0625 v 2.5332036 h 2.505859 0.02734 v 2.535156 H 34.568359 32.0625 v 2.533203 h 2.505859 0.02734 V 19.75 H 34.568359 32.0625 v 2.535156 h 2.505859 0.02734 v 2.533203 h -0.02734 -2.425781 c 0.0643,0.003 0.125889,0.0106 0.1875,0.01758 0.01793,0.0019 0.03698,0.0017 0.05469,0.0039 0.0038,5.09e-4 0.0079,0.0014 0.01172,0.002 0.02994,0.0041 0.05858,0.0106 0.08789,0.01563 0.07972,0.01366 0.157256,0.03066 0.232422,0.05078 0.0044,0.0011 0.0093,8.08e-4 0.01367,0.002 0.06342,0.01735 0.125254,0.03692 0.185547,0.05859 2.280729,0.795643 2.385288,4.576172 3.330078,4.576172 v 0.341797 h 0.04102 V 7.0820312 Z"
     style="opacity:0.187567;mix-blend-mode:normal;fill:none;stroke-width:0.3;filter:url(#filter20)"
     id="path17"
     transform="matrix(1.0580325,0,0,1.0580325,-1.898368,-2.7786868)" />
</svg>
