<?xml version="1.0" encoding="UTF-8" standalone="no"?>
<svg
   width="64"
   height="64"
   version="1.1"
   id="svg13"
   sodipodi:docname="basilisk2.svg"
   xml:space="preserve"
   inkscape:version="1.4.3 (0d15f75042, 2025-12-25)"
   xmlns:inkscape="http://www.inkscape.org/namespaces/inkscape"
   xmlns:sodipodi="http://sodipodi.sourceforge.net/DTD/sodipodi-0.dtd"
   xmlns:xlink="http://www.w3.org/1999/xlink"
   xmlns="http://www.w3.org/2000/svg"
   xmlns:svg="http://www.w3.org/2000/svg"><defs
     id="defs13"><linearGradient
       id="linearGradient15"
       inkscape:collect="always"><stop
         style="stop-color:#ffffff;stop-opacity:1;"
         offset="0"
         id="stop15" /><stop
         style="stop-color:#000000;stop-opacity:1;"
         offset="1"
         id="stop16" /></linearGradient><radialGradient
       inkscape:collect="always"
       xlink:href="#linearGradient15"
       id="radialGradient16"
       cx="17.012526"
       cy="22.103134"
       fx="17.012526"
       fy="22.103134"
       r="21.245926"
       gradientTransform="matrix(-0.54863254,2.0475245,-1.8385354,-0.49263407,70.090648,1.9937763)"
       gradientUnits="userSpaceOnUse" /></defs><sodipodi:namedview
     id="namedview13"
     pagecolor="#000000"
     bordercolor="#000000"
     borderopacity="0.25"
     inkscape:showpageshadow="2"
     inkscape:pageopacity="0.0"
     inkscape:pagecheckerboard="0"
     inkscape:deskcolor="#d1d1d1"
     inkscape:zoom="16.497789"
     inkscape:cx="33.307494"
     inkscape:cy="32.640737"
     inkscape:window-width="2546"
     inkscape:window-height="1383"
     inkscape:window-x="0"
     inkscape:window-y="0"
     inkscape:window-maximized="0"
     inkscape:current-layer="svg13" /><path
     id="rect13-0"
     style="opacity:1;fill:#00a1de;fill-opacity:1;stroke:none;stroke-width:0"
     d="m 15.376848,51.219664 c 1.699713,3.445241 3.710454,6.079407 5.755234,6.59936 h 2.805316 c 4.014716,-0.376148 5.830933,-1.756937 9.028705,-1.756937 3.19777,0 5.013989,1.380789 9.028705,1.756937 h 2.8017 c 2.038233,-0.520774 4.032425,-3.161863 5.724507,-6.59936 l -18.27427,-2.424567 z"
     sodipodi:nodetypes="cccsccccc" /><path
     id="rect13-0-8"
     style="opacity:1;fill:#b01cab;fill-opacity:1;stroke:none;stroke-width:0"
     d="m 12.808322,44.620304 c 0.63018,2.036845 1.371293,4.055536 2.226899,5.888993 0.112188,0.240405 0.226496,0.477002 0.341627,0.710367 h 35.144167 c 0.114898,-0.233418 0.227773,-0.470018 0.339819,-0.710367 0.856039,-1.836279 1.635792,-3.845948 2.279319,-5.888993 L 31.095076,42.135123 Z"
     sodipodi:nodetypes="csccsccc" /><path
     id="rect13-0-2"
     style="opacity:1;fill:#cf0f2b;fill-opacity:1;stroke:none;stroke-width:0"
     d="m 11.181528,38.020944 c 0.271216,1.596862 0.680714,3.322994 1.178522,5.084634 0.142584,0.504581 0.292091,1.009926 0.448272,1.514726 h 40.331831 c 0.03609,-0.114581 0.07142,-0.228664 0.106645,-0.343434 -0.814315,-0.298738 -1.590829,-0.691848 -2.313662,-1.171292 -1.876795,-1.232858 -3.335773,-3.005689 -4.184475,-5.084634 L 30.185863,35.596377 Z"
     sodipodi:nodetypes="csccccccc" /><path
     id="rect13-0-5"
     style="opacity:1;fill:#ff661c;fill-opacity:1;stroke:none;stroke-width:0"
     d="m 10.957392,31.421584 c -0.13064,0.802701 -0.202446,1.6155 -0.202446,2.429346 0,1.060175 0.139247,2.338239 0.350665,3.701859 0.02403,0.154983 0.04915,0.310581 0.07592,0.468155 h 35.567134 c -0.06316,-0.154686 -0.122827,-0.310777 -0.178947,-0.468155 -0.424428,-1.188233 -0.643261,-2.440105 -0.647103,-3.701859 0.0031,-0.81756 0.09644,-1.632279 0.278363,-2.429346 L 29.579721,29.421316 Z"
     sodipodi:nodetypes="cssccccccc" /><path
     id="rect13-0-3"
     style="opacity:1;fill:#ffc728;fill-opacity:1;stroke:none;stroke-width:0"
     d="m 13.440963,24.824032 c -1.001021,1.595378 -1.772029,3.415143 -2.2269,5.325038 -0.100286,0.421085 -0.187104,0.845066 -0.256671,1.272514 h 35.243582 c 0.09866,-0.431209 0.223004,-0.856137 0.372355,-1.272514 0.757675,-2.142684 2.154496,-4.001326 4.001912,-5.325038 L 32.246745,23.732977 Z"
     sodipodi:nodetypes="cscccccc" /><path
     id="path2-6-4"
     style="opacity:0.130394;fill:url(#radialGradient16);fill-opacity:1;stroke:none;stroke-width:0.185093;stroke-dasharray:none;stroke-opacity:1"
     d="m 42.219878,6.0869836 c 0,0 -3.701865,0 -7.403719,3.7018599 -3.701855,3.7018595 -3.70186,9.2546485 -3.70186,9.2546485 0,0 5.552795,0 9.254649,-5.552789 1.451988,-2.177984 1.85093,-7.4037194 1.85093,-7.4037194 z M 21.859651,19.043492 c -3.072733,0 -6.143147,2.273071 -8.274958,5.552789 -1.071637,1.648677 -1.894922,3.551729 -2.371503,5.552789 -0.288615,1.211834 -0.459118,2.454631 -0.459118,3.70186 0,1.060175 0.139247,2.338239 0.350665,3.701859 0.267531,1.725576 0.707509,3.617315 1.254439,5.552789 0.717906,2.540537 1.607517,5.115868 2.675171,7.403719 1.964939,4.210619 4.394581,7.403719 6.825304,7.403719 5.552782,0 7.403723,-1.850929 11.105578,-1.850929 3.701854,0 5.552798,1.850929 11.105579,1.850929 2.426582,0 4.8316,-3.204596 6.78915,-7.403719 0.90405,-1.939265 1.72264,-4.071235 2.38597,-6.232427 a 11.105563,11.105578 0 0 1 -2.31366,-1.171292 11.105563,11.105578 0 0 1 -4.363428,-5.552789 11.105563,11.105578 0 0 1 -0.647103,-3.701859 11.105563,11.105578 0 0 1 0.650718,-3.70186 11.105563,11.105578 0 0 1 4.330883,-5.552789 11.105563,11.105578 0 0 1 1.02308,-0.607336 c -2.104944,-2.947517 -4.977267,-4.945453 -7.85561,-4.945453 -7.403708,0 -7.403725,1.85093 -11.105579,1.85093 -3.701855,0 -3.701869,-1.85093 -11.105578,-1.85093 z" /><path
     id="rect13-0-7"
     style="opacity:1;fill:#75bd21;fill-opacity:1;stroke:none;stroke-width:0"
     d="m 42.220752,6.0869837 c 0,0 -3.701865,0 -7.403719,3.7018595 -3.701855,3.7018598 -3.70186,9.2546488 -3.70186,9.2546488 0,0 5.552795,0 9.254649,-5.552789 1.451988,-2.177984 1.85093,-7.4037193 1.85093,-7.4037193 z M 21.860525,19.043492 c -3.072733,0 -6.143147,2.273071 -8.274958,5.552789 -0.04736,0.07286 -0.09461,0.146682 -0.140988,0.220521 h 37.1397 a 11.105563,11.105578 0 0 1 0.319936,-0.220521 11.105563,11.105578 0 0 1 1.023072,-0.607336 c -2.104939,-2.947517 -4.977262,-4.945453 -7.855605,-4.945453 -7.403708,0 -7.403725,1.85093 -11.105579,1.85093 -3.701855,0 -3.701869,-1.85093 -11.105578,-1.85093 z" /></svg>
