<?xml version="1.0" encoding="UTF-8" standalone="no"?>
<svg
   width="64"
   height="64"
   version="1.1"
   id="svg4"
   sodipodi:docname="steam_icon_949230.svg"
   inkscape:version="1.4.2 (ebf0e940d0, 2025-05-08)"
   xmlns:inkscape="http://www.inkscape.org/namespaces/inkscape"
   xmlns:sodipodi="http://sodipodi.sourceforge.net/DTD/sodipodi-0.dtd"
   xmlns:xlink="http://www.w3.org/1999/xlink"
   xmlns="http://www.w3.org/2000/svg"
   xmlns:svg="http://www.w3.org/2000/svg">
  <defs
     id="defs4">
    <inkscape:path-effect
       effect="fillet_chamfer"
       id="path-effect5"
       is_visible="true"
       lpeversion="1"
       nodesatellites_param="F,0,1,1,0,3.5651792,0,1 @ F,0,1,1,0,3.5651792,0,1 @ F,0,1,1,0,3.5651792,0,1 @ F,0,1,1,0,3.5651792,0,1 @ F,0,1,1,0,3.5651792,0,1 @ F,0,0,1,0,3.5651792,0,1"
       radius="0"
       unit="px"
       method="auto"
       mode="F"
       chamfer_steps="1"
       flexible="false"
       use_knot_distance="true"
       apply_no_radius="true"
       apply_with_radius="true"
       only_selected="false"
       hide_knots="false" />
    <radialGradient
       id="SVGID_1_-3-2"
       cx="-159.43106"
       cy="15.462561"
       r="64.706802"
       gradientTransform="matrix(-0.89413329,0,0,0.96304834,-21.262675,49.376814)"
       gradientUnits="userSpaceOnUse"
       fx="-159.43106"
       fy="15.462561">
	<stop
   offset="0"
   style="stop-color:#006fff;stop-opacity:1;"
   id="stop1-6-9" />

	<stop
   offset="1"
   style="stop-color:#15baff;stop-opacity:1;"
   id="stop2-7-1" />

</radialGradient>
    <radialGradient
       inkscape:collect="always"
       xlink:href="#SVGID_1_-3-2"
       id="radialGradient5"
       cx="57.850945"
       cy="50.897812"
       fx="57.850945"
       fy="50.897812"
       r="18.182283"
       gradientTransform="matrix(0,-2.6777596,2.6750616,0,-78.303843,209.0779)"
       gradientUnits="userSpaceOnUse" />
    <filter
       inkscape:collect="always"
       style="color-interpolation-filters:sRGB"
       id="filter5"
       x="-0.066948703"
       y="-0.058785215"
       width="1.1303994"
       height="1.1175818">
      <feGaussianBlur
         inkscape:collect="always"
         stdDeviation="0.97021846"
         id="feGaussianBlur5" />
    </filter>
    <radialGradient
       id="SVGID_1_-3-2-9"
       cx="-159.43106"
       cy="15.462561"
       r="64.706802"
       gradientTransform="matrix(-0.89413329,0,0,0.96304834,-21.262675,49.376814)"
       gradientUnits="userSpaceOnUse"
       fx="-159.43106"
       fy="15.462561">
	<stop
   offset="0"
   style="stop-color:#006fff;stop-opacity:1;"
   id="stop1-6-9-6" />

	<stop
   offset="1"
   style="stop-color:#15baff;stop-opacity:1;"
   id="stop2-7-1-9" />

</radialGradient>
    <inkscape:path-effect
       effect="fillet_chamfer"
       id="path-effect5-3"
       is_visible="true"
       lpeversion="1"
       nodesatellites_param="F,0,1,1,0,3.5651792,0,1 @ F,0,1,1,0,3.5651792,0,1 @ F,0,1,1,0,3.5651792,0,1 @ F,0,1,1,0,3.5651792,0,1 @ F,0,1,1,0,3.5651792,0,1 @ F,0,0,1,0,3.5651792,0,1"
       radius="0"
       unit="px"
       method="auto"
       mode="F"
       chamfer_steps="1"
       flexible="false"
       use_knot_distance="true"
       apply_no_radius="true"
       apply_with_radius="true"
       only_selected="false"
       hide_knots="false" />
    <filter
       inkscape:collect="always"
       style="color-interpolation-filters:sRGB"
       id="filter6"
       x="-0.080034289"
       y="-0.072633848"
       width="1.1600686"
       height="1.1452677">
      <feGaussianBlur
         inkscape:collect="always"
         stdDeviation="1.1761788"
         id="feGaussianBlur6" />
    </filter>
  </defs>
  <sodipodi:namedview
     id="namedview4"
     pagecolor="#ffffff"
     bordercolor="#000000"
     borderopacity="0.25"
     inkscape:showpageshadow="2"
     inkscape:pageopacity="0.0"
     inkscape:pagecheckerboard="0"
     inkscape:deskcolor="#d1d1d1"
     inkscape:zoom="13.908696"
     inkscape:cx="37.638322"
     inkscape:cy="32.138166"
     inkscape:current-layer="svg4" />
  <path
     id="path4"
     style="opacity:1;fill:url(#radialGradient5);stroke-width:0.2;stroke-linecap:square;stroke-miterlimit:7.4"
     transform="matrix(1.3971102,0,0,1.3971102,-14.809086,-9.5857536)"
     d="m 48.498967,41.987952 -11.907212,6.874632 a 6.1750712,6.1750712 0 0 1 -6.175072,0 L 18.509471,41.987952 A 6.1750717,6.1750717 60.000001 0 1 15.421935,36.640183 V 22.890918 a 6.1750716,6.1750716 120 0 1 3.087536,-5.347769 l 11.907212,-6.874632 a 6.1750714,6.1750714 0 0 1 6.175072,0 l 11.907212,6.874632 a 6.1750716,6.1750716 60 0 1 3.087536,5.347769 v 13.749265 a 6.1750717,6.1750717 120 0 1 -3.087536,5.347769 z"
     inkscape:path-effect="#path-effect5"
     inkscape:original-d="M 51.586503,40.205362 33.504219,50.645174 15.421935,40.205362 V 19.325739 L 33.504219,8.8859272 51.586503,19.325739 Z" />
  <path
     id="path4-8"
     style="fill:none;stroke-width:0.14315264;stroke-linecap:square;stroke-miterlimit:7.4;stroke:#000000;stroke-opacity:1;stroke-dasharray:none;filter:url(#filter6)"
     transform="matrix(1.3971102,0,0,1.3971102,-14.809086,-9.5857543)"
     d="m 48.498967,41.987952 -11.907212,6.874632 a 6.1750712,6.1750712 0 0 1 -6.175072,0 L 18.509471,41.987952 A 6.1750717,6.1750717 60.000001 0 1 15.421935,36.640183 V 22.890918 a 6.1750716,6.1750716 120 0 1 3.087536,-5.347769 l 11.907212,-6.874632 a 6.1750714,6.1750714 0 0 1 6.175072,0 l 11.907212,6.874632 a 6.1750716,6.1750716 60 0 1 3.087536,5.347769 v 13.749265 a 6.1750717,6.1750717 120 0 1 -3.087536,5.347769 z"
     inkscape:path-effect="#path-effect5-3"
     inkscape:original-d="M 51.586503,40.205362 33.504219,50.645174 15.421935,40.205362 V 19.325739 L 33.504219,8.8859272 51.586503,19.325739 Z" />
  <path
     d="m 33.06731,10.736851 v 0.0041 c -0.0026,3.065901 8.59e-4,6.132902 0,9.198804 5.880851,3.348677 11.760488,6.69275 17.641769,10.041853 0.141612,0.07655 0.277552,0.168766 0.427755,0.232566 v -7.221995 c 0.0034,-0.216867 -0.0026,-0.433121 -0.05399,-0.647862 C 50.958415,21.606165 50.562795,20.913762 49.986466,20.429851 49.677491,20.161957 49.306277,19.987799 48.956532,19.781989 44.915377,17.480657 40.8752,15.180692 36.834045,12.879778 35.577971,12.166669 34.3251,11.447834 33.06731,10.736851 Z m -2.130467,0.0042 c -0.205806,0.114715 -0.405529,0.234143 -0.610485,0.348849 -5.232427,3.007219 -10.465764,6.013006 -15.698185,9.020226 -0.180226,0.102063 -0.358646,0.208825 -0.519119,0.336389 -0.710219,0.553648 -1.172201,1.410213 -1.229276,2.304894 v 6.960357 c 0.0021,0.229625 0.0028,0.46392 0.04568,0.693545 0.07723,0.525157 0.338129,1.021163 0.735073,1.378783 0.227431,0.221118 0.515841,0.360408 0.784909,0.523271 2.257515,1.364376 6.920855,3.945312 6.920855,3.945312 l 0.0043,-10.560975 9.566391,-5.743542 z m 11.686439,17.00222 0.01658,0.0083 v -0.0083 z m 0.01658,0.0083 -0.0083,10.627428 c 0,0 -6.206415,3.765903 -9.564389,5.685387 0.0013,3.065051 -0.0047,6.129602 0,9.194651 0.34761,-0.195621 0.697661,-0.398157 1.046546,-0.598026 5.011423,-2.880923 10.026013,-5.761378 15.037863,-8.642307 0.261791,-0.153094 0.529837,-0.295375 0.764144,-0.485897 0.595636,-0.471153 1.014916,-1.156302 1.158676,-1.897902 0.08582,-0.403957 0.05384,-0.816479 0.05813,-1.225123 -4.29e-4,-2.041949 -4.29e-4,-4.084089 0,-6.125613 -0.0021,-0.233878 0.0014,-0.475856 -0.04153,-0.710157 -0.09873,-0.674414 -0.519639,-1.293759 -1.108841,-1.644571 -2.279444,-1.326629 -7.342416,-4.17787 -7.342416,-4.17787 z m -29.768395,6.030103 -0.0083,0.0043 c 0.0028,0.0012 0.0056,0.003 0.0083,0.0043 z m 0,0.0083 c -8.56e-4,2.361238 0,4.719981 0,7.080794 0.0021,0.136084 0,0.275001 0,0.415297 0.04291,0.591494 0.232796,1.170141 0.573108,1.657029 0.27034,0.391199 0.634439,0.724931 1.050699,0.963486 5.479177,3.118643 10.954508,6.238002 16.433258,9.35663 0.0034,-3.066325 0.0023,-6.132477 0.0043,-9.198804 -1.4068,-0.8041 -2.815668,-1.60258 -4.223659,-2.404562 -4.484878,-2.553924 -8.970708,-5.10871 -13.455587,-7.66221 -0.126188,-0.06669 -0.247966,-0.148317 -0.382072,-0.207648 z"
     style="fill:#ffffff;stroke-width:1.06316"
     id="path3" />
  <path
     d="m 33.066921,10.736821 v 0.0041 c -0.0026,3.065901 8.59e-4,6.132901 0,9.198803 5.880851,3.348677 11.760488,6.69275 17.641769,10.041853 0.141612,0.07655 0.277552,0.168767 0.427755,0.232566 v -7.221995 c 0.0034,-0.216867 -0.0026,-0.433121 -0.05399,-0.647862 -0.124429,-0.738152 -0.520049,-1.430555 -1.096378,-1.914465 -0.308975,-0.267895 -0.680189,-0.442052 -1.029934,-0.647862 -4.041155,-2.301333 -8.081332,-4.601297 -12.122487,-6.902211 -1.256074,-0.71311 -2.508945,-1.431944 -3.766735,-2.142927 z m -2.130467,0.0042 c -0.205806,0.114715 -0.405529,0.234143 -0.610485,0.348849 -5.232427,3.007219 -10.465764,6.013005 -15.698185,9.020225 -0.180226,0.102063 -0.358646,0.208825 -0.519119,0.336389 -0.710219,0.553648 -1.172201,1.410213 -1.229276,2.304895 v 6.960357 c 0.0021,0.229625 0.0028,0.46392 0.04568,0.693545 0.07723,0.525157 0.338129,1.021163 0.735073,1.378783 0.227431,0.221117 0.515841,0.360408 0.784909,0.523271 2.257515,1.364376 6.920855,3.945312 6.920855,3.945312 l 0.0043,-10.560975 9.566391,-5.743542 z m 11.686439,17.00222 0.01658,0.0083 v -0.0083 z m 0.01658,0.0083 -0.0083,10.627428 c 0,0 -6.206415,3.765903 -9.564389,5.685387 0.0013,3.065051 -0.0047,6.129602 0,9.194651 0.34761,-0.195621 0.697661,-0.398157 1.046546,-0.598026 5.011423,-2.880923 10.026013,-5.761378 15.037863,-8.642307 0.261791,-0.153094 0.529837,-0.295375 0.764144,-0.485897 0.595636,-0.471153 1.014916,-1.156302 1.158676,-1.897902 0.08582,-0.403957 0.05384,-0.816479 0.05813,-1.225123 -4.29e-4,-2.041949 -4.29e-4,-4.084089 0,-6.125613 -0.0021,-0.233878 0.0014,-0.475856 -0.04153,-0.710157 -0.09873,-0.674414 -0.519639,-1.293759 -1.108841,-1.644571 -2.279444,-1.326629 -7.342416,-4.17787 -7.342416,-4.17787 z m -29.768395,6.030104 -0.0083,0.0043 c 0.0028,0.0012 0.0056,0.003 0.0083,0.0043 z m 0,0.0083 c -8.56e-4,2.361238 0,4.719981 0,7.080794 0.0021,0.136084 0,0.275001 0,0.415297 0.04291,0.591494 0.232796,1.170141 0.573108,1.657029 0.27034,0.391199 0.634439,0.724931 1.050699,0.963487 5.479177,3.118643 10.954508,6.238002 16.433258,9.356629 0.0034,-3.066325 0.0023,-6.132477 0.0043,-9.198804 -1.4068,-0.8041 -2.815668,-1.60258 -4.223659,-2.404562 -4.484878,-2.553924 -8.970708,-5.10871 -13.455587,-7.66221 -0.126188,-0.06669 -0.247966,-0.148317 -0.382072,-0.207648 z"
     style="fill:none;stroke-width:0.2;stroke:#0024ff;stroke-opacity:1;stroke-dasharray:none;filter:url(#filter5)"
     id="path3-9" />
</svg>
