<?xml version="1.0" encoding="UTF-8" standalone="no"?>
<svg
   width="64"
   height="64"
   version="1"
   id="svg4"
   sodipodi:docname="yast-host.svg"
   inkscape:version="1.4.3 (0d15f75042, 2025-12-25)"
   xmlns:inkscape="http://www.inkscape.org/namespaces/inkscape"
   xmlns:sodipodi="http://sodipodi.sourceforge.net/DTD/sodipodi-0.dtd"
   xmlns:xlink="http://www.w3.org/1999/xlink"
   xmlns="http://www.w3.org/2000/svg"
   xmlns:svg="http://www.w3.org/2000/svg">
  <defs
     id="defs4">
    <linearGradient
       id="linearGradient5"
       inkscape:collect="always">
      <stop
         style="stop-color:#02b3f3;stop-opacity:1;"
         offset="0"
         id="stop5" />
      <stop
         style="stop-color:#0270f3;stop-opacity:1;"
         offset="1"
         id="stop6" />
    </linearGradient>
    <radialGradient
       inkscape:collect="always"
       xlink:href="#linearGradient5"
       id="radialGradient6"
       cx="3.9041595"
       cy="42.012211"
       fx="3.9041595"
       fy="42.012211"
       r="28"
       gradientUnits="userSpaceOnUse"
       gradientTransform="matrix(2.1449973,1.2384147,-1.2384147,2.1449973,59.571544,-69.456807)" />
    <filter
       inkscape:collect="always"
       style="color-interpolation-filters:sRGB"
       id="filter1"
       x="-0.051126159"
       y="-0.051126159"
       width="1.1022523"
       height="1.1022523">
      <feGaussianBlur
         inkscape:collect="always"
         stdDeviation="0.81664319"
         id="feGaussianBlur1" />
    </filter>
    <filter
       inkscape:collect="always"
       style="color-interpolation-filters:sRGB"
       id="filter2"
       x="-0.069953984"
       y="-0.069953984"
       width="1.139908"
       height="1.139908">
      <feGaussianBlur
         inkscape:collect="always"
         stdDeviation="1.590593"
         id="feGaussianBlur2" />
    </filter>
  </defs>
  <sodipodi:namedview
     id="namedview4"
     pagecolor="#ffffff"
     bordercolor="#000000"
     borderopacity="0.25"
     inkscape:showpageshadow="2"
     inkscape:pageopacity="0.0"
     inkscape:pagecheckerboard="0"
     inkscape:deskcolor="#d1d1d1"
     inkscape:zoom="12.778485"
     inkscape:cx="26.841992"
     inkscape:cy="54.779575"
     inkscape:window-width="1920"
     inkscape:window-height="1018"
     inkscape:window-x="0"
     inkscape:window-y="0"
     inkscape:window-maximized="1"
     inkscape:current-layer="svg4" />
  <rect
     style="fill:url(#radialGradient6)"
     width="56"
     height="56"
     x="4"
     y="4"
     rx="27.999"
     ry="27.999"
     id="rect1" />
  <rect
     style="fill:none;stroke:#000000;stroke-opacity:1;stroke-width:0.19999992;stroke-dasharray:none;filter:url(#filter2)"
     width="56"
     height="56"
     x="4"
     y="4"
     rx="27.999001"
     ry="27.999001"
     id="rect1-5" />
  <path
     style="fill:#ffffff;stroke-width:1.17585"
     d="m 31.99921,8.5021627 c -12.987703,0 -23.5162779,10.5285733 -23.5162779,23.5162783 0,12.987704 10.5285749,23.516278 23.5162779,23.516278 12.987705,0 23.516278,-10.528574 23.516278,-23.516278 0,-12.987705 -10.528573,-23.5162783 -23.516278,-23.5162783 z m -2.200058,4.6894763 c 0.255871,-0.02679 0.577762,0.01529 0.835931,0 0.03059,0.122379 -0.181264,0.561462 -0.473082,1.198778 -1.858294,4.059587 -1.968078,8.812791 -0.243431,11.353953 0.312098,0.460729 0.597095,0.89837 0.597095,0.95535 0,0.05701 -0.335949,0.119415 -0.716513,0.119415 -0.893384,3e-6 -1.740357,-0.542852 -3.467732,-1.910697 -0.767364,-0.607638 -1.763044,-1.116935 -2.149535,-1.194186 -0.606911,-0.121249 -0.767299,-0.06872 -1.552442,0.716513 -0.730498,0.730378 -0.955348,1.12723 -0.955348,1.795871 0,2.535578 3.012027,4.546037 8.607324,5.732092 7.598636,1.610484 9.4679,3.054654 9.677501,7.05029 0.263154,5.010419 -2.401788,8.787425 -8.244478,11.71221 -0.697365,0.349198 -1.140431,0.488855 -1.433023,0.601685 -0.129669,-0.01152 -0.233587,0.01152 -0.362849,0 -0.04971,-0.154901 -0.119416,-0.513229 -0.119416,-1.194184 0,-2.661185 -1.046634,-5.403656 -2.627208,-6.935466 -0.424273,-0.411236 -1.609904,-1.280952 -2.62721,-1.910697 -1.01727,-0.629707 -2.044827,-1.359762 -2.273547,-1.67186 -0.378944,-0.517908 -0.406046,-0.834517 -0.114833,-1.791279 0.530715,-1.74741 1.160321,-2.726487 2.388372,-3.830581 0.643818,-0.578831 1.290397,-1.058653 1.433022,-1.070177 0.142674,-0.01152 -0.820906,-0.305459 -2.268953,-0.601684 -1.447975,-0.296799 -3.571374,-0.917246 -4.666511,-1.313606 -2.002563,-0.724595 -4.705917,-2.247397 -5.736684,-3.34831 -0.04358,-0.04668 -0.08156,-0.0781 -0.119418,-0.119416 1.47685,-5.882846 5.620863,-10.702278 11.115115,-13.025813 1.149605,-0.486242 2.336154,-0.818891 3.587152,-1.07477 0.623127,-0.127364 1.267296,-0.178017 1.910698,-0.243431 z m 17.931162,8.965583 c 0.44922,0.277675 2.147621,3.951294 2.631803,5.741278 0.625108,2.310875 0.579862,6.307117 0,8.602731 -0.2207,0.873725 -0.507599,1.689548 -0.601688,1.79128 -0.09409,0.101735 -0.439144,-0.478307 -0.840523,-1.189595 -0.401404,-0.711177 -1.676497,-2.224029 -2.742033,-3.348314 -3.075635,-3.245415 -3.561875,-4.937844 -2.273548,-7.527964 0.649713,-1.306113 3.478319,-4.283979 3.825989,-4.069416 z"
     id="path4" />
  <path
     style="opacity:1;fill:none;stroke:#0200ff;stroke-width:0.17009014;stroke-dasharray:none;stroke-opacity:1;filter:url(#filter1)"
     d="m 31.99921,11.901354 c -11.045402,0 -19.999436,8.954033 -19.999436,19.999436 0,11.045402 8.954034,19.999436 19.999436,19.999436 11.045403,0 19.999436,-8.954034 19.999436,-19.999436 0,-11.045403 -8.954033,-19.999436 -19.999436,-19.999436 z m -1.871041,3.988169 c 0.217606,-0.02278 0.491358,0.013 0.710918,0 0.02602,0.104077 -0.154156,0.477494 -0.402333,1.019501 -1.580387,3.452479 -1.673753,7.494845 -0.207026,9.655978 0.265424,0.391827 0.5078,0.764019 0.5078,0.812477 0,0.04848 -0.285708,0.101557 -0.609359,0.101557 -0.759779,2e-6 -1.480088,-0.461669 -2.949135,-1.624954 -0.652606,-0.516765 -1.499382,-0.949897 -1.828074,-1.015595 -0.516148,-0.103117 -0.65255,-0.05844 -1.320275,0.609359 -0.621253,0.62115 -0.812477,0.958653 -0.812477,1.527299 0,2.156385 2.561581,3.86618 7.320105,4.874862 6.462266,1.369637 8.051983,2.597833 8.230238,5.995925 0.2238,4.261114 -2.042602,7.473271 -7.011522,9.960657 -0.593075,0.296976 -0.969881,0.415746 -1.218716,0.511704 -0.110277,-0.0098 -0.198654,0.0098 -0.308585,0 -0.04228,-0.131737 -0.101557,-0.436476 -0.101557,-1.015596 0,-2.263206 -0.890111,-4.595542 -2.234311,-5.898271 -0.360824,-0.349737 -1.369144,-1.089388 -2.234313,-1.624955 -0.865138,-0.535534 -1.739025,-1.156409 -1.93354,-1.421833 -0.322273,-0.440456 -0.345322,-0.709716 -0.09766,-1.523396 0.451347,-1.486086 0.986796,-2.318742 2.031193,-3.25772 0.547536,-0.492268 1.097419,-0.900332 1.218715,-0.910132 0.121337,-0.0098 -0.69814,-0.259779 -1.929633,-0.511704 -1.231431,-0.252412 -3.037278,-0.780072 -3.968638,-1.117156 -1.703081,-0.616233 -4.00215,-1.9113 -4.878767,-2.847574 -0.03706,-0.0397 -0.06936,-0.06642 -0.101559,-0.101557 1.255988,-5.003071 4.780267,-9.101759 9.452858,-11.077812 0.977682,-0.413524 1.986784,-0.696426 3.050696,-0.914038 0.529939,-0.108317 1.077773,-0.151396 1.624954,-0.207026 z m 15.24957,7.624785 c 0.382039,0.236149 1.826446,3.360381 2.238219,4.882674 0.531623,1.965287 0.493144,5.363893 0,7.3162 -0.187695,0.743059 -0.431688,1.436878 -0.511706,1.523395 -0.08002,0.08652 -0.373471,-0.406776 -0.714824,-1.011691 -0.341374,-0.604821 -1.425778,-1.891427 -2.331964,-2.847576 -2.615676,-2.760066 -3.029199,-4.199394 -1.93354,-6.402163 0.552549,-1.110785 2.958139,-3.643314 3.253815,-3.460839 z"
     id="path3"
     transform="matrix(1.1758471,0,0,1.1758471,-5.6269669,-5.60966)" />
</svg>
