<?xml version="1.0" encoding="UTF-8" standalone="no"?>
<svg
   width="64"
   height="64"
   version="1.1"
   id="svg6"
   sodipodi:docname="discord-development.svg"
   inkscape:version="1.4.2 (ebf0e940d0, 2025-05-08)"
   xmlns:inkscape="http://www.inkscape.org/namespaces/inkscape"
   xmlns:sodipodi="http://sodipodi.sourceforge.net/DTD/sodipodi-0.dtd"
   xmlns:xlink="http://www.w3.org/1999/xlink"
   xmlns="http://www.w3.org/2000/svg"
   xmlns:svg="http://www.w3.org/2000/svg">
  <defs
     id="defs6">
    <linearGradient
       id="linearGradient6">
      <stop
         style="stop-color:#bfbfbf;stop-opacity:1;"
         offset="0"
         id="stop1" />
      <stop
         style="stop-color:#e4e4e4;stop-opacity:1;"
         offset="1"
         id="stop2" />
    </linearGradient>
    <linearGradient
       id="linearGradient6-1">
      <stop
         style="stop-color:#bfbfbf;stop-opacity:1;"
         offset="0"
         id="stop6" />
      <stop
         style="stop-color:#e4e4e4;stop-opacity:1;"
         offset="1"
         id="stop7" />
    </linearGradient>
    <linearGradient
       id="linearGradient1">
      <stop
         style="stop-color:#121212;stop-opacity:1;"
         offset="0"
         id="stop5" />
      <stop
         style="stop-color:#323232;stop-opacity:1;"
         offset="0.99961597"
         id="stop10" />
    </linearGradient>
    <filter
       inkscape:collect="always"
       style="color-interpolation-filters:sRGB"
       id="filter1"
       x="-0.083151098"
       y="-0.20808938"
       width="1.1663021"
       height="1.4161788">
      <feGaussianBlur
         inkscape:collect="always"
         stdDeviation="0.92624849"
         id="feGaussianBlur1" />
    </filter>
    <filter
       inkscape:collect="always"
       style="color-interpolation-filters:sRGB"
       id="filter2"
       x="-0.085281939"
       y="-0.11172158"
       width="1.1705641"
       height="1.2234729">
      <feGaussianBlur
         inkscape:collect="always"
         stdDeviation="1.8943976"
         id="feGaussianBlur2" />
    </filter>
    <inkscape:path-effect
       effect="fillet_chamfer"
       id="path-effect2-5"
       is_visible="true"
       lpeversion="1"
       nodesatellites_param="F,0,1,1,0,1.1161794,0,1 @ F,0,0,1,0,2.6743525,0,1 @ F,0,0,1,0,2.6703193,0,1 @ F,0,0,1,0,0,0,1 @ F,0,0,1,0,0,0,1 @ F,0,0,1,0,2.03666,0,1 @ F,0,0,1,0,0,0,1 @ F,0,0,1,0,0,0,1 @ F,0,0,1,0,2.03666,0,1 @ F,0,0,1,0,0,0,1 @ F,0,0,1,0,0,0,1 @ F,0,0,1,0,2.6703193,0,1 @ F,0,0,1,0,2.6743525,0,1 @ F,0,0,1,0,1.1161794,0,1 @ F,0,0,1,0,0,0,1"
       radius="0"
       unit="px"
       method="auto"
       mode="F"
       chamfer_steps="1"
       flexible="false"
       use_knot_distance="true"
       apply_no_radius="true"
       apply_with_radius="true"
       only_selected="false"
       hide_knots="false" />
    <radialGradient
       inkscape:collect="always"
       xlink:href="#linearGradient14-8"
       id="radialGradient15-2"
       cx="14.500158"
       cy="36.986565"
       fx="14.500158"
       fy="36.986565"
       r="27.279749"
       gradientTransform="matrix(2.602166,-0.69724827,0.53973806,2.0143299,-46.482595,-47.243157)"
       gradientUnits="userSpaceOnUse" />
    <linearGradient
       id="linearGradient14-8"
       inkscape:collect="always">
      <stop
         style="stop-color:#b9a2bf;stop-opacity:1;"
         offset="0"
         id="stop14-9" />
      <stop
         style="stop-color:#9d91c3;stop-opacity:1;"
         offset="1"
         id="stop15-7" />
    </linearGradient>
    <inkscape:path-effect
       effect="fillet_chamfer"
       id="path-effect2"
       is_visible="true"
       lpeversion="1"
       nodesatellites_param="F,0,1,1,0,1.1161794,0,1 @ F,0,0,1,0,2.6743525,0,1 @ F,0,0,1,0,2.6703193,0,1 @ F,0,0,1,0,0,0,1 @ F,0,0,1,0,0,0,1 @ F,0,0,1,0,2.03666,0,1 @ F,0,0,1,0,0,0,1 @ F,0,0,1,0,0,0,1 @ F,0,0,1,0,2.03666,0,1 @ F,0,0,1,0,0,0,1 @ F,0,0,1,0,0,0,1 @ F,0,0,1,0,2.6703193,0,1 @ F,0,0,1,0,2.6743525,0,1 @ F,0,0,1,0,1.1161794,0,1 @ F,0,0,1,0,0,0,1 | F,0,0,1,0,0,0,1 @ F,0,0,1,0,0,0,1 @ F,0,0,1,0,0,0,1 @ F,0,0,1,0,0,0,1 | F,0,0,1,0,0,0,1 @ F,0,0,1,0,0,0,1 @ F,0,0,1,0,0,0,1 @ F,0,0,1,0,0,0,1"
       radius="0"
       unit="px"
       method="auto"
       mode="F"
       chamfer_steps="1"
       flexible="false"
       use_knot_distance="true"
       apply_no_radius="true"
       apply_with_radius="true"
       only_selected="false"
       hide_knots="false" />
  </defs>
  <sodipodi:namedview
     id="namedview6"
     pagecolor="#ffffff"
     bordercolor="#000000"
     borderopacity="0.25"
     inkscape:showpageshadow="2"
     inkscape:pageopacity="0.0"
     inkscape:pagecheckerboard="0"
     inkscape:deskcolor="#d1d1d1"
     inkscape:zoom="12.6875"
     inkscape:cx="31.921182"
     inkscape:cy="31.842365"
     inkscape:window-width="2713"
     inkscape:window-height="1380"
     inkscape:window-x="0"
     inkscape:window-y="0"
     inkscape:window-maximized="0"
     inkscape:current-layer="svg6" />
  <g
     id="g1"
     transform="translate(-63.938581,0.25068016)">
    <path
       d="m 23.299831,11.115019 c -2.663788,0.514575 -5.216043,1.276707 -7.715557,2.279909 -1.370533,0.550076 -3.118609,2.063183 -3.875776,3.331193 -5.4072217,9.055354 -7.2300984,17.926957 -6.8484799,26.684327 0.064199,1.473228 1.1367136,3.386457 2.3643586,4.203353 3.4321843,2.283834 6.7921813,3.876563 10.1057013,5.032683 0.834161,0.291048 1.943892,-0.07657 2.429688,-0.814453 0.378065,-0.574249 0.739298,-1.161002 1.083273,-1.759693 0.560273,-0.975159 0.08938,-2.093514 -0.873632,-2.67192 -1.54351,-0.927069 -2.133878,-1.906918 -1.678391,-2.291043 8.977334,4.198931 18.731478,4.198931 27.601562,0 0.455989,0.380079 -0.130077,1.364308 -1.687738,2.29782 -0.963561,0.577465 -1.43356,1.695432 -0.873495,2.670718 0.343638,0.598404 0.704564,1.185412 1.082717,1.759978 0.485683,0.737946 1.597388,1.103284 2.431641,0.8125 3.317382,-1.156296 6.680529,-2.748996 10.114242,-5.035564 1.227361,-0.81732 2.30077,-2.731058 2.364763,-4.204287 0.431393,-9.931477 -2.075641,-18.747608 -6.861055,-26.698607 -0.761571,-1.265356 -2.516475,-2.772417 -3.889298,-3.316697 -2.470447,-0.979454 -5.045874,-1.743976 -7.70361,-2.273055 -0.604569,-0.120353 -1.351188,0.246652 -1.830886,0.627424 -1.376396,1.092548 -4.047009,1.708162 -6.946109,1.688848 -2.900338,0.01395 -5.577145,-0.598766 -6.959209,-1.690897 -0.480605,-0.379783 -1.229469,-0.749454 -1.83471,-0.632537 z m -0.270534,17.431856 c 2.742172,0 4.951488,2.513924 4.904297,5.582031 0.0043,3.063696 -2.162125,5.580078 -4.904297,5.580078 -2.694906,0 -4.90625,-2.516382 -4.90625,-5.580078 0,-3.063694 2.164152,-5.582031 4.90625,-5.582031 z m 18.125,0 c 2.742098,0 4.953442,2.513924 4.90625,5.582031 0,3.063696 -2.164152,5.580078 -4.90625,5.580078 -2.694906,0 -4.904297,-2.516382 -4.904297,-5.580078 0,-3.063694 2.162125,-5.582031 4.904297,-5.582031 z"
       style="fill:url(#radialGradient15-2);stroke-width:0.213123"
       id="path2"
       sodipodi:nodetypes="cccssccccsscccccscsssscsss"
       inkscape:path-effect="#path-effect2"
       inkscape:original-d="m 24.398437,10.917922 c -3.950345,0.65481 -7.643858,1.843273 -11.265624,3.544969 -7.1235313,10.764588 -9.0553822,21.263168 -8.0898443,31.611328 4.194284,3.132186 8.2747703,5.17232 12.2871093,6.572265 0.834161,0.291048 1.943892,-0.07657 2.429688,-0.814453 0.748767,-1.137314 1.431511,-2.323675 2.044921,-3.554687 -2.875499,-1.09273 -4.119409,-2.657133 -3.513671,-3.167969 8.977334,4.198931 18.731478,4.198931 27.601562,0 0.604988,0.504274 -0.624345,2.072026 -3.523437,3.173828 0.613659,1.228341 1.295455,2.415949 2.044921,3.554688 0.485683,0.737946 1.597388,1.103284 2.431641,0.8125 4.016546,-1.399994 8.10018,-3.439728 12.294922,-6.576172 1.132918,-11.996155 -1.936148,-22.397393 -8.111328,-31.619141 -3.531732,-1.652408 -7.307849,-2.853305 -11.25586,-3.537109 -0.888211,1.605851 -4.110822,2.54426 -7.679687,2.520484 -3.568727,0.01716 -6.799026,-0.914448 -7.695313,-2.520531 z m -1.36914,17.628953 c 2.742172,0 4.951488,2.513924 4.904297,5.582031 0.0043,3.063696 -2.162125,5.580078 -4.904297,5.580078 -2.694906,0 -4.90625,-2.516382 -4.90625,-5.580078 0,-3.063694 2.164152,-5.582031 4.90625,-5.582031 z m 18.125,0 c 2.742098,0 4.953442,2.513924 4.90625,5.582031 0,3.063696 -2.164152,5.580078 -4.90625,5.580078 -2.694906,0 -4.904297,-2.516382 -4.904297,-5.580078 0,-3.063694 2.162125,-5.582031 4.904297,-5.582031 z"
       transform="translate(63.938576,-0.25130015)" />
    <path
       d="m 23.299831,11.115019 c -2.663788,0.514575 -5.216043,1.276707 -7.715557,2.279909 -1.370533,0.550076 -3.118609,2.063183 -3.875776,3.331193 -5.4072217,9.055354 -7.2300984,17.926957 -6.8484799,26.684327 0.064199,1.473228 1.1367136,3.386457 2.3643586,4.203353 3.4321843,2.283834 6.7921813,3.876563 10.1057013,5.032683 0.834161,0.291048 1.943892,-0.07657 2.429688,-0.814453 0.378065,-0.574249 0.739298,-1.161002 1.083273,-1.759693 0.560273,-0.975159 0.08938,-2.093514 -0.873632,-2.67192 -1.54351,-0.927069 -2.133878,-1.906918 -1.678391,-2.291043 8.977334,4.198931 18.731478,4.198931 27.601562,0 0.455989,0.380079 -0.130077,1.364308 -1.687738,2.29782 -0.963561,0.577465 -1.43356,1.695432 -0.873495,2.670718 0.343638,0.598404 0.704564,1.185412 1.082717,1.759978 0.485683,0.737946 1.597388,1.103284 2.431641,0.8125 3.317382,-1.156296 6.680529,-2.748996 10.114242,-5.035564 1.227361,-0.81732 2.30077,-2.731058 2.364763,-4.204287 0.431393,-9.931477 -2.075641,-18.747608 -6.861055,-26.698607 -0.761571,-1.265356 -2.516475,-2.772417 -3.889298,-3.316697 -2.470447,-0.979454 -5.045874,-1.743976 -7.70361,-2.273055 -0.604569,-0.120353 -1.351188,0.246652 -1.830886,0.627424 -1.376396,1.092548 -4.047009,1.708162 -6.946109,1.688848 -2.900338,0.01395 -5.577145,-0.598766 -6.959209,-1.690897 -0.480605,-0.379783 -1.229469,-0.749454 -1.83471,-0.632537 z"
       style="fill:none;stroke:#000000;stroke-width:0.213123;stroke-opacity:1;filter:url(#filter2)"
       id="path2-3"
       sodipodi:nodetypes="cccssccccssccccc"
       inkscape:path-effect="#path-effect2-5"
       inkscape:original-d="m 24.398437,10.917922 c -3.950345,0.65481 -7.643858,1.843273 -11.265624,3.544969 -7.1235313,10.764588 -9.0553822,21.263168 -8.0898443,31.611328 4.194284,3.132186 8.2747703,5.17232 12.2871093,6.572265 0.834161,0.291048 1.943892,-0.07657 2.429688,-0.814453 0.748767,-1.137314 1.431511,-2.323675 2.044921,-3.554687 -2.875499,-1.09273 -4.119409,-2.657133 -3.513671,-3.167969 8.977334,4.198931 18.731478,4.198931 27.601562,0 0.604988,0.504274 -0.624345,2.072026 -3.523437,3.173828 0.613659,1.228341 1.295455,2.415949 2.044921,3.554688 0.485683,0.737946 1.597388,1.103284 2.431641,0.8125 4.016546,-1.399994 8.10018,-3.439728 12.294922,-6.576172 1.132918,-11.996155 -1.936148,-22.397393 -8.111328,-31.619141 -3.531732,-1.652408 -7.307849,-2.853305 -11.25586,-3.537109 -0.888211,1.605851 -4.110822,2.54426 -7.679687,2.520484 -3.568727,0.01716 -6.799026,-0.914448 -7.695313,-2.520531 z"
       transform="translate(63.846674,-0.17300815)" />
    <path
       d="m 86.969864,39.519794 c -2.694908,0 -4.904952,-2.51586 -4.904952,-5.579559 0,-3.063698 2.162852,-5.583896 4.904952,-5.583896 2.742176,0 4.952145,2.515786 4.904953,5.583896 0.0043,3.063699 -2.162777,5.579559 -4.904953,5.579559 z m 18.126406,0 c -2.69491,0 -4.90495,-2.51586 -4.90495,-5.579559 0,-3.063698 2.16277,-5.583896 4.90495,-5.583896 2.7421,0 4.95214,2.515786 4.90495,5.583896 0,3.063699 -2.16285,5.579559 -4.90495,5.579559 z"
       style="mix-blend-mode:normal;fill:none;fill-rule:nonzero;stroke:#000000;stroke-width:0.20000001;stroke-dasharray:none;stroke-opacity:1;filter:url(#filter1)"
       id="path1-3" />
  </g>
</svg>
