<?xml version="1.0" encoding="UTF-8" standalone="no"?>
<svg
   width="64"
   height="64"
   version="1.1"
   id="svg6"
   sodipodi:docname="discord-canary.svg"
   inkscape:version="1.4.3 (0d15f75042, 2025-12-25)"
   xmlns:inkscape="http://www.inkscape.org/namespaces/inkscape"
   xmlns:sodipodi="http://sodipodi.sourceforge.net/DTD/sodipodi-0.dtd"
   xmlns:xlink="http://www.w3.org/1999/xlink"
   xmlns="http://www.w3.org/2000/svg"
   xmlns:svg="http://www.w3.org/2000/svg">
  <defs
     id="defs6">
    <linearGradient
       id="linearGradient7"
       inkscape:collect="always">
      <stop
         style="stop-color:#ffc69b;stop-opacity:1;"
         offset="0"
         id="stop6" />
      <stop
         style="stop-color:#ffc099;stop-opacity:1;"
         offset="1"
         id="stop7" />
    </linearGradient>
    <linearGradient
       id="linearGradient1">
      <stop
         style="stop-color:#3f3f3f;stop-opacity:1;"
         offset="0"
         id="stop1" />
      <stop
         style="stop-color:#2b2b2b;stop-opacity:1;"
         offset="0.99961597"
         id="stop2" />
    </linearGradient>
    <linearGradient
       id="linearGradient2"
       inkscape:collect="always">
      <stop
         style="stop-color:#9e00ff;stop-opacity:1;"
         offset="0"
         id="stop3" />
      <stop
         style="stop-color:#914cff;stop-opacity:1;"
         offset="1"
         id="stop4" />
    </linearGradient>
    <radialGradient
       inkscape:collect="always"
       xlink:href="#linearGradient2"
       id="radialGradient1"
       cx="32.088093"
       cy="32.92907"
       fx="32.088093"
       fy="32.92907"
       r="30.514181"
       gradientUnits="userSpaceOnUse" />
    <linearGradient
       id="linearGradient1-1">
      <stop
         style="stop-color:#3f3f3f;stop-opacity:1;"
         offset="0"
         id="stop5" />
      <stop
         style="stop-color:#2b2b2b;stop-opacity:1;"
         offset="0.99961597"
         id="stop10" />
    </linearGradient>
    <inkscape:path-effect
       effect="fillet_chamfer"
       id="path-effect2-5"
       is_visible="true"
       lpeversion="1"
       nodesatellites_param="F,0,1,1,0,1.1161794,0,1 @ F,0,0,1,0,2.6743525,0,1 @ F,0,0,1,0,2.6703193,0,1 @ F,0,0,1,0,0,0,1 @ F,0,0,1,0,0,0,1 @ F,0,0,1,0,2.03666,0,1 @ F,0,0,1,0,0,0,1 @ F,0,0,1,0,0,0,1 @ F,0,0,1,0,2.03666,0,1 @ F,0,0,1,0,0,0,1 @ F,0,0,1,0,0,0,1 @ F,0,0,1,0,2.6703193,0,1 @ F,0,0,1,0,2.6743525,0,1 @ F,0,0,1,0,1.1161794,0,1 @ F,0,0,1,0,0,0,1"
       radius="0"
       unit="px"
       method="auto"
       mode="F"
       chamfer_steps="1"
       flexible="false"
       use_knot_distance="true"
       apply_no_radius="true"
       apply_with_radius="true"
       only_selected="false"
       hide_knots="false" />
    <linearGradient
       id="linearGradient14-3"
       inkscape:collect="always">
      <stop
         style="stop-color:#ffb278;stop-opacity:1;"
         offset="0"
         id="stop14-7" />
      <stop
         style="stop-color:#ff9655;stop-opacity:1;"
         offset="1"
         id="stop15-5" />
    </linearGradient>
    <inkscape:path-effect
       effect="fillet_chamfer"
       id="path-effect2"
       is_visible="true"
       lpeversion="1"
       nodesatellites_param="F,0,1,1,0,1.1161794,0,1 @ F,0,0,1,0,2.6743525,0,1 @ F,0,0,1,0,2.6703193,0,1 @ F,0,0,1,0,0,0,1 @ F,0,0,1,0,0,0,1 @ F,0,0,1,0,2.03666,0,1 @ F,0,0,1,0,0,0,1 @ F,0,0,1,0,0,0,1 @ F,0,0,1,0,2.03666,0,1 @ F,0,0,1,0,0,0,1 @ F,0,0,1,0,0,0,1 @ F,0,0,1,0,2.6703193,0,1 @ F,0,0,1,0,2.6743525,0,1 @ F,0,0,1,0,1.1161794,0,1 @ F,0,0,1,0,0,0,1 | F,0,0,1,0,0,0,1 @ F,0,0,1,0,0,0,1 @ F,0,0,1,0,0,0,1 @ F,0,0,1,0,0,0,1 | F,0,0,1,0,0,0,1 @ F,0,0,1,0,0,0,1 @ F,0,0,1,0,0,0,1 @ F,0,0,1,0,0,0,1"
       radius="0"
       unit="px"
       method="auto"
       mode="F"
       chamfer_steps="1"
       flexible="false"
       use_knot_distance="true"
       apply_no_radius="true"
       apply_with_radius="true"
       only_selected="false"
       hide_knots="false" />
    <radialGradient
       inkscape:collect="always"
       xlink:href="#linearGradient7"
       id="radialGradient15-3"
       cx="30.600689"
       cy="4.5426273"
       fx="30.600689"
       fy="4.5426273"
       r="27.279749"
       gradientTransform="matrix(1.2181632,-1.2181632,1.2177159,1.2177159,-9.5778847,95.89584)"
       gradientUnits="userSpaceOnUse" />
    <filter
       inkscape:collect="always"
       style="color-interpolation-filters:sRGB"
       id="filter3"
       x="-0.059523827"
       y="-0.079984361"
       width="1.1190477"
       height="1.1599687">
      <feGaussianBlur
         inkscape:collect="always"
         stdDeviation="1.4384622"
         id="feGaussianBlur3" />
    </filter>
    <radialGradient
       inkscape:collect="always"
       xlink:href="#linearGradient14-3"
       id="radialGradient15"
       cx="30.600689"
       cy="4.5426273"
       fx="30.600689"
       fy="4.5426273"
       r="27.279749"
       gradientTransform="matrix(1.2181632,-1.2181632,1.2177159,1.2177159,-9.5778847,95.89584)"
       gradientUnits="userSpaceOnUse" />
    <filter
       inkscape:collect="always"
       style="color-interpolation-filters:sRGB"
       id="filter2-7"
       x="-0.063907387"
       y="-0.083726028"
       width="1.127815"
       height="1.1674818">
      <feGaussianBlur
         inkscape:collect="always"
         stdDeviation="1.4084726"
         id="feGaussianBlur2-5" />
    </filter>
    <inkscape:path-effect
       effect="fillet_chamfer"
       id="path-effect2-5-3"
       is_visible="true"
       lpeversion="1"
       nodesatellites_param="F,0,1,1,0,1.1161794,0,1 @ F,0,0,1,0,2.6743525,0,1 @ F,0,0,1,0,2.6703193,0,1 @ F,0,0,1,0,0,0,1 @ F,0,0,1,0,0,0,1 @ F,0,0,1,0,2.03666,0,1 @ F,0,0,1,0,0,0,1 @ F,0,0,1,0,0,0,1 @ F,0,0,1,0,2.03666,0,1 @ F,0,0,1,0,0,0,1 @ F,0,0,1,0,0,0,1 @ F,0,0,1,0,2.6703193,0,1 @ F,0,0,1,0,2.6743525,0,1 @ F,0,0,1,0,1.1161794,0,1 @ F,0,0,1,0,0,0,1"
       radius="0"
       unit="px"
       method="auto"
       mode="F"
       chamfer_steps="1"
       flexible="false"
       use_knot_distance="true"
       apply_no_radius="true"
       apply_with_radius="true"
       only_selected="false"
       hide_knots="false" />
    <filter
       inkscape:collect="always"
       style="color-interpolation-filters:sRGB"
       id="filter1-5"
       x="-0.075718317"
       y="-0.18948851"
       width="1.1514366"
       height="1.378977">
      <feGaussianBlur
         inkscape:collect="always"
         stdDeviation="0.83972772"
         id="feGaussianBlur1-6" />
    </filter>
    <filter
       inkscape:collect="always"
       style="color-interpolation-filters:sRGB"
       id="filter1"
       x="-0.094702467"
       y="-0.25966986"
       width="1.1894049"
       height="1.5193397">
      <feGaussianBlur
         inkscape:collect="always"
         stdDeviation="1.0917696"
         id="feGaussianBlur1" />
    </filter>
  </defs>
  <sodipodi:namedview
     id="namedview6"
     pagecolor="#131313"
     bordercolor="#000000"
     borderopacity="0.25"
     inkscape:showpageshadow="2"
     inkscape:pageopacity="0.0"
     inkscape:pagecheckerboard="0"
     inkscape:deskcolor="#d1d1d1"
     inkscape:zoom="12.6875"
     inkscape:cx="34.482759"
     inkscape:cy="42.916257"
     inkscape:window-width="2713"
     inkscape:window-height="1380"
     inkscape:window-x="0"
     inkscape:window-y="0"
     inkscape:window-maximized="0"
     inkscape:current-layer="svg6" />
  <g
     id="g1"
     transform="translate(-6.1130051e-6,-6.1873249e-4)">
    <path
       id="path2-6"
       style="fill:url(#radialGradient15-3);stroke-width:0.213123;filter:url(#filter3)"
       d="m 23.532456,11.092345 c -0.07987,6.11e-4 -0.156786,0.0071 -0.232441,0.02172 -2.663788,0.514575 -5.21667,1.277764 -7.716184,2.280966 -1.370533,0.550076 -3.117944,2.063302 -3.873298,3.332383 -5.485231,9.215828 -7.7364696,19.064566 -7.4272605,28.010267 0.050938,1.473678 1.1254592,3.38274 2.3417921,4.216529 3.6449084,2.498564 7.4563784,4.619701 9.2520344,5.246223 0.44879,0.156588 1.044217,-0.04183 1.305581,-0.438815 0.29165,-0.44299 0.795053,-1.273248 1.246929,-2.091972 0.274481,-0.497315 0.04522,-1.064473 -0.460538,-1.32296 -3.367211,-1.720955 -2.765519,-4.396717 -1.425061,-5.737174 4.784644,1.949464 11.318467,3.733812 16.709707,3.562652 5.39124,0.17116 11.927236,-1.613188 16.71188,-3.562652 1.340458,1.340457 1.94215,4.016219 -1.42506,5.737174 -0.505755,0.258487 -0.73502,0.825645 -0.460538,1.32296 0.451875,0.818724 0.953105,1.648982 1.244755,2.091972 0.261364,0.396987 0.858964,0.595403 1.307754,0.438815 1.795656,-0.626522 5.607126,-2.747659 9.252034,-5.246223 1.216333,-0.833789 2.290855,-2.742851 2.341793,-4.216529 0.309209,-8.945701 -1.94203,-18.794439 -7.427261,-28.010267 -0.755354,-1.269081 -2.502765,-2.782307 -3.873298,-3.332383 -2.499514,-1.003202 -5.052396,-1.766391 -7.716184,-2.280966 -0.605241,-0.116917 -1.371852,0.246966 -1.876909,0.590879 -1.643586,1.119181 -5.140574,1.747663 -8.078966,1.733534 -2.938392,0.01413 -6.433207,-0.614353 -8.076793,-1.733534 -0.441925,-0.300924 -1.08538,-0.616879 -1.644468,-0.612603 z"
       transform="matrix(0.8990844,0,0,0.8990844,2.1196796,3.3063423)"
       sodipodi:nodetypes="scscsssssscccsssssssssscsss" />
    <path
       d="m 22.696856,29.163641 c -2.478574,0 -4.434869,2.277781 -4.434869,5.047043 0,2.769265 1.998952,5.043643 4.434869,5.043643 2.47864,0 4.435354,-2.274378 4.431468,-5.043643 0.04265,-2.773251 -1.952828,-5.047043 -4.431468,-5.047043 z m 18.797794,0 c -2.47864,0 -4.433168,2.277781 -4.433168,5.047043 0,2.769265 1.997252,5.043643 4.433168,5.043643 2.478573,0 4.434869,-2.274378 4.434869,-5.043643 0.04265,-2.773251 -1.956296,-5.047043 -4.434869,-5.047043 z"
       style="opacity:1;fill:#ffffff;stroke-width:0.723118;stroke-linecap:round;stroke-linejoin:round;filter:url(#filter1)"
       id="path3-6"
       sodipodi:nodetypes="ssscsssscs" />
    <path
       d="m 22.6875,28.414062 c -2.846811,0 -5.09375,2.616188 -5.09375,5.796875 0,3.18069 2.295933,5.792969 5.09375,5.792969 2.846888,0 5.094308,-2.612279 5.089844,-5.792969 0.04899,-3.185269 -2.242956,-5.796875 -5.089844,-5.796875 z m 18.816406,0 c -2.846887,0 -5.091797,2.616188 -5.091797,5.796875 0,3.18069 2.293981,5.792969 5.091797,5.792969 2.846811,0 5.09375,-2.612279 5.09375,-5.792969 0.04899,-3.185269 -2.246939,-5.796875 -5.09375,-5.796875 z"
       style="opacity:0.94824069;fill:#ffffff;stroke-width:0.83055;stroke-linecap:round;stroke-linejoin:round"
       id="path3" />
    <path
       d="m 23.208984,10.294922 c -0.08237,3.52e-4 -0.163643,0.0083 -0.242187,0.02344 -2.76551,0.534226 -5.414803,1.323724 -8.009766,2.365235 -1.42287,0.571081 -3.237357,2.142552 -4.023437,3.458984 -5.613708,9.401152 -7.5055666,18.611336 -7.1093752,27.703125 0.06665,1.529486 1.1785997,3.517143 2.4531249,4.365234 3.5632495,2.371048 7.0521333,4.024341 10.4921873,5.22461 0.866015,0.302162 2.019091,-0.07964 2.523438,-0.845703 0.392502,-0.596178 0.765936,-1.206572 1.123047,-1.828125 0.581668,-1.012398 0.09353,-2.172944 -0.90625,-2.773438 -1.602452,-0.962471 -2.215069,-1.980112 -1.742188,-2.378906 9.320152,4.359276 19.447443,4.359276 28.65625,0 0.473402,0.394594 -0.134809,1.417559 -1.751953,2.386719 -1.000357,0.599517 -1.489656,1.758954 -0.908203,2.771484 0.35676,0.621255 0.732406,1.231618 1.125,1.828125 0.50423,0.766126 1.657327,1.145638 2.523437,0.84375 3.444064,-1.200451 6.937117,-2.85463 10.501953,-5.228516 1.27423,-0.848531 2.386689,-2.835746 2.453125,-4.365234 0.447868,-10.310731 -2.154891,-19.462173 -7.123046,-27.716797 -0.790654,-1.313676 -2.611863,-2.878294 -4.03711,-3.443359 -2.564786,-1.016856 -5.23882,-1.812045 -7.998047,-2.361328 -0.627655,-0.124949 -1.402374,0.257031 -1.90039,0.652344 -1.428957,1.134269 -4.20113,1.773957 -7.210938,1.753906 -3.011093,0.01448 -5.789768,-0.622023 -7.224609,-1.75586 -0.436588,-0.344999 -1.087482,-0.682153 -1.664063,-0.679687 z M 22.6875,28.414062 c 2.846888,0 5.138837,2.611606 5.089844,5.796875 0.0045,3.18069 -2.242956,5.792969 -5.089844,5.792969 -2.797817,0 -5.09375,-2.612279 -5.09375,-5.792969 0,-3.180687 2.246939,-5.796875 5.09375,-5.796875 z m 18.816406,0 c 2.846811,0 5.142744,2.611606 5.09375,5.796875 0,3.18069 -2.246939,5.792969 -5.09375,5.792969 -2.797816,0 -5.091797,-2.612279 -5.091797,-5.792969 0,-3.180687 2.24491,-5.796875 5.091797,-5.796875 z"
       style="opacity:0.917435;fill:url(#radialGradient15);stroke-width:0.213123"
       id="path1" />
    <path
       d="m 23.299831,11.115019 c -2.663788,0.514575 -5.216043,1.276707 -7.715557,2.279909 -1.370533,0.550076 -3.118609,2.063183 -3.875776,3.331193 -5.4072217,9.055354 -7.2300984,17.926957 -6.8484799,26.684327 0.064199,1.473228 1.1367136,3.386457 2.3643586,4.203353 3.4321843,2.283834 6.7921813,3.876563 10.1057013,5.032683 0.834161,0.291048 1.943892,-0.07657 2.429688,-0.814453 0.378065,-0.574249 0.739298,-1.161002 1.083273,-1.759693 0.560273,-0.975159 0.08938,-2.093514 -0.873632,-2.67192 -1.54351,-0.927069 -2.133878,-1.906918 -1.678391,-2.291043 8.977334,4.198931 18.731478,4.198931 27.601562,0 0.455989,0.380079 -0.130077,1.364308 -1.687738,2.29782 -0.963561,0.577465 -1.43356,1.695432 -0.873495,2.670718 0.343638,0.598404 0.704564,1.185412 1.082717,1.759978 0.485683,0.737946 1.597388,1.103284 2.431641,0.8125 3.317382,-1.156296 6.680529,-2.748996 10.114242,-5.035564 1.227361,-0.81732 2.30077,-2.731058 2.364763,-4.204287 0.431393,-9.931477 -2.075641,-18.747608 -6.861055,-26.698607 -0.761571,-1.265356 -2.516475,-2.772417 -3.889298,-3.316697 -2.470447,-0.979454 -5.045874,-1.743976 -7.70361,-2.273055 -0.604569,-0.120353 -1.351188,0.246652 -1.830886,0.627424 -1.376396,1.092548 -4.047009,1.708162 -6.946109,1.688848 -2.900338,0.01395 -5.577145,-0.598766 -6.959209,-1.690897 -0.480605,-0.379783 -1.229469,-0.749454 -1.83471,-0.632537 z"
       style="mix-blend-mode:normal;fill:none;stroke:#000000;stroke-width:0.213123;stroke-opacity:1;filter:url(#filter2-7)"
       id="path2-3-9"
       sodipodi:nodetypes="cccssccccssccccc"
       inkscape:path-effect="#path-effect2-5-3"
       inkscape:original-d="m 24.398437,10.917922 c -3.950345,0.65481 -7.643858,1.843273 -11.265624,3.544969 -7.1235313,10.764588 -9.0553822,21.263168 -8.0898443,31.611328 4.194284,3.132186 8.2747703,5.17232 12.2871093,6.572265 0.834161,0.291048 1.943892,-0.07657 2.429688,-0.814453 0.748767,-1.137314 1.431511,-2.323675 2.044921,-3.554687 -2.875499,-1.09273 -4.119409,-2.657133 -3.513671,-3.167969 8.977334,4.198931 18.731478,4.198931 27.601562,0 0.604988,0.504274 -0.624345,2.072026 -3.523437,3.173828 0.613659,1.228341 1.295455,2.415949 2.044921,3.554688 0.485683,0.737946 1.597388,1.103284 2.431641,0.8125 4.016546,-1.399994 8.10018,-3.439728 12.294922,-6.576172 1.132918,-11.996155 -1.936148,-22.397393 -8.111328,-31.619141 -3.531732,-1.652408 -7.307849,-2.853305 -11.25586,-3.537109 -0.888211,1.605851 -4.110822,2.54426 -7.679687,2.520484 -3.568727,0.01716 -6.799026,-0.914448 -7.695313,-2.520531 z"
       transform="matrix(1.0381871,0,0,1.0381871,-1.3173993,-1.1407291)" />
    <path
       d="m 23.031288,39.771094 c -2.694908,0 -4.904952,-2.51586 -4.904952,-5.579559 0,-3.063698 2.162852,-5.583896 4.904952,-5.583896 2.742176,0 4.952145,2.515786 4.904953,5.583896 0.0043,3.063699 -2.162777,5.579559 -4.904953,5.579559 z m 18.126405,0 c -2.694909,0 -4.904954,-2.51586 -4.904954,-5.579559 0,-3.063698 2.162779,-5.583896 4.904954,-5.583896 2.7421,0 4.952144,2.515786 4.904952,5.583896 0,3.063699 -2.162852,5.579559 -4.904952,5.579559 z"
       style="opacity:1;mix-blend-mode:normal;fill:none;fill-rule:nonzero;stroke:#ff1900;stroke-width:0.2;stroke-dasharray:none;stroke-opacity:1;filter:url(#filter1-5)"
       id="path1-3-1"
       transform="matrix(1.0381871,0,0,1.0381871,-1.2219879,-1.2220113)" />
  </g>
</svg>
