<?xml version="1.0" encoding="UTF-8" standalone="no"?>
<svg
   width="64"
   height="64"
   version="1.1"
   id="svg9"
   sodipodi:docname="distributor-logo-blackarch.svg"
   inkscape:version="1.4.2 (ebf0e940d0, 2025-05-08)"
   xmlns:inkscape="http://www.inkscape.org/namespaces/inkscape"
   xmlns:sodipodi="http://sodipodi.sourceforge.net/DTD/sodipodi-0.dtd"
   xmlns:xlink="http://www.w3.org/1999/xlink"
   xmlns="http://www.w3.org/2000/svg"
   xmlns:svg="http://www.w3.org/2000/svg">
  <defs
     id="defs9">
    <linearGradient
       id="linearGradient2"
       inkscape:collect="always">
      <stop
         style="stop-color:#181818;stop-opacity:1;"
         offset="0"
         id="stop3" />
      <stop
         style="stop-color:#444444;stop-opacity:1;"
         offset="1"
         id="stop4" />
    </linearGradient>
    <inkscape:path-effect
       effect="fillet_chamfer"
       id="path-effect16"
       is_visible="true"
       lpeversion="1"
       nodesatellites_param="F,0,0,1,0,0,0,1 @ F,0,1,1,0,0.7998896,0,1 @ F,0,0,1,0,0,0,1 @ F,0,0,1,0,0,0,1 @ F,0,0,1,0,0,0,1 @ F,0,0,1,0,0,0,1 @ F,0,0,1,0,0,0,1 @ F,0,0,1,0,0,0,1 @ F,0,0,1,0,0.7998896,0,1 @ F,0,0,1,0,0,0,1 @ F,0,0,1,0,0,0,1"
       radius="0"
       unit="px"
       method="auto"
       mode="F"
       chamfer_steps="1"
       flexible="false"
       use_knot_distance="true"
       apply_no_radius="true"
       apply_with_radius="true"
       only_selected="false"
       hide_knots="false" />
    <linearGradient
       id="linearGradient15"
       inkscape:collect="always">
      <stop
         style="stop-color:#6d6d6d;stop-opacity:1;"
         offset="0"
         id="stop15" />
      <stop
         style="stop-color:#4b4b4b;stop-opacity:1;"
         offset="1"
         id="stop16" />
    </linearGradient>
    <inkscape:path-effect
       effect="fillet_chamfer"
       id="path-effect15"
       is_visible="true"
       lpeversion="1"
       nodesatellites_param="F,0,0,1,0,2.1957903,0,1 @ F,0,0,1,0,4.0237545,0,1 @ F,0,0,1,0,0,0,1 @ F,0,0,1,0,0,0,1"
       radius="0"
       unit="px"
       method="auto"
       mode="F"
       chamfer_steps="1"
       flexible="false"
       use_knot_distance="true"
       apply_no_radius="true"
       apply_with_radius="true"
       only_selected="false"
       hide_knots="false" />
    <inkscape:path-effect
       effect="fillet_chamfer"
       id="path-effect14"
       is_visible="true"
       lpeversion="1"
       nodesatellites_param="F,0,0,1,0,0,0,1 @ F,0,0,1,0,1.9154198,0,1 @ F,0,0,1,0,3.0584955,0,1 @ F,0,0,1,0,0,0,1"
       radius="0"
       unit="px"
       method="auto"
       mode="F"
       chamfer_steps="1"
       flexible="false"
       use_knot_distance="true"
       apply_no_radius="true"
       apply_with_radius="true"
       only_selected="false"
       hide_knots="false" />
    <linearGradient
       id="linearGradient11"
       inkscape:collect="always">
      <stop
         style="stop-color:#5c5c5c;stop-opacity:1;"
         offset="0"
         id="stop10" />
      <stop
         style="stop-color:#121212;stop-opacity:1;"
         offset="1"
         id="stop11" />
    </linearGradient>
    <inkscape:path-effect
       effect="fillet_chamfer"
       id="path-effect10-9"
       is_visible="true"
       lpeversion="1"
       nodesatellites_param="F,0,0,1,0,0,0,1 @ F,0,0,1,0,9.4655857,0,1 @ F,0,0,1,0,0,0,1 @ F,0,0,1,0,0,0,1 @ F,0,0,1,0,0,0,1 @ F,0,0,1,0,0.93716141,0,1 @ F,0,0,1,0,0,0,1 @ F,0,0,1,0,0,0,1 @ F,0,0,1,0,0.93716141,0,1 @ F,0,0,1,0,0,0,1 @ F,0,0,1,0,5.1693634,0,1 @ F,0,0,1,0,0,0,1 @ F,0,0,1,0,0,0,1"
       radius="0"
       unit="px"
       method="auto"
       mode="F"
       chamfer_steps="1"
       flexible="false"
       use_knot_distance="true"
       apply_no_radius="true"
       apply_with_radius="true"
       only_selected="false"
       hide_knots="false" />
    <radialGradient
       inkscape:collect="always"
       xlink:href="#linearGradient11"
       id="radialGradient2"
       cx="31.623234"
       cy="35.827175"
       fx="31.623234"
       fy="35.827175"
       r="22.499977"
       gradientTransform="matrix(-1.2467831,1.2467831,-1.2661582,-1.2661582,117.24123,14.955081)"
       gradientUnits="userSpaceOnUse" />
    <linearGradient
       id="linearGradient1"
       inkscape:collect="always">
      <stop
         style="stop-color:#00f2ff;stop-opacity:1;"
         offset="0"
         id="stop1" />
      <stop
         style="stop-color:#00b0ff;stop-opacity:1;"
         offset="1"
         id="stop2" />
    </linearGradient>
    <inkscape:path-effect
       effect="fillet_chamfer"
       id="path-effect10"
       is_visible="true"
       lpeversion="1"
       nodesatellites_param="F,0,0,1,0,0,0,1 @ F,0,0,1,0,9.2210921,0,1 @ F,0,0,1,0,0,0,1 @ F,0,0,1,0,0,0,1 @ F,0,0,1,0,0,0,1 @ F,0,0,1,0,0.93716141,0,1 @ F,0,0,1,0,0,0,1 @ F,0,0,1,0,0,0,1 @ F,0,0,1,0,0.93716141,0,1 @ F,0,0,1,0,0,0,1 @ F,0,0,1,0,0,0,1 @ F,0,0,1,0,0,0,1 @ F,0,0,1,0,0,0,1"
       radius="0"
       unit="px"
       method="auto"
       mode="F"
       chamfer_steps="1"
       flexible="false"
       use_knot_distance="true"
       apply_no_radius="true"
       apply_with_radius="true"
       only_selected="false"
       hide_knots="false" />
    <inkscape:path-effect
       effect="fillet_chamfer"
       id="path-effect10-0"
       is_visible="true"
       lpeversion="1"
       nodesatellites_param="F,0,0,1,0,0,0,1 @ F,0,0,1,0,9.2210921,0,1 @ F,0,0,1,0,0,0,1 @ F,0,0,1,0,0,0,1 @ F,0,0,1,0,0,0,1 @ F,0,0,1,0,0.93716141,0,1 @ F,0,0,1,0,0,0,1 @ F,0,0,1,0,0,0,1 @ F,0,0,1,0,0.93716141,0,1 @ F,0,0,1,0,0,0,1 @ F,0,0,1,0,0,0,1 @ F,0,0,1,0,0,0,1 @ F,0,0,1,0,0,0,1"
       radius="0"
       unit="px"
       method="auto"
       mode="F"
       chamfer_steps="1"
       flexible="false"
       use_knot_distance="true"
       apply_no_radius="true"
       apply_with_radius="true"
       only_selected="false"
       hide_knots="false" />
    <radialGradient
       inkscape:collect="always"
       xlink:href="#linearGradient15"
       id="radialGradient16"
       cx="29.691158"
       cy="36.27314"
       fx="29.691158"
       fy="36.27314"
       r="2"
       gradientTransform="matrix(5.4439021,0,0,28.051204,-136.15394,-958.91071)"
       gradientUnits="userSpaceOnUse" />
    <inkscape:path-effect
       effect="fillet_chamfer"
       id="path-effect10-0-2"
       is_visible="true"
       lpeversion="1"
       nodesatellites_param="F,0,0,1,0,0,0,1 @ F,0,0,1,0,9.2210921,0,1 @ F,0,0,1,0,0,0,1 @ F,0,0,1,0,0,0,1 @ F,0,0,1,0,0,0,1 @ F,0,0,1,0,0.93716141,0,1 @ F,0,0,1,0,0,0,1 @ F,0,0,1,0,0,0,1 @ F,0,0,1,0,0.93716141,0,1 @ F,0,0,1,0,0,0,1 @ F,0,0,1,0,0,0,1 @ F,0,0,1,0,0,0,1 @ F,0,0,1,0,0,0,1"
       radius="0"
       unit="px"
       method="auto"
       mode="F"
       chamfer_steps="1"
       flexible="false"
       use_knot_distance="true"
       apply_no_radius="true"
       apply_with_radius="true"
       only_selected="false"
       hide_knots="false" />
    <inkscape:path-effect
       effect="fillet_chamfer"
       id="path-effect10-2"
       is_visible="true"
       lpeversion="1"
       nodesatellites_param="F,0,0,1,0,0,0,1 @ F,0,0,1,0,9.2210921,0,1 @ F,0,0,1,0,0,0,1 @ F,0,0,1,0,0,0,1 @ F,0,0,1,0,0,0,1 @ F,0,0,1,0,0.93716141,0,1 @ F,0,0,1,0,0,0,1 @ F,0,0,1,0,0,0,1 @ F,0,0,1,0,0.93716141,0,1 @ F,0,0,1,0,0,0,1 @ F,0,0,1,0,0,0,1 @ F,0,0,1,0,0,0,1 @ F,0,0,1,0,0,0,1"
       radius="0"
       unit="px"
       method="auto"
       mode="F"
       chamfer_steps="1"
       flexible="false"
       use_knot_distance="true"
       apply_no_radius="true"
       apply_with_radius="true"
       only_selected="false"
       hide_knots="false" />
    <radialGradient
       inkscape:collect="always"
       xlink:href="#linearGradient1"
       id="radialGradient22"
       cx="32.599846"
       cy="31.6"
       fx="32.599846"
       fy="31.6"
       r="23.088594"
       gradientTransform="matrix(1,0,0,0.99426687,0,0.18116691)"
       gradientUnits="userSpaceOnUse" />
    <inkscape:path-effect
       effect="fillet_chamfer"
       id="path-effect10-2-1"
       is_visible="true"
       lpeversion="1"
       nodesatellites_param="F,0,0,1,0,0,0,1 @ F,0,0,1,0,9.2210921,0,1 @ F,0,0,1,0,0,0,1 @ F,0,0,1,0,0,0,1 @ F,0,0,1,0,0,0,1 @ F,0,0,1,0,0.93716141,0,1 @ F,0,0,1,0,0,0,1 @ F,0,0,1,0,0,0,1 @ F,0,0,1,0,0.93716141,0,1 @ F,0,0,1,0,0,0,1 @ F,0,0,1,0,0,0,1 @ F,0,0,1,0,0,0,1 @ F,0,0,1,0,0,0,1"
       radius="0"
       unit="px"
       method="auto"
       mode="F"
       chamfer_steps="1"
       flexible="false"
       use_knot_distance="true"
       apply_no_radius="true"
       apply_with_radius="true"
       only_selected="false"
       hide_knots="false" />
    <filter
       inkscape:collect="always"
       style="color-interpolation-filters:sRGB"
       id="filter22"
       x="-0.037693096"
       y="-0.038122729"
       width="1.0765832"
       height="1.0768585">
      <feGaussianBlur
         inkscape:collect="always"
         stdDeviation="0.67400877"
         id="feGaussianBlur22" />
    </filter>
    <radialGradient
       inkscape:collect="always"
       xlink:href="#linearGradient15"
       id="radialGradient23"
       gradientUnits="userSpaceOnUse"
       gradientTransform="matrix(5.4439021,0,0,28.051204,-136.15394,-958.91071)"
       cx="29.691158"
       cy="36.27314"
       fx="29.691158"
       fy="36.27314"
       r="2" />
    <radialGradient
       inkscape:collect="always"
       xlink:href="#linearGradient2"
       id="radialGradient4"
       cx="30.370541"
       cy="7.3130546"
       fx="30.370541"
       fy="7.3130546"
       r="3.868249"
       gradientTransform="matrix(1.5880784,0,0,2.2760995,-19.294602,-8.9874854)"
       gradientUnits="userSpaceOnUse" />
  </defs>
  <sodipodi:namedview
     id="namedview9"
     pagecolor="#ffffff"
     bordercolor="#000000"
     borderopacity="0.25"
     inkscape:showpageshadow="2"
     inkscape:pageopacity="0.0"
     inkscape:pagecheckerboard="0"
     inkscape:deskcolor="#d1d1d1"
     inkscape:zoom="14.341421"
     inkscape:cx="31.935469"
     inkscape:cy="38.629366"
     inkscape:current-layer="svg9" />
  <path
     style="fill:url(#radialGradient2);stroke:none;stroke-width:1.17746;stroke-linecap:round;stroke-linejoin:round;stroke-dasharray:none"
     d="m 32.601304,9.2324082 c -0.594538,1.4519378 -1.18099,2.9076598 -1.774043,4.3606368 -1.923977,4.713739 -1.375138,11.070293 2.100899,13.462452 -2.296656,-0.614314 -4.656293,-1.251342 -5.581042,-5.689537 -5.053466,10.286057 -11.682338,22.58745 -17.247233,32.601632 5.45289,-3.087376 11.134004,-6.005496 17.285093,-7.382708 0.504856,-0.113036 0.830751,-0.604078 0.757038,-1.116312 -0.487723,-3.389192 0.04071,-7.173118 2.384775,-9.759439 2.412348,-2.434166 5.526999,0.477882 6.019839,3.079341 0.657469,2.15932 0.872703,4.473478 0.563974,6.713957 -0.07064,0.512642 0.25318,1.006829 0.75751,1.123135 6.117672,1.41083 11.797881,4.261538 17.231725,7.342017 -1.713022,-2.547333 -2.986943,-5.271836 -4.881376,-7.852292 -1.894433,-2.580456 -4.475242,-4.166018 -6.883778,-5.371869 2.086917,0.260089 3.60361,0.418062 5.520085,1.559607 C 42.693853,30.92087 37.441032,21.254699 32.601304,9.2324082 Z"
     id="path3-3"
     transform="matrix(1.133134,0,0,1.133134,-4.5095029,-2.2089592)"
     sodipodi:nodetypes="cccccccccczccc"
     inkscape:original-d="m 32.601304,9.2324082 c -1.758921,4.2955138 -3.447078,8.6241408 -5.444727,12.8168698 1.742465,1.864138 3.668427,3.558861 5.771583,5.006219 -2.296656,-0.614314 -4.656293,-1.251342 -5.581042,-5.689537 -5.053466,10.286057 -11.682338,22.58745 -17.247233,32.601632 5.722733,-3.240159 11.696836,-6.293895 18.201757,-7.57568 -0.729153,-3.606792 -0.334379,-7.858729 2.225149,-10.682779 2.412348,-2.434166 5.526999,0.477882 6.019839,3.079341 0.748279,2.457567 0.923723,5.115699 0.405845,7.637509 6.467949,1.32755 12.443391,4.307983 18.147364,7.5416 -1.713022,-2.547333 -2.986943,-5.271836 -4.881376,-7.852292 -1.894433,-2.580456 -4.475242,-4.166018 -6.883778,-5.371869 2.086917,0.260089 3.60361,0.418062 5.520085,1.559607 C 42.693853,30.92087 37.441032,21.254699 32.601304,9.2324082 Z"
     inkscape:path-effect="#path-effect10" />
  <g
     id="g12"
     transform="matrix(1.2129299,0,0,1.2129299,-6.0205603,-8.0037083)"
     style="fill:url(#radialGradient16);fill-opacity:1">
    <path
       d="m 30,10 v 48.08458 a 0.45216928,0.45216928 13.282526 0 0 0.856602,0.202216 l 1.775597,-3.551194 A 12.955995,12.955995 103.28253 0 0 34,48.941504 V 10 Z"
       style="fill:url(#radialGradient23);fill-opacity:1"
       id="path3"
       inkscape:path-effect="#path-effect14"
       inkscape:original-d="m 30,10 v 50 l 4,-8 V 10 Z" />
  </g>
  <path
     id="rect14"
     style="fill:url(#radialGradient4);stroke-width:1.32749;stroke-linecap:round;stroke-linejoin:round"
     d="m 30.332066,4.6856015 0,6.1347065 a 0.7998896,0.7998896 135 0 1 -0.79989,0.79989 h -0.106647 c -0.26785,0 -0.484208,0.214811 -0.484208,0.482661 0,0.26785 0.216358,0.484208 0.484208,0.484208 h 6.768082 c 0.26785,0 0.484208,-0.216358 0.484208,-0.484208 0,-0.26785 -0.216358,-0.482661 -0.484208,-0.482661 h -0.50782 a 0.7998896,0.7998896 45 0 1 -0.79989,-0.79989 l 0,-6.1347065 c 0,-1.3055458 -0.95318,-3.1868 -2.683261,-3.1868 -1.73008,0 -1.870574,1.8812542 -1.870574,3.1868 z"
     inkscape:path-effect="#path-effect16"
     inkscape:original-d="m 30.332066,4.6856015 0,6.9345965 h -0.906537 c -0.26785,0 -0.484208,0.214811 -0.484208,0.482661 0,0.26785 0.216358,0.484208 0.484208,0.484208 h 6.768082 c 0.26785,0 0.484208,-0.216358 0.484208,-0.484208 0,-0.26785 -0.216358,-0.482661 -0.484208,-0.482661 h -1.30771 l 0,-6.9345965 c 0,-1.3055458 -0.95318,-3.1868 -2.683261,-3.1868 -1.73008,0 -1.870574,1.8812542 -1.870574,3.1868 z"
     sodipodi:nodetypes="scsssssscszs"
     transform="matrix(1.134121,0,0,1.134121,-4.3111056,-1.396824)" />
  <path
     style="fill:none;stroke:url(#radialGradient22);stroke-width:1.67746;stroke-linecap:square;stroke-linejoin:miter;stroke-miterlimit:7.4;stroke-dasharray:none;stroke-opacity:1"
     d="m 32.601304,9.2324082 c -0.594538,1.4519378 -1.18099,2.9076598 -1.774043,4.3606368 -1.923977,4.713739 -1.375138,11.070293 2.100899,13.462452 -2.296656,-0.614314 -4.656293,-1.251342 -5.581042,-5.689537 -5.053466,10.286057 -11.682338,22.58745 -17.247233,32.601632 5.45289,-3.087376 11.134004,-6.005496 17.285093,-7.382708 0.504856,-0.113036 0.830751,-0.604078 0.757038,-1.116312 -0.487723,-3.389192 0.04071,-7.173118 2.384775,-9.759439 2.412348,-2.434166 5.526999,0.477882 6.019839,3.079341 0.657469,2.15932 0.872703,4.473478 0.563974,6.713957 -0.07064,0.512642 0.25318,1.006829 0.75751,1.123135 6.117672,1.41083 11.797881,4.261538 17.231725,7.342017 -1.713022,-2.547333 -2.986943,-5.271836 -4.881376,-7.852292 -1.894433,-2.580456 -4.475242,-4.166018 -6.883778,-5.371869 2.086917,0.260089 3.60361,0.418062 5.520085,1.559607 C 42.693853,30.92087 37.441032,21.254699 32.601304,9.2324082 Z"
     id="path3-3-9"
     transform="matrix(1.133134,0,0,1.133134,-4.5095029,-2.2089592)"
     sodipodi:nodetypes="cccccccccczccc"
     inkscape:original-d="m 32.601304,9.2324082 c -1.758921,4.2955138 -3.447078,8.6241408 -5.444727,12.8168698 1.742465,1.864138 3.668427,3.558861 5.771583,5.006219 -2.296656,-0.614314 -4.656293,-1.251342 -5.581042,-5.689537 -5.053466,10.286057 -11.682338,22.58745 -17.247233,32.601632 5.722733,-3.240159 11.696836,-6.293895 18.201757,-7.57568 -0.729153,-3.606792 -0.334379,-7.858729 2.225149,-10.682779 2.412348,-2.434166 5.526999,0.477882 6.019839,3.079341 0.748279,2.457567 0.923723,5.115699 0.405845,7.637509 6.467949,1.32755 12.443391,4.307983 18.147364,7.5416 -1.713022,-2.547333 -2.986943,-5.271836 -4.881376,-7.852292 -1.894433,-2.580456 -4.475242,-4.166018 -6.883778,-5.371869 2.086917,0.260089 3.60361,0.418062 5.520085,1.559607 C 42.693853,30.92087 37.441032,21.254699 32.601304,9.2324082 Z"
     inkscape:path-effect="#path-effect10-2" />
  <path
     style="baseline-shift:baseline;display:inline;overflow:visible;opacity:1;mix-blend-mode:normal;fill:none;stroke:#0031ff;stroke-width:0.2;stroke-linecap:square;stroke-miterlimit:7.4;stroke-dasharray:none;stroke-opacity:1;filter:url(#filter22);enable-background:accumulate;stop-color:#000000;stop-opacity:1"
     d="M 32.441871,9.5239304 31.65935,11.434376 c -0.595224,1.453612 -1.180319,2.908175 -1.771895,4.357533 -1.02149,2.50265 -1.380286,5.392294 -1.028401,8.02426 0.172779,1.292314 0.530186,2.52709 1.075235,3.619893 -0.8037,-0.660753 -1.50278,-1.690309 -1.928007,-3.731125 l -0.497614,-2.386592 -1.075235,2.187547 C 21.395657,33.760013 14.777628,46.04425 9.221863,56.042004 L 7.7739055,58.645205 10.36735,57.177733 c 5.427994,-3.073281 11.03304,-5.941715 17.039844,-7.286621 0.934324,-0.209193 1.537079,-1.121702 1.403075,-2.0529 -0.46136,-3.205993 0.06357,-6.719469 2.160228,-9.048758 0.475095,-0.474705 0.896489,-0.638764 1.317211,-0.65763 0.424464,-0.01903 0.884713,0.127042 1.342581,0.427362 0.915737,0.600639 1.727349,1.841728 1.924105,2.880303 l 0.0078,0.04488 0.01366,0.04293 c 0.623145,2.046593 0.825309,4.240886 0.53469,6.349938 -0.127794,0.927417 0.465326,1.837539 1.399172,2.052899 5.982168,1.37958 11.58695,4.183971 16.991059,7.247593 L 57.593799,58.93011 55.6092,55.981506 c -1.664487,-2.475158 -2.942879,-5.213432 -4.896127,-7.874 -0.806834,-1.099009 -1.776795,-1.916556 -2.747606,-2.708578 0.09799,0.0542 0.180296,0.05514 0.281005,0.115133 l 2.61491,1.557238 -1.449909,-2.675404 C 43.255535,33.022953 38.027867,23.401549 33.212684,11.44023 Z m 0.03708,4.3438726 c 4.331731,10.446213 9.034893,19.405047 14.378099,29.283086 -1.163163,-0.361572 -2.31917,-0.588451 -3.594525,-0.747396 l -4.841485,-0.60299 4.363386,2.185596 c 2.357772,1.180435 4.803419,2.695185 6.578255,5.112734 1.224058,1.667322 2.21084,3.45681 3.24522,5.222014 -4.656932,-2.511229 -9.486765,-4.816827 -14.721551,-6.02405 -0.07394,-0.01705 -0.128498,-0.09427 -0.115135,-0.19124 0.32311,-2.344842 0.09728,-4.748594 -0.577622,-6.99781 -0.300375,-1.553419 -1.284218,-3.059625 -2.644181,-3.951636 -0.682949,-0.447952 -1.48356,-0.73683 -2.335856,-0.698611 -0.852296,0.03822 -1.720304,0.42776 -2.445135,1.159148 l -0.01366,0.01366 -0.01171,0.01366 c -2.57307,2.838991 -3.103472,6.874569 -2.591493,10.432319 0.01329,0.09238 -0.03672,0.160897 -0.111231,0.17758 -5.371284,1.202615 -10.296091,3.610649 -15.043537,6.197726 4.983662,-9.01859 10.497184,-19.312297 15.053294,-28.479098 0.505784,1.21379 1.112086,2.21605 1.887028,2.833468 1.157222,0.921992 2.460214,1.25603 3.608185,1.563092 l 4.69708,1.256718 -4.004323,-2.755413 c -1.467918,-1.010199 -2.408364,-2.958179 -2.718336,-5.276653 -0.309973,-2.318474 0.01831,-4.960599 0.919122,-7.167585 0.348569,-0.853995 0.693861,-1.705579 1.040109,-2.558318 z"
     id="path3-3-9-9"
     transform="matrix(1.134121,0,0,1.134121,-4.3875927,-5.0924132)" />
</svg>
