<?xml version="1.0" encoding="UTF-8" standalone="no"?>
<svg
   width="64"
   height="64"
   version="1.1"
   id="svg7"
   sodipodi:docname="distributor-logo-steamos.svg"
   inkscape:version="1.4.2 (ebf0e940d0, 2025-05-08)"
   xmlns:inkscape="http://www.inkscape.org/namespaces/inkscape"
   xmlns:sodipodi="http://sodipodi.sourceforge.net/DTD/sodipodi-0.dtd"
   xmlns:xlink="http://www.w3.org/1999/xlink"
   xmlns="http://www.w3.org/2000/svg"
   xmlns:svg="http://www.w3.org/2000/svg">
  <defs
     id="defs7">
    <filter
       inkscape:collect="always"
       style="color-interpolation-filters:sRGB"
       id="filter8"
       x="-0.12092483"
       y="-0.12092483"
       width="1.2418497"
       height="1.2418497">
      <feGaussianBlur
         inkscape:collect="always"
         stdDeviation="2.5226188"
         id="feGaussianBlur8" />
    </filter>
    <radialGradient
       inkscape:collect="always"
       xlink:href="#linearGradient5"
       id="radialGradient6"
       cx="57.669048"
       cy="25.7778"
       fx="57.669048"
       fy="25.7778"
       r="29.549749"
       gradientUnits="userSpaceOnUse"
       gradientTransform="matrix(-2.9491447,0,0,-2.9491447,234.03645,75.868421)" />
    <linearGradient
       id="linearGradient5"
       inkscape:collect="always">
      <stop
         style="stop-color:#ff3cf1;stop-opacity:1;"
         offset="0"
         id="stop5" />
      <stop
         style="stop-color:#2838b3;stop-opacity:1;"
         offset="1"
         id="stop6" />
    </linearGradient>
    <filter
       inkscape:collect="always"
       style="color-interpolation-filters:sRGB"
       id="filter1"
       x="-0.043496508"
       y="-0.057063272"
       width="1.0884475"
       height="1.1141265">
      <feGaussianBlur
         inkscape:collect="always"
         stdDeviation="0.7259595"
         id="feGaussianBlur1" />
    </filter>
    <filter
       inkscape:collect="always"
       style="color-interpolation-filters:sRGB"
       id="filter2"
       x="-0.050844255"
       y="-0.064559505"
       width="1.1016885"
       height="1.129119">
      <feGaussianBlur
         inkscape:collect="always"
         stdDeviation="0.86846691"
         id="feGaussianBlur2" />
    </filter>
  </defs>
  <sodipodi:namedview
     id="namedview7"
     pagecolor="#505050"
     bordercolor="#eeeeee"
     borderopacity="1"
     inkscape:showpageshadow="0"
     inkscape:pageopacity="0"
     inkscape:pagecheckerboard="0"
     inkscape:deskcolor="#505050"
     inkscape:zoom="5.0943601"
     inkscape:cx="-8.4407069"
     inkscape:cy="21.985097"
     inkscape:window-width="1920"
     inkscape:window-height="1020"
     inkscape:window-x="0"
     inkscape:window-y="0"
     inkscape:window-maximized="1"
     inkscape:current-layer="svg7" />
  <path
     id="path5"
     style="fill:url(#radialGradient6);stroke-width:0.261772;stroke-linejoin:bevel;stroke-miterlimit:4.6"
     d="M 57.702771,31.971802 A 25.653477,25.653477 0 0 1 32.049294,57.625279 25.653477,25.653477 0 0 1 6.395817,31.971802 25.653477,25.653477 0 0 1 32.049294,6.318325 25.653477,25.653477 0 0 1 57.702771,31.971802 Z" />
  <path
     id="path3-3-7"
     style="opacity:0.30663372;mix-blend-mode:normal;fill:#ffffff;fill-opacity:1;stroke:none;stroke-width:0.261772;stroke-dasharray:none;stroke-opacity:1;filter:url(#filter2)"
     d="m 38.598092,17.987119 c -5.301006,0 -9.598321,4.297315 -9.598321,9.598321 0.0044,0.06936 0.0095,0.138671 0.01534,0.207919 l -4.591243,7.652071 c -0.07438,-0.0034 -0.148807,-0.0057 -0.223256,-0.0068 -1.823866,0.0028 -3.582773,0.677436 -4.940613,1.895124 L 7.2117277,32.014545 c -0.02759,1.278828 -0.04923,3.842336 0.757685,7.026057 l 8.8194293,3.877953 c 0.0346,4.069593 3.342033,7.351169 7.411772,7.353827 4.096232,0 7.416885,-3.320653 7.416885,-7.416885 -6.59e-4,-0.189975 -0.0086,-0.379854 -0.02386,-0.569218 L 39.79959,37.09855 c 4.794735,-0.60495 8.391936,-4.680366 8.396828,-9.51311 0,-5.301006 -4.297316,-9.598321 -9.598322,-9.598321 z m 0,3.490298 c 3.373368,0 6.108023,2.734656 6.108023,6.108023 0,3.373368 -2.734655,6.108023 -6.108023,6.108023 -3.373367,0 -6.108023,-2.734655 -6.108023,-6.108023 0,-3.373367 2.734656,-6.108023 6.108023,-6.108023 z m 0,1.74515 c -2.409548,0 -4.362873,1.953325 -4.362873,4.362873 0,2.409549 1.953325,4.362874 4.362873,4.362874 2.409549,0 4.362874,-1.953325 4.362874,-4.362874 0,-2.409548 -1.953325,-4.362873 -4.362874,-4.362873 z M 24.20061,38.056336 c 2.650503,0 4.799161,2.148658 4.799161,4.799161 0,2.650503 -2.148658,4.799161 -4.799161,4.799161 -2.141526,-0.0075 -4.018946,-1.432916 -4.601468,-3.493707 l 3.367593,1.487808 c 3.768012,1.759718 6.306183,-3.986226 2.46775,-5.586523 l -3.365888,-1.487808 c 0.661131,-0.335011 1.39087,-0.512341 2.132013,-0.518092 z"
     sodipodi:nodetypes="scccccccccccccsssssssssssscscccccc" />
  <path
     id="path3-3"
     style="opacity:0.8;mix-blend-mode:normal;fill:#ffffff;fill-opacity:1;stroke:none;stroke-width:0.261772;stroke-dasharray:none;stroke-opacity:1"
     d="m 37.787179,17.176206 c -5.301006,0 -9.598321,4.297315 -9.598321,9.598321 0.0044,0.06936 0.0095,0.138671 0.01534,0.207919 l -4.591243,7.652071 c -0.07438,-0.0034 -0.148807,-0.0057 -0.223256,-0.0068 -1.823866,0.0028 -3.582773,0.677436 -4.940613,1.895124 L 6.4008157,31.203632 c -0.02759,1.278828 -0.049235,3.842336 0.7576844,7.026057 l 8.8194289,3.877953 c 0.0346,4.069593 3.342033,7.351169 7.411772,7.353827 4.096232,0 7.416885,-3.320653 7.416885,-7.416885 -6.59e-4,-0.189975 -0.0086,-0.379854 -0.02386,-0.569218 l 8.205951,-5.187729 c 4.794735,-0.60495 8.391936,-4.680366 8.396828,-9.51311 0,-5.301006 -4.297316,-9.598321 -9.598322,-9.598321 z m 0,3.490298 c 3.373368,0 6.108023,2.734656 6.108023,6.108023 0,3.373368 -2.734655,6.108023 -6.108023,6.108023 -3.373367,0 -6.108023,-2.734655 -6.108023,-6.108023 0,-3.373367 2.734656,-6.108023 6.108023,-6.108023 z m 0,1.74515 c -2.409548,0 -4.362873,1.953325 -4.362873,4.362873 0,2.409549 1.953325,4.362874 4.362873,4.362874 2.409549,0 4.362874,-1.953325 4.362874,-4.362874 0,-2.409548 -1.953325,-4.362873 -4.362874,-4.362873 z M 23.389697,37.245423 c 2.650503,0 4.799161,2.148658 4.799161,4.799161 0,2.650503 -2.148658,4.799161 -4.799161,4.799161 -2.141526,-0.0075 -4.018946,-1.432916 -4.601468,-3.493707 l 3.367593,1.487808 c 3.768012,1.759718 6.306183,-3.986226 2.46775,-5.586523 l -3.365888,-1.487808 c 0.661131,-0.335011 1.39087,-0.512341 2.132013,-0.518092 z"
     sodipodi:nodetypes="scccccccccccccsssssssssssscscccccc" />
  <path
     id="path5-9"
     style="fill:none;stroke:#000000;stroke-width:0.299999;stroke-linejoin:bevel;stroke-miterlimit:4.6;stroke-dasharray:none;stroke-opacity:1;filter:url(#filter8)"
     d="M 57.653477,32 A 25.653477,25.653477 0 0 1 32,57.653477 25.653477,25.653477 0 0 1 6.3465229,32 25.653477,25.653477 0 0 1 32,6.3465228 25.653477,25.653477 0 0 1 57.653477,32 Z" />
  <path
     id="path3-3-1"
     style="fill:none;stroke:#004dff;stroke-width:0.2;stroke-dasharray:none;stroke-opacity:1;filter:url(#filter1)"
     d="m 7.1183659,38.222442 8.8173501,3.8852 c 0.0346,4.069593 3.342033,7.351169 7.411772,7.353827 4.096232,0 7.416885,-3.320653 7.416885,-7.416885 -6.59e-4,-0.189975 -0.0086,-0.379854 -0.02386,-0.569218 l 8.205951,-5.187729 c 4.794735,-0.60495 8.391936,-4.680366 8.396828,-9.51311 0,-5.301006 -4.297316,-9.598321 -9.598322,-9.598321 h -4e-6 c -5.301006,0 -9.598321,4.297315 -9.598321,9.598321 0.0044,0.06936 0.0095,0.138671 0.01534,0.207919 l -4.591243,7.652071 c -0.07438,-0.0034 -0.148807,-0.0057 -0.223256,-0.0068 -1.823866,0.0028 -3.582773,0.677436 -4.940613,1.895124 L 6.3586019,31.203632 M 37.744966,20.666504 c 3.373368,0 6.108023,2.734656 6.108023,6.108023 0,3.373368 -2.734655,6.108023 -6.108023,6.108023 -3.373367,0 -6.108023,-2.734655 -6.108023,-6.108023 0,-3.373367 2.734656,-6.108023 6.108023,-6.108023 z m 0,1.74515 c -2.409548,0 -4.362873,1.953325 -4.362873,4.362873 0,2.409549 1.953325,4.362874 4.362873,4.362874 2.409549,0 4.362874,-1.953325 4.362874,-4.362874 0,-2.409548 -1.953325,-4.362873 -4.362874,-4.362873 z M 23.347484,37.245423 c 2.650503,0 4.799161,2.148658 4.799161,4.799161 0,2.650503 -2.148658,4.799161 -4.799161,4.799161 -2.141526,-0.0075 -4.018946,-1.432916 -4.601468,-3.493707 l 3.367593,1.487808 c 3.768012,1.759718 6.306183,-3.986226 2.46775,-5.586523 l -3.365888,-1.487808 c 0.661131,-0.335011 1.39087,-0.512341 2.132013,-0.518092 z"
     sodipodi:nodetypes="cccccccssccccccsssssssssscscccccc" />
</svg>
