<?xml version="1.0" encoding="UTF-8" standalone="no"?>
<svg
   width="64"
   height="64"
   version="1"
   id="svg4"
   sodipodi:docname="enhanced_browsing.svg"
   inkscape:version="1.4.2 (ebf0e940d0, 2025-05-08)"
   xmlns:inkscape="http://www.inkscape.org/namespaces/inkscape"
   xmlns:sodipodi="http://sodipodi.sourceforge.net/DTD/sodipodi-0.dtd"
   xmlns:xlink="http://www.w3.org/1999/xlink"
   xmlns="http://www.w3.org/2000/svg"
   xmlns:svg="http://www.w3.org/2000/svg">
  <defs
     id="defs4">
    <linearGradient
       id="linearGradient5"
       inkscape:collect="always">
      <stop
         style="stop-color:#67fff6;stop-opacity:1;"
         offset="0"
         id="stop5" />
      <stop
         style="stop-color:#8cddf3;stop-opacity:1;"
         offset="1"
         id="stop6" />
    </linearGradient>
    <radialGradient
       id="SVGID_1_-3-2"
       cx="-159.43106"
       cy="15.462561"
       r="64.706802"
       gradientTransform="matrix(-1.1565522,0,0,1.2456931,-63.635197,46.17869)"
       gradientUnits="userSpaceOnUse"
       fx="-159.43106"
       fy="15.462561">
      <stop
         offset="0"
         style="stop-color:#400cb0;stop-opacity:1;"
         id="stop1-6-9" />
      <stop
         offset="1"
         style="stop-color:#a03cd5;stop-opacity:1;"
         id="stop2-7-1" />
    </radialGradient>
    <filter
       inkscape:collect="always"
       style="color-interpolation-filters:sRGB"
       id="filter4"
       x="-0.070802977"
       y="-0.070802977"
       width="1.141606"
       height="1.141606">
      <feGaussianBlur
         inkscape:collect="always"
         stdDeviation="1.5895694"
         id="feGaussianBlur4" />
    </filter>
    <radialGradient
       id="SVGID_2_-3-3"
       cx="21.0371"
       cy="56.209099"
       r="40.250599"
       gradientTransform="matrix(1,0,0,-1,0,66)"
       gradientUnits="userSpaceOnUse">
      <stop
         offset="0"
         style="stop-color:#FFFFFF"
         id="stop5-5-6" />
      <stop
         offset="1"
         style="stop-color:#C4C4C4"
         id="stop6-6-7" />
    </radialGradient>
    <radialGradient
       inkscape:collect="always"
       xlink:href="#linearGradient5"
       id="radialGradient6"
       cx="-0.35030663"
       cy="60.24741"
       fx="-0.35030663"
       fy="60.24741"
       r="15.000197"
       gradientTransform="matrix(5.6093587,0,0,6.3573067,0.61449168,-317.86411)"
       gradientUnits="userSpaceOnUse" />
    <filter
       inkscape:collect="always"
       style="color-interpolation-filters:sRGB"
       id="filter6"
       x="-0.066619339"
       y="-0.058781501"
       width="1.1332534"
       height="1.1175759">
      <feGaussianBlur
         inkscape:collect="always"
         stdDeviation="0.79108603"
         id="feGaussianBlur6" />
    </filter>
  </defs>
  <sodipodi:namedview
     id="namedview4"
     pagecolor="#ffffff"
     bordercolor="#000000"
     borderopacity="0.25"
     inkscape:showpageshadow="2"
     inkscape:pageopacity="0.0"
     inkscape:pagecheckerboard="0"
     inkscape:deskcolor="#d1d1d1"
     inkscape:zoom="9.8349335"
     inkscape:cx="60.447791"
     inkscape:cy="27.859873"
     inkscape:current-layer="svg4" />
  <g
     id="g4"
     transform="translate(-58.95618,-1.2186747)">
    <path
       class="st1"
       d="m 79.730031,5.2704439 h 22.399999 c 9.3,0 16.8,7.4999991 16.8,16.7999991 v 22.4 c 0,9.3 -7.5,16.8 -16.8,16.8 H 79.730031 c -9.3,0 -16.799999,-7.5 -16.799999,-16.8 v -22.4 c 0,-9.3 7.499999,-16.7999991 16.799999,-16.7999991 z"
       id="path2-9"
       style="fill:url(#SVGID_1_-3-2)" />
    <path
       class="st1"
       d="m 79.75618,5.2186746 h 22.4 c 9.3,0 16.8,7.4999994 16.8,16.7999994 v 22.4 c 0,9.3 -7.5,16.8 -16.8,16.8 h -22.4 c -9.3,0 -16.8,-7.5 -16.8,-16.8 v -22.4 c 0,-9.3 7.5,-16.7999994 16.8,-16.7999994 z"
       id="path2-2"
       style="opacity:0.673189;fill:none;stroke:#000000;stroke-width:0.3;stroke-dasharray:none;stroke-opacity:1;filter:url(#filter4)" />
  </g>
  <path
     id="circle2"
     style="fill:url(#radialGradient6)"
     d="m 44.036912,14.999919 a 3,3 0 0 0 -2.794921,1.818359 l -12,28 a 3,3 0 0 0 1.576171,3.939453 3,3 0 0 0 3.939453,-1.576171 l 12,-28 a 3,3 0 0 0 -1.576171,-3.939453 3,3 0 0 0 -1.144532,-0.242188 z m -23.037109,10 a 4,4 0 0 0 -4,4 4,4 0 0 0 4,4 4,4 0 0 0 4,-4 4,4 0 0 0 -4,-4 z m 0,16 a 4,4 0 0 0 -4,4 4,4 0 0 0 4,4 4,4 0 0 0 4,-4 4,4 0 0 0 -4,-4 z" />
  <path
     id="circle2-1"
     style="fill:none;stroke:#003eff;stroke-opacity:1;stroke-width:0.2;stroke-dasharray:none;filter:url(#filter6)"
     d="m 44.036912,14.999919 a 3,3 0 0 0 -2.794921,1.818359 l -12,28 a 3,3 0 0 0 1.576171,3.939453 3,3 0 0 0 3.939453,-1.576171 l 12,-28 a 3,3 0 0 0 -1.576171,-3.939453 3,3 0 0 0 -1.144532,-0.242188 z m -23.037109,10 a 4,4 0 0 0 -4,4 4,4 0 0 0 4,4 4,4 0 0 0 4,-4 4,4 0 0 0 -4,-4 z m 0,16 a 4,4 0 0 0 -4,4 4,4 0 0 0 4,4 4,4 0 0 0 4,-4 4,4 0 0 0 -4,-4 z" />
</svg>
