<?xml version="1.0" encoding="UTF-8" standalone="no"?>
<svg
   width="64"
   height="64"
   version="1"
   id="svg11"
   sodipodi:docname="firejail-ui.svg"
   inkscape:version="1.4.2 (ebf0e940d0, 2025-05-08)"
   xmlns:inkscape="http://www.inkscape.org/namespaces/inkscape"
   xmlns:sodipodi="http://sodipodi.sourceforge.net/DTD/sodipodi-0.dtd"
   xmlns:xlink="http://www.w3.org/1999/xlink"
   xmlns="http://www.w3.org/2000/svg"
   xmlns:svg="http://www.w3.org/2000/svg">
  <defs
     id="defs11">
    <filter
       inkscape:collect="always"
       style="color-interpolation-filters:sRGB"
       id="filter5"
       x="-0.13373662"
       y="-0.11316821"
       width="1.2674732"
       height="1.2263369">
      <feGaussianBlur
         inkscape:collect="always"
         stdDeviation="2.3894175"
         id="feGaussianBlur5" />
    </filter>
    <filter
       inkscape:collect="always"
       style="color-interpolation-filters:sRGB"
       id="filter11"
       x="-0.058216179"
       y="-0.050555128"
       width="1.1164324"
       height="1.1011103">
      <feGaussianBlur
         inkscape:collect="always"
         stdDeviation="1.0638153"
         id="feGaussianBlur11" />
    </filter>
    <radialGradient
       inkscape:collect="always"
       xlink:href="#linearGradient8"
       id="radialGradient9-8"
       cx="47.950642"
       cy="45.898148"
       fx="47.950642"
       fy="45.898148"
       r="20"
       gradientTransform="matrix(0,-3.1381277,3.1396555,0,-68.616349,201.85208)"
       gradientUnits="userSpaceOnUse" />
    <linearGradient
       id="linearGradient8"
       inkscape:collect="always">
      <stop
         style="stop-color:#e59347;stop-opacity:1;"
         offset="0"
         id="stop8" />
      <stop
         style="stop-color:#e54764;stop-opacity:1;"
         offset="1"
         id="stop9" />
    </linearGradient>
    <radialGradient
       inkscape:collect="always"
       xlink:href="#linearGradient11"
       id="radialGradient9"
       cx="47.950642"
       cy="45.898148"
       fx="47.950642"
       fy="45.898148"
       r="20"
       gradientTransform="matrix(0,-4.0234745,4.0254334,0,-100.39967,252.93241)"
       gradientUnits="userSpaceOnUse" />
    <linearGradient
       id="linearGradient11"
       inkscape:collect="always">
      <stop
         style="stop-color:#e57137;stop-opacity:1;"
         offset="0"
         id="stop10" />
      <stop
         style="stop-color:#b43b56;stop-opacity:1;"
         offset="1"
         id="stop11" />
    </linearGradient>
  </defs>
  <sodipodi:namedview
     id="namedview11"
     pagecolor="#ffffff"
     bordercolor="#000000"
     borderopacity="0.25"
     inkscape:showpageshadow="2"
     inkscape:pageopacity="0.0"
     inkscape:pagecheckerboard="0"
     inkscape:deskcolor="#d1d1d1"
     inkscape:zoom="19.5"
     inkscape:cx="32"
     inkscape:cy="32"
     inkscape:current-layer="svg11" />
  <g
     id="g11"
     transform="translate(-12.018539,11.110525)">
    <path
       d="M 40.416948,-7.3315732 C 35.351,-4.8413104 29.695962,-2.7744124 24.193664,-0.59145 21.28921,0.560851 18.963381,4.099545 18.963381,7.22495 v 13.702054 c 0,18.130078 20.412073,28.747876 25.076873,28.747876 4.6648,0 25.076873,-10.617798 25.076873,-28.747876 V 7.22495 c 0,-3.125405 -2.337464,-6.637291 -5.245941,-7.781167 -5.516616,-2.1696344 -11.175257,-4.2830584 -16.2105,-6.771695 -2.030826,-1.0037231 -5.210352,-1.0032106 -7.243738,-0.00364 z"
       style="fill:url(#radialGradient9);fill-rule:evenodd;stroke-width:1.25385"
       id="path3"
       sodipodi:nodetypes="ccssscc" />
    <path
       d="M 41.214238,-1.142022 C 37.26303,0.80027 32.852357,2.412357 28.560813,4.114968 26.295471,5.013712 24.48143,7.773732 24.48143,10.211406 v 10.686982 c 0,14.140639 15.920489,22.42204 19.558824,22.42204 3.638333,0 19.558824,-8.281401 19.558824,-22.42204 V 10.211406 c 0,-2.437674 -1.823115,-5.176785 -4.091595,-6.068956 -4.302712,-1.692218 -8.716195,-3.340592 -12.643457,-5.281617 -1.583952,-0.7828574 -4.063838,-0.7824584 -5.649788,-0.0029 z"
       style="fill:url(#radialGradient9-8);fill-rule:evenodd;stroke-width:0.977944"
       id="path3-5"
       sodipodi:nodetypes="ccssscc" />
    <path
       id="path3-6"
       style="mix-blend-mode:normal;fill:none;fill-rule:evenodd;stroke:#000000;stroke-width:0.2;stroke-dasharray:none;stroke-opacity:1;filter:url(#filter11)"
       d="m 32,5.7597657 c -1.183932,-3.54e-4 -2.369116,0.225537 -3.292969,0.679688 -4.603346,2.262862 -9.742337,4.1413773 -14.742187,6.1250003 -2.639232,1.047078 -4.7519535,4.263509 -4.7519535,7.103515 v 12.451172 c 0,16.474515 18.5482785,26.121094 22.7871095,26.121094 4.23883,0 22.787109,-9.646579 22.787109,-26.121094 V 19.667969 c 0,-2.840006 -2.124691,-6.03089 -4.767578,-7.070312 C 45.006669,10.626145 39.864508,8.7047447 35.289062,6.4433597 34.366372,5.9873267 33.183931,5.7601207 32,5.7597657 Z m 0,5.7734383 c 0.923414,2.79e-4 1.84675,0.177517 2.566406,0.533203 3.568641,1.763778 7.578475,3.26309 11.488281,4.800781 2.061332,0.810702 3.71875,3.298596 3.71875,5.513672 v 9.710938 c 0,12.849375 -14.467342,20.375 -17.773437,20.375 -3.306098,0 -17.773437,-7.525625 -17.773437,-20.375 V 22.38086 c 0,-2.215076 1.64855,-4.722389 3.70703,-5.539063 3.899659,-1.547136 7.907647,-3.012413 11.498047,-4.777343 0.720565,-0.354204 1.644946,-0.53153 2.56836,-0.53125 z"
       transform="matrix(1.1004924,0,0,1.1004924,8.824498,-14.418799)" />
    <path
       style="fill:none;stroke:#000000;stroke-width:0.3;stroke-dasharray:none;stroke-opacity:1;filter:url(#filter5)"
       d="M 65.400505,2.555339 44.126357,-5.0621145 c -0.156261,-0.056034 -0.326763,-0.056034 -0.483004,0 L 22.369205,2.555339 c -0.290302,0.103959 -0.484603,0.382663 -0.484603,0.695265 0,7.708852 2.009014,16.620114 5.512038,24.44817 2.84142,6.350844 7.951056,14.822502 16.156113,19.113732 0.10442,0.05456 0.218421,0.08184 0.332562,0.08184 0.114141,0 0.228142,-0.02728 0.332562,-0.08184 8.204457,-4.292029 13.314093,-12.763489 16.156113,-19.113732 3.502824,-7.829255 5.512038,-16.741117 5.512038,-24.44817 0,-0.312622 -0.194301,-0.591304 -0.484603,-0.695265 z"
       id="path2-3" />
  </g>
</svg>
