<?xml version="1.0" encoding="UTF-8" standalone="no"?>
<svg
   width="64"
   height="64"
   version="1.1"
   id="svg8"
   sodipodi:docname="freeorion.svg"
   inkscape:version="1.4.2 (ebf0e940d0, 2025-05-08)"
   xmlns:inkscape="http://www.inkscape.org/namespaces/inkscape"
   xmlns:sodipodi="http://sodipodi.sourceforge.net/DTD/sodipodi-0.dtd"
   xmlns:xlink="http://www.w3.org/1999/xlink"
   xmlns="http://www.w3.org/2000/svg"
   xmlns:svg="http://www.w3.org/2000/svg">
  <defs
     id="defs8">
    <inkscape:path-effect
       effect="fillet_chamfer"
       id="path-effect17"
       is_visible="true"
       lpeversion="1"
       nodesatellites_param="F,0,0,1,0,0,0,1 @ F,0,1,1,0,2.0415774,0,1 @ F,0,0,1,0,0,0,1 @ F,0,1,1,0,2.0415774,0,1 @ F,0,0,1,0,0,0,1 @ F,0,0,1,0,2.0415774,0,1 @ F,0,0,1,0,0,0,1 @ F,0,1,1,0,2.0415774,0,1"
       radius="0"
       unit="px"
       method="auto"
       mode="F"
       chamfer_steps="1"
       flexible="false"
       use_knot_distance="true"
       apply_no_radius="true"
       apply_with_radius="true"
       only_selected="false"
       hide_knots="false" />
    <inkscape:path-effect
       effect="fillet_chamfer"
       id="path-effect16"
       is_visible="true"
       lpeversion="1"
       nodesatellites_param="F,0,1,1,0,1.3199148,0,1 @ F,0,0,1,0,1.3199148,0,1 @ F,0,1,1,0,1.3199148,0,1 @ F,0,1,1,0,1.3199148,0,1 | F,0,0,1,0,1.7675058,0,1 @ F,0,0,1,0,1.7675058,0,1 @ F,0,0,1,0,1.7675058,0,1 @ F,0,0,1,0,1.7675058,0,1 @ F,0,0,1,0,1.7675058,0,1"
       radius="0"
       unit="px"
       method="auto"
       mode="F"
       chamfer_steps="1"
       flexible="false"
       use_knot_distance="true"
       apply_no_radius="true"
       apply_with_radius="true"
       only_selected="false"
       hide_knots="false" />
    <inkscape:path-effect
       effect="fillet_chamfer"
       id="path-effect15"
       is_visible="true"
       lpeversion="1"
       nodesatellites_param="F,0,0,1,0,0,0,1 @ F,0,0,1,0,0,0,1 @ F,0,0,1,0,0,0,1 @ F,0,0,1,0,0,0,1 | F,0,0,1,0,1.5750458,0,1 @ F,0,0,1,0,1.5750458,0,1 @ F,0,1,1,0,1.282704,0,1 @ F,0,0,1,0,1.282704,0,1 @ F,0,0,1,0,1.5750458,0,1 | F,0,0,1,0,0,0,1 @ F,0,0,1,0,0,0,1 @ F,0,0,1,0,0,0,1 @ F,0,0,1,0,0,0,1"
       radius="0"
       unit="px"
       method="auto"
       mode="F"
       chamfer_steps="1"
       flexible="false"
       use_knot_distance="true"
       apply_no_radius="true"
       apply_with_radius="true"
       only_selected="false"
       hide_knots="false" />
    <inkscape:path-effect
       effect="fillet_chamfer"
       id="path-effect14"
       is_visible="true"
       lpeversion="1"
       nodesatellites_param="F,0,0,1,0,1.8131751,0,1 @ F,0,1,1,0,1.7795077,0,1 @ F,0,0,1,0,1.8131751,0,1 @ F,0,1,1,0,1.7795077,0,1 @ F,0,0,1,0,1.8131751,0,1 @ F,0,0,1,0,1.7795077,0,1 @ F,0,0,1,0,1.8131751,0,1 @ F,0,1,1,0,1.7795077,0,1"
       radius="0"
       unit="px"
       method="auto"
       mode="F"
       chamfer_steps="1"
       flexible="false"
       use_knot_distance="true"
       apply_no_radius="true"
       apply_with_radius="true"
       only_selected="false"
       hide_knots="false" />
    <linearGradient
       id="linearGradient12"
       inkscape:collect="always">
      <stop
         style="stop-color:#f78c51;stop-opacity:1;"
         offset="0"
         id="stop13" />
      <stop
         style="stop-color:#f71111;stop-opacity:1;"
         offset="1"
         id="stop14" />
    </linearGradient>
    <linearGradient
       id="linearGradient11"
       inkscape:collect="always">
      <stop
         style="stop-color:#237c92;stop-opacity:1;"
         offset="0"
         id="stop11" />
      <stop
         style="stop-color:#233892;stop-opacity:1;"
         offset="1"
         id="stop12" />
    </linearGradient>
    <radialGradient
       inkscape:collect="always"
       xlink:href="#linearGradient11"
       id="radialGradient12"
       cx="13.485039"
       cy="46.690598"
       fx="13.485039"
       fy="46.690598"
       r="28"
       gradientUnits="userSpaceOnUse"
       gradientTransform="matrix(1.7122956,-0.45880824,0.45880824,1.7122956,-29.752536,-28.081969)" />
    <radialGradient
       inkscape:collect="always"
       xlink:href="#linearGradient12"
       id="radialGradient14"
       cx="16.362041"
       cy="48.963051"
       fx="16.362041"
       fy="48.963051"
       r="23.799999"
       gradientTransform="matrix(2.0071286,-1.1588162,1.4996445,2.5974604,-89.905849,-54.266807)"
       gradientUnits="userSpaceOnUse" />
    <inkscape:path-effect
       effect="fillet_chamfer"
       id="path-effect14-5"
       is_visible="true"
       lpeversion="1"
       nodesatellites_param="F,0,0,1,0,1.8131751,0,1 @ F,0,1,1,0,1.7795077,0,1 @ F,0,0,1,0,1.8131751,0,1 @ F,0,1,1,0,1.7795077,0,1 @ F,0,0,1,0,1.8131751,0,1 @ F,0,0,1,0,1.7795077,0,1 @ F,0,0,1,0,1.8131751,0,1 @ F,0,1,1,0,1.7795077,0,1"
       radius="0"
       unit="px"
       method="auto"
       mode="F"
       chamfer_steps="1"
       flexible="false"
       use_knot_distance="true"
       apply_no_radius="true"
       apply_with_radius="true"
       only_selected="false"
       hide_knots="false" />
    <inkscape:path-effect
       effect="fillet_chamfer"
       id="path-effect16-3"
       is_visible="true"
       lpeversion="1"
       nodesatellites_param="F,0,1,1,0,1.3199148,0,1 @ F,0,0,1,0,1.3199148,0,1 @ F,0,1,1,0,1.3199148,0,1 @ F,0,1,1,0,1.3199148,0,1 | F,0,0,1,0,1.7675058,0,1 @ F,0,0,1,0,1.7675058,0,1 @ F,0,0,1,0,1.7675058,0,1 @ F,0,0,1,0,1.7675058,0,1 @ F,0,0,1,0,1.7675058,0,1"
       radius="0"
       unit="px"
       method="auto"
       mode="F"
       chamfer_steps="1"
       flexible="false"
       use_knot_distance="true"
       apply_no_radius="true"
       apply_with_radius="true"
       only_selected="false"
       hide_knots="false" />
    <inkscape:path-effect
       effect="fillet_chamfer"
       id="path-effect15-5"
       is_visible="true"
       lpeversion="1"
       nodesatellites_param="F,0,0,1,0,0,0,1 @ F,0,0,1,0,0,0,1 @ F,0,0,1,0,0,0,1 @ F,0,0,1,0,0,0,1 | F,0,0,1,0,1.5750458,0,1 @ F,0,0,1,0,1.5750458,0,1 @ F,0,1,1,0,1.282704,0,1 @ F,0,0,1,0,1.282704,0,1 @ F,0,0,1,0,1.5750458,0,1 | F,0,0,1,0,0,0,1 @ F,0,0,1,0,0,0,1 @ F,0,0,1,0,0,0,1 @ F,0,0,1,0,0,0,1"
       radius="0"
       unit="px"
       method="auto"
       mode="F"
       chamfer_steps="1"
       flexible="false"
       use_knot_distance="true"
       apply_no_radius="true"
       apply_with_radius="true"
       only_selected="false"
       hide_knots="false" />
    <filter
       inkscape:collect="always"
       style="color-interpolation-filters:sRGB"
       id="filter6"
       x="-0.08783961"
       y="-0.083793553"
       width="1.1756792"
       height="1.1675871">
      <feGaussianBlur
         inkscape:collect="always"
         stdDeviation="2.0287576"
         id="feGaussianBlur6" />
    </filter>
  </defs>
  <sodipodi:namedview
     id="namedview8"
     pagecolor="#ffffff"
     bordercolor="#000000"
     borderopacity="0.25"
     inkscape:showpageshadow="2"
     inkscape:pageopacity="0.0"
     inkscape:pagecheckerboard="0"
     inkscape:deskcolor="#d1d1d1"
     inkscape:zoom="11.313709"
     inkscape:cx="27.488775"
     inkscape:cy="36.460192"
     inkscape:window-width="2540"
     inkscape:window-height="1377"
     inkscape:window-x="0"
     inkscape:window-y="0"
     inkscape:window-maximized="0"
     inkscape:current-layer="svg8" />
  <circle
     style="fill:url(#radialGradient12);stroke-width:0.931146"
     cx="32"
     cy="32"
     r="26.072088"
     id="circle2" />
  <path
     style="fill:#ffffff"
     d="m 27.99961,14.262109 c -2.508884,0.573219 -4.867678,1.672002 -6.920704,3.223828 L 20.8,18 c 1.852608,-1.203188 4.783954,-1.081373 6.98086,-1.3125 z m 8.143111,1.576902 0.109088,1.202249 c 0.07861,0.866315 0.753827,1.925177 1.444225,2.453603 2.289023,1.752 3.984272,4.171187 4.848461,6.926019 0.211968,0.675705 0.897739,1.306803 1.601313,1.389501 l 4.430258,0.520738 c 0.703574,0.0827 1.166132,-0.414978 0.987004,-1.100266 C 48.010572,21.291495 44.029365,16.662894 38.251307,14.807944 37.42334,14.542139 36.404496,14.338839 36.00039,14.270409 Z m -19.884518,7.099367 c -0.996924,1.719694 -1.705394,3.59109 -2.097266,5.539844 l 1.241406,-0.14492 c 0.008,-2.10987 0.85586,-5.39492 0.85586,-5.39492 z"
     id="path4"
     inkscape:path-effect="#path-effect15"
     inkscape:original-d="m 27.99961,14.262109 c -2.508884,0.573219 -4.867678,1.672002 -6.920704,3.223828 L 20.8,18 c 1.852608,-1.203188 4.783954,-1.081373 6.98086,-1.3125 z m 8.00078,0.0083 0.39375,4.339453 c 3.317226,1.992108 5.662034,5.268306 6.477734,9.050782 L 49.85,28.48086 C 48.44875,21.422576 43.751989,15.976647 36.732083,14.394311 Z m -19.742187,8.667969 c -0.996924,1.719694 -1.705394,3.59109 -2.097266,5.539844 l 1.241406,-0.14492 c 0.008,-2.10987 0.85586,-5.39492 0.85586,-5.39492 z"
     sodipodi:nodetypes="cccccccccccccccc"
     transform="matrix(0.93114599,0,0,0.93114599,2.2033283,2.2033284)" />
  <path
     style="fill:#363636"
     d="m 14.45197,36.803777 c 1.655348,6.021734 6.294628,10.780681 12.271946,12.590228 0.697582,0.211183 1.222582,-0.252056 1.156585,-0.978031 l -0.237564,-2.613198 c -0.066,-0.725975 -0.708505,-1.379002 -1.420574,-1.533799 -4.095223,-0.890258 -7.579596,-3.573475 -9.486531,-7.305359 -0.331581,-0.648907 -1.131263,-1.271467 -1.855163,-1.357283 -0.404409,-0.04794 -0.62188,0.494701 -0.428699,1.197442 z m 31.439805,-0.770799 -2.231651,0.235078 c -0.970795,0.102262 -2.07962,0.912263 -2.595636,1.740129 -0.800186,1.283772 -1.803538,2.429911 -2.970109,3.393013 -0.752272,0.621064 -1.502,1.824482 -1.590426,2.796635 l -0.343844,3.78021 c -0.08843,0.972153 0.615466,1.593619 1.544257,1.294263 5.615926,-1.81005 9.951767,-6.023501 11.654273,-11.643687 0.282893,-0.933863 -0.363136,-1.738858 -1.338829,-1.769264 a 15.699307,15.699307 175.33565 0 0 -2.128035,0.173623 z"
     id="path5"
     inkscape:path-effect="#path-effect16"
     inkscape:original-d="M 14.148438,35.519532 C 15.549688,42.577816 20.980094,48.148132 28,49.730468 l -0.476562,-5.242186 c -5.091434,-0.613918 -9.43778,-3.960916 -11.332032,-8.726564 z m 33.501117,0.328284 -5.747211,0.605402 c -1.130588,2.4584 -2.95134,4.53805 -5.238282,5.984376 L 36,49.738282 C 43.017216,48.151324 48.388804,42.97177 49.786458,35.91441 Z"
     sodipodi:nodetypes="ccccccccccc"
     transform="matrix(0.93114599,0,0,0.93114599,2.2033283,2.2033284)" />
  <path
     style="fill:url(#radialGradient14)"
     d="M 31.805463,3.0027089 29.190925,27.230764 a 2.2927382,2.2927382 133.97597 0 1 -1.952207,2.023267 L 9.994605,31.741163 a 0.26151564,0.26151564 90 0 0 0,0.517674 l 17.244113,2.487132 a 2.2927382,2.2927382 46.024027 0 1 1.952207,2.023267 l 2.614538,24.228055 a 0.19566638,0.19566638 180 0 0 0.389074,0 l 2.614538,-24.228055 a 2.2927382,2.2927382 133.97597 0 1 1.952207,-2.023267 l 17.244113,-2.487132 a 0.26151564,0.26151564 90 0 0 0,-0.517674 L 36.761282,29.254031 A 2.2927382,2.2927382 46.024027 0 1 34.809075,27.230764 L 32.194537,3.0027089 a 0.19566638,0.19566638 180 0 0 -0.389074,0 z"
     id="path7"
     inkscape:path-effect="#path-effect14"
     inkscape:original-d="M 32,1.2 29,29 8.2,32 29,35 32,62.8 35,35 55.8,32 35,29 Z"
     transform="matrix(0.93678855,0,0,0.93678855,2.1540845,2.0170627)" />
  <g
     id="g6"
     transform="matrix(0.93114599,0,0,0.93114599,71.557337,0.29750696)"
     style="mix-blend-mode:normal;filter:url(#filter6)">
    <path
       d="m -42.664062,6.0507812 a 28,28 0 0 0 -27.81836,27.9999998 28,28 0 0 0 27.820313,28 l -2.50586,-23.208984 a 2.3066317,2.3066317 0 0 0 -1.96289,-2.035156 l -17.34961,-2.501954 a 0.26310037,0.26310037 0 0 1 0,-0.521484 l 17.34961,-2.501953 a 2.3066317,2.3066317 0 0 0 1.96289,-2.035156 z m 0.646484,0.00391 2.501953,23.1914068 a 2.3066317,2.3066317 0 0 0 1.964844,2.035156 l 17.347656,2.501953 a 0.26310037,0.26310037 0 0 1 0,0.521484 l -17.347656,2.501954 a 2.3066317,2.3066317 0 0 0 -1.964844,2.035156 l -2.501953,23.205078 A 28,28 0 0 0 -14.482422,34.050781 28,28 0 0 0 -42.017578,6.0546875 Z m -4.464844,10.2578128 -0.21875,2.425781 c -2.196906,0.231127 -5.127861,0.109312 -6.980469,1.3125 l 0.279297,-0.515625 c 2.053026,-1.551826 4.411038,-2.649437 6.919922,-3.222656 z m 8,0.0078 c 0.404106,0.06843 1.423986,0.271305 2.251953,0.53711 5.778058,1.85495 9.760002,6.484468 11.3125,12.423828 0.179129,0.685288 -0.284707,1.182308 -0.988281,1.099609 l -4.429687,-0.521484 c -0.703575,-0.0827 -1.389595,-0.712967 -1.601563,-1.388672 -0.864189,-2.754832 -2.558634,-5.173781 -4.847656,-6.925781 -0.690398,-0.528426 -1.366706,-1.58681 -1.445313,-2.453125 l -0.109375,-1.203125 z m -19.742187,8.667969 c 0,0 -0.847469,3.284661 -0.855469,5.394531 l -1.240234,0.144532 c 0.391871,-1.948754 1.098779,-3.819369 2.095703,-5.539063 z m -1.451172,12.666016 c 0.02376,-0.0015 0.04894,-10e-4 0.07422,0.002 0.7239,0.08582 1.523887,0.708515 1.855468,1.357422 1.906935,3.731884 5.391106,6.414429 9.486328,7.304687 0.712069,0.154797 1.353925,0.809182 1.419922,1.535157 l 0.238282,2.613281 c 0.066,0.725975 -0.458668,1.187745 -1.15625,0.976562 -5.977319,-1.809547 -10.616137,-6.568109 -12.271485,-12.589843 -0.181107,-0.65882 -0.0029,-1.176532 0.353516,-1.199219 z m 33.21289,0.255859 c 0.975693,0.03041 1.622736,0.833715 1.339844,1.767578 -1.702506,5.620187 -6.038371,9.834482 -11.654297,11.644532 -0.928791,0.299355 -1.633348,-0.322769 -1.544922,-1.294922 l 0.34375,-3.779297 c 0.08843,-0.972153 0.839525,-2.175811 1.591797,-2.796875 1.166571,-0.963102 2.168564,-2.108806 2.96875,-3.392578 0.516016,-0.827866 1.624908,-1.637973 2.595703,-1.740235 l 2.232422,-0.236328 a 15.699307,15.699307 0 0 1 2.126953,-0.171875 z"
       style="fill:none;fill-opacity:1;stroke:#000000;stroke-width:0.1;stroke-dasharray:none;stroke-opacity:1"
       id="path6" />
    <path
       d="m -46.482422,16.3125 c -2.508884,0.573219 -4.866896,1.67083 -6.919922,3.222656 l -0.279297,0.515625 c 1.852608,-1.203188 4.783563,-1.081373 6.980469,-1.3125 z m 8,0.0078 0.142578,1.56836 0.109375,1.203125 c 0.07861,0.866315 0.754915,1.924699 1.445313,2.453125 2.289022,1.752 3.983467,4.170949 4.847656,6.925781 0.211968,0.675705 0.897988,1.305973 1.601563,1.388672 l 4.429687,0.521484 c 0.703574,0.0827 1.16741,-0.414321 0.988281,-1.099609 -1.552498,-5.93936 -5.534442,-10.568878 -11.3125,-12.423828 -0.827967,-0.265805 -1.847847,-0.46868 -2.251953,-0.53711 z m -19.742187,8.667969 c -0.996924,1.719694 -1.703832,3.590309 -2.095703,5.539063 l 1.240234,-0.144532 c 0.008,-2.10987 0.855469,-5.394531 0.855469,-5.394531 z"
       style="fill:none;fill-opacity:1;stroke:#000000;stroke-width:0.1;stroke-dasharray:none;stroke-opacity:1"
       id="path3" />
    <path
       d="m -59.675781,37.654297 c -0.356408,0.02269 -0.534623,0.540399 -0.353516,1.199219 1.655348,6.021734 6.294166,10.780296 12.271485,12.589843 0.697582,0.211183 1.222247,-0.250587 1.15625,-0.976562 l -0.238282,-2.613281 c -0.066,-0.725975 -0.707853,-1.38036 -1.419922,-1.535157 -4.095222,-0.890258 -7.579393,-3.572803 -9.486328,-7.304687 -0.331581,-0.648907 -1.131568,-1.271606 -1.855468,-1.357422 -0.02528,-0.003 -0.05046,-0.0035 -0.07422,-0.002 z m 33.21289,0.255859 a 15.699307,15.699307 0 0 0 -2.126953,0.171875 l -2.232422,0.236328 c -0.970795,0.102262 -2.079687,0.912369 -2.595703,1.740235 -0.800186,1.283772 -1.802179,2.429476 -2.96875,3.392578 -0.752272,0.621064 -1.503371,1.824722 -1.591797,2.796875 l -0.34375,3.779297 c -0.08843,0.972153 0.616131,1.594277 1.544922,1.294922 5.615926,-1.81005 9.951791,-6.024345 11.654297,-11.644532 0.282892,-0.933863 -0.364151,-1.737171 -1.339844,-1.767578 z"
       style="fill:none;fill-opacity:1;stroke:#000000;stroke-width:0.1;stroke-dasharray:none;stroke-opacity:1"
       id="path2" />
    <path
       d="m -42.355469,4.6953125 a 0.19685208,0.19685208 0 0 0 -0.18164,0.1757812 l -2.63086,24.3750003 a 2.3066317,2.3066317 0 0 1 -1.96289,2.035156 l -17.34961,2.501953 a 0.26310037,0.26310037 0 0 0 0,0.521484 l 17.34961,2.501954 a 2.3066317,2.3066317 0 0 1 1.96289,2.035156 l 2.63086,24.375 a 0.19685208,0.19685208 0 0 0 0.392578,0 l 2.628906,-24.375 a 2.3066317,2.3066317 0 0 1 1.964844,-2.035156 l 17.347656,-2.501954 a 0.26310037,0.26310037 0 0 0 0,-0.521484 L -37.550781,31.28125 a 2.3066317,2.3066317 0 0 1 -1.964844,-2.035156 L -42.144531,4.8710937 a 0.19685208,0.19685208 0 0 0 -0.210938,-0.1757812 z"
       style="fill:none;fill-opacity:1;stroke:#000000;stroke-width:0.1;stroke-dasharray:none;stroke-opacity:1"
       id="path1" />
  </g>
</svg>
