<?xml version="1.0" encoding="UTF-8" standalone="no"?>
<svg
   width="64"
   height="64"
   version="1"
   id="svg8"
   sodipodi:docname="notepad.svg"
   inkscape:version="1.4.3 (0d15f75042, 2025-12-25)"
   xmlns:inkscape="http://www.inkscape.org/namespaces/inkscape"
   xmlns:sodipodi="http://sodipodi.sourceforge.net/DTD/sodipodi-0.dtd"
   xmlns:xlink="http://www.w3.org/1999/xlink"
   xmlns="http://www.w3.org/2000/svg"
   xmlns:svg="http://www.w3.org/2000/svg">
  <defs
     id="defs8">
    <linearGradient
       id="linearGradient11"
       inkscape:collect="always">
      <stop
         style="stop-color:#e4e4e4;stop-opacity:1;"
         offset="0"
         id="stop12" />
      <stop
         style="stop-color:#eeeeee;stop-opacity:1;"
         offset="1"
         id="stop13" />
    </linearGradient>
    <linearGradient
       id="linearGradient9"
       inkscape:collect="always">
      <stop
         style="stop-color:#f3d491;stop-opacity:1;"
         offset="0"
         id="stop10" />
      <stop
         style="stop-color:#f3b491;stop-opacity:1;"
         offset="1"
         id="stop11" />
    </linearGradient>
    <linearGradient
       id="linearGradient8"
       inkscape:collect="always">
      <stop
         style="stop-color:#ffbb29;stop-opacity:1;"
         offset="0"
         id="stop8" />
      <stop
         style="stop-color:#ff8929;stop-opacity:1;"
         offset="1"
         id="stop9" />
    </linearGradient>
    <radialGradient
       inkscape:collect="always"
       xlink:href="#linearGradient8"
       id="radialGradient9"
       cx="58.683773"
       cy="11.498439"
       fx="58.683773"
       fy="11.498439"
       r="19.5"
       gradientTransform="matrix(-1.3115776,1.3035553,-0.70493429,-0.70927262,140.65062,-57.843579)"
       gradientUnits="userSpaceOnUse" />
    <radialGradient
       inkscape:collect="always"
       xlink:href="#linearGradient9"
       id="radialGradient11"
       cx="27.125879"
       cy="37.228973"
       fx="27.125879"
       fy="37.228973"
       r="4.5465"
       gradientUnits="userSpaceOnUse"
       gradientTransform="matrix(1.8524541,0.71002789,-1.1931989,3.1130414,17.588512,-103.23268)" />
    <radialGradient
       inkscape:collect="always"
       xlink:href="#linearGradient11"
       id="radialGradient13"
       cx="11.377555"
       cy="51.785305"
       fx="11.377555"
       fy="51.785305"
       r="22"
       gradientTransform="matrix(2.1136527,-0.34287162,0.34062885,2.099827,-33.417338,-48.657842)"
       gradientUnits="userSpaceOnUse" />
    <filter
       inkscape:collect="always"
       style="color-interpolation-filters:sRGB"
       id="filter10"
       x="-0.13059139"
       y="-0.13059212"
       width="1.2611358"
       height="1.2611838">
      <feGaussianBlur
         inkscape:collect="always"
         stdDeviation="2.7217283"
         id="feGaussianBlur10" />
    </filter>
  </defs>
  <sodipodi:namedview
     id="namedview8"
     pagecolor="#ffffff"
     bordercolor="#000000"
     borderopacity="0.25"
     inkscape:showpageshadow="2"
     inkscape:pageopacity="0.0"
     inkscape:pagecheckerboard="0"
     inkscape:deskcolor="#d1d1d1"
     inkscape:zoom="11.655078"
     inkscape:cx="15.83001"
     inkscape:cy="35.907096"
     inkscape:window-width="1920"
     inkscape:window-height="1020"
     inkscape:window-x="0"
     inkscape:window-y="0"
     inkscape:window-maximized="1"
     inkscape:current-layer="svg8" />
  <g
     id="g11"
     transform="matrix(0.90687772,0,0,0.90687772,2.1701393,3.8867943)">
    <path
       style="fill:url(#radialGradient13);stroke:none"
       d="m 7.6428756,59.000001 c -1.5235,0 -2.75,-1.249 -2.75,-2.8 V 5.8000012 c 0,-1.5512 1.2265,-2.7999999 2.75,-2.7999999 H 46.142876 c 1.524,0 2.75,1.2487999 2.75,2.7999999 V 43.000001 l -16,16 z"
       id="path2" />
    <path
       style="fill:#fafafa"
       d="m 32.892876,59.000001 v -13.333 c 0,-1.473 1.194,-2.667 2.667,-2.667 h 13.333 z"
       id="path5" />
    <path
       style="fill:url(#radialGradient11);stroke:none"
       d="m 21.892876,42.000001 v -9.093 l 9.093,9.093 z"
       id="path6" />
    <path
       style="fill:#545454;stroke:none"
       d="m 21.892876,42.000001 v -3.637 l 3.637,3.637 z"
       id="path7" />
    <path
       style="fill:url(#radialGradient9);stroke:none"
       d="m 50.990876,3.8083013 -29.098,29.0986997 9.093,9.093 29.099,-29.098 c 0,0 1.818,-1.819 0,-3.6379997 l -5.456,-5.4557 c -1.819,-1.8187 -3.638,0 -3.638,0 z"
       id="path8" />
  </g>
  <g
     id="g10"
     transform="translate(48.32991,-2.771364)"
     style="stroke:#000000;stroke-opacity:1;stroke-width:0.2;stroke-dasharray:none;stroke-linejoin:round;stroke-linecap:round;filter:url(#filter10)">
    <path
       d="m -39.228516,9.3789063 c -1.381628,0 -2.49414,1.1323137 -2.49414,2.5390627 V 57.625 c 0,1.406567 1.112512,2.539062 2.49414,2.539062 h 22.898438 V 48.072266 c 0,-1.335831 1.082138,-2.417969 2.417969,-2.417969 H -1.8203125 V 28.509766 L -18.058594,44.746094 h -4.949218 -3.296875 V 41.449219 36.5 L -1.8203125,12.013672 v -0.0957 c 0,-1.406749 -1.112059,-2.5390627 -2.4941406,-2.5390627 z"
       style="fill:none;stroke:#000000;stroke-opacity:1;stroke-width:0.2;stroke-dasharray:none;stroke-linejoin:round;stroke-linecap:round"
       id="path10" />
    <path
       d="m -13.912109,45.654297 c -1.335831,0 -2.417969,1.082138 -2.417969,2.417969 V 60.164062 L -1.8203125,45.654297 Z"
       style="fill:none;stroke:#000000;stroke-opacity:1;stroke-width:0.2;stroke-dasharray:none;stroke-linejoin:round;stroke-linecap:round"
       id="path9" />
    <path
       d="m -26.304687,36.5 v 4.949219 l 3.296875,3.296875 h 4.949218 z"
       style="fill:none;stroke:#000000;stroke-opacity:1;stroke-width:0.2;stroke-dasharray:none;stroke-linejoin:round;stroke-linecap:round"
       id="path4" />
    <path
       d="m -26.304687,41.449219 v 3.296875 h 3.296875 z"
       style="fill:none;stroke:#000000;stroke-opacity:1;stroke-width:0.2;stroke-dasharray:none;stroke-linejoin:round;stroke-linecap:round"
       id="path3" />
    <path
       d="M 1.8867187,9.3808594 C 0.86336414,9.3321362 0.08203125,10.111328 0.08203125,10.111328 L -26.304687,36.5 -18.058594,44.746094 8.3300781,18.359375 c 0,0 1.6487037,-1.651171 0,-3.300781 L 3.3828125,10.111328 C 2.8673092,9.5959098 2.3518799,9.4030063 1.8867187,9.3808594 Z"
       style="fill:none;stroke:#000000;stroke-opacity:1;stroke-width:0.2;stroke-dasharray:none;stroke-linejoin:round;stroke-linecap:round"
       id="path1" />
  </g>
</svg>
