<?xml version="1.0" encoding="UTF-8" standalone="no"?>
<svg
   width="64"
   height="64"
   version="1.1"
   id="svg17"
   sodipodi:docname="gimp.svg"
   inkscape:version="1.4.2 (ebf0e940d0, 2025-05-08)"
   xmlns:inkscape="http://www.inkscape.org/namespaces/inkscape"
   xmlns:sodipodi="http://sodipodi.sourceforge.net/DTD/sodipodi-0.dtd"
   xmlns:xlink="http://www.w3.org/1999/xlink"
   xmlns="http://www.w3.org/2000/svg"
   xmlns:svg="http://www.w3.org/2000/svg">
  <defs
     id="defs17">
    <linearGradient
       id="linearGradient27"
       inkscape:collect="always">
      <stop
         style="stop-color:#1a1a1a;stop-opacity:1;"
         offset="0"
         id="stop28" />
      <stop
         style="stop-color:#000000;stop-opacity:1;"
         offset="1"
         id="stop29" />
    </linearGradient>
    <linearGradient
       id="linearGradient26"
       inkscape:collect="always">
      <stop
         style="stop-color:#272727;stop-opacity:1;"
         offset="0"
         id="stop26" />
      <stop
         style="stop-color:#0e0e0e;stop-opacity:1;"
         offset="1"
         id="stop27" />
    </linearGradient>
    <linearGradient
       id="linearGradient20"
       inkscape:collect="always">
      <stop
         style="stop-color:#8a8a8a;stop-opacity:1;"
         offset="0"
         id="stop21" />
      <stop
         style="stop-color:#5b5b5b;stop-opacity:1;"
         offset="1"
         id="stop22" />
    </linearGradient>
    <linearGradient
       id="linearGradient18"
       inkscape:collect="always">
      <stop
         style="stop-color:#ff9a0c;stop-opacity:1;"
         offset="0"
         id="stop19" />
      <stop
         style="stop-color:#ff6b0c;stop-opacity:1;"
         offset="1"
         id="stop20" />
    </linearGradient>
    <linearGradient
       id="linearGradient17"
       inkscape:collect="always">
      <stop
         style="stop-color:#ab6b32;stop-opacity:1;"
         offset="0"
         id="stop17" />
      <stop
         style="stop-color:#dea141;stop-opacity:1;"
         offset="1"
         id="stop18" />
    </linearGradient>
    <radialGradient
       inkscape:collect="always"
       xlink:href="#linearGradient17"
       id="radialGradient18"
       cx="14.462611"
       cy="40.196156"
       fx="14.462611"
       fy="40.196156"
       r="25"
       gradientTransform="matrix(1.0614534,0.68400071,-0.77790475,1.2071765,32.960989,-19.196459)"
       gradientUnits="userSpaceOnUse" />
    <radialGradient
       inkscape:collect="always"
       xlink:href="#linearGradient18"
       id="radialGradient20"
       cx="38.420204"
       cy="39.934105"
       fx="38.420204"
       fy="39.934105"
       r="7.1047445"
       gradientTransform="matrix(2.9753448,1.5000767,-0.24281118,0.48160672,-67.245073,-35.09874)"
       gradientUnits="userSpaceOnUse" />
    <radialGradient
       inkscape:collect="always"
       xlink:href="#linearGradient20"
       id="radialGradient22"
       cx="47.060272"
       cy="47.249897"
       fx="47.060272"
       fy="47.249897"
       r="4.5737787"
       gradientTransform="matrix(2.1930435,1.9970558,-1.7858472,1.9611071,25.87888,-139.96161)"
       gradientUnits="userSpaceOnUse" />
    <radialGradient
       inkscape:collect="always"
       xlink:href="#linearGradient26"
       id="radialGradient27"
       cx="2.6373563"
       cy="31.312056"
       fx="2.6373563"
       fy="31.312056"
       r="8.0000003"
       gradientTransform="matrix(3.9816145,3.4912931,-2.2828236,2.6034259,64.714007,-61.753788)"
       gradientUnits="userSpaceOnUse" />
    <radialGradient
       inkscape:collect="always"
       xlink:href="#linearGradient27"
       id="radialGradient29"
       cx="34"
       cy="29"
       fx="34"
       fy="29"
       r="3"
       gradientUnits="userSpaceOnUse"
       gradientTransform="matrix(0.84850914,0,0,0.84850914,4.7719377,6.354854)" />
    <radialGradient
       inkscape:collect="always"
       xlink:href="#linearGradient27"
       id="radialGradient29-3"
       cx="34"
       cy="29"
       fx="34"
       fy="29"
       r="3"
       gradientUnits="userSpaceOnUse"
       gradientTransform="matrix(0.84850914,0,0,0.84850914,-5.9864989,6.1185224)" />
    <filter
       inkscape:collect="always"
       style="color-interpolation-filters:sRGB"
       id="filter21"
       x="-0.067501701"
       y="-0.077973977"
       width="1.1365557"
       height="1.158411">
      <feGaussianBlur
         inkscape:collect="always"
         stdDeviation="1.3844172"
         id="feGaussianBlur21" />
    </filter>
  </defs>
  <sodipodi:namedview
     id="namedview17"
     pagecolor="#ffffff"
     bordercolor="#000000"
     borderopacity="0.25"
     inkscape:showpageshadow="2"
     inkscape:pageopacity="0.0"
     inkscape:pagecheckerboard="0"
     inkscape:deskcolor="#d1d1d1"
     inkscape:zoom="14.170972"
     inkscape:cx="19.864551"
     inkscape:cy="36.976997"
     inkscape:window-width="1920"
     inkscape:window-height="1020"
     inkscape:window-x="0"
     inkscape:window-y="0"
     inkscape:window-maximized="1"
     inkscape:current-layer="svg17" />
  <g
     id="g21"
     transform="matrix(1.1049264,0,0,1.1049264,-3.2739262,-5.0229323)">
    <path
       style="fill:url(#radialGradient18);fill-rule:evenodd;stroke-width:0.848509"
       d="m 50.759191,11.456266 c -0.381295,-0.06069 -0.723852,0.154758 -0.929787,0.400064 -0.205932,0.245428 -0.34882,0.549482 -0.473255,0.932675 -0.215201,0.663093 -1.005524,3.124412 -3.855381,5.557084 -2.849857,2.432797 -7.764332,6.456514 -16.281985,6.675967 -5.179299,0.06068 -8.327116,-3.008917 -10.392396,-7.101202 -0.515421,-1.021282 -1.326799,-2.9245 -1.326799,-1.713505 v 1.87239 l -0.0263,9.690518 0.05258,0.127569 c 0,0 0.463992,1.032084 -0.02629,2.4226 -0.490287,1.390635 -2.787486,3.419951 -7.108344,4.718582 l -0.5282339,0.157186 0.1003876,0.557007 c 0.2396653,1.349368 1.1949873,2.732358 2.6053093,4.148241 1.410322,1.415763 3.298617,2.848154 5.49744,4.143145 4.397648,2.58998 10.030215,4.636668 15.502785,4.732315 5.472568,0.09589 10.826978,-1.82044 14.369832,-7.127968 3.542857,-5.307411 5.270689,-15.436648 3.855378,-28.629188 h -0.0024 c -0.04496,-0.362194 -0.12474,-0.671467 -0.267646,-0.942506 -0.142907,-0.270918 -0.383566,-0.550696 -0.764861,-0.611142 z"
       id="path2" />
    <path
       style="fill:#ffffff;fill-rule:evenodd;stroke-width:0.848509"
       d="m 22.589529,24.173546 c -1.469386,0 -2.946156,0.485738 -4.070453,1.48513 -1.1243,0.999389 -1.868011,2.522411 -1.868011,4.455504 0,1.933089 0.743711,3.453974 1.868011,4.453365 1.124297,0.999392 2.601067,1.485129 4.070453,1.485129 1.469388,0 2.946158,-0.485737 4.070457,-1.485129 1.1243,-0.999391 1.870207,-2.520276 1.870207,-4.453365 0,-1.933093 -0.745907,-3.456115 -1.870207,-4.455504 -1.124299,-0.999392 -2.601069,-1.48513 -4.070457,-1.48513 z"
       id="path6" />
    <path
       style="opacity:0.944948;fill-rule:evenodd;stroke-width:0.848509"
       d="m 21.742121,41.474293 c 2.327526,0 4.449468,0.118814 6.374151,0 3.197306,-0.201007 6.007769,-0.555012 7.42867,-1.667803 -0.601028,-0.787328 -0.768663,-1.65099 -0.768663,-1.65099 0,0 1.807919,0.751708 2.747056,1.98121 0.936446,1.226072 -0.329621,1.98143 -0.574696,3.550113 -0.545589,-1.377742 -0.886622,-1.894478 -1.024493,-2.441969 -0.991589,1.390353 -2.699541,2.38754 -4.996747,2.441969 -2.445219,0.05752 -5.558074,-0.911341 -9.185277,-2.210317 z"
       id="path8" />
    <path
       style="fill:url(#radialGradient27);fill-rule:evenodd;stroke-width:0.848509"
       d="m 11.53056,26.719072 c -0.301202,0 -0.596577,0.01803 -0.883694,0.0625 -0.7656476,0.117802 -1.4745432,0.400044 -2.0857102,0.828216 -2.4446681,1.712809 -3.0884954,5.594608 -0.068892,9.659478 3.0196072,4.064991 7.0146682,4.695831 9.4593362,2.983023 2.444669,-1.71281 3.090873,-5.594609 0.07127,-9.65948 -1.981613,-2.667602 -4.383884,-3.855592 -6.492303,-3.873503 z"
       id="path10" />
    <path
       style="fill:#ffffff;fill-rule:evenodd;stroke-width:0.848509"
       d="m 32.771639,24.173546 c -1.469386,0 -2.946157,0.485737 -4.070454,1.485129 -1.1243,0.999389 -1.86801,2.522412 -1.86801,4.455504 0,1.93309 0.74371,3.453975 1.86801,4.453366 1.124297,0.999392 2.601068,1.485129 4.070454,1.485129 1.469388,0 2.946158,-0.485737 4.070457,-1.485129 1.124298,-0.999391 1.870207,-2.520276 1.870207,-4.453366 0,-1.933092 -0.745909,-3.456115 -1.870207,-4.455504 -1.124299,-0.999392 -2.601069,-1.485129 -4.070457,-1.485129 z"
       id="path11" />
    <path
       style="fill:url(#radialGradient29);fill-opacity:1;fill-rule:evenodd;stroke-width:0.848509"
       d="m 33.621249,28.416093 c -0.623747,0 -1.254322,0.206188 -1.740107,0.63801 -0.485784,0.431824 -0.805421,1.096919 -0.805421,1.907516 0,0.810599 0.319637,1.475694 0.805421,1.907518 0.485785,0.431822 1.11636,0.638009 1.740107,0.638009 0.623746,0 1.254321,-0.206187 1.740106,-0.638009 0.485784,-0.431824 0.805421,-1.096919 0.805421,-1.907518 0,-0.810597 -0.319637,-1.475692 -0.805421,-1.907516 -0.485785,-0.431822 -1.11636,-0.63801 -1.740106,-0.63801 z"
       id="path12" />
    <path
       style="fill:url(#radialGradient29-3);fill-opacity:1;fill-rule:evenodd;stroke-width:0.848509"
       d="m 22.862812,28.179761 c -0.623747,0 -1.254322,0.206187 -1.740107,0.638011 -0.485784,0.431823 -0.805421,1.096919 -0.805421,1.907515 0,0.810599 0.319637,1.475694 0.805421,1.907518 0.485785,0.431822 1.11636,0.638009 1.740107,0.638009 0.623746,0 1.254322,-0.206187 1.740106,-0.638009 0.485784,-0.431824 0.805422,-1.096919 0.805422,-1.907518 0,-0.810596 -0.319638,-1.475692 -0.805422,-1.907515 -0.485784,-0.431824 -1.11636,-0.638011 -1.740106,-0.638011 z"
       id="path12-5" />
    <path
       style="fill:url(#radialGradient20);stroke-width:0.848509"
       d="m 46.276327,48.264311 1.025288,-2.041817 C 43.487386,43.432003 36.366711,40.600373 36.366711,40.600373 l -1.121978,0.616777 c 0,0 6.465094,5.734115 11.031594,7.047161 z"
       id="path14" />
    <path
       style="fill:url(#radialGradient22);stroke-width:0.848509"
       d="m 46.311995,44.500911 -0.534644,0.351601 c -0.495197,0.271053 -0.896951,0.731753 -1.222821,1.264564 -0.372882,0.875898 -0.52013,1.423634 -0.456037,2.27941 l 0.774725,-0.132659 c 0,0 4.04509,1.160471 5.95999,1.770802 l 0.223994,-0.43151 0.788548,-1.526266 -5.533755,-2.834875 z"
       id="path15" />
    <path
       style="fill:#3f3f3f;stroke-width:0.848509"
       d="m 57.379504,55.568384 c -1.360387,-4.420035 -1.842888,-7.929532 -5.398025,-7.61724 -2.864949,0.251665 -3.065522,4.180847 -0.105027,5.265093 2.851898,1.044472 5.503049,2.352147 5.503049,2.352147 z"
       id="path16" />
  </g>
  <g
     id="g20"
     transform="matrix(1.1049264,0,0,1.1049264,55.801391,-5.0825836)"
     style="mix-blend-mode:normal;filter:url(#filter21)">
    <path
       d="m -2.8867188,11.445313 c -0.3238209,0.0039 -0.6088694,0.195513 -0.7890625,0.410156 -0.2059323,0.245428 -0.3482206,0.550401 -0.4726562,0.933594 -0.2152014,0.663092 -1.0056116,3.123969 -3.8554688,5.55664 -2.2170557,1.892602 -5.6841667,4.747346 -11.1249997,6.025391 0.902769,0.22795 1.755566,0.654895 2.466797,1.287109 1.124298,0.999389 1.86914,2.521987 1.86914,4.455078 0,1.933091 -0.744842,3.455687 -1.86914,4.455078 -1.1243,0.999392 -2.602878,1.484375 -4.072266,1.484375 -1.469386,0 -2.946015,-0.484983 -4.070312,-1.484375 -0.391257,-0.347788 -0.735891,-0.758753 -1.019532,-1.228515 -0.284258,0.469762 -0.630228,0.880727 -1.021484,1.228515 -1.124298,0.999392 -2.600925,1.484375 -4.070313,1.484375 -0.87571,0 -1.753852,-0.172696 -2.558593,-0.523437 0.137014,2.0388 -0.673686,3.738663 -2.078125,4.722656 -1.143582,0.801228 -2.627478,1.089858 -4.191407,0.753906 1.21915,1.046698 2.676799,2.080322 4.304688,3.039063 4.397648,2.589981 10.031336,4.636775 15.503906,4.732422 3.183081,0.05578 6.325984,-0.569141 9.095703,-2.146485 -3.75831,-2.166582 -7.419922,-5.414062 -7.419922,-5.414062 l 1.121094,-0.617188 c 0,0 4.948482,1.96889 8.8046876,4.240235 1.0076554,-0.889281 1.9371248,-1.947309 2.7675782,-3.191407 3.5428565,-5.30741 5.2707794,-15.436366 3.8554687,-28.628906 h -0.00195 c -0.044928,-0.362194 -0.1246722,-0.670367 -0.2675781,-0.941406 -0.1429068,-0.270918 -0.3843296,-0.550882 -0.7656251,-0.611328 v -0.0098 c -0.047662,-0.0076 -0.094365,-0.01228 -0.140625,-0.01172 z m -33.0078122,4.371093 c -0.07037,0.0012 -0.111328,0.116259 -0.111328,0.390625 v 1.873047 l -0.02344,8.84375 c 0.287968,-0.485448 0.641333,-0.908611 1.042969,-1.265625 1.124297,-0.999392 2.600926,-1.484375 4.070312,-1.484375 1.469388,0 2.946015,0.484983 4.070313,1.484375 0.391256,0.347787 0.737226,0.758754 1.021484,1.228516 0.283641,-0.469763 0.628275,-0.880728 1.019532,-1.228516 0.278807,-0.247833 0.579826,-0.463424 0.896484,-0.648437 -0.125324,0.0049 -0.251988,0.0084 -0.378906,0.01172 -5.1793,0.06069 -8.3273,-3.009277 -10.392578,-7.101562 -0.398647,-0.789898 -0.974618,-2.107543 -1.214844,-2.103516 z"
       style="opacity:1;fill:none;fill-rule:evenodd;stroke:#000000;stroke-width:0.235708;stroke-opacity:1"
       id="path20" />
    <path
       d="m -30.916016,24.173828 c -1.469386,0 -2.946015,0.484983 -4.070312,1.484375 -0.920534,0.818263 -1.586122,1.987427 -1.796875,3.445313 0.447529,0.433263 0.883834,0.92895 1.300781,1.490234 1.284871,1.729641 1.90633,3.425464 2.007813,4.935547 0.804741,0.350741 1.682883,0.523437 2.558593,0.523437 1.469388,0 2.946015,-0.484983 4.070313,-1.484375 0.391256,-0.347788 0.737226,-0.758753 1.021484,-1.228515 -0.531419,-0.88013 -0.847656,-1.966188 -0.847656,-3.226563 0,-1.260375 0.316237,-2.346433 0.847656,-3.226562 -0.284258,-0.469762 -0.630228,-0.880729 -1.021484,-1.228516 -1.124298,-0.999392 -2.600925,-1.484375 -4.070313,-1.484375 z"
       style="opacity:1;fill:none;fill-rule:evenodd;stroke:#000000;stroke-width:0.235708;stroke-opacity:1"
       id="path19" />
    <path
       d="m -41.974609,26.71875 c -0.301203,0 -0.595695,0.01803 -0.882813,0.0625 -0.765647,0.117802 -1.47477,0.399953 -2.085937,0.828125 -2.444668,1.712809 -3.089917,5.595286 -0.07031,9.660156 3.019606,4.064991 7.01627,4.69523 9.460938,2.982422 2.444668,-1.71281 3.089919,-5.593332 0.07031,-9.658203 -1.981613,-2.667602 -4.383768,-3.85709 -6.492188,-3.875 z"
       style="opacity:1;fill:none;fill-rule:evenodd;stroke:#000000;stroke-width:0.235708;stroke-opacity:1"
       id="path18" />
    <path
       d="m -20.734375,24.173828 c -1.469386,0 -2.946015,0.484983 -4.070312,1.484375 -1.1243,0.999389 -1.867188,2.521987 -1.867188,4.455078 0,1.933091 0.742888,3.455687 1.867188,4.455078 1.124297,0.999392 2.600926,1.484375 4.070312,1.484375 1.469388,0 2.947966,-0.484983 4.072266,-1.484375 1.124298,-0.999391 1.86914,-2.521987 1.86914,-4.455078 0,-1.933091 -0.744842,-3.455689 -1.86914,-4.455078 -1.1243,-0.999392 -2.602878,-1.484375 -4.072266,-1.484375 z"
       style="opacity:1;fill:none;fill-rule:evenodd;stroke:#000000;stroke-width:0.235708;stroke-opacity:1"
       id="path17" />
    <path
       d="m -17.138672,40.599609 -1.121094,0.617188 c 0,0 4.679896,4.150146 8.8886722,6.197265 0.068202,-0.40441 0.2070801,-0.796911 0.4199219,-1.296875 0.2618201,-0.428088 0.5725483,-0.809688 0.9414063,-1.083984 -3.8968244,-2.351884 -9.1289064,-4.433594 -9.1289064,-4.433594 z"
       style="opacity:1;fill:none;stroke:#000000;stroke-width:0.235708;stroke-opacity:1"
       id="path13" />
    <path
       d="m -7.1933594,44.5 -0.5351562,0.351562 c -0.4951976,0.271053 -0.8967872,0.732814 -1.2226563,1.265625 -0.3728824,0.875899 -0.5191711,1.423522 -0.4550781,2.279297 l 0.7734375,-0.132812 c 0,0 2.8977495,0.831457 4.9492187,1.457031 0.2097757,-0.836157 0.8380441,-1.533995 1.8593751,-1.728516 l -5.3691407,-2.75 z"
       style="opacity:1;fill:none;stroke:#000000;stroke-width:0.235708;stroke-opacity:1"
       id="path9" />
    <path
       d="M -0.89257813,47.9375 C -1.0917338,47.9279 -1.3012414,47.9317 -1.5234375,47.95117 -4.3883862,48.202835 -4.5894022,52.13255 -1.6289062,53.216795 1.2229915,54.261268 3.875,55.568359 3.875,55.568359 2.5996375,51.424576 2.0947563,48.081931 -0.89257813,47.9375 Z"
       style="opacity:1;fill:none;stroke:#000000;stroke-width:0.235708;stroke-opacity:1"
       id="path7" />
  </g>
</svg>
