<?xml version="1.0" encoding="UTF-8" standalone="no"?>
<svg
   width="64"
   height="64"
   version="1"
   id="svg4"
   sodipodi:docname="spectacle.svg"
   inkscape:version="1.4.2 (ebf0e940d0, 2025-05-08)"
   xmlns:inkscape="http://www.inkscape.org/namespaces/inkscape"
   xmlns:sodipodi="http://sodipodi.sourceforge.net/DTD/sodipodi-0.dtd"
   xmlns:xlink="http://www.w3.org/1999/xlink"
   xmlns="http://www.w3.org/2000/svg"
   xmlns:svg="http://www.w3.org/2000/svg">
  <defs
     id="defs4">
    <inkscape:path-effect
       effect="fillet_chamfer"
       id="path-effect1"
       is_visible="true"
       lpeversion="1"
       nodesatellites_param="F,0,0,1,0,0,0,1 @ F,0,1,1,0,2.9069811,0,1 @ F,0,0,1,0,0,0,1 @ F,0,0,1,0,0,0,1 | F,0,0,1,0,2.9069811,0,1 @ F,0,0,1,0,0,0,1 @ F,0,0,1,0,0,0,1 | F,0,0,1,0,0,0,1 @ F,0,1,1,0,2.9069811,0,1 @ F,0,0,1,0,0,0,1 | F,0,0,1,0,0,0,1 @ F,0,0,1,0,0,0,1 @ F,0,1,1,0,2.9069811,0,1 | F,0,0,1,0,0,0,1 @ F,0,0,1,0,0,0,1 @ F,0,1,1,0,2.9069811,0,1 | F,0,0,1,0,0,0,1 @ F,0,1,1,0,2.9069811,0,1 @ F,0,0,1,0,0,0,1"
       radius="0"
       unit="px"
       method="auto"
       mode="F"
       chamfer_steps="1"
       flexible="false"
       use_knot_distance="true"
       apply_no_radius="true"
       apply_with_radius="true"
       only_selected="false"
       hide_knots="false" />
    <radialGradient
       inkscape:collect="always"
       xlink:href="#SVGID_1_-3-2"
       id="radialGradient6"
       cx="32.783024"
       cy="61.404457"
       fx="32.783024"
       fy="61.404457"
       r="28"
       gradientUnits="userSpaceOnUse"
       gradientTransform="matrix(0,-2.2911589,2.2911589,0,-77.514043,137.66272)" />
    <inkscape:path-effect
       effect="fillet_chamfer"
       id="path-effect1-3"
       is_visible="true"
       lpeversion="1"
       nodesatellites_param="F,0,0,1,0,0,0,1 @ F,0,1,1,0,2.9069811,0,1 @ F,0,0,1,0,0,0,1 @ F,0,0,1,0,0,0,1 | F,0,0,1,0,2.9069811,0,1 @ F,0,0,1,0,0,0,1 @ F,0,0,1,0,0,0,1 | F,0,0,1,0,0,0,1 @ F,0,1,1,0,2.9069811,0,1 @ F,0,0,1,0,0,0,1 | F,0,0,1,0,0,0,1 @ F,0,0,1,0,0,0,1 @ F,0,1,1,0,2.9069811,0,1 | F,0,0,1,0,0,0,1 @ F,0,0,1,0,0,0,1 @ F,0,1,1,0,2.9069811,0,1 | F,0,0,1,0,0,0,1 @ F,0,1,1,0,2.9069811,0,1 @ F,0,0,1,0,0,0,1"
       radius="0"
       unit="px"
       method="auto"
       mode="F"
       chamfer_steps="1"
       flexible="false"
       use_knot_distance="true"
       apply_no_radius="true"
       apply_with_radius="true"
       only_selected="false"
       hide_knots="false" />
    <filter
       inkscape:collect="always"
       style="color-interpolation-filters:sRGB"
       id="filter1"
       x="-0.084890803"
       y="-0.084890804"
       width="1.1697816"
       height="1.1697816">
      <feGaussianBlur
         inkscape:collect="always"
         stdDeviation="1.9379093"
         id="feGaussianBlur1" />
    </filter>
    <filter
       inkscape:collect="always"
       style="color-interpolation-filters:sRGB"
       id="filter2"
       x="-0.10589795"
       y="-0.10591233"
       width="1.2117959"
       height="1.2118272">
      <feGaussianBlur
         inkscape:collect="always"
         stdDeviation="1.7500561"
         id="feGaussianBlur2" />
    </filter>
    <radialGradient
       id="SVGID_1_-3-2"
       cx="-159.43106"
       cy="15.462561"
       r="64.706802"
       gradientTransform="matrix(-0.89413329,0,0,0.96304834,-80.753654,49.330428)"
       gradientUnits="userSpaceOnUse"
       fx="-159.43106"
       fy="15.462561">
	<stop
   offset="0"
   style="stop-color:#006fff;stop-opacity:1;"
   id="stop1-6-9" />

	<stop
   offset="1"
   style="stop-color:#15baff;stop-opacity:1;"
   id="stop2-7-1" />

</radialGradient>
  </defs>
  <sodipodi:namedview
     id="namedview4"
     pagecolor="#ffffff"
     bordercolor="#000000"
     borderopacity="0.25"
     inkscape:showpageshadow="2"
     inkscape:pageopacity="0.0"
     inkscape:pagecheckerboard="0"
     inkscape:deskcolor="#d1d1d1"
     inkscape:zoom="9.7669124"
     inkscape:cx="27.132423"
     inkscape:cy="29.384926"
     inkscape:window-width="1920"
     inkscape:window-height="1020"
     inkscape:window-x="0"
     inkscape:window-y="0"
     inkscape:window-maximized="1"
     inkscape:current-layer="svg4" />
  <path
     id="circle2"
     style="fill:url(#radialGradient6);stroke-width:0.97179"
     d="M 59.210585,32.000207 A 27.210132,27.210132 0 0 1 32.000453,59.210339 27.210132,27.210132 0 0 1 4.7903204,32.000207 27.210132,27.210132 0 0 1 32.000453,4.7900745 27.210132,27.210132 0 0 1 59.210585,32.000207 Z" />
  <path
     style="opacity:1;mix-blend-mode:normal;fill:#ffffff;stroke-width:1.19501"
     d="m 32,11.684814 c -3.780167,-0.0045 -7.544918,1.094339 -10.747313,3.095603 -1.360271,0.85007 -1.693298,2.84187 -0.890461,4.232202 l 5.429319,9.402349 9.490067,-16.438404 C 34.198043,11.79069 33.099366,11.693013 32,11.684814 Z M 37.427139,15.43001 32,24.829934 H 50.996473 C 49.284269,20.244819 45.842571,16.379021 41.537687,14.085289 40.122064,13.331015 38.22989,14.039628 37.427139,15.43001 Z m -21.132664,3.70495 c -3.117447,3.762768 -4.767012,8.688365 -4.599838,13.563143 0.05497,1.603044 1.618437,2.886929 3.223918,2.886929 h 10.87299 z m 21.91398,9.280008 9.49707,16.450072 c 3.117447,-3.762768 4.767012,-8.688365 4.599838,-13.563143 -0.05497,-1.603044 -1.618437,-2.886929 -3.223918,-2.886929 z m 0,7.170064 -9.490067,16.438404 c 4.814186,0.856749 9.894788,-0.219089 14.029581,-2.802915 1.360299,-0.85005 1.692642,-2.842808 0.889805,-4.23314 z m -25.204928,3.585034 c 1.706525,4.578417 5.156198,8.452079 9.45859,10.745136 1.415525,0.754436 3.307993,0.04517 4.110744,-1.345212 L 32,39.170066 Z"
     id="path3"
     inkscape:path-effect="#path-effect1"
     inkscape:original-d="m 32,11.684814 c -4.749827,-0.0057 -9.475315,1.730692 -13.091439,4.810386 2.294328,3.973256 4.588656,7.946512 6.882984,11.919768 C 28.954901,22.9355 32.118256,17.456032 35.281612,11.976564 34.198043,11.79069 33.099366,11.693013 32,11.684814 Z m 6.880648,1.227687 C 36.587099,16.884979 34.293549,20.857456 32,24.829934 c 6.332158,0 12.664315,0 18.996473,0 C 48.944616,19.335263 44.409044,14.873598 38.880648,12.912501 Z M 16.294475,19.13496 c -3.736152,4.509547 -5.363957,10.689287 -4.282901,16.450072 4.593324,0 9.186647,0 13.779971,0 -3.16569,-5.483357 -6.33138,-10.966715 -9.49707,-16.450072 z m 21.91398,9.280008 c 3.16569,5.483357 6.33138,10.966715 9.49707,16.450072 3.736152,-4.509547 5.363957,-10.689287 4.282901,-16.450072 -4.593324,0 -9.186647,0 -13.779971,0 z m 0,7.170064 C 35.045099,41.0645 31.881744,46.543968 28.718388,52.023436 34.489264,53.050441 40.642962,51.30044 45.091439,47.5048 42.797111,43.531544 40.502783,39.558288 38.208455,35.585032 Z m -25.204928,3.585034 c 2.045434,5.487673 6.595132,9.962872 12.115825,11.917433 C 27.412901,47.115021 29.706451,43.142544 32,39.170066 c -6.332158,0 -12.664315,0 -18.996473,0 z"
     transform="matrix(0.97179044,0,0,0.97179044,0.90315864,0.90291277)" />
  <path
     id="circle2-3"
     style="mix-blend-mode:normal;fill:none;stroke:#000000;stroke-width:0.20580568;stroke-dasharray:none;stroke-opacity:1;filter:url(#filter1)"
     d="m 60.016045,32.007329 a 28,28 0 0 1 -28,28 28,28 0 0 1 -28.0000005,-28 28,28 0 0 1 28.0000005,-28.0000002 28,28 0 0 1 28,28.0000002 z"
     transform="matrix(0.97179044,0,0,0.97179044,0.90315864,0.90291277)" />
  <path
     style="mix-blend-mode:normal;fill:none;stroke:#1200ff;stroke-width:0.20580568;stroke-dasharray:none;stroke-opacity:1;filter:url(#filter2)"
     d="m 32,11.684814 c -3.780167,-0.0045 -7.544918,1.094339 -10.747313,3.095603 -1.360271,0.85007 -1.693298,2.84187 -0.890461,4.232202 l 5.429319,9.402349 9.490067,-16.438404 C 34.198043,11.79069 33.099366,11.693013 32,11.684814 Z M 37.427139,15.43001 32,24.829934 H 50.996473 C 49.284269,20.244819 45.842571,16.379021 41.537687,14.085289 40.122064,13.331015 38.22989,14.039628 37.427139,15.43001 Z m -21.132664,3.70495 c -3.117447,3.762768 -4.767012,8.688365 -4.599838,13.563143 0.05497,1.603044 1.618437,2.886929 3.223918,2.886929 h 10.87299 z m 21.91398,9.280008 9.49707,16.450072 c 3.117447,-3.762768 4.767012,-8.688365 4.599838,-13.563143 -0.05497,-1.603044 -1.618437,-2.886929 -3.223918,-2.886929 z m 0,7.170064 -9.490067,16.438404 c 4.814186,0.856749 9.894788,-0.219089 14.029581,-2.802915 1.360299,-0.85005 1.692642,-2.842808 0.889805,-4.23314 z m -25.204928,3.585034 c 1.706525,4.578417 5.156198,8.452079 9.45859,10.745136 1.415525,0.754436 3.307993,0.04517 4.110744,-1.345212 L 32,39.170066 Z"
     id="path3-5"
     inkscape:path-effect="#path-effect1-3"
     inkscape:original-d="m 32,11.684814 c -4.749827,-0.0057 -9.475315,1.730692 -13.091439,4.810386 2.294328,3.973256 4.588656,7.946512 6.882984,11.919768 C 28.954901,22.9355 32.118256,17.456032 35.281612,11.976564 34.198043,11.79069 33.099366,11.693013 32,11.684814 Z m 6.880648,1.227687 C 36.587099,16.884979 34.293549,20.857456 32,24.829934 c 6.332158,0 12.664315,0 18.996473,0 C 48.944616,19.335263 44.409044,14.873598 38.880648,12.912501 Z M 16.294475,19.13496 c -3.736152,4.509547 -5.363957,10.689287 -4.282901,16.450072 4.593324,0 9.186647,0 13.779971,0 -3.16569,-5.483357 -6.33138,-10.966715 -9.49707,-16.450072 z m 21.91398,9.280008 c 3.16569,5.483357 6.33138,10.966715 9.49707,16.450072 3.736152,-4.509547 5.363957,-10.689287 4.282901,-16.450072 -4.593324,0 -9.186647,0 -13.779971,0 z m 0,7.170064 C 35.045099,41.0645 31.881744,46.543968 28.718388,52.023436 34.489264,53.050441 40.642962,51.30044 45.091439,47.5048 42.797111,43.531544 40.502783,39.558288 38.208455,35.585032 Z m -25.204928,3.585034 c 2.045434,5.487673 6.595132,9.962872 12.115825,11.917433 C 27.412901,47.115021 29.706451,43.142544 32,39.170066 c -6.332158,0 -12.664315,0 -18.996473,0 z"
     transform="matrix(0.97179044,0,0,0.97179044,0.91875057,0.91003485)" />
</svg>
