<?xml version="1.0" encoding="UTF-8" standalone="no"?>
<svg
   width="64"
   height="64"
   version="1"
   id="svg6"
   sodipodi:docname="gnome-boxes.svg"
   inkscape:version="1.4.2 (ebf0e940d0, 2025-05-08)"
   xmlns:inkscape="http://www.inkscape.org/namespaces/inkscape"
   xmlns:sodipodi="http://sodipodi.sourceforge.net/DTD/sodipodi-0.dtd"
   xmlns="http://www.w3.org/2000/svg"
   xmlns:svg="http://www.w3.org/2000/svg">
  <defs
     id="defs6">
    <filter
       inkscape:collect="always"
       style="color-interpolation-filters:sRGB"
       id="filter1"
       x="-0.074368108"
       y="-0.074368108"
       width="1.1487362"
       height="1.1487362">
      <feGaussianBlur
         inkscape:collect="always"
         stdDeviation="1.2286507"
         id="feGaussianBlur1" />
    </filter>
    <filter
       inkscape:collect="always"
       style="color-interpolation-filters:sRGB"
       id="filter3"
       x="-0.070680656"
       y="-0.070680656"
       width="1.1413613"
       height="1.1413613">
      <feGaussianBlur
         inkscape:collect="always"
         stdDeviation="0.96079912"
         id="feGaussianBlur3" />
    </filter>
    <radialGradient
       id="SVGID_1_-3-2"
       cx="-159.43106"
       cy="15.462561"
       r="64.706802"
       gradientTransform="matrix(-0.89413329,0,0,0.96304834,-70.788688,26.295394)"
       gradientUnits="userSpaceOnUse"
       fx="-159.43106"
       fy="15.462561">
	<stop
   offset="0"
   style="stop-color:#006fff;stop-opacity:1;"
   id="stop1-6-9" />

	<stop
   offset="1"
   style="stop-color:#15baff;stop-opacity:1;"
   id="stop2-7-1" />

</radialGradient>
    <filter
       inkscape:collect="always"
       style="color-interpolation-filters:sRGB"
       id="filter4"
       x="-0.070802978"
       y="-0.070802977"
       width="1.141606"
       height="1.141606">
      <feGaussianBlur
         inkscape:collect="always"
         stdDeviation="1.5895694"
         id="feGaussianBlur4" />
    </filter>
  </defs>
  <sodipodi:namedview
     id="namedview6"
     pagecolor="#ffffff"
     bordercolor="#000000"
     borderopacity="0.25"
     inkscape:showpageshadow="2"
     inkscape:pageopacity="0.0"
     inkscape:pagecheckerboard="0"
     inkscape:deskcolor="#d1d1d1"
     inkscape:zoom="16.891768"
     inkscape:cx="39.397889"
     inkscape:cy="33.211444"
     inkscape:window-width="1920"
     inkscape:window-height="1020"
     inkscape:window-x="0"
     inkscape:window-y="0"
     inkscape:window-maximized="1"
     inkscape:current-layer="svg6" />
  <g
     id="g1"
     transform="translate(-9.9649669,23.035034)">
    <path
       class="st1"
       d="m 30.738817,-18.983264 h 22.4 c 9.3,0 16.8,7.499999 16.8,16.799999 v 22.4 c 0,9.3 -7.5,16.8 -16.8,16.8 h -22.4 c -9.3,0 -16.799999,-7.5 -16.799999,-16.8 v -22.4 c 0,-9.3 7.499999,-16.799999 16.799999,-16.799999 z"
       id="path2"
       style="fill:url(#SVGID_1_-3-2)" />
    <path
       class="st1"
       d="m 30.764966,-19.035034 h 22.4 c 9.3,0 16.8,7.5 16.8,16.8 v 22.4 c 0,9.3 -7.5,16.8 -16.8,16.8 h -22.4 c -9.3,0 -16.799999,-7.5 -16.799999,-16.8 v -22.4 c 0,-9.3 7.499999,-16.8 16.799999,-16.8 z"
       id="path2-2"
       style="opacity:0.673189;fill:none;stroke:#000000;stroke-width:0.3;stroke-dasharray:none;stroke-opacity:1;filter:url(#filter4)" />
  </g>
  <path
     style="opacity:0.635299;fill:#ffffff;fill-opacity:1;stroke-width:0.895595"
     d="M 15.879463,15.878303 V 48.119688 H 48.120847 V 15.878303 Z m 4.848746,3.582377 h 22.543892 l -5.373564,5.373563 H 26.101953 L 20.728388,19.46068 Z m -1.26637,1.271742 5.373564,5.373565 v 11.796584 l -5.373564,5.373565 V 20.732244 Z m 25.076632,0 V 43.276314 L 39.164907,37.902749 V 26.106166 l 5.373564,-5.373564 z M 26.62659,26.625431 H 37.37372 V 37.37256 H 26.62659 Z m -0.524763,12.538316 h 11.796584 l 5.373565,5.373564 H 20.728084 l 5.373563,-5.373564 z"
     id="path4" />
  <path
     style="opacity:1;fill:none;fill-opacity:1;stroke:#001eff;stroke-width:0.104447;stroke-dasharray:none;stroke-opacity:1;filter:url(#filter3)"
     d="m 15.340402,15.234688 v 33.36332 h 33.36332 v -33.36332 z m 5.017473,3.707036 h 23.328374 l -5.560553,5.560553 H 25.918614 L 20.35806,18.941724 Z m -1.310437,1.315997 5.560553,5.560554 v 12.207082 l -5.560553,5.560554 V 20.257536 Z m 25.949248,0 V 43.586095 L 39.436133,38.025541 V 25.81846 l 5.560553,-5.560553 z M 26.461508,26.355794 H 37.582616 V 37.476902 H 26.461508 Z m -0.543024,12.974625 h 12.207082 l 5.560554,5.560553 H 20.357746 l 5.560552,-5.560553 z"
     id="path4-3"
     transform="matrix(0.96637218,0,0,0.96637218,1.0762453,1.0750853)" />
  <path
     style="fill:#ffffff;fill-opacity:1;stroke-width:0.895595"
     d="m 17.670651,12.295928 a 5.373564,5.373564 0 0 0 -5.373564,5.373563 5.373564,5.373564 0 0 0 5.373564,5.373564 5.373564,5.373564 0 0 0 5.373564,-5.373564 5.373564,5.373564 0 0 0 -5.373564,-5.373563 z m 28.659008,0 a 5.373564,5.373564 0 0 0 -5.373564,5.373563 5.373564,5.373564 0 0 0 5.373564,5.373564 5.373564,5.373564 0 0 0 5.373564,-5.373564 5.373564,5.373564 0 0 0 -5.373564,-5.373563 z M 25.730997,23.043055 a 2.686782,2.686782 0 0 0 -2.686782,2.686782 2.686782,2.686782 0 0 0 2.686782,2.686783 2.686782,2.686782 0 0 0 2.686783,-2.686783 2.686782,2.686782 0 0 0 -2.686783,-2.686782 z m 12.538315,0 a 2.686782,2.686782 0 0 0 -2.686781,2.686782 2.686782,2.686782 0 0 0 2.686781,2.686783 2.686782,2.686782 0 0 0 2.686783,-2.686783 2.686782,2.686782 0 0 0 -2.686783,-2.686782 z M 25.730997,35.581371 a 2.686782,2.686782 0 0 0 -2.686782,2.686781 2.686782,2.686782 0 0 0 2.686782,2.686784 2.686782,2.686782 0 0 0 2.686783,-2.686784 2.686782,2.686782 0 0 0 -2.686783,-2.686781 z m 12.538315,0 a 2.686782,2.686782 0 0 0 -2.686781,2.686781 2.686782,2.686782 0 0 0 2.686781,2.686784 2.686782,2.686782 0 0 0 2.686783,-2.686784 2.686782,2.686782 0 0 0 -2.686783,-2.686781 z m -20.598661,5.373565 a 5.373564,5.373564 0 0 0 -5.373564,5.373563 5.373564,5.373564 0 0 0 5.373564,5.373564 5.373564,5.373564 0 0 0 5.373564,-5.373564 5.373564,5.373564 0 0 0 -5.373564,-5.373563 z m 28.659008,0 a 5.373564,5.373564 0 0 0 -5.373564,5.373563 5.373564,5.373564 0 0 0 5.373564,5.373564 5.373564,5.373564 0 0 0 5.373564,-5.373564 5.373564,5.373564 0 0 0 -5.373564,-5.373563 z"
     id="path6" />
  <path
     style="opacity:1;mix-blend-mode:normal;fill:none;fill-opacity:1;stroke:#0031ff;stroke-width:0.210369;stroke-dasharray:none;stroke-opacity:1;filter:url(#filter1)"
     d="m 17.067176,11.467367 a 5.599809,5.599809 0 0 0 -5.599809,5.599809 5.599809,5.599809 0 0 0 5.599809,5.599809 5.599809,5.599809 0 0 0 5.599809,-5.599809 5.599809,5.599809 0 0 0 -5.599809,-5.599809 z m 29.865648,0 a 5.599809,5.599809 0 0 0 -5.599809,5.599809 5.599809,5.599809 0 0 0 5.599809,5.599809 5.599809,5.599809 0 0 0 5.599809,-5.599809 5.599809,5.599809 0 0 0 -5.599809,-5.599809 z M 25.46689,22.666985 a 2.7999045,2.7999045 0 0 0 -2.799905,2.799905 2.7999045,2.7999045 0 0 0 2.799905,2.799904 2.7999045,2.7999045 0 0 0 2.799904,-2.799904 2.7999045,2.7999045 0 0 0 -2.799904,-2.799905 z m 13.06622,0 A 2.7999045,2.7999045 0 0 0 35.733206,25.46689 2.7999045,2.7999045 0 0 0 38.53311,28.266794 2.7999045,2.7999045 0 0 0 41.333015,25.46689 2.7999045,2.7999045 0 0 0 38.53311,22.666985 Z M 25.46689,35.733206 a 2.7999045,2.7999045 0 0 0 -2.799905,2.799904 2.7999045,2.7999045 0 0 0 2.799905,2.799905 2.7999045,2.7999045 0 0 0 2.799904,-2.799905 2.7999045,2.7999045 0 0 0 -2.799904,-2.799904 z m 13.06622,0 a 2.7999045,2.7999045 0 0 0 -2.799904,2.799904 2.7999045,2.7999045 0 0 0 2.799904,2.799905 2.7999045,2.7999045 0 0 0 2.799905,-2.799905 2.7999045,2.7999045 0 0 0 -2.799905,-2.799904 z m -21.465934,5.599809 a 5.599809,5.599809 0 0 0 -5.599809,5.599809 5.599809,5.599809 0 0 0 5.599809,5.599809 5.599809,5.599809 0 0 0 5.599809,-5.599809 5.599809,5.599809 0 0 0 -5.599809,-5.599809 z m 29.865648,0 a 5.599809,5.599809 0 0 0 -5.599809,5.599809 5.599809,5.599809 0 0 0 5.599809,5.599809 5.599809,5.599809 0 0 0 5.599809,-5.599809 5.599809,5.599809 0 0 0 -5.599809,-5.599809 z"
     id="path6-5"
     transform="matrix(0.95959768,0,0,0.95959768,1.2930278,1.2780188)" />
</svg>
