<?xml version="1.0" encoding="UTF-8" standalone="no"?>
<svg
   width="64"
   height="64"
   version="1"
   id="svg13"
   sodipodi:docname="godot.svg"
   inkscape:version="1.4.3 (0d15f75042, 2025-12-25)"
   xmlns:inkscape="http://www.inkscape.org/namespaces/inkscape"
   xmlns:sodipodi="http://sodipodi.sourceforge.net/DTD/sodipodi-0.dtd"
   xmlns:xlink="http://www.w3.org/1999/xlink"
   xmlns="http://www.w3.org/2000/svg"
   xmlns:svg="http://www.w3.org/2000/svg">
  <defs
     id="defs13">
    <inkscape:path-effect
       effect="fillet_chamfer"
       id="path-effect7"
       is_visible="true"
       lpeversion="1"
       nodesatellites_param="F,0,0,1,0,0,0,1 @ F,0,0,1,0,2.4483368,0,1 @ F,0,1,1,0,2.4483368,0,1 @ F,0,1,1,0,2.4483368,0,1 @ F,0,1,1,0,2.4483368,0,1 @ F,0,1,1,0,2.4483368,0,1 @ F,0,1,1,0,2.4483368,0,1 @ F,0,1,1,0,2.4483368,0,1 @ F,0,1,1,0,2.4483368,0,1 @ F,0,0,1,0,0,0,1"
       radius="0"
       unit="px"
       method="auto"
       mode="F"
       chamfer_steps="1"
       flexible="false"
       use_knot_distance="true"
       apply_no_radius="true"
       apply_with_radius="true"
       only_selected="false"
       hide_knots="false" />
    <inkscape:path-effect
       effect="fillet_chamfer"
       id="path-effect6"
       is_visible="true"
       lpeversion="1"
       nodesatellites_param="F,0,0,1,0,1.3719904,0,1 @ F,0,0,1,0,1.3719904,0,1 @ F,0,1,1,0,0.91286783,0,1 @ F,0,1,1,0,0.91286783,0,1 @ F,0,0,1,0,1.3719904,0,1 @ F,0,0,1,0,1.3719904,0,1 @ F,0,0,1,0,0.94734234,0,1 @ F,0,0,1,0,0,0,1 @ F,0,0,1,0,0,0,1 @ F,0,0,1,0,0,0,1 @ F,0,0,1,0,0.94734234,0,1 @ F,0,0,1,0,1.3719904,0,1 @ F,0,0,1,0,1.3719904,0,1 @ F,0,0,1,0,0.91286783,0,1 @ F,0,1,1,0,0.91286783,0,1 @ F,0,0,1,0,1.3719904,0,1 @ F,0,0,1,0,1.3719904,0,1 @ F,0,1,1,0,0.91286783,0,1 @ F,0,1,1,0,0.91286783,0,1"
       radius="0"
       unit="px"
       method="auto"
       mode="F"
       chamfer_steps="1"
       flexible="false"
       use_knot_distance="true"
       apply_no_radius="true"
       apply_with_radius="true"
       only_selected="false"
       hide_knots="false" />
    <inkscape:path-effect
       effect="fillet_chamfer"
       id="path-effect2"
       is_visible="true"
       lpeversion="1"
       nodesatellites_param="F,0,0,1,0,0,0,1 @ F,0,1,1,0,2.016382,0,1 @ F,0,1,1,0,2.016382,0,1 @ F,0,1,1,0,2.016382,0,1 @ F,0,1,1,0,2.016382,0,1 @ F,0,1,1,0,0,0,1 | F,0,0,1,0,0,0,1 @ F,0,1,1,0,2.016382,0,1 @ F,0,1,1,0,2.016382,0,1 @ F,0,1,1,0,2.016382,0,1 @ F,0,1,1,0,2.016382,0,1 @ F,0,1,1,0,0,0,1"
       radius="0"
       unit="px"
       method="auto"
       mode="F"
       chamfer_steps="1"
       flexible="false"
       use_knot_distance="true"
       apply_no_radius="true"
       apply_with_radius="true"
       only_selected="false"
       hide_knots="false" />
    <inkscape:path-effect
       effect="fillet_chamfer"
       id="path-effect1"
       is_visible="true"
       lpeversion="1"
       nodesatellites_param="F,0,0,1,0,3.8803148,0,1 @ F,0,0,1,0,3.1681266,0,1 @ F,0,0,1,0,3.1681266,0,1 @ F,0,0,1,0,2.2262327,0,1 @ F,0,0,1,0,2.2262327,0,1 @ F,0,1,1,0,3.2505184,0,1 @ F,0,0,1,0,1.6613008,0,1 @ F,0,0,1,0,0,0,1 @ F,0,0,1,0,0,0,1 @ F,0,0,1,0,2.6801425,0,1 @ F,0,0,1,0,0,0,1 @ F,0,0,1,0,2.6801425,0,1 @ F,0,0,1,0,0,0,1 @ F,0,0,1,0,0,0,1 @ F,0,0,1,0,1.6613008,0,1 @ F,0,0,1,0,3.2505184,0,1 @ F,0,0,1,0,2.2262327,0,1 @ F,0,0,1,0,2.2262327,0,1 @ F,0,0,1,0,3.1681266,0,1 @ F,0,0,1,0,3.1681266,0,1 @ F,0,0,1,0,3.8803148,0,1 @ F,0,0,1,0,2.2511256,0,1 @ F,0,0,1,0,2.2511256,0,1"
       radius="0"
       unit="px"
       method="auto"
       mode="F"
       chamfer_steps="1"
       flexible="false"
       use_knot_distance="true"
       apply_no_radius="true"
       apply_with_radius="true"
       only_selected="false"
       hide_knots="false" />
    <inkscape:path-effect
       effect="fillet_chamfer"
       id="path-effect1-5"
       is_visible="true"
       lpeversion="1"
       nodesatellites_param="F,0,0,1,0,2.2930761,0,1 @ F,0,0,1,0,1.7546563,0,1 @ F,0,0,1,0,1.6613008,0,1 @ F,0,0,1,0,1.6613008,0,1 @ F,0,0,1,0,1.7546563,0,1 @ F,0,0,1,0,1.7546563,0,1 @ F,0,0,1,0,1.6613008,0,1 @ F,0,0,1,0,0,0,1 @ F,0,0,1,0,0,0,1 @ F,0,0,1,0,2.6801425,0,1 @ F,0,0,1,0,0,0,1 @ F,0,1,1,0,2.6801425,0,1 @ F,0,0,1,0,0,0,1 @ F,0,0,1,0,0,0,1 @ F,0,0,1,0,1.6613008,0,1 @ F,0,0,1,0,1.7546563,0,1 @ F,0,0,1,0,1.7546563,0,1 @ F,0,0,1,0,1.6613008,0,1 @ F,0,0,1,0,1.6613008,0,1 @ F,0,0,1,0,1.7546563,0,1 @ F,0,0,1,0,1.7546563,0,1 @ F,0,0,1,0,1.6613008,0,1 @ F,0,0,1,0,1.6613008,0,1"
       radius="0"
       unit="px"
       method="auto"
       mode="F"
       chamfer_steps="1"
       flexible="false"
       use_knot_distance="true"
       apply_no_radius="true"
       apply_with_radius="true"
       only_selected="false"
       hide_knots="false" />
    <inkscape:path-effect
       effect="fillet_chamfer"
       id="path-effect1-53"
       is_visible="true"
       lpeversion="1"
       nodesatellites_param="F,0,0,1,0,2.2930761,0,1 @ F,0,0,1,0,1.7546563,0,1 @ F,0,0,1,0,1.6613008,0,1 @ F,0,0,1,0,1.6613008,0,1 @ F,0,0,1,0,1.7546563,0,1 @ F,0,0,1,0,1.7546563,0,1 @ F,0,0,1,0,1.6613008,0,1 @ F,0,0,1,0,0,0,1 @ F,0,0,1,0,0,0,1 @ F,0,0,1,0,2.6801425,0,1 @ F,0,0,1,0,0,0,1 @ F,0,1,1,0,2.6801425,0,1 @ F,0,0,1,0,0,0,1 @ F,0,0,1,0,0,0,1 @ F,0,0,1,0,1.6613008,0,1 @ F,0,0,1,0,1.7546563,0,1 @ F,0,0,1,0,1.7546563,0,1 @ F,0,0,1,0,1.6613008,0,1 @ F,0,0,1,0,1.6613008,0,1 @ F,0,0,1,0,1.7546563,0,1 @ F,0,0,1,0,1.7546563,0,1 @ F,0,0,1,0,1.6613008,0,1 @ F,0,0,1,0,1.6613008,0,1"
       radius="0"
       unit="px"
       method="auto"
       mode="F"
       chamfer_steps="1"
       flexible="false"
       use_knot_distance="true"
       apply_no_radius="true"
       apply_with_radius="true"
       only_selected="false"
       hide_knots="false" />
    <radialGradient
       id="SVGID_1_-3-2"
       cx="-159.43106"
       cy="15.462561"
       r="64.706802"
       gradientTransform="matrix(-0.89413329,0,0,0.96304834,-139.71765,50.73186)"
       gradientUnits="userSpaceOnUse"
       fx="-159.43106"
       fy="15.462561">
	<stop
   offset="0"
   style="stop-color:#006fff;stop-opacity:1;"
   id="stop1-6-9" />

	<stop
   offset="1"
   style="stop-color:#15baff;stop-opacity:1;"
   id="stop2-7-1" />

</radialGradient>
    <radialGradient
       inkscape:collect="always"
       xlink:href="#SVGID_1_-3-2"
       id="radialGradient6"
       cx="63.373993"
       cy="66.474586"
       fx="63.373993"
       fy="66.474586"
       r="26.615234"
       gradientTransform="matrix(0,-2.4132231,2.4146975,0,-96.352099,218.83999)"
       gradientUnits="userSpaceOnUse" />
    <radialGradient
       id="SVGID_1_-3-2-5"
       cx="-159.43106"
       cy="15.462561"
       r="64.706802"
       gradientTransform="matrix(-0.89413329,0,0,0.96304834,-139.71765,50.73186)"
       gradientUnits="userSpaceOnUse"
       fx="-159.43106"
       fy="15.462561">
	<stop
   offset="0"
   style="stop-color:#006fff;stop-opacity:1;"
   id="stop1-6-9-6" />

	<stop
   offset="1"
   style="stop-color:#15baff;stop-opacity:1;"
   id="stop2-7-1-2" />

</radialGradient>
    <inkscape:path-effect
       effect="fillet_chamfer"
       id="path-effect6-9"
       is_visible="true"
       lpeversion="1"
       nodesatellites_param="F,0,0,1,0,1.8085338,0,1 @ F,0,0,1,0,1.8085338,0,1 @ F,0,0,1,0,0.85433259,0,1 @ F,0,0,1,0,0.85433259,0,1 @ F,0,0,1,0,1.8085338,0,1 @ F,0,0,1,0,1.8085338,0,1 @ F,0,1,1,0,1.03931,0,1 @ F,0,0,1,0,0,0,1 @ F,0,0,1,0,0,0,1 @ F,0,0,1,0,0,0,1 @ F,0,0,1,0,1.03931,0,1 @ F,0,0,1,0,0,0,1 @ F,0,0,1,0,1.8085338,0,1 @ F,0,0,1,0,1.8085338,0,1 @ F,0,0,1,0,0.85433259,0,1 @ F,0,0,1,0,0.85433259,0,1 @ F,0,0,1,0,1.8085338,0,1 @ F,0,0,1,0,1.8085338,0,1 @ F,0,0,1,0,0.85433259,0,1"
       radius="0"
       unit="px"
       method="auto"
       mode="F"
       chamfer_steps="1"
       flexible="false"
       use_knot_distance="true"
       apply_no_radius="true"
       apply_with_radius="true"
       only_selected="false"
       hide_knots="false" />
    <filter
       inkscape:collect="always"
       style="color-interpolation-filters:sRGB"
       id="filter8"
       x="-0.041681457"
       y="-0.1397564"
       width="1.0833629"
       height="1.2795128">
      <feGaussianBlur
         inkscape:collect="always"
         stdDeviation="0.56476322"
         id="feGaussianBlur8" />
    </filter>
    <filter
       inkscape:collect="always"
       style="color-interpolation-filters:sRGB"
       id="filter9"
       x="-0.35091955"
       y="-0.15011018"
       width="1.7018391"
       height="1.3002204">
      <feGaussianBlur
         inkscape:collect="always"
         stdDeviation="0.44881021"
         id="feGaussianBlur9" />
    </filter>
    <filter
       inkscape:collect="always"
       style="color-interpolation-filters:sRGB"
       id="filter10"
       x="-0.011440435"
       y="-0.071311125"
       width="1.0228797"
       height="1.1419543">
      <feGaussianBlur
         inkscape:collect="always"
         stdDeviation="0.20187377"
         id="feGaussianBlur10" />
    </filter>
    <radialGradient
       id="SVGID_1_-3-2-2"
       cx="-159.43106"
       cy="15.462561"
       r="64.706802"
       gradientTransform="matrix(-0.89413329,0,0,0.96304834,-139.71765,50.73186)"
       gradientUnits="userSpaceOnUse"
       fx="-159.43106"
       fy="15.462561">
	<stop
   offset="0"
   style="stop-color:#006fff;stop-opacity:1;"
   id="stop1-6-9-61" />

	<stop
   offset="1"
   style="stop-color:#15baff;stop-opacity:1;"
   id="stop2-7-1-8" />

</radialGradient>
    <inkscape:path-effect
       effect="fillet_chamfer"
       id="path-effect6-7"
       is_visible="true"
       lpeversion="1"
       nodesatellites_param="F,0,0,1,0,1.3719904,0,1 @ F,0,0,1,0,1.3719904,0,1 @ F,0,1,1,0,0.91286783,0,1 @ F,0,1,1,0,0.91286783,0,1 @ F,0,0,1,0,1.3719904,0,1 @ F,0,0,1,0,1.3719904,0,1 @ F,0,0,1,0,0.94734234,0,1 @ F,0,0,1,0,0,0,1 @ F,0,0,1,0,0,0,1 @ F,0,0,1,0,0,0,1 @ F,0,0,1,0,0.94734234,0,1 @ F,0,0,1,0,1.3719904,0,1 @ F,0,0,1,0,1.3719904,0,1 @ F,0,0,1,0,0.91286783,0,1 @ F,0,1,1,0,0.91286783,0,1 @ F,0,0,1,0,1.3719904,0,1 @ F,0,0,1,0,1.3719904,0,1 @ F,0,1,1,0,0.91286783,0,1 @ F,0,1,1,0,0.91286783,0,1"
       radius="0"
       unit="px"
       method="auto"
       mode="F"
       chamfer_steps="1"
       flexible="false"
       use_knot_distance="true"
       apply_no_radius="true"
       apply_with_radius="true"
       only_selected="false"
       hide_knots="false" />
    <filter
       inkscape:collect="always"
       style="color-interpolation-filters:sRGB"
       id="filter11"
       x="-0.074417008"
       y="-0.083126529"
       width="1.1488338"
       height="1.1662262">
      <feGaussianBlur
         inkscape:collect="always"
         stdDeviation="1.580903"
         id="feGaussianBlur11" />
    </filter>
  </defs>
  <sodipodi:namedview
     id="namedview13"
     pagecolor="#838383"
     bordercolor="#000000"
     borderopacity="0.25"
     inkscape:showpageshadow="2"
     inkscape:pageopacity="0.0"
     inkscape:pagecheckerboard="0"
     inkscape:deskcolor="#d1d1d1"
     inkscape:zoom="15.916762"
     inkscape:cx="43.130633"
     inkscape:cy="37.350562"
     inkscape:window-width="2382"
     inkscape:window-height="1359"
     inkscape:window-x="1058"
     inkscape:window-y="0"
     inkscape:window-maximized="0"
     inkscape:current-layer="svg13" />
  <path
     id="path80"
     style="fill:url(#radialGradient6);fill-rule:nonzero;stroke:none;stroke-width:0.0764804"
     d="m 25.251834,10.240434 c -1.535467,0.3966 -3.051089,0.891686 -4.515298,1.528206 -0.694799,0.302042 -1.228362,1.195754 -1.193459,1.952666 0.0553,1.199124 0.144332,2.376554 0.279694,3.559005 0.05734,0.500872 -0.242763,1.107693 -0.671575,1.372791 -1.261447,0.779845 -2.455818,1.659752 -3.579711,2.626438 -0.38221,0.328749 -1.023234,0.37958 -1.448823,0.109308 -0.892674,-0.566897 -1.812921,-1.110597 -2.752823,-1.621296 -0.665758,-0.361741 -1.6355864,-0.187688 -2.1358397,0.381402 -1.1220914,1.276497 -2.1814426,2.624257 -3.1258357,4.068867 -0.4145689,0.634154 -0.3983061,1.686996 0.025619,2.314986 0.6495968,0.962293 1.4108869,2.029289 1.9151403,2.727772 0.305931,0.42377 0.5580104,1.189562 0.559704,1.712775 0.00794,2.452177 0.028092,9.148979 0.028092,13.927037 0,8.207424 10.4121412,12.153852 23.3632832,12.15385 12.951143,-2e-6 23.359378,-3.946426 23.359378,-12.15385 0,-4.563772 0.0025,-11.433005 0.0035,-13.927056 2.07e-4,-0.523202 0.267165,-1.277193 0.583372,-1.694 0.46131,-0.608073 1.155648,-1.55832 1.93289,-2.741576 0.415116,-0.631965 0.427323,-1.685847 0.01278,-2.320038 -0.944263,-1.444588 -2.00378,-2.79233 -3.125939,-4.068809 -0.500263,-0.569059 -1.470053,-0.743031 -2.13581,-0.381266 -0.939803,0.510678 -1.860155,1.054356 -2.752857,1.621226 -0.42559,0.270253 -1.058112,0.210168 -1.437951,-0.121258 -1.117208,-0.974813 -2.344691,-1.807811 -3.598317,-2.598776 -0.426324,-0.268986 -0.719366,-0.887684 -0.662257,-1.388594 0.134811,-1.182435 0.223157,-2.359851 0.278193,-3.558959 0.03474,-0.756907 -0.498763,-1.650587 -1.193594,-1.9526 -1.464652,-0.636623 -2.980877,-1.131768 -4.517191,-1.528403 -0.73362,-0.1894 -1.649842,0.207371 -2.015496,0.870996 -0.559143,1.014786 -1.085445,2.063494 -1.572193,3.107876 -0.212957,0.456928 -0.782677,0.762506 -1.284105,0.710829 -0.883776,-0.09108 -2.242074,-0.163791 -3.751647,-0.0035 -0.501061,0.0532 -1.047891,-0.259857 -1.248416,-0.722378 -0.463427,-1.068916 -1.010998,-2.094317 -1.59207,-3.10279 -0.377972,-0.655985 -1.296838,-1.050365 -2.030454,-0.860878 z"
     sodipodi:nodetypes="cccccccssscccccccccc"
     transform="matrix(1.0597793,0,0,1.0597793,-1.9145693,-3.6334898)"
     inkscape:original-d="m 26.585938,9.9205246 c -2.431617,0.5405714 -4.83663,1.2945824 -7.091797,2.4296874 0.05157,1.991328 0.180432,3.897855 0.441406,5.835938 -1.817476,1.041085 -3.502949,2.286573 -5.046875,3.699218 -1.503524,-0.99447 -3.094992,-1.928962 -4.734375,-2.753906 -1.7671249,1.90179 -3.4197738,3.955001 -4.7695314,6.251953 1.0154819,1.642726 3.2207032,4.642578 3.2207032,4.642578 0,0 0.03125,8.924739 0.03125,14.874398 0,8.207424 10.4121412,12.153852 23.3632832,12.15385 12.951143,-2e-6 23.359378,-3.946426 23.359378,-12.15385 0,-5.662572 0.0039,-14.874398 0.0039,-14.874398 0,0 1.54521,-1.882911 3.251953,-4.642578 -1.349281,-2.296952 -3.002407,-4.350163 -4.769531,-6.251953 -1.638907,0.824944 -3.23085,1.759436 -4.734375,2.753906 -1.506729,-1.462447 -3.267004,-2.602257 -5.044922,-3.699218 0.260258,-1.938083 0.38764,-3.84461 0.439453,-5.835938 -2.255406,-1.135105 -4.660939,-1.889116 -7.09375,-2.4296874 -0.97131,1.6324594 -1.859202,3.4007014 -2.632812,5.1289064 -0.599602,-0.100194 -2.957241,-0.434912 -5.560551,0 -0.687851,-1.807451 -1.641703,-3.477055 -2.632807,-5.1289064 z"
     inkscape:path-effect="#path-effect6" />
  <path
     id="path80-2"
     style="fill:#ffffff;fill-opacity:1;fill-rule:nonzero;stroke:none;stroke-width:0.0810523"
     d="m 7.2394782,41.001432 c 6.312e-4,0.63691 0.00181,1.246816 0.00207,1.819426 l 5.5203738,0.531959 c 1.164167,0.112379 2.121547,0.945104 2.394853,2.082301 l 0.0063,0.03105 v 0.0021 c 0.452439,1.882553 2.107997,3.241644 4.042479,3.322159 l 4.766937,0.198709 c 1.913663,0.07965 3.670194,-1.075357 4.3571,-2.858506 l 0.0063,-0.01242 c 0.431972,-0.94639 1.397343,-1.522575 2.436251,-1.450987 l 0.03105,0.0021 h 2.962 c 1.183334,0 2.234837,0.732333 2.645308,1.842194 l 0.01039,0.02897 0.01449,0.03105 c 0.740155,1.632345 2.447842,2.611109 4.228767,2.425901 l 5.656987,-0.215267 c 1.928884,-0.07343 3.500093,-1.61648 3.609873,-3.543637 v 0.01656 c 0.07601,-1.020141 0.87208,-1.819572 1.891871,-1.900151 l 0.0083,-0.0021 4.926317,-0.476073 c 3.2e-5,-0.566717 -8.1e-5,-1.177102 0,-1.819426 l -5.077419,0.490563 h -0.0021 c -1.896959,0.150872 -3.412586,1.674736 -3.553985,3.572615 l -0.0021,0.0083 v 0.0083 c -0.05756,1.010423 -0.857775,1.795416 -1.869103,1.833915 l -5.729431,0.219407 -0.03105,0.0041 c -1.007957,0.110804 -1.96555,-0.429381 -2.394856,-1.345446 -0.680012,-1.797149 -2.408439,-2.993047 -4.332261,-2.993049 h -2.930952 l 0.03312,0.0021 c -1.783579,-0.111061 -3.457773,0.897846 -4.191511,2.529395 l -0.01242,0.02898 -0.01039,0.02897 c -0.401097,1.085443 -1.447987,1.782693 -2.60409,1.734576 L 19.28201,46.981361 c -1.133983,-0.04719 -2.090307,-0.833867 -2.355525,-1.937409 l -0.0083,-0.03105 c -0.4523,-1.882229 -2.055588,-3.27691 -3.982451,-3.462912 z" />
  <path
     id="path80-2-0"
     style="fill:none;fill-opacity:1;fill-rule:nonzero;stroke:#0023ff;stroke-width:0.1;stroke-dasharray:none;stroke-opacity:1;filter:url(#filter10)"
     d="m 8.6361262,40.49365 c 5.96e-4,0.600984 0.0017,1.176487 0.002,1.716797 L 13.847111,42.7124 c 1.0985,0.10604 2.001877,0.891793 2.259766,1.964844 l 0.0059,0.0293 v 0.002 c 0.426918,1.776363 1.98909,3.058792 3.814453,3.134765 l 4.498047,0.1875 c 1.805719,0.07516 3.463169,-1.014699 4.111328,-2.697265 l 0.0059,-0.01172 c 0.407605,-0.893007 1.318522,-1.436691 2.298828,-1.369141 l 0.0293,0.002 h 2.794922 c 1.116585,0 2.108775,0.691024 2.496093,1.738281 l 0.0098,0.02734 0.01367,0.0293 c 0.698405,1.540269 2.309766,2.463824 3.990234,2.289063 l 5.337891,-0.203125 c 1.820081,-0.06929 3.302663,-1.525298 3.40625,-3.34375 v 0.01563 c 0.07172,-0.962598 0.822889,-1.716935 1.785156,-1.792969 l 0.0078,-0.002 4.648437,-0.449219 c 3e-5,-0.53475 -7.7e-5,-1.110705 0,-1.716797 l -4.791016,0.462891 h -0.002 c -1.789957,0.142362 -3.220092,1.580269 -3.353515,3.371094 l -0.002,0.0078 v 0.0078 c -0.05431,0.953428 -0.80939,1.694142 -1.763672,1.730469 l -5.40625,0.207031 -0.0293,0.0039 c -0.951151,0.104554 -1.854729,-0.405161 -2.259819,-1.269553 -0.641654,-1.695777 -2.272585,-2.824218 -4.08789,-2.824219 h -2.765625 l 0.03125,0.002 c -1.682972,-0.104796 -3.262729,0.847201 -3.955079,2.386719 l -0.01172,0.02734 -0.0098,0.02734 c -0.378303,1.024202 -1.366141,1.682122 -2.457031,1.636719 l -4.498047,-0.1875 c -1.070018,-0.04453 -1.972399,-0.786831 -2.222656,-1.828125 l -0.0078,-0.0293 c -0.426787,-1.776057 -1.939638,-3.092068 -3.757812,-3.267578 z"
     transform="matrix(1.0597793,0,0,1.0597793,-1.9129359,-1.9128986)" />
  <path
     id="path92-5"
     style="fill:#ffffff;fill-opacity:1;fill-rule:nonzero;stroke:none;stroke-width:0.0810523"
     d="m 19.014002,25.535279 c -3.04713,-10e-7 -5.518304,2.468599 -5.518304,5.516234 0,3.049659 2.471174,5.520373 5.518304,5.520373 3.048646,0 5.520373,-2.470714 5.520373,-5.520373 0,-3.047635 -2.471727,-5.516234 -5.520373,-5.516234 z m 25.968731,0 c -3.049154,0 -5.520373,2.468599 -5.520373,5.516234 0,3.049659 2.471219,5.520373 5.520373,5.520373 3.046876,0 5.518303,-2.470714 5.518303,-5.520373 0,-3.047635 -2.471427,-5.516235 -5.518303,-5.516234 z" />
  <path
     id="path92-5-0"
     style="mix-blend-mode:normal;fill:none;fill-opacity:1;fill-rule:nonzero;stroke:#0023ff;stroke-width:0.2;stroke-dasharray:none;stroke-opacity:1;filter:url(#filter8)"
     d="m 19.746506,25.899901 c -2.875249,-1e-6 -5.207031,2.329352 -5.207031,5.205078 0,2.877636 2.331782,5.208984 5.207031,5.208984 2.876681,0 5.208984,-2.331348 5.208984,-5.208984 0,-2.875726 -2.332303,-5.205078 -5.208984,-5.205078 z m 24.503906,0 c -2.877159,0 -5.208984,2.329352 -5.208984,5.205078 0,2.877636 2.331825,5.208984 5.208984,5.208984 2.87501,0 5.207031,-2.331348 5.207031,-5.208984 0,-2.875726 -2.332021,-5.205079 -5.207031,-5.205078 z"
     transform="matrix(1.0597793,0,0,1.0597793,-1.9129359,-1.9128986)" />
  <path
     d="m 31.997963,37.074616 c -0.981296,0 -1.776606,-0.723194 -1.776606,-1.61466 v -5.081332 c 0,-0.890706 0.79531,-1.614659 1.776606,-1.614659 0.981297,0 1.778378,0.723953 1.778378,1.614659 v 5.081332 c 0,0.891466 -0.797081,1.61466 -1.778378,1.61466"
     style="fill:#ffffff;fill-opacity:1;fill-rule:nonzero;stroke:none;stroke-width:0.0810523"
     id="path100-1"
     inkscape:connector-curvature="0" />
  <path
     d="m 31.998078,36.788335 c -0.925944,0 -1.676393,-0.6824 -1.676393,-1.523581 v -4.794708 c 0,-0.840464 0.750449,-1.523581 1.676393,-1.523581 0.925944,0 1.678064,0.683117 1.678064,1.523581 v 4.794708 c 0,0.841181 -0.75212,1.523581 -1.678064,1.523581"
     style="mix-blend-mode:normal;fill:none;fill-opacity:1;fill-rule:nonzero;stroke:#0023ff;stroke-width:0.2;stroke-dasharray:none;stroke-opacity:1;filter:url(#filter9)"
     id="path100-1-3"
     inkscape:connector-curvature="0"
     transform="matrix(1.0597793,0,0,1.0597793,-1.9129359,-1.9128986)" />
  <path
     id="path96-2"
     style="fill:#414042;fill-opacity:1;fill-rule:nonzero;stroke:none;stroke-width:0.0739017"
     d="m 19.768472,28.232334 c -1.844818,0 -3.340788,1.496431 -3.340788,3.340789 0,1.844358 1.49597,3.338719 3.340788,3.338719 1.845742,0 3.340789,-1.494361 3.340789,-3.338719 0,-1.844358 -1.495047,-3.340789 -3.340789,-3.340789 z m 24.461859,0 c -1.844357,0 -3.338719,1.496431 -3.338719,3.340789 0,1.844358 1.494362,3.338719 3.338719,3.338719 1.846203,0 3.338718,-1.494361 3.338718,-3.338719 0,-1.844358 -1.492515,-3.340789 -3.338718,-3.340789 z" />
  <path
     id="path80-20"
     style="mix-blend-mode:normal;fill:none;fill-rule:nonzero;stroke:#000000;stroke-width:0.2;stroke-dasharray:none;stroke-opacity:1;filter:url(#filter11)"
     d="m 25.251834,10.240434 c -1.535467,0.3966 -3.051089,0.891686 -4.515298,1.528206 -0.694799,0.302042 -1.228362,1.195754 -1.193459,1.952666 0.0553,1.199124 0.144332,2.376554 0.279694,3.559005 0.05734,0.500872 -0.242763,1.107693 -0.671575,1.372791 -1.261447,0.779845 -2.455818,1.659752 -3.579711,2.626438 -0.38221,0.328749 -1.023234,0.37958 -1.448823,0.109308 -0.892674,-0.566897 -1.812921,-1.110597 -2.752823,-1.621296 -0.665758,-0.361741 -1.6355864,-0.187688 -2.1358397,0.381402 -1.1220914,1.276497 -2.1814426,2.624257 -3.1258357,4.068867 -0.4145689,0.634154 -0.3983061,1.686996 0.025619,2.314986 0.6495968,0.962293 1.4108869,2.029289 1.9151403,2.727772 0.305931,0.42377 0.5580104,1.189562 0.559704,1.712775 0.00794,2.452177 0.028092,9.148979 0.028092,13.927037 0,8.207424 10.4121412,12.153852 23.3632832,12.15385 12.951143,-2e-6 23.359378,-3.946426 23.359378,-12.15385 0,-4.563772 0.0025,-11.433005 0.0035,-13.927056 2.07e-4,-0.523202 0.267165,-1.277193 0.583372,-1.694 0.46131,-0.608073 1.155648,-1.55832 1.93289,-2.741576 0.415116,-0.631965 0.427323,-1.685847 0.01278,-2.320038 -0.944263,-1.444588 -2.00378,-2.79233 -3.125939,-4.068809 -0.500263,-0.569059 -1.470053,-0.743031 -2.13581,-0.381266 -0.939803,0.510678 -1.860155,1.054356 -2.752857,1.621226 -0.42559,0.270253 -1.058112,0.210168 -1.437951,-0.121258 -1.117208,-0.974813 -2.344691,-1.807811 -3.598317,-2.598776 -0.426324,-0.268986 -0.719366,-0.887684 -0.662257,-1.388594 0.134811,-1.182435 0.223157,-2.359851 0.278193,-3.558959 0.03474,-0.756907 -0.498763,-1.650587 -1.193594,-1.9526 -1.464652,-0.636623 -2.980877,-1.131768 -4.517191,-1.528403 -0.73362,-0.1894 -1.649842,0.207371 -2.015496,0.870996 -0.559143,1.014786 -1.085445,2.063494 -1.572193,3.107876 -0.212957,0.456928 -0.782677,0.762506 -1.284105,0.710829 -0.883776,-0.09108 -2.242074,-0.163791 -3.751647,-0.0035 -0.501061,0.0532 -1.047891,-0.259857 -1.248416,-0.722378 -0.463427,-1.068916 -1.010998,-2.094317 -1.59207,-3.10279 -0.377972,-0.655985 -1.296838,-1.050365 -2.030454,-0.860878 z"
     sodipodi:nodetypes="cccccccssscccccccccc"
     transform="matrix(1.0597793,0,0,1.0597793,-1.9145693,-3.6334898)"
     inkscape:original-d="m 26.585938,9.9205246 c -2.431617,0.5405714 -4.83663,1.2945824 -7.091797,2.4296874 0.05157,1.991328 0.180432,3.897855 0.441406,5.835938 -1.817476,1.041085 -3.502949,2.286573 -5.046875,3.699218 -1.503524,-0.99447 -3.094992,-1.928962 -4.734375,-2.753906 -1.7671249,1.90179 -3.4197738,3.955001 -4.7695314,6.251953 1.0154819,1.642726 3.2207032,4.642578 3.2207032,4.642578 0,0 0.03125,8.924739 0.03125,14.874398 0,8.207424 10.4121412,12.153852 23.3632832,12.15385 12.951143,-2e-6 23.359378,-3.946426 23.359378,-12.15385 0,-5.662572 0.0039,-14.874398 0.0039,-14.874398 0,0 1.54521,-1.882911 3.251953,-4.642578 -1.349281,-2.296952 -3.002407,-4.350163 -4.769531,-6.251953 -1.638907,0.824944 -3.23085,1.759436 -4.734375,2.753906 -1.506729,-1.462447 -3.267004,-2.602257 -5.044922,-3.699218 0.260258,-1.938083 0.38764,-3.84461 0.439453,-5.835938 -2.255406,-1.135105 -4.660939,-1.889116 -7.09375,-2.4296874 -0.97131,1.6324594 -1.859202,3.4007014 -2.632812,5.1289064 -0.599602,-0.100194 -2.957241,-0.434912 -5.560551,0 -0.687851,-1.807451 -1.641703,-3.477055 -2.632807,-5.1289064 z"
     inkscape:path-effect="#path-effect6-7" />
</svg>
