<?xml version="1.0" encoding="UTF-8" standalone="no"?>
<svg
   width="64"
   height="64"
   version="1.1"
   id="svg11"
   sodipodi:docname="pico8.svg"
   inkscape:version="1.4.3 (0d15f75042, 2025-12-25)"
   xmlns:inkscape="http://www.inkscape.org/namespaces/inkscape"
   xmlns:sodipodi="http://sodipodi.sourceforge.net/DTD/sodipodi-0.dtd"
   xmlns="http://www.w3.org/2000/svg"
   xmlns:svg="http://www.w3.org/2000/svg">
  <defs
     id="defs11">
    <filter
       inkscape:collect="always"
       style="color-interpolation-filters:sRGB"
       id="filter22"
       x="-0.079861841"
       y="-0.079861843"
       width="1.1597237"
       height="1.1597237">
      <feGaussianBlur
         inkscape:collect="always"
         stdDeviation="1.7885006"
         id="feGaussianBlur22" />
    </filter>
  </defs>
  <sodipodi:namedview
     id="namedview11"
     pagecolor="#ffffff"
     bordercolor="#000000"
     borderopacity="0.25"
     inkscape:showpageshadow="2"
     inkscape:pageopacity="0.0"
     inkscape:pagecheckerboard="0"
     inkscape:deskcolor="#d1d1d1"
     inkscape:zoom="10.982338"
     inkscape:cx="26.633673"
     inkscape:cy="33.918096"
     inkscape:current-layer="svg11" />
  <g
     id="g21"
     transform="translate(0.5,0.5)">
    <path
       d="M 26,15 V 26 H 15 V 37 H 26 V 48 H 37 V 37 H 48 V 26 H 37 V 15 Z"
       style="fill:#fff1e8"
       id="path21" />
    <path
       d="M 26,4 V 15 H 37 V 4 Z"
       style="fill:#ff004d"
       id="path20" />
    <path
       d="M 15,15 V 26 H 26 V 15 Z"
       style="fill:#ffa300"
       id="path19" />
    <path
       d="M 4,26 V 37 H 15 V 26 Z"
       style="fill:#f9da3c;fill-opacity:1"
       id="path18" />
    <path
       d="M 15,37 V 48 H 26 V 37 Z"
       style="fill:#2ed856;fill-opacity:1"
       id="path17" />
    <path
       d="M 26,48 V 59 H 37 V 48 Z"
       style="fill:#29adff"
       id="path16" />
    <path
       d="M 37,37 V 48 H 48 V 37 Z"
       style="fill:#83769c"
       id="path15" />
    <path
       d="M 48,26 V 37 H 59 V 26 Z"
       style="fill:#ff77a8"
       id="path14" />
    <path
       d="M 37,15 V 26 H 48 V 15 Z"
       style="fill:#ffccaa"
       id="path13" />
  </g>
  <g
     id="g22"
     style="mix-blend-mode:normal;stroke:#000000;stroke-width:0.2;stroke-dasharray:none;stroke-opacity:1;filter:url(#filter22)"
     transform="translate(-61.510702,-1.868493)">
    <path
       d="M 88.010699,6.3684903 V 17.36849 h 11 V 6.3684903 Z"
       style="fill:none;stroke:#000000;stroke-width:0.2;stroke-dasharray:none;stroke-opacity:1"
       id="path20-5" />
    <path
       d="m 77.010699,17.36849 v 11 h 11 v -11 z"
       style="fill:none;stroke:#000000;stroke-width:0.2;stroke-dasharray:none;stroke-opacity:1"
       id="path19-3" />
    <path
       d="m 66.010699,28.36849 v 11 h 11 v -11 z"
       style="fill:none;stroke:#000000;stroke-width:0.2;stroke-dasharray:none;stroke-opacity:1"
       id="path18-5" />
    <path
       d="m 77.010699,39.36849 v 11 h 11 v -11 z"
       style="fill:none;stroke:#000000;stroke-width:0.2;stroke-dasharray:none;stroke-opacity:1"
       id="path17-6" />
    <path
       d="m 88.010699,50.36849 v 11 h 11 v -11 z"
       style="fill:none;stroke:#000000;stroke-width:0.2;stroke-dasharray:none;stroke-opacity:1"
       id="path16-2" />
    <path
       d="m 99.011938,39.366146 v 11 h 11.000002 v -11 z"
       style="fill:none;stroke:#000000;stroke-width:0.2;stroke-dasharray:none;stroke-opacity:1"
       id="path15-9" />
    <path
       d="m 110.0107,28.36849 v 11 h 11 v -11 z"
       style="fill:none;stroke:#000000;stroke-width:0.2;stroke-dasharray:none;stroke-opacity:1"
       id="path14-1" />
    <path
       d="m 99.010699,17.36849 v 11 H 110.0107 v -11 z"
       style="fill:none;stroke:#000000;stroke-width:0.2;stroke-dasharray:none;stroke-opacity:1"
       id="path13-2" />
  </g>
</svg>
