<?xml version="1.0" encoding="UTF-8" standalone="no"?>
<svg
   width="64"
   height="64"
   version="1"
   id="svg4"
   sodipodi:docname="preferences-desktop-accessibility.svg"
   inkscape:version="1.4.3 (0d15f75042, 2025-12-25)"
   xml:space="preserve"
   xmlns:inkscape="http://www.inkscape.org/namespaces/inkscape"
   xmlns:sodipodi="http://sodipodi.sourceforge.net/DTD/sodipodi-0.dtd"
   xmlns:xlink="http://www.w3.org/1999/xlink"
   xmlns="http://www.w3.org/2000/svg"
   xmlns:svg="http://www.w3.org/2000/svg"><defs
     id="defs4"><inkscape:path-effect
       effect="fillet_chamfer"
       id="path-effect4"
       is_visible="true"
       lpeversion="1"
       nodesatellites_param="F,0,0,1,0,0,0,1 @ F,0,0,1,0,0,0,1 @ F,0,0,1,0,0,0,1 @ F,0,0,1,0,0,0,1 | F,0,0,1,0,1.0604417,0,1 @ F,0,0,1,0,1.048661,0,1 @ F,0,0,1,0,1.7211395,0,1 @ F,0,0,1,0,1.0616202,0,1 @ F,0,0,1,0,1.0532077,0,1 @ F,0,0,1,0,1.488115,0,1 @ F,0,0,1,0,1.8377481,0,1 @ F,0,0,1,0,0.90989846,0,1 @ F,0,0,1,0,1.0212362,0,1 @ F,0,0,1,0,1.4657543,0,1 @ F,0,0,1,0,0.94991818,0,1 @ F,0,0,1,0,1.1372748,0,1 @ F,0,0,1,0,0,0,1"
       radius="0"
       unit="px"
       method="auto"
       mode="F"
       chamfer_steps="1"
       flexible="false"
       use_knot_distance="true"
       apply_no_radius="true"
       apply_with_radius="true"
       only_selected="false"
       hide_knots="false" /><filter
       inkscape:collect="always"
       style="color-interpolation-filters:sRGB"
       id="filter1"
       x="-0.078897243"
       y="-0.064116537"
       width="1.1577945"
       height="1.128214"><feGaussianBlur
         inkscape:collect="always"
         stdDeviation="0.95522929"
         id="feGaussianBlur1" /></filter><radialGradient
       inkscape:collect="always"
       xlink:href="#linearGradient7"
       id="radialGradient8"
       cx="2.4163003"
       cy="39.79068"
       fx="2.4163003"
       fy="39.79068"
       r="28"
       gradientUnits="userSpaceOnUse"
       gradientTransform="matrix(0,2.6507607,-2.6507607,0,127.40696,6.2213418)" /><linearGradient
       id="linearGradient7"
       inkscape:collect="always"><stop
         style="stop-color:#ff829b;stop-opacity:1;"
         offset="0"
         id="stop7" /><stop
         style="stop-color:#b650ff;stop-opacity:1;"
         offset="1"
         id="stop8" /></linearGradient><filter
       inkscape:collect="always"
       style="color-interpolation-filters:sRGB"
       id="filter7"
       x="-0.099646901"
       y="-0.099646901"
       width="1.1992938"
       height="1.1992938"><feGaussianBlur
         inkscape:collect="always"
         stdDeviation="2.2807049"
         id="feGaussianBlur7" /></filter></defs><sodipodi:namedview
     id="namedview4"
     pagecolor="#ffffff"
     bordercolor="#000000"
     borderopacity="0.25"
     inkscape:showpageshadow="2"
     inkscape:pageopacity="0.0"
     inkscape:pagecheckerboard="0"
     inkscape:deskcolor="#d1d1d1"
     inkscape:zoom="6.9375"
     inkscape:cx="30.990991"
     inkscape:cy="44.684685"
     inkscape:window-width="1920"
     inkscape:window-height="1020"
     inkscape:window-x="0"
     inkscape:window-y="0"
     inkscape:window-maximized="1"
     inkscape:current-layer="svg4" /><g
     id="g1"
     transform="translate(-21.520595,-12.520595)"><circle
       style="fill:url(#radialGradient8);stroke-width:0.938665"
       cx="53.572941"
       cy="44.622017"
       r="26.282629"
       id="circle2" /><circle
       style="fill:none;stroke:#000000;stroke-width:0.213069;stroke-dasharray:none;stroke-opacity:1;filter:url(#filter7)"
       cx="31.944235"
       cy="31.891953"
       r="28"
       id="circle2-6"
       transform="matrix(0.93866533,0,0,0.93866533,23.535648,14.584724)" /></g><path
     id="path1-6-1"
     style="fill:#ffffff;fill-opacity:1;stroke-width:0.0729035"
     d="M 31.41824,13.378317 A 4.0825966,4.0825966 0 0 0 32,21.501994 4.0869708,4.0869708 0 0 0 36.082803,17.419191 4.0825966,4.0825966 0 0 0 31.41824,13.378317 Z m -12.746312,8.125424 c -1.109357,0.0427 -1.834378,1.261175 -1.834378,2.386439 0,1.273623 1.143567,1.879578 2.299088,2.314811 v 0.02097 l 6.942687,2.168061 c 0.70935,0.27193 0.897977,0.549074 0.990565,0.789656 0.30109,0.772047 0.06084,2.301773 -0.02445,2.835426 L 26.622658,35.30002 24.2764,48.144165 c -0.0073,0.035 -0.01513,0.07012 -0.02097,0.106569 l -0.01572,0.09259 c -0.169136,1.17739 0.69487,2.320052 2.332281,2.320052 1.428907,0 2.060641,-0.986636 2.334029,-2.328787 0,0 2.040143,-11.486705 3.060792,-11.486705 1.020649,0 3.123684,11.486705 3.123684,11.486705 0.273389,1.342151 0.903375,2.328787 2.332282,2.328787 1.641786,0 2.507538,-1.147752 2.334028,-2.328787 -0.0153,-0.100608 -0.03403,-0.199016 -0.0559,-0.295249 L 37.321445,35.300016 36.900412,32.020845 c -0.305466,-1.910798 -0.06039,-2.542428 0.02271,-2.690422 a 0.07946483,0.07946483 0 0 0 0.0053,-0.01223 c 0.07873,-0.145806 0.438398,-0.471948 1.27533,-0.786162 l 6.507676,-2.27463 a 1.2320693,1.2320693 0 0 0 0.118799,-0.03844 c 1.166454,-0.437421 2.332281,-1.041753 2.332281,-2.327041 0,-1.285287 -0.945369,-2.694322 -2.330535,-2.330534 l -0.03319,0.0088 -0.03145,0.0088 c -0.0729,0.02041 -0.145476,0.04204 -0.218379,0.06464 -1.356733,0.398054 -7.941498,2.253665 -12.580344,2.253665 -4.310779,0 -10.299312,-1.602506 -12.215214,-2.147096 a 5.3795502,5.3795502 0 0 0 -0.58354,-0.188744 c -0.173145,-0.04556 -0.339423,-0.06375 -0.497903,-0.05765 z" /><path
     id="path1-6-1-3"
     style="fill:none;fill-opacity:1;stroke:#4100ff;stroke-width:0.2;stroke-dasharray:none;stroke-opacity:1;filter:url(#filter1)"
     d="m 31.41825,13.378557 a 4.0825966,4.0825966 0 0 0 0.58176,8.123677 4.0869708,4.0869708 0 0 0 4.082803,-4.082803 4.0825966,4.0825966 0 0 0 -4.664563,-4.040874 z m -12.746311,8.125424 c -1.109357,0.0427 -1.834379,1.261175 -1.834379,2.386439 0,1.273622 1.143568,1.879578 2.299088,2.314812 v 0.02097 l 6.942687,2.168062 c 0.70935,0.271929 0.897978,0.549074 0.990564,0.789656 0.301092,0.772047 0.06084,2.301773 -0.02446,2.835425 l -0.42278,3.280918 -2.346258,12.844145 c -0.0072,0.035 -0.01513,0.07012 -0.02097,0.106569 l -0.01572,0.09259 c -0.169136,1.17739 0.69487,2.320052 2.332281,2.320052 1.428907,0 2.060641,-0.986635 2.334029,-2.328788 0,0 2.040143,-11.486704 3.060792,-11.486704 1.020648,0 3.123684,11.486704 3.123684,11.486704 0.273388,1.342153 0.903375,2.328788 2.332282,2.328788 1.641785,0 2.507538,-1.147752 2.334028,-2.328788 -0.0153,-0.100606 -0.03404,-0.199015 -0.05591,-0.295247 l -2.379442,-12.739327 -0.421032,-3.27917 c -0.305466,-1.910799 -0.0604,-2.542427 0.02271,-2.690422 a 0.07946483,0.07946483 0 0 0 0.0052,-0.01223 c 0.07874,-0.145805 0.438398,-0.471948 1.27533,-0.786161 l 6.507676,-2.27463 a 1.2320693,1.2320693 0 0 0 0.118829,-0.03844 c 1.166455,-0.437421 2.332283,-1.041753 2.332283,-2.327041 0,-1.285287 -0.94537,-2.694322 -2.330535,-2.330535 l -0.03319,0.0088 -0.03144,0.0088 c -0.0729,0.02041 -0.145475,0.04204 -0.218379,0.06464 -1.356732,0.398053 -7.941497,2.253665 -12.580344,2.253665 -4.31078,0 -10.299312,-1.602506 -12.215214,-2.147096 a 5.3795502,5.3795502 0 0 0 -0.583508,-0.188679 c -0.173145,-0.04556 -0.339423,-0.06375 -0.497902,-0.05765 z" /></svg>
