<?xml version="1.0" encoding="UTF-8" standalone="no"?>
<svg
   width="64"
   height="64"
   version="1"
   id="svg79"
   sodipodi:docname="minecraft-legends.svg"
   inkscape:version="1.4.2 (ebf0e940d0, 2025-05-08)"
   xml:space="preserve"
   xmlns:inkscape="http://www.inkscape.org/namespaces/inkscape"
   xmlns:sodipodi="http://sodipodi.sourceforge.net/DTD/sodipodi-0.dtd"
   xmlns="http://www.w3.org/2000/svg"
   xmlns:svg="http://www.w3.org/2000/svg"><defs
     id="defs79"><inkscape:path-effect
       effect="fillet_chamfer"
       id="path-effect6"
       is_visible="true"
       lpeversion="1"
       nodesatellites_param="F,0,0,1,0,6.68117,0,1 @ F,0,0,1,0,0,0,1 @ F,0,0,1,0,0,0,1 @ F,0,0,1,0,0,0,1"
       radius="0"
       unit="px"
       method="auto"
       mode="F"
       chamfer_steps="1"
       flexible="false"
       use_knot_distance="true"
       apply_no_radius="true"
       apply_with_radius="true"
       only_selected="false"
       hide_knots="false" /><inkscape:path-effect
       effect="fillet_chamfer"
       id="path-effect5"
       is_visible="true"
       lpeversion="1"
       nodesatellites_param="F,0,0,1,0,6.681168,0,1 @ F,0,0,1,0,0,0,1 @ F,0,0,1,0,0,0,1 @ F,0,0,1,0,0,0,1"
       radius="0"
       unit="px"
       method="auto"
       mode="F"
       chamfer_steps="1"
       flexible="false"
       use_knot_distance="true"
       apply_no_radius="true"
       apply_with_radius="true"
       only_selected="false"
       hide_knots="false" /><inkscape:path-effect
       effect="fillet_chamfer"
       id="path-effect4"
       is_visible="true"
       lpeversion="1"
       nodesatellites_param="F,0,0,1,0,6.681168,0,1 @ F,0,0,1,0,0,0,1 @ F,0,0,1,0,0,0,1 @ F,0,0,1,0,0,0,1"
       radius="0"
       unit="px"
       method="auto"
       mode="F"
       chamfer_steps="1"
       flexible="false"
       use_knot_distance="true"
       apply_no_radius="true"
       apply_with_radius="true"
       only_selected="false"
       hide_knots="false" /><inkscape:path-effect
       effect="fillet_chamfer"
       id="path-effect3"
       is_visible="true"
       lpeversion="1"
       nodesatellites_param="F,0,0,1,0,6.68117,0,1 @ F,0,0,1,0,0,0,1 @ F,0,0,1,0,0,0,1 @ F,0,0,1,0,0,0,1"
       radius="0"
       unit="px"
       method="auto"
       mode="F"
       chamfer_steps="1"
       flexible="false"
       use_knot_distance="true"
       apply_no_radius="true"
       apply_with_radius="true"
       only_selected="false"
       hide_knots="false" /><inkscape:path-effect
       effect="fillet_chamfer"
       id="path-effect2"
       is_visible="true"
       lpeversion="1"
       nodesatellites_param="F,0,0,1,0,0,0,1 @ F,0,0,1,0,0,0,1 @ F,0,0,1,0,0,0,1 @ F,0,0,1,0,6.3981647,0,1"
       radius="0"
       unit="px"
       method="auto"
       mode="F"
       chamfer_steps="1"
       flexible="false"
       use_knot_distance="true"
       apply_no_radius="true"
       apply_with_radius="true"
       only_selected="false"
       hide_knots="false" /><inkscape:path-effect
       effect="fillet_chamfer"
       id="path-effect1"
       is_visible="true"
       lpeversion="1"
       nodesatellites_param="F,0,0,1,0,0,0,1 @ F,0,0,1,0,0,0,1 @ F,0,0,1,0,6.4051747,0,1 @ F,0,0,1,0,0,0,1"
       radius="0"
       unit="px"
       method="auto"
       mode="F"
       chamfer_steps="1"
       flexible="false"
       use_knot_distance="true"
       apply_no_radius="true"
       apply_with_radius="true"
       only_selected="false"
       hide_knots="false" /><inkscape:path-effect
       effect="fillet_chamfer"
       id="path-effect18"
       is_visible="true"
       lpeversion="1"
       nodesatellites_param="F,0,0,1,0,7.8141977,0,1 @ F,0,0,1,0,0,0,1 @ F,0,0,1,0,0,0,1 @ F,0,0,1,0,0,0,1"
       radius="0"
       unit="px"
       method="auto"
       mode="F"
       chamfer_steps="1"
       flexible="false"
       use_knot_distance="true"
       apply_no_radius="true"
       apply_with_radius="true"
       only_selected="false"
       hide_knots="false" /><inkscape:path-effect
       effect="fillet_chamfer"
       id="path-effect17"
       is_visible="true"
       lpeversion="1"
       nodesatellites_param="F,0,0,1,0,0,0,1 @ F,0,0,1,0,0,0,1 @ F,0,0,1,0,0,0,1 @ F,0,0,1,0,0,0,1"
       radius="0"
       unit="px"
       method="auto"
       mode="F"
       chamfer_steps="1"
       flexible="false"
       use_knot_distance="true"
       apply_no_radius="true"
       apply_with_radius="true"
       only_selected="false"
       hide_knots="false" /><inkscape:path-effect
       effect="fillet_chamfer"
       id="path-effect16"
       is_visible="true"
       lpeversion="1"
       nodesatellites_param="F,0,0,1,0,0,0,1 @ F,0,0,1,0,6.3981647,0,1 @ F,0,0,1,0,0,0,1 @ F,0,0,1,0,0,0,1"
       radius="0"
       unit="px"
       method="auto"
       mode="F"
       chamfer_steps="1"
       flexible="false"
       use_knot_distance="true"
       apply_no_radius="true"
       apply_with_radius="true"
       only_selected="false"
       hide_knots="false" /><inkscape:path-effect
       effect="fillet_chamfer"
       id="path-effect15"
       is_visible="true"
       lpeversion="1"
       nodesatellites_param="F,0,0,1,0,0,0,1 @ F,0,0,1,0,0,0,1 @ F,0,0,1,0,6.4051747,0,1 @ F,0,0,1,0,0,0,1"
       radius="0"
       unit="px"
       method="auto"
       mode="F"
       chamfer_steps="1"
       flexible="false"
       use_knot_distance="true"
       apply_no_radius="true"
       apply_with_radius="true"
       only_selected="false"
       hide_knots="false" /><inkscape:path-effect
       effect="fillet_chamfer"
       id="path-effect14"
       is_visible="true"
       lpeversion="1"
       nodesatellites_param="F,0,0,1,0,0,0,1 @ F,0,0,1,0,0,0,1 @ F,0,0,1,0,0,0,1 @ F,0,0,1,0,6.3981647,0,1"
       radius="0"
       unit="px"
       method="auto"
       mode="F"
       chamfer_steps="1"
       flexible="false"
       use_knot_distance="true"
       apply_no_radius="true"
       apply_with_radius="true"
       only_selected="false"
       hide_knots="false" /><inkscape:path-effect
       effect="fillet_chamfer"
       id="path-effect13"
       is_visible="true"
       lpeversion="1"
       nodesatellites_param="F,0,0,1,0,6.4051747,0,1 @ F,0,0,1,0,0,0,1 @ F,0,0,1,0,0,0,1 @ F,0,0,1,0,0,0,1"
       radius="0"
       unit="px"
       method="auto"
       mode="F"
       chamfer_steps="1"
       flexible="false"
       use_knot_distance="true"
       apply_no_radius="true"
       apply_with_radius="true"
       only_selected="false"
       hide_knots="false" /><inkscape:path-effect
       effect="fillet_chamfer"
       id="path-effect18-7"
       is_visible="true"
       lpeversion="1"
       nodesatellites_param="F,0,0,1,0,7.8141977,0,1 @ F,0,0,1,0,0,0,1 @ F,0,0,1,0,0,0,1 @ F,0,0,1,0,0,0,1"
       radius="0"
       unit="px"
       method="auto"
       mode="F"
       chamfer_steps="1"
       flexible="false"
       use_knot_distance="true"
       apply_no_radius="true"
       apply_with_radius="true"
       only_selected="false"
       hide_knots="false" /><inkscape:path-effect
       effect="fillet_chamfer"
       id="path-effect18-3"
       is_visible="true"
       lpeversion="1"
       nodesatellites_param="F,0,0,1,0,7.8141977,0,1 @ F,0,0,1,0,0,0,1 @ F,0,0,1,0,0,0,1 @ F,0,0,1,0,0,0,1"
       radius="0"
       unit="px"
       method="auto"
       mode="F"
       chamfer_steps="1"
       flexible="false"
       use_knot_distance="true"
       apply_no_radius="true"
       apply_with_radius="true"
       only_selected="false"
       hide_knots="false" /><inkscape:path-effect
       effect="fillet_chamfer"
       id="path-effect18-7-6"
       is_visible="true"
       lpeversion="1"
       nodesatellites_param="F,0,0,1,0,7.8141977,0,1 @ F,0,0,1,0,0,0,1 @ F,0,0,1,0,0,0,1 @ F,0,0,1,0,0,0,1"
       radius="0"
       unit="px"
       method="auto"
       mode="F"
       chamfer_steps="1"
       flexible="false"
       use_knot_distance="true"
       apply_no_radius="true"
       apply_with_radius="true"
       only_selected="false"
       hide_knots="false" /><inkscape:path-effect
       effect="fillet_chamfer"
       id="path-effect18-7-7"
       is_visible="true"
       lpeversion="1"
       nodesatellites_param="F,0,0,1,0,7.8141977,0,1 @ F,0,0,1,0,0,0,1 @ F,0,0,1,0,0,0,1 @ F,0,0,1,0,0,0,1"
       radius="0"
       unit="px"
       method="auto"
       mode="F"
       chamfer_steps="1"
       flexible="false"
       use_knot_distance="true"
       apply_no_radius="true"
       apply_with_radius="true"
       only_selected="false"
       hide_knots="false" /><inkscape:path-effect
       effect="fillet_chamfer"
       id="path-effect18-0"
       is_visible="true"
       lpeversion="1"
       nodesatellites_param="F,0,0,1,0,7.8141977,0,1 @ F,0,0,1,0,0,0,1 @ F,0,0,1,0,0,0,1 @ F,0,0,1,0,0,0,1"
       radius="0"
       unit="px"
       method="auto"
       mode="F"
       chamfer_steps="1"
       flexible="false"
       use_knot_distance="true"
       apply_no_radius="true"
       apply_with_radius="true"
       only_selected="false"
       hide_knots="false" /><filter
       inkscape:collect="always"
       style="color-interpolation-filters:sRGB"
       id="filter194"
       x="-0.098878933"
       y="-0.098878933"
       width="1.1977579"
       height="1.1977579"><feGaussianBlur
         inkscape:collect="always"
         stdDeviation="2.1584105"
         id="feGaussianBlur194" /></filter><filter
       inkscape:collect="always"
       style="color-interpolation-filters:sRGB"
       id="filter1"
       x="-0.053416002"
       y="-0.053416124"
       width="1.106832"
       height="1.1068322"><feGaussianBlur
         inkscape:collect="always"
         stdDeviation="0.95197137"
         id="feGaussianBlur1" /></filter><radialGradient
       id="SVGID_1_-3-2"
       cx="-159.43106"
       cy="15.462561"
       r="64.706802"
       gradientTransform="matrix(-0.89413329,0,0,0.96304834,-38.788688,31.295394)"
       gradientUnits="userSpaceOnUse"
       fx="-159.43106"
       fy="15.462561">
	<stop
   offset="0"
   style="stop-color:#00b4ff;stop-opacity:1;"
   id="stop1-6-9" />
	<stop
   offset="1"
   style="stop-color:#4ac9e1;stop-opacity:1;"
   id="stop2-7-1" />
</radialGradient><filter
       inkscape:collect="always"
       style="color-interpolation-filters:sRGB"
       id="filter4"
       x="-0.070802971"
       y="-0.070802977"
       width="1.1416059"
       height="1.141606"><feGaussianBlur
         inkscape:collect="always"
         stdDeviation="1.5895694"
         id="feGaussianBlur4" /></filter></defs><sodipodi:namedview
     id="namedview79"
     pagecolor="#ffffff"
     bordercolor="#000000"
     borderopacity="0.25"
     inkscape:showpageshadow="2"
     inkscape:pageopacity="0.0"
     inkscape:pagecheckerboard="0"
     inkscape:deskcolor="#d1d1d1"
     inkscape:zoom="13.360625"
     inkscape:cx="33.119709"
     inkscape:cy="42.101325"
     inkscape:window-width="2645"
     inkscape:window-height="1371"
     inkscape:window-x="0"
     inkscape:window-y="0"
     inkscape:window-maximized="0"
     inkscape:current-layer="svg79" /><g
     id="g1"
     transform="translate(-41.964965,18.035034)"><path
       class="st1"
       d="m 62.738817,-13.983264 h 22.4 c 9.3,0 16.800003,7.499999 16.800003,16.799999 v 22.4 c 0,9.3 -7.500003,16.8 -16.800003,16.8 h -22.4 c -9.3,0 -16.799999,-7.5 -16.799999,-16.8 v -22.4 c 0,-9.3 7.499999,-16.799999 16.799999,-16.799999 z"
       id="path2"
       style="fill:url(#SVGID_1_-3-2)" /><path
       class="st1"
       d="m 62.764966,-14.035034 h 22.4 c 9.3,0 16.800004,7.5 16.800004,16.8 v 22.4 c 0,9.3 -7.500004,16.8 -16.800004,16.8 h -22.4 c -9.3,0 -16.8,-7.5 -16.8,-16.8 v -22.4 c 0,-9.3 7.5,-16.8 16.8,-16.8 z"
       id="path2-2"
       style="opacity:0.673189;fill:none;stroke:#000000;stroke-width:0.3;stroke-dasharray:none;stroke-opacity:1;filter:url(#filter4)" /></g><rect
     style="fill:none;stroke:#000000;stroke-width:0.20000001;stop-color:#000000;stroke-opacity:1;stroke-dasharray:none;filter:url(#filter194)"
     id="rect28-3-8"
     width="53.400509"
     height="53.400509"
     x="5.2997456"
     y="5.2997456"
     ry="13.284895"
     rx="13.284895" /><path
     d="m 37.487327,21.041539 v 5.471075 h 5.489359 v -5.471075 z"
     style="opacity:0.700486;fill:#0a2a61;stroke-width:0"
     id="path193" /><path
     id="path65-9"
     style="fill:#0a2a61;stroke-width:0"
     d="m 26.508442,10.080987 v 5.459239 H 25.52896 v 0.0116 h -4.51125 v 0.0116 5.462553 h -5.490726 v 0.0099 5.474156 0.0099 h -5.445983 v 7.75464 3.205272 h 5.445983 v 1.484967 3.997477 0.01162 h 5.490726 v 2.174416 3.288139 0.01163 h 5.490733 v 5.470844 h 5.490727 5.49073 v -5.470844 h 2.118062 3.372662 v -5.47581 -0.0099 h 5.490738 v -5.484088 h 5.447635 v -5.474079 -5.495702 h -5.447635 v -2.459475 -3.013023 h -2.361706 -3.129032 v -5.480785 -0.01492 h -3.793622 -1.697103 v -5.459296 h -5.49073 z m 0,10.944997 h 10.981457 v 2.015312 3.467128 h 5.490725 v 5.485759 5.4841 h -5.490725 v 5.494043 h -5.49073 v 0.0018 H 26.508442 V 37.48834 h -3.051145 -2.439588 v -5.494047 -5.4841 h 5.490733 z" /><path
     d="m 31.999999,10.079073 v 5.471076 h 5.487328 v -5.471076 z"
     style="opacity:0.700486;fill:#0a2a61;stroke-width:0"
     id="path192" /><path
     d="m 21.023313,10.079073 v 0.01019 5.460917 h 5.489358 v -5.471076 z"
     style="opacity:0.700486;fill:#9ae9fe;stroke-width:0"
     id="path191" /><path
     d="m 37.487327,10.079073 v 5.471076 h 5.489359 v -5.471076 z"
     style="opacity:0.700486;fill:#98e8ff;stroke-width:0"
     id="path190" /><path
     d="m 26.512671,10.079073 v 5.471076 h 5.487328 v -5.471076 z"
     style="opacity:0.700486;fill:#0a2a61;stroke-width:0"
     id="path189" /><path
     d="m 26.512671,15.560306 v 5.471075 h 5.487328 v -5.471075 z"
     style="opacity:0.700486;fill:#003077;stroke-width:0"
     id="path188" /><path
     d="m 15.535984,15.570464 v 5.460917 h 5.487329 v -5.460917 z"
     style="opacity:0.700486;fill:#ffffff;stroke-width:0"
     id="path187" /><path
     d="m 37.487327,15.550149 v 5.481232 h 5.489359 v -5.471075 -0.01019 z"
     style="opacity:0.700486;fill:#0841ae;stroke-width:0"
     id="path186" /><path
     d="m 42.976686,15.560306 v 5.471075 h 5.487328 v -5.471075 z"
     style="opacity:0.700486;fill:#98e8ff;stroke-width:0"
     id="path185" /><path
     d="m 21.023313,15.560306 v 0.01019 5.460918 h 5.489358 V 15.56034 Z"
     style="opacity:0.700486;fill:#0a2a61;stroke-width:0"
     id="path184" /><path
     d="m 31.999999,15.550149 v 5.481232 h 5.487328 v -5.481232 z"
     style="opacity:0.700486;fill:#0841ae;stroke-width:0"
     id="path183" /><path
     d="m 31.999999,21.041539 v 5.471075 h 5.487328 v -5.471075 z"
     style="opacity:0.700486;fill:#4ecffa;stroke-width:0"
     id="path182" /><path
     d="m 10.077099,21.041539 v 5.471075 h 5.458885 v -5.471075 z"
     style="opacity:0.700486;fill:#aef3fc;stroke-width:0"
     id="path181" /><path
     d="m 42.976686,21.041539 v 5.471075 h 5.487328 v -5.471075 z"
     style="opacity:0.700486;fill:#0a2a61;stroke-width:0"
     id="path180" /><path
     d="m 21.023313,21.031381 v 5.481233 h 5.489358 v -5.481233 z"
     style="opacity:0.700486;fill:#003077;stroke-width:0"
     id="path179" /><path
     d="m 15.535984,21.031381 v 0.01019 5.471074 h 5.487329 v -5.481232 z"
     style="opacity:0.700486;fill:#0841ae;stroke-width:0"
     id="path178" /><path
     d="m 26.512671,21.031381 v 5.481233 h 5.487328 v -5.481233 z"
     style="opacity:0.700486;fill:#4ecffa;stroke-width:0"
     id="path177" /><path
     d="m 48.464014,21.041539 v 5.471075 h 5.458885 v -5.471075 z"
     style="opacity:0.700486;fill:#98e8ff;stroke-width:0"
     id="path176" /><path
     d="m 26.512671,26.522773 v 5.471075 h 5.487328 v -5.471075 z"
     style="opacity:0.700486;fill:#52d6fe;stroke-width:0"
     id="path175" /><path
     d="m 48.464014,26.512614 v 5.483265 h 5.458885 v -5.483265 z"
     style="opacity:0.700486;fill:#0a2a61;stroke-width:0"
     id="path174" /><path
     d="m 15.535984,26.522773 v 5.471075 h 5.487329 v -5.471075 z"
     style="opacity:0.700486;fill:#0a2a61;stroke-width:0"
     id="path173" /><path
     d="m 37.487327,26.512614 v 5.483265 h 5.489359 v -5.483265 z"
     style="opacity:0.700486;fill:#4dbbff;stroke-width:0"
     id="path172" /><path
     d="m 42.976686,26.512614 v 5.483265 h 5.487328 v -5.483265 z"
     style="opacity:0.700486;fill:#0a2a61;stroke-width:0"
     id="path171" /><path
     d="m 21.023313,26.522773 v 5.471075 h 5.489358 v -5.471075 z"
     style="opacity:0.700486;fill:#4ecffa;stroke-width:0"
     id="path170" /><path
     d="m 31.999999,26.512614 v 5.481234 0.0021 h 5.487328 v -5.483265 z"
     style="opacity:0.700486;fill:#72e2fe;stroke-width:0"
     id="path169" /><path
     d="m 10.077099,26.522773 v 5.471075 h 5.458885 v -5.471075 z"
     style="opacity:0.700486;fill:#0a2a61;stroke-width:0"
     id="path168" /><path
     d="m 31.999999,32.004005 v 5.473107 h 5.487328 v -5.473107 z"
     style="opacity:0.700486;fill:#ffffff;stroke-width:0"
     id="path167" /><path
     d="m 10.077099,31.993848 v 5.483264 h 5.458885 v -5.483264 z"
     style="opacity:0.700486;fill:#0a2a61;stroke-width:0"
     id="path166" /><path
     d="m 42.976686,32.004005 v 5.473107 h 5.487328 v -5.473107 z"
     style="opacity:0.700486;fill:#0841ae;stroke-width:0"
     id="path165" /><path
     d="m 21.023313,31.993848 v 5.483264 h 5.489358 v -5.483264 z"
     style="opacity:0.700486;fill:#4dbbff;stroke-width:0"
     id="path164" /><path
     d="m 15.535984,31.993848 v 5.483264 h 5.487329 v -5.483264 z"
     style="opacity:0.700486;fill:#0841ae;stroke-width:0"
     id="path163" /><path
     d="m 37.487327,32.004005 v 5.473107 h 5.489359 v -5.473107 z"
     style="opacity:0.700486;fill:#4dbbff;stroke-width:0"
     id="path162" /><path
     d="m 26.512671,31.993848 v 5.483264 h 5.487328 v -5.483264 z"
     style="opacity:0.700486;fill:#74e1ff;stroke-width:0"
     id="path161" /><path
     d="m 48.464014,32.004005 v 5.473107 h 5.458885 v -5.473107 z"
     style="opacity:0.700486;fill:#003077;stroke-width:0"
     id="path160" /><path
     d="m 31.999999,42.968503 v 5.471074 h 5.487328 v -5.471074 z"
     style="opacity:0.700486;fill:#0841ae;stroke-width:0"
     id="path159" /><path
     d="m 42.976686,42.968503 v 5.471074 h 5.487328 v -5.471074 z"
     style="opacity:0.700486;fill:#4bd5ff;stroke-width:0"
     id="path158" /><path
     d="m 21.023313,42.968503 v 5.460917 0.01019 h 5.489358 v -5.471075 z"
     style="opacity:0.700486;fill:#003077;stroke-width:0"
     id="path157" /><path
     d="m 15.535984,42.968503 v 5.460917 h 5.487329 v -5.460917 z"
     style="opacity:0.700486;fill:#4bd5ff;stroke-width:0"
     id="path156" /><path
     d="m 37.487327,42.968503 v 5.471074 h 5.489359 v -5.471074 z"
     style="opacity:0.700486;fill:#0841ae;stroke-width:0"
     id="path155" /><path
     d="m 26.512671,42.968503 v 5.471074 h 5.487328 v -5.471074 z"
     style="opacity:0.700486;fill:#0a2a61;stroke-width:0"
     id="path154" /><path
     d="m 26.512671,48.449735 v 5.473107 h 5.487328 v -0.0021 -5.471075 z"
     style="opacity:0.700486;fill:#003077;stroke-width:0"
     id="path153" /><path
     d="m 37.487327,48.439577 v 5.481235 h 5.489359 v -5.481235 z"
     style="opacity:0.700486;fill:#4bd5ff;stroke-width:0"
     id="path152" /><path
     d="m 21.023313,48.449735 v 5.460918 0.01219 h 5.489358 v -5.473106 z"
     style="opacity:0.700486;fill:#4bd5ff;stroke-width:0"
     id="path151" /><path
     d="m 31.999999,48.439577 v 5.481235 h 5.487328 v -5.481235 z"
     style="opacity:0.700486;fill:#003077;stroke-width:0"
     id="path150" /><path
     d="m 26.512671,37.48727 v 5.481233 h 5.487328 v -0.01019 -5.471074 z"
     style="opacity:0.700486;fill:#9ae6fc;stroke-width:0"
     id="path149" /><path
     d="m 48.464014,37.477112 v 5.481233 h 5.458885 v -5.481233 z"
     style="opacity:0.700486;fill:#4bd5ff;stroke-width:0"
     id="path148" /><path
     d="m 15.535984,37.48727 v 5.471075 0.01019 h 5.487329 v -5.481232 z"
     style="opacity:0.700486;fill:#003077;stroke-width:0"
     id="path147" /><path
     d="m 37.487327,37.477112 v 5.481233 h 5.489359 v -5.481233 z"
     style="opacity:0.700486;fill:#0a2a61;stroke-width:0"
     id="path146" /><path
     d="m 42.976686,37.477112 v 5.481233 h 5.487328 v -5.481233 z"
     style="opacity:0.700486;fill:#003077;stroke-width:0"
     id="path145" /><path
     d="m 21.023313,37.48727 v 5.481233 h 5.489358 V 37.48727 Z"
     style="opacity:0.700486;fill:#0a2a61;stroke-width:0"
     id="path144" /><path
     d="m 31.999999,37.477112 v 5.481233 h 5.487328 v -5.481233 z"
     style="opacity:0.700486;fill:#aef3fc;stroke-width:0"
     id="path143" /><path
     d="m 10.077099,37.48727 v 5.471075 h 5.458885 V 37.48727 Z"
     style="opacity:0.700486;fill:#4bd5ff;stroke-width:0"
     id="path142" /><path
     d="m 15.535984,10.849047 c -2.099803,0.922073 -3.782354,2.608824 -4.69907,4.711259 h 4.69907 z"
     style="opacity:0.700486;fill:#4ed6ff;stroke-width:0"
     id="path141" /><path
     d="m 18.792624,10.089231 c -1.155292,0.05382 -2.253735,0.319416 -3.25664,0.759816 v 4.711259 0.01019 h 5.487329 v -5.481231 z"
     style="opacity:0.700486;fill:#71e0fe;stroke-width:0"
     id="path140" /><path
     d="m 10.836914,15.560306 c -0.489523,1.122694 -0.759815,2.364055 -0.759815,3.671085 v 1.810148 h 5.458885 v -5.481233 z"
     style="opacity:0.700486;fill:#74e1ff;stroke-width:0"
     id="path139" /><path
     d="m 48.464014,10.849047 v 4.701102 h 4.692976 c -0.917634,-2.097553 -2.597264,-3.78047 -4.692976,-4.701102 z"
     style="opacity:0.700486;fill:#4ed6ff;stroke-width:0"
     id="path138" /><path
     d="m 42.976686,10.079073 v 5.481233 h 5.487328 v -0.01019 -4.701102 c -1.1285,-0.495707 -2.377648,-0.769938 -3.693432,-0.769938 z"
     style="opacity:0.700486;fill:#fdffff;stroke-width:0"
     id="path137" /><path
     d="m 48.464014,15.550149 v 5.481232 h 5.458885 v -1.79999 c 0,-1.310974 -0.273588,-2.55588 -0.765909,-3.681242 z"
     style="opacity:0.700486;fill:#4ed6ff;stroke-width:0"
     id="path136" /><path
     d="m 48.464014,48.449735 v 4.703134 c 2.096877,-0.920899 3.777523,-2.604528 4.695008,-4.703134 z"
     style="opacity:0.700486;fill:#71e0ff;stroke-width:0"
     id="path135" /><path
     d="m 42.976686,48.439577 v 5.481235 h 1.988928 c 1.243838,-0.02584 2.425914,-0.296932 3.4984,-0.767943 v -4.703134 -0.01019 z"
     style="opacity:0.700486;fill:#95e8fe;stroke-width:0"
     id="path134" /><path
     d="m 48.464014,42.968503 v 5.481232 h 4.695008 c 0.49176,-1.124828 0.763877,-2.369025 0.763877,-3.67921 v -1.802022 z"
     style="opacity:0.700486;fill:#4cd5ff;stroke-width:0"
     id="path133" /><path
     d="m 10.836914,48.439577 c 0.916481,2.1033 2.598968,3.790899 4.69907,4.713292 v -4.713292 z"
     style="opacity:0.700486;fill:#73dfff;stroke-width:0"
     id="path132" /><path
     d="m 15.535984,48.42942 v 0.01019 4.713291 c 0.9908,0.435174 2.073854,0.699576 3.213978,0.757784 h 2.273351 v -5.481233 z"
     style="opacity:0.700486;fill:#4dd4ff;stroke-width:0"
     id="path131" /><path
     d="m 10.077099,42.958345 v 1.81218 c 0,1.306241 0.270851,2.546894 0.759815,3.669052 h 4.69907 v -5.481232 z"
     style="opacity:0.700486;fill:#97e7fe;stroke-width:0"
     id="path130" /><g
     id="g3"
     transform="matrix(0.90489008,0,0,0.90489008,-52.68195,2.9288919)"
     style="stroke:#000600;stroke-width:0.5;stroke-dasharray:none;stroke-opacity:1" /><path
     id="path65-9-6"
     style="fill:none;stroke:#000eff;stroke-width:0.2;stroke-dasharray:none;stroke-opacity:1;filter:url(#filter1)"
     d="m 26.407412,9.677796 v 5.559676 h -0.997503 v 0.01181 h -4.594246 v 0.01181 5.563051 h -5.591742 v 0.01006 5.574867 0.01006 H 9.677745 v 7.897307 3.264241 h 5.546176 v 1.512287 4.071021 0.01183 h 5.591742 v 2.21442 3.348633 0.01184 h 5.59175 v 5.571495 h 5.591743 5.591746 v -5.571495 h 2.157029 3.434711 v -5.576551 -0.01006 h 5.591755 v -5.584982 h 5.547858 v -5.574789 -5.59681 H 48.774397 V 23.902794 20.834338 H 46.369241 43.182642 V 15.25272 15.23753 H 39.319227 37.590901 V 9.677796 h -5.591746 z m 0,11.146358 h 11.183489 v 2.052389 3.530915 h 5.591741 v 5.586684 5.584994 h -5.591741 v 5.595121 h -5.591746 v 0.0018 H 26.407412 V 37.589378 H 23.300133 20.815662 V 31.994254 26.40926 h 5.59175 z"
     transform="matrix(0.98193476,0,0,0.98193476,0.57808779,0.57808774)" /></svg>
