<?xml version="1.0" encoding="UTF-8" standalone="no"?>
<svg
   width="64"
   height="64"
   version="1.1"
   id="svg6"
   sodipodi:docname="mx-live-usb-maker.svg"
   inkscape:version="1.4.2 (ebf0e940d0, 2025-05-08)"
   xmlns:inkscape="http://www.inkscape.org/namespaces/inkscape"
   xmlns:sodipodi="http://sodipodi.sourceforge.net/DTD/sodipodi-0.dtd"
   xmlns:xlink="http://www.w3.org/1999/xlink"
   xmlns="http://www.w3.org/2000/svg"
   xmlns:svg="http://www.w3.org/2000/svg">
  <defs
     id="defs6">
    <radialGradient
       inkscape:collect="always"
       xlink:href="#linearGradient11"
       id="radialGradient2"
       cx="24.170324"
       cy="90.294632"
       fx="24.170324"
       fy="90.294632"
       r="7"
       gradientTransform="matrix(5.3912735,0,0,7.7018191,-116.7512,-635.83241)"
       gradientUnits="userSpaceOnUse" />
    <linearGradient
       id="linearGradient11"
       inkscape:collect="always">
      <stop
         style="stop-color:#42e67d;stop-opacity:1;"
         offset="0"
         id="stop11" />
      <stop
         style="stop-color:#1fc256;stop-opacity:1;"
         offset="1"
         id="stop12" />
    </linearGradient>
    <inkscape:path-effect
       effect="fillet_chamfer"
       id="path-effect2"
       is_visible="true"
       lpeversion="1"
       nodesatellites_param="F,0,0,1,0,1.5174723,0,1 @ F,0,0,1,0,0.84037867,0,1 @ F,0,0,1,0,1.5174723,0,1 @ F,0,0,1,0,0.6507184,0,1 @ F,0,0,1,0,3.5238442,0,1 @ F,0,1,1,0,3.5238442,0,1 @ F,0,0,1,0,0.6507184,0,1"
       radius="0"
       unit="px"
       method="auto"
       mode="F"
       chamfer_steps="1"
       flexible="false"
       use_knot_distance="true"
       apply_no_radius="true"
       apply_with_radius="true"
       only_selected="false"
       hide_knots="false" />
    <filter
       inkscape:collect="always"
       style="color-interpolation-filters:sRGB"
       id="filter2"
       x="-0.096495089"
       y="-0.14171053"
       width="1.1929902"
       height="1.2834211">
      <feGaussianBlur
         inkscape:collect="always"
         stdDeviation="1.9658992"
         id="feGaussianBlur2" />
    </filter>
    <filter
       inkscape:collect="always"
       style="color-interpolation-filters:sRGB"
       id="filter12-3"
       x="-0.12045395"
       y="-0.23387343"
       width="1.2409079"
       height="1.4700367">
      <feGaussianBlur
         inkscape:collect="always"
         stdDeviation="1.9658992"
         id="feGaussianBlur12-6" />
    </filter>
    <radialGradient
       inkscape:collect="always"
       xlink:href="#linearGradient6-5"
       id="radialGradient9-7"
       cx="3.6037257"
       cy="69.383522"
       fx="3.6037257"
       fy="69.383522"
       r="28"
       gradientTransform="matrix(3.6631184,0,0,2.2240362,2.222285,-107.21141)"
       gradientUnits="userSpaceOnUse" />
    <linearGradient
       id="linearGradient6-5"
       inkscape:collect="always">
      <stop
         style="stop-color:#2f2f2f;stop-opacity:1;"
         offset="0"
         id="stop6-3" />
      <stop
         style="stop-color:#686868;stop-opacity:1;"
         offset="1"
         id="stop7-3" />
    </linearGradient>
    <inkscape:path-effect
       effect="fillet_chamfer"
       id="path-effect10-7"
       is_visible="true"
       lpeversion="1"
       nodesatellites_param="F,0,1,1,0,1.1149572,0,1 @ F,0,1,1,0,1.1149572,0,1 @ F,0,1,1,0,1.1149572,0,1 @ F,0,1,1,0,1.1149572,0,1"
       radius="0"
       unit="px"
       method="auto"
       mode="F"
       chamfer_steps="1"
       flexible="false"
       use_knot_distance="true"
       apply_no_radius="true"
       apply_with_radius="true"
       only_selected="false"
       hide_knots="false" />
    <inkscape:path-effect
       effect="fillet_chamfer"
       id="path-effect10-6"
       is_visible="true"
       lpeversion="1"
       nodesatellites_param="F,0,1,1,0,1.1149572,0,1 @ F,0,1,1,0,1.1149572,0,1 @ F,0,1,1,0,1.1149572,0,1 @ F,0,1,1,0,1.1149572,0,1"
       radius="0"
       unit="px"
       method="auto"
       mode="F"
       chamfer_steps="1"
       flexible="false"
       use_knot_distance="true"
       apply_no_radius="true"
       apply_with_radius="true"
       only_selected="false"
       hide_knots="false" />
    <inkscape:path-effect
       effect="fillet_chamfer"
       id="path-effect9-3"
       is_visible="true"
       lpeversion="1"
       nodesatellites_param="F,0,1,1,0,5.2514818,0,1 @ F,0,0,1,0,5.2514818,0,1 @ F,0,0,1,0,0,0,1 @ F,0,0,1,0,0,0,1"
       radius="0"
       unit="px"
       method="auto"
       mode="F"
       chamfer_steps="1"
       flexible="false"
       use_knot_distance="true"
       apply_no_radius="true"
       apply_with_radius="true"
       only_selected="false"
       hide_knots="false" />
  </defs>
  <sodipodi:namedview
     id="namedview6"
     pagecolor="#ffffff"
     bordercolor="#000000"
     borderopacity="0.25"
     inkscape:showpageshadow="2"
     inkscape:pageopacity="0.0"
     inkscape:pagecheckerboard="0"
     inkscape:deskcolor="#d1d1d1"
     inkscape:zoom="13.8125"
     inkscape:cx="32"
     inkscape:cy="32.036199"
     inkscape:window-width="1992"
     inkscape:window-height="1377"
     inkscape:window-x="0"
     inkscape:window-y="0"
     inkscape:window-maximized="0"
     inkscape:current-layer="svg6" />
  <g
     id="g1"
     transform="translate(-8.7839785,12.156939)">
    <path
       id="rect2-5"
       style="fill:#b4b4b4;fill-opacity:1"
       d="M 17.251482,6 H 46.748518 A 5.2514818,5.2514818 45 0 1 52,11.251482 v 19.5564 H 12 v -19.5564 A 5.2514818,5.2514818 135 0 1 17.251482,6 Z"
       inkscape:path-effect="#path-effect9-3"
       inkscape:original-d="M 12,6 H 52 V 30.807882 H 12 Z"
       transform="translate(8.7849504,-13.18206)"
       sodipodi:nodetypes="ccccc" />
    <path
       style="opacity:0.450368;fill:#000000;fill-opacity:1"
       inkscape:path-effect="#path-effect10-6"
       inkscape:original-d="M 16,9.2304688 V 15.230469 H 26 V 9.2304688 Z"
       transform="matrix(1.2968801,0,0,1.2968801,4.118697,-15.273158)"
       d="m 16,10.345426 v 3.770086 a 1.1149572,1.1149572 45 0 0 1.114957,1.114957 l 7.770086,0 A 1.1149572,1.1149572 135 0 0 26,14.115512 l 0,-3.770086 A 1.1149572,1.1149572 45 0 0 24.885043,9.2304688 H 17.114957 A 1.1149572,1.1149572 135 0 0 16,10.345426 Z"
       id="rect7-6" />
    <path
       style="opacity:0.450368;fill:#000000;fill-opacity:1"
       inkscape:path-effect="#path-effect10-7"
       inkscape:original-d="M 16,9.2304688 V 15.230469 H 26 V 9.2304688 Z"
       transform="matrix(1.2968801,0,0,1.2968801,22.98224,-15.194341)"
       d="m 16,10.345426 v 3.770086 a 1.1149572,1.1149572 45 0 0 1.114957,1.114957 l 7.770086,0 A 1.1149572,1.1149572 135 0 0 26,14.115512 l 0,-3.770086 A 1.1149572,1.1149572 45 0 0 24.885043,9.2304688 H 17.114957 A 1.1149572,1.1149572 135 0 0 16,10.345426 Z"
       id="rect7-6-3" />
    <rect
       style="fill:url(#radialGradient9-7)"
       width="49.931034"
       height="34"
       x="15.819433"
       y="12.867201"
       rx="7.8817735"
       ry="7.8817735"
       id="rect3-6" />
    <path
       d="m 26.035931,-7.1818421 a 5.2514818,5.2514818 0 0 0 -5.25,5.2500001 v 15.351563 c 0.901191,-0.356889 1.884899,-0.552735 2.916016,-0.552735 h 34.167965 c 1.03123,0 2.01492,0.195777 2.91602,0.552735 V -1.931842 a 5.2514818,5.2514818 0 0 0 -5.251954,-5.2500001 z m 0.279297,3.8789063 H 36.3914 a 1.4459658,1.4459658 0 0 1 1.447266,1.4453128 V 3.033002 A 1.4459658,1.4459658 0 0 1 36.3914,4.478314 H 26.315228 A 1.4459658,1.4459658 0 0 1 24.869916,3.033002 v -4.890625 a 1.4459658,1.4459658 0 0 1 1.445312,-1.4453128 z m 18.863281,0.078125 h 10.076172 a 1.4459658,1.4459658 0 0 1 1.447271,1.4472658 V 3.111127 A 1.4459658,1.4459658 0 0 1 55.254681,4.556439 H 45.178509 A 1.4459658,1.4459658 0 0 1 43.733197,3.111127 v -4.888672 a 1.4459658,1.4459658 0 0 1 1.445312,-1.4472658 z"
       style="mix-blend-mode:normal;fill:none;stroke:#000000;stroke-width:0.2;stroke-dasharray:none;stroke-opacity:1;filter:url(#filter12-3)"
       id="path10" />
    <path
       id="path6-7"
       style="mix-blend-mode:normal;fill:none;fill-opacity:1;stroke:#000000;stroke-width:0.2;stroke-dasharray:none;stroke-opacity:1;filter:url(#filter2)"
       d="m 23.700971,12.867961 c -4.366503,0 -7.882813,3.514356 -7.882813,7.880859 v 18.236328 c 0,4.366502 3.51631,7.882813 7.882813,7.882813 h 34.167968 c 4.36651,0 7.88086,-3.516311 7.88086,-7.882813 V 20.74882 c 0,-4.366503 -3.51435,-7.880859 -7.88086,-7.880859 z"
       sodipodi:nodetypes="sssssssss" />
    <path
       style="fill:url(#radialGradient2)"
       d="m 24.854533,45.406062 6.610242,7.977357 a 0.68404334,0.68404334 179.49855 0 0 1.060986,-0.0093 l 6.64225,-8.307771 a 0.73499082,0.73499082 64.486444 0 0 -0.569835,-1.193957 l -2.38917,-0.01375 a 0.65447443,0.65447443 45.164883 0 1 -0.650708,-0.654463 v -8.770859 a 3.5238442,3.5238442 45 0 0 -3.523844,-3.523844 h -0.06696 a 3.5238442,3.5238442 135 0 0 -3.523844,3.523844 l 0,9.082889 a 0.66088697,0.66088697 134.55581 0 1 -0.65064,0.660807 l -2.389395,0.03705 a 0.72774088,0.72774088 114.7328 0 0 -0.549078,1.191983 z"
       id="path6-3"
       sodipodi:nodetypes="cccccccc"
       inkscape:path-effect="#path-effect2"
       inkscape:original-d="m 23.886321,44.237607 8.114651,9.792904 8.114651,-10.149372 -4.557325,-0.02623 V 30.909488 h -7.114652 v 13.257451 z"
       transform="translate(8.7839787,-12.156939)" />
  </g>
</svg>
