<?xml version="1.0" encoding="UTF-8" standalone="no"?>
<svg
   width="64"
   height="64"
   version="1.1"
   id="svg9"
   sodipodi:docname="easytag.svg"
   inkscape:version="1.4.3 (0d15f75042, 2025-12-25)"
   xmlns:inkscape="http://www.inkscape.org/namespaces/inkscape"
   xmlns:sodipodi="http://sodipodi.sourceforge.net/DTD/sodipodi-0.dtd"
   xmlns:xlink="http://www.w3.org/1999/xlink"
   xmlns="http://www.w3.org/2000/svg"
   xmlns:svg="http://www.w3.org/2000/svg">
  <defs
     id="defs9">
    <inkscape:path-effect
       effect="fillet_chamfer"
       id="path-effect14"
       is_visible="true"
       lpeversion="1"
       nodesatellites_param="F,0,1,1,0,1.953162,0,1 @ F,0,0,1,0,0,0,1 @ F,0,0,1,0,0,0,1 @ F,0,0,1,0,0,0,1 @ F,0,0,1,0,0,0,1 @ F,0,0,1,0,0,0,1 @ F,0,0,1,0,0,0,1 @ F,0,0,1,0,3.5395386,0,1 @ F,0,0,1,0,3.5395386,0,1 @ F,0,0,1,0,1.6145119,0,1 @ F,0,0,1,0,1.6145119,0,1 @ F,0,0,1,0,1.1987818,0,1 @ F,0,0,1,0,0,0,1 @ F,0,0,1,0,0,0,1 @ F,0,0,1,0,0,0,1 @ F,0,0,1,0,0,0,1 @ F,0,0,1,0,0,0,1 @ F,0,0,1,0,0,0,1 @ F,0,0,1,0,0,0,1 @ F,0,0,1,0,1.953162,0,1 | F,0,0,1,0,0,0,1 @ F,0,0,1,0,0,0,1 @ F,0,0,1,0,0,0,1 @ F,0,0,1,0,0,0,1 @ F,0,0,1,0,0,0,1 @ F,0,0,1,0,0,0,1 @ F,0,0,1,0,0,0,1 @ F,0,0,1,0,0,0,1"
       radius="0"
       unit="px"
       method="auto"
       mode="F"
       chamfer_steps="1"
       flexible="false"
       use_knot_distance="true"
       apply_no_radius="true"
       apply_with_radius="true"
       only_selected="false"
       hide_knots="false" />
    <linearGradient
       id="linearGradient12"
       inkscape:collect="always">
      <stop
         style="stop-color:#66b237;stop-opacity:1;"
         offset="0"
         id="stop13" />
      <stop
         style="stop-color:#37b285;stop-opacity:1;"
         offset="1"
         id="stop14" />
    </linearGradient>
    <linearGradient
       id="linearGradient10"
       inkscape:collect="always">
      <stop
         style="stop-color:#c7c7c7;stop-opacity:1;"
         offset="0"
         id="stop11" />
      <stop
         style="stop-color:#898989;stop-opacity:1;"
         offset="1"
         id="stop12" />
    </linearGradient>
    <linearGradient
       id="linearGradient9"
       inkscape:collect="always">
      <stop
         style="stop-color:#6f6f6f;stop-opacity:1;"
         offset="0"
         id="stop9" />
      <stop
         style="stop-color:#141414;stop-opacity:1;"
         offset="1"
         id="stop10" />
    </linearGradient>
    <radialGradient
       inkscape:collect="always"
       xlink:href="#linearGradient9"
       id="radialGradient10"
       cx="7.1820397"
       cy="41.982376"
       fx="7.1820397"
       fy="41.982376"
       r="7.1530286"
       gradientTransform="matrix(1.7872687,0.47889722,-1.1803187,4.4050092,43.898388,-136.70539)"
       gradientUnits="userSpaceOnUse" />
    <radialGradient
       inkscape:collect="always"
       xlink:href="#linearGradient10"
       id="radialGradient12"
       cx="18"
       cy="18"
       fx="18"
       fy="18"
       r="6"
       gradientUnits="userSpaceOnUse"
       gradientTransform="matrix(2.3494494,0,0,2.3494494,-24.290089,-24.290089)" />
    <radialGradient
       inkscape:collect="always"
       xlink:href="#linearGradient12"
       id="radialGradient14"
       cx="22.025099"
       cy="16.184999"
       fx="22.025099"
       fy="16.184999"
       r="28"
       gradientTransform="matrix(1.4217798,0,0,1.4217573,-13.496951,-13.496235)"
       gradientUnits="userSpaceOnUse" />
    <inkscape:path-effect
       effect="fillet_chamfer"
       id="path-effect14-3"
       is_visible="true"
       lpeversion="1"
       nodesatellites_param="F,0,1,1,0,1.953162,0,1 @ F,0,0,1,0,0,0,1 @ F,0,0,1,0,0,0,1 @ F,0,0,1,0,0,0,1 @ F,0,0,1,0,0,0,1 @ F,0,0,1,0,0,0,1 @ F,0,0,1,0,0,0,1 @ F,0,0,1,0,3.5395386,0,1 @ F,0,0,1,0,3.5395386,0,1 @ F,0,0,1,0,1.6145119,0,1 @ F,0,0,1,0,1.6145119,0,1 @ F,0,0,1,0,1.1987818,0,1 @ F,0,0,1,0,0,0,1 @ F,0,0,1,0,0,0,1 @ F,0,0,1,0,0,0,1 @ F,0,0,1,0,0,0,1 @ F,0,0,1,0,0,0,1 @ F,0,0,1,0,0,0,1 @ F,0,0,1,0,0,0,1 @ F,0,0,1,0,1.953162,0,1 | F,0,0,1,0,0,0,1 @ F,0,0,1,0,0,0,1 @ F,0,0,1,0,0,0,1 @ F,0,0,1,0,0,0,1 @ F,0,0,1,0,0,0,1 @ F,0,0,1,0,0,0,1 @ F,0,0,1,0,0,0,1 @ F,0,0,1,0,0,0,1"
       radius="0"
       unit="px"
       method="auto"
       mode="F"
       chamfer_steps="1"
       flexible="false"
       use_knot_distance="true"
       apply_no_radius="true"
       apply_with_radius="true"
       only_selected="false"
       hide_knots="false" />
    <filter
       inkscape:collect="always"
       style="color-interpolation-filters:sRGB"
       id="filter14"
       x="-0.091037836"
       y="-0.073964937"
       width="1.1820757"
       height="1.1479299">
      <feGaussianBlur
         inkscape:collect="always"
         stdDeviation="1.1575123"
         id="feGaussianBlur14" />
    </filter>
    <inkscape:path-effect
       effect="fillet_chamfer"
       id="path-effect14-3-9"
       is_visible="true"
       lpeversion="1"
       nodesatellites_param="F,0,1,1,0,1.953162,0,1 @ F,0,0,1,0,0,0,1 @ F,0,0,1,0,0,0,1 @ F,0,0,1,0,0,0,1 @ F,0,0,1,0,0,0,1 @ F,0,0,1,0,0,0,1 @ F,0,0,1,0,0,0,1 @ F,0,0,1,0,3.5395386,0,1 @ F,0,0,1,0,3.5395386,0,1 @ F,0,0,1,0,1.6145119,0,1 @ F,0,0,1,0,1.6145119,0,1 @ F,0,0,1,0,1.1987818,0,1 @ F,0,0,1,0,0,0,1 @ F,0,0,1,0,0,0,1 @ F,0,0,1,0,0,0,1 @ F,0,0,1,0,0,0,1 @ F,0,0,1,0,0,0,1 @ F,0,0,1,0,0,0,1 @ F,0,0,1,0,0,0,1 @ F,0,0,1,0,1.953162,0,1 | F,0,0,1,0,0,0,1 @ F,0,0,1,0,0,0,1 @ F,0,0,1,0,0,0,1 @ F,0,0,1,0,0,0,1 @ F,0,0,1,0,0,0,1 @ F,0,0,1,0,0,0,1 @ F,0,0,1,0,0,0,1 @ F,0,0,1,0,0,0,1"
       radius="0"
       unit="px"
       method="auto"
       mode="F"
       chamfer_steps="1"
       flexible="false"
       use_knot_distance="true"
       apply_no_radius="true"
       apply_with_radius="true"
       only_selected="false"
       hide_knots="false" />
    <inkscape:path-effect
       effect="fillet_chamfer"
       id="path-effect14-1"
       is_visible="true"
       lpeversion="1"
       nodesatellites_param="F,0,1,1,0,1.953162,0,1 @ F,0,0,1,0,0,0,1 @ F,0,0,1,0,0,0,1 @ F,0,0,1,0,0,0,1 @ F,0,0,1,0,0,0,1 @ F,0,0,1,0,0,0,1 @ F,0,0,1,0,0,0,1 @ F,0,0,1,0,3.5395386,0,1 @ F,0,0,1,0,3.5395386,0,1 @ F,0,0,1,0,1.6145119,0,1 @ F,0,0,1,0,1.6145119,0,1 @ F,0,0,1,0,1.1987818,0,1 @ F,0,0,1,0,0,0,1 @ F,0,0,1,0,0,0,1 @ F,0,0,1,0,0,0,1 @ F,0,0,1,0,0,0,1 @ F,0,0,1,0,0,0,1 @ F,0,0,1,0,0,0,1 @ F,0,0,1,0,0,0,1 @ F,0,0,1,0,1.953162,0,1 | F,0,0,1,0,0,0,1 @ F,0,0,1,0,0,0,1 @ F,0,0,1,0,0,0,1 @ F,0,0,1,0,0,0,1 @ F,0,0,1,0,0,0,1 @ F,0,0,1,0,0,0,1 @ F,0,0,1,0,0,0,1 @ F,0,0,1,0,0,0,1"
       radius="0"
       unit="px"
       method="auto"
       mode="F"
       chamfer_steps="1"
       flexible="false"
       use_knot_distance="true"
       apply_no_radius="true"
       apply_with_radius="true"
       only_selected="false"
       hide_knots="false" />
    <filter
       inkscape:collect="always"
       style="color-interpolation-filters:sRGB"
       id="filter18"
       x="-0.095209263"
       y="-0.095166244"
       width="1.1903678"
       height="1.1903253">
      <feGaussianBlur
         inkscape:collect="always"
         stdDeviation="2.1788363"
         id="feGaussianBlur18" />
    </filter>
  </defs>
  <sodipodi:namedview
     id="namedview9"
     pagecolor="#ffffff"
     bordercolor="#000000"
     borderopacity="0.25"
     inkscape:showpageshadow="2"
     inkscape:pageopacity="0.0"
     inkscape:pagecheckerboard="0"
     inkscape:deskcolor="#d1d1d1"
     inkscape:zoom="11.116849"
     inkscape:cx="5.936934"
     inkscape:cy="32.518207"
     inkscape:current-layer="svg9" />
  <g
     id="g19"
     transform="matrix(0.956816,0,0,0.956816,1.3818881,1.381888)">
    <g
       id="g14">
      <path
         style="fill:url(#radialGradient14)"
         d="M 20.404206,4.0006082 C 18.92572,4.011962 17.308211,4.60189 16.354641,5.567388 L 13.248424,8.7146194 C 11.977687,10.002414 9.8988082,12.108486 8.6273798,13.395819 L 5.5211634,16.540315 C 4.250428,17.827879 3.657024,20.296352 4.203209,22.022678 l 2.8847342,9.12451 c 0.5459542,1.727252 2.0440246,4.183626 3.3276988,5.457752 l 22.61577,22.446242 c 1.284136,1.27459 3.374916,1.262488 4.645654,-0.0246 l 8.378032,-8.484674 c 1.271662,-1.287794 3.349848,-3.393638 4.621044,-4.6812 l 8.378034,-8.484674 C 60.325374,36.088 60.313246,33.99129 59.029566,32.7167 L 36.413798,10.270462 C 35.130124,8.9958722 32.664642,7.5190524 30.936904,6.9892474 L 21.806924,4.1892778 C 21.374932,4.0568846 20.897034,3.9968254 20.404206,4.0006082 Z m -2.40349,9.7998938 c 2.319272,0 4.199954,1.880361 4.199954,4.199954 -3.2e-4,2.319592 -1.880682,4.199954 -4.199954,4.199954 -2.319593,0 -4.199954,-1.880362 -4.199954,-4.199954 0,-2.319272 1.880361,-4.199954 4.199954,-4.199954 z"
         id="path2" />
      <path
         style="opacity:0.730569;mix-blend-mode:normal;fill:#d8ffdd;fill-opacity:1;stroke-width:0.910326;filter:url(#filter14)"
         d="m 36.524246,15.111537 c -4.34838,1.155207 -8.678394,2.388948 -12.976217,3.712511 -0.549828,0.169314 -1.040936,0.365518 -1.498466,0.579971 -0.01256,1.507374 -1.232002,2.725616 -2.738061,2.725616 -0.07326,0 -0.142251,-0.0142 -0.214067,-0.01992 -0.593992,1.175031 -0.805176,2.6152 -0.622286,4.410767 0.517817,5.090989 1.220995,10.162451 1.924109,15.231087 0.219982,1.585652 1.547997,3.983751 2.935559,5.360721 l 3.779304,3.750455 c 1.387562,1.37697 4.039289,2.069063 5.922009,1.543002 3.456891,-0.965909 6.912192,-1.938435 10.367168,-2.912726 0.858199,-0.242009 2.061748,-0.952659 2.688161,-1.587231 0.649401,-0.65786 1.29876,-1.315762 1.948161,-1.973621 0.626414,-0.634572 1.089089,-1.882731 0.79741,-2.721922 -0.06854,-0.197185 -0.138385,-0.392448 -0.200807,-0.613523 -0.179549,-0.635893 -0.712786,-1.034795 -1.350012,-0.855132 -0.260008,0.07331 -0.502799,0.14177 -0.745356,0.210086 -4.766579,1.342919 -9.544572,2.650614 -14.295168,4.04984 -1.363951,0.401949 -1.896077,-0.01977 -2.003761,-1.356585 -0.104742,-1.28577 -0.776541,-4.036927 -0.953214,-5.560366 0.726038,-0.204348 1.34155,-0.369583 1.95149,-0.550101 3.662798,-1.086693 8.266414,-1.871503 11.887566,-3.08304 3.322283,-1.111156 4.761116,-3.103336 4.550161,-6.583792 -0.07359,-1.211574 -0.173288,-2.424363 -0.298951,-3.635428 -0.111329,-1.072917 -0.844408,-2.556285 -1.610004,-3.316193 L 39.799445,15.990838 C 39.033849,15.23093 37.566784,14.834573 36.524246,15.111537 Z m 0.983516,5.847913 c 0.612023,-0.0053 0.975995,0.346948 1.080243,1.214862 0.287147,2.400111 0.703686,4.787715 0.86682,7.193948 0.04302,0.626733 -0.519906,1.724614 -1.034272,1.891242 -3.364478,1.092958 -6.79503,1.987083 -10.451091,3.017453 -0.404226,-3.134497 -0.862498,-5.945319 -1.057259,-8.773269 -0.04383,-0.630626 0.702771,-1.715443 1.310081,-1.924077 2.82042,-0.960825 5.72514,-1.670484 8.589397,-2.501957 0.258571,-0.07483 0.492075,-0.116475 0.696081,-0.118202 z"
         id="path4-7"
         inkscape:path-effect="#path-effect14-3"
         inkscape:original-d="m 38.413211,14.614903 c -4.983419,1.296636 -9.945391,2.69404 -14.865182,4.209145 -0.549828,0.169314 -1.040936,0.365518 -1.498466,0.579971 -0.01256,1.507374 -1.232002,2.725616 -2.738061,2.725616 -0.07326,0 -0.142251,-0.0142 -0.214067,-0.01992 -0.593992,1.175031 -0.805176,2.6152 -0.622286,4.410767 0.517817,5.090989 1.220995,10.162451 1.924109,15.231087 0.1326,0.955794 0.28063,1.911986 0.423156,2.867497 l 8.80411,8.736903 c 5.113242,-1.421021 10.222095,-2.859999 15.330653,-4.301244 1.40572,-1.423687 2.811005,-2.847806 4.216727,-4.27149 -0.102958,-1.524681 -0.625982,-1.763635 -0.73383,-3.366725 -0.774835,0.218056 -1.337652,0.377003 -1.899219,0.535168 -4.766579,1.342919 -9.544572,2.650614 -14.295168,4.04984 -1.363951,0.401949 -1.896077,-0.01977 -2.003761,-1.356585 -0.104742,-1.28577 -0.776541,-4.036927 -0.953214,-5.560366 0.726038,-0.204348 1.34155,-0.369583 1.95149,-0.550101 3.662798,-1.086693 8.266414,-1.871503 11.887566,-3.08304 3.322283,-1.111156 4.761116,-3.103336 4.550161,-6.583792 -0.112936,-1.859241 -0.287332,-3.721345 -0.522721,-5.575686 z m -0.905449,6.344547 c 0.612023,-0.0053 0.975995,0.346948 1.080243,1.214862 0.287147,2.400111 0.703686,4.787715 0.86682,7.193948 0.04302,0.626733 -0.519906,1.724614 -1.034272,1.891242 -3.364478,1.092958 -6.79503,1.987083 -10.451091,3.017453 -0.404226,-3.134497 -0.862498,-5.945319 -1.057259,-8.773269 -0.04383,-0.630626 0.702771,-1.715443 1.310081,-1.924077 2.82042,-0.960825 5.72514,-1.670484 8.589397,-2.501957 0.258571,-0.07483 0.492075,-0.116475 0.696081,-0.118202 z"
         sodipodi:nodetypes="cccscccccccccccccccccccccccccc"
         transform="matrix(0.9476628,0,0,0.9476628,1.7658937,1.769131)" />
      <path
         style="opacity:0.782181;fill:#ffffff;stroke-width:0.910326"
         d="m 36.524246,15.111537 c -4.34838,1.155207 -8.678394,2.388948 -12.976217,3.712511 -0.549828,0.169314 -1.040936,0.365518 -1.498466,0.579971 -0.01256,1.507374 -1.232002,2.725616 -2.738061,2.725616 -0.07326,0 -0.142251,-0.0142 -0.214067,-0.01992 -0.593992,1.175031 -0.805176,2.6152 -0.622286,4.410767 0.517817,5.090989 1.220995,10.162451 1.924109,15.231087 0.219982,1.585652 1.547997,3.983751 2.935559,5.360721 l 3.779304,3.750455 c 1.387562,1.37697 4.039289,2.069063 5.922009,1.543002 3.456891,-0.965909 6.912192,-1.938435 10.367168,-2.912726 0.858199,-0.242009 2.061748,-0.952659 2.688161,-1.587231 0.649401,-0.65786 1.29876,-1.315762 1.948161,-1.973621 0.626414,-0.634572 1.085542,-1.87013 1.02508,-2.759748 -0.04085,-0.601022 -0.08196,-1.205203 -0.123647,-1.820452 -0.04476,-0.660554 -0.597417,-1.050638 -1.234643,-0.870975 -0.260008,0.07331 -0.502799,0.14177 -0.745356,0.210086 -4.766579,1.342919 -9.544572,2.650614 -14.295168,4.04984 -1.363951,0.401949 -1.896077,-0.01977 -2.003761,-1.356585 -0.104742,-1.28577 -0.286308,-2.566229 -0.462981,-4.089668 0.726038,-0.204348 1.34155,-0.369583 1.95149,-0.550101 3.662798,-1.086693 7.355982,-2.081603 10.977134,-3.29314 3.322283,-1.111156 4.761116,-3.103336 4.550161,-6.583792 -0.07359,-1.211574 -0.173288,-2.424363 -0.298951,-3.635428 -0.111329,-1.072917 -0.844408,-2.556285 -1.610004,-3.316193 L 39.799445,15.990838 C 39.033849,15.23093 37.566784,14.834573 36.524246,15.111537 Z m -0.06253,7.458677 c 0.463973,-0.004 0.7399,0.263021 0.81893,0.920985 0.217686,1.81952 0.533463,3.629558 0.657135,5.453719 0.03261,0.475125 -0.39414,1.307427 -0.78408,1.433747 -2.550605,0.82857 -5.1513,1.506404 -7.922954,2.287526 -0.306443,-2.376257 -0.653858,-4.507136 -0.801506,-6.651 -0.03323,-0.478076 0.53277,-1.300474 0.99317,-1.458639 2.138156,-0.7284 4.340219,-1.266391 6.511607,-1.896729 0.196022,-0.05673 0.373041,-0.0883 0.527698,-0.08961 z"
         id="path4"
         inkscape:path-effect="#path-effect14"
         inkscape:original-d="m 38.413211,14.614903 c -4.983419,1.296636 -9.945391,2.69404 -14.865182,4.209145 -0.549828,0.169314 -1.040936,0.365518 -1.498466,0.579971 -0.01256,1.507374 -1.232002,2.725616 -2.738061,2.725616 -0.07326,0 -0.142251,-0.0142 -0.214067,-0.01992 -0.593992,1.175031 -0.805176,2.6152 -0.622286,4.410767 0.517817,5.090989 1.220995,10.162451 1.924109,15.231087 0.1326,0.955794 0.28063,1.911986 0.423156,2.867497 l 8.80411,8.736903 c 5.113242,-1.421021 10.222095,-2.859999 15.330653,-4.301244 1.40572,-1.423687 2.811005,-2.847806 4.216727,-4.27149 -0.102958,-1.524681 -0.205783,-3.024233 -0.313631,-4.627323 -0.774835,0.218056 -1.337652,0.377003 -1.899219,0.535168 -4.766579,1.342919 -9.544572,2.650614 -14.295168,4.04984 -1.363951,0.401949 -1.896077,-0.01977 -2.003761,-1.356585 -0.104742,-1.28577 -0.286308,-2.566229 -0.462981,-4.089668 0.726038,-0.204348 1.34155,-0.369583 1.95149,-0.550101 3.662798,-1.086693 7.355982,-2.081603 10.977134,-3.29314 3.322283,-1.111156 4.761116,-3.103336 4.550161,-6.583792 -0.112936,-1.859241 -0.287332,-3.721345 -0.522721,-5.575686 z m -1.951492,7.955311 c 0.463973,-0.004 0.7399,0.263021 0.81893,0.920985 0.217686,1.81952 0.533463,3.629558 0.657135,5.453719 0.03261,0.475125 -0.39414,1.307427 -0.78408,1.433747 -2.550605,0.82857 -5.1513,1.506404 -7.922954,2.287526 -0.306443,-2.376257 -0.653858,-4.507136 -0.801506,-6.651 -0.03323,-0.478076 0.53277,-1.300474 0.99317,-1.458639 2.138156,-0.7284 4.340219,-1.266391 6.511607,-1.896729 0.196022,-0.05673 0.373041,-0.0883 0.527698,-0.08961 z"
         sodipodi:nodetypes="cccscccccccccccccccccccccccccc" />
      <path
         style="fill:url(#radialGradient12)"
         d="m 18,12 c -3.308361,0 -6,2.691638 -6,6 0,3.308088 2.691639,6 6,6 3.308364,0 6,-2.691912 6,-6 -2.74e-4,-3.308362 -2.691908,-6 -6,-6 z m 0,3 c 1.656642,0 3,1.34313 3,3 0,1.65687 -1.343128,3 -3,3 -1.656868,0 -3,-1.34313 -3,-3 0,-1.65687 1.343132,-3 3,-3 z"
         id="path6" />
      <path
         style="fill:url(#radialGradient10)"
         d="m 16.976871,43.130226 c -0.216718,2.357828 -1.35784,6.343068 -3.653249,8.408544 -1.079896,0.971346 -2.384825,1.461306 -3.8893754,1.461306 -0.319301,0 -0.6478438,-0.02224 -0.9849354,-0.06648 C 6.3773194,52.662318 4.954558,51.12549 4.3349012,48.489902 2.4824,40.61418 8.5218018,23.810038 17.345789,17.845969 c 0.282334,-0.190655 0.664941,-0.115597 0.854857,0.167027 0.19038,0.282623 0.115751,0.666715 -0.16635,0.85737 C 9.21932,24.828182 3.9513702,41.478964 5.5337822,48.20635 c 0.4990524,2.122 1.533662,3.30022 3.0749486,3.502458 1.5724772,0.205946 2.8464472,-0.14988 3.8905292,-1.087872 2.336074,-2.099992 3.229055,-6.734574 3.318008,-8.641362"
         id="path8" />
    </g>
    <g
       id="g18"
       style="stroke:#000000;stroke-width:0.2;stroke-dasharray:none;stroke-opacity:1;filter:url(#filter18)"
       transform="translate(58.991601,3.5301993)">
      <path
         d="m -38.585937,0.47070313 c -1.478486,0.0113538 -3.095259,0.60090827 -4.048829,1.56640627 l -3.107421,3.1484375 c -1.270737,1.2877946 -3.349666,3.3923545 -4.621094,4.6796875 l -3.105469,3.1445316 c -1.270735,1.287564 -1.864544,3.756095 -1.318359,5.482421 l 2.884765,9.125 c 0.03913,0.123808 0.08237,0.252206 0.13086,0.382813 1.552825,-3.637907 3.601288,-7.136939 5.99414,-9.916016 -0.760827,-1.005688 -1.21289,-2.258042 -1.21289,-3.613281 0,-3.308362 2.691639,-5.9999999 6,-5.9999999 3.308092,0 5.999726,2.6916379 6,5.9999999 0,0.236058 -0.01436,0.468237 -0.04102,0.697266 4.162912,-1.275896 8.356539,-2.467529 12.566406,-3.585938 0.260635,-0.06924 0.547644,-0.09602 0.84375,-0.08594 0.88832,0.03025 1.857444,0.394913 2.431641,0.964844 l 5.96875,5.925781 c 0.765596,0.759908 1.498046,2.243489 1.609375,3.316406 0.125663,1.211065 0.225233,2.423192 0.298828,3.634766 0.210955,3.480456 -1.226545,5.472828 -4.548828,6.583984 -3.621152,1.211537 -7.315718,2.206276 -10.978516,3.292969 -0.60994,0.180518 -1.225134,0.346433 -1.951172,0.550781 0.176673,1.523439 0.358149,2.804074 0.462891,4.089844 0.107684,1.336815 0.639955,1.757418 2.003906,1.355468 4.750596,-1.399226 9.528343,-2.705909 14.294922,-4.048828 0.242558,-0.06832 0.486086,-0.137629 0.746094,-0.210937 0.637225,-0.179663 1.189615,0.21054 1.234375,0.871094 0.04169,0.615248 0.082199,1.21929 0.1230467,1.820312 0.060462,0.889618 -0.3970237,2.125194 -1.0234377,2.759766 -0.649401,0.657859 -1.299817,1.316749 -1.949219,1.974609 -0.626413,0.634573 -1.8293,1.343928 -2.6875,1.585938 -3.454975,0.974291 -6.910295,1.948153 -10.367187,2.914062 -1.882719,0.526061 -4.534313,-0.165999 -5.921875,-1.542969 l -3.779297,-3.751953 c -1.387562,-1.376969 -2.715565,-3.773723 -2.935547,-5.359375 -0.703114,-5.068636 -1.406011,-10.141433 -1.923828,-15.232422 -0.09577,-0.940285 -0.08328,-1.78285 0.03516,-2.541015 -0.16853,0.01429 -0.339556,0.02148 -0.511718,0.02148 -1.51137,0 -2.893087,-0.562595 -3.949219,-1.488281 -2.533456,2.966874 -4.61072,6.756567 -6.109375,10.597656 0.697544,1.314753 1.632106,2.659857 2.474609,3.496094 l 22.615235,22.445312 c 1.284136,1.27459 3.375746,1.261698 4.646484,-0.02539 l 8.376953,-8.484375 c 1.271662,-1.287794 3.3498979,-3.392126 4.6210939,-4.679688 L 0.06445312,33.845703 C 1.3356511,32.557669 1.3227425,30.46209 0.0390625,29.1875 L -22.576172,6.7402344 c -1.283674,-1.2745898 -3.748824,-2.751445 -5.476562,-3.28125 l -9.13086,-2.79882815 C -37.615586,0.52776305 -38.09311,0.46692033 -38.585937,0.47070313 Z M -22.527344,19.041016 c -0.154657,0.0013 -0.333275,0.03311 -0.529297,0.08984 -2.171388,0.630338 -4.371609,1.168085 -6.509765,1.896485 -0.4604,0.158165 -1.027371,0.980908 -0.994141,1.458984 0.147648,2.143864 0.494338,4.274134 0.800781,6.650391 2.771654,-0.781122 5.373224,-1.45854 7.923829,-2.28711 0.38994,-0.12632 0.815813,-0.958468 0.783203,-1.433593 -0.123672,-1.824161 -0.438564,-3.635559 -0.65625,-5.455079 -0.07903,-0.657964 -0.354387,-0.923921 -0.81836,-0.919921 z"
         style="fill:none;stroke:#000000;stroke-width:0.2;stroke-dasharray:none;stroke-opacity:1"
         id="path18" />
      <path
         d="m -21.621094,11.496094 c -0.296106,-0.01008 -0.583115,0.0167 -0.84375,0.08594 -4.209867,1.118409 -8.403494,2.310042 -12.566406,3.585938 -0.327476,2.813529 -2.608335,5.040582 -5.447266,5.28125 -0.118431,0.758165 -0.13093,1.60073 -0.03516,2.541015 0.517817,5.090989 1.220714,10.163786 1.923828,15.232422 0.219982,1.585652 1.547985,3.982406 2.935547,5.359375 l 3.779297,3.751953 c 1.387562,1.37697 4.039156,2.06903 5.921875,1.542969 3.456892,-0.965909 6.912212,-1.939771 10.367187,-2.914062 0.8582,-0.24201 2.061087,-0.951365 2.6875,-1.585938 0.649402,-0.65786 1.299818,-1.31675 1.949219,-1.974609 0.626414,-0.634572 1.0838993,-1.870148 1.0234377,-2.759766 -0.040847,-0.601022 -0.081357,-1.205064 -0.1230467,-1.820312 -0.04476,-0.660554 -0.59715,-1.050757 -1.234375,-0.871094 -0.260008,0.07331 -0.503536,0.142621 -0.746094,0.210937 -4.766579,1.342919 -9.544326,2.649602 -14.294922,4.048828 -1.363951,0.40195 -1.896222,-0.01865 -2.003906,-1.355468 -0.104742,-1.28577 -0.286218,-2.566405 -0.462891,-4.089844 0.726038,-0.204348 1.341232,-0.370263 1.951172,-0.550781 3.662798,-1.086693 7.357364,-2.081432 10.978516,-3.292969 3.322283,-1.111156 4.759783,-3.103528 4.548828,-6.583984 -0.07359,-1.211574 -0.173165,-2.423701 -0.298828,-3.634766 -0.111329,-1.072917 -0.843779,-2.556498 -1.609375,-3.316406 l -5.96875,-5.925781 c -0.574197,-0.569931 -1.543321,-0.934592 -2.431641,-0.964844 z m -0.90625,7.544922 c 0.463973,-0.004 0.73933,0.261957 0.81836,0.919921 0.217686,1.81952 0.532578,3.630918 0.65625,5.455079 0.03261,0.475125 -0.393263,1.307273 -0.783203,1.433593 -2.550605,0.82857 -5.152175,1.505988 -7.923829,2.28711 -0.306443,-2.376257 -0.653133,-4.506527 -0.800781,-6.650391 -0.03323,-0.478076 0.533741,-1.300819 0.994141,-1.458984 2.138156,-0.7284 4.338377,-1.266147 6.509765,-1.896485 0.196022,-0.05673 0.37464,-0.08853 0.529297,-0.08984 z"
         style="opacity:0.782181;fill:none;stroke:#000000;stroke-width:0.2;stroke-dasharray:none;stroke-opacity:1"
         id="path17" />
      <path
         d="m -40.990234,8.4707031 c -3.308361,0 -6,2.6916379 -6,5.9999999 0,1.355239 0.452063,2.607593 1.21289,3.613281 0.68622,-0.796981 1.40115,-1.536153 2.140625,-2.201171 -0.225196,-0.421033 -0.353515,-0.901254 -0.353515,-1.41211 0,-1.65687 1.343132,-3 3,-3 1.656642,0 3,1.34313 3,3 0,1.65687 -1.343128,3 -3,3 -0.701711,0 -1.346456,-0.240904 -1.857422,-0.644531 -0.727408,0.652795 -1.425254,1.375676 -2.091797,2.15625 1.056132,0.925686 2.437849,1.488281 3.949219,1.488281 3.308364,0 6,-2.691912 6,-6 -2.74e-4,-3.308362 -2.691908,-5.9999999 -6,-5.9999999 z"
         style="fill:none;stroke:#000000;stroke-width:0.2;stroke-dasharray:none;stroke-opacity:1"
         id="path16" />
      <path
         d="m -41.298828,14.210938 c -0.118628,-1.7e-4 -0.239828,0.03397 -0.345703,0.105468 -8.823987,5.964069 -14.862267,22.76881 -13.009766,30.644531 0.619657,2.635588 2.041289,4.172082 4.113281,4.44336 0.337092,0.04424 0.667027,0.06641 0.986329,0.06641 1.504549,0 2.808775,-0.489591 3.888671,-1.460937 2.295409,-2.065476 3.435626,-6.052329 3.652344,-8.410157 l -1.158203,-1.15039 c -0.08895,1.906788 -0.982285,6.542586 -3.318359,8.642578 -1.044082,0.937992 -2.318148,1.293836 -3.890625,1.08789 -1.541287,-0.202237 -2.575166,-1.381906 -3.074219,-3.503906 -1.582412,-6.727386 3.685024,-23.378121 12.5,-29.335937 0.282101,-0.190655 0.356395,-0.574799 0.166016,-0.857422 -0.118698,-0.17664 -0.312053,-0.271201 -0.509766,-0.271484 z"
         style="fill:none;stroke:#000000;stroke-width:0.2;stroke-dasharray:none;stroke-opacity:1"
         id="path15" />
    </g>
  </g>
</svg>
