<?xml version="1.0" encoding="UTF-8" standalone="no"?>
<svg
   width="64"
   height="64"
   version="1"
   id="svg10"
   sodipodi:docname="org.coolercontrol.CoolerControl.svg"
   inkscape:version="1.4.2 (ebf0e940d0, 2025-05-08)"
   xmlns:inkscape="http://www.inkscape.org/namespaces/inkscape"
   xmlns:sodipodi="http://sodipodi.sourceforge.net/DTD/sodipodi-0.dtd"
   xmlns:xlink="http://www.w3.org/1999/xlink"
   xmlns="http://www.w3.org/2000/svg"
   xmlns:svg="http://www.w3.org/2000/svg">
  <defs
     id="defs10">
    <radialGradient
       id="radialGradient4"
       cx="-159.43106"
       cy="15.462561"
       r="64.706802"
       gradientTransform="matrix(-0.89413329,0,0,0.96304834,-135.76624,49.941471)"
       gradientUnits="userSpaceOnUse"
       fx="-159.43106"
       fy="15.462561">
      <stop
         offset="0"
         style="stop-color:#84abff;stop-opacity:1;"
         id="stop2" />
      <stop
         offset="0.51140684"
         style="stop-color:#d2a6ff;stop-opacity:1;"
         id="stop3" />
      <stop
         offset="1"
         style="stop-color:#f2baf3;stop-opacity:1;"
         id="stop4" />
    </radialGradient>
    <linearGradient
       inkscape:collect="always"
       xlink:href="#SVGID_1_-3-2-4-6"
       id="linearGradient1"
       x1="-61.754906"
       y1="33.750607"
       x2="-5.2760978"
       y2="33.750607"
       gradientUnits="userSpaceOnUse"
       gradientTransform="translate(65.912907,0.3969114)" />
    <radialGradient
       id="SVGID_1_-3-2-4-6"
       cx="-159.43106"
       cy="15.462561"
       r="64.706802"
       gradientTransform="matrix(-0.89413329,0,0,0.96304834,-135.76624,49.941471)"
       gradientUnits="userSpaceOnUse"
       fx="-159.43106"
       fy="15.462561">
      <stop
         offset="0"
         style="stop-color:#4580ff;stop-opacity:1;"
         id="stop1-6-9-3-9" />
      <stop
         offset="0.5"
         style="stop-color:#a757ff;stop-opacity:1;"
         id="stop10" />
      <stop
         offset="1"
         style="stop-color:#e859e9;stop-opacity:1;"
         id="stop2-7-1-0-2" />
    </radialGradient>
    <filter
       inkscape:collect="always"
       style="color-interpolation-filters:sRGB"
       id="filter2"
       x="-0.068674153"
       y="-0.068674159"
       width="1.1373483"
       height="1.1373483">
      <feGaussianBlur
         inkscape:collect="always"
         stdDeviation="0.93121723"
         id="feGaussianBlur2" />
    </filter>
    <filter
       inkscape:collect="always"
       style="color-interpolation-filters:sRGB"
       id="filter1-6"
       x="-0.12143912"
       y="-0.1103992"
       width="1.2428782"
       height="1.2207984">
      <feGaussianBlur
         inkscape:collect="always"
         stdDeviation="0.94949263"
         id="feGaussianBlur1-0" />
    </filter>
    <radialGradient
       id="SVGID_2_-3-3-2"
       cx="21.0371"
       cy="56.209099"
       r="40.250599"
       gradientTransform="matrix(1,0,0,-1,0,66)"
       gradientUnits="userSpaceOnUse">
      <stop
         offset="0"
         style="stop-color:#9b9999;stop-opacity:1;"
         id="stop5-5-6-4" />
      <stop
         offset="1"
         style="stop-color:#807878;stop-opacity:1;"
         id="stop6-6-7-7" />
    </radialGradient>
    <filter
       inkscape:collect="always"
       style="color-interpolation-filters:sRGB"
       id="filter2-4"
       x="-0.10149862"
       y="-0.14499802"
       width="1.2029972"
       height="1.289996">
      <feGaussianBlur
         inkscape:collect="always"
         stdDeviation="1.6291436"
         id="feGaussianBlur2-8" />
    </filter>
    <filter
       inkscape:collect="always"
       style="color-interpolation-filters:sRGB"
       id="filter4-3"
       x="-0.07080298"
       y="-0.070802978"
       width="1.141606"
       height="1.141606">
      <feGaussianBlur
         inkscape:collect="always"
         stdDeviation="1.5895694"
         id="feGaussianBlur4-3" />
    </filter>
    <radialGradient
       inkscape:collect="always"
       xlink:href="#radialGradient75-5"
       id="radialGradient74"
       cx="-1.8319243"
       cy="63.984921"
       fx="-1.8319243"
       fy="63.984921"
       r="28"
       gradientUnits="userSpaceOnUse"
       gradientTransform="matrix(0,-2.2850347,2.2850347,0,-82.278461,60.044142)" />
    <radialGradient
       id="radialGradient75-5"
       cx="21.0371"
       cy="56.209099"
       r="40.250599"
       gradientTransform="matrix(1,0,0,-1,0,66)"
       gradientUnits="userSpaceOnUse">
      <stop
         offset="0"
         style="stop-color:#5d5d5d;stop-opacity:1;"
         id="stop74-9" />
      <stop
         offset="1"
         style="stop-color:#565656;stop-opacity:1;"
         id="stop75-4" />
    </radialGradient>
    <radialGradient
       id="radialGradient4-3"
       cx="-159.43106"
       cy="15.462561"
       r="64.706802"
       gradientTransform="matrix(-0.89413329,0,0,0.96304834,-135.76624,49.941471)"
       gradientUnits="userSpaceOnUse"
       fx="-159.43106"
       fy="15.462561">
      <stop
         offset="0"
         style="stop-color:#84abff;stop-opacity:1;"
         id="stop2-1" />
      <stop
         offset="0.51140684"
         style="stop-color:#d2a6ff;stop-opacity:1;"
         id="stop3-1" />
      <stop
         offset="1"
         style="stop-color:#f2baf3;stop-opacity:1;"
         id="stop4-0" />
    </radialGradient>
    <linearGradient
       inkscape:collect="always"
       xlink:href="#radialGradient4-3"
       id="linearGradient6"
       x1="48.351048"
       y1="3.0881875"
       x2="48.351048"
       y2="58.686157"
       gradientUnits="userSpaceOnUse"
       gradientTransform="rotate(-90,31.87451,30.985149)" />
  </defs>
  <sodipodi:namedview
     id="namedview10"
     pagecolor="#ffffff"
     bordercolor="#000000"
     borderopacity="0.25"
     inkscape:showpageshadow="2"
     inkscape:pageopacity="0.0"
     inkscape:pagecheckerboard="0"
     inkscape:deskcolor="#d1d1d1"
     inkscape:zoom="13.921371"
     inkscape:cx="23.129906"
     inkscape:cy="33.042723"
     inkscape:current-layer="svg10" />
  <path
     class="st1"
     d="m 20.738818,4.016736 h 22.399996 c 9.3,0 16.8,7.499999 16.8,16.799999 v 22.4 c 0,9.3 -7.5,16.8 -16.8,16.8 H 20.738818 c -9.3,0 -16.7999994,-7.5 -16.7999994,-16.8 v -22.4 c 0,-9.3 7.4999994,-16.799999 16.7999994,-16.799999 z"
     id="path2-8"
     style="fill:url(#radialGradient74)" />
  <path
     class="st1"
     d="m 20.764967,3.9649668 h 22.399997 c 9.3,0 16.8,7.4999992 16.8,16.7999992 v 22.4 c 0,9.3 -7.5,16.8 -16.8,16.8 H 20.764967 c -9.3,0 -16.8000004,-7.5 -16.8000004,-16.8 v -22.4 c 0,-9.3 7.5000004,-16.7999992 16.8000004,-16.7999992 z"
     id="path2-2-8"
     style="opacity:0.673189;fill:none;stroke:#000000;stroke-width:0.3;stroke-dasharray:none;stroke-opacity:1;filter:url(#filter4-3)" />
  <path
     class="st2"
     d="m 18.090497,15.168411 c -1.7,0 -3,1.4 -3,3 v 28.000003 c 0,1.7 1.3,3 3,3 1.7,0 3,-1.3 3,-3 V 18.168411 c 0,-1.6 -1.3,-3 -3,-3 z m 25,17.000003 v 14 c 0,1.7 1.3,3 3,3 1.7,0 3,-1.3 3,-3 v -14 z m -14,5 v 9 c 0,1.7 1.3,3 3,3 1.7,0 3,-1.3 3,-3 v -9 z"
     id="path3-97"
     style="fill:url(#linearGradient1)" />
  <path
     class="st2"
     d="m 47.691248,17.201136 c 0,-1.7 -1.4,-3 -3,-3 H 16.691245 c -1.7,0 -3,1.3 -3,3 0,1.7 1.3,3 3,3 h 28.000003 c 1.6,0 3,-1.3 3,-3 z m -17.000003,25 h -14 c -1.7,0 -3,1.3 -3,3 0,1.7 1.3,3 3,3 h 14 z m -5,-14 h -9 c -1.7,0 -3,1.3 -3,3 0,1.7 1.3,3 3,3 h 9 z"
     id="path3-97-4"
     style="fill:none;stroke:#0037ff;stroke-width:0.2;stroke-dasharray:none;stroke-opacity:1;filter:url(#filter2)"
     transform="rotate(-90,31.87451,30.985149)" />
  <path
     class="st0"
     d="m 32.090497,15.168411 c -1.7,0 -3,1.4 -3,3 v 19.000003 h 6 V 18.168411 c 0,-1.7 -1.4,-3 -3,-3 z m 14,0 c -1.7,0 -3,1.4 -3,3 v 14.000003 h 6 V 18.168411 c 0,-1.7 -1.4,-3 -3,-3 z"
     id="path4-7"
     style="opacity:0.2;enable-background:new" />
  <path
     class="st0"
     d="m 32.116645,15.116645 c -1.7,0 -3,1.4 -3,3 v 19 h 6 v -19 c 0,-1.7 -1.4,-3 -3,-3 z m 14,0 c -1.7,0 -3,1.4 -3,3 v 14 h 6 v -14 c 0,-1.7 -1.4,-3 -3,-3 z"
     id="path4-1"
     style="opacity:0.306104;fill:none;stroke:#000000;stroke-width:0.3;stroke-dasharray:none;stroke-opacity:1;filter:url(#filter1-6);enable-background:new" />
  <path
     class="st4"
     d="m 17.848362,14.508611 c -3.3,0 -6,2.7 -6,6 0,3.3 2.7,6 6,6 3.3,0 6,-2.7 6,-6 0,-3.3 -2.7,-6 -6,-6 z m 28,11 c -3.3,0 -6,2.7 -6,6 0,3.299996 2.7,5.999996 6,5.999996 3.3,0 6,-2.7 6,-5.999996 0,-3.3 -2.7,-6 -6,-6 z m -14,5 c -3.3,0 -6,2.699996 -6,5.999996 0,3.3 2.7,6 6,6 3.3,0 6,-2.7 6,-6 0,-3.3 -2.7,-5.999996 -6,-5.999996 z"
     id="path6-2-6"
     style="fill:url(#linearGradient6)" />
  <path
     class="st4"
     d="m 17.87451,14.456838 c -3.3,0 -6,2.7 -6,6 0,3.3 2.7,6 6,6 3.3,0 6,-2.7 6,-6 0,-3.3 -2.7,-6 -6,-6 z m 28,11 c -3.3,0 -6,2.7 -6,6 0,3.3 2.7,6 6,6 3.3,0 6,-2.7 6,-6 0,-3.3 -2.7,-6 -6,-6 z m -14,5 c -3.3,0 -6,2.7 -6,6 0,3.3 2.7,6 6,6 3.3,0 6,-2.7 6,-6 0,-3.3 -2.7,-6 -6,-6 z"
     id="path6-2-2"
     style="fill:none;stroke:#000000;stroke-width:0.3;stroke-dasharray:none;stroke-opacity:1;filter:url(#filter2-4)" />
</svg>
