<?xml version="1.0" encoding="UTF-8" standalone="no"?>
<svg
   width="64"
   height="64"
   version="1"
   id="svg6"
   sodipodi:docname="okular.svg"
   inkscape:version="1.4.2 (ebf0e940d0, 2025-05-08)"
   xmlns:inkscape="http://www.inkscape.org/namespaces/inkscape"
   xmlns:sodipodi="http://sodipodi.sourceforge.net/DTD/sodipodi-0.dtd"
   xmlns:xlink="http://www.w3.org/1999/xlink"
   xmlns="http://www.w3.org/2000/svg"
   xmlns:svg="http://www.w3.org/2000/svg">
  <defs
     id="defs6">
    <radialGradient
       inkscape:collect="always"
       xlink:href="#linearGradient6-3"
       id="radialGradient12"
       cx="8.9159527"
       cy="52.562355"
       fx="8.9159527"
       fy="52.562355"
       r="21.984943"
       gradientTransform="matrix(2.4108181,-2.4108181,3.075631,3.075631,-180.22015,-81.761033)"
       gradientUnits="userSpaceOnUse" />
    <linearGradient
       id="linearGradient6-3"
       inkscape:collect="always">
      <stop
         style="stop-color:#3bbdff;stop-opacity:1;"
         offset="0.00165814"
         id="stop6" />
      <stop
         style="stop-color:#19beff;stop-opacity:1;"
         offset="0.99860948"
         id="stop8-6" />
    </linearGradient>
    <filter
       inkscape:collect="always"
       style="color-interpolation-filters:sRGB"
       id="filter5"
       x="-0.049361263"
       y="-0.037020948"
       width="1.0987225"
       height="1.0740419">
      <feGaussianBlur
         inkscape:collect="always"
         stdDeviation="0.69875228"
         id="feGaussianBlur5" />
    </filter>
    <filter
       inkscape:collect="always"
       style="color-interpolation-filters:sRGB"
       id="filter1"
       x="-0.086579163"
       y="-0.067864647"
       width="1.1731583"
       height="1.1357293">
      <feGaussianBlur
         inkscape:collect="always"
         stdDeviation="1.5236983"
         id="feGaussianBlur1" />
    </filter>
  </defs>
  <sodipodi:namedview
     id="namedview6"
     pagecolor="#ffffff"
     bordercolor="#000000"
     borderopacity="0.25"
     inkscape:showpageshadow="2"
     inkscape:pageopacity="0.0"
     inkscape:pagecheckerboard="0"
     inkscape:deskcolor="#d1d1d1"
     inkscape:zoom="6.7385358"
     inkscape:cx="66.631686"
     inkscape:cy="21.072827"
     inkscape:window-width="2686"
     inkscape:window-height="1380"
     inkscape:window-x="0"
     inkscape:window-y="0"
     inkscape:window-maximized="0"
     inkscape:current-layer="svg6" />
  <g
     id="g5">
    <rect
       style="fill:url(#radialGradient12);fill-opacity:1;stroke:none;stroke-width:8.3;stroke-linejoin:bevel;stroke-opacity:1;paint-order:stroke fill markers"
       id="rect10"
       width="43.969887"
       height="56.095127"
       x="10.015057"
       y="3.9524364"
       rx="6.4782028"
       ry="6.4782028" />
    <path
       id="path4-2"
       style="fill:#f5f5f5"
       d="M 17.800781,8 C 15.701595,7.9998255 13.999825,9.7015956 14,11.800781 V 52.199219 C 13.999826,54.298405 15.701595,56.000175 17.800781,56 H 46.199219 C 48.298405,56.000175 50.000175,54.298405 50,52.199219 V 11.236328 C 49.9994,9.4484394 48.549608,7.9995213 46.761719,8 Z m 0.953125,2.701172 h 8.550782 c 1.184327,0 2.136718,0.954345 2.136718,2.138672 v 8.548828 c 0,1.184326 -0.952391,2.138672 -2.136718,2.138672 h -8.550782 c -1.184326,0 -2.138672,-0.954346 -2.138672,-2.138672 v -8.548828 c 0,-1.184327 0.954346,-2.138672 2.138672,-2.138672 z m 15.628906,0 h 11.863282 a 1.1323632,1.1323632 0 0 1 1.167968,1.09375 1.1686281,1.1686281 0 0 1 -1.167968,1.169922 H 34.382812 a 1.1323632,1.1323632 0 0 1 -1.167968,-1.095703 1.1686281,1.1686281 0 0 1 1.167968,-1.167969 z m 0,5.28125 h 11.863282 a 1.1323632,1.1323632 0 0 1 1.167968,1.095703 1.1686281,1.1686281 0 0 1 -1.167968,1.167969 H 34.382812 a 1.1323632,1.1323632 0 0 1 -1.167968,-1.095703 1.1686281,1.1686281 0 0 1 1.167968,-1.167969 z m 0,5.28125 h 11.863282 a 1.1323632,1.1323632 0 0 1 1.167968,1.095703 1.1686281,1.1686281 0 0 1 -1.167968,1.167969 H 34.382812 a 1.1323632,1.1323632 0 0 1 -1.167968,-1.09375 1.1686281,1.1686281 0 0 1 1.167968,-1.169922 z m -16.597656,5.28125 h 28.460938 a 1.1323632,1.1323632 0 0 1 1.167968,1.095703 1.1686281,1.1686281 0 0 1 -1.167968,1.167969 H 17.785156 a 1.1323632,1.1323632 0 0 1 -1.169922,-1.09375 1.1686281,1.1686281 0 0 1 1.169922,-1.169922 z m 0,5.283203 h 28.460938 a 1.1323632,1.1323632 0 0 1 1.167968,1.09375 1.1686281,1.1686281 0 0 1 -1.167968,1.167969 H 17.785156 a 1.1323632,1.1323632 0 0 1 -1.169922,-1.09375 1.1686281,1.1686281 0 0 1 1.169922,-1.167969 z m 0,5.28125 h 28.460938 a 1.1323632,1.1323632 0 0 1 1.167968,1.09375 1.1686281,1.1686281 0 0 1 -1.167968,1.169922 H 17.785156 a 1.1323632,1.1323632 0 0 1 -1.169922,-1.095703 1.1686281,1.1686281 0 0 1 1.169922,-1.167969 z m 0,5.28125 h 28.460938 a 1.1323632,1.1323632 0 0 1 1.167968,1.09375 1.1686281,1.1686281 0 0 1 -1.167968,1.169922 H 17.785156 a 1.1323632,1.1323632 0 0 1 -1.169922,-1.095703 1.1686281,1.1686281 0 0 1 1.169922,-1.167969 z" />
    <path
       id="path4-2-5"
       style="fill:none;fill-opacity:1;stroke:#0046ff;stroke-width:0.2;stroke-dasharray:none;stroke-opacity:1;filter:url(#filter5)"
       d="M 17.800781,8.0000002 C 15.701595,7.9998257 13.999825,9.7015958 14,11.800781 V 52.199219 C 13.999826,54.298405 15.701595,56.000175 17.800781,56 H 46.199219 C 48.298405,56.000175 50.000175,54.298405 50,52.199219 V 11.236328 C 49.9994,9.4484396 48.549608,7.9995215 46.761719,8.0000002 Z m 0.953125,2.7011718 h 8.550782 c 1.184327,0 2.136718,0.954345 2.136718,2.138672 v 8.548828 c 0,1.184326 -0.952391,2.138672 -2.136718,2.138672 h -8.550782 c -1.184326,0 -2.138672,-0.954346 -2.138672,-2.138672 v -8.548828 c 0,-1.184327 0.954346,-2.138672 2.138672,-2.138672 z m 15.628906,0 h 11.863282 a 1.1323632,1.1323632 0 0 1 1.167968,1.09375 1.1686281,1.1686281 0 0 1 -1.167968,1.169922 H 34.382812 a 1.1323632,1.1323632 0 0 1 -1.167968,-1.095703 1.1686281,1.1686281 0 0 1 1.167968,-1.167969 z m 0,5.28125 h 11.863282 a 1.1323632,1.1323632 0 0 1 1.167968,1.095703 1.1686281,1.1686281 0 0 1 -1.167968,1.167969 H 34.382812 a 1.1323632,1.1323632 0 0 1 -1.167968,-1.095703 1.1686281,1.1686281 0 0 1 1.167968,-1.167969 z m 0,5.28125 h 11.863282 a 1.1323632,1.1323632 0 0 1 1.167968,1.095703 1.1686281,1.1686281 0 0 1 -1.167968,1.167969 H 34.382812 a 1.1323632,1.1323632 0 0 1 -1.167968,-1.09375 1.1686281,1.1686281 0 0 1 1.167968,-1.169922 z m -16.597656,5.28125 h 28.460938 a 1.1323632,1.1323632 0 0 1 1.167968,1.095703 1.1686281,1.1686281 0 0 1 -1.167968,1.167969 H 17.785156 a 1.1323632,1.1323632 0 0 1 -1.169922,-1.09375 1.1686281,1.1686281 0 0 1 1.169922,-1.169922 z m 0,5.283203 h 28.460938 a 1.1323632,1.1323632 0 0 1 1.167968,1.09375 1.1686281,1.1686281 0 0 1 -1.167968,1.167969 H 17.785156 a 1.1323632,1.1323632 0 0 1 -1.169922,-1.09375 1.1686281,1.1686281 0 0 1 1.169922,-1.167969 z m 0,5.28125 h 28.460938 a 1.1323632,1.1323632 0 0 1 1.167968,1.09375 1.1686281,1.1686281 0 0 1 -1.167968,1.169922 H 17.785156 a 1.1323632,1.1323632 0 0 1 -1.169922,-1.095703 1.1686281,1.1686281 0 0 1 1.169922,-1.167969 z m 0,5.28125 h 28.460938 a 1.1323632,1.1323632 0 0 1 1.167968,1.09375 1.1686281,1.1686281 0 0 1 -1.167968,1.169922 H 17.785156 a 1.1323632,1.1323632 0 0 1 -1.169922,-1.095703 1.1686281,1.1686281 0 0 1 1.169922,-1.167969 z" />
    <rect
       style="fill:none;fill-opacity:1;stroke:#000000;stroke-width:0.3;stroke-linejoin:bevel;stroke-dasharray:none;stroke-opacity:1;paint-order:stroke fill markers;filter:url(#filter1)"
       id="rect10-5"
       width="43.969887"
       height="56.095127"
       x="10.015058"
       y="3.952436"
       rx="6.4782028"
       ry="6.4782028" />
  </g>
  <path
     style="fill:#0073bd;fill-opacity:1;stroke-width:0.296722"
     d="m 24.288365,10.754615 c -1.105492,0.0087 -1.276495,-0.0095 -2.497511,0 -1.018805,0.959853 -1.882153,2.23517 -2.588508,3.684717 -1.090679,2.238237 -1.350006,4.12876 -0.769063,5.678708 0.580936,1.54995 1.914036,2.521704 3.993647,2.918643 2.185899,0.417223 4.212304,0.09915 6.080528,-0.962768 0.285779,-0.162443 0.628415,-0.342843 0.896642,-0.53413 -0.0062,-0.775294 0.0091,-1.330106 0,-2.479147 -0.675391,0.928215 -1.489556,1.68069 -2.281919,2.253781 -1.40183,1.013887 -2.850387,1.375775 -4.351943,1.08917 -1.428489,-0.272656 -2.267063,-1.079391 -2.513511,-2.421589 -0.236757,-1.347198 0.149822,-3.055576 1.16107,-5.130804 0.829222,-1.701695 1.784727,-3.103394 2.87057,-4.096581 z"
     id="path5" />
</svg>
