<?xml version="1.0" encoding="UTF-8" standalone="no"?>
<svg
   width="64"
   height="64"
   version="1.1"
   id="svg8"
   sodipodi:docname="org.gnome.Showtime.svg"
   inkscape:version="1.4.2 (ebf0e940d0, 2025-05-08)"
   xmlns:inkscape="http://www.inkscape.org/namespaces/inkscape"
   xmlns:sodipodi="http://sodipodi.sourceforge.net/DTD/sodipodi-0.dtd"
   xmlns:xlink="http://www.w3.org/1999/xlink"
   xmlns="http://www.w3.org/2000/svg"
   xmlns:svg="http://www.w3.org/2000/svg">
  <defs
     id="defs8">
    <linearGradient
       id="linearGradient1"
       inkscape:collect="always">
      <stop
         style="stop-color:#00ff63;stop-opacity:1;"
         offset="0"
         id="stop1" />
      <stop
         style="stop-color:#00ff46;stop-opacity:0;"
         offset="1"
         id="stop2" />
    </linearGradient>
    <filter
       inkscape:collect="always"
       style="color-interpolation-filters:sRGB"
       id="filter7"
       x="-0.16383529"
       y="-0.15591676"
       width="1.3276706"
       height="1.3118373">
      <feGaussianBlur
         inkscape:collect="always"
         stdDeviation="3.1195823"
         id="feGaussianBlur7" />
    </filter>
    <radialGradient
       inkscape:collect="always"
       xlink:href="#linearGradient12"
       id="radialGradient9-6"
       cx="34.448208"
       cy="13.722373"
       fx="34.448208"
       fy="13.722373"
       r="14.663306"
       gradientTransform="matrix(-1.8550731,3.2130809,-3.480713,-2.0095906,158.99164,-69.546959)"
       gradientUnits="userSpaceOnUse" />
    <linearGradient
       id="linearGradient12"
       inkscape:collect="always">
      <stop
         style="stop-color:#000000;stop-opacity:1;"
         offset="0"
         id="stop11" />
      <stop
         style="stop-color:#00d2ff;stop-opacity:1;"
         offset="1"
         id="stop12" />
    </linearGradient>
    <filter
       inkscape:collect="always"
       style="color-interpolation-filters:sRGB"
       id="filter12"
       x="-0.10758114"
       y="-0.099309209"
       width="1.2151623"
       height="1.1986184">
      <feGaussianBlur
         inkscape:collect="always"
         stdDeviation="1.3145793"
         id="feGaussianBlur12" />
    </filter>
    <radialGradient
       inkscape:collect="always"
       xlink:href="#linearGradient6"
       id="radialGradient7"
       cx="30.19474"
       cy="38.907097"
       fx="30.19474"
       fy="38.907097"
       r="18.94824"
       gradientTransform="matrix(-0.90663483,-3.3836074,3.5555803,-0.95271484,-54.884613,176.00447)"
       gradientUnits="userSpaceOnUse" />
    <linearGradient
       id="linearGradient6"
       inkscape:collect="always">
      <stop
         style="stop-color:#feb34f;stop-opacity:1;"
         offset="0"
         id="stop6" />
      <stop
         style="stop-color:#fe8668;stop-opacity:1;"
         offset="0.242"
         id="stop13" />
      <stop
         style="stop-color:#cd5dd9;stop-opacity:1;"
         offset="0.505"
         id="stop8" />
      <stop
         style="stop-color:#4263e7;stop-opacity:1;"
         offset="0.76800001"
         id="stop9" />
    </linearGradient>
    <radialGradient
       inkscape:collect="always"
       xlink:href="#linearGradient1"
       id="radialGradient2"
       cx="15.417697"
       cy="60.022396"
       fx="15.417697"
       fy="60.022396"
       r="23.154038"
       gradientTransform="matrix(1.6353872,0,0,1.718499,-6.360599,-40.394551)"
       gradientUnits="userSpaceOnUse" />
  </defs>
  <sodipodi:namedview
     id="namedview8"
     pagecolor="#ffffff"
     bordercolor="#000000"
     borderopacity="0.25"
     inkscape:showpageshadow="2"
     inkscape:pageopacity="0.0"
     inkscape:pagecheckerboard="0"
     inkscape:deskcolor="#d1d1d1"
     inkscape:zoom="12.778877"
     inkscape:cx="17.76369"
     inkscape:cy="39.753103"
     inkscape:current-layer="svg8" />
  <path
     style="fill:url(#radialGradient7);stroke-width:1.22196"
     d="M 20.254139,7.6717738 C 14.276143,7.5456728 8.845394,12.449156 8.846031,18.736206 v 26.620508 0.0048 c 0.0067,8.351554 9.592981,13.550626 16.627675,9.64916 l 11.98806,-6.653935 11.99045,-6.661094 0.005,-0.0024 c 3.5129,-1.955239 5.69689,-5.871492 5.69689,-9.649159 0,-3.777667 -2.18399,-7.693919 -5.69689,-9.649158 l -0.005,-0.0024 -11.99045,-6.658829 -11.97374,-6.6467737 -0.01198,-0.00477 C 23.873942,8.1922135 22.097894,7.7159169 20.287509,7.6716614 Z"
     id="path5-36"
     sodipodi:nodetypes="cccsccccsccccccc" />
  <path
     style="fill:url(#radialGradient2);stroke-width:1.22196"
     d="M 20.254071,7.6716323 C 14.276075,7.5455313 8.8453255,12.449015 8.8459625,18.736065 v 26.620508 0.0048 c 0.0067,8.351554 9.5929815,13.550626 16.6276755,9.64916 l 11.98806,-6.653935 11.99045,-6.661094 0.005,-0.0024 c 3.5129,-1.955239 5.69689,-5.871492 5.69689,-9.649159 0,-3.777667 -2.18399,-7.693919 -5.69689,-9.649158 l -0.005,-0.0024 -11.99045,-6.658829 -11.97374,-6.6467737 -0.01198,-0.0048 c -1.602104,-0.889942 -3.378152,-1.366239 -5.188537,-1.410494 z"
     id="path5-36-6"
     sodipodi:nodetypes="cccsccccsccccccc" />
  <path
     style="opacity:0.277856;fill:url(#radialGradient9-6);stroke-width:1.22196;filter:url(#filter12)"
     d="m 20.078676,16.116168 a 2.67849,2.5756028 0 0 0 -2.742031,2.575113 v 26.618718 a 2.67849,2.5756028 0 0 0 4.017246,2.230012 l 11.985511,-6.653212 11.985509,-6.656635 a 2.67849,2.5756028 0 0 0 0,-4.460076 l -11.98722,-6.65468 -11.984778,-6.653212 a 2.67849,2.5756028 0 0 0 -1.275704,-0.345321 z"
     id="path3-1" />
  <path
     id="path5-3"
     style="fill:none;stroke:#000000;stroke-width:0.2;stroke-dasharray:none;stroke-opacity:1;filter:url(#filter7)"
     d="M 20.253857,7.6719991 C 14.275861,7.5458981 8.845018,12.449401 8.845654,18.736451 v 26.621095 0.0039 c 0.0067,8.351554 9.594212,13.549904 16.628906,9.648438 l 11.986329,-6.652344 11.992187,-6.66211 0.004,-0.002 c 3.5129,-1.955239 5.69727,-5.87077 5.69727,-9.648438 0,-3.777667 -2.18437,-7.695152 -5.69727,-9.650391 l -0.004,-0.002 -11.992187,-6.658203 -11.972657,-6.6484374 -0.01172,-0.00391 C 23.874399,8.1922125 22.097445,7.7162546 20.28706,7.6719991 Z m -0.175781,8.4433579 v 0.002 a 2.67849,2.5756028 0 0 1 1.275391,0.345703 L 33.337842,23.115403 45.32417,29.7697 a 2.67849,2.5756028 0 0 1 0,4.460938 L 33.339795,40.886889 21.353467,47.539232 A 2.67849,2.5756028 0 0 1 17.335889,45.310671 V 18.691529 a 2.67849,2.5756028 0 0 1 2.742187,-2.576172 z" />
  <path
     d="m 20.078125,16.115234 c -1.504333,-0.03441 -2.742946,1.129215 -2.742188,2.576172 v 26.619141 c 0.0017,1.981686 2.232763,3.219243 4.017579,2.228515 l 11.986328,-6.652343 11.984375,-6.65625 c 1.785496,-0.99138 1.785496,-3.469558 0,-4.460938 L 33.337891,23.115234 21.353516,16.462891 c -0.38831,-0.216132 -0.82686,-0.335004 -1.275391,-0.345704 z"
     style="opacity:0.349788;stroke-width:1.22196"
     id="path1"
     sodipodi:nodetypes="ccccccccccc" />
</svg>
