<?xml version="1.0" encoding="UTF-8" standalone="no"?>
<svg
   width="64"
   height="64"
   version="1"
   id="svg14"
   sodipodi:docname="pdfshuffler.svg"
   inkscape:version="1.4.3 (0d15f75042, 2025-12-25)"
   xmlns:inkscape="http://www.inkscape.org/namespaces/inkscape"
   xmlns:sodipodi="http://sodipodi.sourceforge.net/DTD/sodipodi-0.dtd"
   xmlns:xlink="http://www.w3.org/1999/xlink"
   xmlns="http://www.w3.org/2000/svg"
   xmlns:svg="http://www.w3.org/2000/svg">
  <defs
     id="defs14">
    <radialGradient
       inkscape:collect="always"
       xlink:href="#linearGradient6-3"
       id="radialGradient12"
       cx="8.9159527"
       cy="52.562355"
       fx="8.9159527"
       fy="52.562355"
       r="21.984943"
       gradientTransform="matrix(2.4108181,-2.4108181,3.075631,3.075631,-180.22015,-81.761033)"
       gradientUnits="userSpaceOnUse" />
    <linearGradient
       id="linearGradient6-3"
       inkscape:collect="always">
      <stop
         style="stop-color:#ff423b;stop-opacity:1;"
         offset="0.00165814"
         id="stop6" />
      <stop
         style="stop-color:#f16232;stop-opacity:1;"
         offset="0.99860948"
         id="stop8-6" />
    </linearGradient>
    <filter
       inkscape:collect="always"
       style="color-interpolation-filters:sRGB"
       id="filter1"
       x="-0.086579163"
       y="-0.067864647"
       width="1.1731583"
       height="1.1357293">
      <feGaussianBlur
         inkscape:collect="always"
         stdDeviation="1.5236983"
         id="feGaussianBlur1" />
    </filter>
    <filter
       inkscape:collect="always"
       style="color-interpolation-filters:sRGB"
       id="filter19"
       x="-0.052593123"
       y="-0.039444842"
       width="1.1051862"
       height="1.0788897">
      <feGaussianBlur
         inkscape:collect="always"
         stdDeviation="0.74723017"
         id="feGaussianBlur19" />
    </filter>
  </defs>
  <sodipodi:namedview
     id="namedview14"
     pagecolor="#ffffff"
     bordercolor="#000000"
     borderopacity="0.25"
     inkscape:showpageshadow="2"
     inkscape:pageopacity="0.0"
     inkscape:pagecheckerboard="0"
     inkscape:deskcolor="#d1d1d1"
     inkscape:zoom="19.4375"
     inkscape:cx="32"
     inkscape:cy="34.212219"
     inkscape:current-layer="svg14" />
  <rect
     style="fill:url(#radialGradient12);fill-opacity:1;stroke:none;stroke-width:8.3;stroke-linejoin:bevel;stroke-opacity:1;paint-order:stroke fill markers"
     id="rect10"
     width="43.969887"
     height="56.095127"
     x="10.015057"
     y="3.9524364"
     rx="6.4782028"
     ry="6.4782028" />
  <path
     id="path4-2"
     style="fill:#f5f5f5"
     d="M 17.800781 8 C 15.701595 7.9998255 13.999825 9.701596 14 11.800781 L 14 52.199219 C 13.999826 54.298405 15.701595 56.000175 17.800781 56 L 46.199219 56 C 48.298405 56.000175 50.000175 54.298405 50 52.199219 L 50 11.236328 C 49.9994 9.4484396 48.549608 7.9995213 46.761719 8 L 17.800781 8 z M 18.753906 10.701172 L 27.304688 10.701172 C 28.489013 10.701172 29.441406 11.655517 29.441406 12.839844 L 29.441406 21.388672 C 29.441406 22.572998 28.489014 23.527344 27.304688 23.527344 L 18.753906 23.527344 C 17.56958 23.527344 16.615234 22.572998 16.615234 21.388672 L 16.615234 12.839844 C 16.615234 11.655517 17.56958 10.701172 18.753906 10.701172 z M 34.382812 10.701172 L 46.246094 10.701172 C 46.870462 10.681182 47.39308 11.170587 47.414062 11.794922 C 47.414777 12.440585 46.891757 12.96448 46.246094 12.964844 L 34.382812 12.964844 C 33.757706 12.984824 33.234773 12.494249 33.214844 11.869141 C 33.215208 11.224241 33.737913 10.701536 34.382812 10.701172 z M 34.382812 15.982422 L 46.246094 15.982422 C 46.8712 15.962442 47.394134 16.453017 47.414062 17.078125 C 47.413699 17.723025 46.890994 18.24573 46.246094 18.246094 L 34.382812 18.246094 C 33.757706 18.266074 33.234773 17.775499 33.214844 17.150391 C 33.215208 16.505491 33.737913 15.982786 34.382812 15.982422 z M 34.382812 21.263672 L 46.246094 21.263672 C 46.8712 21.243692 47.394134 21.734267 47.414062 22.359375 C 47.413699 23.004275 46.890994 23.52698 46.246094 23.527344 L 34.382812 23.527344 C 33.758446 23.547334 33.235826 23.057929 33.214844 22.433594 C 33.214129 21.787931 33.73715 21.264036 34.382812 21.263672 z M 21.84375 26.863281 L 34.863281 26.863281 C 36.610701 26.863281 38.037109 28.287347 38.037109 30.035156 L 38.037109 30.507812 L 38.507812 30.507812 C 40.255233 30.507812 41.681641 31.933832 41.681641 33.681641 L 41.681641 34.085938 L 42.154297 34.085938 C 43.901718 34.085938 45.328125 35.510005 45.328125 37.257812 L 45.328125 50.277344 C 45.328125 52.025152 43.902105 53.449219 42.154297 53.449219 L 29.134766 53.449219 C 27.386958 53.449219 25.962891 52.024764 25.962891 50.277344 L 25.962891 49.873047 L 25.488281 49.873047 C 23.74086 49.873047 22.318359 48.448592 22.318359 46.701172 L 22.318359 46.226562 L 21.84375 46.226562 C 20.096331 46.226562 18.671875 44.804061 18.671875 43.056641 L 18.671875 30.035156 C 18.671875 28.287735 20.096331 26.863281 21.84375 26.863281 z M 21.84375 28 C 20.706189 28 19.808594 28.897595 19.808594 30.035156 L 19.808594 43.056641 C 19.808594 44.194203 20.706189 45.089844 21.84375 45.089844 L 22.318359 45.089844 L 22.318359 33.681641 C 22.318359 31.93422 23.74086 30.507812 25.488281 30.507812 L 36.900391 30.507812 L 36.900391 30.035156 C 36.900391 28.897983 36.000842 28 34.863281 28 L 21.84375 28 z M 29.134766 35.222656 C 28.068302 35.222656 27.21399 36.012847 27.111328 37.048828 C 27.104478 37.117893 27.099609 37.186712 27.099609 37.257812 L 27.099609 49.873047 L 27.099609 50.277344 C 27.099609 51.414905 27.997595 52.3125 29.134766 52.3125 L 42.154297 52.3125 C 43.29147 52.3125 44.191406 51.414517 44.191406 50.277344 L 44.191406 37.257812 C 44.191406 36.12064 43.29186 35.222656 42.154297 35.222656 L 41.681641 35.222656 L 29.134766 35.222656 z " />
  <path
     id="path4-2-5"
     style="fill:none;stroke:#ff0000;stroke-opacity:1;stroke-width:0.2;stroke-dasharray:none;filter:url(#filter19)"
     d="M 17.800781,8.0000001 C 15.701595,7.9998256 13.999825,9.7015961 14,11.800781 V 52.199219 C 13.999826,54.298405 15.701595,56.000175 17.800781,56 H 46.199219 C 48.298405,56.000175 50.000175,54.298405 50,52.199219 V 11.236328 C 49.9994,9.4484397 48.549608,7.9995214 46.761719,8.0000001 Z m 0.953125,2.7011719 h 8.550782 c 1.184325,0 2.136718,0.954345 2.136718,2.138672 v 8.548828 c 0,1.184326 -0.952392,2.138672 -2.136718,2.138672 h -8.550782 c -1.184326,0 -2.138672,-0.954346 -2.138672,-2.138672 v -8.548828 c 0,-1.184327 0.954346,-2.138672 2.138672,-2.138672 z m 15.628906,0 h 11.863282 c 0.624368,-0.01999 1.146986,0.469415 1.167968,1.09375 7.15e-4,0.645663 -0.522305,1.169558 -1.167968,1.169922 H 34.382812 c -0.625106,0.01998 -1.148039,-0.470595 -1.167968,-1.095703 3.64e-4,-0.6449 0.523069,-1.167605 1.167968,-1.167969 z m 0,5.28125 h 11.863282 c 0.625106,-0.01998 1.14804,0.470595 1.167968,1.095703 -3.63e-4,0.6449 -0.523068,1.167605 -1.167968,1.167969 H 34.382812 c -0.625106,0.01998 -1.148039,-0.470595 -1.167968,-1.095703 3.64e-4,-0.6449 0.523069,-1.167605 1.167968,-1.167969 z m 0,5.28125 h 11.863282 c 0.625106,-0.01998 1.14804,0.470595 1.167968,1.095703 -3.63e-4,0.6449 -0.523068,1.167605 -1.167968,1.167969 H 34.382812 c -0.624366,0.01999 -1.146986,-0.469415 -1.167968,-1.09375 -7.15e-4,-0.645663 0.522306,-1.169558 1.167968,-1.169922 z M 21.84375,26.863281 h 13.019531 c 1.74742,0 3.173828,1.424066 3.173828,3.171875 v 0.472656 h 0.470703 c 1.747421,0 3.173829,1.42602 3.173829,3.173829 v 0.404297 h 0.472656 c 1.747421,0 3.173828,1.424067 3.173828,3.171874 v 13.019532 c 0,1.747808 -1.42602,3.171875 -3.173828,3.171875 H 29.134766 c -1.747808,0 -3.171875,-1.424455 -3.171875,-3.171875 v -0.404297 h -0.47461 c -1.747421,0 -3.169922,-1.424455 -3.169922,-3.171875 v -0.47461 H 21.84375 c -1.747419,0 -3.171875,-1.422501 -3.171875,-3.169921 V 30.035156 c 0,-1.747421 1.424456,-3.171875 3.171875,-3.171875 z m 0,1.136719 c -1.137561,0 -2.035156,0.897595 -2.035156,2.035156 v 13.021485 c 0,1.137562 0.897595,2.033203 2.035156,2.033203 h 0.474609 V 33.681641 c 0,-1.747421 1.422501,-3.173829 3.169922,-3.173829 h 11.41211 V 30.035156 C 36.900391,28.897983 36.000842,28 34.863281,28 Z m 7.291016,7.222656 c -1.066464,0 -1.920776,0.790191 -2.023438,1.826172 -0.0069,0.06907 -0.01172,0.137884 -0.01172,0.208984 v 12.615235 0.404297 c 0,1.137561 0.897986,2.035156 2.035157,2.035156 h 13.019531 c 1.137173,0 2.037109,-0.897983 2.037109,-2.035156 V 37.257812 c 0,-1.137172 -0.899546,-2.035156 -2.037109,-2.035156 H 41.68164 Z" />
  <rect
     style="fill:none;fill-opacity:1;stroke:#000000;stroke-width:0.3;stroke-linejoin:bevel;stroke-dasharray:none;stroke-opacity:1;paint-order:stroke fill markers;filter:url(#filter1)"
     id="rect10-5"
     width="43.969887"
     height="56.095127"
     x="10.015058"
     y="3.952436"
     rx="6.4782028"
     ry="6.4782028" />
</svg>
