<?xml version="1.0" encoding="UTF-8" standalone="no"?>
<svg
   width="64"
   height="64"
   version="1.1"
   id="svg9"
   sodipodi:docname="org.pegasus_frontend.Pegasus.svg"
   inkscape:version="1.4.3 (0d15f75042, 2025-12-25)"
   xmlns:inkscape="http://www.inkscape.org/namespaces/inkscape"
   xmlns:sodipodi="http://sodipodi.sourceforge.net/DTD/sodipodi-0.dtd"
   xmlns:xlink="http://www.w3.org/1999/xlink"
   xmlns="http://www.w3.org/2000/svg"
   xmlns:svg="http://www.w3.org/2000/svg">
  <defs
     id="defs9">
    <inkscape:path-effect
       effect="fillet_chamfer"
       id="path-effect10"
       is_visible="true"
       lpeversion="1"
       nodesatellites_param="F,0,0,1,0,0,0,1 @ F,0,0,1,0,1.687712,0,1 @ F,0,0,1,0,0,0,1 @ F,0,1,1,0,1.687712,0,1 @ F,0,0,1,0,2.150803,0,1 @ F,0,0,1,0,0,0,1 @ F,0,0,1,0,1.0008724,0,1 @ F,0,0,1,0,0,0,1 @ F,0,0,1,0,1.0008724,0,1 @ F,0,0,1,0,1.5149616,0,1 | F,0,0,1,0,0,0,1 @ F,0,0,1,0,2.150803,0,1 @ F,0,0,1,0,0,0,1 @ F,0,0,1,0,2.150803,0,1 @ F,0,0,1,0,0,0,1 @ F,0,0,1,0,1.0575863,0,1 @ F,0,0,1,0,1.9536076,0,1 @ F,0,0,1,0,1.9536076,0,1 @ F,0,0,1,0,1.0575863,0,1 | F,0,0,1,0,0,0,1 @ F,0,0,1,0,2.150803,0,1 @ F,0,0,1,0,0,0,1 @ F,0,0,1,0,2.150803,0,1"
       radius="0"
       unit="px"
       method="auto"
       mode="F"
       chamfer_steps="1"
       flexible="false"
       use_knot_distance="true"
       apply_no_radius="true"
       apply_with_radius="true"
       only_selected="false"
       hide_knots="false" />
    <linearGradient
       id="linearGradient9"
       inkscape:collect="always">
      <stop
         style="stop-color:#131313;stop-opacity:1;"
         offset="0"
         id="stop9" />
      <stop
         style="stop-color:#414141;stop-opacity:1;"
         offset="1"
         id="stop10" />
    </linearGradient>
    <radialGradient
       inkscape:collect="always"
       xlink:href="#linearGradient9"
       id="radialGradient10"
       cx="63.958939"
       cy="67.794014"
       fx="63.958939"
       fy="67.794014"
       r="28"
       gradientTransform="matrix(0,-2.2867313,2.2769728,0,-90.406186,210.21585)"
       gradientUnits="userSpaceOnUse" />
    <inkscape:path-effect
       effect="fillet_chamfer"
       id="path-effect10-3"
       is_visible="true"
       lpeversion="1"
       nodesatellites_param="F,0,0,1,0,0,0,1 @ F,0,0,1,0,1.687712,0,1 @ F,0,0,1,0,0,0,1 @ F,0,1,1,0,1.687712,0,1 @ F,0,0,1,0,2.150803,0,1 @ F,0,0,1,0,0,0,1 @ F,0,0,1,0,1.0008724,0,1 @ F,0,0,1,0,0,0,1 @ F,0,0,1,0,1.0008724,0,1 @ F,0,0,1,0,1.5149616,0,1 | F,0,0,1,0,0,0,1 @ F,0,0,1,0,2.150803,0,1 @ F,0,0,1,0,0,0,1 @ F,0,0,1,0,2.150803,0,1 @ F,0,0,1,0,0,0,1 @ F,0,0,1,0,1.0575863,0,1 @ F,0,0,1,0,1.9536076,0,1 @ F,0,0,1,0,1.9536076,0,1 @ F,0,0,1,0,1.0575863,0,1 | F,0,0,1,0,0,0,1 @ F,0,0,1,0,2.150803,0,1 @ F,0,0,1,0,0,0,1 @ F,0,0,1,0,2.150803,0,1"
       radius="0"
       unit="px"
       method="auto"
       mode="F"
       chamfer_steps="1"
       flexible="false"
       use_knot_distance="true"
       apply_no_radius="true"
       apply_with_radius="true"
       only_selected="false"
       hide_knots="false" />
    <filter
       inkscape:collect="always"
       style="color-interpolation-filters:sRGB"
       id="filter10"
       x="-0.034882108"
       y="-0.040981389"
       width="1.0697632"
       height="1.0815188">
      <feGaussianBlur
         inkscape:collect="always"
         stdDeviation="0.52779615"
         id="feGaussianBlur10" />
    </filter>
    <filter
       inkscape:collect="always"
       style="color-interpolation-filters:sRGB"
       id="filter11"
       x="-0.062465329"
       y="-0.069983061"
       width="1.1249297"
       height="1.1399181">
      <feGaussianBlur
         inkscape:collect="always"
         stdDeviation="1.4152686"
         id="feGaussianBlur11" />
    </filter>
  </defs>
  <sodipodi:namedview
     id="namedview9"
     pagecolor="#ffffff"
     bordercolor="#000000"
     borderopacity="0.25"
     inkscape:showpageshadow="2"
     inkscape:pageopacity="0.0"
     inkscape:pagecheckerboard="0"
     inkscape:deskcolor="#d1d1d1"
     inkscape:zoom="12.006747"
     inkscape:cx="29.816568"
     inkscape:cy="31.024222"
     inkscape:current-layer="svg9" />
  <path
     style="fill:url(#radialGradient10)"
     d="M 23.29091,56.643226 C 13.884414,55.183712 6.8720834,49.236906 4.5856888,40.780296 3.7680054,37.755908 3.8109432,33.071686 4.6866288,29.773548 7.573357,18.900618 17.51352,10.113687 29.909644,7.4768268 c 3.182898,-0.6770556 9.477896,-0.6246112 12.408682,0.103334 9.322328,2.315597 15.234218,7.8494022 17.217554,16.1164432 0.742042,3.092958 0.579488,7.771166 -0.381584,10.982054 -1.452344,4.852194 -3.74224,8.606014 -7.584132,12.43261 -7.50461,7.474762 -18.232538,11.090762 -28.279212,9.531916 z"
     id="path2" />
  <path
     style="fill:none;stroke:#000000;stroke-opacity:1;stroke-width:0.2;stroke-dasharray:none;filter:url(#filter11)"
     d="M 23.29091,56.643226 C 13.884414,55.183712 6.872083,49.236906 4.585689,40.780296 3.768005,37.755908 3.810943,33.071686 4.686629,29.773548 7.573357,18.900618 17.51352,10.113687 29.909644,7.4768262 c 3.182898,-0.677055 9.477896,-0.624611 12.408682,0.103334 9.322328,2.315597 15.234218,7.8494028 17.217554,16.1164438 0.742042,3.092958 0.579488,7.771166 -0.381584,10.982054 -1.452344,4.852194 -3.74224,8.606014 -7.584132,12.43261 -7.50461,7.474762 -18.232538,11.090762 -28.279212,9.531916 z"
     id="path2-2" />
  <path
     id="path4"
     style="fill:#ff4b4b;stroke:none"
     d="m 50.833984,15.28125 -13.858923,3.179277 a 7.4004035,7.4004035 179.92671 0 1 -3.290926,0.0042 L 26,16.722656 v 2.568148 a 2.1189015,2.1189015 128.53744 0 1 -1.644951,2.065215 l -8.25874,1.895317 A 2.7003065,2.7003065 128.53744 0 0 14,25.883225 v 3.548416 l 15.032042,-3.431546 c 0.538903,-0.123022 0.971112,-0.677782 1.103776,-1.213083 C 30.395559,23.738947 31.175479,22.254434 33.5,22 c 1.071198,0.0011 2.062363,0.490415 2.715376,1.295815 0.346947,0.42791 0.948334,0.758037 1.487583,0.636541 l 13.522251,-3.04664 c 0.81623,-0.183901 1.342171,-0.998599 1.110316,-1.802339 -0.398353,-1.380914 -0.913959,-2.639706 -1.501542,-3.802127 z m 2.328125,8.802734 -3.561762,0.816365 c -1.157832,0.265378 -2.228182,1.437503 -2.522522,2.587842 -1.237063,4.834677 -3.882753,7.161872 -8.34345,9.095793 C 33.382008,38.904483 23.792881,40.60604 16.101241,42.237466 14.9396,42.483854 14,43.656306 14,44.844162 v 3.532791 C 17.118818,47.656508 20.976771,46.946566 24.965055,46.129885 25.536851,46.012799 26,46.389514 26,46.973602 l 0,0.06888 a 1.9536076,1.9536076 45 0 0 1.953608,1.953608 h 4.092784 A 1.9536076,1.9536076 135 0 0 34,47.042486 v -1.949744 c 0,-0.584088 0.457167,-1.181134 1.017099,-1.347335 C 42.662,41.47623 53.697124,36.108162 53.162109,24.083984 Z M 27,30.208984 16.098655,32.654253 A 2.6866916,2.6866916 128.67865 0 0 14,35.275803 v 3.669509 L 24.901413,36.498391 A 2.6870852,2.6870852 128.67456 0 0 27,33.876541 Z"
     sodipodi:nodetypes="cccccccccccccscccccccccccc"
     inkscape:path-effect="#path-effect10"
     inkscape:original-d="M 50.833984,15.28125 35.330078,18.837891 26,16.722656 v 4.25586 l -12,2.753906 v 5.699219 L 30.007812,25.777344 C 30.007812,25.292792 30.14734,22.36697 33.5,22 c 1.411058,0.0014 2.683242,0.850081 3.226562,2.152344 l 15.976563,-3.59961 C 52.283359,18.57983 51.623676,16.843504 50.833984,15.28125 Z m 2.328125,8.802734 -5.658203,1.296875 C 46.524034,31.68536 43.799138,34.388172 38.734375,36.583984 32.881925,39.121292 21.964033,40.918597 14,42.693359 v 5.683594 c 3.387935,-0.782611 7.648066,-1.552828 12,-2.460937 v 3.080078 h 8 V 44.035156 C 41.638033,41.949111 53.72137,36.653087 53.162109,24.083984 Z M 27,30.208984 14,33.125 v 5.820312 l 13,-2.917968 z" />
  <path
     id="path4-7"
     style="fill:none;stroke:#ff0000;stroke-opacity:1;stroke-width:0.2;stroke-dasharray:none;filter:url(#filter10)"
     d="m 50.833984,15.28125 -13.858923,3.179277 a 7.4004035,7.4004035 179.92671 0 1 -3.290926,0.0042 L 26,16.722656 v 2.568148 a 2.1189015,2.1189015 128.53744 0 1 -1.644951,2.065215 l -8.25874,1.895317 A 2.7003065,2.7003065 128.53744 0 0 14,25.883225 v 3.548416 l 15.032042,-3.431546 c 0.538903,-0.123022 0.971112,-0.677782 1.103776,-1.213083 C 30.395559,23.738947 31.175479,22.254434 33.5,22 c 1.071198,0.0011 2.062363,0.490415 2.715376,1.295815 0.346947,0.42791 0.948334,0.758037 1.487583,0.636541 l 13.522251,-3.04664 c 0.81623,-0.183901 1.342171,-0.998599 1.110316,-1.802339 -0.398353,-1.380914 -0.913959,-2.639706 -1.501542,-3.802127 z m 2.328125,8.802734 -3.561762,0.816365 c -1.157832,0.265378 -2.228182,1.437503 -2.522522,2.587842 -1.237063,4.834677 -3.882753,7.161872 -8.34345,9.095793 C 33.382008,38.904483 23.792881,40.60604 16.101241,42.237466 14.9396,42.483854 14,43.656306 14,44.844162 v 3.532791 C 17.118818,47.656508 20.976771,46.946566 24.965055,46.129885 25.536851,46.012799 26,46.389514 26,46.973602 l 0,0.06888 a 1.9536076,1.9536076 45 0 0 1.953608,1.953608 h 4.092784 A 1.9536076,1.9536076 135 0 0 34,47.042486 v -1.949744 c 0,-0.584088 0.457167,-1.181134 1.017099,-1.347335 C 42.662,41.47623 53.697124,36.108162 53.162109,24.083984 Z M 27,30.208984 16.098655,32.654253 A 2.6866916,2.6866916 128.67865 0 0 14,35.275803 v 3.669509 L 24.901413,36.498391 A 2.6870852,2.6870852 128.67456 0 0 27,33.876541 Z"
     sodipodi:nodetypes="cccccccccccccscccccccccccc"
     inkscape:path-effect="#path-effect10-3"
     inkscape:original-d="M 50.833984,15.28125 35.330078,18.837891 26,16.722656 v 4.25586 l -12,2.753906 v 5.699219 L 30.007812,25.777344 C 30.007812,25.292792 30.14734,22.36697 33.5,22 c 1.411058,0.0014 2.683242,0.850081 3.226562,2.152344 l 15.976563,-3.59961 C 52.283359,18.57983 51.623676,16.843504 50.833984,15.28125 Z m 2.328125,8.802734 -5.658203,1.296875 C 46.524034,31.68536 43.799138,34.388172 38.734375,36.583984 32.881925,39.121292 21.964033,40.918597 14,42.693359 v 5.683594 c 3.387935,-0.782611 7.648066,-1.552828 12,-2.460937 v 3.080078 h 8 V 44.035156 C 41.638033,41.949111 53.72137,36.653087 53.162109,24.083984 Z M 27,30.208984 14,33.125 v 5.820312 l 13,-2.917968 z" />
</svg>
