<?xml version="1.0" encoding="UTF-8" standalone="no"?>
<svg
   width="64"
   height="64"
   version="1"
   id="svg5"
   sodipodi:docname="ru.linux_gaming.PortProton.svg"
   inkscape:version="1.4.3 (0d15f75042, 2025-12-25)"
   xmlns:inkscape="http://www.inkscape.org/namespaces/inkscape"
   xmlns:sodipodi="http://sodipodi.sourceforge.net/DTD/sodipodi-0.dtd"
   xmlns:xlink="http://www.w3.org/1999/xlink"
   xmlns="http://www.w3.org/2000/svg"
   xmlns:svg="http://www.w3.org/2000/svg">
  <defs
     id="defs5">
    <linearGradient
       id="linearGradient9"
       inkscape:collect="always">
      <stop
         style="stop-color:#e1145e;stop-opacity:1;"
         offset="0"
         id="stop9" />
      <stop
         style="stop-color:#e1142f;stop-opacity:1;"
         offset="1"
         id="stop10" />
    </linearGradient>
    <inkscape:path-effect
       effect="fillet_chamfer"
       id="path-effect11-7"
       is_visible="true"
       lpeversion="1"
       nodesatellites_param="F,0,1,1,0,2.6875102,0,1 @ F,0,1,1,0,2.6875102,0,1 @ F,0,1,1,0,2.6875102,0,1 @ F,0,1,1,0,2.6875102,0,1 | F,0,1,1,0,2.6875102,0,1 @ F,0,1,1,0,2.6875102,0,1 @ F,0,1,1,0,2.6875102,0,1 @ F,0,1,1,0,2.6875102,0,1 | F,0,1,1,0,2.6875102,0,1 @ F,0,1,1,0,2.6875102,0,1 @ F,0,1,1,0,2.6875102,0,1 @ F,0,1,1,0,2.6875102,0,1 | F,0,1,1,0,2.6875102,0,1 @ F,0,1,1,0,2.6875102,0,1 @ F,0,0,1,0,2.6875102,0,1 @ F,0,1,1,0,2.6875102,0,1"
       radius="0"
       unit="px"
       method="auto"
       mode="F"
       chamfer_steps="1"
       flexible="false"
       use_knot_distance="true"
       apply_no_radius="true"
       apply_with_radius="true"
       only_selected="false"
       hide_knots="false" />
    <inkscape:path-effect
       effect="fillet_chamfer"
       id="path-effect11-2-3"
       is_visible="true"
       lpeversion="1"
       nodesatellites_param="F,0,1,1,0,2.7863876,0,1 @ F,0,1,1,0,2.7863876,0,1 @ F,0,1,1,0,2.7863876,0,1 @ F,0,1,1,0,2.7863876,0,1 | F,0,1,1,0,2.7863876,0,1 @ F,0,1,1,0,2.7863876,0,1 @ F,0,1,1,0,2.7863876,0,1 @ F,0,1,1,0,2.7863876,0,1 | F,0,1,1,0,2.7863876,0,1 @ F,0,1,1,0,2.7863876,0,1 @ F,0,1,1,0,2.7863876,0,1 @ F,0,1,1,0,2.7863876,0,1 | F,0,1,1,0,2.7863876,0,1 @ F,0,1,1,0,2.7863876,0,1 @ F,0,0,1,0,2.7863876,0,1 @ F,0,1,1,0,2.7863876,0,1"
       radius="0"
       unit="px"
       method="auto"
       mode="F"
       chamfer_steps="1"
       flexible="false"
       use_knot_distance="true"
       apply_no_radius="true"
       apply_with_radius="true"
       only_selected="false"
       hide_knots="false" />
    <filter
       inkscape:collect="always"
       style="color-interpolation-filters:sRGB"
       id="filter7"
       x="-0.3545141"
       y="-0.3545141"
       width="1.7090282"
       height="1.7090282">
      <feGaussianBlur
         inkscape:collect="always"
         stdDeviation="0.7679239"
         id="feGaussianBlur7" />
    </filter>
    <filter
       inkscape:collect="always"
       style="color-interpolation-filters:sRGB"
       id="filter8"
       x="-0.078800325"
       y="-0.08750116"
       width="1.1576007"
       height="1.1750023">
      <feGaussianBlur
         inkscape:collect="always"
         stdDeviation="1.7095417"
         id="feGaussianBlur8" />
    </filter>
    <filter
       inkscape:collect="always"
       style="color-interpolation-filters:sRGB"
       id="filter9"
       x="-0.040137385"
       y="-0.045185405"
       width="1.0802748"
       height="1.0903674">
      <feGaussianBlur
         inkscape:collect="always"
         stdDeviation="0.72621952"
         id="feGaussianBlur9" />
    </filter>
    <radialGradient
       inkscape:collect="always"
       xlink:href="#linearGradient9"
       id="radialGradient10"
       cx="3.6067128"
       cy="60.275871"
       fx="3.6067128"
       fy="60.275871"
       r="22.957735"
       gradientTransform="matrix(2.9212116,0,0,2.594854,-6.9292583,-99.290224)"
       gradientUnits="userSpaceOnUse" />
    <filter
       inkscape:collect="always"
       style="color-interpolation-filters:sRGB"
       id="filter10"
       x="-0.078784366"
       y="-0.087483269"
       width="1.1575687"
       height="1.174951">
      <feGaussianBlur
         inkscape:collect="always"
         stdDeviation="1.7648343"
         id="feGaussianBlur10" />
    </filter>
  </defs>
  <sodipodi:namedview
     id="namedview5"
     pagecolor="#202020"
     bordercolor="#000000"
     borderopacity="0.25"
     inkscape:showpageshadow="2"
     inkscape:pageopacity="0.0"
     inkscape:pagecheckerboard="0"
     inkscape:deskcolor="#d1d1d1"
     inkscape:zoom="11.655078"
     inkscape:cx="31.273922"
     inkscape:cy="35.478098"
     inkscape:current-layer="svg5" />
  <path
     id="path6-8"
     style="baseline-shift:baseline;display:inline;overflow:visible;mix-blend-mode:normal;vector-effect:none;fill:#1f1f1f;fill-opacity:1;stroke-width:0.946136;stroke-linecap:round;stroke-linejoin:round;stroke-miterlimit:28;filter:url(#filter8);enable-background:accumulate;stop-color:#000000;stroke:none"
     d="m 41.659087,8.5551699 c -1.861303,-9.461e-4 -3.674371,0.7206548 -5.233315,1.6206281 -1.485162,0.857379 -2.944551,2.06129 -4.403596,3.433438 -1.16616,-1.098613 -2.331631,-2.071725 -3.507357,-2.849495 C 26.893449,9.6871658 25.215034,8.8053008 23.298136,8.6069122 22.659171,8.5407868 21.993611,8.551147 21.294989,8.654957 a 3.9181894,3.9181894 0 0 0 -0.0019,0 c -0.785935,0.1168497 -1.586861,0.3825133 -2.309858,0.80015 v -0.00189 c -2.950757,1.703383 -3.669973,4.923585 -3.669973,7.803774 0,1.722999 0.316774,3.598475 0.779823,5.558549 -1.929152,0.579006 -3.711465,1.243292 -5.203747,2.104782 -2.4941273,1.439846 -4.9220448,3.67267 -4.9228641,7.079386 a 3.9181894,3.9181894 0 0 0 0,0.0019 c 8.193e-4,3.406717 2.4287368,5.637689 4.9228641,7.077541 1.492282,0.86149 3.274595,1.525775 5.203747,2.104782 -0.463049,1.960074 -0.779823,3.837397 -0.779823,5.560397 0,2.880188 0.719216,6.098543 3.669973,7.801926 v -0.0019 c 2.950343,1.704012 6.09668,0.719265 8.590989,-0.72069 1.492569,-0.861656 2.959434,-2.074125 4.425772,-3.455614 1.466338,1.381489 2.933203,2.593958 4.425772,3.455614 2.494309,1.439955 5.640647,2.424702 8.590989,0.72069 v 0.0019 c 2.950758,-1.703383 3.669973,-4.921738 3.669973,-7.801926 0,-1.723 -0.316774,-3.600323 -0.779823,-5.560397 1.929152,-0.579007 3.711465,-1.243292 5.203748,-2.104782 2.494127,-1.439852 4.922044,-3.670824 4.922863,-7.077541 a 3.9181894,3.9181894 0 0 0 0,-0.0019 c -8.19e-4,-3.406716 -2.428736,-5.639537 -4.922863,-7.079389 -1.492283,-0.86149 -3.274596,-1.525775 -5.203748,-2.104782 0.463049,-1.960074 0.779823,-3.835549 0.779823,-5.558549 0,-2.880188 -0.719216,-6.100392 -3.669973,-7.8037738 v 0.00189 C 43.910383,8.8161038 42.775869,8.5557461 41.659087,8.5551699 Z"
     transform="matrix(0.91741745,0,0,0.91741745,2.6426411,2.6426416)" />
  <path
     id="path6"
     style="baseline-shift:baseline;display:inline;overflow:visible;vector-effect:none;fill:#313131;stroke-linecap:round;stroke-linejoin:round;stroke-miterlimit:28;enable-background:accumulate;stop-color:#000000;fill-opacity:1;opacity:0.83396491;stroke:none"
     d="M 42.208984 7.2207031 C 40.241716 7.219689 38.325429 7.9823854 36.677734 8.9335938 C 35.108021 9.839784 33.565548 11.112234 32.023438 12.5625 C 30.790888 11.401342 29.559066 10.37283 28.316406 9.5507812 C 26.60273 8.4171438 24.828762 7.485074 22.802734 7.2753906 C 22.127392 7.2054966 21.423942 7.2164479 20.685547 7.3261719 A 4.1412541 4.1412541 0 0 0 20.683594 7.3261719 C 19.852868 7.4496741 19.006345 7.7304621 18.242188 8.171875 L 18.242188 8.1699219 C 15.123442 9.9702795 14.363281 13.37381 14.363281 16.417969 C 14.363281 18.23906 14.698089 20.221307 15.1875 22.292969 C 13.14852 22.904939 11.264739 23.607043 9.6875 24.517578 C 7.0513811 26.039398 4.4852411 28.399338 4.484375 32 A 4.1412541 4.1412541 0 0 0 4.484375 32.001953 C 4.4852411 35.602616 7.0513811 37.960599 9.6875 39.482422 C 11.264739 40.392957 13.14852 41.095061 15.1875 41.707031 C 14.698089 43.778693 14.363281 45.762893 14.363281 47.583984 C 14.363281 50.628143 15.123442 54.029721 18.242188 55.830078 L 18.242188 55.828125 C 21.360495 57.629148 24.685955 56.588339 27.322266 55.066406 C 28.899808 54.155696 30.450183 52.8742 32 51.414062 C 33.549817 52.8742 35.100192 54.155696 36.677734 55.066406 C 39.314045 56.588339 42.639506 57.629148 45.757812 55.828125 L 45.757812 55.830078 C 48.876559 54.029721 49.636719 50.628143 49.636719 47.583984 C 49.636719 45.762893 49.301911 43.778693 48.8125 41.707031 C 50.85148 41.095061 52.735261 40.392957 54.3125 39.482422 C 56.948619 37.960599 59.514759 35.602616 59.515625 32.001953 A 4.1412541 4.1412541 0 0 0 59.515625 32 C 59.514759 28.399338 56.948619 26.039401 54.3125 24.517578 C 52.735261 23.607043 50.85148 22.904939 48.8125 22.292969 C 49.301911 20.221307 49.636719 18.23906 49.636719 16.417969 C 49.636719 13.37381 48.876558 9.9702795 45.757812 8.1699219 L 45.757812 8.171875 C 44.588448 7.4964925 43.389345 7.2213116 42.208984 7.2207031 z " />
  <path
     id="path6-0"
     style="baseline-shift:baseline;display:inline;overflow:visible;opacity:0.833965;fill:none;fill-opacity:1;stroke:#000000;stroke-linecap:round;stroke-linejoin:round;stroke-miterlimit:28;enable-background:accumulate;stop-color:#000000;stroke-opacity:1;stroke-width:0.20000001;stroke-dasharray:none;filter:url(#filter10)"
     d="m 42.208984,7.2204418 c -1.967268,-10e-4 -3.883555,0.761682 -5.53125,1.712891 -1.569713,0.90619 -3.112186,2.1786402 -4.654296,3.6289062 -1.23255,-1.161158 -2.464372,-2.18967 -3.707032,-3.0117192 -1.713676,-1.133637 -3.487644,-2.065707 -5.513672,-2.27539 -0.675342,-0.06989 -1.378792,-0.05894 -2.117187,0.05078 a 4.1412541,4.1412541 0 0 0 -0.002,0 c -0.830679,0.123502 -1.677202,0.40429 -2.441359,0.845703 v -0.002 c -3.118746,1.800358 -3.878907,5.2038882 -3.878907,8.2480472 0,1.821091 0.334808,3.803338 0.824219,5.875 -2.03898,0.61197 -3.922761,1.314074 -5.5,2.224609 -2.636119,1.521868 -5.202259,3.881808 -5.203125,7.48247 a 4.1412541,4.1412541 0 0 0 0,0.002 c 8.66e-4,3.600663 2.567006,5.958646 5.203125,7.480469 1.577239,0.910535 3.46102,1.612639 5.5,2.224609 -0.489411,2.071662 -0.824219,4.055862 -0.824219,5.876953 0,3.044159 0.760161,6.445737 3.878907,8.246094 v -0.002 c 3.118307,1.801023 6.443767,0.760214 9.080078,-0.761719 1.577542,-0.91071 3.127917,-2.192206 4.677734,-3.652344 1.549817,1.460138 3.100192,2.741634 4.677734,3.652344 2.636311,1.521933 5.961772,2.562742 9.080078,0.761719 v 0.002 c 3.118747,-1.800357 3.878907,-5.201935 3.878907,-8.246094 0,-1.821091 -0.334808,-3.805291 -0.824219,-5.876953 2.03898,-0.61197 3.922761,-1.314074 5.5,-2.224609 2.636119,-1.521823 5.202259,-3.879806 5.203125,-7.480469 a 4.1412541,4.1412541 0 0 0 0,-0.002 c -8.66e-4,-3.600662 -2.567006,-5.960599 -5.203125,-7.482422 -1.577239,-0.910535 -3.46102,-1.612639 -5.5,-2.224609 0.489411,-2.071662 0.824219,-4.053909 0.824219,-5.875 0,-3.044159 -0.760161,-6.4476892 -3.878907,-8.2480472 v 0.0019 c -1.169364,-0.67538 -2.368467,-0.95056 -3.548828,-0.951169 z" />
  <circle
     style="fill:#ffffff;stroke-width:0.649839;filter:url(#filter7)"
     class="st2"
     cx="32"
     cy="32"
     r="2.5993569"
     id="circle3-6" />
  <circle
     style="fill:#ffffff;stroke-width:0.81668;opacity:0.66399112"
     class="st2"
     cx="32"
     cy="32.000004"
     r="3.2667205"
     id="circle3" />
  <path
     id="path5"
     style="baseline-shift:baseline;display:inline;overflow:visible;opacity:1;vector-effect:none;fill:url(#radialGradient10);stroke-width:0.819005;stroke-linecap:round;stroke-linejoin:round;stroke-miterlimit:28;enable-background:accumulate;stop-color:#000000;stop-opacity:1;stroke:none"
     d="m 22.627831,11.608038 c -0.741394,-0.01659 -1.458041,0.135776 -2.106698,0.510278 -1.297316,0.749006 -1.958016,2.175847 -2.189879,3.776701 -0.231864,1.600853 -0.08556,3.482853 0.348717,5.605067 0.214346,1.047458 0.500859,2.154085 0.857396,3.304812 -1.174871,0.2666 -2.276084,0.570473 -3.290417,0.908584 -2.055031,0.68501 -3.758755,1.500579 -5.029203,2.501804 -1.2704486,1.001227 -2.1754821,2.286688 -2.1754821,3.7847 0,1.498011 0.9050335,2.783473 2.1754821,3.784699 1.270448,1.001225 2.974172,1.816794 5.029203,2.501804 1.014324,0.338108 2.115556,0.641985 3.290417,0.908584 -0.356555,1.150769 -0.643042,2.257318 -0.857396,3.304813 -0.434279,2.122213 -0.58058,4.004212 -0.348717,5.605066 0.231863,1.600853 0.892563,3.027695 2.189879,3.776701 1.297314,0.749006 2.86305,0.607626 4.36536,0.008 1.502312,-0.599628 3.059735,-1.666058 4.680486,-3.103261 0.799982,-0.709386 1.6147,-1.510458 2.433021,-2.39463 0.818301,0.884147 1.633058,1.685262 2.433021,2.39463 1.620751,1.437203 3.178174,2.503633 4.680486,3.103261 1.50231,0.599627 3.068045,0.741008 4.36536,-0.008 1.297316,-0.749005 1.958016,-2.175848 2.189879,-3.776701 0.231863,-1.600854 0.08716,-3.482853 -0.347117,-5.605066 -0.214352,-1.047483 -0.502447,-2.154057 -0.858996,-3.304813 1.174815,-0.266592 2.276128,-0.570487 3.290417,-0.908584 2.055031,-0.68501 3.758755,-1.500579 5.029203,-2.501804 1.270449,-1.001226 2.175482,-2.286688 2.175482,-3.784699 0,-1.498012 -0.905033,-2.783473 -2.175482,-3.7847 -1.270448,-1.001225 -2.974172,-1.816794 -5.029203,-2.501804 -1.014298,-0.338099 -2.115592,-0.641991 -3.290417,-0.908584 0.356532,-1.150714 0.643052,-2.257365 0.857396,-3.304812 0.434279,-2.122213 0.580581,-4.004214 0.348717,-5.605067 -0.231862,-1.600854 -0.892563,-3.027696 -2.189879,-3.776701 -1.297315,-0.749006 -2.86305,-0.607626 -4.36536,-0.008 -1.502312,0.599627 -3.059735,1.666058 -4.680486,3.103261 C 33.633079,15.92293 32.818279,16.72409 32,17.608209 c -0.818299,-0.884145 -1.63146,-1.685264 -2.431421,-2.39463 -1.620752,-1.437203 -3.179774,-2.503633 -4.682086,-3.10326 -0.751155,-0.299815 -1.517269,-0.48569 -2.258662,-0.502281 z m -0.0144,2.452216 c 0.364733,0.01326 0.8122,0.113564 1.361277,0.332721 1.098155,0.438314 2.481766,1.34574 3.962256,2.658567 0.787933,0.698701 1.604929,1.509691 2.434621,2.420224 -1.065105,1.286265 -2.125847,2.703226 -3.162447,4.229393 -1.840012,0.134633 -3.598649,0.34458 -5.245152,0.623852 -0.373694,-1.173791 -0.667066,-2.285899 -0.878191,-3.317611 -0.396697,-1.938555 -0.491009,-3.590278 -0.321523,-4.760467 0.169487,-1.170186 0.550526,-1.750068 0.985366,-2.001123 0.217419,-0.125527 0.499061,-0.198808 0.863793,-0.185556 z m 18.773132,0 c 0.364733,-0.01326 0.646374,0.06003 0.863794,0.185556 0.43484,0.251055 0.815879,0.830937 0.985365,2.001123 0.169487,1.170189 0.07518,2.821912 -0.321523,4.760467 -0.211122,1.0317 -0.504503,2.143835 -0.878191,3.317611 -1.64649,-0.279274 -3.403553,-0.489215 -5.243552,-0.623852 -1.036598,-1.526171 -2.098943,-2.943125 -3.164046,-4.229393 0.829673,-0.910509 1.646705,-1.721539 2.43462,-2.420224 1.48049,-1.312827 2.864101,-2.220253 3.962256,-2.658567 0.549078,-0.219157 0.996544,-0.319469 1.361277,-0.332721 z M 32,21.367314 c 0.559317,0.688291 1.120613,1.417129 1.678,2.181882 -0.553765,-0.01369 -1.113697,-0.0208 -1.678,-0.0208 -0.564249,0 -1.124288,0.0071 -1.678,0.0208 0.557388,-0.764751 1.118682,-1.493593 1.678,-2.181882 z m 0,4.618101 c 1.164296,0 2.307186,0.03089 3.419985,0.09117 0.608619,0.933597 1.206267,1.907866 1.788375,2.916106 0.58213,1.008278 1.125838,2.013459 1.630012,3.007285 -0.504221,0.993901 -1.04789,1.999019 -1.630012,3.007284 -0.582113,1.00825 -1.179799,1.982587 -1.788375,2.916106 -1.112798,0.06029 -2.25569,0.09117 -3.419985,0.09117 -1.16424,0 -2.307237,-0.0309 -3.419985,-0.09117 -0.608592,-0.933541 -1.206246,-1.907829 -1.788375,-2.916106 -0.582109,-1.008244 -1.125801,-2.013403 -1.630012,-3.007284 0.504166,-0.993805 1.047895,-1.99903 1.630012,-3.007285 0.582122,-1.008266 1.17974,-1.982486 1.788375,-2.916106 1.112749,-0.06028 2.255744,-0.09117 3.419985,-0.09117 z m -6.480057,0.33592 c -0.288738,0.47272 -0.57365,0.954164 -0.855796,1.442857 -0.282123,0.48865 -0.55721,0.977281 -0.822205,1.463651 -0.383582,-0.865046 -0.732944,-1.714904 -1.04935,-2.543394 0.875701,-0.140271 1.786368,-0.262756 2.727351,-0.363114 z m 12.960114,0 c 0.940972,0.100359 1.85166,0.222843 2.727351,0.363114 -0.316401,0.828481 -0.665774,1.678358 -1.04935,2.543394 -0.265005,-0.486389 -0.538471,-0.974983 -0.820605,-1.463651 -0.28213,-0.488665 -0.568675,-0.970164 -0.857396,-1.442857 z m -18.144481,0.825404 c 0.581371,1.565466 1.277745,3.192525 2.081105,4.853245 -0.803367,1.660723 -1.499728,3.287773 -2.081105,4.853244 -1.202777,-0.263208 -2.312474,-0.564473 -3.311211,-0.897386 -1.877186,-0.625729 -3.356711,-1.370026 -4.28538,-2.1019 -0.928669,-0.731874 -1.239705,-1.35185 -1.239705,-1.853958 0,-0.502109 0.311036,-1.122085 1.239705,-1.853959 0.928669,-0.731874 2.408194,-1.476171 4.28538,-2.1019 0.998743,-0.332914 2.108425,-0.634176 3.311211,-0.897386 z m 23.328848,0 c 1.202737,0.263203 2.312502,0.564483 3.311211,0.897386 1.877186,0.625729 3.356711,1.370026 4.28538,2.1019 0.928669,0.731874 1.239705,1.35185 1.239705,1.853959 0,0.502108 -0.311036,1.122084 -1.239705,1.853958 -0.928669,0.731874 -2.408194,1.476171 -4.28538,2.1019 -0.998703,0.332901 -2.108481,0.634184 -3.311211,0.897386 -0.581373,-1.565462 -1.277745,-3.19253 -2.081105,-4.853244 0.803353,-1.660711 1.499739,-3.287789 2.081105,-4.853245 z m -19.822482,7.625385 c 0.265007,0.486392 0.540069,0.97498 0.822205,1.463651 0.282124,0.488655 0.567081,0.970174 0.855796,1.442857 -0.940936,-0.100352 -1.85169,-0.222852 -2.727351,-0.363114 0.316361,-0.828475 0.66579,-1.678345 1.04935,-2.543394 z m 16.316116,0 c 0.383554,0.86504 0.732993,1.714928 1.04935,2.543394 -0.875651,0.140262 -1.786426,0.26276 -2.727351,0.363114 0.288699,-0.472657 0.573688,-0.95423 0.855796,-1.442857 0.282146,-0.48869 0.557189,-0.97724 0.822205,-1.463651 z m -18.19247,4.902832 c 1.646426,0.279249 3.402041,0.489226 5.241954,0.623852 1.036544,1.526095 2.098997,2.943175 3.164046,4.229393 -0.829344,0.910043 -1.645334,1.720141 -2.433021,2.418624 -1.480491,1.312827 -2.865701,2.221854 -3.963856,2.660167 -1.098155,0.438315 -1.790232,0.398219 -2.225071,0.147165 -0.434839,-0.251054 -0.81588,-0.830936 -0.985365,-2.001123 -0.169487,-1.170188 -0.07518,-2.823511 0.321523,-4.762066 0.21106,-1.031398 0.506342,-2.14276 0.87979,-3.316012 z m 20.068823,0 c 0.373442,1.173236 0.668733,2.284626 0.879791,3.316012 0.396696,1.938555 0.49101,3.591878 0.321523,4.762066 -0.169486,1.170187 -0.550526,1.750069 -0.985365,2.001123 -0.434839,0.251054 -1.126916,0.29115 -2.225071,-0.147165 -1.098155,-0.438313 -2.483365,-1.34734 -3.963856,-2.660167 -0.78767,-0.698467 -1.603697,-1.508605 -2.433021,-2.418624 1.065048,-1.286222 2.127503,-2.703295 3.164046,-4.229393 1.839901,-0.13463 3.595541,-0.3446 5.241953,-0.623852 z M 30.322,40.450771 c 0.553695,0.01369 1.113768,0.0208 1.678,0.0208 0.564286,0 1.124253,-0.0071 1.678,-0.0208 -0.557373,0.764698 -1.118701,1.493667 -1.678,2.181882 -0.559299,-0.688212 -1.120627,-1.417186 -1.678,-2.181882 z" />
  <path
     id="path5-9"
     style="baseline-shift:baseline;display:inline;overflow:visible;fill:none;stroke-width:0.2;stroke-linecap:round;stroke-linejoin:round;stroke-miterlimit:28;enable-background:accumulate;stop-color:#000000;stroke:#000000;stroke-opacity:1;stroke-dasharray:none;filter:url(#filter9)"
     d="m 22.627831,11.608317 c -0.741394,-0.01659 -1.458041,0.135776 -2.106698,0.510278 -1.297316,0.749006 -1.958016,2.175847 -2.189879,3.776701 -0.231864,1.600853 -0.08556,3.482853 0.348717,5.605067 0.214346,1.047458 0.500859,2.154085 0.857396,3.304812 -1.174871,0.2666 -2.276084,0.570473 -3.290417,0.908584 -2.055031,0.68501 -3.758755,1.500579 -5.029203,2.501804 -1.270448,1.001227 -2.175482,2.286688 -2.175482,3.7847 0,1.498011 0.905034,2.783473 2.175482,3.784699 1.270448,1.001225 2.974172,1.816794 5.029203,2.501804 1.014324,0.338108 2.115556,0.641985 3.290417,0.908584 -0.356555,1.150769 -0.643042,2.257318 -0.857396,3.304813 -0.434279,2.122213 -0.58058,4.004212 -0.348717,5.605066 0.231863,1.600853 0.892563,3.027695 2.189879,3.776701 1.297314,0.749006 2.86305,0.607626 4.36536,0.008 1.502312,-0.599628 3.059735,-1.666058 4.680486,-3.103261 0.799982,-0.709386 1.6147,-1.510458 2.433021,-2.39463 0.818301,0.884147 1.633058,1.685262 2.433021,2.39463 1.620751,1.437203 3.178174,2.503633 4.680486,3.103261 1.50231,0.599627 3.068045,0.741008 4.36536,-0.008 1.297316,-0.749005 1.958016,-2.175848 2.189879,-3.776701 0.231863,-1.600854 0.08716,-3.482853 -0.347117,-5.605066 -0.214352,-1.047483 -0.502447,-2.154057 -0.858996,-3.304813 1.174815,-0.266592 2.276128,-0.570487 3.290417,-0.908584 2.055031,-0.68501 3.758755,-1.500579 5.029203,-2.501804 1.270449,-1.001226 2.175482,-2.286688 2.175482,-3.784699 0,-1.498012 -0.905033,-2.783473 -2.175482,-3.7847 -1.270448,-1.001225 -2.974172,-1.816794 -5.029203,-2.501804 -1.014298,-0.338099 -2.115592,-0.641991 -3.290417,-0.908584 0.356532,-1.150714 0.643052,-2.257365 0.857396,-3.304812 0.434279,-2.122213 0.580581,-4.004214 0.348717,-5.605067 -0.231862,-1.600854 -0.892563,-3.027696 -2.189879,-3.776701 -1.297315,-0.749006 -2.86305,-0.607626 -4.36536,-0.008 -1.502312,0.599627 -3.059735,1.666058 -4.680486,3.103261 -0.799942,0.709353 -1.614742,1.510513 -2.433021,2.394632 -0.818299,-0.884145 -1.63146,-1.685264 -2.431421,-2.39463 -1.620752,-1.437203 -3.179774,-2.503633 -4.682086,-3.10326 -0.751155,-0.299815 -1.517269,-0.48569 -2.258662,-0.502281 z m -0.0144,2.452216 c 0.364733,0.01326 0.8122,0.113564 1.361277,0.332721 1.098155,0.438314 2.481766,1.34574 3.962256,2.658567 0.787933,0.698701 1.604929,1.509691 2.434621,2.420224 -1.065105,1.286265 -2.125847,2.703226 -3.162447,4.229393 -1.840012,0.134633 -3.598649,0.34458 -5.245152,0.623852 -0.373694,-1.173791 -0.667066,-2.285899 -0.878191,-3.317611 -0.396697,-1.938555 -0.491009,-3.590278 -0.321523,-4.760467 0.169487,-1.170186 0.550526,-1.750068 0.985366,-2.001123 0.217419,-0.125527 0.499061,-0.198808 0.863793,-0.185556 z m 18.773132,0 c 0.364733,-0.01326 0.646374,0.06003 0.863794,0.185556 0.43484,0.251055 0.815879,0.830937 0.985365,2.001123 0.169487,1.170189 0.07518,2.821912 -0.321523,4.760467 -0.211122,1.0317 -0.504503,2.143835 -0.878191,3.317611 -1.64649,-0.279274 -3.403553,-0.489215 -5.243552,-0.623852 -1.036598,-1.526171 -2.098943,-2.943125 -3.164046,-4.229393 0.829673,-0.910509 1.646705,-1.721539 2.43462,-2.420224 1.48049,-1.312827 2.864101,-2.220253 3.962256,-2.658567 0.549078,-0.219157 0.996544,-0.319469 1.361277,-0.332721 z M 32,21.367593 c 0.559317,0.688291 1.120613,1.417129 1.678,2.181882 -0.553765,-0.01369 -1.113697,-0.0208 -1.678,-0.0208 -0.564249,0 -1.124288,0.0071 -1.678,0.0208 0.557388,-0.764751 1.118682,-1.493593 1.678,-2.181882 z m 0,4.618101 c 1.164296,0 2.307186,0.03089 3.419985,0.09117 0.608619,0.933597 1.206267,1.907866 1.788375,2.916106 0.58213,1.008278 1.125838,2.013459 1.630012,3.007285 -0.504221,0.993901 -1.04789,1.999019 -1.630012,3.007284 -0.582113,1.00825 -1.179799,1.982587 -1.788375,2.916106 -1.112798,0.06029 -2.25569,0.09117 -3.419985,0.09117 -1.16424,0 -2.307237,-0.0309 -3.419985,-0.09117 -0.608592,-0.933541 -1.206246,-1.907829 -1.788375,-2.916106 -0.582109,-1.008244 -1.125801,-2.013403 -1.630012,-3.007284 0.504166,-0.993805 1.047895,-1.99903 1.630012,-3.007285 0.582122,-1.008266 1.17974,-1.982486 1.788375,-2.916106 1.112749,-0.06028 2.255744,-0.09117 3.419985,-0.09117 z m -6.480057,0.33592 c -0.288738,0.47272 -0.57365,0.954164 -0.855796,1.442857 -0.282123,0.48865 -0.55721,0.977281 -0.822205,1.463651 -0.383582,-0.865046 -0.732944,-1.714904 -1.04935,-2.543394 0.875701,-0.140271 1.786368,-0.262756 2.727351,-0.363114 z m 12.960114,0 c 0.940972,0.100359 1.85166,0.222843 2.727351,0.363114 -0.316401,0.828481 -0.665774,1.678358 -1.04935,2.543394 -0.265005,-0.486389 -0.538471,-0.974983 -0.820605,-1.463651 -0.28213,-0.488665 -0.568675,-0.970164 -0.857396,-1.442857 z m -18.144481,0.825404 c 0.581371,1.565466 1.277745,3.192525 2.081105,4.853245 -0.803367,1.660723 -1.499728,3.287773 -2.081105,4.853244 -1.202777,-0.263208 -2.312474,-0.564473 -3.311211,-0.897386 -1.877186,-0.625729 -3.356711,-1.370026 -4.28538,-2.1019 -0.928669,-0.731874 -1.239705,-1.35185 -1.239705,-1.853958 0,-0.502109 0.311036,-1.122085 1.239705,-1.853959 0.928669,-0.731874 2.408194,-1.476171 4.28538,-2.1019 0.998743,-0.332914 2.108425,-0.634176 3.311211,-0.897386 z m 23.328848,0 c 1.202737,0.263203 2.312502,0.564483 3.311211,0.897386 1.877186,0.625729 3.356711,1.370026 4.28538,2.1019 0.928669,0.731874 1.239705,1.35185 1.239705,1.853959 0,0.502108 -0.311036,1.122084 -1.239705,1.853958 -0.928669,0.731874 -2.408194,1.476171 -4.28538,2.1019 -0.998703,0.332901 -2.108481,0.634184 -3.311211,0.897386 -0.581373,-1.565462 -1.277745,-3.19253 -2.081105,-4.853244 0.803353,-1.660711 1.499739,-3.287789 2.081105,-4.853245 z m -19.822482,7.625385 c 0.265007,0.486392 0.540069,0.97498 0.822205,1.463651 0.282124,0.488655 0.567081,0.970174 0.855796,1.442857 -0.940936,-0.100352 -1.85169,-0.222852 -2.727351,-0.363114 0.316361,-0.828475 0.66579,-1.678345 1.04935,-2.543394 z m 16.316116,0 c 0.383554,0.86504 0.732993,1.714928 1.04935,2.543394 -0.875651,0.140262 -1.786426,0.26276 -2.727351,0.363114 0.288699,-0.472657 0.573688,-0.95423 0.855796,-1.442857 0.282146,-0.48869 0.557189,-0.97724 0.822205,-1.463651 z m -18.19247,4.902832 c 1.646426,0.279249 3.402041,0.489226 5.241954,0.623852 1.036544,1.526095 2.098997,2.943175 3.164046,4.229393 -0.829344,0.910043 -1.645334,1.720141 -2.433021,2.418624 -1.480491,1.312827 -2.865701,2.221854 -3.963856,2.660167 -1.098155,0.438315 -1.790232,0.398219 -2.225071,0.147165 -0.434839,-0.251054 -0.81588,-0.830936 -0.985365,-2.001123 -0.169487,-1.170188 -0.07518,-2.823511 0.321523,-4.762066 0.21106,-1.031398 0.506342,-2.14276 0.87979,-3.316012 z m 20.068823,0 c 0.373442,1.173236 0.668733,2.284626 0.879791,3.316012 0.396696,1.938555 0.49101,3.591878 0.321523,4.762066 -0.169486,1.170187 -0.550526,1.750069 -0.985365,2.001123 -0.434839,0.251054 -1.126916,0.29115 -2.225071,-0.147165 -1.098155,-0.438313 -2.483365,-1.34734 -3.963856,-2.660167 -0.78767,-0.698467 -1.603697,-1.508605 -2.433021,-2.418624 1.065048,-1.286222 2.127503,-2.703295 3.164046,-4.229393 1.839901,-0.13463 3.595541,-0.3446 5.241953,-0.623852 z M 30.322,40.45105 c 0.553695,0.01369 1.113768,0.0208 1.678,0.0208 0.564286,0 1.124253,-0.0071 1.678,-0.0208 C 33.120627,41.215748 32.559299,41.944717 32,42.632932 31.440701,41.94472 30.879373,41.215746 30.322,40.45105 Z" />
</svg>
