<?xml version="1.0" encoding="UTF-8" standalone="no"?>
<svg
   width="64"
   height="64"
   version="1"
   id="svg9"
   sodipodi:docname="preferences-system-network-share-windows.svg"
   inkscape:version="1.4.3 (0d15f75042, 2025-12-25)"
   xmlns:inkscape="http://www.inkscape.org/namespaces/inkscape"
   xmlns:sodipodi="http://sodipodi.sourceforge.net/DTD/sodipodi-0.dtd"
   xmlns:xlink="http://www.w3.org/1999/xlink"
   xmlns="http://www.w3.org/2000/svg"
   xmlns:svg="http://www.w3.org/2000/svg">
  <sodipodi:namedview
     id="namedview9"
     pagecolor="#ffffff"
     bordercolor="#000000"
     borderopacity="0.25"
     inkscape:showpageshadow="2"
     inkscape:pageopacity="0.0"
     inkscape:pagecheckerboard="0"
     inkscape:deskcolor="#d1d1d1"
     inkscape:zoom="9.6851302"
     inkscape:cx="27.464783"
     inkscape:cy="28.755421"
     inkscape:window-width="1920"
     inkscape:window-height="1020"
     inkscape:window-x="0"
     inkscape:window-y="0"
     inkscape:window-maximized="1"
     inkscape:current-layer="svg9" />
  <defs
     id="defs2">
    <linearGradient
       id="k"
       x1="16"
       x2="16"
       y1="28"
       y2="4"
       gradientTransform="matrix(1.7640507,0,0,1.7640507,30.187401,-6.9268829)"
       gradientUnits="userSpaceOnUse">
      <stop
         offset="0"
         stop-color="#eff0f1"
         id="stop1" />
      <stop
         offset="1"
         stop-color="#fcfcfc"
         id="stop2" />
    </linearGradient>
    <inkscape:path-effect
       effect="fillet_chamfer"
       id="path-effect11-2"
       is_visible="true"
       lpeversion="1"
       nodesatellites_param="F,0,1,1,0,5.2536766,0,1 @ F,0,1,1,0,5.2536766,0,1 @ F,0,1,1,0,5.2536766,0,1 @ F,0,1,1,0,5.2536766,0,1 | F,0,1,1,0,5.2536766,0,1 @ F,0,1,1,0,5.2536766,0,1 @ F,0,1,1,0,5.2536766,0,1 @ F,0,1,1,0,5.2536766,0,1 | F,0,1,1,0,5.2536766,0,1 @ F,0,1,1,0,5.2536766,0,1 @ F,0,1,1,0,5.2536766,0,1 @ F,0,1,1,0,5.2536766,0,1 | F,0,1,1,0,5.2536766,0,1 @ F,0,1,1,0,5.2536766,0,1 @ F,0,0,1,0,5.2536766,0,1 @ F,0,1,1,0,5.2536766,0,1"
       radius="0"
       unit="px"
       method="auto"
       mode="F"
       chamfer_steps="1"
       flexible="false"
       use_knot_distance="true"
       apply_no_radius="true"
       apply_with_radius="true"
       only_selected="false"
       hide_knots="false" />
    <inkscape:path-effect
       effect="fillet_chamfer"
       id="path-effect13-9"
       is_visible="true"
       lpeversion="1"
       nodesatellites_param="F,0,1,1,0,13.994114,0,1 @ F,0,1,1,0,13.994114,0,1 @ F,0,1,1,0,13.994114,0,1 @ F,0,0,1,0,13.994114,0,1"
       radius="0"
       unit="px"
       method="auto"
       mode="F"
       chamfer_steps="1"
       flexible="false"
       use_knot_distance="true"
       apply_no_radius="true"
       apply_with_radius="true"
       only_selected="false"
       hide_knots="false" />
    <linearGradient
       id="linearGradient11"
       inkscape:collect="always">
      <stop
         style="stop-color:#00dfff;stop-opacity:1;"
         offset="0"
         id="stop11" />
      <stop
         style="stop-color:#0097ff;stop-opacity:1;"
         offset="1"
         id="stop12" />
    </linearGradient>
    <inkscape:path-effect
       effect="fillet_chamfer"
       id="path-effect11"
       is_visible="true"
       lpeversion="1"
       nodesatellites_param="F,0,1,1,0,5.2536766,0,1 @ F,0,1,1,0,5.2536766,0,1 @ F,0,1,1,0,5.2536766,0,1 @ F,0,1,1,0,5.2536766,0,1 | F,0,1,1,0,5.2536766,0,1 @ F,0,1,1,0,5.2536766,0,1 @ F,0,1,1,0,5.2536766,0,1 @ F,0,1,1,0,5.2536766,0,1 | F,0,1,1,0,5.2536766,0,1 @ F,0,1,1,0,5.2536766,0,1 @ F,0,1,1,0,5.2536766,0,1 @ F,0,1,1,0,5.2536766,0,1 | F,0,1,1,0,5.2536766,0,1 @ F,0,1,1,0,5.2536766,0,1 @ F,0,0,1,0,5.2536766,0,1 @ F,0,1,1,0,5.2536766,0,1"
       radius="0"
       unit="px"
       method="auto"
       mode="F"
       chamfer_steps="1"
       flexible="false"
       use_knot_distance="true"
       apply_no_radius="true"
       apply_with_radius="true"
       only_selected="false"
       hide_knots="false" />
    <inkscape:path-effect
       effect="fillet_chamfer"
       id="path-effect13"
       is_visible="true"
       lpeversion="1"
       nodesatellites_param="F,0,1,1,0,13.994114,0,1 @ F,0,1,1,0,13.994114,0,1 @ F,0,1,1,0,13.994114,0,1 @ F,0,0,1,0,13.994114,0,1"
       radius="0"
       unit="px"
       method="auto"
       mode="F"
       chamfer_steps="1"
       flexible="false"
       use_knot_distance="true"
       apply_no_radius="true"
       apply_with_radius="true"
       only_selected="false"
       hide_knots="false" />
    <inkscape:path-effect
       effect="fillet_chamfer"
       id="path-effect3"
       is_visible="true"
       lpeversion="1"
       nodesatellites_param="F,0,1,1,0,2.6875102,0,1 @ F,0,1,1,0,2.6875102,0,1 @ F,0,1,1,0,2.6875102,0,1 @ F,0,1,1,0,2.6875102,0,1 | F,0,1,1,0,2.6875102,0,1 @ F,0,1,1,0,2.6875102,0,1 @ F,0,1,1,0,2.6875102,0,1 @ F,0,1,1,0,2.6875102,0,1 | F,0,1,1,0,2.6875102,0,1 @ F,0,1,1,0,2.6875102,0,1 @ F,0,1,1,0,2.6875102,0,1 @ F,0,1,1,0,2.6875102,0,1 | F,0,1,1,0,2.6875102,0,1 @ F,0,1,1,0,2.6875102,0,1 @ F,0,0,1,0,2.6875102,0,1 @ F,0,1,1,0,2.6875102,0,1"
       radius="0"
       unit="px"
       method="auto"
       mode="F"
       chamfer_steps="1"
       flexible="false"
       use_knot_distance="true"
       apply_no_radius="true"
       apply_with_radius="true"
       only_selected="false"
       hide_knots="false" />
    <inkscape:path-effect
       effect="fillet_chamfer"
       id="path-effect5"
       is_visible="true"
       lpeversion="1"
       nodesatellites_param="F,0,1,1,0,2.7863876,0,1 @ F,0,1,1,0,2.7863876,0,1 @ F,0,1,1,0,2.7863876,0,1 @ F,0,1,1,0,2.7863876,0,1 | F,0,1,1,0,2.7863876,0,1 @ F,0,1,1,0,2.7863876,0,1 @ F,0,1,1,0,2.7863876,0,1 @ F,0,1,1,0,2.7863876,0,1 | F,0,1,1,0,2.7863876,0,1 @ F,0,1,1,0,2.7863876,0,1 @ F,0,1,1,0,2.7863876,0,1 @ F,0,1,1,0,2.7863876,0,1 | F,0,1,1,0,2.7863876,0,1 @ F,0,1,1,0,2.7863876,0,1 @ F,0,0,1,0,2.7863876,0,1 @ F,0,1,1,0,2.7863876,0,1"
       radius="0"
       unit="px"
       method="auto"
       mode="F"
       chamfer_steps="1"
       flexible="false"
       use_knot_distance="true"
       apply_no_radius="true"
       apply_with_radius="true"
       only_selected="false"
       hide_knots="false" />
    <radialGradient
       inkscape:collect="always"
       xlink:href="#linearGradient11"
       id="radialGradient1"
       cx="24.060026"
       cy="25.245184"
       fx="24.060026"
       fy="25.245184"
       r="19.625"
       gradientTransform="matrix(1.7250519,2.9878775,-3.0054214,1.7351809,50.521961,-97.253126)"
       gradientUnits="userSpaceOnUse" />
    <inkscape:path-effect
       effect="fillet_chamfer"
       id="path-effect11-7-7"
       is_visible="true"
       lpeversion="1"
       nodesatellites_param="F,0,1,1,0,2.6875102,0,1 @ F,0,1,1,0,2.6875102,0,1 @ F,0,1,1,0,2.6875102,0,1 @ F,0,1,1,0,2.6875102,0,1 | F,0,1,1,0,2.6875102,0,1 @ F,0,1,1,0,2.6875102,0,1 @ F,0,1,1,0,2.6875102,0,1 @ F,0,1,1,0,2.6875102,0,1 | F,0,1,1,0,2.6875102,0,1 @ F,0,1,1,0,2.6875102,0,1 @ F,0,1,1,0,2.6875102,0,1 @ F,0,1,1,0,2.6875102,0,1 | F,0,1,1,0,2.6875102,0,1 @ F,0,1,1,0,2.6875102,0,1 @ F,0,0,1,0,2.6875102,0,1 @ F,0,1,1,0,2.6875102,0,1"
       radius="0"
       unit="px"
       method="auto"
       mode="F"
       chamfer_steps="1"
       flexible="false"
       use_knot_distance="true"
       apply_no_radius="true"
       apply_with_radius="true"
       only_selected="false"
       hide_knots="false" />
    <inkscape:path-effect
       effect="fillet_chamfer"
       id="path-effect11-2-3-0"
       is_visible="true"
       lpeversion="1"
       nodesatellites_param="F,0,1,1,0,2.7863876,0,1 @ F,0,1,1,0,2.7863876,0,1 @ F,0,1,1,0,2.7863876,0,1 @ F,0,1,1,0,2.7863876,0,1 | F,0,1,1,0,2.7863876,0,1 @ F,0,1,1,0,2.7863876,0,1 @ F,0,1,1,0,2.7863876,0,1 @ F,0,1,1,0,2.7863876,0,1 | F,0,1,1,0,2.7863876,0,1 @ F,0,1,1,0,2.7863876,0,1 @ F,0,1,1,0,2.7863876,0,1 @ F,0,1,1,0,2.7863876,0,1 | F,0,1,1,0,2.7863876,0,1 @ F,0,1,1,0,2.7863876,0,1 @ F,0,0,1,0,2.7863876,0,1 @ F,0,1,1,0,2.7863876,0,1"
       radius="0"
       unit="px"
       method="auto"
       mode="F"
       chamfer_steps="1"
       flexible="false"
       use_knot_distance="true"
       apply_no_radius="true"
       apply_with_radius="true"
       only_selected="false"
       hide_knots="false" />
    <inkscape:path-effect
       effect="fillet_chamfer"
       id="path-effect3-0"
       is_visible="true"
       lpeversion="1"
       nodesatellites_param="F,0,1,1,0,2.6875102,0,1 @ F,0,1,1,0,2.6875102,0,1 @ F,0,1,1,0,2.6875102,0,1 @ F,0,1,1,0,2.6875102,0,1 | F,0,1,1,0,2.6875102,0,1 @ F,0,1,1,0,2.6875102,0,1 @ F,0,1,1,0,2.6875102,0,1 @ F,0,1,1,0,2.6875102,0,1 | F,0,1,1,0,2.6875102,0,1 @ F,0,1,1,0,2.6875102,0,1 @ F,0,1,1,0,2.6875102,0,1 @ F,0,1,1,0,2.6875102,0,1 | F,0,1,1,0,2.6875102,0,1 @ F,0,1,1,0,2.6875102,0,1 @ F,0,0,1,0,2.6875102,0,1 @ F,0,1,1,0,2.6875102,0,1"
       radius="0"
       unit="px"
       method="auto"
       mode="F"
       chamfer_steps="1"
       flexible="false"
       use_knot_distance="true"
       apply_no_radius="true"
       apply_with_radius="true"
       only_selected="false"
       hide_knots="false" />
    <filter
       inkscape:collect="always"
       style="color-interpolation-filters:sRGB"
       id="filter13"
       x="-0.14795338"
       y="-0.1470897"
       width="1.2959068"
       height="1.2941794">
      <feGaussianBlur
         inkscape:collect="always"
         stdDeviation="2.3863358"
         id="feGaussianBlur13" />
    </filter>
    <inkscape:path-effect
       effect="fillet_chamfer"
       id="path-effect5-9"
       is_visible="true"
       lpeversion="1"
       nodesatellites_param="F,0,1,1,0,2.7863876,0,1 @ F,0,1,1,0,2.7863876,0,1 @ F,0,1,1,0,2.7863876,0,1 @ F,0,1,1,0,2.7863876,0,1 | F,0,1,1,0,2.7863876,0,1 @ F,0,1,1,0,2.7863876,0,1 @ F,0,1,1,0,2.7863876,0,1 @ F,0,1,1,0,2.7863876,0,1 | F,0,1,1,0,2.7863876,0,1 @ F,0,1,1,0,2.7863876,0,1 @ F,0,1,1,0,2.7863876,0,1 @ F,0,1,1,0,2.7863876,0,1 | F,0,1,1,0,2.7863876,0,1 @ F,0,1,1,0,2.7863876,0,1 @ F,0,0,1,0,2.7863876,0,1 @ F,0,1,1,0,2.7863876,0,1"
       radius="0"
       unit="px"
       method="auto"
       mode="F"
       chamfer_steps="1"
       flexible="false"
       use_knot_distance="true"
       apply_no_radius="true"
       apply_with_radius="true"
       only_selected="false"
       hide_knots="false" />
    <radialGradient
       inkscape:collect="always"
       xlink:href="#linearGradient11"
       id="radialGradient1-3"
       cx="24.060026"
       cy="25.245184"
       fx="24.060026"
       fy="25.245184"
       r="19.625"
       gradientTransform="matrix(1.7250519,2.9878775,-3.0054214,1.7351809,50.521961,-97.253126)"
       gradientUnits="userSpaceOnUse" />
    <inkscape:path-effect
       effect="fillet_chamfer"
       id="path-effect11-7-7-6"
       is_visible="true"
       lpeversion="1"
       nodesatellites_param="F,0,1,1,0,2.6875102,0,1 @ F,0,1,1,0,2.6875102,0,1 @ F,0,1,1,0,2.6875102,0,1 @ F,0,1,1,0,2.6875102,0,1 | F,0,1,1,0,2.6875102,0,1 @ F,0,1,1,0,2.6875102,0,1 @ F,0,1,1,0,2.6875102,0,1 @ F,0,1,1,0,2.6875102,0,1 | F,0,1,1,0,2.6875102,0,1 @ F,0,1,1,0,2.6875102,0,1 @ F,0,1,1,0,2.6875102,0,1 @ F,0,1,1,0,2.6875102,0,1 | F,0,1,1,0,2.6875102,0,1 @ F,0,1,1,0,2.6875102,0,1 @ F,0,0,1,0,2.6875102,0,1 @ F,0,1,1,0,2.6875102,0,1"
       radius="0"
       unit="px"
       method="auto"
       mode="F"
       chamfer_steps="1"
       flexible="false"
       use_knot_distance="true"
       apply_no_radius="true"
       apply_with_radius="true"
       only_selected="false"
       hide_knots="false" />
    <inkscape:path-effect
       effect="fillet_chamfer"
       id="path-effect11-2-3-0-2"
       is_visible="true"
       lpeversion="1"
       nodesatellites_param="F,0,1,1,0,2.7863876,0,1 @ F,0,1,1,0,2.7863876,0,1 @ F,0,1,1,0,2.7863876,0,1 @ F,0,1,1,0,2.7863876,0,1 | F,0,1,1,0,2.7863876,0,1 @ F,0,1,1,0,2.7863876,0,1 @ F,0,1,1,0,2.7863876,0,1 @ F,0,1,1,0,2.7863876,0,1 | F,0,1,1,0,2.7863876,0,1 @ F,0,1,1,0,2.7863876,0,1 @ F,0,1,1,0,2.7863876,0,1 @ F,0,1,1,0,2.7863876,0,1 | F,0,1,1,0,2.7863876,0,1 @ F,0,1,1,0,2.7863876,0,1 @ F,0,0,1,0,2.7863876,0,1 @ F,0,1,1,0,2.7863876,0,1"
       radius="0"
       unit="px"
       method="auto"
       mode="F"
       chamfer_steps="1"
       flexible="false"
       use_knot_distance="true"
       apply_no_radius="true"
       apply_with_radius="true"
       only_selected="false"
       hide_knots="false" />
    <radialGradient
       inkscape:collect="always"
       xlink:href="#linearGradient11"
       id="radialGradient2"
       gradientUnits="userSpaceOnUse"
       gradientTransform="matrix(1.7250519,2.9878775,-3.0054214,1.7351809,50.521961,-97.253126)"
       cx="24.060026"
       cy="25.245184"
       fx="24.060026"
       fy="25.245184"
       r="19.625" />
    <filter
       inkscape:collect="always"
       style="color-interpolation-filters:sRGB"
       id="filter1"
       x="-0.086309386"
       y="-0.086328981"
       width="1.1726188"
       height="1.1726635">
      <feGaussianBlur
         inkscape:collect="always"
         stdDeviation="1.0331734"
         id="feGaussianBlur1" />
    </filter>
  </defs>
  <g
     id="g1"
     transform="translate(-9.804585,-7.9486923)">
    <path
       id="rect1-3"
       style="fill:url(#radialGradient2);stroke-width:0.329007"
       d="m 12.509766,14.916026 v 13.050761 a 2.6875102,2.6875102 45 0 0 2.68751,2.68751 h 13.048808 a 2.6875102,2.6875102 135 0 0 2.68751,-2.68751 V 14.916026 a 2.6875102,2.6875102 45 0 0 -2.68751,-2.68751 H 15.197276 a 2.6875102,2.6875102 135 0 0 -2.68751,2.68751 z m 20.652343,0.04687 v 13.050766 a 2.6875102,2.6875102 45 0 0 2.68751,2.68751 h 13.050762 a 2.6875102,2.6875102 135 0 0 2.68751,-2.68751 V 14.962901 a 2.6875109,2.6875109 45.000008 0 0 -2.68751,-2.687511 l -13.050762,-3e-6 a 2.6875095,2.6875095 135.00001 0 0 -2.68751,2.687509 z M 12.337891,35.908213 v 13.048808 a 2.6875102,2.6875102 45 0 0 2.68751,2.68751 h 13.048808 a 2.6875102,2.6875102 135 0 0 2.68751,-2.68751 l 0,-13.048808 a 2.6875102,2.6875102 45 0 0 -2.68751,-2.68751 H 15.025401 a 2.6875102,2.6875102 135 0 0 -2.68751,2.68751 z m 20.824218,0.06445 v 13.048811 a 2.6875102,2.6875102 45 0 0 2.68751,2.68751 h 13.050762 a 2.6875102,2.6875102 135 0 0 2.68751,-2.68751 V 35.972666 a 2.6875106,2.6875106 45.000005 0 0 -2.68751,-2.68751 l -13.050762,-3e-6 a 2.6875098,2.6875098 135 0 0 -2.68751,2.68751 z"
       inkscape:path-effect="#path-effect11-7-7-6"
       inkscape:original-d="M 12.509766,12.228516 V 30.654297 H 30.933594 V 12.228516 Z m 20.652343,0.04687 V 30.701172 H 51.587891 V 12.275391 Z M 12.337891,33.220703 V 51.644531 H 30.761719 V 33.220703 Z m 20.824218,0.06445 V 51.708984 H 51.587891 V 33.285156 Z"
       transform="matrix(1.2505651,0,0,1.2505651,1.7865011,-0.0550149)" />
    <path
       id="rect1-3-2"
       style="mix-blend-mode:normal;fill:none;stroke:#000000;stroke-width:0.159928;stroke-dasharray:none;stroke-opacity:1;filter:url(#filter13)"
       d="m 12.509766,15.014904 v 12.853005 a 2.7863876,2.7863876 45 0 0 2.786388,2.786388 h 12.851052 a 2.7863876,2.7863876 135 0 0 2.786388,-2.786388 V 15.014904 A 2.7863876,2.7863876 45 0 0 28.147206,12.228516 H 15.296154 a 2.7863876,2.7863876 135 0 0 -2.786388,2.786388 z m 20.652343,0.04687 v 12.85301 a 2.7863876,2.7863876 45 0 0 2.786388,2.786388 h 12.853006 a 2.7863876,2.7863876 135 0 0 2.786388,-2.786388 V 15.061779 A 2.7863884,2.7863884 45.000008 0 0 48.801503,12.27539 l -12.853006,-3e-6 a 2.7863868,2.7863868 135.00001 0 0 -2.786388,2.786387 z M 12.337891,36.007091 v 12.851052 a 2.7863876,2.7863876 45 0 0 2.786388,2.786388 h 12.851052 a 2.7863876,2.7863876 135 0 0 2.786388,-2.786388 V 36.007091 A 2.7863876,2.7863876 45 0 0 27.975331,33.220703 H 15.124279 a 2.7863876,2.7863876 135 0 0 -2.786388,2.786388 z m 20.824218,0.06445 v 12.851055 a 2.7863876,2.7863876 45 0 0 2.786388,2.786388 h 12.853006 a 2.7863876,2.7863876 135 0 0 2.786388,-2.786388 V 36.071544 a 2.7863881,2.7863881 45.000005 0 0 -2.786388,-2.786388 l -12.853006,-3e-6 a 2.7863871,2.7863871 135 0 0 -2.786388,2.786388 z"
       inkscape:path-effect="#path-effect11-2-3-0-2"
       inkscape:original-d="M 12.509766,12.228516 V 30.654297 H 30.933594 V 12.228516 Z m 20.652343,0.04687 V 30.701172 H 51.587891 V 12.275391 Z M 12.337891,33.220703 V 51.644531 H 30.761719 V 33.220703 Z m 20.824218,0.06445 V 51.708984 H 51.587891 V 33.285156 Z"
       transform="matrix(1.2505651,0,0,1.2505651,1.8329083,-0.0303115)" />
  </g>
  <path
     id="path7"
     style="color:#000000;fill:#e2efff;stroke-width:0.759148;stroke-linecap:round;stroke-linejoin:round;-inkscape-stroke:none;fill-opacity:1"
     d="m 41.767673,14.535062 a 1.3939357,1.4687126 0 0 0 -1.426367,1.466401 v 1.57019 H 19.844321 a 2.2776705,2.2776705 0 0 0 -2.277442,2.277443 v 12.146361 a 2.2776705,2.2776705 0 0 0 2.277442,2.277443 h 22.01528 v 7.591475 H 23.64006 v -1.57019 a 1.3939354,1.4687127 0 0 0 -1.426368,-1.4664 1.3939354,1.4687127 0 0 0 -0.664254,0.195717 L 18.3883,40.946578 15.228645,42.86817 a 1.3939354,1.4687127 0 0 0 0,2.545814 l 3.159655,1.921591 3.161138,1.923076 a 1.3939354,1.4687127 0 0 0 2.090622,-1.270683 v -1.568707 h 20.496984 a 2.2776705,2.2776705 0 0 0 2.277443,-2.277443 V 31.995457 a 2.2776705,2.2776705 0 0 0 -2.277443,-2.277443 h -22.01528 v -7.591475 h 18.219542 v 1.568706 a 1.3939357,1.4687126 0 0 0 2.090621,1.270682 l 3.161138,-1.923074 3.159655,-1.921593 a 1.3939357,1.4687126 0 0 0 0,-2.545812 l -3.159655,-1.921593 -3.161138,-1.923074 a 1.3939357,1.4687126 0 0 0 -0.664254,-0.195719 z" />
  <path
     id="path7-3"
     style="color:#000000;fill:none;stroke:#000aff;stroke-width:0.17014846;stroke-linecap:round;stroke-linejoin:round;stroke-dasharray:none;stroke-opacity:1;filter:url(#filter1)"
     d="m 40.370805,17.170527 a 1.18588,1.2494959 0 0 0 -1.213471,1.247529 v 1.335827 H 21.719683 A 1.9377106,1.9377106 0 0 0 19.782166,21.6914 v 10.333423 a 1.9377106,1.9377106 0 0 0 1.937517,1.937517 h 18.729329 v 6.458389 H 24.948878 v -1.335827 a 1.1858798,1.249496 0 0 0 -1.213471,-1.247529 1.1858798,1.249496 0 0 0 -0.565109,0.166505 l -2.689314,1.636042 -2.688052,1.63478 a 1.1858798,1.249496 0 0 0 0,2.165831 l 2.688052,1.634779 2.689314,1.636042 a 1.1858798,1.249496 0 0 0 1.77858,-1.081024 v -1.334565 h 17.437651 a 1.9377106,1.9377106 0 0 0 1.937517,-1.937517 V 32.024823 A 1.9377106,1.9377106 0 0 0 42.386529,30.087306 H 23.6572 v -6.458389 h 15.500134 v 1.334565 a 1.18588,1.2494959 0 0 0 1.77858,1.081023 l 2.689314,-1.636041 2.688052,-1.63478 a 1.18588,1.2494959 0 0 0 0,-2.16583 l -2.688052,-1.63478 -2.689314,-1.636041 a 1.18588,1.2494959 0 0 0 -0.565109,-0.166506 z"
     transform="matrix(1.1754441,0,0,1.1754441,-5.623529,-5.6184809)" />
</svg>
