<?xml version="1.0" encoding="UTF-8" standalone="no"?>
<svg
   width="64"
   height="64"
   version="1"
   id="svg7"
   sodipodi:docname="retroarch.svg"
   inkscape:version="1.4.3 (0d15f75042, 2025-12-25)"
   xmlns:inkscape="http://www.inkscape.org/namespaces/inkscape"
   xmlns:sodipodi="http://sodipodi.sourceforge.net/DTD/sodipodi-0.dtd"
   xmlns:xlink="http://www.w3.org/1999/xlink"
   xmlns="http://www.w3.org/2000/svg"
   xmlns:svg="http://www.w3.org/2000/svg">
  <defs
     id="defs7">
    <inkscape:path-effect
       effect="fillet_chamfer"
       id="path-effect7"
       is_visible="true"
       lpeversion="1"
       nodesatellites_param="F,0,1,1,0,0.62720318,0,1 @ F,0,1,1,0,0.62720318,0,1 @ F,0,1,1,0,0.62720318,0,1 @ F,0,1,1,0,0.62720318,0,1 | F,0,1,1,0,0.62720318,0,1 @ F,0,1,1,0,0.62720318,0,1 @ F,0,1,1,0,0.62720318,0,1 @ F,0,1,1,0,0.62720318,0,1 | F,0,1,1,0,0.62720318,0,1 @ F,0,1,1,0,0.62720318,0,1 @ F,0,1,1,0,0.62720318,0,1 @ F,0,1,1,0,0.62720318,0,1 | F,0,1,1,0,0.62720318,0,1 @ F,0,1,1,0,0.62720318,0,1 @ F,0,1,1,0,0.62720318,0,1 @ F,0,1,1,0,0.62720318,0,1 | F,0,1,1,0,0.62720318,0,1 @ F,0,1,1,0,0.62720318,0,1 @ F,0,1,1,0,0.62720318,0,1 @ F,0,1,1,0,0.62720318,0,1 | F,0,1,1,0,0.62720318,0,1 @ F,0,1,1,0,0.62720318,0,1 @ F,0,1,1,0,0.62720318,0,1 @ F,0,1,1,0,0.62720318,0,1 @ F,0,1,1,0,0.62720318,0,1 @ F,0,1,1,0,0.62720318,0,1 @ F,0,1,1,0,0.62720318,0,1 @ F,0,1,1,0,0.62720318,0,1 @ F,0,1,1,0,0.62720318,0,1 @ F,0,1,1,0,0.62720318,0,1 @ F,0,1,1,0,0.62720318,0,1 @ F,0,1,1,0,0.62720318,0,1 @ F,0,1,1,0,0.62720318,0,1 @ F,0,1,1,0,0.62720318,0,1 @ F,0,1,1,0,0.62720318,0,1 @ F,0,1,1,0,0.62720318,0,1 @ F,0,1,1,0,0.62720318,0,1 @ F,0,1,1,0,0.62720318,0,1 @ F,0,1,1,0,0.62720318,0,1 @ F,0,1,1,0,0.62720318,0,1 @ F,0,1,1,0,0.62720318,0,1 @ F,0,1,1,0,0.62720318,0,1 @ F,0,1,1,0,0.62720318,0,1 @ F,0,1,1,0,0.62720318,0,1 @ F,0,1,1,0,0.62720318,0,1 @ F,0,1,1,0,0.62720318,0,1 @ F,0,1,1,0,0.62720318,0,1 @ F,0,1,1,0,0.62720318,0,1 @ F,0,1,1,0,0.62720318,0,1 @ F,0,1,1,0,0.62720318,0,1 @ F,0,1,1,0,0.62720318,0,1 @ F,0,1,1,0,0.62720318,0,1 | F,0,0,1,0,0.62720318,0,1 @ F,0,1,1,0,0.62720318,0,1 @ F,0,1,1,0,0.62720318,0,1 @ F,0,1,1,0,0.62720318,0,1"
       radius="0"
       unit="px"
       method="auto"
       mode="F"
       chamfer_steps="1"
       flexible="false"
       use_knot_distance="true"
       apply_no_radius="true"
       apply_with_radius="true"
       only_selected="false"
       hide_knots="false" />
    <linearGradient
       id="1"
       y1="38"
       x2="0"
       y2="13"
       gradientUnits="userSpaceOnUse"
       gradientTransform="matrix(1.6850048,0,0,1.6850048,-9.1191706,-8.4375891)">
      <stop
         stop-color="#00cafe"
         id="stop3" />
      <stop
         offset="1"
         stop-color="#1460f3"
         id="stop4" />
    </linearGradient>
    <inkscape:path-effect
       effect="fillet_chamfer"
       id="path-effect7-5"
       is_visible="true"
       lpeversion="1"
       nodesatellites_param="F,0,1,1,0,0.62720318,0,1 @ F,0,1,1,0,0.62720318,0,1 @ F,0,1,1,0,0.62720318,0,1 @ F,0,1,1,0,0.62720318,0,1 | F,0,1,1,0,0.62720318,0,1 @ F,0,1,1,0,0.62720318,0,1 @ F,0,1,1,0,0.62720318,0,1 @ F,0,1,1,0,0.62720318,0,1 | F,0,1,1,0,0.62720318,0,1 @ F,0,1,1,0,0.62720318,0,1 @ F,0,1,1,0,0.62720318,0,1 @ F,0,1,1,0,0.62720318,0,1 | F,0,1,1,0,0.62720318,0,1 @ F,0,1,1,0,0.62720318,0,1 @ F,0,1,1,0,0.62720318,0,1 @ F,0,1,1,0,0.62720318,0,1 | F,0,1,1,0,0.62720318,0,1 @ F,0,1,1,0,0.62720318,0,1 @ F,0,1,1,0,0.62720318,0,1 @ F,0,1,1,0,0.62720318,0,1 | F,0,1,1,0,0.62720318,0,1 @ F,0,1,1,0,0.62720318,0,1 @ F,0,1,1,0,0.62720318,0,1 @ F,0,1,1,0,0.62720318,0,1 @ F,0,1,1,0,0.62720318,0,1 @ F,0,1,1,0,0.62720318,0,1 @ F,0,1,1,0,0.62720318,0,1 @ F,0,1,1,0,0.62720318,0,1 @ F,0,1,1,0,0.62720318,0,1 @ F,0,1,1,0,0.62720318,0,1 @ F,0,1,1,0,0.62720318,0,1 @ F,0,1,1,0,0.62720318,0,1 @ F,0,1,1,0,0.62720318,0,1 @ F,0,1,1,0,0.62720318,0,1 @ F,0,1,1,0,0.62720318,0,1 @ F,0,1,1,0,0.62720318,0,1 @ F,0,1,1,0,0.62720318,0,1 @ F,0,1,1,0,0.62720318,0,1 @ F,0,1,1,0,0.62720318,0,1 @ F,0,1,1,0,0.62720318,0,1 @ F,0,1,1,0,0.62720318,0,1 @ F,0,1,1,0,0.62720318,0,1 @ F,0,1,1,0,0.62720318,0,1 @ F,0,1,1,0,0.62720318,0,1 @ F,0,1,1,0,0.62720318,0,1 @ F,0,1,1,0,0.62720318,0,1 @ F,0,1,1,0,0.62720318,0,1 @ F,0,1,1,0,0.62720318,0,1 @ F,0,1,1,0,0.62720318,0,1 @ F,0,1,1,0,0.62720318,0,1 @ F,0,1,1,0,0.62720318,0,1 @ F,0,1,1,0,0.62720318,0,1 | F,0,0,1,0,0.62720318,0,1 @ F,0,1,1,0,0.62720318,0,1 @ F,0,1,1,0,0.62720318,0,1 @ F,0,1,1,0,0.62720318,0,1"
       radius="0"
       unit="px"
       method="auto"
       mode="F"
       chamfer_steps="1"
       flexible="false"
       use_knot_distance="true"
       apply_no_radius="true"
       apply_with_radius="true"
       only_selected="false"
       hide_knots="false" />
    <inkscape:path-effect
       effect="fillet_chamfer"
       id="path-effect7-0"
       is_visible="true"
       lpeversion="1"
       nodesatellites_param="F,0,1,1,0,0.62720318,0,1 @ F,0,1,1,0,0.62720318,0,1 @ F,0,1,1,0,0.62720318,0,1 @ F,0,1,1,0,0.62720318,0,1 | F,0,1,1,0,0.62720318,0,1 @ F,0,1,1,0,0.62720318,0,1 @ F,0,1,1,0,0.62720318,0,1 @ F,0,1,1,0,0.62720318,0,1 | F,0,1,1,0,0.62720318,0,1 @ F,0,1,1,0,0.62720318,0,1 @ F,0,1,1,0,0.62720318,0,1 @ F,0,1,1,0,0.62720318,0,1 | F,0,1,1,0,0.62720318,0,1 @ F,0,1,1,0,0.62720318,0,1 @ F,0,1,1,0,0.62720318,0,1 @ F,0,1,1,0,0.62720318,0,1 | F,0,1,1,0,0.62720318,0,1 @ F,0,1,1,0,0.62720318,0,1 @ F,0,1,1,0,0.62720318,0,1 @ F,0,1,1,0,0.62720318,0,1 | F,0,1,1,0,0.62720318,0,1 @ F,0,1,1,0,0.62720318,0,1 @ F,0,1,1,0,0.62720318,0,1 @ F,0,1,1,0,0.62720318,0,1 @ F,0,1,1,0,0.62720318,0,1 @ F,0,1,1,0,0.62720318,0,1 @ F,0,1,1,0,0.62720318,0,1 @ F,0,1,1,0,0.62720318,0,1 @ F,0,1,1,0,0.62720318,0,1 @ F,0,1,1,0,0.62720318,0,1 @ F,0,1,1,0,0.62720318,0,1 @ F,0,1,1,0,0.62720318,0,1 @ F,0,1,1,0,0.62720318,0,1 @ F,0,1,1,0,0.62720318,0,1 @ F,0,1,1,0,0.62720318,0,1 @ F,0,1,1,0,0.62720318,0,1 @ F,0,1,1,0,0.62720318,0,1 @ F,0,1,1,0,0.62720318,0,1 @ F,0,1,1,0,0.62720318,0,1 @ F,0,1,1,0,0.62720318,0,1 @ F,0,1,1,0,0.62720318,0,1 @ F,0,1,1,0,0.62720318,0,1 @ F,0,1,1,0,0.62720318,0,1 @ F,0,1,1,0,0.62720318,0,1 @ F,0,1,1,0,0.62720318,0,1 @ F,0,1,1,0,0.62720318,0,1 @ F,0,1,1,0,0.62720318,0,1 @ F,0,1,1,0,0.62720318,0,1 @ F,0,1,1,0,0.62720318,0,1 @ F,0,1,1,0,0.62720318,0,1 @ F,0,1,1,0,0.62720318,0,1 @ F,0,1,1,0,0.62720318,0,1 | F,0,0,1,0,0.62720318,0,1 @ F,0,1,1,0,0.62720318,0,1 @ F,0,1,1,0,0.62720318,0,1 @ F,0,1,1,0,0.62720318,0,1"
       radius="0"
       unit="px"
       method="auto"
       mode="F"
       chamfer_steps="1"
       flexible="false"
       use_knot_distance="true"
       apply_no_radius="true"
       apply_with_radius="true"
       only_selected="false"
       hide_knots="false" />
    <inkscape:path-effect
       effect="fillet_chamfer"
       id="path-effect7-0-5"
       is_visible="true"
       lpeversion="1"
       nodesatellites_param="F,0,1,1,0,0.62720318,0,1 @ F,0,1,1,0,0.62720318,0,1 @ F,0,1,1,0,0.62720318,0,1 @ F,0,1,1,0,0.62720318,0,1 | F,0,1,1,0,0.62720318,0,1 @ F,0,1,1,0,0.62720318,0,1 @ F,0,1,1,0,0.62720318,0,1 @ F,0,1,1,0,0.62720318,0,1 | F,0,1,1,0,0.62720318,0,1 @ F,0,1,1,0,0.62720318,0,1 @ F,0,1,1,0,0.62720318,0,1 @ F,0,1,1,0,0.62720318,0,1 | F,0,1,1,0,0.62720318,0,1 @ F,0,1,1,0,0.62720318,0,1 @ F,0,1,1,0,0.62720318,0,1 @ F,0,1,1,0,0.62720318,0,1 | F,0,1,1,0,0.62720318,0,1 @ F,0,1,1,0,0.62720318,0,1 @ F,0,1,1,0,0.62720318,0,1 @ F,0,1,1,0,0.62720318,0,1 | F,0,1,1,0,0.62720318,0,1 @ F,0,1,1,0,0.62720318,0,1 @ F,0,1,1,0,0.62720318,0,1 @ F,0,1,1,0,0.62720318,0,1 @ F,0,1,1,0,0.62720318,0,1 @ F,0,1,1,0,0.62720318,0,1 @ F,0,1,1,0,0.62720318,0,1 @ F,0,1,1,0,0.62720318,0,1 @ F,0,1,1,0,0.62720318,0,1 @ F,0,1,1,0,0.62720318,0,1 @ F,0,1,1,0,0.62720318,0,1 @ F,0,1,1,0,0.62720318,0,1 @ F,0,1,1,0,0.62720318,0,1 @ F,0,1,1,0,0.62720318,0,1 @ F,0,1,1,0,0.62720318,0,1 @ F,0,1,1,0,0.62720318,0,1 @ F,0,1,1,0,0.62720318,0,1 @ F,0,1,1,0,0.62720318,0,1 @ F,0,1,1,0,0.62720318,0,1 @ F,0,1,1,0,0.62720318,0,1 @ F,0,1,1,0,0.62720318,0,1 @ F,0,1,1,0,0.62720318,0,1 @ F,0,1,1,0,0.62720318,0,1 @ F,0,1,1,0,0.62720318,0,1 @ F,0,1,1,0,0.62720318,0,1 @ F,0,1,1,0,0.62720318,0,1 @ F,0,1,1,0,0.62720318,0,1 @ F,0,1,1,0,0.62720318,0,1 @ F,0,1,1,0,0.62720318,0,1 @ F,0,1,1,0,0.62720318,0,1 @ F,0,1,1,0,0.62720318,0,1 @ F,0,1,1,0,0.62720318,0,1 | F,0,0,1,0,0.62720318,0,1 @ F,0,1,1,0,0.62720318,0,1 @ F,0,1,1,0,0.62720318,0,1 @ F,0,1,1,0,0.62720318,0,1"
       radius="0"
       unit="px"
       method="auto"
       mode="F"
       chamfer_steps="1"
       flexible="false"
       use_knot_distance="true"
       apply_no_radius="true"
       apply_with_radius="true"
       only_selected="false"
       hide_knots="false" />
    <radialGradient
       inkscape:collect="always"
       xlink:href="#linearGradient11"
       id="radialGradient5-3"
       cx="34.562672"
       cy="41.981041"
       fx="34.562672"
       fy="41.981041"
       r="23.829388"
       gradientTransform="matrix(-3.3421384,-0.89552326,0.82164822,-3.0664329,137.63297,168.07343)"
       gradientUnits="userSpaceOnUse" />
    <inkscape:path-effect
       effect="fillet_chamfer"
       id="path-effect7-0-53"
       is_visible="true"
       lpeversion="1"
       nodesatellites_param="F,0,1,1,0,0.62720318,0,1 @ F,0,1,1,0,0.62720318,0,1 @ F,0,1,1,0,0.62720318,0,1 @ F,0,1,1,0,0.62720318,0,1 | F,0,1,1,0,0.62720318,0,1 @ F,0,1,1,0,0.62720318,0,1 @ F,0,1,1,0,0.62720318,0,1 @ F,0,1,1,0,0.62720318,0,1 | F,0,1,1,0,0.62720318,0,1 @ F,0,1,1,0,0.62720318,0,1 @ F,0,1,1,0,0.62720318,0,1 @ F,0,1,1,0,0.62720318,0,1 | F,0,1,1,0,0.62720318,0,1 @ F,0,1,1,0,0.62720318,0,1 @ F,0,1,1,0,0.62720318,0,1 @ F,0,1,1,0,0.62720318,0,1 | F,0,1,1,0,0.62720318,0,1 @ F,0,1,1,0,0.62720318,0,1 @ F,0,1,1,0,0.62720318,0,1 @ F,0,1,1,0,0.62720318,0,1 | F,0,1,1,0,0.62720318,0,1 @ F,0,1,1,0,0.62720318,0,1 @ F,0,1,1,0,0.62720318,0,1 @ F,0,1,1,0,0.62720318,0,1 @ F,0,1,1,0,0.62720318,0,1 @ F,0,1,1,0,0.62720318,0,1 @ F,0,1,1,0,0.62720318,0,1 @ F,0,1,1,0,0.62720318,0,1 @ F,0,1,1,0,0.62720318,0,1 @ F,0,1,1,0,0.62720318,0,1 @ F,0,1,1,0,0.62720318,0,1 @ F,0,1,1,0,0.62720318,0,1 @ F,0,1,1,0,0.62720318,0,1 @ F,0,1,1,0,0.62720318,0,1 @ F,0,1,1,0,0.62720318,0,1 @ F,0,1,1,0,0.62720318,0,1 @ F,0,1,1,0,0.62720318,0,1 @ F,0,1,1,0,0.62720318,0,1 @ F,0,1,1,0,0.62720318,0,1 @ F,0,1,1,0,0.62720318,0,1 @ F,0,1,1,0,0.62720318,0,1 @ F,0,1,1,0,0.62720318,0,1 @ F,0,1,1,0,0.62720318,0,1 @ F,0,1,1,0,0.62720318,0,1 @ F,0,1,1,0,0.62720318,0,1 @ F,0,1,1,0,0.62720318,0,1 @ F,0,1,1,0,0.62720318,0,1 @ F,0,1,1,0,0.62720318,0,1 @ F,0,1,1,0,0.62720318,0,1 @ F,0,1,1,0,0.62720318,0,1 @ F,0,1,1,0,0.62720318,0,1 @ F,0,1,1,0,0.62720318,0,1 | F,0,0,1,0,0.62720318,0,1 @ F,0,1,1,0,0.62720318,0,1 @ F,0,1,1,0,0.62720318,0,1 @ F,0,1,1,0,0.62720318,0,1"
       radius="0"
       unit="px"
       method="auto"
       mode="F"
       chamfer_steps="1"
       flexible="false"
       use_knot_distance="true"
       apply_no_radius="true"
       apply_with_radius="true"
       only_selected="false"
       hide_knots="false" />
    <radialGradient
       inkscape:collect="always"
       xlink:href="#linearGradient11"
       id="radialGradient5-3-2"
       cx="34.562672"
       cy="41.981041"
       fx="34.562672"
       fy="41.981041"
       r="23.829388"
       gradientTransform="matrix(-3.6811679,-0.98636595,0.90499695,-3.3774946,147.57055,182.96002)"
       gradientUnits="userSpaceOnUse" />
    <inkscape:path-effect
       effect="fillet_chamfer"
       id="path-effect7-0-53-2"
       is_visible="true"
       lpeversion="1"
       nodesatellites_param="F,0,1,1,0,0.62720318,0,1 @ F,0,1,1,0,0.62720318,0,1 @ F,0,1,1,0,0.62720318,0,1 @ F,0,1,1,0,0.62720318,0,1 | F,0,1,1,0,0.62720318,0,1 @ F,0,1,1,0,0.62720318,0,1 @ F,0,1,1,0,0.62720318,0,1 @ F,0,1,1,0,0.62720318,0,1 | F,0,1,1,0,0.62720318,0,1 @ F,0,1,1,0,0.62720318,0,1 @ F,0,1,1,0,0.62720318,0,1 @ F,0,1,1,0,0.62720318,0,1 | F,0,1,1,0,0.62720318,0,1 @ F,0,1,1,0,0.62720318,0,1 @ F,0,1,1,0,0.62720318,0,1 @ F,0,1,1,0,0.62720318,0,1 | F,0,1,1,0,0.62720318,0,1 @ F,0,1,1,0,0.62720318,0,1 @ F,0,1,1,0,0.62720318,0,1 @ F,0,1,1,0,0.62720318,0,1 | F,0,1,1,0,0.62720318,0,1 @ F,0,1,1,0,0.62720318,0,1 @ F,0,1,1,0,0.62720318,0,1 @ F,0,1,1,0,0.62720318,0,1 @ F,0,1,1,0,0.62720318,0,1 @ F,0,1,1,0,0.62720318,0,1 @ F,0,1,1,0,0.62720318,0,1 @ F,0,1,1,0,0.62720318,0,1 @ F,0,1,1,0,0.62720318,0,1 @ F,0,1,1,0,0.62720318,0,1 @ F,0,1,1,0,0.62720318,0,1 @ F,0,1,1,0,0.62720318,0,1 @ F,0,1,1,0,0.62720318,0,1 @ F,0,1,1,0,0.62720318,0,1 @ F,0,1,1,0,0.62720318,0,1 @ F,0,1,1,0,0.62720318,0,1 @ F,0,1,1,0,0.62720318,0,1 @ F,0,1,1,0,0.62720318,0,1 @ F,0,1,1,0,0.62720318,0,1 @ F,0,1,1,0,0.62720318,0,1 @ F,0,1,1,0,0.62720318,0,1 @ F,0,1,1,0,0.62720318,0,1 @ F,0,1,1,0,0.62720318,0,1 @ F,0,1,1,0,0.62720318,0,1 @ F,0,1,1,0,0.62720318,0,1 @ F,0,1,1,0,0.62720318,0,1 @ F,0,1,1,0,0.62720318,0,1 @ F,0,1,1,0,0.62720318,0,1 @ F,0,1,1,0,0.62720318,0,1 @ F,0,1,1,0,0.62720318,0,1 @ F,0,1,1,0,0.62720318,0,1 @ F,0,1,1,0,0.62720318,0,1 | F,0,0,1,0,0.62720318,0,1 @ F,0,1,1,0,0.62720318,0,1 @ F,0,1,1,0,0.62720318,0,1 @ F,0,1,1,0,0.62720318,0,1"
       radius="0"
       unit="px"
       method="auto"
       mode="F"
       chamfer_steps="1"
       flexible="false"
       use_knot_distance="true"
       apply_no_radius="true"
       apply_with_radius="true"
       only_selected="false"
       hide_knots="false" />
    <filter
       inkscape:collect="always"
       style="color-interpolation-filters:sRGB"
       id="filter4"
       x="-0.023730774"
       y="-0.032995355"
       width="1.0474615"
       height="1.0659907">
      <feGaussianBlur
         inkscape:collect="always"
         stdDeviation="0.50422103"
         id="feGaussianBlur4" />
    </filter>
    <linearGradient
       id="linearGradient11"
       inkscape:collect="always">
      <stop
         style="stop-color:#83d03e;stop-opacity:1;"
         offset="0"
         id="stop11" />
      <stop
         style="stop-color:#3cbbca;stop-opacity:1;"
         offset="1"
         id="stop12" />
    </linearGradient>
    <inkscape:path-effect
       effect="fillet_chamfer"
       id="path-effect7-0-53-7"
       is_visible="true"
       lpeversion="1"
       nodesatellites_param="F,0,1,1,0,0.62720318,0,1 @ F,0,1,1,0,0.62720318,0,1 @ F,0,1,1,0,0.62720318,0,1 @ F,0,1,1,0,0.62720318,0,1 | F,0,1,1,0,0.62720318,0,1 @ F,0,1,1,0,0.62720318,0,1 @ F,0,1,1,0,0.62720318,0,1 @ F,0,1,1,0,0.62720318,0,1 | F,0,1,1,0,0.62720318,0,1 @ F,0,1,1,0,0.62720318,0,1 @ F,0,1,1,0,0.62720318,0,1 @ F,0,1,1,0,0.62720318,0,1 | F,0,1,1,0,0.62720318,0,1 @ F,0,1,1,0,0.62720318,0,1 @ F,0,1,1,0,0.62720318,0,1 @ F,0,1,1,0,0.62720318,0,1 | F,0,1,1,0,0.62720318,0,1 @ F,0,1,1,0,0.62720318,0,1 @ F,0,1,1,0,0.62720318,0,1 @ F,0,1,1,0,0.62720318,0,1 | F,0,1,1,0,0.62720318,0,1 @ F,0,1,1,0,0.62720318,0,1 @ F,0,1,1,0,0.62720318,0,1 @ F,0,1,1,0,0.62720318,0,1 @ F,0,1,1,0,0.62720318,0,1 @ F,0,1,1,0,0.62720318,0,1 @ F,0,1,1,0,0.62720318,0,1 @ F,0,1,1,0,0.62720318,0,1 @ F,0,1,1,0,0.62720318,0,1 @ F,0,1,1,0,0.62720318,0,1 @ F,0,1,1,0,0.62720318,0,1 @ F,0,1,1,0,0.62720318,0,1 @ F,0,1,1,0,0.62720318,0,1 @ F,0,1,1,0,0.62720318,0,1 @ F,0,1,1,0,0.62720318,0,1 @ F,0,1,1,0,0.62720318,0,1 @ F,0,1,1,0,0.62720318,0,1 @ F,0,1,1,0,0.62720318,0,1 @ F,0,1,1,0,0.62720318,0,1 @ F,0,1,1,0,0.62720318,0,1 @ F,0,1,1,0,0.62720318,0,1 @ F,0,1,1,0,0.62720318,0,1 @ F,0,1,1,0,0.62720318,0,1 @ F,0,1,1,0,0.62720318,0,1 @ F,0,1,1,0,0.62720318,0,1 @ F,0,1,1,0,0.62720318,0,1 @ F,0,1,1,0,0.62720318,0,1 @ F,0,1,1,0,0.62720318,0,1 @ F,0,1,1,0,0.62720318,0,1 @ F,0,1,1,0,0.62720318,0,1 @ F,0,1,1,0,0.62720318,0,1 @ F,0,1,1,0,0.62720318,0,1 | F,0,0,1,0,0.62720318,0,1 @ F,0,1,1,0,0.62720318,0,1 @ F,0,1,1,0,0.62720318,0,1 @ F,0,1,1,0,0.62720318,0,1"
       radius="0"
       unit="px"
       method="auto"
       mode="F"
       chamfer_steps="1"
       flexible="false"
       use_knot_distance="true"
       apply_no_radius="true"
       apply_with_radius="true"
       only_selected="false"
       hide_knots="false" />
  </defs>
  <sodipodi:namedview
     id="namedview7"
     pagecolor="#ffffff"
     bordercolor="#000000"
     borderopacity="0.25"
     inkscape:showpageshadow="2"
     inkscape:pageopacity="0.0"
     inkscape:pagecheckerboard="false"
     inkscape:deskcolor="#414141"
     inkscape:zoom="12.369028"
     inkscape:cx="30.802743"
     inkscape:cy="32.864344"
     inkscape:window-width="1920"
     inkscape:window-height="1020"
     inkscape:window-x="0"
     inkscape:window-y="0"
     inkscape:window-maximized="1"
     inkscape:current-layer="svg7"
     labelstyle="default"
     showgrid="true" />
  <path
     style="opacity:1;fill:#00744c;fill-rule:evenodd;stroke-width:0;stroke-miterlimit:4;fill-opacity:1"
     id="path5222-6-6-9"
     stroke-miterlimit="4"
     d="m 39.205205,27.311164 0,3.07821 a 0.62720318,0.62720318 45 0 0 0.627203,0.627203 h 3.07821 a 0.62720318,0.62720318 135 0 0 0.627203,-0.627203 l 0,-3.07821 a 0.62720318,0.62720318 45 0 0 -0.627203,-0.627203 l -3.07821,0 a 0.62720318,0.62720318 135 0 0 -0.627203,0.627203 z m -17.330464,0 v 3.07821 a 0.62720318,0.62720318 45 0 0 0.627203,0.627203 h 3.07821 a 0.62720318,0.62720318 135 0 0 0.627203,-0.627203 v -3.07821 a 0.62720318,0.62720318 45 0 0 -0.627203,-0.627203 l -3.07821,0 a 0.62720318,0.62720318 135 0 0 -0.627203,0.627203 z m 0.627203,16.703261 7.410826,0 a 0.62720318,0.62720318 45 0 1 0.627203,0.627203 v 3.07821 a 0.62720318,0.62720318 135 0 1 -0.627203,0.627203 h -7.410826 a 0.62720318,0.62720318 45 0 1 -0.627203,-0.627203 v -3.07821 a 0.62720318,0.62720318 135 0 1 0.627203,-0.627203 z m 21.035877,0.627203 0,3.07821 a 0.62720318,0.62720318 135 0 1 -0.627203,0.627203 h -7.410826 a 0.62720318,0.62720318 45 0 1 -0.627203,-0.627203 v -3.07821 a 0.62720318,0.62720318 135 0 1 0.627203,-0.627203 h 7.410826 a 0.62720318,0.62720318 45 0 1 0.627203,0.627203 z m 0,-27.250102 v -3.07821 a 0.62720318,0.62720318 135 0 1 0.627203,-0.627203 h 3.07821 a 0.62720318,0.62720318 45 0 1 0.627203,0.627203 l 0,3.07821 a 0.62720318,0.62720318 135 0 1 -0.627203,0.627203 h -3.07821 a 0.62720318,0.62720318 45 0 1 -0.627203,-0.627203 z m -21.035877,0.627203 h 3.07821 a 0.62720318,0.62720318 45 0 1 0.627203,0.627203 l 0,3.07821 a 0.62720318,0.62720318 45 0 0 0.627203,0.627203 h 11.743442 a 0.62720318,0.62720318 135 0 0 0.627203,-0.627203 v -3.07821 a 0.62720318,0.62720318 135 0 1 0.627203,-0.627203 h 3.07821 a 0.62720318,0.62720318 45 0 1 0.627203,0.627203 l 0,3.07821 a 0.62720318,0.62720318 45 0 0 0.627203,0.627203 l 3.07821,0 a 0.62720318,0.62720318 45 0 1 0.627203,0.627203 v 3.07821 a 0.62720318,0.62720318 45 0 0 0.627203,0.627203 h 3.07821 a 0.62720318,0.62720318 45 0 1 0.627203,0.627203 v 3.07821 a 0.62720318,0.62720318 45 0 0 0.627203,0.627203 h 3.07821 a 0.62720318,0.62720318 45 0 1 0.627203,0.627203 v 11.743442 a 0.62720318,0.62720318 135 0 1 -0.627203,0.627203 h -3.07821 A 0.62720318,0.62720318 45 0 1 52.203053,43.387222 V 35.976396 A 0.62720318,0.62720318 45 0 0 51.57585,35.349193 h -3.07821 a 0.62720318,0.62720318 135 0 0 -0.627203,0.627203 l 0,7.410826 a 0.62720318,0.62720318 135 0 1 -0.627203,0.627203 h -3.07821 a 0.62720318,0.62720318 45 0 1 -0.627203,-0.627203 l 0,-3.07821 A 0.62720318,0.62720318 45 0 0 42.910618,39.681809 H 22.501944 a 0.62720318,0.62720318 135 0 0 -0.627203,0.627203 v 3.07821 a 0.62720318,0.62720318 135 0 1 -0.627203,0.627203 h -3.07821 a 0.62720318,0.62720318 45 0 1 -0.627203,-0.627203 v -7.410826 a 0.62720318,0.62720318 45 0 0 -0.627203,-0.627203 h -3.07821 a 0.62720318,0.62720318 135 0 0 -0.627203,0.627203 v 7.410826 a 0.62720318,0.62720318 135 0 1 -0.627203,0.627203 H 9.5040957 A 0.62720318,0.62720318 45 0 1 8.8768925,43.387222 V 31.64378 a 0.62720318,0.62720318 135 0 1 0.6272032,-0.627203 l 3.0782103,0 a 0.62720318,0.62720318 135 0 0 0.627203,-0.627203 v -3.07821 a 0.62720318,0.62720318 135 0 1 0.627203,-0.627203 h 3.07821 a 0.62720318,0.62720318 135 0 0 0.627203,-0.627203 v -3.07821 a 0.62720318,0.62720318 135 0 1 0.627203,-0.627203 l 3.07821,0 a 0.62720318,0.62720318 135 0 0 0.627203,-0.627203 v -3.07821 a 0.62720318,0.62720318 135 0 1 0.627203,-0.627203 z m -4.332616,-4.332616 h 3.07821 a 0.62720318,0.62720318 45 0 1 0.627203,0.627203 v 3.07821 a 0.62720318,0.62720318 135 0 1 -0.627203,0.627203 h -3.07821 a 0.62720318,0.62720318 45 0 1 -0.627203,-0.627203 v -3.07821 a 0.62720318,0.62720318 135 0 1 0.627203,-0.627203 z"
     inkscape:path-effect="#path-effect7-0-53-7"
     inkscape:original-d="m 39.205205,26.683961 v 4.332616 h 4.332616 v -4.332616 z m -17.330464,0 v 4.332616 h 4.332616 v -4.332616 z m 0,17.330464 h 8.665232 v 4.332616 h -8.665232 z m 21.66308,0 v 4.332616 h -8.665232 v -4.332616 z m 0,-25.995696 v -4.332616 h 4.332616 v 4.332616 z m -21.66308,0 h 4.332616 v 4.332616 h 12.997848 v -4.332616 h 4.332616 v 4.332616 h 4.332616 v 4.332616 h 4.332616 v 4.332616 h 4.332616 v 12.997848 h -4.332616 v -8.665232 h -4.332616 v 8.665232 h -4.332616 v -4.332616 h -21.66308 v 4.332616 h -4.332616 v -8.665232 h -4.332616 v 8.665232 H 8.8768925 V 31.016577 h 4.3326165 v -4.332616 h 4.332616 v -4.332616 h 4.332616 z m -4.332616,-4.332616 h 4.332616 v 4.332616 h -4.332616 z"
     transform="matrix(1.1014409,0,0,1.1014409,-4.0240353,-2.1629265)" />
  <path
     style="fill:url(#radialGradient5-3);fill-rule:evenodd;stroke-width:0;stroke-miterlimit:4;opacity:0.72409676"
     id="path5222-6-6"
     stroke-miterlimit="4"
     d="m 39.205205,27.311164 0,3.07821 a 0.62720318,0.62720318 45 0 0 0.627203,0.627203 h 3.07821 a 0.62720318,0.62720318 135 0 0 0.627203,-0.627203 l 0,-3.07821 a 0.62720318,0.62720318 45 0 0 -0.627203,-0.627203 l -3.07821,0 a 0.62720318,0.62720318 135 0 0 -0.627203,0.627203 z m -17.330464,0 v 3.07821 a 0.62720318,0.62720318 45 0 0 0.627203,0.627203 h 3.07821 a 0.62720318,0.62720318 135 0 0 0.627203,-0.627203 v -3.07821 a 0.62720318,0.62720318 45 0 0 -0.627203,-0.627203 l -3.07821,0 a 0.62720318,0.62720318 135 0 0 -0.627203,0.627203 z m 0.627203,16.703261 7.410826,0 a 0.62720318,0.62720318 45 0 1 0.627203,0.627203 v 3.07821 a 0.62720318,0.62720318 135 0 1 -0.627203,0.627203 h -7.410826 a 0.62720318,0.62720318 45 0 1 -0.627203,-0.627203 v -3.07821 a 0.62720318,0.62720318 135 0 1 0.627203,-0.627203 z m 21.035877,0.627203 0,3.07821 a 0.62720318,0.62720318 135 0 1 -0.627203,0.627203 h -7.410826 a 0.62720318,0.62720318 45 0 1 -0.627203,-0.627203 v -3.07821 a 0.62720318,0.62720318 135 0 1 0.627203,-0.627203 h 7.410826 a 0.62720318,0.62720318 45 0 1 0.627203,0.627203 z m 0,-27.250102 v -3.07821 a 0.62720318,0.62720318 135 0 1 0.627203,-0.627203 h 3.07821 a 0.62720318,0.62720318 45 0 1 0.627203,0.627203 l 0,3.07821 a 0.62720318,0.62720318 135 0 1 -0.627203,0.627203 h -3.07821 a 0.62720318,0.62720318 45 0 1 -0.627203,-0.627203 z m -21.035877,0.627203 h 3.07821 a 0.62720318,0.62720318 45 0 1 0.627203,0.627203 l 0,3.07821 a 0.62720318,0.62720318 45 0 0 0.627203,0.627203 h 11.743442 a 0.62720318,0.62720318 135 0 0 0.627203,-0.627203 v -3.07821 a 0.62720318,0.62720318 135 0 1 0.627203,-0.627203 h 3.07821 a 0.62720318,0.62720318 45 0 1 0.627203,0.627203 l 0,3.07821 a 0.62720318,0.62720318 45 0 0 0.627203,0.627203 l 3.07821,0 a 0.62720318,0.62720318 45 0 1 0.627203,0.627203 v 3.07821 a 0.62720318,0.62720318 45 0 0 0.627203,0.627203 h 3.07821 a 0.62720318,0.62720318 45 0 1 0.627203,0.627203 v 3.07821 a 0.62720318,0.62720318 45 0 0 0.627203,0.627203 h 3.07821 a 0.62720318,0.62720318 45 0 1 0.627203,0.627203 v 11.743442 a 0.62720318,0.62720318 135 0 1 -0.627203,0.627203 h -3.07821 A 0.62720318,0.62720318 45 0 1 52.203053,43.387222 V 35.976396 A 0.62720318,0.62720318 45 0 0 51.57585,35.349193 h -3.07821 a 0.62720318,0.62720318 135 0 0 -0.627203,0.627203 l 0,7.410826 a 0.62720318,0.62720318 135 0 1 -0.627203,0.627203 h -3.07821 a 0.62720318,0.62720318 45 0 1 -0.627203,-0.627203 l 0,-3.07821 A 0.62720318,0.62720318 45 0 0 42.910618,39.681809 H 22.501944 a 0.62720318,0.62720318 135 0 0 -0.627203,0.627203 v 3.07821 a 0.62720318,0.62720318 135 0 1 -0.627203,0.627203 h -3.07821 a 0.62720318,0.62720318 45 0 1 -0.627203,-0.627203 v -7.410826 a 0.62720318,0.62720318 45 0 0 -0.627203,-0.627203 h -3.07821 a 0.62720318,0.62720318 135 0 0 -0.627203,0.627203 v 7.410826 a 0.62720318,0.62720318 135 0 1 -0.627203,0.627203 H 9.5040957 A 0.62720318,0.62720318 45 0 1 8.8768925,43.387222 V 31.64378 a 0.62720318,0.62720318 135 0 1 0.6272032,-0.627203 l 3.0782103,0 a 0.62720318,0.62720318 135 0 0 0.627203,-0.627203 v -3.07821 a 0.62720318,0.62720318 135 0 1 0.627203,-0.627203 h 3.07821 a 0.62720318,0.62720318 135 0 0 0.627203,-0.627203 v -3.07821 a 0.62720318,0.62720318 135 0 1 0.627203,-0.627203 l 3.07821,0 a 0.62720318,0.62720318 135 0 0 0.627203,-0.627203 v -3.07821 a 0.62720318,0.62720318 135 0 1 0.627203,-0.627203 z m -4.332616,-4.332616 h 3.07821 a 0.62720318,0.62720318 45 0 1 0.627203,0.627203 v 3.07821 a 0.62720318,0.62720318 135 0 1 -0.627203,0.627203 h -3.07821 a 0.62720318,0.62720318 45 0 1 -0.627203,-0.627203 v -3.07821 a 0.62720318,0.62720318 135 0 1 0.627203,-0.627203 z"
     inkscape:path-effect="#path-effect7-0-53"
     inkscape:original-d="m 39.205205,26.683961 v 4.332616 h 4.332616 v -4.332616 z m -17.330464,0 v 4.332616 h 4.332616 v -4.332616 z m 0,17.330464 h 8.665232 v 4.332616 h -8.665232 z m 21.66308,0 v 4.332616 h -8.665232 v -4.332616 z m 0,-25.995696 v -4.332616 h 4.332616 v 4.332616 z m -21.66308,0 h 4.332616 v 4.332616 h 12.997848 v -4.332616 h 4.332616 v 4.332616 h 4.332616 v 4.332616 h 4.332616 v 4.332616 h 4.332616 v 12.997848 h -4.332616 v -8.665232 h -4.332616 v 8.665232 h -4.332616 v -4.332616 h -21.66308 v 4.332616 h -4.332616 v -8.665232 h -4.332616 v 8.665232 H 8.8768925 V 31.016577 h 4.3326165 v -4.332616 h 4.332616 v -4.332616 h 4.332616 z m -4.332616,-4.332616 h 4.332616 v 4.332616 h -4.332616 z"
     transform="matrix(1.1014409,0,0,1.1014409,-4.0240353,-2.1629265)" />
  <path
     d="m 16.046875,13.662109 v 3.271485 h 3.271484 v -3.271485 z m 28.632812,0 v 3.271485 h 3.273438 v -3.271485 z m -23.859375,4.771485 v 3.332031 c 0,0.786864 -0.654544,1.441406 -1.441406,1.441406 h -3.332031 v 3.330078 c 0,0.786862 -0.654542,1.441407 -1.441406,1.441407 h -3.330078 v 3.330078 c 0,0.786863 -0.654543,1.441406 -1.4414066,1.441406 H 6.5039062 v 12.816406 h 3.2714844 v -8.103515 c 0,-0.786862 0.6525894,-1.441407 1.4394534,-1.441407 h 3.390625 c 0.786864,0 1.441406,0.654545 1.441406,1.441407 v 8.103515 h 3.271484 v -3.332031 c 0,-0.786864 0.654544,-1.441406 1.441407,-1.441406 h 22.478515 c 0.786863,0 1.441406,0.654542 1.441406,1.441406 v 3.332031 h 3.273438 v -8.103515 c 0,-0.786862 0.654542,-1.441407 1.441406,-1.441407 h 3.388672 c 0.786862,0 1.441406,0.654545 1.441406,1.441407 v 8.103515 h 3.273438 V 32.75 h -3.332031 c -0.786863,0 -1.441407,-0.654543 -1.441407,-1.441406 v -3.330078 h -3.330078 c -0.786864,0 -1.441406,-0.654545 -1.441406,-1.441407 v -3.330078 h -3.333984 c -0.786862,0 -1.4375,-0.654542 -1.4375,-1.441406 v -3.332031 h -3.273438 v 3.332031 c 0,0.786864 -0.654543,1.441406 -1.441406,1.441406 H 25.53125 c -0.786863,0 -1.4375,-0.654542 -1.4375,-1.441406 v -3.332031 z m -0.06055,8.044922 h 3.390625 c 0.786864,0 1.441406,0.652589 1.441406,1.439453 v 3.390625 c 0,0.786863 -0.654542,1.441406 -1.441406,1.441406 h -3.390625 c -0.786862,0 -1.441407,-0.654543 -1.441407,-1.441406 v -3.390625 c 0,-0.786864 0.654545,-1.439453 1.441407,-1.439453 z m 19.08789,0 h 3.390625 c 0.786864,0 1.441406,0.652589 1.441406,1.439453 v 3.390625 c 0,0.786863 -0.654542,1.441406 -1.441406,1.441406 h -3.390625 c -0.786863,0 -1.439453,-0.654543 -1.439453,-1.441406 v -3.390625 c 10e-7,-0.786864 0.65259,-1.439453 1.439453,-1.439453 z m -19.027344,20.58789 v 3.271485 h 8.044922 v -3.271485 z m 14.314454,0 v 3.271485 h 8.046875 v -3.271485 z"
     style="baseline-shift:baseline;display:inline;overflow:visible;vector-effect:none;fill:url(#radialGradient5-3-2);fill-rule:evenodd;stroke-width:1.10144;enable-background:accumulate;stop-color:#000000;opacity:1;filter:url(#filter4)"
     id="path4" />
</svg>
