<?xml version="1.0" encoding="UTF-8" standalone="no"?>
<svg
   width="64"
   height="64"
   version="1"
   id="svg14"
   sodipodi:docname="appimagekit-sengi.svg"
   inkscape:version="1.4.2 (ebf0e940d0, 2025-05-08)"
   xmlns:inkscape="http://www.inkscape.org/namespaces/inkscape"
   xmlns:sodipodi="http://sodipodi.sourceforge.net/DTD/sodipodi-0.dtd"
   xmlns:xlink="http://www.w3.org/1999/xlink"
   xmlns="http://www.w3.org/2000/svg"
   xmlns:svg="http://www.w3.org/2000/svg">
  <sodipodi:namedview
     id="namedview14"
     pagecolor="#ffffff"
     bordercolor="#000000"
     borderopacity="0.25"
     inkscape:showpageshadow="2"
     inkscape:pageopacity="0.0"
     inkscape:pagecheckerboard="0"
     inkscape:deskcolor="#d1d1d1"
     inkscape:zoom="12.25585"
     inkscape:cx="35.656441"
     inkscape:cy="23.90695"
     inkscape:current-layer="svg14" />
  <defs
     id="defs4">
    <linearGradient
       id="linearGradient867">
      <stop
         style="stop-color:#00e6ff"
         offset="0"
         id="stop1" />
      <stop
         style="stop-color:#00e6ff;stop-opacity:0"
         offset="1"
         id="stop2" />
    </linearGradient>
    <linearGradient
       id="linearGradient859">
      <stop
         style="stop-color:#0c8df2"
         offset="0"
         id="stop3" />
      <stop
         style="stop-color:#0c8df2;stop-opacity:0"
         offset="1"
         id="stop4" />
    </linearGradient>
    <linearGradient
       id="linearGradient861"
       x1="21.589"
       x2="24.06"
       y1="36.7"
       y2="26.864"
       gradientTransform="matrix(1.4444445,0,0,1.4444445,-3.2222212,-2.1111118)"
       gradientUnits="userSpaceOnUse"
       xlink:href="#linearGradient859" />
    <linearGradient
       id="linearGradient869"
       x1="38.323"
       x2="30.099"
       y1="27.66"
       y2="22.787"
       gradientTransform="matrix(1.4740274,0,0,1.4740274,-2.8961103,-3.385091)"
       gradientUnits="userSpaceOnUse"
       xlink:href="#linearGradient867" />
    <linearGradient
       id="linearGradient891"
       x1="27.828"
       x2="19.208"
       y1="20.905"
       y2="23.493"
       gradientTransform="matrix(1.4740274,0,0,1.4740274,-3.6959764,-2.784391)"
       gradientUnits="userSpaceOnUse"
       xlink:href="#linearGradient867" />
    <filter
       inkscape:collect="always"
       style="color-interpolation-filters:sRGB"
       id="filter23"
       x="-0.092159269"
       y="-0.096954675"
       width="1.1843178"
       height="1.1939094">
      <feGaussianBlur
         inkscape:collect="always"
         stdDeviation="2.2206244"
         id="feGaussianBlur23" />
    </filter>
  </defs>
  <g
     id="g23"
     transform="matrix(0.91346116,0,0,0.91346116,2.351886,2.7697031)">
    <path
       style="fill:#0c8df2"
       d="m 42.398,49.577919 c 11.79222,0 14.740274,4.422082 14.740274,4.422082 H 42.398 Z"
       id="path6" />
    <path
       style="fill:#0c8df2"
       d="m 44.52451,20.563731 c 8.28933,4.210712 14.262762,6.68557 17.389946,14.583532 -7.8921,-7.190858 -9.874548,-3.18283 -19.082142,-3.28048 0.130332,-7.869318 1.692196,-11.303052 1.692196,-11.303052 z"
       id="path7" />
    <path
       style="fill:#0cb7f2"
       d="M 26.515102,59.887221 C 23.618838,59.647943 20.379612,58.745881 17.564453,57.394629 11.841308,54.647557 7.2388778,49.778601 4.861388,43.955953 3.2936054,40.116331 2.6964358,35.869811 3.1451192,31.751413 3.7652966,26.059005 6.2252408,20.888001 10.307195,16.696087 c 1.927544,-1.979465 4.601536,-3.910732 7.031874,-5.078711 0.499757,-0.240183 0.570849,-0.261898 0.388342,-0.118687 -0.122868,0.09642 -0.504964,0.396397 -0.849094,0.666618 -3.943029,3.096021 -6.854897,7.52096 -8.1391834,12.368446 -0.5367694,2.026048 -0.7572694,3.7577 -0.758017,5.952954 -5.574e-4,1.679736 0.062453,2.47194 0.316929,3.983856 0.8523058,5.063912 3.4248834,9.754394 7.1748514,13.232582 0.884731,0.82061 1.835001,1.57374 2.843678,2.248372 0.36765,0.2459 0.40085,0.248566 0.343837,0.02767 -0.343837,-0.02767 -0.694649,-0.516936 -0.782603,-1.090804 C 17.677824,47.583597 16.885681,47.197127 17,46.000001 c 0,-7.109214 4.584202,-12.071486 9.418512,-15.400526 1.845722,-1.244458 3.736738,-2.080078 6.117822,-2.703384 1.810292,-0.4739 2.766462,-1.222746 3.895914,-2.163706 0.238344,-0.198578 0.403034,-0.380224 0.372198,-0.410522 -0.09165,-0.09 -1.73413,-0.600522 -2.59437,-0.806388 -1.928836,-0.461618 -3.279842,-0.517704 -5.537806,-0.515474 -2.416848,0.0024 -4.296604,0.14039 -5.116194,0.534164 -0.382272,0.183678 -2.126294,0.38436 -2.853738,1.267776 -2.382109,2.892802 -3.340217,5.663324 -4.093336,9.306228 -0.181583,0.87836 -0.125966,1.642834 -0.33906,1.836834 -0.407171,0.370706 -0.0077,-0.302876 -0.230708,-0.802508 -0.232656,-0.521264 -0.188441,-2.127042 -0.318833,-3.66907 -0.0822,-0.972252 -0.28252,-2.614706 -0.169286,-3.55064 0.528719,-4.369898 2.789509,-7.452244 5.552993,-10.888359 0.745362,-0.926775 2.01204,-2.416277 2.935934,-3.141288 1.999456,-1.569043 4.308476,-2.194309 6.608232,-3.053778 l -0.1408,-1.9183392 0.0068,-0.6411732 c 0.0055,-0.5195918 0.04002,-0.7370938 0.181918,-1.147056 0.273156,-0.7891362 0.714524,-1.4277174 1.286162,-1.8607922 l 0.339162,-0.256959 0.348646,0.100615 c 1.03619,0.2990654 2.016072,1.0950274 2.483552,2.0174244 0.141096,0.2783866 0.274494,1.1520284 0.296416,1.234398 0.03631,0.136342 0.219982,1.8584872 0.443414,1.8141632 0.134996,-0.02678 2.114652,0.337065 3.046596,0.332688 l 1.615412,-0.63089 -0.188944,-1.5793706 c 0.822024,-1.5059976 1.27427,-2.2497756 2.953586,-2.7670488 v 0 l 0.822452,0.3829102 c 0.561316,0.3736878 0.938808,0.3273572 1.327912,0.944626 0.382874,0.6073614 0.167316,0.9567678 0.330994,1.6706338 0.162064,0.7068244 0.226494,1.5344454 0.0494,2.2400594 -0.20091,0.800468 -0.343274,1.580654 -0.734928,2.165234 -1.374316,-0.03 0.684814,0.840005 0.684814,0.860525 0,0.0205 0.366286,0.363652 0.813974,0.762525 2.29999,2.049277 4.337676,4.725544 5.75319,7.556182 0,0 2.608194,5.00645 2.628636,11.793498 0.04934,2.383596 -0.45233,4.926106 -1.08917,7.02677 -1.959412,5.753612 -5.703718,10.27686 -10.25648,13.648186 l -0.507824,0.33488 0.701006,0.175768 c 2.580504,0.869922 4.598508,2.218872 6.339508,3.899314 H 31.79534 c 0,0 -3.639176,0.02538 -5.280238,-0.11091 z"
       id="path8" />
    <path
       style="fill:#00e6ff"
       d="m 22.04392,26.310849 c -2.343224,3.018914 -3.907772,6.47905 -4.648597,10.28076 -0.178618,0.916652 -0.201668,0.983092 -0.411284,1.18555 -0.400524,0.386866 -1.018468,0.252756 -1.23782,-0.268656 -0.228859,-0.543988 -0.574166,-2.62608 -0.702428,-4.23533 -0.08086,-1.014638 -0.04463,-3.378792 0.06676,-4.355526 0.520087,-4.5604 2.121894,-8.58974 4.840268,-12.175649 0.733196,-0.967176 2.523516,-2.846661 3.432328,-3.603279 C 27.67819,9.343862 32.43428,8.1485062 37.651222,8.0741488 l 1.666802,-0.0083 0.202938,-0.5973288 c 0.808604,-1.5716502 2.186588,-2.7541636 3.83849,-3.2939868 l 0.53408,-0.174536 0.352708,0.2490902 c 0.552152,0.3899784 1.39004,1.3167742 1.772792,1.9609524 0.376624,0.6338386 0.708906,1.4860502 0.869912,2.2310366 0.159418,0.7376376 0.145036,2.1701736 -0.02917,2.9065486 -0.197628,0.835364 -0.493186,1.568299 -0.878448,2.178363 -0.185484,0.293739 -0.337244,0.551576 -0.337244,0.57299 0,0 -0.968408,2.513979 -4.609624,4.068082 -3.40975,1.455311 -6.281478,0.478813 -9.345328,1.459622 -4.00625,1.017405 -7.359348,3.640429 -9.645212,6.684163 z"
       id="path11" />
    <circle
       style="fill:url(#linearGradient861)"
       cx="30"
       cy="47"
       r="13"
       id="circle11" />
    <path
       style="fill:url(#linearGradient869)"
       d="m 43.70307,27.682871 c 8.28933,4.210714 13.897678,10.336414 17.024862,18.234374 -7.8921,-7.190858 -12.795222,-10.39324 -22.002816,-10.49089 0.130332,-7.86932 4.977954,-7.743484 4.977954,-7.743484 z"
       id="path12" />
    <path
       style="fill:url(#linearGradient891)"
       d="m 36.605468,25.222657 c 4.16e-4,7.64e-4 -0.008,0.0069 -0.0078,0.0078 0.0022,0.0016 0.02981,0.0103 0.03125,0.01172 0.0014,0.0014 -0.01625,0.01758 -0.01562,0.01953 0.01903,0.0092 0.152234,0.0446 0.160156,0.05078 -0.06042,-0.02854 -0.10454,-0.06195 -0.16797,-0.08984 z m 0.195314,0.101562 c 0.02668,0.03297 -0.131222,0.209654 -0.367188,0.40625 -1.129452,0.94096 -2.088146,1.690164 -3.898438,2.164064 -2.381084,0.623306 -4.271466,1.458666 -6.117188,2.703124 -1.340152,0.903584 -2.56419,2.09859 -3.664062,3.445312 2.112366,-0.730718 4.158372,-1.45089 6.726562,-1.784046 3.00894,-0.39033 4.789374,-0.08454 6.113282,-0.397844 1.160458,-0.158458 3.330592,-2.06758 3.40625,-3.838172 0.04103,-0.960308 -0.608506,-1.93897 -2.199218,-2.698688 z"
       id="path13" />
  </g>
  <g
     id="g22"
     style="mix-blend-mode:normal;stroke:#000000;stroke-width:0.2;stroke-linecap:round;stroke-linejoin:round;stroke-dasharray:none;stroke-opacity:1;filter:url(#filter23)"
     transform="matrix(0.91346116,0,0,0.91346116,42.014369,-32.531238)">
    <path
       d="m 5.9082031,88.845703 c -1.1190197,1.38179 -2.3588622,2.64988 -3.6914062,3.804688 H 13.722656 c 0,0 -1.725567,-2.588289 -7.8144529,-3.804688 z"
       style="fill:none;stroke:#000000;stroke-width:0.2;stroke-linecap:round;stroke-linejoin:round;stroke-dasharray:none;stroke-opacity:1"
       id="path22" />
    <path
       d="m 9.8242188,63.839844 c 0.5028032,1.376039 1.1026472,3.367935 1.4550782,5.761718 2.03056,0.325606 4.189705,1.43541 7.21875,4.195313 -1.8902,-4.773856 -4.8208,-7.565336 -8.6738282,-9.957031 z"
       style="fill:none;stroke:#000000;stroke-width:0.2;stroke-linecap:round;stroke-linejoin:round;stroke-dasharray:none;stroke-opacity:1"
       id="path21" />
    <path
       d="m -11.095703,44.666016 -0.337891,0.255859 c -0.571638,0.433075 -1.013953,1.072191 -1.287109,1.861328 -0.124492,0.359675 -0.165681,0.571492 -0.177735,0.96875 1.509214,-0.466117 3.0647983,-0.751715 4.6660161,-0.900391 -0.010079,-0.0258 -0.021056,-0.04825 -0.03125,-0.06836 -0.46748,-0.922397 -1.4462314,-1.718512 -2.4824221,-2.017578 z m -14.505859,5.394531 c -0.03113,-2.21e-4 -0.179832,0.06442 -0.476563,0.207031 -2.430338,1.167979 -5.103706,3.09866 -7.03125,5.078125 -4.081954,4.191914 -6.541931,9.364233 -7.162109,15.056641 -0.448683,4.118398 0.149014,8.365456 1.716797,12.205078 2.37749,5.822648 6.97998,10.690428 12.703125,13.4375 2.815159,1.351252 6.052954,2.252909 8.949218,2.492187 0.757063,0.06287 1.939833,0.09099 2.994141,0.103516 A 13,13 0 0 1 -26.238281,87.787109 c -0.591737,-0.450779 -1.161235,-0.929165 -1.705078,-1.433593 -3.749968,-3.478188 -6.323477,-8.16851 -7.175782,-13.232422 -0.254479,-1.511916 -0.316964,-2.304639 -0.316406,-3.984375 7.47e-4,-2.195254 0.221043,-3.927077 0.757813,-5.953125 1.284286,-4.847486 4.195643,-9.271167 8.138672,-12.367188 0.34413,-0.270221 0.726741,-0.571548 0.849609,-0.667969 0.04812,-0.03776 0.0802,-0.06628 0.08984,-0.08008 l 0.002,-0.002 v -0.002 -0.002 -0.002 h -0.002 z m 27.5742182,3.1875 c -0.4803245,0.812249 -1.71617627,2.443839 -4.3554687,3.570312 -3.40975,1.455311 -6.2798996,0.478176 -9.3437505,1.458985 -3.203253,0.81348 -5.989691,2.653457 -8.146484,4.914062 0.0041,-0.0018 0.0079,-0.004 0.01172,-0.0059 0.81959,-0.393774 2.700339,-0.532756 5.117187,-0.535156 2.257964,-0.0022 3.608273,0.05401 5.5371097,0.515625 0.6958808,0.166532 1.9037107,0.533401 2.3886719,0.714843 9.663e-4,-9.94e-4 0.00315,-0.0033 0.00391,-0.0039 l 0.00195,-0.002 0.00195,-0.002 c 0.027482,0.01208 0.050981,0.02572 0.074219,0.03906 0.067948,0.02734 0.1120933,0.04787 0.125,0.06055 v 0.002 h 0.00195 v 0.002 0.002 c 1.5860395,0.759283 2.2343341,1.736297 2.1933594,2.695312 -0.075658,1.770592 -2.2457922,3.679433 -3.40625,3.837891 -1.323908,0.313304 -3.104341,0.0081 -6.113281,0.398437 -2.56819,0.333156 -4.614196,1.052485 -6.726562,1.783203 0.978036,-1.197542 2.053919,-2.275387 3.222656,-3.134765 -4.668304,3.324555 -8.976563,8.199194 -8.976563,15.091797 -0.01836,0.192316 -0.01241,0.363829 0.0098,0.521484 a 13,13 0 0 1 12.990234,-12.521484 13,13 0 0 1 12.99999997,13 13,13 0 0 1 -12.73632797,12.998046 c 0.877943,0.0052 1.53125,10e-7 1.53125,0 H 6.7675781 C 5.0265781,96.967995 3.0082384,95.619922 0.42773438,94.75 L -0.2734375,94.574219 0.234375,94.238281 C 4.787137,90.866955 8.5308226,86.343456 10.490234,80.589844 10.626108,80.141653 10.755423,79.67389 10.875,79.191406 6.1242734,75.748227 1.7800242,74.144804 -4.6914062,74.076172 c 0.1221862,-7.377488 4.39077512,-7.727194 4.92382808,-7.742188 0.0355369,-9.99e-4 0.0546875,0 0.0546875,0 4.55136232,2.311947 8.29413942,5.201589 11.26171862,8.644532 0.02951,-0.474272 0.04091,-0.947381 0.03125,-1.414063 C 11.559636,66.777405 8.9511719,61.769531 8.9511719,61.769531 7.5356579,58.938893 5.4992087,56.264121 3.1992188,54.214844 2.7515308,53.815971 2.3847656,53.471672 2.3847656,53.451172 c 0,-0.0062 -0.1878042,-0.09037 -0.4121094,-0.203125 z"
       style="fill:none;stroke:#000000;stroke-width:0.2;stroke-linecap:round;stroke-linejoin:round;stroke-dasharray:none;stroke-opacity:1"
       id="path20" />
    <path
       d="m 0.4765625,42.650391 -0.53320312,0.173828 c -1.65190198,0.539823 -3.03123978,1.723272 -3.83984378,3.294922 l -0.2011718,0.597656 -1.6679688,0.0078 c -5.216942,0.07436 -9.972535,1.269596 -14.267578,5.064453 -0.908812,0.756619 -2.698445,2.63634 -3.431641,3.603516 -2.718374,3.585909 -4.32171,7.615381 -4.841797,12.175781 -0.11139,0.976734 -0.147266,3.340831 -0.06641,4.355469 0.128262,1.60925 0.474266,3.690387 0.703125,4.234375 0.219352,0.521412 0.837757,0.656397 1.238281,0.269531 0.209616,-0.202458 0.231539,-0.268895 0.410157,-1.185547 0.740825,-3.801709 2.305213,-7.262336 4.648437,-10.28125 2.285864,-3.043734 5.640235,-5.666188 9.646484,-6.683593 3.0638509,-0.980809 5.9340005,-0.0037 9.3437505,-1.458985 C 1.2584035,55.264256 2.2285156,52.75 2.2285156,52.75 c 0,-0.02141 0.1504535,-0.28048 0.3359375,-0.574219 0.385262,-0.610064 0.6812783,-1.34237 0.8789063,-2.177734 0.174206,-0.736375 0.1887149,-2.168612 0.029297,-2.90625 C 3.3116502,46.346811 2.9801396,45.495166 2.6035156,44.861328 2.2207636,44.21715 1.3822301,43.29037 0.83007813,42.900391 Z"
       style="fill:none;stroke:#000000;stroke-width:0.2;stroke-linecap:round;stroke-linejoin:round;stroke-dasharray:none;stroke-opacity:1"
       id="path19" />
    <path
       d="m -13.416016,72.650391 a 13,13 0 0 0 -13,13 13,13 0 0 0 13,13 13,13 0 0 0 13.00000037,-13 13,13 0 0 0 -13.00000037,-13 z"
       style="fill:none;stroke:#000000;stroke-width:0.2;stroke-linecap:round;stroke-linejoin:round;stroke-dasharray:none;stroke-opacity:1"
       id="path18" />
    <path
       d="m 0.23242188,66.333984 c -0.53305296,0.01499 -4.80164188,0.3647 -4.92382808,7.742188 9.2075939,0.09765 14.1098533,3.301329 22.0019532,10.492187 -3.127184,-7.89796 -8.7341076,-14.023661 -17.02343762,-18.234375 0,0 -0.0191506,-9.99e-4 -0.0546875,0 z"
       style="fill:none;stroke:#000000;stroke-width:0.2;stroke-linecap:round;stroke-linejoin:round;stroke-dasharray:none;stroke-opacity:1"
       id="path17" />
    <path
       d="m -6.8105469,63.873047 c 0,0 -0.00195,0.002 -0.00195,0.002 0,0 -0.00195,0.002 -0.00195,0.002 -0.00101,8.71e-4 -0.00315,0.0032 -0.00391,0.0039 0.0022,0.0016 0.02981,0.0103 0.03125,0.01172 0,0 0,0.002 0,0.002 0,0 -0.00195,0.002 -0.00195,0.002 -0.0029,0.0035 -0.010583,0.01005 -0.013672,0.01367 0,0 0,0.002 0,0.002 0.017454,0.0084 0.1314615,0.03907 0.15625,0.04883 -0.058183,-0.02807 -0.1021852,-0.06068 -0.1640625,-0.08789 z m 0.1972657,0.103515 c 0,0 0,0.002 0,0.002 0,0 0,0.002 0,0.002 0,0 0,0.002 0,0.002 0,0 0,0.002 0,0.002 -0.00139,0.0504 -0.1516095,0.215247 -0.3691407,0.396484 -1.129452,0.94096 -2.0881451,1.690163 -3.8984371,2.164063 -2.381084,0.623306 -4.271466,1.458667 -6.117188,2.703125 -1.340152,0.903584 -2.56419,2.09859 -3.664062,3.445312 2.112366,-0.730718 4.158372,-1.450047 6.726562,-1.783203 3.00894,-0.39033 4.7893734,-0.08513 6.1132814,-0.398437 1.1604578,-0.158458 3.330592,-2.067299 3.40625,-3.837891 0.041008,-0.959802 -0.6083843,-1.937717 -2.1972656,-2.697266 z"
       style="fill:none;stroke:#000000;stroke-width:0.2;stroke-linecap:round;stroke-linejoin:round;stroke-dasharray:none;stroke-opacity:1"
       id="path16" />
  </g>
</svg>
