<?xml version="1.0" encoding="UTF-8" standalone="no"?>
<svg
   width="64"
   height="64"
   version="1"
   id="svg4"
   sodipodi:docname="steam_icon_3017860.svg"
   inkscape:version="1.4.2 (ebf0e940d0, 2025-05-08)"
   xml:space="preserve"
   xmlns:inkscape="http://www.inkscape.org/namespaces/inkscape"
   xmlns:sodipodi="http://sodipodi.sourceforge.net/DTD/sodipodi-0.dtd"
   xmlns:xlink="http://www.w3.org/1999/xlink"
   xmlns="http://www.w3.org/2000/svg"
   xmlns:svg="http://www.w3.org/2000/svg"><defs
     id="defs4"><linearGradient
       id="linearGradient5"
       inkscape:collect="always"><stop
         style="stop-color:#a17555;stop-opacity:1;"
         offset="0"
         id="stop4" /><stop
         style="stop-color:#a57852;stop-opacity:1;"
         offset="1"
         id="stop5" /></linearGradient><linearGradient
       id="linearGradient3"
       inkscape:collect="always"><stop
         style="stop-color:#594141;stop-opacity:1;"
         offset="0"
         id="stop2" /><stop
         style="stop-color:#54543e;stop-opacity:1;"
         offset="1"
         id="stop3" /></linearGradient><inkscape:path-effect
       effect="fillet_chamfer"
       id="path-effect20"
       is_visible="true"
       lpeversion="1"
       nodesatellites_param="F,0,1,1,0,3.4225337,0,1 @ F,0,0,1,0,0,0,1 @ F,0,1,1,0,3.4225337,0,1 @ F,0,0,1,0,0,0,1 @ F,0,1,1,0,3.4225337,0,1 @ F,0,0,1,0,0,0,1 @ F,0,1,1,0,3.4225337,0,1 @ F,0,0,1,0,0,0,1 @ F,0,1,1,0,3.4225337,0,1 @ F,0,0,1,0,0,0,1 @ F,0,0,1,0,3.4225337,0,1 @ F,0,0,1,0,0,0,1 @ F,0,1,1,0,3.4225337,0,1 @ F,0,0,1,0,0,0,1 @ F,0,1,1,0,3.4225337,0,1 @ F,0,0,1,0,0,0,1 @ F,0,1,1,0,3.4225337,0,1 @ F,0,0,1,0,0,0,1 @ F,0,1,1,0,3.4225337,0,1 @ F,0,0,1,0,0,0,1 @ F,0,1,1,0,3.4225337,0,1 @ F,0,0,1,0,0,0,1 @ F,0,1,1,0,3.4225337,0,1 @ F,0,0,1,0,0,0,1 @ F,0,1,1,0,3.4225337,0,1 @ F,0,0,1,0,0,0,1 @ F,0,1,1,0,3.4225337,0,1 @ F,0,0,1,0,0,0,1 @ F,0,1,1,0,3.4225337,0,1 @ F,0,0,1,0,0,0,1 @ F,0,1,1,0,3.4225337,0,1 @ F,0,0,1,0,0,0,1"
       radius="0"
       unit="px"
       method="auto"
       mode="F"
       chamfer_steps="1"
       flexible="false"
       use_knot_distance="true"
       apply_no_radius="true"
       apply_with_radius="true"
       only_selected="false"
       hide_knots="false" /><linearGradient
       inkscape:collect="always"
       xlink:href="#linearGradient10"
       id="linearGradient9"
       gradientUnits="userSpaceOnUse"
       x1="6.7065268"
       y1="1.7194266"
       x2="63.85181"
       y2="58.864708"
       gradientTransform="translate(0.04419527,-2.1203655)" /><linearGradient
       id="linearGradient10"
       inkscape:collect="always"><stop
         style="stop-color:#998484;stop-opacity:1;"
         offset="0"
         id="stop9" /><stop
         style="stop-color:#a58282;stop-opacity:1;"
         offset="1"
         id="stop10" /></linearGradient><filter
       inkscape:collect="always"
       style="color-interpolation-filters:sRGB"
       id="filter9"
       x="-0.035267124"
       y="-0.073790093"
       width="1.0705342"
       height="1.1475802"><feGaussianBlur
         inkscape:collect="always"
         stdDeviation="0.79803679"
         id="feGaussianBlur9" /></filter><linearGradient
       inkscape:collect="always"
       xlink:href="#linearGradient7"
       id="linearGradient8"
       x1="6.7065268"
       y1="1.7194266"
       x2="63.85181"
       y2="58.864708"
       gradientUnits="userSpaceOnUse"
       gradientTransform="matrix(1.0004196,0,0,1.0004196,0.08594838,7.6100349)" /><linearGradient
       id="linearGradient7"
       inkscape:collect="always"><stop
         style="stop-color:#aaaaaa;stop-opacity:1;"
         offset="0"
         id="stop7" /><stop
         style="stop-color:#dbc5c5;stop-opacity:1;"
         offset="1"
         id="stop8" /></linearGradient><linearGradient
       inkscape:collect="always"
       xlink:href="#linearGradient3"
       id="linearGradient12"
       x1="0.079101503"
       y1="33.016964"
       x2="63.920898"
       y2="33.016964"
       gradientUnits="userSpaceOnUse"
       gradientTransform="matrix(1.0004196,0,0,1.0004196,0.08594838,2.0463519)" /><linearGradient
       inkscape:collect="always"
       xlink:href="#linearGradient5"
       id="linearGradient20"
       x1="9.9953413"
       y1="32"
       x2="54.004658"
       y2="32"
       gradientUnits="userSpaceOnUse"
       gradientTransform="matrix(0.35945814,-1.3415161,1.3415161,0.35945814,-22.448159,63.603419)" /><linearGradient
       inkscape:collect="always"
       xlink:href="#linearGradient3"
       id="linearGradient26"
       x1="-20.5"
       y1="58.789062"
       x2="2.953125"
       y2="58.789062"
       gradientUnits="userSpaceOnUse" /><linearGradient
       inkscape:collect="always"
       xlink:href="#linearGradient7"
       id="linearGradient28"
       x1="-22.37348"
       y1="71.851143"
       x2="3.9761448"
       y2="45.501518"
       gradientUnits="userSpaceOnUse" /><filter
       inkscape:collect="always"
       style="color-interpolation-filters:sRGB"
       id="filter29"
       x="-0.038375764"
       y="-0.038375764"
       width="1.0767515"
       height="1.0767515"><feGaussianBlur
         inkscape:collect="always"
         stdDeviation="0.35417984"
         id="feGaussianBlur29" /></filter></defs><sodipodi:namedview
     id="namedview4"
     pagecolor="#ffffff"
     bordercolor="#000000"
     borderopacity="0.25"
     inkscape:showpageshadow="2"
     inkscape:pageopacity="0.0"
     inkscape:pagecheckerboard="0"
     inkscape:deskcolor="#d1d1d1"
     inkscape:zoom="11.313709"
     inkscape:cx="29.831066"
     inkscape:cy="34.95759"
     inkscape:window-width="2540"
     inkscape:window-height="1371"
     inkscape:window-x="0"
     inkscape:window-y="0"
     inkscape:window-maximized="0"
     inkscape:current-layer="svg4" /><g
     id="g30"
     transform="matrix(0.88229825,0,0,0.88229825,3.7814594,0.0742719)"><path
       id="path18"
       style="fill:url(#linearGradient20);stroke-width:5.54843;stroke-linecap:round;stroke-miterlimit:7.3;paint-order:fill markers stroke"
       d="m 51.040202,14.629413 6.407834,0.53297 -1.292461,0.733601 a 4.1861975,4.1861975 0 0 0 0.149387,7.36207 l 5.716109,2.944575 -1.474812,0.183155 a 4.1861961,4.1861961 0 0 0 -2.679341,6.858828 l 4.154153,4.907891 -1.432652,-0.39511 a 4.186197,4.186197 0 0 0 -5.100135,5.311328 l 1.95977,6.12403 -1.17236,-0.913339 a 4.1861961,4.1861961 0 0 0 -6.744506,2.955341 l -0.53297,6.407834 -0.733602,-1.292459 a 4.1861975,4.1861975 0 0 0 -7.362072,0.149387 l -2.944575,5.716107 -0.183156,-1.474812 a 4.1861966,4.1861966 0 0 0 -6.858824,-2.679341 l -4.907894,4.154153 0.395112,-1.432652 A 4.186197,4.186197 0 0 0 21.09182,55.682815 l -6.124026,1.959772 0.913337,-1.172358 A 4.1861964,4.1861964 0 0 0 12.92579,49.725723 L 6.5179562,49.192749 7.8104131,48.459151 A 4.1861966,4.1861966 0 0 0 7.6610259,41.097082 l -5.716107,-2.944577 1.4748103,-0.183156 a 4.1861966,4.1861966 0 0 0 2.6793451,-6.858825 l -4.1541532,-4.907893 1.4326543,0.395112 a 4.1861968,4.1861968 0 0 0 5.1001528,-5.31139 l -1.9597698,-6.12403 1.172358,0.913339 A 4.1861961,4.1861961 0 0 0 14.43482,13.120324 l 0.532974,-6.407837 0.733598,1.2924612 A 4.1861964,4.1861964 0 0 0 23.063459,7.855583 l 2.944577,-5.7161092 0.183156,1.4748124 a 4.1861961,4.1861961 0 0 0 6.858825,2.679343 L 37.95791,2.139476 37.562798,3.5721281 a 4.1861968,4.1861968 0 0 0 5.311388,5.1001528 l 6.124032,-1.959772 -0.913339,1.1723602 a 4.1861961,4.1861961 0 0 0 2.95534,6.7445059 z"
       sodipodi:nodetypes="ccccccccccccccccccccccccccccccccc" /><g
       id="g29"
       transform="matrix(2.1984858,0,0,2.1984858,51.271274,-97.069389)"><path
         id="path23"
         style="baseline-shift:baseline;display:inline;overflow:visible;vector-effect:none;fill:url(#linearGradient28);stroke-linecap:round;stroke-miterlimit:7.3;paint-order:fill markers stroke;enable-background:accumulate;stop-color:#000000"
         d="m -8.773438,48.064453 c -5.923034,1e-5 -10.724599,4.801575 -10.724609,10.724609 10e-6,5.923034 4.801575,10.724599 10.724609,10.724609 5.923034,-1e-5 10.7245995,-4.801575 10.7246094,-10.724609 C 1.9511615,52.866028 -2.850404,48.064463 -8.773438,48.064453 Z"
         sodipodi:nodetypes="ccccc" /><path
         style="baseline-shift:baseline;display:inline;overflow:visible;vector-effect:none;fill:url(#linearGradient26);fill-opacity:1;stroke:none;stroke-linecap:round;stroke-miterlimit:7.3;stroke-opacity:1;paint-order:fill markers stroke;enable-background:accumulate;stop-color:#000000"
         d="M -8.7734375,47.0625 C -15.237747,47.0625 -20.5,52.324753 -20.5,58.789062 c 0,6.46431 5.262253,11.726563 11.7265625,11.726563 6.4643093,0 11.7265625,-5.262253 11.7265625,-11.726563 0,-6.464309 -5.2622532,-11.726562 -11.7265625,-11.726562 z m 0,2.003906 c 5.3817861,0 9.72265625,4.34087 9.72265625,9.722656 0,5.381787 -4.34087015,9.722657 -9.72265625,9.722657 -5.3817865,0 -9.7226565,-4.34087 -9.7226565,-9.722657 0,-5.381786 4.34087,-9.722656 9.7226565,-9.722656 z"
         id="path24" /><path
         style="baseline-shift:baseline;display:inline;overflow:visible;fill:none;fill-opacity:1;stroke:#000000;stroke-width:0.1;stroke-linecap:round;stroke-miterlimit:7.3;stroke-dasharray:none;stroke-opacity:1;paint-order:fill markers stroke;filter:url(#filter29);enable-background:accumulate;stop-color:#000000"
         d="M -8.7734375,47.0625 C -15.237747,47.0625 -20.5,52.324753 -20.5,58.789062 c 0,6.46431 5.262253,11.726563 11.7265625,11.726563 6.4643093,0 11.7265625,-5.262253 11.7265625,-11.726563 0,-6.464309 -5.2622532,-11.726562 -11.7265625,-11.726562 z m 0,2.003906 c 5.3817861,0 9.7226563,4.34087 9.7226563,9.722656 0,5.381787 -4.3408702,9.722657 -9.7226563,9.722657 -5.3817865,0 -9.7226565,-4.34087 -9.7226565,-9.722657 0,-5.381786 4.34087,-9.722656 9.7226565,-9.722656 z"
         id="path24-2" /></g></g><g
     id="g2"
     transform="translate(0,-4.596194)"><g
       id="g20"
       transform="translate(-0.09937278,1.5190325)"><path
         style="baseline-shift:baseline;display:inline;overflow:visible;vector-effect:none;fill:url(#linearGradient12);stroke-width:1.00042;enable-background:accumulate;stop-color:#000000"
         d="M 64.033663,19.029423 51.98955,19.150561 51.622208,20.235 51.110276,19.1701 43.837694,19.109524 v 0.646757 l -0.902722,-0.676068 h -9.4864 l -1.795674,1.367762 -1.793723,-1.367762 h -9.488353 l -1.768319,1.326728 -1.692116,-1.307188 -16.7453044,-0.01564 4.4335001,4.384651 0.019532,22.017045 v 0.03518 L 4.8037401,51.1249 19.274652,39.401233 l 7.432806,5.557018 4.945433,-3.710542 4.945433,3.710542 7.790375,-5.822754 7.497284,5.38507 0.191488,0.506072 0.19344,-0.586183 7.546133,5.347947 0.03321,-26.313772 z m -38.752579,7.344878 -0.01759,7.813823 -0.334124,-0.252057 -0.0059,-7.559814 z m 12.743627,0 0.357571,0.002 -0.0059,7.559811 -0.334124,0.252059 z m -25.805744,0.0547 v 8.816197 l -0.375157,0.285277 -0.02149,-9.09952 z"
         id="path3-3-8"
         sodipodi:nodetypes="cccccccccccccccccccccccccccccccccccccccccccc" /><path
         d="m 59.264785,21.076382 -5.934479,0.05967 -1.483086,4.385332 -2.096778,-4.361892 -4.012429,-0.03409 v 16.132825 l -0.26849,0.264228 4.596288,3.30285 0.07245,-6.275415 1.708959,4.5004 1.542751,-4.677261 0.02983,8.502176 4.306492,3.051408 0.02771,-23.245676 z m -38.325852,0.0021 -1.382935,1.037738 -0.0021,15.073781 7.053184,5.271775 3.856876,-2.893722 -0.01481,-17.449706 -1.363759,-1.039866 z m 13.085682,0 -1.363757,1.039866 -0.0148,17.449706 3.856876,2.893722 7.053183,-5.271775 -0.0022,-15.073735 -1.382934,-1.037736 z M 6.4980205,22.633994 6.519329,45.485461 v 0.0043 L 6.570471,47.043147 17.785247,37.95711 17.450699,37.684407 V 22.118417 L 16.129558,21.097731 4.9339608,21.087022 Z m 19.9087295,1.736662 0.777767,0.262098 -0.02778,13.550209 -4.323538,-3.247448 -0.0063,-10.304894 0.530586,-0.245051 3.049277,-0.01491 z m 10.296371,0 3.049277,0.01491 0.530586,0.245051 -0.0063,10.304894 -4.323541,3.247448 -0.02778,-13.55021 0.777769,-0.262099 z m -23.105039,0.0554 0.522065,0.234395 V 36.237463 L 9.7582523,39.546756 9.7220337,24.441009 Z"
         style="fill:url(#linearGradient8);fill-opacity:1;stroke:none;stroke-width:2.79605;stroke-dasharray:none;stroke-opacity:1"
         id="path3-3"
         sodipodi:nodetypes="ccccccccccccccccccccccccccccccccccccccccccccccccccccccccccccccc" /><path
         d="m 59.198216,11.340334 -5.93199,0.05964 -1.482464,4.383493 -2.095899,-4.360064 -4.010747,-0.03408 v 16.12606 l -0.268377,0.264117 4.594362,3.301465 0.07242,-6.272784 1.708242,4.498513 1.542104,-4.6753 0.02982,8.498611 4.304685,3.050128 0.02769,-23.235927 z m -38.309779,0.0021 -1.382356,1.0373 -0.0021,15.06746 7.050227,5.269565 3.855259,-2.892508 -0.0148,-17.442388 -1.363186,-1.039429 z m 13.080193,0 -1.363185,1.039429 -0.0148,17.442388 3.855258,2.892508 7.050227,-5.269565 -0.0022,-15.067414 -1.382354,-1.0373 z m -27.5150507,1.554863 0.0213,22.841884 v 0.0043 l 0.05112,1.552754 11.2100717,-9.082226 -0.334407,-0.27259 V 12.381933 L 16.081077,11.361674 4.8901763,11.351004 Z m 19.9003817,1.735932 0.777441,0.261988 -0.02778,13.544527 -4.321725,-3.246086 -0.0063,-10.300572 0.530364,-0.244948 3.047999,-0.01491 z m 10.292051,0 3.047998,0.01491 0.530364,0.244948 -0.0063,10.300572 -4.321726,3.246086 -0.02777,-13.544527 0.777443,-0.261989 z m -23.095348,0.05538 0.521844,0.234297 v 11.572169 l -4.3600637,3.307906 -0.03621,-15.099413 z"
         style="opacity:0.523969;fill:url(#linearGradient9);fill-opacity:1;stroke:none;stroke-width:2.79488;stroke-dasharray:none;stroke-opacity:1;filter:url(#filter9)"
         id="path3-3-2"
         sodipodi:nodetypes="ccccccccccccccccccccccccccccccccccccccccccccccccccccccccccccccc"
         transform="matrix(1.0004195,0,0,1.0004195,0.08594724,10.129204)" /></g></g></svg>
