<?xml version="1.0" encoding="UTF-8" standalone="no"?>
<svg
   width="64"
   height="64"
   version="1"
   id="svg7"
   sodipodi:docname="supertux.svg"
   inkscape:version="1.4.3 (0d15f75042, 2025-12-25)"
   xmlns:inkscape="http://www.inkscape.org/namespaces/inkscape"
   xmlns:sodipodi="http://sodipodi.sourceforge.net/DTD/sodipodi-0.dtd"
   xmlns:xlink="http://www.w3.org/1999/xlink"
   xmlns="http://www.w3.org/2000/svg"
   xmlns:svg="http://www.w3.org/2000/svg">
  <defs
     id="defs7">
    <linearGradient
       id="linearGradient18"
       inkscape:collect="always">
      <stop
         style="stop-color:#6f6b6b;stop-opacity:1;"
         offset="0"
         id="stop18" />
      <stop
         style="stop-color:#322d2d;stop-opacity:1;"
         offset="1"
         id="stop19" />
    </linearGradient>
    <linearGradient
       id="linearGradient25"
       inkscape:collect="always">
      <stop
         style="stop-color:#fff0d7;stop-opacity:1;"
         offset="0"
         id="stop25" />
      <stop
         style="stop-color:#fff1e8;stop-opacity:1;"
         offset="1"
         id="stop26" />
    </linearGradient>
    <linearGradient
       id="linearGradient24"
       inkscape:collect="always">
      <stop
         style="stop-color:#ffc104;stop-opacity:1;"
         offset="0"
         id="stop23" />
      <stop
         style="stop-color:#ff8d00;stop-opacity:1;"
         offset="1"
         id="stop24" />
    </linearGradient>
    <linearGradient
       id="linearGradient19"
       inkscape:collect="always">
      <stop
         style="stop-color:#ffc104;stop-opacity:1;"
         offset="0"
         id="stop20" />
      <stop
         style="stop-color:#ff890d;stop-opacity:1;"
         offset="1"
         id="stop21" />
    </linearGradient>
    <radialGradient
       inkscape:collect="always"
       xlink:href="#linearGradient18"
       id="radialGradient19-2"
       cx="30.854153"
       cy="18.41264"
       fx="30.854153"
       fy="18.41264"
       r="18.056887"
       gradientTransform="matrix(0,2.1728177,-1.8143884,0,64.261833,-56.109758)"
       gradientUnits="userSpaceOnUse" />
    <radialGradient
       inkscape:collect="always"
       xlink:href="#linearGradient25"
       id="radialGradient26-5"
       cx="31.959042"
       cy="36.99995"
       fx="31.959042"
       fy="36.99995"
       r="11.99998"
       gradientTransform="matrix(1,0,0,1.4166649,0,-15.416579)"
       gradientUnits="userSpaceOnUse" />
    <radialGradient
       inkscape:collect="always"
       xlink:href="#linearGradient24"
       id="radialGradient23-2"
       cx="31.889198"
       cy="18.927256"
       fx="31.889198"
       fy="18.927256"
       r="5.99999"
       gradientTransform="matrix(3.0242049,0,0,2.4441939,-64.691647,-32.638783)"
       gradientUnits="userSpaceOnUse" />
    <radialGradient
       inkscape:collect="always"
       xlink:href="#linearGradient19"
       id="radialGradient21-7"
       cx="31.894524"
       cy="13.822928"
       fx="31.894524"
       fy="13.822928"
       r="24.041529"
       gradientTransform="matrix(-0.92172412,1.596473,-1.4609535,-0.84348188,81.487131,-23.384052)"
       gradientUnits="userSpaceOnUse" />
  </defs>
  <sodipodi:namedview
     id="namedview7"
     pagecolor="#ffffff"
     bordercolor="#000000"
     borderopacity="0.25"
     inkscape:showpageshadow="2"
     inkscape:pageopacity="0.0"
     inkscape:pagecheckerboard="0"
     inkscape:deskcolor="#d1d1d1"
     inkscape:zoom="11.338221"
     inkscape:cx="8.2905419"
     inkscape:cy="28.487713"
     inkscape:current-layer="svg7" />
  <g
     id="g27">
    <path
       id="path2-1"
       style="fill:url(#radialGradient19-2)"
       d="m 31.958984,4 c -5.369531,0 -10,4.9944388 -10,11.199219 0,13.834866 -7.812388,15.366169 -7.996687,24.857855 -0.0022,0.113293 -0.412176,0.364008 -0.412176,0.479605 0,0.395562 -0.05738,0.493098 -0.03616,0.882859 C 14.073487,51.695513 22.381156,60 31.958984,60 40.947432,60 48.396922,52.825422 49.742188,43.449219 50.102029,42.311192 50.162326,40.993266 49.951172,39.892578 49.680555,30.546988 41.958984,28.953907 41.958984,15.199219 41.958984,8.9944388 37.328515,4 31.958984,4 Z"
       sodipodi:nodetypes="ssssssccss" />
    <path
       style="fill:url(#radialGradient26-5)"
       d="M 31.959041,20 C 28.379357,20 26,23.0328 26,26.7998 c 0,8.5002 -6.040939,9.35 -6.040939,15.3 0,6.5721 5.372575,11.9001 11.99998,11.9001 6.627405,0 11.99998,-5.328 11.99998,-11.9001 C 43.959021,36.1498 38,35.3 38,26.7998 38,23.0328 35.538725,20 31.959041,20 Z"
       id="path4-2" />
    <path
       style="fill:url(#radialGradient23-2)"
       d="m 37.959031,19.2 c 0,3.8662 -2.686288,6.8 -5.99999,6.8 -3.313702,0 -5.99999,-2.9338 -5.99999,-6.8 z"
       id="path11-9" />
    <path
       id="circle12-5-3"
       style="fill:#ffffff"
       d="m 30.73372,18.134206 a 4,4 0 0 0 1.189909,-4.01105 4,4 0 0 0 -4.89898,-2.828427 4,4 0 0 0 -2.828428,4.898979 4,4 0 0 0 0.483305,1.101913 5.2053013,6.5552387 75 0 0 5.931566,0.871443 5.2053013,6.5552387 75 0 0 0.122628,-0.03286 z" />
    <path
       id="circle12-1"
       style="fill:#ffffff"
       d="m 33.29802,18.134006 a 4,4 0 0 1 -1.189909,-4.01105 4,4 0 0 1 4.89898,-2.828427 4,4 0 0 1 2.828428,4.898979 4,4 0 0 1 -0.483305,1.101913 6.5552387,5.2053013 15 0 1 -5.931566,0.871443 6.5552387,5.2053013 15 0 1 -0.122628,-0.03286 z" />
    <g
       id="g26-9"
       transform="translate(0.00865884,0.64048756)">
      <circle
         style="fill:#323232"
         cx="28.68218"
         cy="14.48192"
         r="2"
         id="circle10-4" />
      <circle
         style="fill:#323232"
         cx="35.332241"
         cy="14.48192"
         r="2"
         id="circle13-7" />
    </g>
    <path
       id="path6-8"
       style="fill:url(#radialGradient21-7)"
       d="M 31.958984 16 C 28.645282 16 25.958984 17.492984 25.958984 19.333984 C 25.958984 20.000584 28.645282 24 31.958984 24 C 35.272686 24 37.958984 20.000584 37.958984 19.333984 C 37.958984 17.492984 35.272686 16 31.958984 16 z M 50.587891 40.0625 C 50.427334 40.0572 50.257702 40.072205 50.080078 40.109375 C 50.049968 40.115775 50.021277 40.123099 49.992188 40.130859 C 50.371693 42.616802 49.425845 46.019647 46.861328 46.097656 C 44.557904 46.097656 44.53997 44.184934 44.080078 41.927734 C 43.976122 41.417509 43.879996 40.950576 43.826172 40.529297 C 43.743032 40.528722 43.647855 40.539541 43.492188 40.556641 C 43.1066 40.604641 42.823446 40.716139 42.509766 40.960938 C 42.312047 41.114939 42.254375 41.180947 42.082031 41.435547 C 41.908911 41.692347 41.866506 41.779516 41.767578 42.103516 C 41.518657 42.919116 41.439881 43.386434 41.150391 45.740234 C 40.921166 47.606334 40.86134 48.196216 40.816406 49.041016 C 40.767486 49.961216 40.605924 51.477338 40.505859 51.960938 C 40.489059 52.042938 40.385101 52.542314 40.273438 53.070312 C 40.161918 53.598512 40.062781 54.088156 40.054688 54.160156 C 39.881448 55.222756 39.93947 56.317956 40.255859 57.285156 C 40.367839 57.621156 40.393243 57.674931 40.603516 58.019531 C 40.870434 58.456931 41.000321 58.636738 41.101562 58.710938 C 41.141962 58.740938 41.240648 58.826344 41.322266 58.902344 C 42.371862 59.879744 43.924669 60.238515 45.294922 59.820312 C 45.586112 59.732312 46.119309 59.468156 46.382812 59.285156 L 46.382812 59.292969 C 46.842849 58.969769 47.209351 58.606056 47.96875 57.722656 C 49.0993 56.407456 49.070455 55.879894 51.408203 53.996094 C 52.574353 53.056894 52.997433 52.687425 53.955078 51.765625 C 54.303477 51.430425 54.772282 50.990862 54.996094 50.789062 C 55.603637 50.241462 55.752597 50.069786 55.910156 49.742188 C 56.125154 49.295386 56.074863 48.794822 55.771484 48.357422 C 55.577004 48.077022 55.321341 47.840559 54.714844 47.380859 C 53.90414 46.766059 53.571911 46.237303 53.103516 45.470703 C 52.827917 45.019503 53.188456 43.879656 52.748047 42.722656 C 52.487493 42.038256 52.480226 41.790753 52.269531 41.376953 C 52.040909 40.928153 51.994159 40.850325 51.859375 40.703125 C 51.479432 40.286875 51.069559 40.078531 50.587891 40.0625 z M 13.339844 40.070312 C 12.858176 40.086343 12.448302 40.294688 12.068359 40.710938 C 11.933575 40.858137 11.886825 40.935966 11.658203 41.384766 C 11.447508 41.798566 11.440242 42.046069 11.179688 42.730469 C 10.739278 43.887469 11.099818 45.027316 10.824219 45.478516 C 10.355824 46.245116 10.023594 46.773872 9.2128906 47.388672 C 8.6063936 47.848372 8.35073 48.084834 8.15625 48.365234 C 7.852871 48.802634 7.8025801 49.303199 8.0175781 49.75 C 8.1751371 50.077599 8.3240976 50.249275 8.9316406 50.796875 C 9.1554526 50.998675 9.6242577 51.438237 9.9726562 51.773438 C 10.930301 52.695237 11.353381 53.064706 12.519531 54.003906 C 14.857279 55.887706 14.828434 56.415269 15.958984 57.730469 C 16.718383 58.613869 17.084885 58.977581 17.544922 59.300781 L 17.544922 59.292969 C 17.808425 59.475969 18.341622 59.740125 18.632812 59.828125 C 20.003066 60.246327 21.555873 59.887556 22.605469 58.910156 C 22.687087 58.834156 22.785772 58.74875 22.826172 58.71875 C 22.927413 58.64455 23.057301 58.464744 23.324219 58.027344 C 23.534492 57.682744 23.559895 57.628969 23.671875 57.292969 C 23.988265 56.325769 24.046288 55.230569 23.873047 54.167969 C 23.864954 54.095969 23.765817 53.606325 23.654297 53.078125 C 23.542634 52.550126 23.438675 52.05075 23.421875 51.96875 C 23.32181 51.48515 23.160248 49.969028 23.111328 49.048828 C 23.066394 48.204028 23.006569 47.614147 22.777344 45.748047 C 22.487854 43.394247 22.409077 42.926928 22.160156 42.111328 C 22.061228 41.787328 22.018823 41.700159 21.845703 41.443359 C 21.673359 41.188759 21.615688 41.122751 21.417969 40.96875 C 21.104289 40.723951 20.821135 40.612453 20.435547 40.564453 C 20.27988 40.547353 20.184703 40.536534 20.101562 40.537109 C 20.047738 40.958388 19.951612 41.425322 19.847656 41.935547 C 19.387764 44.192747 19.36983 46.105469 17.066406 46.105469 C 14.501889 46.02746 13.556042 42.624615 13.935547 40.138672 C 13.906457 40.130912 13.877766 40.123587 13.847656 40.117188 C 13.670032 40.080018 13.500401 40.065013 13.339844 40.070312 z " />
  </g>
</svg>
