<?xml version="1.0" encoding="UTF-8" standalone="no"?>
<svg
   width="64"
   height="64"
   version="1"
   id="svg23"
   sodipodi:docname="supertuxkart.svg"
   inkscape:version="1.4.3 (0d15f75042, 2025-12-25)"
   xmlns:inkscape="http://www.inkscape.org/namespaces/inkscape"
   xmlns:sodipodi="http://sodipodi.sourceforge.net/DTD/sodipodi-0.dtd"
   xmlns:xlink="http://www.w3.org/1999/xlink"
   xmlns="http://www.w3.org/2000/svg"
   xmlns:svg="http://www.w3.org/2000/svg">
  <defs
     id="defs23">
    <inkscape:path-effect
       effect="fillet_chamfer"
       id="path-effect32"
       is_visible="true"
       lpeversion="1"
       nodesatellites_param="F,0,0,1,0,0,0,1 @ F,0,0,1,0,0,0,1 @ F,0,0,1,0,5.1170832,0,1 @ F,0,0,1,0,1.8328581,0,1 @ F,0,0,1,0,1.8328581,0,1 @ F,0,1,1,0,4.7090189,0,1 @ F,0,0,1,0,0,0,1 @ F,0,0,1,0,4.7090189,0,1 @ F,0,0,1,0,1.8328581,0,1 @ F,0,0,1,0,1.8328581,0,1 @ F,0,0,1,0,5.1995763,0,1 @ F,0,0,1,0,0,0,1"
       radius="0"
       unit="px"
       method="auto"
       mode="F"
       chamfer_steps="1"
       flexible="false"
       use_knot_distance="true"
       apply_no_radius="true"
       apply_with_radius="true"
       only_selected="false"
       hide_knots="false" />
    <filter
       inkscape:collect="always"
       style="color-interpolation-filters:sRGB"
       id="filter35"
       x="-0.10684924"
       y="-0.068890025"
       width="1.2136988"
       height="1.13778">
      <feGaussianBlur
         inkscape:collect="always"
         stdDeviation="1.5657686"
         id="feGaussianBlur35" />
    </filter>
    <radialGradient
       inkscape:collect="always"
       xlink:href="#linearGradient18"
       id="radialGradient19"
       cx="30.854156"
       cy="18.41264"
       fx="30.854158"
       fy="18.41264"
       r="18.056887"
       gradientTransform="matrix(1.5192549e-8,2.1728177,-1.8143884,1.2686377e-8,64.261833,-56.109759)"
       gradientUnits="userSpaceOnUse" />
    <linearGradient
       id="linearGradient18"
       inkscape:collect="always">
      <stop
         style="stop-color:#6f6b6b;stop-opacity:1;"
         offset="0"
         id="stop18" />
      <stop
         style="stop-color:#322d2d;stop-opacity:1;"
         offset="1"
         id="stop19" />
    </linearGradient>
    <radialGradient
       inkscape:collect="always"
       xlink:href="#linearGradient25"
       id="radialGradient26"
       cx="31.959042"
       cy="36.99995"
       fx="31.959042"
       fy="36.99995"
       r="11.99998"
       gradientTransform="matrix(1,0,0,1.4166649,0,-15.416579)"
       gradientUnits="userSpaceOnUse" />
    <linearGradient
       id="linearGradient25"
       inkscape:collect="always">
      <stop
         style="stop-color:#fff0d7;stop-opacity:1;"
         offset="0"
         id="stop25" />
      <stop
         style="stop-color:#fff1e8;stop-opacity:1;"
         offset="1"
         id="stop26" />
    </linearGradient>
    <radialGradient
       inkscape:collect="always"
       xlink:href="#linearGradient24"
       id="radialGradient23"
       cx="31.889198"
       cy="18.927256"
       fx="31.889198"
       fy="18.927256"
       r="5.99999"
       gradientTransform="matrix(3.0242049,0,0,2.4441939,-64.691647,-32.638783)"
       gradientUnits="userSpaceOnUse" />
    <linearGradient
       id="linearGradient24"
       inkscape:collect="always">
      <stop
         style="stop-color:#ffc104;stop-opacity:1;"
         offset="0"
         id="stop23" />
      <stop
         style="stop-color:#ff8d00;stop-opacity:1;"
         offset="1"
         id="stop24" />
    </linearGradient>
    <radialGradient
       inkscape:collect="always"
       xlink:href="#linearGradient19"
       id="radialGradient21"
       cx="31.894524"
       cy="13.822928"
       fx="31.894524"
       fy="13.822928"
       r="24.041529"
       gradientTransform="matrix(-0.92172412,1.596473,-1.4609535,-0.84348188,81.487131,-23.384052)"
       gradientUnits="userSpaceOnUse" />
    <linearGradient
       id="linearGradient19"
       inkscape:collect="always">
      <stop
         style="stop-color:#ffc104;stop-opacity:1;"
         offset="0"
         id="stop20" />
      <stop
         style="stop-color:#ff890d;stop-opacity:1;"
         offset="1"
         id="stop21" />
    </linearGradient>
    <radialGradient
       inkscape:collect="always"
       xlink:href="#linearGradient18"
       id="radialGradient31"
       gradientUnits="userSpaceOnUse"
       gradientTransform="matrix(-7.5541566e-8,2.1385331,-1.7250642,-0.46161717,-12.424092,-81.552841)"
       cx="39.111958"
       cy="-25.208916"
       fx="39.111958"
       fy="-25.208916"
       r="16.424126" />
    <filter
       inkscape:collect="always"
       style="color-interpolation-filters:sRGB"
       id="filter32"
       x="-0.15095708"
       y="-0.75478543"
       width="1.3019142"
       height="2.5095709">
      <feGaussianBlur
         inkscape:collect="always"
         stdDeviation="1.761166"
         id="feGaussianBlur32" />
    </filter>
  </defs>
  <sodipodi:namedview
     id="namedview23"
     pagecolor="#ffffff"
     bordercolor="#000000"
     borderopacity="0.25"
     inkscape:showpageshadow="2"
     inkscape:pageopacity="0.0"
     inkscape:pagecheckerboard="0"
     inkscape:deskcolor="#d1d1d1"
     inkscape:zoom="7.5545667"
     inkscape:cx="-0.3971108"
     inkscape:cy="23.297167"
     inkscape:current-layer="svg23" />
  <g
     id="g23"
     transform="translate(-48.03775,23.372802)">
    <g
       id="g27"
       transform="translate(48.025723,-23.371482)">
      <path
         id="path2-6"
         style="fill:url(#radialGradient19)"
         d="m 31.958984,4 c -5.369531,0 -10,4.9944388 -10,11.199219 0,14 -8,15.400972 -8,25.201172 0,10.8245 8.058891,19.599609 18,19.599609 8.988448,0 16.437938,-7.174578 17.783204,-16.550781 0.359841,-1.138027 0.420138,-2.455953 0.208984,-3.556641 C 49.680555,30.546988 41.958984,28.953907 41.958984,15.199219 41.958984,8.9944388 37.328515,4 31.958984,4 Z" />
      <path
         style="fill:url(#radialGradient26)"
         d="M 31.959041,20 C 28.379357,20 26,23.0328 26,26.7998 c 0,8.5002 -6.040939,9.35 -6.040939,15.3 0,6.5721 5.372575,11.9001 11.99998,11.9001 6.627405,0 11.99998,-5.328 11.99998,-11.9001 C 43.959021,36.1498 38,35.3 38,26.7998 38,23.0328 35.538725,20 31.959041,20 Z"
         id="path4" />
      <path
         style="fill:url(#radialGradient23)"
         d="m 37.959031,19.2 c 0,3.8662 -2.686288,6.8 -5.99999,6.8 -3.313702,0 -5.99999,-2.9338 -5.99999,-6.8 z"
         id="path11-7" />
      <path
         id="circle12-5"
         style="fill:#ffffff"
         d="m 30.73372,18.134206 a 4,4 0 0 0 1.189909,-4.01105 4,4 0 0 0 -4.89898,-2.828427 4,4 0 0 0 -2.828428,4.898979 4,4 0 0 0 0.483305,1.101913 5.2053013,6.5552387 75 0 0 5.931566,0.871443 5.2053013,6.5552387 75 0 0 0.122628,-0.03286 z" />
      <path
         id="circle12"
         style="fill:#ffffff"
         d="m 33.29802,18.134006 a 4,4 0 0 1 -1.189909,-4.01105 4,4 0 0 1 4.89898,-2.828427 4,4 0 0 1 2.828428,4.898979 4,4 0 0 1 -0.483305,1.101913 6.5552387,5.2053013 15 0 1 -5.931566,0.871443 6.5552387,5.2053013 15 0 1 -0.122628,-0.03286 z" />
      <g
         id="g26"
         transform="translate(0.00865884,0.64048756)">
        <circle
           style="fill:#323232"
           cx="28.68218"
           cy="14.48192"
           r="2"
           id="circle10" />
        <circle
           style="fill:#323232"
           cx="35.332241"
           cy="14.48192"
           r="2"
           id="circle13" />
      </g>
      <path
         id="path6"
         style="fill:url(#radialGradient21)"
         d="m 31.958984,16 c -3.313702,0 -6,1.492984 -6,3.333984 0,0.6666 2.686298,4.666016 6,4.666016 3.313702,0 6,-3.999416 6,-4.666016 0,-1.841 -2.686298,-3.333984 -6,-3.333984 z"
         sodipodi:nodetypes="sssss" />
    </g>
    <g
       id="g35"
       style="stroke:#000000;stroke-width:0.2;stroke-dasharray:none;stroke-opacity:1;filter:url(#filter35)"
       transform="translate(111.3307,-20.038791)">
      <path
         d="m -31.345703,0.66601562 c -5.369531,0 -10,4.99443858 -10,11.19921838 0,14 -8,15.400972 -8,25.201172 0,1.0371 0.07427,2.055269 0.216797,3.048828 0.273563,-0.332735 0.468461,-1.74578 0.832031,-2.392578 0.583107,-1.028401 1.732517,-1.01844 2.671875,-1.05664 0.266321,0.056 0.354795,0.09287 0.646484,0.261718 0.293564,0.168 0.377542,0.236013 0.632813,0.507813 0.353743,0.376766 0.604748,0.674857 1,1.230469 0.06745,-5.859548 6.041016,-6.748967 6.041016,-15.201172 0,-1.415617 0.335861,-2.728364 0.945312,-3.814453 -0.59911,-1.028029 -0.957367,-2.263174 -0.984375,-3.619141 -0.0011,-0.01088 -0.002,-0.02171 -0.002,-0.03125 0,-0.0145 -3.34e-4,-0.02852 0,-0.04297 -3.34e-4,-0.03039 0,-0.06129 0,-0.0918 h 0.0039 c 0.0271,-0.376937 0.168244,-0.737313 0.402344,-1.072265 a 5.2053013,6.5552387 75 0 1 -1.685547,-0.832031 4,4 0 0 1 -0.482422,-1.101563 4,4 0 0 1 2.828125,-4.9003906 4,4 0 0 1 1.035156,-0.1347657 4,4 0 0 1 3.863282,2.9648443 4,4 0 0 1 0.0918,0.445312 4,4 0 0 1 0.09375,-0.447266 4,4 0 0 1 3.863281,-2.9628903 4,4 0 0 1 1.035156,0.1347657 4,4 0 0 1 2.828125,4.9003906 4,4 0 0 1 -0.482422,1.101563 6.5552387,5.2053013 15 0 1 -1.78125,0.859375 c 0.222254,0.326694 0.356456,0.678494 0.382813,1.044921 h 0.0039 c 0,0.03052 3.34e-4,0.0614 0,0.0918 3.34e-4,0.01444 0,0.02848 0,0.04297 0,0.0095 -8.59e-4,0.02037 -0.002,0.03125 -0.02659,1.334766 -0.37472,2.553927 -0.957031,3.572266 0.641541,1.095413 1,2.424628 1,3.861328 0,7.691768 4.878506,9.119737 5.80664,13.730468 0.0063,-7.9e-5 0.01339,-4.2e-5 0.01953,0 0.05382,0.421279 0.149951,0.888213 0.253907,1.398438 0.459892,2.2572 0.477826,4.169922 2.78125,4.169922 1.481643,-0.04507 2.423249,-1.199816 2.880859,-2.646485 1.88e-4,-5.95e-4 -1.88e-4,-0.0014 0,-0.002 0.08714,-0.27559 0.154624,-0.562465 0.207031,-0.853515 0.01601,-0.08904 0.02235,-0.179738 0.03516,-0.269532 0.0291,-0.203774 0.05751,-0.408326 0.07031,-0.613281 0.0066,-0.105974 0.0036,-0.210886 0.0059,-0.316406 0.0041,-0.186151 0.0072,-0.372188 -0.002,-0.554688 -0.006,-0.11964 -0.02155,-0.234517 -0.0332,-0.351562 -0.02015,-0.202395 -0.03751,-0.406306 -0.07422,-0.597656 -0.270617,-9.34559 -7.992187,-10.938672 -7.992187,-24.69336 0,-6.2047798 -4.630469,-11.19921838 -10,-11.19921838 z m 0.05664,11.74804738 a 4,4 0 0 1 -0.04492,0.251953 c 0.03071,-5.4e-5 0.06121,-2.9e-4 0.0918,0 a 4,4 0 0 1 -0.04687,-0.251953 z m 8.708984,34.478515 c -2.189897,2.321338 -5.306919,3.771484 -8.765625,3.771484 -1.656608,0 -3.234431,-0.33368 -4.669922,-0.935546 0.303582,0.631118 0.517968,1.293626 0.621094,1.955078 0.05804,0.386 0.05982,0.450778 0.02734,0.892578 -0.0412,0.561 -0.0759,0.801428 -0.136719,0.923828 -0.0244,0.05 -0.07802,0.183475 -0.119141,0.296875 -0.268403,0.747812 -0.740475,1.401636 -1.339844,1.896484 1.767436,0.631554 3.655764,0.972657 5.617188,0.972657 3.058451,0 5.9387,-0.831443 8.460937,-2.296875 -0.06188,-0.119914 -0.0978,-0.219147 -0.164062,-0.417969 -0.316389,-0.9672 -0.374412,-2.0624 -0.201172,-3.125 0.0081,-0.072 0.10723,-0.561644 0.21875,-1.089844 0.111663,-0.527999 0.215622,-1.027375 0.232422,-1.109375 0.063,-0.304478 0.150454,-1.017729 0.21875,-1.734375 z"
         style="fill:none;stroke:#000000;stroke-width:0.2;stroke-dasharray:none;stroke-opacity:1"
         id="path35" />
      <path
         d="m -26.304687,19.603516 c -1.068595,1.868743 -2.926827,3.0625 -5.041016,3.0625 -2.09589,0 -3.940808,-1.17467 -5.013672,-3.015625 -0.609451,1.086089 -0.945312,2.398836 -0.945312,3.814453 0,8.452205 -5.973565,9.341624 -6.041016,15.201172 0.322518,0.453368 0.741272,1.077968 1.388672,2.058593 1.141952,1.7302 1.490859,2.284104 1.951172,3.095703 0.501445,0.884501 1.407073,2.301869 1.742187,2.730469 0.05678,0.074 0.403338,0.513869 0.771485,0.980469 0.368162,0.4674 0.704686,0.905456 0.748046,0.972656 0.278416,0.388363 0.523842,0.799112 0.728516,1.22461 1.435491,0.601866 3.013314,0.935546 4.669922,0.935546 3.458706,0 6.575728,-1.450146 8.765625,-3.771484 0.04018,-0.421597 0.07368,-0.844711 0.0918,-1.185547 0.04493,-0.8448 0.104759,-1.434681 0.333984,-3.300781 0.28949,-2.3538 0.368267,-2.821119 0.617188,-3.636719 0.09893,-0.324 0.141333,-0.411169 0.314453,-0.667969 0.172344,-0.2546 0.230015,-0.320608 0.427734,-0.474609 0.31368,-0.244799 0.596834,-0.356297 0.982422,-0.404297 0.144169,-0.01584 0.235562,-0.02634 0.314453,-0.02734 -0.928134,-4.610731 -5.80664,-6.0387 -5.80664,-13.730468 0,-1.4367 -0.358459,-2.765915 -1,-3.861328 z"
         style="fill:none;stroke:#000000;stroke-width:0.2;stroke-dasharray:none;stroke-opacity:1"
         id="path34" />
      <path
         d="m -37.345703,15.865234 c 0,0.03051 -3.34e-4,0.06141 0,0.0918 7.05e-4,-0.03055 0.0017,-0.06145 0.0039,-0.0918 z m 11.996094,0 c 0.0022,0.03036 0.0032,0.06124 0.0039,0.0918 3.34e-4,-0.0304 0,-0.06128 0,-0.0918 z M -37.34375,16.03125 c 0.07537,3.784182 2.731768,6.634766 5.998047,6.634766 3.266279,0 5.922675,-2.850584 5.998047,-6.634766 -0.07537,0.749607 -2.731768,4.634766 -5.998047,4.634766 -3.266279,0 -5.922675,-3.885159 -5.998047,-4.634766 z"
         style="fill:none;stroke:#000000;stroke-width:0.2;stroke-dasharray:none;stroke-opacity:1"
         id="path33" />
      <path
         d="m -35.244141,7.8242187 a 4,4 0 0 0 -1.035156,0.1347657 4,4 0 0 0 -2.828125,4.9003906 4,4 0 0 0 0.482422,1.101563 5.2053013,6.5552387 75 0 0 1.685547,0.832031 c 0.321765,-0.460385 0.821293,-0.872244 1.453125,-1.207031 a 2,2 0 0 1 -1.126953,-1.798829 2,2 0 0 1 2,-1.9999996 2,2 0 0 1 2,1.9999996 2,2 0 0 1 -0.261719,0.988282 c 0.488063,-0.07126 1.000996,-0.109375 1.529297,-0.109375 0.0038,0 0.0079,6e-6 0.01172,0 a 4,4 0 0 0 0.04492,-0.251953 4,4 0 0 1 0,-1.179688 4,4 0 0 0 -0.0918,-0.445312 4,4 0 0 0 -3.863282,-2.9648443 z"
         style="fill:none;stroke:#000000;stroke-width:0.2;stroke-dasharray:none;stroke-opacity:1"
         id="path32" />
      <path
         d="m -27.332031,7.8242187 a 4,4 0 0 0 -3.863281,2.9628903 4,4 0 0 0 -0.04687,1.878907 c 0.537273,0.0051 1.056716,0.05028 1.550781,0.128906 a 2,2 0 0 1 -0.271485,-1.007813 2,2 0 0 1 2,-1.9999996 2,2 0 0 1 2,1.9999996 2,2 0 0 1 -1.189453,1.828125 c 0.619667,0.336525 1.107795,0.746277 1.419922,1.205079 a 6.5552387,5.2053013 15 0 0 1.78125,-0.859375 4,4 0 0 0 0.482422,-1.101563 4,4 0 0 0 -2.828125,-4.9003906 4,4 0 0 0 -1.035156,-0.1347657 z"
         style="fill:none;stroke:#000000;stroke-width:0.2;stroke-dasharray:none;stroke-opacity:1"
         id="path31" />
      <path
         d="m -34.613281,9.7871094 a 2,2 0 0 0 -2,1.9999996 2,2 0 0 0 1.126953,1.798829 c 0.722344,-0.382748 1.616463,-0.665298 2.611328,-0.810547 a 2,2 0 0 0 0.261719,-0.988282 2,2 0 0 0 -2,-1.9999996 z"
         style="fill:none;stroke:#000000;stroke-width:0.2;stroke-dasharray:none;stroke-opacity:1"
         id="path30" />
      <path
         d="m -27.962891,9.7871094 a 2,2 0 0 0 -2,1.9999996 2,2 0 0 0 0.271485,1.007813 c 0.968693,0.154166 1.837913,0.439537 2.539062,0.820312 a 2,2 0 0 0 1.189453,-1.828125 2,2 0 0 0 -2,-1.9999996 z"
         style="fill:none;stroke:#000000;stroke-width:0.2;stroke-dasharray:none;stroke-opacity:1"
         id="path29" />
      <path
         d="m -31.345703,12.666016 c -3.313702,0 -6,1.492984 -6,3.333984 0,0.6666 2.686298,4.666016 6,4.666016 3.313702,0 6,-3.999416 6,-4.666016 0,-1.841 -2.686298,-3.333984 -6,-3.333984 z"
         style="fill:none;stroke:#000000;stroke-width:0.2;stroke-dasharray:none;stroke-opacity:1"
         id="path28"
         sodipodi:nodetypes="sssss" />
    </g>
  </g>
  <path
     style="fill:#303030"
     d="m6.707 44c-1.499 0-2.707 1.192-2.707 2.668v10.664c0 1.476 1.208 2.668 2.707 2.668h2.586c1.499 0 2.707-1.192 2.707-2.668v-10.664c0-1.476-1.208-2.668-2.707-2.668h-2.586zm47.996 0c-1.5 0-2.704 1.192-2.704 2.668v10.664c0 1.476 1.204 2.668 2.704 2.668h2.5898c1.498 0 2.706-1.192 2.706-2.668v-10.664c0-1.476-1.208-2.668-2.708-2.668h-2.5898z"
     id="path2" />
  <path
     style="fill:#303030"
     d="m32 32a8 8 0 0 0 -8 8 8 8 0 0 0 8 8 8 8 0 0 0 8 -8 8 8 0 0 0 -8 -8zm0 3.2a4.8 4.8 0 0 1 3.1188 1.1531l-3.118 1.8-3.116-1.798a4.8 4.8 0 0 1 3.116 -1.156zm4.7188 3.9218a4.8 4.8 0 0 1 0.082 0.878 4.8 4.8 0 0 1 -3.2 4.5218v-3.6l3.1188-1.8zm-9.4344 0.0032 3.1156 1.7968v3.5968a4.8 4.8 0 0 1 -3.2 -4.518 4.8 4.8 0 0 1 0.084 -0.876z"
     id="path10" />
  <path
     style="fill:#f5432a"
     d="m 32,40 c -10.825,0 -20,4.4772 -20,10 0.0062,1.297089 -1.059796,2 -3.8858832,2 H 7.8328581 A 1.8328581,1.8328581 135 0 0 6,53.832858 l 0,2.334284 A 1.8328581,1.8328581 45 0 0 7.8328581,58 h 5.7671229 c 2.600719,0 6.634462,0.947774 9.184186,1.414517 C 25.595262,59.929107 28.75629,59.997466 32,60 c 3.250609,-5.91e-4 6.41872,-0.06856 9.235593,-0.584873 C 43.784917,58.947857 47.8183,58 50.419019,58 h 5.748123 A 1.8328581,1.8328581 135 0 0 58,56.167142 l 0,-2.334284 A 1.8328581,1.8328581 45 0 0 56.167142,52 l -0.193366,0 C 53.10213,52 51.996102,51.295536 52,50 52,44.4772 42.8248,40 32,40 Z"
     id="path12"
     inkscape:path-effect="#path-effect32"
     inkscape:original-d="m 32,40 c -10.825,0 -20,4.4772 -20,10 0.0046,0.96788 1.2312,2 1.2312,2 H 6 v 6 h 12.309 c 3.657,1.828 8.571,1.996 13.691,2 5.1266,-9.32e-4 10.048,-0.16946 13.71,-2 H 58 v -6 h -7.2258 c 0,0 1.2229,-1.0322 1.2258,-2 0,-5.5228 -9.1752,-10 -20,-10 z" />
  <path
     id="ellipse12"
     style="fill:url(#radialGradient31);stroke-width:0.793966"
     d="m 21.000073,28.554814 a 7.2050849,3.8212988 23.356667 0 0 -2.99166,1.015869 7.2050849,3.8212988 23.356667 0 0 3.357092,6.366238 7.2050849,3.8212988 23.356667 0 0 8.990716,0.645192 7.2050849,3.8212988 23.356667 0 0 -3.355346,-6.366238 7.2050849,3.8212988 23.356667 0 0 -6.000802,-1.661061 z m 22.200525,0 a 3.8212988,7.2050849 66.643333 0 0 -6.000805,1.661061 3.8212988,7.2050849 66.643333 0 0 -3.355343,6.366237 3.8212988,7.2050849 66.643333 0 0 8.990714,-0.645191 3.8212988,7.2050849 66.643333 0 0 3.355345,-6.366237 3.8212988,7.2050849 66.643333 0 0 -2.989911,-1.01587 z" />
  <ellipse
     style="fill:#ffffff"
     cx="21"
     cy="49.2"
     rx="3"
     ry="2.8"
     id="ellipse15" />
  <ellipse
     style="fill:#ffffff"
     cx="43"
     cy="49.2"
     rx="3"
     ry="2.8"
     id="ellipse17" />
  <g
     id="g32"
     transform="translate(0.99424038,3.4798413)"
     style="filter:url(#filter32)">
    <ellipse
       style="fill:#ffffff"
       cx="20"
       cy="45.799999"
       rx="3"
       ry="2.8"
       id="ellipse15-3" />
    <ellipse
       style="fill:#ffffff"
       cx="42"
       cy="45.799999"
       rx="3"
       ry="2.8"
       id="ellipse17-5" />
  </g>
  <path
     style="opacity:.5"
     d="m31.334 46c-0.36934 0-0.66666 0.892-0.66666 2v4c0 1.108 0.29734 2 0.66666 2 0.368 0 0.666-0.892 0.666-2v-4c0-1.108-0.29734-2-0.66666-2zm-2.6666 1.3333c-0.37 0-0.668 0.594-0.668 1.332v2.6666c0 0.73866 0.29734 1.3333 0.66666 1.3333 0.36934 0 0.66666-0.59466 0.66666-1.3333v-2.6666c0-0.73866-0.29734-1.3333-0.66666-1.3333z"
     id="path17" />
  <path
     style="opacity:.5"
     d="m32.666 46c0.36934 0 0.66666 0.892 0.66666 2v4c0 1.108-0.29734 2-0.66666 2-0.368 0-0.666-0.892-0.666-2v-4c0-1.108 0.29734-2 0.66666-2zm2.6666 1.3333c0.37 0 0.668 0.594 0.668 1.332v2.6666c0 0.73866-0.29734 1.3333-0.66666 1.3333-0.36934 0-0.66666-0.59466-0.66666-1.3333v-2.6666c0-0.73866 0.29734-1.3333 0.66666-1.3333z"
     id="path18" />
</svg>
