<?xml version="1.0" encoding="UTF-8" standalone="no"?>
<svg
   width="64"
   height="64"
   version="1"
   id="svg11"
   sodipodi:docname="com.gexperts.Terminix.svg"
   inkscape:version="1.4.3 (0d15f75042, 2025-12-25)"
   xmlns:inkscape="http://www.inkscape.org/namespaces/inkscape"
   xmlns:sodipodi="http://sodipodi.sourceforge.net/DTD/sodipodi-0.dtd"
   xmlns:xlink="http://www.w3.org/1999/xlink"
   xmlns="http://www.w3.org/2000/svg"
   xmlns:svg="http://www.w3.org/2000/svg">
  <defs
     id="defs11">
    <inkscape:path-effect
       effect="fillet_chamfer"
       id="path-effect13"
       is_visible="true"
       lpeversion="1"
       nodesatellites_param="F,0,0,1,0,0,0,1 @ F,0,0,1,0,0,0,1 @ F,0,0,1,0,10.925362,0,1 @ F,0,1,1,0,10.925362,0,1"
       radius="0"
       unit="px"
       method="auto"
       mode="F"
       chamfer_steps="1"
       flexible="false"
       use_knot_distance="true"
       apply_no_radius="true"
       apply_with_radius="true"
       only_selected="false"
       hide_knots="false" />
    <inkscape:path-effect
       effect="fillet_chamfer"
       id="path-effect12"
       is_visible="true"
       lpeversion="1"
       nodesatellites_param="F,0,0,1,0,0,0,1 @ F,0,0,1,0,0,0,1 @ F,0,0,1,0,0,0,1 @ F,0,0,1,0,0,0,1"
       radius="0"
       unit="px"
       method="auto"
       mode="F"
       chamfer_steps="1"
       flexible="false"
       use_knot_distance="true"
       apply_no_radius="true"
       apply_with_radius="true"
       only_selected="false"
       hide_knots="false" />
    <inkscape:path-effect
       effect="fillet_chamfer"
       id="path-effect11"
       is_visible="true"
       lpeversion="1"
       nodesatellites_param="F,0,0,1,0,0,0,1 @ F,0,0,1,0,0,0,1 @ F,0,0,1,0,0,0,1 @ F,0,0,1,0,0,0,1"
       radius="0"
       unit="px"
       method="auto"
       mode="F"
       chamfer_steps="1"
       flexible="false"
       use_knot_distance="true"
       apply_no_radius="true"
       apply_with_radius="true"
       only_selected="false"
       hide_knots="false" />
    <filter
       inkscape:collect="always"
       style="color-interpolation-filters:sRGB"
       id="filter2"
       x="-0.11034889"
       y="-0.12359076"
       width="1.2206978"
       height="1.2471815">
      <feGaussianBlur
         inkscape:collect="always"
         stdDeviation="2.5300138"
         id="feGaussianBlur2" />
    </filter>
    <radialGradient
       inkscape:collect="always"
       xlink:href="#SVGID_1_-3-2"
       id="radialGradient9"
       cx="94.453384"
       cy="-1.0981183"
       fx="94.453384"
       fy="-1.0981183"
       r="28"
       gradientUnits="userSpaceOnUse"
       gradientTransform="matrix(0,-2.2255634,2.1809298,0,64.220032,274.38185)" />
    <radialGradient
       id="SVGID_1_-3-2"
       cx="-159.43106"
       cy="15.462561"
       r="64.706802"
       gradientTransform="matrix(-0.89413329,0,0,0.96304834,-70.017818,-8.6185067)"
       gradientUnits="userSpaceOnUse"
       fx="-159.43106"
       fy="15.462561">
      <stop
         offset="0"
         style="stop-color:#006fff;stop-opacity:1;"
         id="stop1-6-9" />
      <stop
         offset="1"
         style="stop-color:#15baff;stop-opacity:1;"
         id="stop2-7-1" />
    </radialGradient>
    <filter
       inkscape:collect="always"
       style="color-interpolation-filters:sRGB"
       id="filter12"
       x="-0.06906956"
       y="-0.080183744"
       width="1.1381391"
       height="1.1603675">
      <feGaussianBlur
         inkscape:collect="always"
         stdDeviation="1.5491233"
         id="feGaussianBlur12" />
    </filter>
    <filter
       inkscape:collect="always"
       style="color-interpolation-filters:sRGB"
       id="filter11"
       x="-0.08790673"
       y="-0.10673618"
       width="1.1758135"
       height="1.2134724">
      <feGaussianBlur
         inkscape:collect="always"
         stdDeviation="1.5491233"
         id="feGaussianBlur11" />
    </filter>
    <inkscape:path-effect
       effect="fillet_chamfer"
       id="path-effect6"
       is_visible="true"
       lpeversion="1"
       nodesatellites_param="F,0,0,1,0,1.5848536,0,1 @ F,0,0,1,0,1.5848536,0,1 @ F,0,0,1,0,0.54849555,0,1 @ F,0,0,1,0,1.5848536,0,1 @ F,0,0,1,0,1.5848536,0,1 @ F,0,0,1,0,1.9224346,0,1 | F,0,0,1,0,1.5848536,0,1 @ F,0,0,1,0,1.5848536,0,1 @ F,0,0,1,0,1.5848536,0,1 @ F,0,0,1,0,1.5848536,0,1"
       radius="0"
       unit="px"
       method="auto"
       mode="F"
       chamfer_steps="1"
       flexible="false"
       use_knot_distance="true"
       apply_no_radius="true"
       apply_with_radius="true"
       only_selected="false"
       hide_knots="false" />
    <filter
       inkscape:collect="always"
       style="color-interpolation-filters:sRGB"
       id="filter6"
       x="-0.14011726"
       y="-0.20092686"
       width="1.2802711"
       height="1.4019063">
      <feGaussianBlur
         inkscape:collect="always"
         stdDeviation="0.9580495"
         id="feGaussianBlur6" />
    </filter>
    <inkscape:path-effect
       effect="fillet_chamfer"
       id="path-effect6-7"
       is_visible="true"
       lpeversion="1"
       nodesatellites_param="F,0,0,1,0,1.5848536,0,1 @ F,0,0,1,0,1.5848536,0,1 @ F,0,0,1,0,0.54849555,0,1 @ F,0,0,1,0,1.5848536,0,1 @ F,0,0,1,0,1.5848536,0,1 @ F,0,0,1,0,1.9224346,0,1 | F,0,0,1,0,1.5848536,0,1 @ F,0,0,1,0,1.5848536,0,1 @ F,0,0,1,0,1.5848536,0,1 @ F,0,0,1,0,1.5848536,0,1"
       radius="0"
       unit="px"
       method="auto"
       mode="F"
       chamfer_steps="1"
       flexible="false"
       use_knot_distance="true"
       apply_no_radius="true"
       apply_with_radius="true"
       only_selected="false"
       hide_knots="false" />
    <inkscape:path-effect
       effect="fillet_chamfer"
       id="path-effect6-6"
       is_visible="true"
       lpeversion="1"
       nodesatellites_param="F,0,0,1,0,1.5848536,0,1 @ F,0,0,1,0,1.5848536,0,1 @ F,0,0,1,0,0.54849555,0,1 @ F,0,0,1,0,1.5848536,0,1 @ F,0,0,1,0,1.5848536,0,1 @ F,0,0,1,0,1.9224346,0,1 | F,0,0,1,0,1.5848536,0,1 @ F,0,0,1,0,1.5848536,0,1 @ F,0,0,1,0,1.5848536,0,1 @ F,0,0,1,0,1.5848536,0,1"
       radius="0"
       unit="px"
       method="auto"
       mode="F"
       chamfer_steps="1"
       flexible="false"
       use_knot_distance="true"
       apply_no_radius="true"
       apply_with_radius="true"
       only_selected="false"
       hide_knots="false" />
    <filter
       inkscape:collect="always"
       style="color-interpolation-filters:sRGB"
       id="filter6-2"
       x="-0.14011726"
       y="-0.20092686"
       width="1.2802711"
       height="1.4019063">
      <feGaussianBlur
         inkscape:collect="always"
         stdDeviation="0.9580495"
         id="feGaussianBlur6-9" />
    </filter>
    <inkscape:path-effect
       effect="fillet_chamfer"
       id="path-effect6-7-1"
       is_visible="true"
       lpeversion="1"
       nodesatellites_param="F,0,0,1,0,1.5848536,0,1 @ F,0,0,1,0,1.5848536,0,1 @ F,0,0,1,0,0.54849555,0,1 @ F,0,0,1,0,1.5848536,0,1 @ F,0,0,1,0,1.5848536,0,1 @ F,0,0,1,0,1.9224346,0,1 | F,0,0,1,0,1.5848536,0,1 @ F,0,0,1,0,1.5848536,0,1 @ F,0,0,1,0,1.5848536,0,1 @ F,0,0,1,0,1.5848536,0,1"
       radius="0"
       unit="px"
       method="auto"
       mode="F"
       chamfer_steps="1"
       flexible="false"
       use_knot_distance="true"
       apply_no_radius="true"
       apply_with_radius="true"
       only_selected="false"
       hide_knots="false" />
  </defs>
  <sodipodi:namedview
     id="namedview11"
     pagecolor="#505050"
     bordercolor="#eeeeee"
     borderopacity="1"
     inkscape:showpageshadow="0"
     inkscape:pageopacity="0"
     inkscape:pagecheckerboard="0"
     inkscape:deskcolor="#505050"
     inkscape:zoom="6.2982929"
     inkscape:cx="13.336947"
     inkscape:cy="28.579173"
     inkscape:window-width="1920"
     inkscape:window-height="1020"
     inkscape:window-x="0"
     inkscape:window-y="0"
     inkscape:window-maximized="1"
     inkscape:current-layer="svg11" />
  <path
     id="path2-36"
     style="fill:url(#radialGradient9)"
     d="m 20.800778,7.8810474 c -9.30719,0 -16.8007815,7.4935896 -16.8007815,16.8007806 v 11.199218 3.437126 c 0,9.307189 7.4935915,16.800781 16.8007815,16.800781 h 22.398436 c 9.30719,0 16.80079,-7.493592 16.80079,-16.800781 V 35.881046 24.681827 c 0,-9.30719 -7.4936,-16.8007796 -16.80079,-16.8007796 z"
     sodipodi:nodetypes="sscsssscsss" />
  <path
     style="fill:#3f3f3f"
     d="m 20.999997,13.881046 h 21.999997 c 6.18914,0 11,4.810866 11,11.000001 v 14.237906 c 0,6.189134 -4.81086,11 -11,11 H 20.999997 c -6.189135,0 -11.0000005,-4.810866 -11.0000005,-11 V 24.881047 c 0,-6.189135 4.8108655,-11.000001 11.0000005,-11.000001 z"
     id="path5-7"
     sodipodi:nodetypes="sssssssss" />
  <path
     id="path5-7-6"
     style="fill:#2d2d2d;fill-opacity:1"
     d="M 32 13.880859 L 32 50.119141 L 43 50.119141 C 49.189139 50.119141 54 45.308275 54 39.119141 L 54 24.880859 C 54 18.691724 49.189139 13.880859 43 13.880859 L 32 13.880859 z " />
  <path
     id="path2-3"
     style="fill:none;stroke:#000000;stroke-width:0.3;stroke-dasharray:none;stroke-opacity:1;filter:url(#filter12)"
     d="m 20.800778,7.8810474 c -9.30719,0 -16.8007815,7.4935896 -16.8007815,16.8007796 v 11.199219 3.437126 c 0,9.307189 7.4935915,16.800781 16.8007815,16.800781 h 22.398436 c 9.30719,0 16.80079,-7.493592 16.80079,-16.800781 V 35.881046 24.681827 c 0,-9.30719 -7.4936,-16.8007796 -16.80079,-16.8007796 z"
     sodipodi:nodetypes="sscsssscsss" />
  <path
     style="fill:none;stroke:#000000;stroke-width:0.3;stroke-dasharray:none;stroke-opacity:1;filter:url(#filter11)"
     d="m 20.999997,13.881046 h 21.999997 c 6.18914,0 11,4.810866 11,11.000001 v 14.237906 c 0,6.189134 -4.81086,11 -11,11 H 20.999997 c -6.189135,0 -11.0000005,-4.810866 -11.0000005,-11 V 24.881047 c 0,-6.189135 4.8108655,-11.000001 11.0000005,-11.000001 z"
     id="path5-5"
     sodipodi:nodetypes="sssssssss" />
  <g
     id="g1">
    <path
       id="path3"
       style="baseline-shift:baseline;display:inline;overflow:visible;vector-effect:none;fill:#ffffff;fill-opacity:1;stroke:none;stroke-miterlimit:7.4;enable-background:accumulate;stop-color:#000000"
       d="m 14.630727,17.658994 -0.0048,0.0048 a 1.5848536,1.5848536 90 0 0 0,2.241322 l 2.569619,2.569619 a 0.54875816,0.54875816 89.986287 0 1 1.86e-4,0.775876 l -2.570342,2.572803 a 1.5856124,1.5856124 89.986287 0 0 5.37e-4,2.241858 l 0.0048,0.0048 a 1.584609,1.584609 179.99558 0 0 2.241149,-1.73e-4 l 3.846527,-3.847715 a 1.9224345,1.9224345 89.991156 0 0 -4.19e-4,-2.718733 l -3.845762,-3.844574 a 1.5850983,1.5850983 179.99558 0 0 -2.241495,1.73e-4 z m 7.704645,9.881067 v 0.008 a 1.5848536,1.5848536 45 0 0 1.584854,1.584854 l 5.775605,0 a 1.5848536,1.5848536 135 0 0 1.584854,-1.584854 v -0.008 a 1.5848536,1.5848536 45 0 0 -1.584854,-1.584854 h -5.775605 a 1.5848536,1.5848536 135 0 0 -1.584854,1.584854 z"
       sodipodi:nodetypes="cccccccccccc"
       inkscape:path-effect="#path-effect6"
       inkscape:original-d="m 15.751388,16.538333 -2.246094,2.246094 4.078125,4.078125 -4.078125,4.082031 2.246094,2.246094 6.326172,-6.328125 z m 6.583984,9.416874 v 3.177735 h 8.945313 v -3.177735 z"
       transform="matrix(0.68845887,0,0,0.68845887,5.8593437,7.4942485)" />
    <path
       id="path3-1"
       style="baseline-shift:baseline;display:inline;overflow:visible;fill:none;fill-opacity:1;stroke:#0038ff;stroke-width:0.2;stroke-miterlimit:7.4;stroke-dasharray:none;stroke-opacity:1;filter:url(#filter6);enable-background:accumulate;stop-color:#000000"
       d="m 14.630727,17.658994 -0.0048,0.0048 a 1.5848536,1.5848536 90 0 0 0,2.241322 l 2.569619,2.569619 a 0.54875816,0.54875816 89.986287 0 1 1.86e-4,0.775876 l -2.570342,2.572803 a 1.5856124,1.5856124 89.986287 0 0 5.37e-4,2.241858 l 0.0048,0.0048 a 1.584609,1.584609 179.99558 0 0 2.241149,-1.73e-4 l 3.846527,-3.847715 a 1.9224345,1.9224345 89.991156 0 0 -4.19e-4,-2.718733 l -3.845762,-3.844574 a 1.5850983,1.5850983 179.99558 0 0 -2.241495,1.73e-4 z m 7.704645,9.881067 v 0.008 a 1.5848536,1.5848536 45 0 0 1.584854,1.584854 l 5.775605,0 a 1.5848536,1.5848536 135 0 0 1.584854,-1.584854 v -0.008 a 1.5848536,1.5848536 45 0 0 -1.584854,-1.584854 h -5.775605 a 1.5848536,1.5848536 135 0 0 -1.584854,1.584854 z"
       sodipodi:nodetypes="cccccccccccc"
       inkscape:path-effect="#path-effect6-7"
       inkscape:original-d="m 15.751388,16.538333 -2.246094,2.246094 4.078125,4.078125 -4.078125,4.082031 2.246094,2.246094 6.326172,-6.328125 z m 6.583984,9.416874 v 3.177735 h 8.945313 v -3.177735 z"
       transform="matrix(0.68845887,0,0,0.68845887,5.8593437,7.4942485)" />
  </g>
  <g
     id="g1-7"
     transform="translate(18.267974)">
    <path
       id="path3-0"
       style="baseline-shift:baseline;display:inline;overflow:visible;vector-effect:none;fill:#ffffff;fill-opacity:1;stroke:none;stroke-miterlimit:7.4;enable-background:accumulate;stop-color:#000000"
       d="m 14.630727,17.658994 -0.0048,0.0048 a 1.5848536,1.5848536 90 0 0 0,2.241322 l 2.569619,2.569619 a 0.54875816,0.54875816 89.986287 0 1 1.86e-4,0.775876 l -2.570342,2.572803 a 1.5856124,1.5856124 89.986287 0 0 5.37e-4,2.241858 l 0.0048,0.0048 a 1.584609,1.584609 179.99558 0 0 2.241149,-1.73e-4 l 3.846527,-3.847715 a 1.9224345,1.9224345 89.991156 0 0 -4.19e-4,-2.718733 l -3.845762,-3.844574 a 1.5850983,1.5850983 179.99558 0 0 -2.241495,1.73e-4 z m 7.704645,9.881067 v 0.008 a 1.5848536,1.5848536 45 0 0 1.584854,1.584854 l 5.775605,0 a 1.5848536,1.5848536 135 0 0 1.584854,-1.584854 v -0.008 a 1.5848536,1.5848536 45 0 0 -1.584854,-1.584854 h -5.775605 a 1.5848536,1.5848536 135 0 0 -1.584854,1.584854 z"
       sodipodi:nodetypes="cccccccccccc"
       inkscape:path-effect="#path-effect6-6"
       inkscape:original-d="m 15.751388,16.538333 -2.246094,2.246094 4.078125,4.078125 -4.078125,4.082031 2.246094,2.246094 6.326172,-6.328125 z m 6.583984,9.416874 v 3.177735 h 8.945313 v -3.177735 z"
       transform="matrix(0.68845887,0,0,0.68845887,5.8593437,7.4942485)" />
    <path
       id="path3-1-9"
       style="baseline-shift:baseline;display:inline;overflow:visible;fill:none;fill-opacity:1;stroke:#0038ff;stroke-width:0.2;stroke-miterlimit:7.4;stroke-dasharray:none;stroke-opacity:1;filter:url(#filter6-2);enable-background:accumulate;stop-color:#000000"
       d="m 14.630727,17.658994 -0.0048,0.0048 a 1.5848536,1.5848536 90 0 0 0,2.241322 l 2.569619,2.569619 a 0.54875816,0.54875816 89.986287 0 1 1.86e-4,0.775876 l -2.570342,2.572803 a 1.5856124,1.5856124 89.986287 0 0 5.37e-4,2.241858 l 0.0048,0.0048 a 1.584609,1.584609 179.99558 0 0 2.241149,-1.73e-4 l 3.846527,-3.847715 a 1.9224345,1.9224345 89.991156 0 0 -4.19e-4,-2.718733 l -3.845762,-3.844574 a 1.5850983,1.5850983 179.99558 0 0 -2.241495,1.73e-4 z m 7.704645,9.881067 v 0.008 a 1.5848536,1.5848536 45 0 0 1.584854,1.584854 l 5.775605,0 a 1.5848536,1.5848536 135 0 0 1.584854,-1.584854 v -0.008 a 1.5848536,1.5848536 45 0 0 -1.584854,-1.584854 h -5.775605 a 1.5848536,1.5848536 135 0 0 -1.584854,1.584854 z"
       sodipodi:nodetypes="cccccccccccc"
       inkscape:path-effect="#path-effect6-7-1"
       inkscape:original-d="m 15.751388,16.538333 -2.246094,2.246094 4.078125,4.078125 -4.078125,4.082031 2.246094,2.246094 6.326172,-6.328125 z m 6.583984,9.416874 v 3.177735 h 8.945313 v -3.177735 z"
       transform="matrix(0.68845887,0,0,0.68845887,5.8593437,7.4942485)" />
  </g>
  <rect
     style="fill:none;stroke:#000000;stroke-width:0.21500976;stroke-dasharray:none;stroke-opacity:1;filter:url(#filter2)"
     width="56"
     height="50"
     x="4.049305"
     y="7.0226612"
     rx="10.812714"
     ry="10.248527"
     id="rect2-5"
     transform="matrix(0.93019037,0,0,0.93019037,2.1880467,2.2128303)" />
</svg>
