<?xml version="1.0" encoding="UTF-8" standalone="no"?>
<svg
   width="64"
   height="64"
   version="1.1"
   id="svg17"
   sodipodi:docname="tuxpuck.svg"
   inkscape:version="1.4.3 (0d15f75042, 2025-12-25)"
   xmlns:inkscape="http://www.inkscape.org/namespaces/inkscape"
   xmlns:sodipodi="http://sodipodi.sourceforge.net/DTD/sodipodi-0.dtd"
   xmlns:xlink="http://www.w3.org/1999/xlink"
   xmlns="http://www.w3.org/2000/svg"
   xmlns:svg="http://www.w3.org/2000/svg">
  <defs
     id="defs17">
    <filter
       inkscape:collect="always"
       style="color-interpolation-filters:sRGB"
       id="filter35"
       x="-0.080228291"
       y="-0.068888193"
       width="1.160439"
       height="1.1377968">
      <feGaussianBlur
         inkscape:collect="always"
         stdDeviation="1.5657686"
         id="feGaussianBlur35" />
    </filter>
    <radialGradient
       inkscape:collect="always"
       xlink:href="#linearGradient18"
       id="radialGradient19"
       cx="30.854153"
       cy="18.41264"
       fx="30.854153"
       fy="18.41264"
       r="18.056887"
       gradientTransform="matrix(0,2.1728177,-1.8143884,0,64.261833,-56.109758)"
       gradientUnits="userSpaceOnUse" />
    <linearGradient
       id="linearGradient18"
       inkscape:collect="always">
      <stop
         style="stop-color:#586f80;stop-opacity:1;"
         offset="0"
         id="stop18" />
      <stop
         style="stop-color:#294b42;stop-opacity:1;"
         offset="1"
         id="stop19" />
    </linearGradient>
    <radialGradient
       inkscape:collect="always"
       xlink:href="#linearGradient25"
       id="radialGradient26"
       cx="31.959042"
       cy="36.99995"
       fx="31.959042"
       fy="36.99995"
       r="11.99998"
       gradientTransform="matrix(1,0,0,1.4166649,0,-15.416579)"
       gradientUnits="userSpaceOnUse" />
    <linearGradient
       id="linearGradient25"
       inkscape:collect="always">
      <stop
         style="stop-color:#fff0d7;stop-opacity:1;"
         offset="0"
         id="stop25" />
      <stop
         style="stop-color:#fff1e8;stop-opacity:1;"
         offset="1"
         id="stop26" />
    </linearGradient>
    <radialGradient
       inkscape:collect="always"
       xlink:href="#linearGradient24"
       id="radialGradient23"
       cx="31.889198"
       cy="18.927256"
       fx="31.889198"
       fy="18.927256"
       r="5.99999"
       gradientTransform="matrix(3.0242049,0,0,2.4441939,-64.691647,-32.638783)"
       gradientUnits="userSpaceOnUse" />
    <linearGradient
       id="linearGradient24"
       inkscape:collect="always">
      <stop
         style="stop-color:#ffc104;stop-opacity:1;"
         offset="0"
         id="stop23" />
      <stop
         style="stop-color:#ff8d00;stop-opacity:1;"
         offset="1"
         id="stop24" />
    </linearGradient>
    <radialGradient
       inkscape:collect="always"
       xlink:href="#linearGradient19"
       id="radialGradient21"
       cx="31.894524"
       cy="13.822928"
       fx="31.894524"
       fy="13.822928"
       r="24.041529"
       gradientTransform="matrix(-0.92172412,1.596473,-1.4609535,-0.84348188,81.487131,-23.384052)"
       gradientUnits="userSpaceOnUse" />
    <linearGradient
       id="linearGradient19"
       inkscape:collect="always">
      <stop
         style="stop-color:#ffc104;stop-opacity:1;"
         offset="0"
         id="stop20" />
      <stop
         style="stop-color:#ff890d;stop-opacity:1;"
         offset="1"
         id="stop21" />
    </linearGradient>
  </defs>
  <sodipodi:namedview
     id="namedview17"
     pagecolor="#ffffff"
     bordercolor="#000000"
     borderopacity="0.25"
     inkscape:showpageshadow="2"
     inkscape:pageopacity="0.0"
     inkscape:pagecheckerboard="0"
     inkscape:deskcolor="#d1d1d1"
     inkscape:zoom="18.9375"
     inkscape:cx="32"
     inkscape:cy="32"
     inkscape:current-layer="svg17" />
  <g
     id="g17"
     transform="translate(-16.898729,-0.85918328)">
    <g
       id="g27"
       transform="translate(16.898729,0.85918513)">
      <path
         id="path2"
         style="fill:url(#radialGradient19)"
         d="m 31.958984,4 c -5.369531,0 -10,4.9944388 -10,11.199219 0,14 -8,15.400972 -8,25.201172 0,10.8245 8.058891,19.599609 18,19.599609 8.988448,0 16.437938,-7.174578 17.783204,-16.550781 0.359841,-1.138027 0.420138,-2.455953 0.208984,-3.556641 C 49.680555,30.546988 41.958984,28.953907 41.958984,15.199219 41.958984,8.9944388 37.328515,4 31.958984,4 Z" />
      <path
         style="fill:url(#radialGradient26)"
         d="M 31.959041,20 C 28.379357,20 26,23.0328 26,26.7998 c 0,8.5002 -6.040939,9.35 -6.040939,15.3 0,6.5721 5.372575,11.9001 11.99998,11.9001 6.627405,0 11.99998,-5.328 11.99998,-11.9001 C 43.959021,36.1498 38,35.3 38,26.7998 38,23.0328 35.538725,20 31.959041,20 Z"
         id="path4" />
      <path
         style="fill:url(#radialGradient23)"
         d="m 37.959031,19.2 c 0,3.8662 -2.686288,6.8 -5.99999,6.8 -3.313702,0 -5.99999,-2.9338 -5.99999,-6.8 z"
         id="path11" />
      <path
         id="circle12-5"
         style="fill:#ffffff"
         d="m 30.73372,18.134206 a 4,4 0 0 0 1.189909,-4.01105 4,4 0 0 0 -4.89898,-2.828427 4,4 0 0 0 -2.828428,4.898979 4,4 0 0 0 0.483305,1.101913 5.2053013,6.5552387 75 0 0 5.931566,0.871443 5.2053013,6.5552387 75 0 0 0.122628,-0.03286 z" />
      <path
         id="circle12"
         style="fill:#ffffff"
         d="m 33.29802,18.134006 a 4,4 0 0 1 -1.189909,-4.01105 4,4 0 0 1 4.89898,-2.828427 4,4 0 0 1 2.828428,4.898979 4,4 0 0 1 -0.483305,1.101913 6.5552387,5.2053013 15 0 1 -5.931566,0.871443 6.5552387,5.2053013 15 0 1 -0.122628,-0.03286 z" />
      <g
         id="g26"
         transform="translate(0.00865884,0.64048756)">
        <circle
           style="fill:#323232"
           cx="28.68218"
           cy="14.48192"
           r="2"
           id="circle10" />
        <circle
           style="fill:#323232"
           cx="35.332241"
           cy="14.48192"
           r="2"
           id="circle13" />
      </g>
      <path
         id="path6"
         style="fill:url(#radialGradient21)"
         d="m 31.958984,16 c -3.313702,0 -6,1.492984 -6,3.333984 0,0.6666 2.686298,4.666016 6,4.666016 3.313702,0 6,-3.999416 6,-4.666016 0,-1.841 -2.686298,-3.333984 -6,-3.333984 z M 17.679688,40 c -0.939358,0.0382 -2.088769,0.02824 -2.671876,1.056641 -0.374588,0.6664 -0.570439,2.146321 -0.857421,2.419921 -0.301276,0.287 -0.626281,0.452688 -1.070313,0.554688 -0.08216,0.02 -0.452885,0.03469 -1.09375,0.05469 -0.789891,0.086 -0.569698,0.02794 -0.789062,0.08594 C 10.479095,44.196375 9.975906,45.2489 10,46 c 0.0013,0.5102 0.02051,0.805722 0.107422,1.607422 0.146852,1.3548 0.181462,2.005184 0.138672,2.583984 -0.07273,0.9832 -1.2568897,1.342397 -1.7343752,2.341797 -0.3572579,0.7476 -0.4881354,1.103809 -0.5371094,1.474609 -0.076437,0.578601 0.1231248,1.098747 0.5507812,1.435547 0.3134889,0.2468 0.5408482,0.341691 1.3964844,0.587891 0.315194,0.0906 0.983296,0.296984 1.484375,0.458984 1.377487,0.4456 1.967605,0.60655 3.554688,0.96875 3.181768,0.7262 3.994001,0.970304 5.732421,1.720704 1.167638,0.5038 1.700092,0.683296 2.302735,0.779296 v 0.002 c 0.344208,0.054 0.987889,0.054 1.3125,0 1.52649,-0.251 2.844432,-1.357279 3.373047,-2.830079 0.04112,-0.1134 0.09474,-0.246875 0.11914,-0.296875 0.06082,-0.1224 0.09552,-0.362828 0.136719,-0.923828 0.03248,-0.4418 0.0307,-0.506578 -0.02734,-0.892578 -0.172652,-1.1074 -0.658234,-2.215287 -1.349609,-3.179687 -0.04336,-0.0672 -0.379884,-0.505257 -0.748047,-0.972657 -0.368146,-0.4666 -0.714704,-0.906468 -0.771484,-0.980468 -0.335114,-0.4286 -1.240743,-1.845969 -1.742188,-2.730469 -0.460313,-0.8116 -0.80922,-1.365503 -1.951172,-3.095703 -1.440801,-2.1824 -1.746282,-2.604863 -2.388672,-3.289063 -0.255271,-0.2718 -0.339248,-0.339812 -0.632812,-0.507812 C 18.034487,40.092919 17.946009,40.056 17.679688,40 Z m 32.908203,0.0625 c -0.160557,-0.0053 -0.330189,0.0097 -0.507813,0.04687 -0.03011,0.0064 -0.0588,0.01372 -0.08789,0.02148 0.379505,2.485943 -0.566343,5.888788 -3.13086,5.966797 -2.303424,0 -2.321358,-1.912722 -2.78125,-4.169922 -0.103956,-0.510225 -0.200082,-0.977158 -0.253906,-1.398437 -0.08314,-5.75e-4 -0.178317,0.01024 -0.333984,0.02734 -0.385588,0.048 -0.668742,0.159498 -0.982422,0.404297 -0.197719,0.154001 -0.255391,0.220009 -0.427735,0.474609 -0.17312,0.2568 -0.215525,0.343969 -0.314453,0.667969 -0.248921,0.8156 -0.327697,1.282918 -0.617187,3.636718 -0.229225,1.8661 -0.289051,2.455982 -0.333985,3.300782 -0.04892,0.9202 -0.210482,2.436322 -0.310547,2.919922 -0.0168,0.082 -0.120758,0.581375 -0.232421,1.109374 -0.11152,0.5282 -0.210657,1.017844 -0.21875,1.089844 -0.17324,1.0626 -0.115218,2.1578 0.201171,3.125 0.11198,0.336 0.137384,0.389775 0.347657,0.734375 0.266918,0.4374 0.396805,0.617207 0.498046,0.691407 0.0404,0.03 0.139086,0.115406 0.220704,0.191406 1.049596,0.9774 2.602403,1.33617 3.972656,0.917968 0.29119,-0.088 0.824387,-0.352156 1.08789,-0.535156 v 0.0078 c 0.460037,-0.3232 0.826539,-0.686913 1.585938,-1.570313 1.13055,-1.3152 1.101705,-1.842762 3.439453,-3.726562 1.16615,-0.9392 1.58923,-1.308669 2.546875,-2.230469 0.348399,-0.3352 0.817204,-0.774763 1.041016,-0.976563 0.607543,-0.5476 0.756503,-0.719275 0.914062,-1.046874 0.214998,-0.446801 0.164707,-0.947366 -0.138672,-1.384766 -0.19448,-0.2804 -0.450143,-0.516863 -1.05664,-0.976563 -0.810704,-0.6148 -1.142933,-1.143556 -1.611328,-1.910156 -0.275599,-0.4512 0.08494,-1.591047 -0.355469,-2.748047 -0.260554,-0.6844 -0.267821,-0.931903 -0.478516,-1.345703 -0.228622,-0.4488 -0.275372,-0.526628 -0.410156,-0.673828 -0.379943,-0.41625 -0.789816,-0.624594 -1.271484,-0.640625 z" />
    </g>
    <g
       id="g35"
       style="stroke:#000000;stroke-width:0.2;stroke-dasharray:none;stroke-opacity:1;filter:url(#filter35)"
       transform="translate(80.203707,4.1918761)">
      <path
         d="m -31.345703,0.66601562 c -5.369531,0 -10,4.99443858 -10,11.19921838 0,14 -8,15.400972 -8,25.201172 0,1.0371 0.07427,2.055269 0.216797,3.048828 0.273563,-0.332735 0.468461,-1.74578 0.832031,-2.392578 0.583107,-1.028401 1.732517,-1.01844 2.671875,-1.05664 0.266321,0.056 0.354795,0.09287 0.646484,0.261718 0.293564,0.168 0.377542,0.236013 0.632813,0.507813 0.353743,0.376766 0.604748,0.674857 1,1.230469 0.06745,-5.859548 6.041016,-6.748967 6.041016,-15.201172 0,-1.415617 0.335861,-2.728364 0.945312,-3.814453 -0.59911,-1.028029 -0.957367,-2.263174 -0.984375,-3.619141 -0.0011,-0.01088 -0.002,-0.02171 -0.002,-0.03125 0,-0.0145 -3.34e-4,-0.02852 0,-0.04297 -3.34e-4,-0.03039 0,-0.06129 0,-0.0918 h 0.0039 c 0.0271,-0.376937 0.168244,-0.737313 0.402344,-1.072265 a 5.2053013,6.5552387 75 0 1 -1.685547,-0.832031 4,4 0 0 1 -0.482422,-1.101563 4,4 0 0 1 2.828125,-4.9003906 4,4 0 0 1 1.035156,-0.1347657 4,4 0 0 1 3.863282,2.9648443 4,4 0 0 1 0.0918,0.445312 4,4 0 0 1 0.09375,-0.447266 4,4 0 0 1 3.863281,-2.9628903 4,4 0 0 1 1.035156,0.1347657 4,4 0 0 1 2.828125,4.9003906 4,4 0 0 1 -0.482422,1.101563 6.5552387,5.2053013 15 0 1 -1.78125,0.859375 c 0.222254,0.326694 0.356456,0.678494 0.382813,1.044921 h 0.0039 c 0,0.03052 3.34e-4,0.0614 0,0.0918 3.34e-4,0.01444 0,0.02848 0,0.04297 0,0.0095 -8.59e-4,0.02037 -0.002,0.03125 -0.02659,1.334766 -0.37472,2.553927 -0.957031,3.572266 0.641541,1.095413 1,2.424628 1,3.861328 0,7.691768 4.878506,9.119737 5.80664,13.730468 0.0063,-7.9e-5 0.01339,-4.2e-5 0.01953,0 0.05382,0.421279 0.149951,0.888213 0.253907,1.398438 0.459892,2.2572 0.477826,4.169922 2.78125,4.169922 1.481643,-0.04507 2.423249,-1.199816 2.880859,-2.646485 1.88e-4,-5.95e-4 -1.88e-4,-0.0014 0,-0.002 0.08714,-0.27559 0.154624,-0.562465 0.207031,-0.853515 0.01601,-0.08904 0.02235,-0.179738 0.03516,-0.269532 0.0291,-0.203774 0.05751,-0.408326 0.07031,-0.613281 0.0066,-0.105974 0.0036,-0.210886 0.0059,-0.316406 0.0041,-0.186151 0.0072,-0.372188 -0.002,-0.554688 -0.006,-0.11964 -0.02155,-0.234517 -0.0332,-0.351562 -0.02015,-0.202395 -0.03751,-0.406306 -0.07422,-0.597656 -0.270617,-9.34559 -7.992187,-10.938672 -7.992187,-24.69336 0,-6.2047798 -4.630469,-11.19921838 -10,-11.19921838 z m 0.05664,11.74804738 a 4,4 0 0 1 -0.04492,0.251953 c 0.03071,-5.4e-5 0.06121,-2.9e-4 0.0918,0 a 4,4 0 0 1 -0.04687,-0.251953 z m 8.708984,34.478515 c -2.189897,2.321338 -5.306919,3.771484 -8.765625,3.771484 -1.656608,0 -3.234431,-0.33368 -4.669922,-0.935546 0.303582,0.631118 0.517968,1.293626 0.621094,1.955078 0.05804,0.386 0.05982,0.450778 0.02734,0.892578 -0.0412,0.561 -0.0759,0.801428 -0.136719,0.923828 -0.0244,0.05 -0.07802,0.183475 -0.119141,0.296875 -0.268403,0.747812 -0.740475,1.401636 -1.339844,1.896484 1.767436,0.631554 3.655764,0.972657 5.617188,0.972657 3.058451,0 5.9387,-0.831443 8.460937,-2.296875 -0.06188,-0.119914 -0.0978,-0.219147 -0.164062,-0.417969 -0.316389,-0.9672 -0.374412,-2.0624 -0.201172,-3.125 0.0081,-0.072 0.10723,-0.561644 0.21875,-1.089844 0.111663,-0.527999 0.215622,-1.027375 0.232422,-1.109375 0.063,-0.304478 0.150454,-1.017729 0.21875,-1.734375 z"
         style="fill:none;stroke:#000000;stroke-width:0.2;stroke-dasharray:none;stroke-opacity:1"
         id="path35" />
      <path
         d="m -26.304687,19.603516 c -1.068595,1.868743 -2.926827,3.0625 -5.041016,3.0625 -2.09589,0 -3.940808,-1.17467 -5.013672,-3.015625 -0.609451,1.086089 -0.945312,2.398836 -0.945312,3.814453 0,8.452205 -5.973565,9.341624 -6.041016,15.201172 0.322518,0.453368 0.741272,1.077968 1.388672,2.058593 1.141952,1.7302 1.490859,2.284104 1.951172,3.095703 0.501445,0.884501 1.407073,2.301869 1.742187,2.730469 0.05678,0.074 0.403338,0.513869 0.771485,0.980469 0.368162,0.4674 0.704686,0.905456 0.748046,0.972656 0.278416,0.388363 0.523842,0.799112 0.728516,1.22461 1.435491,0.601866 3.013314,0.935546 4.669922,0.935546 3.458706,0 6.575728,-1.450146 8.765625,-3.771484 0.04018,-0.421597 0.07368,-0.844711 0.0918,-1.185547 0.04493,-0.8448 0.104759,-1.434681 0.333984,-3.300781 0.28949,-2.3538 0.368267,-2.821119 0.617188,-3.636719 0.09893,-0.324 0.141333,-0.411169 0.314453,-0.667969 0.172344,-0.2546 0.230015,-0.320608 0.427734,-0.474609 0.31368,-0.244799 0.596834,-0.356297 0.982422,-0.404297 0.144169,-0.01584 0.235562,-0.02634 0.314453,-0.02734 -0.928134,-4.610731 -5.80664,-6.0387 -5.80664,-13.730468 0,-1.4367 -0.358459,-2.765915 -1,-3.861328 z"
         style="fill:none;stroke:#000000;stroke-width:0.2;stroke-dasharray:none;stroke-opacity:1"
         id="path34" />
      <path
         d="m -37.345703,15.865234 c 0,0.03051 -3.34e-4,0.06141 0,0.0918 7.05e-4,-0.03055 0.0017,-0.06145 0.0039,-0.0918 z m 11.996094,0 c 0.0022,0.03036 0.0032,0.06124 0.0039,0.0918 3.34e-4,-0.0304 0,-0.06128 0,-0.0918 z M -37.34375,16.03125 c 0.07537,3.784182 2.731768,6.634766 5.998047,6.634766 3.266279,0 5.922675,-2.850584 5.998047,-6.634766 -0.07537,0.749607 -2.731768,4.634766 -5.998047,4.634766 -3.266279,0 -5.922675,-3.885159 -5.998047,-4.634766 z"
         style="fill:none;stroke:#000000;stroke-width:0.2;stroke-dasharray:none;stroke-opacity:1"
         id="path33" />
      <path
         d="m -35.244141,7.8242187 a 4,4 0 0 0 -1.035156,0.1347657 4,4 0 0 0 -2.828125,4.9003906 4,4 0 0 0 0.482422,1.101563 5.2053013,6.5552387 75 0 0 1.685547,0.832031 c 0.321765,-0.460385 0.821293,-0.872244 1.453125,-1.207031 a 2,2 0 0 1 -1.126953,-1.798829 2,2 0 0 1 2,-1.9999996 2,2 0 0 1 2,1.9999996 2,2 0 0 1 -0.261719,0.988282 c 0.488063,-0.07126 1.000996,-0.109375 1.529297,-0.109375 0.0038,0 0.0079,6e-6 0.01172,0 a 4,4 0 0 0 0.04492,-0.251953 4,4 0 0 1 0,-1.179688 4,4 0 0 0 -0.0918,-0.445312 4,4 0 0 0 -3.863282,-2.9648443 z"
         style="fill:none;stroke:#000000;stroke-width:0.2;stroke-dasharray:none;stroke-opacity:1"
         id="path32" />
      <path
         d="m -27.332031,7.8242187 a 4,4 0 0 0 -3.863281,2.9628903 4,4 0 0 0 -0.04687,1.878907 c 0.537273,0.0051 1.056716,0.05028 1.550781,0.128906 a 2,2 0 0 1 -0.271485,-1.007813 2,2 0 0 1 2,-1.9999996 2,2 0 0 1 2,1.9999996 2,2 0 0 1 -1.189453,1.828125 c 0.619667,0.336525 1.107795,0.746277 1.419922,1.205079 a 6.5552387,5.2053013 15 0 0 1.78125,-0.859375 4,4 0 0 0 0.482422,-1.101563 4,4 0 0 0 -2.828125,-4.9003906 4,4 0 0 0 -1.035156,-0.1347657 z"
         style="fill:none;stroke:#000000;stroke-width:0.2;stroke-dasharray:none;stroke-opacity:1"
         id="path31" />
      <path
         d="m -34.613281,9.7871094 a 2,2 0 0 0 -2,1.9999996 2,2 0 0 0 1.126953,1.798829 c 0.722344,-0.382748 1.616463,-0.665298 2.611328,-0.810547 a 2,2 0 0 0 0.261719,-0.988282 2,2 0 0 0 -2,-1.9999996 z"
         style="fill:none;stroke:#000000;stroke-width:0.2;stroke-dasharray:none;stroke-opacity:1"
         id="path30" />
      <path
         d="m -27.962891,9.7871094 a 2,2 0 0 0 -2,1.9999996 2,2 0 0 0 0.271485,1.007813 c 0.968693,0.154166 1.837913,0.439537 2.539062,0.820312 a 2,2 0 0 0 1.189453,-1.828125 2,2 0 0 0 -2,-1.9999996 z"
         style="fill:none;stroke:#000000;stroke-width:0.2;stroke-dasharray:none;stroke-opacity:1"
         id="path29" />
      <path
         d="m -31.345703,12.666016 c -3.313702,0 -6,1.492984 -6,3.333984 0,0.6666 2.686298,4.666016 6,4.666016 3.313702,0 6,-3.999416 6,-4.666016 0,-1.841 -2.686298,-3.333984 -6,-3.333984 z m -14.279297,24 c -0.939358,0.0382 -2.088768,0.02824 -2.671875,1.05664 -0.374588,0.6664 -0.57044,2.146322 -0.857422,2.419922 -0.301276,0.287 -0.62628,0.452688 -1.070312,0.554688 -0.08216,0.02 -0.452885,0.03469 -1.09375,0.05469 -0.789891,0.086 -0.569699,0.02794 -0.789063,0.08594 -0.718171,0.0245 -1.221359,1.077025 -1.197265,1.828125 0.0013,0.5102 0.02051,0.805721 0.107421,1.607421 0.146852,1.3548 0.181462,2.005185 0.138672,2.583985 -0.07273,0.9832 -1.256889,1.342397 -1.734375,2.341797 -0.357258,0.7476 -0.488135,1.103809 -0.537109,1.474609 -0.07644,0.578601 0.123125,1.098747 0.550781,1.435547 0.313489,0.2468 0.540848,0.341691 1.396485,0.587891 0.315193,0.0906 0.983295,0.296984 1.484375,0.458984 1.377487,0.4456 1.967604,0.60655 3.554687,0.96875 3.181768,0.7262 3.994002,0.970303 5.732422,1.720703 1.167638,0.5038 1.700091,0.683297 2.302734,0.779297 v 0.002 c 0.344208,0.054 0.987889,0.054 1.3125,0 1.52649,-0.251 2.844432,-1.357278 3.373047,-2.830078 0.04112,-0.1134 0.09474,-0.246875 0.119141,-0.296875 0.06082,-0.1224 0.09552,-0.362828 0.136719,-0.923828 0.03248,-0.4418 0.0307,-0.506578 -0.02734,-0.892578 -0.172652,-1.1074 -0.658235,-2.215288 -1.34961,-3.179688 -0.04336,-0.0672 -0.379884,-0.505256 -0.748046,-0.972656 -0.368147,-0.4666 -0.714705,-0.906469 -0.771485,-0.980469 -0.335114,-0.4286 -1.240742,-1.845968 -1.742187,-2.730469 -0.460313,-0.811599 -0.80922,-1.365503 -1.951172,-3.095703 -1.440801,-2.1824 -1.746282,-2.604862 -2.388672,-3.289062 -0.255271,-0.2718 -0.339249,-0.339813 -0.632813,-0.507813 -0.291689,-0.168846 -0.380163,-0.205718 -0.646484,-0.261718 z m 32.908203,0.0625 c -0.160557,-0.0053 -0.330188,0.0097 -0.507812,0.04687 -0.03011,0.0064 -0.0588,0.01372 -0.08789,0.02148 0.379505,2.485943 -0.566342,5.888788 -3.130859,5.966797 -2.303424,0 -2.321358,-1.912722 -2.78125,-4.169922 -0.103956,-0.510225 -0.200083,-0.977159 -0.253907,-1.398438 -0.08314,-5.74e-4 -0.178317,0.01024 -0.333984,0.02734 -0.385588,0.048 -0.668742,0.159498 -0.982422,0.404297 -0.197719,0.154001 -0.25539,0.220009 -0.427734,0.474609 -0.17312,0.2568 -0.215525,0.343969 -0.314453,0.667969 -0.248921,0.8156 -0.327698,1.282919 -0.617188,3.636719 -0.229225,1.8661 -0.28905,2.455981 -0.333984,3.300781 -0.04892,0.9202 -0.210482,2.436322 -0.310547,2.919922 -0.0168,0.082 -0.120759,0.581376 -0.232422,1.109375 -0.11152,0.5282 -0.210657,1.017844 -0.21875,1.089844 -0.17324,1.0626 -0.115217,2.1578 0.201172,3.125 0.11198,0.336 0.137383,0.389775 0.347656,0.734375 0.266918,0.4374 0.396806,0.617206 0.498047,0.691406 0.0404,0.03 0.139085,0.115406 0.220703,0.191406 1.049596,0.9774 2.602403,1.336171 3.972656,0.917969 0.29119,-0.088 0.824388,-0.352156 1.087891,-0.535156 v 0.0078 c 0.460037,-0.3232 0.826538,-0.686912 1.585937,-1.570312 1.13055,-1.3152 1.101706,-1.842763 3.439454,-3.726563 1.16615,-0.9392 1.58923,-1.308668 2.5468746,-2.230468 0.348399,-0.3352 0.8172036,-0.774763 1.0410156,-0.976563 0.6075431,-0.5476 0.7565036,-0.719276 0.9140626,-1.046875 0.214998,-0.446801 0.1647071,-0.947365 -0.1386719,-1.384766 -0.19448,-0.2804 -0.4501436,-0.516862 -1.0566407,-0.976562 -0.810704,-0.6148 -1.1429331,-1.143556 -1.6113282,-1.910156 -0.275599,-0.4512 0.08494,-1.591047 -0.355469,-2.748047 -0.260554,-0.6844 -0.26782,-0.931903 -0.478515,-1.345703 -0.228622,-0.4488 -0.275372,-0.526628 -0.410157,-0.673828 -0.379942,-0.41625 -0.789816,-0.624594 -1.271484,-0.640625 z"
         style="fill:none;stroke:#000000;stroke-width:0.2;stroke-dasharray:none;stroke-opacity:1"
         id="path28" />
    </g>
  </g>
</svg>
