<?xml version="1.0" encoding="UTF-8" standalone="no"?>
<svg
   width="64"
   height="64"
   version="1.1"
   id="svg6"
   sodipodi:docname="system-installer.svg"
   inkscape:version="1.4.3 (0d15f75042, 2025-12-25)"
   xmlns:inkscape="http://www.inkscape.org/namespaces/inkscape"
   xmlns:sodipodi="http://sodipodi.sourceforge.net/DTD/sodipodi-0.dtd"
   xmlns:xlink="http://www.w3.org/1999/xlink"
   xmlns="http://www.w3.org/2000/svg"
   xmlns:svg="http://www.w3.org/2000/svg">
  <defs
     id="defs6">
    <filter
       inkscape:collect="always"
       style="color-interpolation-filters:sRGB"
       id="filter1"
       x="-0.11316855"
       y="-0.11316855"
       width="1.2263371"
       height="1.2263371">
      <feGaussianBlur
         inkscape:collect="always"
         stdDeviation="2.6182208"
         id="feGaussianBlur1" />
    </filter>
    <radialGradient
       inkscape:collect="always"
       xlink:href="#linearGradient7"
       id="radialGradient8"
       cx="15.716949"
       cy="10.069217"
       fx="15.716949"
       fy="10.069217"
       r="15"
       gradientUnits="userSpaceOnUse"
       gradientTransform="matrix(-1.3335687,3.2054239,-5.2238883,-2.1733207,89.277045,-18.426632)" />
    <linearGradient
       id="linearGradient7"
       inkscape:collect="always">
      <stop
         style="stop-color:#bebebe;stop-opacity:1;"
         offset="0"
         id="stop7" />
      <stop
         style="stop-color:#373737;stop-opacity:1;"
         offset="1"
         id="stop8" />
    </linearGradient>
    <radialGradient
       inkscape:collect="always"
       xlink:href="#linearGradient4"
       id="radialGradient5"
       cx="12.888744"
       cy="20.522711"
       fx="12.888744"
       fy="20.522711"
       r="28"
       gradientUnits="userSpaceOnUse"
       gradientTransform="matrix(0.67676038,2.4785214,-1.9512608,0.53279185,44.211314,-22.356651)" />
    <linearGradient
       id="linearGradient4"
       inkscape:collect="always">
      <stop
         style="stop-color:#ffffff;stop-opacity:1;"
         offset="0"
         id="stop4" />
      <stop
         style="stop-color:#b4bbbe;stop-opacity:1;"
         offset="1"
         id="stop5" />
    </linearGradient>
    <radialGradient
       inkscape:collect="always"
       xlink:href="#linearGradient7"
       id="radialGradient8-3"
       cx="15.716949"
       cy="10.069217"
       fx="15.716949"
       fy="10.069217"
       r="15"
       gradientUnits="userSpaceOnUse"
       gradientTransform="matrix(-1.3335687,3.2054239,-5.2238883,-2.1733207,89.277045,-18.426632)" />
    <radialGradient
       inkscape:collect="always"
       xlink:href="#linearGradient10"
       id="radialGradient11"
       cx="31.739626"
       cy="40.425404"
       fx="31.739626"
       fy="40.425404"
       r="11.049865"
       gradientUnits="userSpaceOnUse"
       gradientTransform="matrix(0.61030585,2.2776924,-2.2776926,0.6103059,105.0939,-62.565923)" />
    <linearGradient
       id="linearGradient10"
       inkscape:collect="always">
      <stop
         style="stop-color:#03ddf4;stop-opacity:1;"
         offset="0"
         id="stop10" />
      <stop
         style="stop-color:#03a9f4;stop-opacity:1;"
         offset="1"
         id="stop11" />
    </linearGradient>
    <inkscape:path-effect
       effect="fillet_chamfer"
       id="path-effect7"
       is_visible="true"
       lpeversion="1"
       nodesatellites_param="F,0,1,1,0,1.4781616,0,1 @ F,0,0,1,0,1.6611394,0,1 @ F,0,0,1,0,2.2077362,0,1 @ F,0,0,1,0,2.2077362,0,1 @ F,0,0,1,0,2.2077362,0,1 @ F,0,0,1,0,1.6611394,0,1 @ F,0,0,1,0,1.4781616,0,1"
       radius="0"
       unit="px"
       method="auto"
       mode="F"
       chamfer_steps="1"
       flexible="false"
       use_knot_distance="true"
       apply_no_radius="true"
       apply_with_radius="true"
       only_selected="false"
       hide_knots="false" />
    <filter
       inkscape:collect="always"
       style="color-interpolation-filters:sRGB"
       id="filter9"
       x="-0.1308592"
       y="-0.1308592"
       width="1.2617184"
       height="1.2617184">
      <feGaussianBlur
         inkscape:collect="always"
         stdDeviation="1.1633138"
         id="feGaussianBlur9" />
    </filter>
    <filter
       inkscape:collect="always"
       style="color-interpolation-filters:sRGB"
       id="filter10"
       x="-0.17316605"
       y="-0.13506099"
       width="1.3463321"
       height="1.2700538">
      <feGaussianBlur
         inkscape:collect="always"
         stdDeviation="1.1779193"
         id="feGaussianBlur10" />
    </filter>
    <inkscape:path-effect
       effect="fillet_chamfer"
       id="path-effect7-3"
       is_visible="true"
       lpeversion="1"
       nodesatellites_param="F,0,1,1,0,1.4781616,0,1 @ F,0,0,1,0,1.6611394,0,1 @ F,0,0,1,0,2.2077362,0,1 @ F,0,0,1,0,2.2077362,0,1 @ F,0,0,1,0,2.2077362,0,1 @ F,0,0,1,0,1.6611394,0,1 @ F,0,0,1,0,1.4781616,0,1"
       radius="0"
       unit="px"
       method="auto"
       mode="F"
       chamfer_steps="1"
       flexible="false"
       use_knot_distance="true"
       apply_no_radius="true"
       apply_with_radius="true"
       only_selected="false"
       hide_knots="false" />
  </defs>
  <sodipodi:namedview
     id="namedview6"
     pagecolor="#ffffff"
     bordercolor="#000000"
     borderopacity="0.25"
     inkscape:showpageshadow="2"
     inkscape:pageopacity="0.0"
     inkscape:pagecheckerboard="0"
     inkscape:deskcolor="#d1d1d1"
     inkscape:zoom="9.6981137"
     inkscape:cx="24.076847"
     inkscape:cy="30.882294"
     inkscape:current-layer="svg6" />
  <g
     id="g6"
     transform="translate(0.03392388,-4.9660761)">
    <g
       id="g1"
       transform="matrix(0.93093945,0,0,0.93093945,2.1760145,7.1760145)">
      <path
         style="fill:url(#radialGradient8)"
         d="M 32,17 A 15,15 0 0 0 17,32 15,15 0 0 0 32,47 15,15 0 0 0 47,32 15,15 0 0 0 32,17 Z m 0,9 a 6,6 0 0 1 6,6 6,6 0 0 1 -6,6 6,6 0 0 1 -6,-6 6,6 0 0 1 6,-6 z"
         id="path2" />
      <path
         style="fill:url(#radialGradient5)"
         d="M 32,4 A 28,28 0 0 0 4,32 28,28 0 0 0 32,60 28,28 0 0 0 60,32 28,28 0 0 0 32,4 Z m 0,16 A 12,12 0 0 1 44,32 12,12 0 0 1 32,44 12,12 0 0 1 20,32 12,12 0 0 1 32,20 Z"
         id="path3" />
      <path
         style="opacity:0.305456;fill:url(#radialGradient8-3)"
         d="M 32,17 A 15,15 0 0 0 17,32 15,15 0 0 0 32,47 15,15 0 0 0 47,32 15,15 0 0 0 32,17 Z m 0,9 a 6,6 0 0 1 6,6 6,6 0 0 1 -6,6 6,6 0 0 1 -6,-6 6,6 0 0 1 6,-6 z"
         id="path2-5" />
    </g>
    <g
       id="g1-1"
       style="mix-blend-mode:normal;fill:none;stroke:#000000;stroke-width:0.107418;stroke-dasharray:none;stroke-opacity:1;filter:url(#filter1)"
       transform="matrix(0.93093945,0,0,0.93093945,2.1760145,7.1760145)">
      <path
         style="fill:none;stroke:#000000;stroke-width:0.107418;stroke-dasharray:none;stroke-opacity:1"
         d="M 32,17 A 15,15 0 0 0 17,32 15,15 0 0 0 32,47 15,15 0 0 0 47,32 15,15 0 0 0 32,17 Z m 0,9 a 6,6 0 0 1 6,6 6,6 0 0 1 -6,6 6,6 0 0 1 -6,-6 6,6 0 0 1 6,-6 z"
         id="path2-2" />
      <path
         style="fill:none;stroke:#000000;stroke-width:0.107418;stroke-dasharray:none;stroke-opacity:1"
         d="M 32,4 A 28,28 0 0 0 4,32 28,28 0 0 0 32,60 28,28 0 0 0 60,32 28,28 0 0 0 32,4 Z m 0,16 A 12,12 0 0 1 44,32 12,12 0 0 1 32,44 12,12 0 0 1 20,32 12,12 0 0 1 32,20 Z"
         id="path3-7" />
      <path
         style="opacity:0.305456;fill:none;stroke:#000000;stroke-width:0.107418;stroke-dasharray:none;stroke-opacity:1"
         d="M 32,17 A 15,15 0 0 0 17,32 15,15 0 0 0 32,47 15,15 0 0 0 47,32 15,15 0 0 0 32,17 Z m 0,9 a 6,6 0 0 1 6,6 6,6 0 0 1 -6,6 6,6 0 0 1 -6,-6 6,6 0 0 1 6,-6 z"
         id="path2-5-0" />
    </g>
  </g>
  <g
     id="g1-3"
     transform="translate(1.0454642,4.0915762)">
    <circle
       style="fill:url(#radialGradient11);stroke-width:0.736658"
       cx="48.989407"
       cy="45.981453"
       r="11.049865"
       id="circle6" />
    <path
       style="fill:#ffffff;stroke-width:1.52567"
       d="m 52.466,37.182164 0,8.340164 a 1.6611757,1.6611757 45.000626 0 0 1.661139,1.661175 l 2.398085,5.3e-5 a 1.022644,1.022644 65.14724 0 1 0.779994,1.683987 l -6.877476,8.111585 a 1.8718478,1.8718478 0 0 1 -2.855484,0 l -6.877476,-8.111585 a 1.0226147,1.0226147 114.85339 0 1 0.779994,-1.683939 h 2.398085 A 1.6611394,1.6611394 135 0 0 45.534,45.522465 l 0,-8.340164 a 1.4781908,1.4781908 134.99943 0 1 1.478162,-1.478191 l 3.975676,-7.9e-5 A 1.4781324,1.4781324 44.999434 0 1 52.466,37.182164 Z"
       id="path7"
       sodipodi:nodetypes="cccccccc"
       inkscape:path-effect="#path-effect7"
       inkscape:original-d="m 52.466,35.704002 v 11.479465 l 6.26696,1.37e-4 L 49,58.663067 39.26704,47.183604 H 45.534 V 35.704139 Z"
       transform="matrix(0.73665767,0,0,0.73665767,12.907123,12.083786)" />
    <circle
       style="fill:none;stroke:#000000;stroke-width:0.2;stroke-dasharray:none;stroke-opacity:1;filter:url(#filter9)"
       cx="49.012718"
       cy="45.966606"
       r="11.049865"
       id="circle6-6" />
    <path
       style="fill:none;stroke:#0018ff;stroke-width:0.271497;stroke-dasharray:none;stroke-opacity:1;filter:url(#filter10)"
       d="m 52.466,37.182164 0,8.340164 a 1.6611757,1.6611757 45.000626 0 0 1.661139,1.661175 l 2.398085,5.3e-5 a 1.022644,1.022644 65.14724 0 1 0.779994,1.683987 l -6.877476,8.111585 a 1.8718478,1.8718478 0 0 1 -2.855484,0 l -6.877476,-8.111585 a 1.0226147,1.0226147 114.85339 0 1 0.779994,-1.683939 h 2.398085 A 1.6611394,1.6611394 135 0 0 45.534,45.522465 l 0,-8.340164 a 1.4781908,1.4781908 134.99943 0 1 1.478162,-1.478191 l 3.975676,-7.9e-5 A 1.4781324,1.4781324 44.999434 0 1 52.466,37.182164 Z"
       id="path7-7"
       sodipodi:nodetypes="cccccccc"
       inkscape:path-effect="#path-effect7-3"
       inkscape:original-d="m 52.466,35.704002 v 11.479465 l 6.26696,1.37e-4 L 49,58.663067 39.26704,47.183604 H 45.534 V 35.704139 Z"
       transform="matrix(0.73665767,0,0,0.73665767,12.922391,12.059185)" />
  </g>
</svg>
