<?xml version="1.0" encoding="UTF-8" standalone="no"?>
<svg
   width="64"
   height="64"
   version="1"
   id="svg5"
   sodipodi:docname="vivaldi-beta.svg"
   inkscape:version="1.4.2 (ebf0e940d0, 2025-05-08)"
   xmlns:inkscape="http://www.inkscape.org/namespaces/inkscape"
   xmlns:sodipodi="http://sodipodi.sourceforge.net/DTD/sodipodi-0.dtd"
   xmlns:xlink="http://www.w3.org/1999/xlink"
   xmlns="http://www.w3.org/2000/svg"
   xmlns:svg="http://www.w3.org/2000/svg">
  <defs
     id="defs5">
    <inkscape:path-effect
       effect="fillet_chamfer"
       id="path-effect1"
       is_visible="true"
       lpeversion="1"
       nodesatellites_param="F,0,0,1,0,0,0,1 @ F,0,0,1,0,10.579582,0,1 @ F,0,0,1,0,0,0,1 @ F,0,0,1,0,0,0,1 @ F,0,0,1,0,0,0,1 @ F,0,0,1,0,0,0,1 @ F,0,0,1,0,0,0,1 @ F,0,0,1,0,0,0,1 @ F,0,0,1,0,0,0,1 @ F,0,0,1,0,0,0,1 @ F,0,0,1,0,0,0,1 @ F,0,0,1,0,0,0,1 @ F,0,0,1,0,0,0,1 @ F,0,0,1,0,0,0,1"
       radius="0"
       unit="px"
       method="auto"
       mode="F"
       chamfer_steps="1"
       flexible="false"
       use_knot_distance="true"
       apply_no_radius="true"
       apply_with_radius="true"
       only_selected="false"
       hide_knots="false" />
    <linearGradient
       id="linearGradient5"
       inkscape:collect="always">
      <stop
         style="stop-color:#ff3b3b;stop-opacity:1;"
         offset="0"
         id="stop5" />
      <stop
         style="stop-color:#ff6068;stop-opacity:1;"
         offset="1"
         id="stop6" />
    </linearGradient>
    <filter
       inkscape:collect="always"
       style="color-interpolation-filters:sRGB"
       id="filter11"
       x="-0.0326949"
       y="-0.035623021"
       width="1.0654043"
       height="1.0711675">
      <feGaussianBlur
         inkscape:collect="always"
         stdDeviation="0.5372552"
         id="feGaussianBlur11" />
    </filter>
    <radialGradient
       inkscape:collect="always"
       xlink:href="#linearGradient8"
       id="radialGradient8"
       cx="9.8603458"
       cy="7.406199"
       fx="9.8603458"
       fy="7.406199"
       r="24.801306"
       gradientTransform="matrix(0,3.8857334,-3.6299094,0,34.270485,-31.745984)"
       gradientUnits="userSpaceOnUse" />
    <linearGradient
       id="linearGradient8"
       inkscape:collect="always">
      <stop
         style="stop-color:#ffdede;stop-opacity:1;"
         offset="0"
         id="stop9" />
      <stop
         style="stop-color:#ffb5b9;stop-opacity:1;"
         offset="1"
         id="stop10" />
    </linearGradient>
    <radialGradient
       inkscape:collect="always"
       xlink:href="#linearGradient5"
       id="radialGradient6"
       cx="51.153793"
       cy="49.393009"
       fx="51.153793"
       fy="49.393009"
       r="21.238713"
       gradientTransform="matrix(0,-2.9954688,3.0158455,0,-98.367449,204.82465)"
       gradientUnits="userSpaceOnUse" />
    <filter
       inkscape:collect="always"
       style="color-interpolation-filters:sRGB"
       id="filter1"
       x="-0.080146701"
       y="-0.084169958"
       width="1.1602896"
       height="1.1683399">
      <feGaussianBlur
         inkscape:collect="always"
         stdDeviation="1.798353"
         id="feGaussianBlur1" />
    </filter>
  </defs>
  <sodipodi:namedview
     id="namedview5"
     pagecolor="#ffffff"
     bordercolor="#000000"
     borderopacity="0.25"
     inkscape:showpageshadow="2"
     inkscape:pageopacity="0.0"
     inkscape:pagecheckerboard="0"
     inkscape:deskcolor="#d1d1d1"
     inkscape:zoom="15.361821"
     inkscape:cx="11.91265"
     inkscape:cy="32.45058"
     inkscape:current-layer="svg5" />
  <g
     id="g1">
    <path
       id="path6-2"
       style="baseline-shift:baseline;display:inline;overflow:visible;vector-effect:none;fill:url(#radialGradient8);stroke-width:1.11088;stroke-miterlimit:7.4;enable-background:accumulate;stop-color:#000000"
       d="M 46.068359 6.2617188 C 40.864804 6.2609283 36.531185 9.1789235 34.283203 13.289062 C 31.551825 18.283029 30.804175 19.433246 27.882812 14.373047 L 26.644531 12.226562 C 23.335433 6.4950367 15.890524 4.6777579 10.373047 7.8632812 C 4.7522659 11.10844 2.7637426 18.516397 6.0097656 24.138672 L 6.0214844 24.154297 L 22.3125 52.009766 L 22.310547 52.009766 C 27.283612 60.739766 37.646138 61.202363 42.972656 51.976562 L 42.972656 51.972656 L 57.955078 26.166016 L 58.044922 25.982422 C 58.633889 24.797876 59.551124 22.709276 59.550781 19.744141 C 59.549981 12.373392 53.438885 6.2647893 46.068359 6.2636719 L 46.068359 6.2617188 z " />
    <path
       id="path6-2-3"
       style="baseline-shift:baseline;display:inline;overflow:visible;fill:none;stroke:#000000;stroke-width:0.2;stroke-miterlimit:7.4;stroke-dasharray:none;stroke-opacity:1;enable-background:accumulate;stop-color:#000000;filter:url(#filter1)"
       d="m 46.06849,6.261719 c -5.203555,-7.905e-4 -9.537174,2.9172047 -11.785156,7.027344 -2.731378,4.993967 -3.479028,6.144184 -6.400391,1.083985 L 26.644662,12.226563 C 23.335564,6.4950369 15.890655,4.6777582 10.373178,7.8632814 4.7523956,11.108441 2.7638726,18.516398 6.0098956,24.138673 l 0.01172,0.01563 16.2910164,27.855464 h -0.002 c 4.973065,8.73 15.335591,9.192597 20.662109,-0.0332 v -0.0039 l 14.982421,-25.80664 0.08984,-0.183594 c 0.588967,-1.184546 1.506202,-3.273146 1.505859,-6.238281 -8e-4,-7.370749 -6.111896,-13.4793525 -13.482421,-13.4804699 z" />
    <path
       id="path6"
       style="fill:url(#radialGradient6);fill-opacity:1;stroke:#ffffff;stroke-width:0;stroke-miterlimit:7.4"
       d="m 46.087438,12.49839 c -3.950303,-5.99e-4 -7.153137,3.200971 -7.153443,7.151275 -1.18e-4,1.51331 0.471887,2.919886 1.277942,4.079003 1.997598,2.87257 2.483863,5.745537 0.766258,8.491616 -1.717605,2.746079 -7.343783,4.646728 -9.865907,0.278242 L 21.179481,15.295111 c -1.593196,-2.759495 -5.033914,-3.53813 -7.622095,-2.04384 -2.677525,1.545869 -3.5897107,4.94674 -2.043841,7.624265 l 16.283468,27.841368 c 2.175406,3.720628 7.555908,3.711017 9.718009,-0.01736 L 52.394706,23.066915 c 0.323646,-0.650925 0.844179,-1.928342 0.844007,-3.41725 -4.56e-4,-3.949457 -3.201818,-7.150676 -7.151275,-7.151275 z"
       sodipodi:nodetypes="ssszccsccccss" />
    <path
       id="path6-0"
       style="fill:none;fill-opacity:1;stroke:#ff0100;stroke-width:0.2;stroke-miterlimit:7.4;stroke-dasharray:none;stroke-opacity:1;filter:url(#filter11)"
       d="m 46.08713,12.499922 c -3.950303,-5.99e-4 -7.153137,3.200971 -7.153443,7.151275 -1.18e-4,1.51331 0.471887,2.919886 1.277942,4.079003 1.997598,2.87257 2.483863,5.745537 0.766258,8.491616 -1.717605,2.746079 -7.343783,4.646728 -9.865907,0.278242 L 21.179173,15.296643 c -1.593196,-2.759495 -5.033914,-3.53813 -7.622095,-2.04384 -2.677525,1.545869 -3.5897103,4.94674 -2.043841,7.624265 l 16.283468,27.841368 c 2.175406,3.720628 7.555908,3.711017 9.718009,-0.01736 L 52.394398,23.068447 c 0.323646,-0.650925 0.844179,-1.928342 0.844007,-3.41725 -4.56e-4,-3.949457 -3.201818,-7.150676 -7.151275,-7.151275 z"
       sodipodi:nodetypes="ssszccsccccss" />
  </g>
</svg>
