<?xml version="1.0" encoding="UTF-8" standalone="no"?>
<svg
   width="64"
   height="64"
   version="1"
   id="svg9"
   sodipodi:docname="vscode.svg"
   inkscape:version="1.4.2 (ebf0e940d0, 2025-05-08)"
   xmlns:inkscape="http://www.inkscape.org/namespaces/inkscape"
   xmlns:sodipodi="http://sodipodi.sourceforge.net/DTD/sodipodi-0.dtd"
   xmlns:xlink="http://www.w3.org/1999/xlink"
   xmlns="http://www.w3.org/2000/svg"
   xmlns:svg="http://www.w3.org/2000/svg">
  <defs
     id="defs9">
    <radialGradient
       inkscape:collect="always"
       xlink:href="#SVGID_1_-3-2-7"
       id="radialGradient16"
       cx="12.967351"
       cy="23.482529"
       fx="12.967351"
       fy="23.482529"
       r="27.999731"
       gradientTransform="matrix(3.0274767,1.7479144,-1.5287216,2.6478235,72.387211,-79.989639)"
       gradientUnits="userSpaceOnUse" />
    <radialGradient
       id="SVGID_1_-3-2-7"
       cx="-159.43106"
       cy="15.462561"
       r="64.706802"
       gradientTransform="matrix(-0.89413329,0,0,0.96304834,-80.753654,49.330428)"
       gradientUnits="userSpaceOnUse"
       fx="-159.43106"
       fy="15.462561">
      <stop
         offset="0"
         style="stop-color:#006fff;stop-opacity:1;"
         id="stop1-6-9-5" />
      <stop
         offset="1"
         style="stop-color:#15baff;stop-opacity:1;"
         id="stop2-7-1-3" />
    </radialGradient>
    <radialGradient
       inkscape:collect="always"
       xlink:href="#SVGID_1_-3-2-7"
       id="radialGradient10"
       cx="36.368073"
       cy="-9.1334057"
       fx="36.368073"
       fy="-9.1334057"
       r="27.999731"
       gradientTransform="matrix(-9.2319905e-8,3.3407805,-3.3097415,0,-21.470488,-107.50193)"
       gradientUnits="userSpaceOnUse" />
    <radialGradient
       id="radialGradient2"
       cx="-159.43106"
       cy="15.462561"
       r="64.706802"
       gradientTransform="matrix(-0.89413329,0,0,0.96304834,-80.753654,49.330428)"
       gradientUnits="userSpaceOnUse"
       fx="-159.43106"
       fy="15.462561">
      <stop
         offset="0"
         style="stop-color:#006fff;stop-opacity:1;"
         id="stop1" />
      <stop
         offset="1"
         style="stop-color:#15baff;stop-opacity:1;"
         id="stop2" />
    </radialGradient>
    <radialGradient
       inkscape:collect="always"
       xlink:href="#SVGID_1_-3-2-7"
       id="radialGradient14"
       cx="47.470032"
       cy="41.165657"
       fx="47.470032"
       fy="41.165657"
       r="8.7446136"
       gradientTransform="matrix(3.1042395e-8,-7.2705885,7.1492255,0,-222.93996,423.35679)"
       gradientUnits="userSpaceOnUse" />
    <radialGradient
       id="radialGradient4"
       cx="-159.43106"
       cy="15.462561"
       r="64.706802"
       gradientTransform="matrix(-0.89413329,0,0,0.96304834,-80.753654,49.330428)"
       gradientUnits="userSpaceOnUse"
       fx="-159.43106"
       fy="15.462561">
      <stop
         offset="0"
         style="stop-color:#006fff;stop-opacity:1;"
         id="stop3" />
      <stop
         offset="1"
         style="stop-color:#15baff;stop-opacity:1;"
         id="stop4" />
    </radialGradient>
  </defs>
  <sodipodi:namedview
     id="namedview9"
     pagecolor="#ffffff"
     bordercolor="#000000"
     borderopacity="0.25"
     inkscape:showpageshadow="2"
     inkscape:pageopacity="0.0"
     inkscape:pagecheckerboard="0"
     inkscape:deskcolor="#d1d1d1"
     inkscape:zoom="18.484375"
     inkscape:cx="32"
     inkscape:cy="32.02705"
     inkscape:window-width="3440"
     inkscape:window-height="1385"
     inkscape:window-x="0"
     inkscape:window-y="0"
     inkscape:window-maximized="1"
     inkscape:current-layer="svg9" />
  <g
     id="g9"
     transform="translate(-8.104324,-14.105565)">
    <path
       style="fill:url(#radialGradient16);stroke-width:0.931798"
       d="m 64.334817,25.558702 -10.744843,-5.20348 c -1.243624,-0.602305 -2.73006,-0.348239 -3.706215,0.633496 L 14.708886,52.66755 c -0.946116,0.867694 -0.945028,2.365819 0.0023,3.232079 l 2.873196,2.627047 c 0.774528,0.708297 1.940965,0.760334 2.774873,0.12419 L 62.718008,26.908609 c 1.421047,-1.084295 3.462174,-0.06484 3.462174,1.729206 v -0.125494 c 0,-1.259335 -0.717245,-2.407329 -1.845365,-2.953632 z"
       id="path3" />
    <path
       style="fill:url(#radialGradient10);stroke-width:0.931798"
       d="m 64.334817,66.684193 -10.744843,5.203494 c -1.243624,0.602161 -2.73006,0.348095 -3.706215,-0.633509 L 14.708886,37.653825 c -0.946116,-0.86763 -0.945028,-2.36582 0.0023,-3.232053 l 2.873196,-2.627153 c 0.774527,-0.708193 1.940965,-0.760333 2.774873,-0.124059 L 62.71796,65.334195 c 1.421047,1.084256 3.462174,0.06496 3.462174,-1.729232 v 0.125625 c 0,1.25923 -0.717245,2.407211 -1.845365,2.953645 z"
       id="path6" />
    <path
       style="fill:url(#radialGradient14);stroke-width:0.931798"
       d="m 53.61885,71.857325 c -1.244028,0.601744 -2.730464,0.347483 -3.706621,-0.63433 1.202676,1.209646 3.259283,0.352817 3.259283,-1.357982 V 22.315374 c 0,-1.710799 -2.056607,-2.567589 -3.259283,-1.357865 0.976157,-0.981813 2.462593,-1.236244 3.706621,-0.634474 l 10.743011,5.196331 c 1.128935,0.546016 1.846793,1.694428 1.846793,2.95431 v 35.233282 c 0,1.259843 -0.717858,2.408229 -1.846793,2.954245 z"
       id="path8" />
  </g>
</svg>
