<?xml version="1.0" encoding="UTF-8" standalone="no"?>
<svg
   width="64"
   height="64"
   version="1"
   id="svg10"
   sodipodi:docname="wine.svg"
   inkscape:version="1.4.3 (0d15f75042, 2025-12-25)"
   xmlns:inkscape="http://www.inkscape.org/namespaces/inkscape"
   xmlns:sodipodi="http://sodipodi.sourceforge.net/DTD/sodipodi-0.dtd"
   xmlns:xlink="http://www.w3.org/1999/xlink"
   xmlns="http://www.w3.org/2000/svg"
   xmlns:svg="http://www.w3.org/2000/svg">
  <defs
     id="defs10">
    <inkscape:path-effect
       effect="fillet_chamfer"
       id="path-effect5"
       is_visible="true"
       lpeversion="1"
       nodesatellites_param="F,0,1,1,0,2.7863876,0,1 @ F,0,1,1,0,2.7863876,0,1 @ F,0,1,1,0,2.7863876,0,1 @ F,0,1,1,0,2.7863876,0,1 | F,0,1,1,0,2.7863876,0,1 @ F,0,1,1,0,2.7863876,0,1 @ F,0,1,1,0,2.7863876,0,1 @ F,0,1,1,0,2.7863876,0,1 | F,0,1,1,0,2.7863876,0,1 @ F,0,1,1,0,2.7863876,0,1 @ F,0,1,1,0,2.7863876,0,1 @ F,0,1,1,0,2.7863876,0,1 | F,0,1,1,0,2.7863876,0,1 @ F,0,1,1,0,2.7863876,0,1 @ F,0,0,1,0,2.7863876,0,1 @ F,0,1,1,0,2.7863876,0,1"
       radius="0"
       unit="px"
       method="auto"
       mode="F"
       chamfer_steps="1"
       flexible="false"
       use_knot_distance="true"
       apply_no_radius="true"
       apply_with_radius="true"
       only_selected="false"
       hide_knots="false" />
    <inkscape:path-effect
       effect="fillet_chamfer"
       id="path-effect3"
       is_visible="true"
       lpeversion="1"
       nodesatellites_param="F,0,1,1,0,2.6875102,0,1 @ F,0,1,1,0,2.6875102,0,1 @ F,0,1,1,0,2.6875102,0,1 @ F,0,1,1,0,2.6875102,0,1 | F,0,1,1,0,2.6875102,0,1 @ F,0,1,1,0,2.6875102,0,1 @ F,0,1,1,0,2.6875102,0,1 @ F,0,1,1,0,2.6875102,0,1 | F,0,1,1,0,2.6875102,0,1 @ F,0,1,1,0,2.6875102,0,1 @ F,0,1,1,0,2.6875102,0,1 @ F,0,1,1,0,2.6875102,0,1 | F,0,1,1,0,2.6875102,0,1 @ F,0,1,1,0,2.6875102,0,1 @ F,0,0,1,0,2.6875102,0,1 @ F,0,1,1,0,2.6875102,0,1"
       radius="0"
       unit="px"
       method="auto"
       mode="F"
       chamfer_steps="1"
       flexible="false"
       use_knot_distance="true"
       apply_no_radius="true"
       apply_with_radius="true"
       only_selected="false"
       hide_knots="false" />
    <inkscape:path-effect
       effect="fillet_chamfer"
       id="path-effect13"
       is_visible="true"
       lpeversion="1"
       nodesatellites_param="F,0,1,1,0,13.994114,0,1 @ F,0,1,1,0,13.994114,0,1 @ F,0,1,1,0,13.994114,0,1 @ F,0,0,1,0,13.994114,0,1"
       radius="0"
       unit="px"
       method="auto"
       mode="F"
       chamfer_steps="1"
       flexible="false"
       use_knot_distance="true"
       apply_no_radius="true"
       apply_with_radius="true"
       only_selected="false"
       hide_knots="false" />
    <inkscape:path-effect
       effect="fillet_chamfer"
       id="path-effect12"
       is_visible="true"
       lpeversion="1"
       nodesatellites_param="F,0,0,1,0,0,0,1 @ F,0,0,1,0,0,0,1 @ F,0,0,1,0,0,0,1 @ F,0,0,1,0,0,0,1"
       radius="0"
       unit="px"
       method="auto"
       mode="F"
       chamfer_steps="1"
       flexible="false"
       use_knot_distance="true"
       apply_no_radius="true"
       apply_with_radius="true"
       only_selected="false"
       hide_knots="false" />
    <inkscape:path-effect
       effect="fillet_chamfer"
       id="path-effect11"
       is_visible="true"
       lpeversion="1"
       nodesatellites_param="F,0,1,1,0,5.2536766,0,1 @ F,0,1,1,0,5.2536766,0,1 @ F,0,1,1,0,5.2536766,0,1 @ F,0,1,1,0,5.2536766,0,1 | F,0,1,1,0,5.2536766,0,1 @ F,0,1,1,0,5.2536766,0,1 @ F,0,1,1,0,5.2536766,0,1 @ F,0,1,1,0,5.2536766,0,1 | F,0,1,1,0,5.2536766,0,1 @ F,0,1,1,0,5.2536766,0,1 @ F,0,1,1,0,5.2536766,0,1 @ F,0,1,1,0,5.2536766,0,1 | F,0,1,1,0,5.2536766,0,1 @ F,0,1,1,0,5.2536766,0,1 @ F,0,0,1,0,5.2536766,0,1 @ F,0,1,1,0,5.2536766,0,1"
       radius="0"
       unit="px"
       method="auto"
       mode="F"
       chamfer_steps="1"
       flexible="false"
       use_knot_distance="true"
       apply_no_radius="true"
       apply_with_radius="true"
       only_selected="false"
       hide_knots="false" />
    <inkscape:path-effect
       effect="fillet_chamfer"
       id="path-effect11-2"
       is_visible="true"
       lpeversion="1"
       nodesatellites_param="F,0,1,1,0,5.2536766,0,1 @ F,0,1,1,0,5.2536766,0,1 @ F,0,1,1,0,5.2536766,0,1 @ F,0,1,1,0,5.2536766,0,1 | F,0,1,1,0,5.2536766,0,1 @ F,0,1,1,0,5.2536766,0,1 @ F,0,1,1,0,5.2536766,0,1 @ F,0,1,1,0,5.2536766,0,1 | F,0,1,1,0,5.2536766,0,1 @ F,0,1,1,0,5.2536766,0,1 @ F,0,1,1,0,5.2536766,0,1 @ F,0,1,1,0,5.2536766,0,1 | F,0,1,1,0,5.2536766,0,1 @ F,0,1,1,0,5.2536766,0,1 @ F,0,0,1,0,5.2536766,0,1 @ F,0,1,1,0,5.2536766,0,1"
       radius="0"
       unit="px"
       method="auto"
       mode="F"
       chamfer_steps="1"
       flexible="false"
       use_knot_distance="true"
       apply_no_radius="true"
       apply_with_radius="true"
       only_selected="false"
       hide_knots="false" />
    <inkscape:path-effect
       effect="fillet_chamfer"
       id="path-effect13-9"
       is_visible="true"
       lpeversion="1"
       nodesatellites_param="F,0,1,1,0,13.994114,0,1 @ F,0,1,1,0,13.994114,0,1 @ F,0,1,1,0,13.994114,0,1 @ F,0,0,1,0,13.994114,0,1"
       radius="0"
       unit="px"
       method="auto"
       mode="F"
       chamfer_steps="1"
       flexible="false"
       use_knot_distance="true"
       apply_no_radius="true"
       apply_with_radius="true"
       only_selected="false"
       hide_knots="false" />
    <inkscape:path-effect
       effect="fillet_chamfer"
       id="path-effect13-6"
       is_visible="true"
       lpeversion="1"
       nodesatellites_param="F,0,1,1,0,13.994114,0,1 @ F,0,1,1,0,13.994114,0,1 @ F,0,1,1,0,13.994114,0,1 @ F,0,0,1,0,13.994114,0,1"
       radius="0"
       unit="px"
       method="auto"
       mode="F"
       chamfer_steps="1"
       flexible="false"
       use_knot_distance="true"
       apply_no_radius="true"
       apply_with_radius="true"
       only_selected="false"
       hide_knots="false" />
    <inkscape:path-effect
       effect="fillet_chamfer"
       id="path-effect11-7"
       is_visible="true"
       lpeversion="1"
       nodesatellites_param="F,0,1,1,0,5.2536766,0,1 @ F,0,1,1,0,5.2536766,0,1 @ F,0,1,1,0,5.2536766,0,1 @ F,0,1,1,0,5.2536766,0,1 | F,0,1,1,0,5.2536766,0,1 @ F,0,1,1,0,5.2536766,0,1 @ F,0,1,1,0,5.2536766,0,1 @ F,0,1,1,0,5.2536766,0,1 | F,0,1,1,0,5.2536766,0,1 @ F,0,1,1,0,5.2536766,0,1 @ F,0,1,1,0,5.2536766,0,1 @ F,0,1,1,0,5.2536766,0,1 | F,0,1,1,0,5.2536766,0,1 @ F,0,1,1,0,5.2536766,0,1 @ F,0,0,1,0,5.2536766,0,1 @ F,0,1,1,0,5.2536766,0,1"
       radius="0"
       unit="px"
       method="auto"
       mode="F"
       chamfer_steps="1"
       flexible="false"
       use_knot_distance="true"
       apply_no_radius="true"
       apply_with_radius="true"
       only_selected="false"
       hide_knots="false" />
    <inkscape:path-effect
       effect="fillet_chamfer"
       id="path-effect13-9-5"
       is_visible="true"
       lpeversion="1"
       nodesatellites_param="F,0,1,1,0,13.994114,0,1 @ F,0,1,1,0,13.994114,0,1 @ F,0,1,1,0,13.994114,0,1 @ F,0,0,1,0,13.994114,0,1"
       radius="0"
       unit="px"
       method="auto"
       mode="F"
       chamfer_steps="1"
       flexible="false"
       use_knot_distance="true"
       apply_no_radius="true"
       apply_with_radius="true"
       only_selected="false"
       hide_knots="false" />
    <inkscape:path-effect
       effect="fillet_chamfer"
       id="path-effect11-2-3"
       is_visible="true"
       lpeversion="1"
       nodesatellites_param="F,0,1,1,0,5.2536766,0,1 @ F,0,1,1,0,5.2536766,0,1 @ F,0,1,1,0,5.2536766,0,1 @ F,0,1,1,0,5.2536766,0,1 | F,0,1,1,0,5.2536766,0,1 @ F,0,1,1,0,5.2536766,0,1 @ F,0,1,1,0,5.2536766,0,1 @ F,0,1,1,0,5.2536766,0,1 | F,0,1,1,0,5.2536766,0,1 @ F,0,1,1,0,5.2536766,0,1 @ F,0,1,1,0,5.2536766,0,1 @ F,0,1,1,0,5.2536766,0,1 | F,0,1,1,0,5.2536766,0,1 @ F,0,1,1,0,5.2536766,0,1 @ F,0,0,1,0,5.2536766,0,1 @ F,0,1,1,0,5.2536766,0,1"
       radius="0"
       unit="px"
       method="auto"
       mode="F"
       chamfer_steps="1"
       flexible="false"
       use_knot_distance="true"
       apply_no_radius="true"
       apply_with_radius="true"
       only_selected="false"
       hide_knots="false" />
    <radialGradient
       inkscape:collect="always"
       xlink:href="#linearGradient11"
       id="radialGradient12"
       cx="24.060026"
       cy="25.245184"
       fx="24.060026"
       fy="25.245184"
       r="19.625"
       gradientTransform="matrix(1.7250519,2.9878775,-3.0054214,1.7351809,50.521961,-97.253126)"
       gradientUnits="userSpaceOnUse" />
    <linearGradient
       id="linearGradient11"
       inkscape:collect="always">
      <stop
         style="stop-color:#00dfff;stop-opacity:1;"
         offset="0"
         id="stop11" />
      <stop
         style="stop-color:#0097ff;stop-opacity:1;"
         offset="1"
         id="stop12" />
    </linearGradient>
    <inkscape:path-effect
       effect="fillet_chamfer"
       id="path-effect11-7-7"
       is_visible="true"
       lpeversion="1"
       nodesatellites_param="F,0,1,1,0,2.6875102,0,1 @ F,0,1,1,0,2.6875102,0,1 @ F,0,1,1,0,2.6875102,0,1 @ F,0,1,1,0,2.6875102,0,1 | F,0,1,1,0,2.6875102,0,1 @ F,0,1,1,0,2.6875102,0,1 @ F,0,1,1,0,2.6875102,0,1 @ F,0,1,1,0,2.6875102,0,1 | F,0,1,1,0,2.6875102,0,1 @ F,0,1,1,0,2.6875102,0,1 @ F,0,1,1,0,2.6875102,0,1 @ F,0,1,1,0,2.6875102,0,1 | F,0,1,1,0,2.6875102,0,1 @ F,0,1,1,0,2.6875102,0,1 @ F,0,0,1,0,2.6875102,0,1 @ F,0,1,1,0,2.6875102,0,1"
       radius="0"
       unit="px"
       method="auto"
       mode="F"
       chamfer_steps="1"
       flexible="false"
       use_knot_distance="true"
       apply_no_radius="true"
       apply_with_radius="true"
       only_selected="false"
       hide_knots="false" />
    <filter
       inkscape:collect="always"
       style="color-interpolation-filters:sRGB"
       id="filter13"
       x="-0.14795338"
       y="-0.1470897"
       width="1.2959068"
       height="1.2941794">
      <feGaussianBlur
         inkscape:collect="always"
         stdDeviation="2.3863358"
         id="feGaussianBlur13" />
    </filter>
    <inkscape:path-effect
       effect="fillet_chamfer"
       id="path-effect11-2-3-0"
       is_visible="true"
       lpeversion="1"
       nodesatellites_param="F,0,1,1,0,2.7863876,0,1 @ F,0,1,1,0,2.7863876,0,1 @ F,0,1,1,0,2.7863876,0,1 @ F,0,1,1,0,2.7863876,0,1 | F,0,1,1,0,2.7863876,0,1 @ F,0,1,1,0,2.7863876,0,1 @ F,0,1,1,0,2.7863876,0,1 @ F,0,1,1,0,2.7863876,0,1 | F,0,1,1,0,2.7863876,0,1 @ F,0,1,1,0,2.7863876,0,1 @ F,0,1,1,0,2.7863876,0,1 @ F,0,1,1,0,2.7863876,0,1 | F,0,1,1,0,2.7863876,0,1 @ F,0,1,1,0,2.7863876,0,1 @ F,0,0,1,0,2.7863876,0,1 @ F,0,1,1,0,2.7863876,0,1"
       radius="0"
       unit="px"
       method="auto"
       mode="F"
       chamfer_steps="1"
       flexible="false"
       use_knot_distance="true"
       apply_no_radius="true"
       apply_with_radius="true"
       only_selected="false"
       hide_knots="false" />
  </defs>
  <sodipodi:namedview
     id="namedview10"
     pagecolor="#505050"
     bordercolor="#eeeeee"
     borderopacity="1"
     inkscape:showpageshadow="0"
     inkscape:pageopacity="0"
     inkscape:pagecheckerboard="0"
     inkscape:deskcolor="#505050"
     inkscape:zoom="9.269728"
     inkscape:cx="30.313727"
     inkscape:cy="36.516713"
     inkscape:window-width="1920"
     inkscape:window-height="1014"
     inkscape:window-x="0"
     inkscape:window-y="0"
     inkscape:window-maximized="1"
     inkscape:current-layer="svg10" />
  <g
     id="g1"
     transform="translate(-9.804585,-7.9486923)">
    <path
       id="rect1-3"
       style="fill:url(#radialGradient12);stroke-width:0.329007"
       d="m 12.509766,14.916026 v 13.050761 a 2.6875102,2.6875102 45 0 0 2.68751,2.68751 h 13.048808 a 2.6875102,2.6875102 135 0 0 2.68751,-2.68751 V 14.916026 a 2.6875102,2.6875102 45 0 0 -2.68751,-2.68751 H 15.197276 a 2.6875102,2.6875102 135 0 0 -2.68751,2.68751 z m 20.652343,0.04687 v 13.050766 a 2.6875102,2.6875102 45 0 0 2.68751,2.68751 h 13.050762 a 2.6875102,2.6875102 135 0 0 2.68751,-2.68751 V 14.962901 a 2.6875109,2.6875109 45.000008 0 0 -2.68751,-2.687511 l -13.050762,-3e-6 a 2.6875095,2.6875095 135.00001 0 0 -2.68751,2.687509 z M 12.337891,35.908213 v 13.048808 a 2.6875102,2.6875102 45 0 0 2.68751,2.68751 h 13.048808 a 2.6875102,2.6875102 135 0 0 2.68751,-2.68751 l 0,-13.048808 a 2.6875102,2.6875102 45 0 0 -2.68751,-2.68751 H 15.025401 a 2.6875102,2.6875102 135 0 0 -2.68751,2.68751 z m 20.824218,0.06445 v 13.048811 a 2.6875102,2.6875102 45 0 0 2.68751,2.68751 h 13.050762 a 2.6875102,2.6875102 135 0 0 2.68751,-2.68751 V 35.972666 a 2.6875106,2.6875106 45.000005 0 0 -2.68751,-2.68751 l -13.050762,-3e-6 a 2.6875098,2.6875098 135 0 0 -2.68751,2.68751 z"
       inkscape:path-effect="#path-effect11-7-7"
       inkscape:original-d="M 12.509766,12.228516 V 30.654297 H 30.933594 V 12.228516 Z m 20.652343,0.04687 V 30.701172 H 51.587891 V 12.275391 Z M 12.337891,33.220703 V 51.644531 H 30.761719 V 33.220703 Z m 20.824218,0.06445 V 51.708984 H 51.587891 V 33.285156 Z"
       transform="matrix(1.2505651,0,0,1.2505651,1.7865011,-0.0550149)" />
    <path
       id="rect1-3-2"
       style="mix-blend-mode:normal;fill:none;stroke:#000000;stroke-width:0.159928;stroke-dasharray:none;stroke-opacity:1;filter:url(#filter13)"
       d="m 12.509766,15.014904 v 12.853005 a 2.7863876,2.7863876 45 0 0 2.786388,2.786388 h 12.851052 a 2.7863876,2.7863876 135 0 0 2.786388,-2.786388 V 15.014904 A 2.7863876,2.7863876 45 0 0 28.147206,12.228516 H 15.296154 a 2.7863876,2.7863876 135 0 0 -2.786388,2.786388 z m 20.652343,0.04687 v 12.85301 a 2.7863876,2.7863876 45 0 0 2.786388,2.786388 h 12.853006 a 2.7863876,2.7863876 135 0 0 2.786388,-2.786388 V 15.061779 A 2.7863884,2.7863884 45.000008 0 0 48.801503,12.27539 l -12.853006,-3e-6 a 2.7863868,2.7863868 135.00001 0 0 -2.786388,2.786387 z M 12.337891,36.007091 v 12.851052 a 2.7863876,2.7863876 45 0 0 2.786388,2.786388 h 12.851052 a 2.7863876,2.7863876 135 0 0 2.786388,-2.786388 V 36.007091 A 2.7863876,2.7863876 45 0 0 27.975331,33.220703 H 15.124279 a 2.7863876,2.7863876 135 0 0 -2.786388,2.786388 z m 20.824218,0.06445 v 12.851055 a 2.7863876,2.7863876 45 0 0 2.786388,2.786388 h 12.853006 a 2.7863876,2.7863876 135 0 0 2.786388,-2.786388 V 36.071544 a 2.7863881,2.7863881 45.000005 0 0 -2.786388,-2.786388 l -12.853006,-3e-6 a 2.7863871,2.7863871 135 0 0 -2.786388,2.786388 z"
       inkscape:path-effect="#path-effect11-2-3-0"
       inkscape:original-d="M 12.509766,12.228516 V 30.654297 H 30.933594 V 12.228516 Z m 20.652343,0.04687 V 30.701172 H 51.587891 V 12.275391 Z M 12.337891,33.220703 V 51.644531 H 30.761719 V 33.220703 Z m 20.824218,0.06445 V 51.708984 H 51.587891 V 33.285156 Z"
       transform="matrix(1.2505651,0,0,1.2505651,1.8329083,-0.0303115)" />
  </g>
  <g
     id="g2"
     transform="translate(-9.804585,-7.9486923)">
    <path
       id="path1"
       style="fill:url(#radialGradient12);stroke-width:0.329007"
       d="m 12.509766,14.916026 v 13.050761 a 2.6875102,2.6875102 45 0 0 2.68751,2.68751 h 13.048808 a 2.6875102,2.6875102 135 0 0 2.68751,-2.68751 V 14.916026 a 2.6875102,2.6875102 45 0 0 -2.68751,-2.68751 H 15.197276 a 2.6875102,2.6875102 135 0 0 -2.68751,2.68751 z m 20.652343,0.04687 v 13.050766 a 2.6875102,2.6875102 45 0 0 2.68751,2.68751 h 13.050762 a 2.6875102,2.6875102 135 0 0 2.68751,-2.68751 V 14.962901 a 2.6875109,2.6875109 45.000008 0 0 -2.68751,-2.687511 l -13.050762,-3e-6 a 2.6875095,2.6875095 135.00001 0 0 -2.68751,2.687509 z M 12.337891,35.908213 v 13.048808 a 2.6875102,2.6875102 45 0 0 2.68751,2.68751 h 13.048808 a 2.6875102,2.6875102 135 0 0 2.68751,-2.68751 l 0,-13.048808 a 2.6875102,2.6875102 45 0 0 -2.68751,-2.68751 H 15.025401 a 2.6875102,2.6875102 135 0 0 -2.68751,2.68751 z m 20.824218,0.06445 v 13.048811 a 2.6875102,2.6875102 45 0 0 2.68751,2.68751 h 13.050762 a 2.6875102,2.6875102 135 0 0 2.68751,-2.68751 V 35.972666 a 2.6875106,2.6875106 45.000005 0 0 -2.68751,-2.68751 l -13.050762,-3e-6 a 2.6875098,2.6875098 135 0 0 -2.68751,2.68751 z"
       inkscape:path-effect="#path-effect3"
       inkscape:original-d="M 12.509766,12.228516 V 30.654297 H 30.933594 V 12.228516 Z m 20.652343,0.04687 V 30.701172 H 51.587891 V 12.275391 Z M 12.337891,33.220703 V 51.644531 H 30.761719 V 33.220703 Z m 20.824218,0.06445 V 51.708984 H 51.587891 V 33.285156 Z"
       transform="matrix(1.2505651,0,0,1.2505651,1.7865011,-0.0550149)" />
    <path
       id="path2"
       style="mix-blend-mode:normal;fill:none;stroke:#000000;stroke-width:0.159928;stroke-dasharray:none;stroke-opacity:1;filter:url(#filter13)"
       d="m 12.509766,15.014904 v 12.853005 a 2.7863876,2.7863876 45 0 0 2.786388,2.786388 h 12.851052 a 2.7863876,2.7863876 135 0 0 2.786388,-2.786388 V 15.014904 A 2.7863876,2.7863876 45 0 0 28.147206,12.228516 H 15.296154 a 2.7863876,2.7863876 135 0 0 -2.786388,2.786388 z m 20.652343,0.04687 v 12.85301 a 2.7863876,2.7863876 45 0 0 2.786388,2.786388 h 12.853006 a 2.7863876,2.7863876 135 0 0 2.786388,-2.786388 V 15.061779 A 2.7863884,2.7863884 45.000008 0 0 48.801503,12.27539 l -12.853006,-3e-6 a 2.7863868,2.7863868 135.00001 0 0 -2.786388,2.786387 z M 12.337891,36.007091 v 12.851052 a 2.7863876,2.7863876 45 0 0 2.786388,2.786388 h 12.851052 a 2.7863876,2.7863876 135 0 0 2.786388,-2.786388 V 36.007091 A 2.7863876,2.7863876 45 0 0 27.975331,33.220703 H 15.124279 a 2.7863876,2.7863876 135 0 0 -2.786388,2.786388 z m 20.824218,0.06445 v 12.851055 a 2.7863876,2.7863876 45 0 0 2.786388,2.786388 h 12.853006 a 2.7863876,2.7863876 135 0 0 2.786388,-2.786388 V 36.071544 a 2.7863881,2.7863881 45.000005 0 0 -2.786388,-2.786388 l -12.853006,-3e-6 a 2.7863871,2.7863871 135 0 0 -2.786388,2.786388 z"
       inkscape:path-effect="#path-effect5"
       inkscape:original-d="M 12.509766,12.228516 V 30.654297 H 30.933594 V 12.228516 Z m 20.652343,0.04687 V 30.701172 H 51.587891 V 12.275391 Z M 12.337891,33.220703 V 51.644531 H 30.761719 V 33.220703 Z m 20.824218,0.06445 V 51.708984 H 51.587891 V 33.285156 Z"
       transform="matrix(1.2505651,0,0,1.2505651,1.8329083,-0.0303115)" />
  </g>
</svg>
