<?xml version="1.0" encoding="UTF-8" standalone="no"?>
<svg
   width="64"
   height="64"
   version="1"
   id="svg10"
   sodipodi:docname="winetricks.svg"
   inkscape:version="1.4.3 (0d15f75042, 2025-12-25)"
   xmlns:inkscape="http://www.inkscape.org/namespaces/inkscape"
   xmlns:sodipodi="http://sodipodi.sourceforge.net/DTD/sodipodi-0.dtd"
   xmlns:xlink="http://www.w3.org/1999/xlink"
   xmlns="http://www.w3.org/2000/svg"
   xmlns:svg="http://www.w3.org/2000/svg">
  <defs
     id="defs10">
    <linearGradient
       id="linearGradient10"
       inkscape:collect="always">
      <stop
         style="stop-color:#faa457;stop-opacity:1;"
         offset="0"
         id="stop10" />
      <stop
         style="stop-color:#fa6257;stop-opacity:1;"
         offset="1"
         id="stop13" />
    </linearGradient>
    <inkscape:path-effect
       effect="fillet_chamfer"
       id="path-effect10"
       is_visible="true"
       lpeversion="1"
       nodesatellites_param="F,0,0,1,0,0.62715937,0,1 @ F,0,0,1,0,0.87973099,0,1 @ F,0,1,1,0,0.62715937,0,1 @ F,0,0,1,0,0.87973099,0,1 @ F,0,1,1,0,0.62715937,0,1 @ F,0,0,1,0,0.87973099,0,1 @ F,0,1,1,0,0.62715937,0,1 @ F,0,0,1,0,0.87973099,0,1 @ F,0,1,1,0,0.62715937,0,1 @ F,0,0,1,0,0.87973099,0,1"
       radius="0"
       unit="px"
       method="auto"
       mode="F"
       chamfer_steps="1"
       flexible="false"
       use_knot_distance="true"
       apply_no_radius="true"
       apply_with_radius="true"
       only_selected="false"
       hide_knots="false" />
    <inkscape:path-effect
       effect="fillet_chamfer"
       id="path-effect11-2"
       is_visible="true"
       lpeversion="1"
       nodesatellites_param="F,0,1,1,0,5.2536766,0,1 @ F,0,1,1,0,5.2536766,0,1 @ F,0,1,1,0,5.2536766,0,1 @ F,0,1,1,0,5.2536766,0,1 | F,0,1,1,0,5.2536766,0,1 @ F,0,1,1,0,5.2536766,0,1 @ F,0,1,1,0,5.2536766,0,1 @ F,0,1,1,0,5.2536766,0,1 | F,0,1,1,0,5.2536766,0,1 @ F,0,1,1,0,5.2536766,0,1 @ F,0,1,1,0,5.2536766,0,1 @ F,0,1,1,0,5.2536766,0,1 | F,0,1,1,0,5.2536766,0,1 @ F,0,1,1,0,5.2536766,0,1 @ F,0,0,1,0,5.2536766,0,1 @ F,0,1,1,0,5.2536766,0,1"
       radius="0"
       unit="px"
       method="auto"
       mode="F"
       chamfer_steps="1"
       flexible="false"
       use_knot_distance="true"
       apply_no_radius="true"
       apply_with_radius="true"
       only_selected="false"
       hide_knots="false" />
    <inkscape:path-effect
       effect="fillet_chamfer"
       id="path-effect13-9"
       is_visible="true"
       lpeversion="1"
       nodesatellites_param="F,0,1,1,0,13.994114,0,1 @ F,0,1,1,0,13.994114,0,1 @ F,0,1,1,0,13.994114,0,1 @ F,0,0,1,0,13.994114,0,1"
       radius="0"
       unit="px"
       method="auto"
       mode="F"
       chamfer_steps="1"
       flexible="false"
       use_knot_distance="true"
       apply_no_radius="true"
       apply_with_radius="true"
       only_selected="false"
       hide_knots="false" />
    <inkscape:path-effect
       effect="fillet_chamfer"
       id="path-effect11"
       is_visible="true"
       lpeversion="1"
       nodesatellites_param="F,0,1,1,0,5.2536766,0,1 @ F,0,1,1,0,5.2536766,0,1 @ F,0,1,1,0,5.2536766,0,1 @ F,0,1,1,0,5.2536766,0,1 | F,0,1,1,0,5.2536766,0,1 @ F,0,1,1,0,5.2536766,0,1 @ F,0,1,1,0,5.2536766,0,1 @ F,0,1,1,0,5.2536766,0,1 | F,0,1,1,0,5.2536766,0,1 @ F,0,1,1,0,5.2536766,0,1 @ F,0,1,1,0,5.2536766,0,1 @ F,0,1,1,0,5.2536766,0,1 | F,0,1,1,0,5.2536766,0,1 @ F,0,1,1,0,5.2536766,0,1 @ F,0,0,1,0,5.2536766,0,1 @ F,0,1,1,0,5.2536766,0,1"
       radius="0"
       unit="px"
       method="auto"
       mode="F"
       chamfer_steps="1"
       flexible="false"
       use_knot_distance="true"
       apply_no_radius="true"
       apply_with_radius="true"
       only_selected="false"
       hide_knots="false" />
    <inkscape:path-effect
       effect="fillet_chamfer"
       id="path-effect13"
       is_visible="true"
       lpeversion="1"
       nodesatellites_param="F,0,1,1,0,13.994114,0,1 @ F,0,1,1,0,13.994114,0,1 @ F,0,1,1,0,13.994114,0,1 @ F,0,0,1,0,13.994114,0,1"
       radius="0"
       unit="px"
       method="auto"
       mode="F"
       chamfer_steps="1"
       flexible="false"
       use_knot_distance="true"
       apply_no_radius="true"
       apply_with_radius="true"
       only_selected="false"
       hide_knots="false" />
    <radialGradient
       inkscape:collect="always"
       xlink:href="#linearGradient10"
       id="radialGradient13"
       cx="45.875225"
       cy="58.843693"
       fx="45.875225"
       fy="58.843693"
       r="8.888628"
       gradientUnits="userSpaceOnUse"
       gradientTransform="matrix(1.9936757,0,0,1.9936753,-46.560519,-56.730031)" />
    <inkscape:path-effect
       effect="fillet_chamfer"
       id="path-effect10-3"
       is_visible="true"
       lpeversion="1"
       nodesatellites_param="F,0,0,1,0,0.62715937,0,1 @ F,0,0,1,0,0.87973099,0,1 @ F,0,1,1,0,0.62715937,0,1 @ F,0,0,1,0,0.87973099,0,1 @ F,0,1,1,0,0.62715937,0,1 @ F,0,0,1,0,0.87973099,0,1 @ F,0,1,1,0,0.62715937,0,1 @ F,0,0,1,0,0.87973099,0,1 @ F,0,1,1,0,0.62715937,0,1 @ F,0,0,1,0,0.87973099,0,1"
       radius="0"
       unit="px"
       method="auto"
       mode="F"
       chamfer_steps="1"
       flexible="false"
       use_knot_distance="true"
       apply_no_radius="true"
       apply_with_radius="true"
       only_selected="false"
       hide_knots="false" />
    <filter
       inkscape:collect="always"
       style="color-interpolation-filters:sRGB"
       id="filter15"
       x="-0.23287727"
       y="-0.23169677"
       width="1.4657545"
       height="1.4638677">
      <feGaussianBlur
         inkscape:collect="always"
         stdDeviation="0.93194511"
         id="feGaussianBlur15" />
    </filter>
    <filter
       inkscape:collect="always"
       style="color-interpolation-filters:sRGB"
       id="filter16"
       x="-0.13301649"
       y="-0.13301649"
       width="1.266033"
       height="1.266033">
      <feGaussianBlur
         inkscape:collect="always"
         stdDeviation="0.93194511"
         id="feGaussianBlur16" />
    </filter>
    <filter
       inkscape:collect="always"
       style="color-interpolation-filters:sRGB"
       id="filter13"
       x="-0.14795338"
       y="-0.1470897"
       width="1.2959068"
       height="1.2941794">
      <feGaussianBlur
         inkscape:collect="always"
         stdDeviation="2.3863358"
         id="feGaussianBlur13" />
    </filter>
    <inkscape:path-effect
       effect="fillet_chamfer"
       id="path-effect11-2-3"
       is_visible="true"
       lpeversion="1"
       nodesatellites_param="F,0,1,1,0,2.7863876,0,1 @ F,0,1,1,0,2.7863876,0,1 @ F,0,1,1,0,2.7863876,0,1 @ F,0,1,1,0,2.7863876,0,1 | F,0,1,1,0,2.7863876,0,1 @ F,0,1,1,0,2.7863876,0,1 @ F,0,1,1,0,2.7863876,0,1 @ F,0,1,1,0,2.7863876,0,1 | F,0,1,1,0,2.7863876,0,1 @ F,0,1,1,0,2.7863876,0,1 @ F,0,1,1,0,2.7863876,0,1 @ F,0,1,1,0,2.7863876,0,1 | F,0,1,1,0,2.7863876,0,1 @ F,0,1,1,0,2.7863876,0,1 @ F,0,0,1,0,2.7863876,0,1 @ F,0,1,1,0,2.7863876,0,1"
       radius="0"
       unit="px"
       method="auto"
       mode="F"
       chamfer_steps="1"
       flexible="false"
       use_knot_distance="true"
       apply_no_radius="true"
       apply_with_radius="true"
       only_selected="false"
       hide_knots="false" />
    <radialGradient
       inkscape:collect="always"
       xlink:href="#linearGradient11"
       id="radialGradient12"
       cx="24.060026"
       cy="25.245184"
       fx="24.060026"
       fy="25.245184"
       r="19.625"
       gradientTransform="matrix(1.7250519,2.9878775,-3.0054214,1.7351809,50.521961,-97.253126)"
       gradientUnits="userSpaceOnUse" />
    <linearGradient
       id="linearGradient11"
       inkscape:collect="always">
      <stop
         style="stop-color:#00dfff;stop-opacity:1;"
         offset="0"
         id="stop11" />
      <stop
         style="stop-color:#0097ff;stop-opacity:1;"
         offset="1"
         id="stop12" />
    </linearGradient>
    <inkscape:path-effect
       effect="fillet_chamfer"
       id="path-effect11-7"
       is_visible="true"
       lpeversion="1"
       nodesatellites_param="F,0,1,1,0,2.6875102,0,1 @ F,0,1,1,0,2.6875102,0,1 @ F,0,1,1,0,2.6875102,0,1 @ F,0,1,1,0,2.6875102,0,1 | F,0,1,1,0,2.6875102,0,1 @ F,0,1,1,0,2.6875102,0,1 @ F,0,1,1,0,2.6875102,0,1 @ F,0,1,1,0,2.6875102,0,1 | F,0,1,1,0,2.6875102,0,1 @ F,0,1,1,0,2.6875102,0,1 @ F,0,1,1,0,2.6875102,0,1 @ F,0,1,1,0,2.6875102,0,1 | F,0,1,1,0,2.6875102,0,1 @ F,0,1,1,0,2.6875102,0,1 @ F,0,0,1,0,2.6875102,0,1 @ F,0,1,1,0,2.6875102,0,1"
       radius="0"
       unit="px"
       method="auto"
       mode="F"
       chamfer_steps="1"
       flexible="false"
       use_knot_distance="true"
       apply_no_radius="true"
       apply_with_radius="true"
       only_selected="false"
       hide_knots="false" />
  </defs>
  <sodipodi:namedview
     id="namedview10"
     pagecolor="#505050"
     bordercolor="#eeeeee"
     borderopacity="1"
     inkscape:showpageshadow="0"
     inkscape:pageopacity="0"
     inkscape:pagecheckerboard="0"
     inkscape:deskcolor="#505050"
     inkscape:zoom="9.269728"
     inkscape:cx="29.127068"
     inkscape:cy="33.064616"
     inkscape:window-width="1920"
     inkscape:window-height="1020"
     inkscape:window-x="0"
     inkscape:window-y="0"
     inkscape:window-maximized="1"
     inkscape:current-layer="svg10" />
  <g
     id="g1"
     transform="translate(-9.804585,-7.9486923)">
    <path
       id="rect1-3"
       style="fill:url(#radialGradient12);stroke-width:0.329007"
       d="m 12.509766,14.916026 v 13.050761 a 2.6875102,2.6875102 45 0 0 2.68751,2.68751 h 13.048808 a 2.6875102,2.6875102 135 0 0 2.68751,-2.68751 V 14.916026 a 2.6875102,2.6875102 45 0 0 -2.68751,-2.68751 H 15.197276 a 2.6875102,2.6875102 135 0 0 -2.68751,2.68751 z m 20.652343,0.04687 v 13.050766 a 2.6875102,2.6875102 45 0 0 2.68751,2.68751 h 13.050762 a 2.6875102,2.6875102 135 0 0 2.68751,-2.68751 V 14.962901 a 2.6875109,2.6875109 45.000008 0 0 -2.68751,-2.687511 l -13.050762,-3e-6 a 2.6875095,2.6875095 135.00001 0 0 -2.68751,2.687509 z M 12.337891,35.908213 v 13.048808 a 2.6875102,2.6875102 45 0 0 2.68751,2.68751 h 13.048808 a 2.6875102,2.6875102 135 0 0 2.68751,-2.68751 l 0,-13.048808 a 2.6875102,2.6875102 45 0 0 -2.68751,-2.68751 H 15.025401 a 2.6875102,2.6875102 135 0 0 -2.68751,2.68751 z m 20.824218,0.06445 v 13.048811 a 2.6875102,2.6875102 45 0 0 2.68751,2.68751 h 13.050762 a 2.6875102,2.6875102 135 0 0 2.68751,-2.68751 V 35.972666 a 2.6875106,2.6875106 45.000005 0 0 -2.68751,-2.68751 l -13.050762,-3e-6 a 2.6875098,2.6875098 135 0 0 -2.68751,2.68751 z"
       inkscape:path-effect="#path-effect11-7"
       inkscape:original-d="M 12.509766,12.228516 V 30.654297 H 30.933594 V 12.228516 Z m 20.652343,0.04687 V 30.701172 H 51.587891 V 12.275391 Z M 12.337891,33.220703 V 51.644531 H 30.761719 V 33.220703 Z m 20.824218,0.06445 V 51.708984 H 51.587891 V 33.285156 Z"
       transform="matrix(1.2505651,0,0,1.2505651,1.7865011,-0.0550149)" />
    <path
       id="rect1-3-2"
       style="mix-blend-mode:normal;fill:none;stroke:#000000;stroke-width:0.159928;stroke-dasharray:none;stroke-opacity:1;filter:url(#filter13)"
       d="m 12.509766,15.014904 v 12.853005 a 2.7863876,2.7863876 45 0 0 2.786388,2.786388 h 12.851052 a 2.7863876,2.7863876 135 0 0 2.786388,-2.786388 V 15.014904 A 2.7863876,2.7863876 45 0 0 28.147206,12.228516 H 15.296154 a 2.7863876,2.7863876 135 0 0 -2.786388,2.786388 z m 20.652343,0.04687 v 12.85301 a 2.7863876,2.7863876 45 0 0 2.786388,2.786388 h 12.853006 a 2.7863876,2.7863876 135 0 0 2.786388,-2.786388 V 15.061779 A 2.7863884,2.7863884 45.000008 0 0 48.801503,12.27539 l -12.853006,-3e-6 a 2.7863868,2.7863868 135.00001 0 0 -2.786388,2.786387 z M 12.337891,36.007091 v 12.851052 a 2.7863876,2.7863876 45 0 0 2.786388,2.786388 h 12.851052 a 2.7863876,2.7863876 135 0 0 2.786388,-2.786388 V 36.007091 A 2.7863876,2.7863876 45 0 0 27.975331,33.220703 H 15.124279 a 2.7863876,2.7863876 135 0 0 -2.786388,2.786388 z m 20.824218,0.06445 v 12.851055 a 2.7863876,2.7863876 45 0 0 2.786388,2.786388 h 12.853006 a 2.7863876,2.7863876 135 0 0 2.786388,-2.786388 V 36.071544 a 2.7863881,2.7863881 45.000005 0 0 -2.786388,-2.786388 l -12.853006,-3e-6 a 2.7863871,2.7863871 135 0 0 -2.786388,2.786388 z"
       inkscape:path-effect="#path-effect11-2-3"
       inkscape:original-d="M 12.509766,12.228516 V 30.654297 H 30.933594 V 12.228516 Z m 20.652343,0.04687 V 30.701172 H 51.587891 V 12.275391 Z M 12.337891,33.220703 V 51.644531 H 30.761719 V 33.220703 Z m 20.824218,0.06445 V 51.708984 H 51.587891 V 33.285156 Z"
       transform="matrix(1.2505651,0,0,1.2505651,1.8329083,-0.0303115)" />
  </g>
  <circle
     style="fill:url(#radialGradient13);stroke-width:0.555539"
     cx="52.834404"
     cy="52.812481"
     r="8.888628"
     id="circle8" />
  <path
     style="fill:#ffffff;stroke-width:0.555539"
     d="m 52.285518,56.796359 -2.114406,1.16874 a 0.42723546,0.42723546 35.165109 0 1 -0.628348,-0.442678 l 0.413006,-2.532638 a 1.2426373,1.2426373 72.481802 0 0 -0.337064,-1.067849 l -1.725294,-1.768081 a 0.45202862,0.45202862 108.50644 0 1 0.255236,-0.762534 l 2.349179,-0.359007 a 1.1753162,1.1753162 143.22638 0 0 0.886415,-0.662487 l 1.076404,-2.293542 a 0.41287495,0.41287495 6.4185254e-6 0 1 0.747519,0 l 1.076404,2.293542 a 1.1753158,1.1753158 36.77363 0 0 0.886415,0.662487 l 2.34918,0.359007 a 0.45202859,0.45202859 71.493562 0 1 0.255236,0.762534 l -1.725294,1.768081 a 1.2426373,1.2426373 107.5182 0 0 -0.337064,1.067849 l 0.413006,2.532638 A 0.42723546,0.42723546 144.83489 0 1 55.4977,57.965099 l -2.114406,-1.16874 a 1.1346143,1.1346143 0 0 0 -1.097776,0 z"
     id="path9"
     inkscape:path-effect="#path-effect10"
     inkscape:original-d="m 52.834406,56.49296 -3.433232,1.897723 0.655536,-4.019883 -2.777697,-2.846582 3.838776,-0.58665 1.716617,-3.657671 1.716616,3.657671 3.838777,0.58665 -2.777697,2.846582 0.655536,4.019883 z"
     transform="translate(0,-0.20388447)" />
  <circle
     style="fill:none;stroke-width:0.25600001;stroke:#000000;stroke-opacity:1;stroke-dasharray:none;filter:url(#filter16)"
     cx="52.754398"
     cy="52.73933"
     r="8.888628"
     id="circle8-5" />
  <path
     style="fill:none;stroke-width:0.25600001;stroke:#ff0026;stroke-opacity:1;stroke-dasharray:none;filter:url(#filter15)"
     d="m 52.285518,56.796359 -2.114406,1.16874 a 0.42723546,0.42723546 35.165109 0 1 -0.628348,-0.442678 l 0.413006,-2.532638 a 1.2426373,1.2426373 72.481802 0 0 -0.337064,-1.067849 l -1.725294,-1.768081 a 0.45202862,0.45202862 108.50644 0 1 0.255236,-0.762534 l 2.349179,-0.359007 a 1.1753162,1.1753162 143.22638 0 0 0.886415,-0.662487 l 1.076404,-2.293542 a 0.41287495,0.41287495 6.4185254e-6 0 1 0.747519,0 l 1.076404,2.293542 a 1.1753158,1.1753158 36.77363 0 0 0.886415,0.662487 l 2.34918,0.359007 a 0.45202859,0.45202859 71.493562 0 1 0.255236,0.762534 l -1.725294,1.768081 a 1.2426373,1.2426373 107.5182 0 0 -0.337064,1.067849 l 0.413006,2.532638 A 0.42723546,0.42723546 144.83489 0 1 55.4977,57.965099 l -2.114406,-1.16874 a 1.1346143,1.1346143 0 0 0 -1.097776,0 z"
     id="path9-6"
     inkscape:path-effect="#path-effect10-3"
     inkscape:original-d="m 52.834406,56.49296 -3.433232,1.897723 0.655536,-4.019883 -2.777697,-2.846582 3.838776,-0.58665 1.716617,-3.657671 1.716616,3.657671 3.838777,0.58665 -2.777697,2.846582 0.655536,4.019883 z"
     transform="translate(-0.08000541,-0.27703655)" />
</svg>
