<?xml version="1.0" encoding="UTF-8" standalone="no"?>
<svg
   width="64"
   height="64"
   version="1"
   id="svg10"
   sodipodi:docname="woeusbgui-icon.svg"
   inkscape:version="1.4.2 (ebf0e940d0, 2025-05-08)"
   xmlns:inkscape="http://www.inkscape.org/namespaces/inkscape"
   xmlns:sodipodi="http://sodipodi.sourceforge.net/DTD/sodipodi-0.dtd"
   xmlns:xlink="http://www.w3.org/1999/xlink"
   xmlns="http://www.w3.org/2000/svg"
   xmlns:svg="http://www.w3.org/2000/svg">
  <defs
     id="defs10">
    <inkscape:path-effect
       effect="fillet_chamfer"
       id="path-effect3"
       is_visible="true"
       lpeversion="1"
       nodesatellites_param="F,0,1,1,0,1.1149572,0,1 @ F,0,1,1,0,1.1149572,0,1 @ F,0,1,1,0,1.1149572,0,1 @ F,0,1,1,0,1.1149572,0,1"
       radius="0"
       unit="px"
       method="auto"
       mode="F"
       chamfer_steps="1"
       flexible="false"
       use_knot_distance="true"
       apply_no_radius="true"
       apply_with_radius="true"
       only_selected="false"
       hide_knots="false" />
    <linearGradient
       id="linearGradient1"
       inkscape:collect="always">
      <stop
         style="stop-color:#00cfff;stop-opacity:1;"
         offset="0"
         id="stop1" />
      <stop
         style="stop-color:#0089ff;stop-opacity:1;"
         offset="1"
         id="stop2" />
    </linearGradient>
    <inkscape:path-effect
       effect="fillet_chamfer"
       id="path-effect9"
       is_visible="true"
       lpeversion="1"
       nodesatellites_param="F,0,1,1,0,5.2514818,0,1 @ F,0,0,1,0,5.2514818,0,1 @ F,0,0,1,0,0,0,1 @ F,0,0,1,0,0,0,1"
       radius="0"
       unit="px"
       method="auto"
       mode="F"
       chamfer_steps="1"
       flexible="false"
       use_knot_distance="true"
       apply_no_radius="true"
       apply_with_radius="true"
       only_selected="false"
       hide_knots="false" />
    <radialGradient
       inkscape:collect="always"
       xlink:href="#linearGradient6"
       id="radialGradient9"
       cx="3.6037257"
       cy="69.383522"
       fx="3.6037257"
       fy="69.383522"
       r="28"
       gradientTransform="matrix(3.6631184,0,0,2.2240362,-6.5626654,-96.078611)"
       gradientUnits="userSpaceOnUse" />
    <linearGradient
       id="linearGradient6"
       inkscape:collect="always">
      <stop
         style="stop-color:#2f2f2f;stop-opacity:1;"
         offset="0"
         id="stop6" />
      <stop
         style="stop-color:#686868;stop-opacity:1;"
         offset="1"
         id="stop7-3" />
    </linearGradient>
    <inkscape:path-effect
       effect="fillet_chamfer"
       id="path-effect10"
       is_visible="true"
       lpeversion="1"
       nodesatellites_param="F,0,1,1,0,1.1149572,0,1 @ F,0,1,1,0,1.1149572,0,1 @ F,0,1,1,0,1.1149572,0,1 @ F,0,1,1,0,1.1149572,0,1"
       radius="0"
       unit="px"
       method="auto"
       mode="F"
       chamfer_steps="1"
       flexible="false"
       use_knot_distance="true"
       apply_no_radius="true"
       apply_with_radius="true"
       only_selected="false"
       hide_knots="false" />
    <radialGradient
       inkscape:collect="always"
       xlink:href="#linearGradient1"
       id="radialGradient2"
       cx="0.47290641"
       cy="62.753696"
       fx="0.47290641"
       fy="62.753696"
       r="11.310345"
       gradientUnits="userSpaceOnUse"
       gradientTransform="matrix(7.6550523,0,0,7.6550523,-3.1472169,-417.62913)" />
    <inkscape:path-effect
       effect="fillet_chamfer"
       id="path-effect10-7"
       is_visible="true"
       lpeversion="1"
       nodesatellites_param="F,0,1,1,0,1.1149572,0,1 @ F,0,1,1,0,1.1149572,0,1 @ F,0,1,1,0,1.1149572,0,1 @ F,0,1,1,0,1.1149572,0,1"
       radius="0"
       unit="px"
       method="auto"
       mode="F"
       chamfer_steps="1"
       flexible="false"
       use_knot_distance="true"
       apply_no_radius="true"
       apply_with_radius="true"
       only_selected="false"
       hide_knots="false" />
    <inkscape:path-effect
       effect="fillet_chamfer"
       id="path-effect9-5"
       is_visible="true"
       lpeversion="1"
       nodesatellites_param="F,0,1,1,0,5.2514818,0,1 @ F,0,0,1,0,5.2514818,0,1 @ F,0,0,1,0,0,0,1 @ F,0,0,1,0,0,0,1"
       radius="0"
       unit="px"
       method="auto"
       mode="F"
       chamfer_steps="1"
       flexible="false"
       use_knot_distance="true"
       apply_no_radius="true"
       apply_with_radius="true"
       only_selected="false"
       hide_knots="false" />
    <inkscape:path-effect
       effect="fillet_chamfer"
       id="path-effect10-6"
       is_visible="true"
       lpeversion="1"
       nodesatellites_param="F,0,1,1,0,1.1149572,0,1 @ F,0,1,1,0,1.1149572,0,1 @ F,0,1,1,0,1.1149572,0,1 @ F,0,1,1,0,1.1149572,0,1"
       radius="0"
       unit="px"
       method="auto"
       mode="F"
       chamfer_steps="1"
       flexible="false"
       use_knot_distance="true"
       apply_no_radius="true"
       apply_with_radius="true"
       only_selected="false"
       hide_knots="false" />
    <inkscape:path-effect
       effect="fillet_chamfer"
       id="path-effect10-7-2"
       is_visible="true"
       lpeversion="1"
       nodesatellites_param="F,0,1,1,0,1.1149572,0,1 @ F,0,1,1,0,1.1149572,0,1 @ F,0,1,1,0,1.1149572,0,1 @ F,0,1,1,0,1.1149572,0,1"
       radius="0"
       unit="px"
       method="auto"
       mode="F"
       chamfer_steps="1"
       flexible="false"
       use_knot_distance="true"
       apply_no_radius="true"
       apply_with_radius="true"
       only_selected="false"
       hide_knots="false" />
    <filter
       inkscape:collect="always"
       style="color-interpolation-filters:sRGB"
       id="filter12"
       x="-0.098247132"
       y="-0.090763119"
       width="1.1964943"
       height="1.1815262">
      <feGaussianBlur
         inkscape:collect="always"
         stdDeviation="2.00235"
         id="feGaussianBlur12" />
    </filter>
  </defs>
  <sodipodi:namedview
     id="namedview10"
     pagecolor="#ffffff"
     bordercolor="#000000"
     borderopacity="0.25"
     inkscape:showpageshadow="2"
     inkscape:pageopacity="0.0"
     inkscape:pagecheckerboard="0"
     inkscape:deskcolor="#d1d1d1"
     inkscape:zoom="12.6875"
     inkscape:cx="33.891626"
     inkscape:cy="33.064039"
     inkscape:window-width="2540"
     inkscape:window-height="1377"
     inkscape:window-x="0"
     inkscape:window-y="0"
     inkscape:window-maximized="0"
     inkscape:current-layer="svg10" />
  <g
     id="g4"
     transform="translate(0,1.0246306)">
    <g
       id="g3"
       transform="translate(0.06896625,-2.0492611)">
      <path
         id="rect2"
         style="fill:#b4b4b4;fill-opacity:1"
         d="M 17.251482,6 H 46.748518 A 5.2514818,5.2514818 45 0 1 52,11.251482 v 19.5564 H 12 v -19.5564 A 5.2514818,5.2514818 135 0 1 17.251482,6 Z"
         inkscape:path-effect="#path-effect9"
         inkscape:original-d="M 12,6 H 52 V 30.807882 H 12 Z"
         transform="translate(-0.06896625)"
         sodipodi:nodetypes="ccccc" />
      <path
         style="opacity:0.450368;fill:#000000;fill-opacity:1"
         inkscape:path-effect="#path-effect10"
         inkscape:original-d="M 16,9.2304688 V 15.230469 H 26 V 9.2304688 Z"
         transform="matrix(1.2968801,0,0,1.2968801,-4.7352197,-2.091098)"
         d="m 16,10.345426 v 3.770086 a 1.1149572,1.1149572 45 0 0 1.114957,1.114957 l 7.770086,0 A 1.1149572,1.1149572 135 0 0 26,14.115512 l 0,-3.770086 A 1.1149572,1.1149572 45 0 0 24.885043,9.2304688 H 17.114957 A 1.1149572,1.1149572 135 0 0 16,10.345426 Z"
         id="rect7-6" />
      <path
         style="opacity:0.450368;fill:#000000;fill-opacity:1"
         inkscape:path-effect="#path-effect10-7"
         inkscape:original-d="M 16,9.2304688 V 15.230469 H 26 V 9.2304688 Z"
         transform="matrix(1.2968801,0,0,1.2968801,14.128323,-2.0122803)"
         d="m 16,10.345426 v 3.770086 a 1.1149572,1.1149572 45 0 0 1.114957,1.114957 l 7.770086,0 A 1.1149572,1.1149572 135 0 0 26,14.115512 l 0,-3.770086 A 1.1149572,1.1149572 45 0 0 24.885043,9.2304688 H 17.114957 A 1.1149572,1.1149572 135 0 0 16,10.345426 Z"
         id="rect7-6-3" />
    </g>
    <rect
       style="fill:url(#radialGradient9)"
       width="49.931034"
       height="34"
       x="7.034483"
       y="24"
       rx="7.8817735"
       ry="7.8817735"
       id="rect3" />
    <path
       id="path7"
       style="opacity:1;fill:url(#radialGradient2);fill-opacity:1;stroke-width:1.41379"
       d="m 21.396552,29.689655 c -0.391607,0 -0.706897,0.31529 -0.706897,0.706897 v 8.482758 c 0,0.390914 0.31529,0.706897 0.706897,0.706897 h 8.482758 c 0.390914,0 0.706897,-0.315983 0.706897,-0.706897 v -8.482758 c 0,-0.391607 -0.315983,-0.706897 -0.706897,-0.706897 z m 12.724138,0 c -0.391611,0 -0.706897,0.315268 -0.706897,0.706897 v 8.482758 c 0,0.390927 0.315007,0.706897 0.706897,0.706897 h 8.482758 c 0.3909,0 0.706897,-0.31597 0.706897,-0.706897 v -8.482758 c 0,-0.391618 -0.315007,-0.706897 -0.706897,-0.706897 z M 21.396552,42.413793 c -0.391607,0 -0.706897,0.31529 -0.706897,0.706897 v 8.482758 c 0,0.390913 0.31529,0.706897 0.706897,0.706897 h 8.482758 c 0.390914,0 0.706897,-0.315984 0.706897,-0.706897 V 43.12069 c 0,-0.391605 -0.315983,-0.706897 -0.706897,-0.706897 z m 12.724138,0 c -0.391611,0 -0.706897,0.315267 -0.706897,0.706897 v 8.482758 c 0,0.390927 0.315007,0.706897 0.706897,0.706897 h 8.482758 c 0.3909,0 0.706897,-0.31597 0.706897,-0.706897 V 43.12069 c 0,-0.39162 -0.315007,-0.706897 -0.706897,-0.706897 z" />
  </g>
  <g
     id="g12"
     style="mix-blend-mode:normal;stroke-width:0.2;stroke-dasharray:none;filter:url(#filter12)"
     transform="translate(-52.81738,0.27050977)">
    <path
       d="m 70.068359,4.7050781 a 5.2514818,5.2514818 0 0 0 -5.25,5.25 V 25.306641 c 0.901191,-0.356889 1.884899,-0.552735 2.916016,-0.552735 h 34.167965 c 1.03123,0 2.01492,0.195777 2.91602,0.552735 V 9.9550781 a 5.2514818,5.2514818 0 0 0 -5.251954,-5.25 z m 0.279297,3.8789063 h 10.076172 a 1.4459658,1.4459658 0 0 1 1.447266,1.4453126 v 4.890625 a 1.4459658,1.4459658 0 0 1 -1.447266,1.445312 H 70.347656 a 1.4459658,1.4459658 0 0 1 -1.445312,-1.445312 v -4.890625 a 1.4459658,1.4459658 0 0 1 1.445312,-1.4453126 z m 18.863281,0.078125 h 10.076172 a 1.4459658,1.4459658 0 0 1 1.447271,1.4472656 v 4.888672 a 1.4459658,1.4459658 0 0 1 -1.447271,1.445312 H 89.210937 a 1.4459658,1.4459658 0 0 1 -1.445312,-1.445312 v -4.888672 a 1.4459658,1.4459658 0 0 1 1.445312,-1.4472656 z"
       style="fill:none;stroke:#000000;stroke-width:0.2;stroke-dasharray:none;stroke-opacity:1"
       id="path10" />
    <path
       d="m 67.734375,24.753906 c -4.366503,0 -7.882813,3.514357 -7.882813,7.88086 v 18.236328 c 0,4.366502 3.51631,7.882812 7.882813,7.882812 h 34.167965 c 4.36651,0 7.88086,-3.51631 7.88086,-7.882812 V 32.634766 c 0,-4.366503 -3.51435,-7.88086 -7.88086,-7.88086 z m 6.480469,5.689453 h 8.482422 c 0.390914,0 0.707031,0.315425 0.707031,0.707032 v 8.482421 c 0,0.390914 -0.316117,0.707032 -0.707031,0.707032 h -8.482422 c -0.391607,0 -0.707032,-0.316117 -0.707032,-0.707032 v -8.482421 c 0,-0.391607 0.315425,-0.707032 0.707032,-0.707032 z m 12.722656,0 h 8.484375 c 0.39189,0 0.707031,0.315414 0.707031,0.707032 v 8.482421 c 0,0.390928 -0.316131,0.707032 -0.707031,0.707032 H 86.9375 c -0.39189,0 -0.705078,-0.316105 -0.705078,-0.707032 v -8.482421 c 0,-0.391629 0.313467,-0.707032 0.705078,-0.707032 z m -12.722656,12.72461 h 8.482422 c 0.390914,0 0.707031,0.315426 0.707031,0.707031 v 8.482422 c 0,0.390913 -0.316117,0.707031 -0.707031,0.707031 h -8.482422 c -0.391607,0 -0.707032,-0.316118 -0.707032,-0.707031 V 43.875 c 0,-0.391607 0.315425,-0.707031 0.707032,-0.707031 z m 12.722656,0 h 8.484375 c 0.39189,0 0.707031,0.315411 0.707031,0.707031 v 8.482422 c 0,0.390927 -0.316131,0.707031 -0.707031,0.707031 H 86.9375 c -0.39189,0 -0.705078,-0.316104 -0.705078,-0.707031 V 43.875 c 0,-0.39163 0.313467,-0.707031 0.705078,-0.707031 z"
       style="fill:none;stroke:#000000;stroke-width:0.2;stroke-dasharray:none;stroke-opacity:1"
       id="path6" />
  </g>
</svg>
