<?xml version="1.0" encoding="UTF-8" standalone="no"?>
<svg
   width="64"
   height="64"
   version="1"
   id="svg5"
   sodipodi:docname="xfce4-fsguard-plugin-warning.svg"
   inkscape:version="1.4.2 (ebf0e940d0, 2025-05-08)"
   xmlns:inkscape="http://www.inkscape.org/namespaces/inkscape"
   xmlns:sodipodi="http://sodipodi.sourceforge.net/DTD/sodipodi-0.dtd"
   xmlns:xlink="http://www.w3.org/1999/xlink"
   xmlns="http://www.w3.org/2000/svg"
   xmlns:svg="http://www.w3.org/2000/svg">
  <defs
     id="defs5">
    <filter
       inkscape:collect="always"
       style="color-interpolation-filters:sRGB"
       id="filter6"
       x="-0.23583584"
       y="-0.23581468"
       width="1.4716717"
       height="1.4716294">
      <feGaussianBlur
         inkscape:collect="always"
         stdDeviation="2.0628166"
         id="feGaussianBlur6" />
    </filter>
    <inkscape:path-effect
       effect="fillet_chamfer"
       id="path-effect5"
       is_visible="true"
       lpeversion="1"
       nodesatellites_param="F,0,0,1,0,0,0,1 @ F,0,0,1,0,0,0,1 @ F,0,0,1,0,0,0,1 @ F,0,0,1,0,0,0,1 | F,0,1,1,0,2.0404963,0,1 @ F,0,1,1,0,2.0404963,0,1 @ F,0,1,1,0,2.0404963,0,1 @ F,0,1,1,0,2.0404963,0,1 | F,0,1,1,0,2.0404963,0,1 @ F,0,1,1,0,2.0404963,0,1 @ F,0,0,1,0,2.0404963,0,1 @ F,0,1,1,0,2.0404963,0,1"
       radius="0"
       unit="px"
       method="auto"
       mode="F"
       chamfer_steps="1"
       flexible="false"
       use_knot_distance="true"
       apply_no_radius="true"
       apply_with_radius="true"
       only_selected="false"
       hide_knots="false" />
    <inkscape:path-effect
       effect="fillet_chamfer"
       id="path-effect1"
       is_visible="true"
       lpeversion="1"
       nodesatellites_param="F,0,0,1,0,0,0,1 @ F,0,0,1,0,0,0,1 @ F,0,0,1,0,0,0,1 @ F,0,0,1,0,0,0,1 | F,0,1,1,0,2.0404963,0,1 @ F,0,1,1,0,2.0404963,0,1 @ F,0,1,1,0,2.0404963,0,1 @ F,0,1,1,0,2.0404963,0,1 | F,0,1,1,0,2.0404963,0,1 @ F,0,1,1,0,2.0404963,0,1 @ F,0,0,1,0,2.0404963,0,1 @ F,0,1,1,0,2.0404963,0,1"
       radius="0"
       unit="px"
       method="auto"
       mode="F"
       chamfer_steps="1"
       flexible="false"
       use_knot_distance="true"
       apply_no_radius="true"
       apply_with_radius="true"
       only_selected="false"
       hide_knots="false" />
    <radialGradient
       inkscape:collect="always"
       xlink:href="#linearGradient4"
       id="radialGradient5"
       cx="-54.994705"
       cy="-7.5219774"
       fx="-54.994705"
       fy="-7.5219774"
       r="28"
       gradientTransform="matrix(1.3034314,1.0628165,-1.5994176,1.9615155,5.5090325,59.723295)"
       gradientUnits="userSpaceOnUse" />
    <linearGradient
       id="linearGradient4"
       inkscape:collect="always">
      <stop
         style="stop-color:#8e8e8e;stop-opacity:1;"
         offset="0"
         id="stop4-7" />
      <stop
         style="stop-color:#5f5f5f;stop-opacity:1;"
         offset="1"
         id="stop5-9" />
    </linearGradient>
    <filter
       inkscape:collect="always"
       style="color-interpolation-filters:sRGB"
       id="filter9"
       x="-0.09108572"
       y="-0.11592728"
       width="1.1821714"
       height="1.2318546">
      <feGaussianBlur
         inkscape:collect="always"
         stdDeviation="2.0836667"
         id="feGaussianBlur9" />
    </filter>
    <inkscape:path-effect
       effect="fillet_chamfer"
       id="path-effect4"
       is_visible="true"
       lpeversion="1"
       nodesatellites_param="F,0,0,1,0,0,0,1 @ F,0,0,1,0,0,0,1 @ F,0,0,1,0,2.2021103,0,1 @ F,0,0,1,0,0,0,1 @ F,0,0,1,0,0,0,1 | F,0,0,1,0,0,0,1 @ F,0,0,1,0,0,0,1 @ F,0,0,1,0,0,0,1 @ F,0,0,1,0,0,0,1"
       radius="0"
       unit="px"
       method="auto"
       mode="F"
       chamfer_steps="1"
       flexible="false"
       use_knot_distance="true"
       apply_no_radius="true"
       apply_with_radius="true"
       only_selected="false"
       hide_knots="false" />
    <filter
       inkscape:collect="always"
       style="color-interpolation-filters:sRGB"
       id="filter5"
       x="-0.15535823"
       y="-0.15535823"
       width="1.3107165"
       height="1.3107165">
      <feGaussianBlur
         inkscape:collect="always"
         stdDeviation="1.7394041"
         id="feGaussianBlur5" />
    </filter>
    <inkscape:path-effect
       effect="fillet_chamfer"
       id="path-effect3"
       is_visible="true"
       lpeversion="1"
       nodesatellites_param="F,0,0,1,0,0,0,1 @ F,0,0,1,0,0,0,1 @ F,0,0,1,0,3.2559444,0,1 @ F,0,0,1,0,0,0,1 @ F,0,0,1,0,0,0,1 | F,0,0,1,0,0,0,1 @ F,0,0,1,0,0,0,1 @ F,0,0,1,0,0,0,1 @ F,0,0,1,0,0,0,1"
       radius="0"
       unit="px"
       method="auto"
       mode="F"
       chamfer_steps="1"
       flexible="false"
       use_knot_distance="true"
       apply_no_radius="true"
       apply_with_radius="true"
       only_selected="false"
       hide_knots="false" />
  </defs>
  <sodipodi:namedview
     id="namedview5"
     pagecolor="#ffffff"
     bordercolor="#000000"
     borderopacity="0.25"
     inkscape:showpageshadow="2"
     inkscape:pageopacity="0.0"
     inkscape:pagecheckerboard="0"
     inkscape:deskcolor="#d1d1d1"
     inkscape:zoom="19.5"
     inkscape:cx="32"
     inkscape:cy="32"
     inkscape:current-layer="svg5" />
  <rect
     style="fill:url(#radialGradient5);stroke-width:0.962918"
     width="53.923393"
     height="42.368382"
     x="-58.961697"
     y="-53.184189"
     rx="9.5455742"
     ry="9.5455742"
     transform="matrix(0,-1,-1,0,0,0)"
     id="rect2" />
  <rect
     style="mix-blend-mode:normal;fill:none;stroke:#000000;stroke-width:0.2;stroke-dasharray:none;stroke-opacity:1;filter:url(#filter9)"
     width="56"
     height="44"
     x="-60"
     y="-54"
     rx="9.9131765"
     ry="9.9131765"
     transform="matrix(0,-0.96291776,-0.96291776,0,1.1866317,1.1866317)"
     id="rect2-6" />
  <path
     style="opacity:0.383514;stroke-width:0.854892"
     d="m 31.977608,9.7215873 c -6.610027,0 -11.968492,5.3584647 -11.968492,11.9684917 v 9.766382 a 2.2021103,2.2021103 45 0 0 2.20211,2.20211 h 9.766382 c 6.610027,0 11.968492,-5.358465 11.968492,-11.968492 0,-6.610027 -5.358465,-11.9684917 -11.968492,-11.9684917 z m 0,6.8391377 c 2.832864,0 5.129354,2.29649 5.129354,5.129354 0,2.832864 -2.29649,5.129354 -5.129354,5.129354 -2.832864,0 -5.129354,-2.29649 -5.129354,-5.129354 0,-2.832864 2.29649,-5.129354 5.129354,-5.129354 z"
     id="path2"
     inkscape:path-effect="#path-effect4"
     inkscape:original-d="m 31.977608,9.7215873 c -6.610027,0 -11.968492,5.3584647 -11.968492,11.9684917 v 11.968492 h 11.968492 c 6.610027,0 11.968492,-5.358465 11.968492,-11.968492 0,-6.610027 -5.358465,-11.9684917 -11.968492,-11.9684917 z m 0,6.8391377 a 5.1293537,5.1293537 0 0 1 5.129354,5.129354 5.1293537,5.1293537 0 0 1 -5.129354,5.129354 5.1293537,5.1293537 0 0 1 -5.129354,-5.129354 5.1293537,5.1293537 0 0 1 5.129354,-5.129354 z"
     transform="matrix(0.96291776,0,0,0.96291776,1.2081934,0.47740378)" />
  <path
     style="mix-blend-mode:normal;fill:none;fill-opacity:1;stroke:#000000;stroke-width:0.350921;stroke-dasharray:none;stroke-opacity:1;filter:url(#filter5)"
     d="m 31.845693,12.381647 c -7.732,0 -14,6.268 -14,14 v 10.744056 a 3.2559444,3.2559444 45 0 0 3.255944,3.255944 h 10.744056 c 7.732,0 14,-6.268 14,-14 0,-7.732 -6.268,-14 -14,-14 z m 0,8 c 3.313708,0 6,2.686292 6,6 0,3.313708 -2.686292,6 -6,6 -3.313708,0 -6,-2.686292 -6,-6 0,-3.313708 2.686292,-6 6,-6 z"
     id="path2-3"
     transform="matrix(0.82319097,0,0,0.82319097,5.7849132,-0.35396747)"
     inkscape:path-effect="#path-effect3"
     inkscape:original-d="m 31.845693,12.381647 c -7.732,0 -14,6.268 -14,14 v 14 h 14 c 7.732,0 14,-6.268 14,-14 0,-7.732 -6.268,-14 -14,-14 z m 0,8 a 6,6 0 0 1 6,6 6,6 0 0 1 -6,6 6,6 0 0 1 -6,-6 6,6 0 0 1 6,-6 z" />
  <path
     id="circle8"
     style="opacity:0.38;fill:#000000;fill-opacity:1;stroke-width:0.680438"
     class="st3"
     d="m 32.695312,35.125 c -6.012503,1.58e-4 -10.88656,4.874216 -10.886718,10.886719 -9.21e-4,6.013266 4.873452,10.888514 10.886718,10.888672 6.013266,-1.58e-4 10.88764,-4.875406 10.886719,-10.888672 C 43.581873,39.999216 38.707815,35.125158 32.695312,35.125 Z m -5.19e-4,4.083984 h 0.001 a 2.0404963,2.0404963 45 0 1 2.040496,2.040496 v 0.001 a 2.0404963,2.0404963 135 0 1 -2.040496,2.040496 h -0.001 A 2.0404963,2.0404963 45 0 1 30.654297,41.25052 v -0.001 a 2.0404963,2.0404963 135 0 1 2.040496,-2.040496 z m 0,5.44336 h 0.001 a 2.0404963,2.0404963 45 0 1 2.040496,2.040496 v 4.08307 a 2.0404963,2.0404963 135 0 1 -2.040496,2.040496 h -0.001 A 2.0404963,2.0404963 45 0 1 30.654297,50.77591 v -4.08307 a 2.0404963,2.0404963 135 0 1 2.040496,-2.040496 z"
     inkscape:path-effect="#path-effect1"
     inkscape:original-d="M 32.695312,35.125 A 10.887005,10.887005 0 0 0 21.808594,46.011719 10.887005,10.887005 0 0 0 32.695312,56.900391 10.887005,10.887005 0 0 0 43.582031,46.011719 10.887005,10.887005 0 0 0 32.695312,35.125 Z m -2.041015,4.083984 h 4.082031 v 4.082032 h -4.082031 z m 0,5.44336 h 4.082031 v 8.164062 h -4.082031 z"
     transform="matrix(0.81434504,0,0,-0.81434504,6.070047,83.482904)" />
  <path
     id="path1"
     style="fill:none;fill-opacity:1;stroke:#000000;stroke-width:0.368394;stroke-dasharray:none;stroke-opacity:1;filter:url(#filter6)"
     class="st3"
     d="m 32.695312,35.125 c -6.012503,1.58e-4 -10.88656,4.874216 -10.886718,10.886719 -9.21e-4,6.013266 4.873452,10.888514 10.886718,10.888672 6.013266,-1.58e-4 10.88764,-4.875406 10.886719,-10.888672 C 43.581873,39.999216 38.707815,35.125158 32.695312,35.125 Z m -5.19e-4,4.083984 h 0.001 a 2.0404963,2.0404963 45 0 1 2.040496,2.040496 v 0.001 a 2.0404963,2.0404963 135 0 1 -2.040496,2.040496 h -0.001 A 2.0404963,2.0404963 45 0 1 30.654297,41.25052 v -0.001 a 2.0404963,2.0404963 135 0 1 2.040496,-2.040496 z m 0,5.44336 h 0.001 a 2.0404963,2.0404963 45 0 1 2.040496,2.040496 v 4.08307 a 2.0404963,2.0404963 135 0 1 -2.040496,2.040496 h -0.001 A 2.0404963,2.0404963 45 0 1 30.654297,50.77591 v -4.08307 a 2.0404963,2.0404963 135 0 1 2.040496,-2.040496 z"
     inkscape:path-effect="#path-effect5"
     inkscape:original-d="M 32.695312,35.125 A 10.887005,10.887005 0 0 0 21.808594,46.011719 10.887005,10.887005 0 0 0 32.695312,56.900391 10.887005,10.887005 0 0 0 43.582031,46.011719 10.887005,10.887005 0 0 0 32.695312,35.125 Z m -2.041015,4.083984 h 4.082031 v 4.082032 h -4.082031 z m 0,5.44336 h 4.082031 v 8.164062 h -4.082031 z"
     transform="matrix(0.81434504,0,0,-0.81434504,6.070047,83.482904)" />
</svg>
