<?xml version="1.0" encoding="UTF-8" standalone="no"?>
<svg
   width="64"
   height="64"
   version="1"
   id="svg11"
   sodipodi:docname="aafm.svg"
   inkscape:version="1.4.2 (ebf0e940d0, 2025-05-08)"
   xmlns:inkscape="http://www.inkscape.org/namespaces/inkscape"
   xmlns:sodipodi="http://sodipodi.sourceforge.net/DTD/sodipodi-0.dtd"
   xmlns:xlink="http://www.w3.org/1999/xlink"
   xmlns="http://www.w3.org/2000/svg"
   xmlns:svg="http://www.w3.org/2000/svg">
  <defs
     id="defs11">
    <inkscape:path-effect
       effect="fillet_chamfer"
       id="path-effect2"
       is_visible="true"
       lpeversion="1"
       nodesatellites_param="F,0,1,1,0,3.9214112,0,1 @ F,0,0,1,0,3.9214112,0,1 @ F,0,1,1,0,3.9214112,0,1 @ F,0,1,1,0,3.9214112,0,1"
       radius="0"
       unit="px"
       method="auto"
       mode="F"
       chamfer_steps="1"
       flexible="false"
       use_knot_distance="true"
       apply_no_radius="true"
       apply_with_radius="true"
       only_selected="false"
       hide_knots="false" />
    <inkscape:path-effect
       effect="fillet_chamfer"
       id="path-effect1"
       is_visible="true"
       lpeversion="1"
       nodesatellites_param="F,0,0,1,0,0,0,1 @ F,0,0,1,0,0,0,1 @ F,0,0,1,0,0,0,1 @ F,0,1,1,0,1.8201961,0,1 @ F,0,0,1,0,0,0,1 @ F,0,0,1,0,0,0,1 @ F,0,0,1,0,1.8201961,0,1 @ F,0,0,1,0,0,0,1 @ F,0,0,1,0,0,0,1 @ F,0,0,1,0,0,0,1 @ F,0,1,1,0,1.8201961,0,1 @ F,0,0,1,0,0,0,1 @ F,0,1,1,0,1.8201961,0,1 @ F,0,0,1,0,0,0,1 @ F,0,0,1,0,0,0,1 @ F,0,0,1,0,0,0,1 | F,0,0,1,0,0,0,1 @ F,0,0,1,0,0,0,1 @ F,0,0,1,0,0,0,1 @ F,0,0,1,0,0,0,1 | F,0,0,1,0,0,0,1 @ F,0,0,1,0,0,0,1 @ F,0,0,1,0,0,0,1 @ F,0,0,1,0,0,0,1"
       radius="0"
       unit="px"
       method="auto"
       mode="F"
       chamfer_steps="1"
       flexible="false"
       use_knot_distance="true"
       apply_no_radius="true"
       apply_with_radius="true"
       only_selected="false"
       hide_knots="false" />
    <inkscape:path-effect
       effect="fillet_chamfer"
       id="path-effect11"
       is_visible="true"
       lpeversion="1"
       nodesatellites_param="F,0,0,1,0,0,0,1 @ F,0,0,1,0,0,0,1 @ F,0,0,1,0,0,0,1 @ F,0,0,1,0,0,0,1 @ F,0,0,1,0,0,0,1 @ F,0,0,1,0,0,0,1 @ F,0,0,1,0,0,0,1 @ F,0,1,1,0,1.3356823,0,1 @ F,0,1,1,0,1.3356823,0,1 @ F,0,0,1,0,0,0,1"
       radius="0"
       unit="px"
       method="auto"
       mode="F"
       chamfer_steps="1"
       flexible="false"
       use_knot_distance="true"
       apply_no_radius="true"
       apply_with_radius="true"
       only_selected="false"
       hide_knots="false" />
    <inkscape:path-effect
       effect="fillet_chamfer"
       id="path-effect11-7"
       is_visible="true"
       lpeversion="1"
       nodesatellites_param="F,0,0,1,0,0,0,1 @ F,0,0,1,0,0,0,1 @ F,0,0,1,0,0,0,1 @ F,0,0,1,0,0,0,1 @ F,0,0,1,0,0,0,1 @ F,0,0,1,0,0,0,1 @ F,0,0,1,0,0,0,1 @ F,0,0,1,0,1.9899551,0,1 @ F,0,1,1,0,1.9899551,0,1 @ F,0,0,1,0,0,0,1"
       radius="0"
       unit="px"
       method="auto"
       mode="F"
       chamfer_steps="1"
       flexible="false"
       use_knot_distance="true"
       apply_no_radius="true"
       apply_with_radius="true"
       only_selected="false"
       hide_knots="false" />
    <inkscape:path-effect
       effect="fillet_chamfer"
       id="path-effect11-5"
       is_visible="true"
       lpeversion="1"
       nodesatellites_param="F,0,0,1,0,0,0,1 @ F,0,0,1,0,0,0,1 @ F,0,0,1,0,0,0,1 @ F,0,0,1,0,0,0,1 @ F,0,0,1,0,0,0,1 @ F,0,0,1,0,0,0,1 @ F,0,0,1,0,0,0,1 @ F,0,0,1,0,1.0275119,0,1 @ F,0,1,1,0,1.0275119,0,1 @ F,0,0,1,0,0,0,1"
       radius="0"
       unit="px"
       method="auto"
       mode="F"
       chamfer_steps="1"
       flexible="false"
       use_knot_distance="true"
       apply_no_radius="true"
       apply_with_radius="true"
       only_selected="false"
       hide_knots="false" />
    <inkscape:path-effect
       effect="fillet_chamfer"
       id="path-effect1-3"
       is_visible="true"
       lpeversion="1"
       nodesatellites_param="F,0,0,1,0,0,0,1 @ F,0,0,1,0,0,0,1 @ F,0,0,1,0,0,0,1 @ F,0,1,1,0,1.8201961,0,1 @ F,0,0,1,0,0,0,1 @ F,0,0,1,0,0,0,1 @ F,0,0,1,0,1.8201961,0,1 @ F,0,0,1,0,0,0,1 @ F,0,0,1,0,0,0,1 @ F,0,0,1,0,0,0,1 @ F,0,1,1,0,1.8201961,0,1 @ F,0,0,1,0,0,0,1 @ F,0,1,1,0,1.8201961,0,1 @ F,0,0,1,0,0,0,1 @ F,0,0,1,0,0,0,1 @ F,0,0,1,0,0,0,1 | F,0,0,1,0,0,0,1 @ F,0,0,1,0,0,0,1 @ F,0,0,1,0,0,0,1 @ F,0,0,1,0,0,0,1 | F,0,0,1,0,0,0,1 @ F,0,0,1,0,0,0,1 @ F,0,0,1,0,0,0,1 @ F,0,0,1,0,0,0,1"
       radius="0"
       unit="px"
       method="auto"
       mode="F"
       chamfer_steps="1"
       flexible="false"
       use_knot_distance="true"
       apply_no_radius="true"
       apply_with_radius="true"
       only_selected="false"
       hide_knots="false" />
    <inkscape:path-effect
       effect="fillet_chamfer"
       id="path-effect11-5-3"
       is_visible="true"
       lpeversion="1"
       nodesatellites_param="F,0,0,1,0,0,0,1 @ F,0,0,1,0,0,0,1 @ F,0,0,1,0,0,0,1 @ F,0,0,1,0,0,0,1 @ F,0,0,1,0,0,0,1 @ F,0,0,1,0,0,0,1 @ F,0,0,1,0,0,0,1 @ F,0,0,1,0,1.0275119,0,1 @ F,0,1,1,0,1.0275119,0,1 @ F,0,0,1,0,0,0,1"
       radius="0"
       unit="px"
       method="auto"
       mode="F"
       chamfer_steps="1"
       flexible="false"
       use_knot_distance="true"
       apply_no_radius="true"
       apply_with_radius="true"
       only_selected="false"
       hide_knots="false" />
    <inkscape:path-effect
       effect="fillet_chamfer"
       id="path-effect2-5"
       is_visible="true"
       lpeversion="1"
       nodesatellites_param="F,0,1,1,0,3.9214112,0,1 @ F,0,0,1,0,3.9214112,0,1 @ F,0,1,1,0,3.9214112,0,1 @ F,0,1,1,0,3.9214112,0,1"
       radius="0"
       unit="px"
       method="auto"
       mode="F"
       chamfer_steps="1"
       flexible="false"
       use_knot_distance="true"
       apply_no_radius="true"
       apply_with_radius="true"
       only_selected="false"
       hide_knots="false" />
    <inkscape:path-effect
       effect="fillet_chamfer"
       id="path-effect11-1"
       is_visible="true"
       lpeversion="1"
       nodesatellites_param="F,0,0,1,0,0,0,1 @ F,0,0,1,0,0,0,1 @ F,0,0,1,0,0,0,1 @ F,0,0,1,0,0,0,1 @ F,0,0,1,0,0,0,1 @ F,0,0,1,0,0,0,1 @ F,0,0,1,0,0,0,1 @ F,0,1,1,0,1.3356823,0,1 @ F,0,1,1,0,1.3356823,0,1 @ F,0,0,1,0,0,0,1"
       radius="0"
       unit="px"
       method="auto"
       mode="F"
       chamfer_steps="1"
       flexible="false"
       use_knot_distance="true"
       apply_no_radius="true"
       apply_with_radius="true"
       only_selected="false"
       hide_knots="false" />
    <filter
       inkscape:collect="always"
       style="color-interpolation-filters:sRGB"
       id="filter5"
       x="-0.091865969"
       y="-0.10508204"
       width="1.1837319"
       height="1.2101641">
      <feGaussianBlur
         inkscape:collect="always"
         stdDeviation="2.0448052"
         id="feGaussianBlur5" />
    </filter>
    <radialGradient
       inkscape:collect="always"
       xlink:href="#SVGID_1_-3-2-7"
       id="radialGradient14-6"
       cx="51.925644"
       cy="78.491135"
       fx="51.925644"
       fy="78.491135"
       r="27.708172"
       gradientTransform="matrix(0,-2.1910082,2.2418851,0,-58.341014,183.01077)"
       gradientUnits="userSpaceOnUse" />
    <radialGradient
       id="SVGID_1_-3-2-7"
       cx="-159.43106"
       cy="15.462561"
       r="64.706802"
       gradientTransform="matrix(-0.89413329,0,0,0.96304834,-80.753654,49.330428)"
       gradientUnits="userSpaceOnUse"
       fx="-159.43106"
       fy="15.462561">
	<stop
   offset="0"
   style="stop-color:#006fff;stop-opacity:1;"
   id="stop1-6-9-5" />

	<stop
   offset="1"
   style="stop-color:#15baff;stop-opacity:1;"
   id="stop2-7-1-3" />

</radialGradient>
    <inkscape:path-effect
       effect="fillet_chamfer"
       id="path-effect2-5-3"
       is_visible="true"
       lpeversion="1"
       nodesatellites_param="F,0,0,1,0,1.7191201,0,1 @ F,0,0,1,0,13.761382,0,1 @ F,0,0,1,0,13.761382,0,1 @ F,0,0,1,0,14.755441,0,1"
       radius="0"
       unit="px"
       method="auto"
       mode="F"
       chamfer_steps="1"
       flexible="false"
       use_knot_distance="true"
       apply_no_radius="true"
       apply_with_radius="true"
       only_selected="false"
       hide_knots="false" />
    <radialGradient
       inkscape:collect="always"
       xlink:href="#radialGradient16-9"
       id="radialGradient15-2"
       cx="10.757424"
       cy="61.399044"
       fx="10.757424"
       fy="61.399044"
       r="24.565832"
       gradientTransform="matrix(0,-2.330989,2.5178893,0,-79.137526,79.401559)"
       gradientUnits="userSpaceOnUse" />
    <radialGradient
       id="radialGradient16-9"
       cx="-159.43106"
       cy="15.462561"
       r="64.706802"
       gradientTransform="matrix(-0.89413329,0,0,0.96304834,-80.753654,49.330428)"
       gradientUnits="userSpaceOnUse"
       fx="-159.43106"
       fy="15.462561">
	<stop
   offset="0"
   style="stop-color:#3d6aa4;stop-opacity:1;"
   id="stop15-1" />

	<stop
   offset="1"
   style="stop-color:#0097d2;stop-opacity:1;"
   id="stop16-2" />

</radialGradient>
    <inkscape:path-effect
       effect="fillet_chamfer"
       id="path-effect20-7"
       is_visible="true"
       lpeversion="1"
       nodesatellites_param="F,0,0,1,0,1.4582365,0,1 @ F,0,0,1,0,4.7943319,0,1 @ F,0,0,1,0,0,0,1 @ F,0,0,1,0,0,0,1 @ F,0,0,1,0,0,0,1 @ F,0,0,1,0,0,0,1 @ F,0,0,1,0,0,0,1 @ F,0,0,1,0,0,0,1 @ F,0,0,1,0,2.051402,0,1"
       radius="0"
       unit="px"
       method="auto"
       mode="F"
       chamfer_steps="1"
       flexible="false"
       use_knot_distance="true"
       apply_no_radius="true"
       apply_with_radius="true"
       only_selected="false"
       hide_knots="false" />
  </defs>
  <sodipodi:namedview
     id="namedview11"
     pagecolor="#505050"
     bordercolor="#eeeeee"
     borderopacity="1"
     inkscape:showpageshadow="0"
     inkscape:pageopacity="0"
     inkscape:pagecheckerboard="0"
     inkscape:deskcolor="#505050"
     inkscape:zoom="11.390625"
     inkscape:cx="21.465021"
     inkscape:cy="40.823045"
     inkscape:window-width="1920"
     inkscape:window-height="1020"
     inkscape:window-x="0"
     inkscape:window-y="0"
     inkscape:window-maximized="1"
     inkscape:current-layer="svg11" />
  <g
     id="g1"
     transform="translate(-33.939954,1.4536)">
    <path
       class="st1"
       d="M 22.196242,11.795294 H 12.203491 A 4.7943319,4.7943319 135 0 0 7.409159,16.589626 V 40.29912 c 0,3.691468 2.98833,6.76769 6.679798,6.76769 h 35.772071 c 3.691466,0 6.679797,-2.98833 6.679797,-6.679797 v -18.28155 c 0,-3.691467 -2.988331,-6.679798 -6.679797,-6.679798 H 30.037826 a 5.6416074,5.6416074 19.982285 0 1 -3.623682,-1.317644 l -1.642012,-1.376082 a 4.0103294,4.0103294 19.982285 0 0 -2.57589,-0.936645 z"
       id="path4-0"
       style="fill:url(#radialGradient15-2);stroke-width:0.878921"
       sodipodi:nodetypes="ccsssssscc"
       inkscape:path-effect="#path-effect20-7"
       inkscape:original-d="M 23.654479,11.795294 H 7.409159 V 40.29912 c 0,3.691468 2.98833,6.76769 6.679798,6.76769 h 35.772071 c 3.691466,0 6.679797,-2.98833 6.679797,-6.679797 v -18.28155 c 0,-3.691467 -2.988331,-6.679798 -6.679797,-6.679798 H 27.986424 Z"
       transform="matrix(1.0965063,0,0,1.0965063,30.879176,-5.975622)" />
    <path
       id="rect1-9"
       style="opacity:0.870323;fill:#ffffff;stroke-width:0.2"
       d="m 11.603718,20.662382 28.646459,0 A 13.761382,13.761382 45 0 1 54.011559,34.423764 13.636557,13.636557 135.5269 0 1 40.250177,47.934343 H 24.640039 A 14.755441,14.755441 45 0 1 9.8845978,33.178902 v -10.7974 a 1.7191201,1.7191201 135 0 1 1.7191202,-1.71912 z"
       inkscape:path-effect="#path-effect2-5-3"
       inkscape:original-d="M 9.8845978,20.662382 H 54.011559 V 47.934343 H 9.8845978 Z"
       transform="matrix(1.0965063,0,0,1.0965063,31.522961,-7.192726)" />
    <path
       id="rect13-36"
       style="fill:url(#radialGradient14-6);fill-opacity:1;stroke:none;stroke-width:0.681659;stroke-linecap:round;stroke-linejoin:round"
       d="m 46.809884,19.207923 h 10.852407 a 7.0733661,7.0733661 0 0 0 5.326416,-2.419142 7.0447591,7.0447591 0 0 1 5.309311,-2.399567 h 16.77201 a 7.8520921,7.8520921 0 0 1 7.85209,7.852092 v 24.041409 a 7.8520921,7.8520921 0 0 1 -7.85209,7.852093 H 46.809884 A 7.8520921,7.8520921 0 0 1 38.957791,46.282715 V 27.060016 a 7.8520921,7.8520921 0 0 1 7.852093,-7.852093 z"
       sodipodi:nodetypes="ccccccc" />
    <g
       id="g5"
       transform="translate(95.061049,2.2817518)"
       style="filter:url(#filter5)">
      <path
         d="m -50.800781,4.6757812 c -2.90323,6.383e-4 -5.2563,2.3545832 -5.25586,5.2578126 V 24.035156 c 0.224089,-2.374268 1.494712,-4.443315 3.357422,-5.726562 v -3.242188 c 1.44e-4,-1.040868 0.843898,-1.884622 1.884766,-1.884765 H -30.5 c 1.111326,-0.692982 2.401403,-1.077108 3.738281,-1.074219 h 16.7714846 c 4.0563348,2.73e-4 7.3924736,3.076738 7.8066406,7.023437 v -3.15039 c 0,-4.047717 -3.276503,-7.324219 -7.3242187,-7.324219 H -31.244141 c -1.453526,1.441e-4 -2.860685,-0.5115502 -3.974609,-1.4453125 L -37.017578,5.703125 C -37.809635,5.0391986 -38.810236,4.6754694 -39.84375,4.6757812 Z m 0.02734,2.7617188 h 10.521484 c 1.066492,0 1.925781,0.8592893 1.925781,1.9257813 0,1.0664907 -0.859289,1.9257817 -1.925781,1.9257817 h -10.521484 c -1.066493,0 -1.925782,-0.859291 -1.925782,-1.9257817 0,-1.066492 0.859289,-1.9257803 1.925782,-1.9257813 z"
         style="baseline-shift:baseline;display:inline;overflow:visible;fill:none;stroke:#000000;stroke-width:0.1;stroke-dasharray:none;stroke-opacity:1;enable-background:accumulate;stop-color:#000000;stop-opacity:1"
         id="path5" />
      <path
         d="m -50.814453,13.181641 c -1.040868,1.43e-4 -1.884622,0.843897 -1.884766,1.884765 v 3.242188 c 1.26506,-0.871517 2.796825,-1.383112 4.449219,-1.382813 h 10.851563 c 2.04141,-2.67e-4 3.983163,-0.882493 5.326171,-2.419922 0.459363,-0.523529 0.993287,-0.963189 1.572266,-1.324218 z"
         style="baseline-shift:baseline;display:inline;overflow:visible;fill:none;stroke:#000000;stroke-width:0.1;stroke-dasharray:none;stroke-opacity:1;enable-background:accumulate;stop-color:#000000;stop-opacity:1"
         id="path4" />
      <path
         d="m -26.761719,12.107422 c -2.033365,-0.0044 -3.969457,0.870017 -5.310547,2.398437 -1.343008,1.537429 -3.284761,2.419655 -5.326171,2.419922 H -48.25 c -4.33694,-7.86e-4 -7.853223,3.514623 -7.853516,7.851563 V 44 c -7.86e-4,4.337703 3.515813,7.854302 7.853516,7.853516 H -9.9902344 C -5.6532945,51.853223 -2.1378856,48.33694 -2.1386719,44 V 19.958984 c -2.924e-4,-4.336177 -3.5153854,-7.85127 -7.8515625,-7.851562 z"
         style="baseline-shift:baseline;display:inline;overflow:visible;fill:none;stroke:#000000;stroke-width:0.1;stroke-linecap:round;stroke-linejoin:round;stroke-dasharray:none;stroke-opacity:1;enable-background:accumulate;stop-color:#000000;stop-opacity:1"
         id="path3-6" />
    </g>
  </g>
  <path
     id="path3"
     style="color:#000000;opacity:0.237358;fill:#000000;fill-opacity:1;stroke-width:0.850444;stroke-linecap:round;-inkscape-stroke:none"
     d="m 16.798926,28.502797 c -0.350375,0.0058 -0.691148,0.115466 -0.979223,0.315007 -0.803739,0.557073 -1.004178,1.660059 -0.447827,2.464334 l 2.152891,3.11241 c 0.571875,0.826752 0.399152,2.008975 -0.32021,2.710732 -4.071512,3.971875 -6.401321,9.434221 -6.413809,15.172991 h 42.520067 c -0.0017,-5.744936 -2.32626,-11.216926 -6.397934,-15.197284 -0.71863,-0.702513 -0.890755,-1.885358 -0.318801,-2.712057 l 2.135606,-3.086792 c 0.556351,-0.804275 0.355912,-1.907261 -0.447827,-2.464334 -0.80461,-0.557862 -1.909133,-0.357284 -2.466267,0.447866 l -2.13361,3.08455 c -0.571873,0.826754 -1.739392,1.082788 -2.65019,0.658063 -2.805779,-1.308395 -5.870587,-1.991355 -8.981011,-1.991864 -3.110619,0.0011 -6.175493,0.684637 -8.981182,1.993682 -0.910711,0.424908 -2.077999,0.168914 -2.649691,-0.657965 L 18.28597,29.26567 c -0.267447,-0.386522 -0.677506,-0.650925 -1.139925,-0.735016 -0.114511,-0.02066 -0.230779,-0.02999 -0.347119,-0.02785 z m 6.321013,13.570984 c 1.644521,-0.0011 2.978269,1.331826 2.978376,2.976488 -1.07e-4,1.644662 -1.333855,2.977565 -2.978376,2.976488 -1.643684,-1.07e-4 -2.976126,-1.332664 -2.976233,-2.976488 1.07e-4,-1.643824 1.332549,-2.976381 2.976233,-2.976488 z m 17.859542,0 c 1.643684,1.07e-4 2.976126,1.332664 2.976233,2.976488 -1.07e-4,1.643824 -1.332549,2.976381 -2.976233,2.976488 -1.643684,-1.07e-4 -2.976127,-1.332663 -2.976234,-2.976488 1.07e-4,-1.643825 1.33255,-2.976381 2.976234,-2.976488 z"
     inkscape:path-effect="#path-effect1"
     inkscape:original-d="m 16.798926,28.502797 a 1.7716828,1.7718344 0 0 0 -0.979223,0.315007 1.7716828,1.7718344 0 0 0 -0.447827,2.464334 l 3.188362,4.609378 a 21.260195,21.262014 0 0 0 -7.76949,16.386755 H 53.310815 A 21.260195,21.262014 0 0 0 45.558466,35.8658 l 3.17122,-4.583662 a 1.7716828,1.7718344 0 0 0 -0.447827,-2.464334 1.7716828,1.7718344 0 0 0 -2.466267,0.447866 l -3.169078,4.58152 A 21.260195,21.262014 0 0 0 32.050781,31.016419 21.260195,21.262014 0 0 0 21.455048,33.849333 L 18.28597,29.26567 a 1.7716828,1.7718344 0 0 0 -1.139925,-0.735016 1.7716828,1.7718344 0 0 0 -0.347119,-0.02785 z m 6.321013,13.570984 a 2.9764273,2.9766819 0 0 1 2.978376,2.976488 2.9764273,2.9766819 0 0 1 -2.978376,2.976488 2.9764273,2.9766819 0 0 1 -2.976233,-2.976488 2.9764273,2.9766819 0 0 1 2.976233,-2.976488 z m 17.859542,0 a 2.9764273,2.9766819 0 0 1 2.976233,2.976488 2.9764273,2.9766819 0 0 1 -2.976233,2.976488 2.9764273,2.9766819 0 0 1 -2.976234,-2.976488 2.9764273,2.9766819 0 0 1 2.976234,-2.976488 z"
     transform="matrix(0.89292068,0,0,0.89292068,3.3811944,8.9080587)" />
</svg>
