<?xml version="1.0" encoding="UTF-8" standalone="no"?>
<svg
   width="64"
   height="64"
   version="1"
   id="svg4"
   sodipodi:docname="cairo-dock.svg"
   inkscape:version="1.4.3 (0d15f75042, 2025-12-25)"
   xmlns:inkscape="http://www.inkscape.org/namespaces/inkscape"
   xmlns:sodipodi="http://sodipodi.sourceforge.net/DTD/sodipodi-0.dtd"
   xmlns:xlink="http://www.w3.org/1999/xlink"
   xmlns="http://www.w3.org/2000/svg"
   xmlns:svg="http://www.w3.org/2000/svg">
  <defs
     id="defs4">
    <filter
       inkscape:collect="always"
       style="color-interpolation-filters:sRGB"
       id="filter3"
       x="-0.1390653"
       y="-0.10926559"
       width="1.2781306"
       height="1.2185312">
      <feGaussianBlur
         inkscape:collect="always"
         stdDeviation="2.4870305"
         id="feGaussianBlur3" />
    </filter>
    <radialGradient
       inkscape:collect="always"
       xlink:href="#linearGradient9"
       id="radialGradient10-0"
       cx="9.7942343"
       cy="53.223694"
       fx="9.7942343"
       fy="53.223694"
       r="27.92197"
       gradientTransform="matrix(2.4418912,0,0,2.2327301,-9.175445,-76.744037)"
       gradientUnits="userSpaceOnUse" />
    <linearGradient
       id="linearGradient9"
       inkscape:collect="always">
      <stop
         style="stop-color:#00baff;stop-opacity:1;"
         offset="0"
         id="stop9" />
      <stop
         style="stop-color:#007aff;stop-opacity:1;"
         offset="1"
         id="stop10" />
    </linearGradient>
    <inkscape:path-effect
       effect="fillet_chamfer"
       id="path-effect9-2"
       is_visible="true"
       lpeversion="1"
       nodesatellites_param="F,0,1,1,0,9.6225854,0,1 @ F,0,1,1,0,9.6225854,0,1 @ F,0,0,1,0,9.6225854,0,1 @ F,0,1,1,0,9.6225854,0,1"
       radius="0"
       unit="px"
       method="auto"
       mode="F"
       chamfer_steps="1"
       flexible="false"
       use_knot_distance="true"
       apply_no_radius="true"
       apply_with_radius="true"
       only_selected="false"
       hide_knots="false" />
    <filter
       inkscape:collect="always"
       style="color-interpolation-filters:sRGB"
       id="filter1-5"
       x="-0.099744745"
       y="-0.11394314"
       width="1.1994895"
       height="1.2278863">
      <feGaussianBlur
         inkscape:collect="always"
         stdDeviation="2.2919175"
         id="feGaussianBlur1-5" />
    </filter>
    <inkscape:path-effect
       effect="fillet_chamfer"
       id="path-effect9-2-5"
       is_visible="true"
       lpeversion="1"
       nodesatellites_param="F,0,1,1,0,9.6225854,0,1 @ F,0,1,1,0,9.6225854,0,1 @ F,0,0,1,0,9.6225854,0,1 @ F,0,1,1,0,9.6225854,0,1"
       radius="0"
       unit="px"
       method="auto"
       mode="F"
       chamfer_steps="1"
       flexible="false"
       use_knot_distance="true"
       apply_no_radius="true"
       apply_with_radius="true"
       only_selected="false"
       hide_knots="false" />
  </defs>
  <sodipodi:namedview
     id="namedview4"
     pagecolor="#ffffff"
     bordercolor="#000000"
     borderopacity="0.25"
     inkscape:showpageshadow="2"
     inkscape:pageopacity="0.0"
     inkscape:pagecheckerboard="0"
     inkscape:deskcolor="#d1d1d1"
     inkscape:zoom="9.8111066"
     inkscape:cx="36.489258"
     inkscape:cy="33.125723"
     inkscape:window-width="1920"
     inkscape:window-height="1020"
     inkscape:window-x="0"
     inkscape:window-y="0"
     inkscape:window-maximized="1"
     inkscape:current-layer="svg4" />
  <g
     id="g1"
     transform="translate(-1.9775207,-13.669274)">
    <path
       id="rect8-6"
       style="fill:url(#radialGradient10-0);fill-opacity:1;stroke-width:0.4"
       d="m 13.490292,3.3191092 h 37.019415 a 9.6225854,9.6225854 45 0 1 9.622585,9.6225858 v 30.008314 a 9.6225854,9.6225854 135 0 1 -9.622585,9.622585 H 13.490292 A 9.6225854,9.6225854 45 0 1 3.8677071,42.950009 V 12.941695 A 9.6225854,9.6225854 135 0 1 13.490292,3.3191092 Z"
       inkscape:path-effect="#path-effect9-2"
       inkscape:original-d="M 3.8677071,3.3191092 H 60.132292 V 52.572594 H 3.8677071 Z"
       transform="matrix(0.94763965,0,0,0.84888422,3.6530527,21.946481)"
       sodipodi:nodetypes="ccccc" />
    <path
       id="rect1-7"
       style="opacity:0.559839;fill:#0053ff;fill-opacity:1;stroke:none;stroke-width:0.254022;stroke-linecap:round;stroke-linejoin:round"
       d="M 16.436505,24.764976 A 9.1187435,8.1684609 0 0 0 9.3798647,27.759117 H 58.575177 a 9.1187435,8.1684609 0 0 0 -7.05664,-2.994141 z m -9.1035153,34.09375 a 9.1187435,8.1684609 0 0 0 8.7890623,7.710938 H 51.83299 a 9.1187435,8.1684609 0 0 0 8.789062,-7.710938 z" />
    <path
       id="path6"
       style="opacity:0.703111;fill:#ffffff;fill-opacity:1;stroke:#ffffff;stroke-width:0"
       d="m 25.814435,60.774797 a 1.8385988,1.8385988 0 0 0 -1.839843,1.839844 1.8385988,1.8385988 0 0 0 1.839843,1.83789 1.8385988,1.8385988 0 0 0 1.837891,-1.83789 1.8385988,1.8385988 0 0 0 -1.837891,-1.839844 z m 5.441407,0 a 1.8385988,1.8385988 0 0 0 -1.837891,1.839844 1.8385988,1.8385988 0 0 0 1.837891,1.83789 1.8385988,1.8385988 0 0 0 1.839843,-1.83789 1.8385988,1.8385988 0 0 0 -1.839843,-1.839844 z m 5.443359,0 a 1.8385988,1.8385988 0 0 0 -1.83789,1.839844 1.8385988,1.8385988 0 0 0 1.83789,1.83789 1.8385988,1.8385988 0 0 0 1.837891,-1.83789 1.8385988,1.8385988 0 0 0 -1.837891,-1.839844 z m 5.44336,0 a 1.8385988,1.8385988 0 0 0 -1.839844,1.839844 1.8385988,1.8385988 0 0 0 1.839844,1.83789 1.8385988,1.8385988 0 0 0 1.83789,-1.83789 1.8385988,1.8385988 0 0 0 -1.83789,-1.839844 z" />
    <path
       id="rect8-6-4"
       style="fill:none;fill-opacity:1;stroke:#000000;stroke-width:0.222989;stroke-dasharray:none;stroke-opacity:1;filter:url(#filter1-5)"
       d="m 13.490292,3.3191092 h 37.019415 a 9.6225854,9.6225854 45 0 1 9.622585,9.6225858 v 30.008314 a 9.6225854,9.6225854 135 0 1 -9.622585,9.622585 H 13.490292 A 9.6225854,9.6225854 45 0 1 3.8677071,42.950009 V 12.941695 A 9.6225854,9.6225854 135 0 1 13.490292,3.3191092 Z"
       inkscape:path-effect="#path-effect9-2-5"
       inkscape:original-d="M 3.8677071,3.3191092 H 60.132292 V 52.572594 H 3.8677071 Z"
       transform="matrix(0.94763965,0,0,0.84888422,3.6530527,21.946481)"
       sodipodi:nodetypes="ccccc" />
  </g>
  <rect
     style="opacity:1;mix-blend-mode:normal;fill:none;stroke:#000000;stroke-width:0.3;stroke-dasharray:none;stroke-opacity:1;filter:url(#filter3)"
     width="44"
     height="56"
     x="-53.959087"
     y="-59.999275"
     rx="7.322248"
     ry="7.322248"
     transform="matrix(0,-0.93450426,-0.93450426,0,2.0958161,2.0931841)"
     id="rect1-5" />
</svg>
