<?xml version="1.0" encoding="UTF-8" standalone="no"?>
<svg
   width="64"
   height="64"
   version="1"
   id="svg6"
   sodipodi:docname="io.github.cloose.CuteMarkEd.svg"
   inkscape:version="1.4.2 (ebf0e940d0, 2025-05-08)"
   xmlns:inkscape="http://www.inkscape.org/namespaces/inkscape"
   xmlns:sodipodi="http://sodipodi.sourceforge.net/DTD/sodipodi-0.dtd"
   xmlns="http://www.w3.org/2000/svg"
   xmlns:svg="http://www.w3.org/2000/svg">
  <defs
     id="defs6">
    <inkscape:path-effect
       effect="fillet_chamfer"
       id="path-effect6"
       is_visible="true"
       lpeversion="1"
       nodesatellites_param="F,0,0,1,0,2.523997,0,1 @ F,0,0,1,0,0.57305442,0,1 @ F,0,0,1,0,2.523997,0,1 @ F,0,0,1,0,0.57139762,0,1 @ F,0,0,1,0,0.57139762,0,1 | F,0,0,1,0,0,0,1 @ F,0,0,1,0,0,0,1 @ F,0,0,1,0,0,0,1 @ F,0,0,1,0,0,0,1 @ F,0,0,1,0,0.57139762,0,1 @ F,0,0,1,0,0.57139762,0,1"
       radius="0"
       unit="px"
       method="auto"
       mode="F"
       chamfer_steps="1"
       flexible="false"
       use_knot_distance="true"
       apply_no_radius="true"
       apply_with_radius="true"
       only_selected="false"
       hide_knots="false" />
    <inkscape:path-effect
       effect="fillet_chamfer"
       id="path-effect2"
       is_visible="true"
       lpeversion="1"
       nodesatellites_param="F,0,0,1,0,3.6242123,0,1 @ F,0,0,1,0,3.6242123,0,1 @ F,0,0,1,0,3.6242123,0,1 @ F,0,0,1,0,3.6242123,0,1 | F,0,0,1,0,0.684258,0,1 @ F,0,0,1,0,0.684258,0,1 @ F,0,0,1,0,0.684258,0,1 @ F,0,0,1,0,0.684258,0,1 | F,0,0,1,0,1.4381262,0,1 @ F,0,0,1,0,1.5007157,0,1 @ F,0,0,1,0,1.5007157,0,1 @ F,0,0,1,0,0.77855345,0,1 @ F,0,0,1,0,1.3904114,0,1 @ F,0,0,1,0,0.77855345,0,1 @ F,0,0,1,0,1.5007157,0,1 @ F,0,0,1,0,1.5007157,0,1 @ F,0,0,1,0,1.4381262,0,1 @ F,0,0,1,0,0.79136844,0,1 @ F,0,0,1,0,0,0,1 @ F,0,0,1,0,0.79136844,0,1 | F,0,0,1,0,1.4891998,0,1 @ F,0,1,1,0,0.47482152,0,1 @ F,0,0,1,0,1.2147945,0,1 @ F,0,0,1,0,1.2147945,0,1 @ F,0,0,1,0,1.2147945,0,1 @ F,0,0,1,0,0.47482152,0,1 @ F,0,0,1,0,1.4891998,0,1"
       radius="0"
       unit="px"
       method="auto"
       mode="F"
       chamfer_steps="1"
       flexible="false"
       use_knot_distance="true"
       apply_no_radius="true"
       apply_with_radius="true"
       only_selected="false"
       hide_knots="false" />
    <radialGradient
       id="SVGID_1_-3-2-2"
       cx="-159.43106"
       cy="15.462561"
       r="64.706802"
       gradientTransform="matrix(-0.89413329,0,0,0.96304834,-80.727506,49.278658)"
       gradientUnits="userSpaceOnUse"
       fx="-159.43106"
       fy="15.462561">
	<stop
   offset="0"
   style="stop-color:#ff8200;stop-opacity:1;"
   id="stop1-6-9-0" />

	<stop
   offset="1"
   style="stop-color:#ff6b5b;stop-opacity:1;"
   id="stop2-7-1-6" />

</radialGradient>
    <radialGradient
       id="SVGID_1_-3-2-2-9"
       cx="-159.43106"
       cy="15.462561"
       r="64.706802"
       gradientTransform="matrix(-0.89413329,0,0,0.96304834,-80.727507,49.278658)"
       gradientUnits="userSpaceOnUse"
       fx="-159.43106"
       fy="15.462561">
	<stop
   offset="0"
   style="stop-color:#006fff;stop-opacity:1;"
   id="stop1-6-9-0-2" />

	<stop
   offset="1"
   style="stop-color:#15baff;stop-opacity:1;"
   id="stop2-7-1-6-0" />

</radialGradient>
    <filter
       inkscape:collect="always"
       style="color-interpolation-filters:sRGB"
       id="filter1"
       x="-0.071418469"
       y="-0.071418469"
       width="1.1428369"
       height="1.1428369">
      <feGaussianBlur
         inkscape:collect="always"
         stdDeviation="1.603931"
         id="feGaussianBlur1" />
    </filter>
    <inkscape:path-effect
       effect="fillet_chamfer"
       id="path-effect2-7"
       is_visible="true"
       lpeversion="1"
       nodesatellites_param="F,0,0,1,0,3.6242123,0,1 @ F,0,0,1,0,3.6242123,0,1 @ F,0,0,1,0,3.6242123,0,1 @ F,0,0,1,0,3.6242123,0,1 | F,0,0,1,0,0.684258,0,1 @ F,0,0,1,0,0.684258,0,1 @ F,0,0,1,0,0.684258,0,1 @ F,0,0,1,0,0.684258,0,1 | F,0,0,1,0,1.4381262,0,1 @ F,0,0,1,0,1.5007157,0,1 @ F,0,0,1,0,1.5007157,0,1 @ F,0,0,1,0,0.77855345,0,1 @ F,0,0,1,0,1.3904114,0,1 @ F,0,0,1,0,0.77855345,0,1 @ F,0,0,1,0,1.5007157,0,1 @ F,0,0,1,0,1.5007157,0,1 @ F,0,0,1,0,1.4381262,0,1 @ F,0,0,1,0,0.79136844,0,1 @ F,0,0,1,0,0,0,1 @ F,0,0,1,0,0.79136844,0,1 | F,0,0,1,0,1.4891998,0,1 @ F,0,1,1,0,0.47482152,0,1 @ F,0,0,1,0,1.2147945,0,1 @ F,0,0,1,0,1.2147945,0,1 @ F,0,0,1,0,1.2147945,0,1 @ F,0,0,1,0,0.47482152,0,1 @ F,0,0,1,0,1.4891998,0,1"
       radius="0"
       unit="px"
       method="auto"
       mode="F"
       chamfer_steps="1"
       flexible="false"
       use_knot_distance="true"
       apply_no_radius="true"
       apply_with_radius="true"
       only_selected="false"
       hide_knots="false" />
    <filter
       inkscape:collect="always"
       style="color-interpolation-filters:sRGB"
       id="filter2"
       x="-0.048862888"
       y="-0.081438147"
       width="1.0977258"
       height="1.1628763">
      <feGaussianBlur
         inkscape:collect="always"
         stdDeviation="0.58302233"
         id="feGaussianBlur2" />
    </filter>
  </defs>
  <sodipodi:namedview
     id="namedview6"
     pagecolor="#ffffff"
     bordercolor="#000000"
     borderopacity="0.25"
     inkscape:showpageshadow="2"
     inkscape:pageopacity="0.0"
     inkscape:pagecheckerboard="0"
     inkscape:deskcolor="#d1d1d1"
     inkscape:zoom="13.018236"
     inkscape:cx="38.1004"
     inkscape:cy="39.098999"
     inkscape:current-layer="svg6" />
  <g
     id="g1">
    <path
       class="st1"
       d="m 20.799999,4.0000005 h 22.4 C 52.5,4.0000005 60,11.499999 60,20.799999 v 22.4 C 60,52.5 52.5,60 43.2,60 H 20.8 C 11.5,60 4.0000005,52.5 4.0000005,43.2 V 20.8 C 4.0000005,11.499999 11.5,4.0000005 20.799999,4.0000005 Z"
       id="path1"
       style="fill:url(#SVGID_1_-3-2-2)" />
    <path
       class="st1"
       d="m 20.799998,4 h 22.4 C 52.5,4 60,11.499999 60,20.799998 v 22.4 C 60,52.5 52.5,60 43.2,60 H 20.799999 C 11.5,60 4,52.5 4,43.2 V 20.8 C 4,11.499999 11.5,4 20.799998,4 Z"
       id="path1-3"
       style="fill:none;stroke:#000000;stroke-opacity:1;stroke-width:0.3;stroke-dasharray:none;filter:url(#filter1)" />
  </g>
  <path
     id="path6-3"
     style="opacity:0.853153;fill:#ffffff;fill-opacity:1"
     d="M 17,35.624212 V 46.375788 A 3.6242123,3.6242123 45 0 0 20.624212,50 H 43.375788 A 3.6242123,3.6242123 135 0 0 47,46.375788 V 35.624212 A 3.6242123,3.6242123 45 0 0 43.375788,32 H 20.624212 A 3.6242123,3.6242123 135 0 0 17,35.624212 Z M 20.684258,35 43.315742,35 A 0.684258,0.684258 45 0 1 44,35.684258 V 46.315742 A 0.684258,0.684258 135 0 1 43.315742,47 L 20.684258,47 A 0.684258,0.684258 45 0 1 20,46.315742 L 20,35.684258 A 0.684258,0.684258 135 0 1 20.684258,35 Z M 22,37.438126 22,44.499284 A 1.5007157,1.5007157 45 0 0 23.500716,46 1.5000002,1.5000002 134.97266 0 0 25,44.499284 v -3.41995 a 0.29250836,0.29250836 159.40842 0 1 0.512653,-0.192607 l 1.071805,1.22504 a 1.2164911,1.2164911 0 0 0 1.831084,0 l 1.071805,-1.22504 A 0.29250836,0.29250836 20.591576 0 1 30,41.079334 l 0,3.41995 A 1.5007157,1.5007157 45 0 0 31.500716,46 1.5000002,1.5000002 134.97266 0 0 33,44.499284 V 37.438126 A 1.4381262,1.4381262 45 0 0 31.561874,36 h -0.770506 a 1.7438804,1.7438804 155.59158 0 0 -1.312459,0.595591 L 27.5,38.857422 25.521091,36.595591 A 1.7438804,1.7438804 24.408424 0 0 24.208632,36 H 23.438126 A 1.4381262,1.4381262 135 0 0 22,37.438126 Z m 15,0.05107 v 4.24461 a 0.43684688,0.43684688 137.38522 0 1 -0.473177,0.435334 l -0.816237,-0.06812 a 0.44490703,0.44490703 114.88522 0 0 -0.351597,0.757962 l 2.282022,2.282022 a 1.2147945,1.2147945 0 0 0 1.717978,0 l 2.282022,-2.282022 a 0.44490703,0.44490703 65.11478 0 0 -0.351597,-0.757962 l -0.816237,0.06812 A 0.43684688,0.43684688 42.61478 0 1 40,41.73381 V 37.4892 A 1.4891998,1.4891998 45 0 0 38.5108,36 H 38.4892 A 1.4891998,1.4891998 135 0 0 37,37.4892 Z"
     inkscape:path-effect="#path-effect2"
     inkscape:original-d="M 17,32 V 50 H 47 V 32 Z m 3,3 H 44 V 47 H 20 Z m 2,1 v 10 h 3 v -5.699219 l 2.5,2.857422 2.5,-2.857422 V 46 h 3 V 36 H 30 L 27.5,38.857422 25,36 Z m 15,0 v 6.208632 L 34.5,42 l 4,4 4,-4 -2.5,0.208632 V 36 Z"
     transform="matrix(1.5007582,0,0,1.5007582,-16.024262,-29.531086)"
     sodipodi:nodetypes="ccccccccccccccccccccccccccccccc" />
  <path
     id="path6-3-9"
     style="opacity:0.853153;fill:none;fill-opacity:1;stroke:#ff0000;stroke-opacity:1;stroke-width:0.13326598;stroke-dasharray:none;filter:url(#filter2)"
     d="M 17,35.624212 V 46.375788 A 3.6242123,3.6242123 45 0 0 20.624212,50 H 43.375788 A 3.6242123,3.6242123 135 0 0 47,46.375788 V 35.624212 A 3.6242123,3.6242123 45 0 0 43.375788,32 H 20.624212 A 3.6242123,3.6242123 135 0 0 17,35.624212 Z M 20.684258,35 43.315742,35 A 0.684258,0.684258 45 0 1 44,35.684258 V 46.315742 A 0.684258,0.684258 135 0 1 43.315742,47 L 20.684258,47 A 0.684258,0.684258 45 0 1 20,46.315742 L 20,35.684258 A 0.684258,0.684258 135 0 1 20.684258,35 Z M 22,37.438126 22,44.499284 A 1.5007157,1.5007157 45 0 0 23.500716,46 1.5000002,1.5000002 134.97266 0 0 25,44.499284 v -3.41995 a 0.29250836,0.29250836 159.40842 0 1 0.512653,-0.192607 l 1.071805,1.22504 a 1.2164911,1.2164911 0 0 0 1.831084,0 l 1.071805,-1.22504 A 0.29250836,0.29250836 20.591576 0 1 30,41.079334 l 0,3.41995 A 1.5007157,1.5007157 45 0 0 31.500716,46 1.5000002,1.5000002 134.97266 0 0 33,44.499284 V 37.438126 A 1.4381262,1.4381262 45 0 0 31.561874,36 h -0.770506 a 1.7438804,1.7438804 155.59158 0 0 -1.312459,0.595591 L 27.5,38.857422 25.521091,36.595591 A 1.7438804,1.7438804 24.408424 0 0 24.208632,36 H 23.438126 A 1.4381262,1.4381262 135 0 0 22,37.438126 Z m 15,0.05107 v 4.24461 a 0.43684688,0.43684688 137.38522 0 1 -0.473177,0.435334 l -0.816237,-0.06812 a 0.44490703,0.44490703 114.88522 0 0 -0.351597,0.757962 l 2.282022,2.282022 a 1.2147945,1.2147945 0 0 0 1.717978,0 l 2.282022,-2.282022 a 0.44490703,0.44490703 65.11478 0 0 -0.351597,-0.757962 l -0.816237,0.06812 A 0.43684688,0.43684688 42.61478 0 1 40,41.73381 V 37.4892 A 1.4891998,1.4891998 45 0 0 38.5108,36 H 38.4892 A 1.4891998,1.4891998 135 0 0 37,37.4892 Z"
     inkscape:path-effect="#path-effect2-7"
     inkscape:original-d="M 17,32 V 50 H 47 V 32 Z m 3,3 H 44 V 47 H 20 Z m 2,1 v 10 h 3 v -5.699219 l 2.5,2.857422 2.5,-2.857422 V 46 h 3 V 36 H 30 L 27.5,38.857422 25,36 Z m 15,0 v 6.208632 L 34.5,42 l 4,4 4,-4 -2.5,0.208632 V 36 Z"
     transform="matrix(1.5007582,0,0,1.5007582,-16.024262,-29.531086)"
     sodipodi:nodetypes="ccccccccccccccccccccccccccccccc" />
</svg>
