<?xml version="1.0" encoding="UTF-8" standalone="no"?>
<svg
   width="64"
   height="64"
   version="1"
   id="svg11"
   sodipodi:docname="gdebi.svg"
   inkscape:version="1.4.2 (ebf0e940d0, 2025-05-08)"
   xmlns:inkscape="http://www.inkscape.org/namespaces/inkscape"
   xmlns:sodipodi="http://sodipodi.sourceforge.net/DTD/sodipodi-0.dtd"
   xmlns:xlink="http://www.w3.org/1999/xlink"
   xmlns="http://www.w3.org/2000/svg"
   xmlns:svg="http://www.w3.org/2000/svg">
  <defs
     id="defs11">
    <inkscape:path-effect
       effect="fillet_chamfer"
       id="path-effect15"
       is_visible="true"
       lpeversion="1"
       nodesatellites_param="F,0,1,1,0,3.2163126,0,1 @ F,0,1,1,0,3.2163126,0,1 @ F,0,1,1,0,3.2163126,0,1 @ F,0,1,1,0,3.2163126,0,1 @ F,0,1,1,0,3.2163126,0,1 @ F,0,0,1,0,3.2163126,0,1"
       radius="0"
       unit="px"
       method="auto"
       mode="F"
       chamfer_steps="1"
       flexible="false"
       use_knot_distance="true"
       apply_no_radius="true"
       apply_with_radius="true"
       only_selected="false"
       hide_knots="false" />
    <linearGradient
       id="linearGradient14"
       inkscape:collect="always">
      <stop
         style="stop-color:#ff4678;stop-opacity:1;"
         offset="0"
         id="stop14" />
      <stop
         style="stop-color:#ff81ae;stop-opacity:1;"
         offset="1"
         id="stop15" />
    </linearGradient>
    <inkscape:path-effect
       effect="fillet_chamfer"
       id="path-effect14"
       is_visible="true"
       lpeversion="1"
       nodesatellites_param="F,0,0,1,0,0,0,1 @ F,0,0,1,0,0,0,1 @ F,0,0,1,0,0,0,1 @ F,0,0,1,0,0,0,1 @ F,0,0,1,0,0,0,1 @ F,0,0,1,0,0,0,1 @ F,0,0,1,0,0,0,1 @ F,0,0,1,0,0,0,1 @ F,0,0,1,0,0,0,1 @ F,0,0,1,0,0,0,1 @ F,0,0,1,0,0,0,1 @ F,0,0,1,0,0,0,1 @ F,0,0,1,0,0,0,1 @ F,0,0,1,0,0,0,1 @ F,0,0,1,0,0,0,1 @ F,0,0,1,0,0,0,1 @ F,0,0,1,0,0,0,1 @ F,0,0,1,0,0,0,1 @ F,0,0,1,0,0,0,1"
       radius="0"
       unit="px"
       method="auto"
       mode="F"
       chamfer_steps="1"
       flexible="false"
       use_knot_distance="true"
       apply_no_radius="true"
       apply_with_radius="true"
       only_selected="false"
       hide_knots="false" />
    <radialGradient
       inkscape:collect="always"
       xlink:href="#linearGradient14"
       id="radialGradient15"
       cx="29.096161"
       cy="20.327721"
       fx="29.096161"
       fy="20.327721"
       r="11.919173"
       gradientTransform="matrix(1.3919329,-2.4108985,2.7807364,1.6054589,-67.929775,59.731515)"
       gradientUnits="userSpaceOnUse" />
    <inkscape:path-effect
       effect="fillet_chamfer"
       id="path-effect15-5"
       is_visible="true"
       lpeversion="1"
       nodesatellites_param="F,0,1,1,0,3.2163126,0,1 @ F,0,1,1,0,3.2163126,0,1 @ F,0,1,1,0,3.2163126,0,1 @ F,0,1,1,0,3.2163126,0,1 @ F,0,1,1,0,3.2163126,0,1 @ F,0,0,1,0,3.2163126,0,1"
       radius="0"
       unit="px"
       method="auto"
       mode="F"
       chamfer_steps="1"
       flexible="false"
       use_knot_distance="true"
       apply_no_radius="true"
       apply_with_radius="true"
       only_selected="false"
       hide_knots="false" />
    <filter
       inkscape:collect="always"
       style="color-interpolation-filters:sRGB"
       id="filter15"
       x="-0.081474153"
       y="-0.075313432"
       width="1.1629483"
       height="1.1506269">
      <feGaussianBlur
         inkscape:collect="always"
         stdDeviation="0.78187267"
         id="feGaussianBlur15" />
    </filter>
    <filter
       inkscape:collect="always"
       style="color-interpolation-filters:sRGB"
       id="filter16"
       x="-0.033109384"
       y="-0.029469753"
       width="1.0662177"
       height="1.0589559">
      <feGaussianBlur
         inkscape:collect="always"
         stdDeviation="0.39484098"
         id="feGaussianBlur16" />
    </filter>
  </defs>
  <sodipodi:namedview
     id="namedview11"
     pagecolor="#ffffff"
     bordercolor="#000000"
     borderopacity="0.25"
     inkscape:showpageshadow="2"
     inkscape:pageopacity="0.0"
     inkscape:pagecheckerboard="0"
     inkscape:deskcolor="#d1d1d1"
     inkscape:zoom="16.01458"
     inkscape:cx="30.784448"
     inkscape:cy="28.973598"
     inkscape:current-layer="svg11" />
  <path
     id="path11"
     style="fill:url(#radialGradient15);stroke-width:0.2;stroke-linecap:round;stroke-linejoin:round"
     transform="matrix(2.17204,0,0,2.17204,-4.5188806,14.625378)"
     d="m 25.846936,16.431177 -6.248357,3.60749 a 5.5708168,5.5708168 2.6575327e-6 0 1 -5.570816,0 L 7.7794071,16.431176 A 5.5708171,5.5708171 60.000001 0 1 4.9939988,11.606707 V 4.3917281 A 5.5708169,5.5708169 120 0 1 7.7794072,-0.43274084 L 14.027763,-4.0402307 a 5.5708168,5.5708168 180 0 1 5.570816,0 l 6.248357,3.60749002 a 5.5708168,5.5708168 60 0 1 2.785408,4.82446888 v 7.2149798 a 5.5708165,5.5708165 120 0 1 -2.785408,4.824469 z"
     inkscape:path-effect="#path-effect15"
     inkscape:original-d="M 28.632344,14.823021 16.813171,21.646823 4.9939988,14.82302 V 1.1754155 L 16.813171,-5.648387 28.632344,1.1754156 Z" />
  <path
     id="path11-2"
     style="mix-blend-mode:normal;fill:none;stroke:#000000;stroke-width:0.0988394;stroke-linecap:round;stroke-linejoin:round;stroke-dasharray:none;stroke-opacity:1;filter:url(#filter15)"
     transform="matrix(2.17204,0,0,2.17204,-4.5188806,14.625378)"
     d="m 25.846936,16.431177 -6.248357,3.60749 a 5.5708168,5.5708168 2.6575327e-6 0 1 -5.570816,0 L 7.7794071,16.431176 A 5.5708171,5.5708171 60.000001 0 1 4.9939988,11.606707 V 4.3917281 A 5.5708169,5.5708169 120 0 1 7.7794072,-0.43274084 L 14.027763,-4.0402307 a 5.5708168,5.5708168 180 0 1 5.570816,0 l 6.248357,3.60749002 a 5.5708168,5.5708168 60 0 1 2.785408,4.82446888 v 7.2149798 a 5.5708165,5.5708165 120 0 1 -2.785408,4.824469 z"
     inkscape:path-effect="#path-effect15-5"
     inkscape:original-d="M 28.632344,14.823021 16.813171,21.646823 4.9939988,14.82302 V 1.1754155 L 16.813171,-5.648387 28.632344,1.1754156 Z" />
  <path
     style="baseline-shift:baseline;display:inline;overflow:visible;opacity:1;vector-effect:none;fill:#ffffff;fill-opacity:1;fill-rule:evenodd;stroke-width:1.63908;stroke-linecap:round;stroke-linejoin:round;enable-background:accumulate;stop-color:#000000;stop-opacity:1"
     d="m 18.135589,23.494353 c 3.056781,-5.901775 9.349154,-9.926099 16.382368,-9.179848 7.810622,0.828736 14.224792,7.831135 13.19481,15.92057 -0.828859,6.50981 -6.777371,11.865123 -13.581343,10.782234 -5.207692,-0.828832 -9.519589,-5.751289 -8.347677,-11.273781 0.414412,-1.952872 1.566441,-3.690789 3.164854,-4.841422 1.598413,-1.150633 3.851224,-1.654808 5.861074,-1.015051 1.060844,0.337679 2.437097,1.159896 2.7584,3.50269 -1.320516,-1.66244 -1.627038,-2.029839 -2.858248,-2.425846 -1.54937,-0.498342 -3.485933,0.10527 -4.777883,1.035301 -1.291954,0.930027 -2.308636,2.471662 -2.64215,4.043305 -1.037593,4.88953 3.072123,8.266091 7.303296,8.939506 5.797634,0.922725 9.562442,-4.166121 10.193255,-9.120517 C 45.593213,23.524399 40.448758,17.91276 34.205479,17.250325 26.561947,16.439318 19.87221,22.648752 19.187063,30.182313 c -0.81366,8.946609 6.465789,16.716691 15.290684,17.418958 0.811935,0.06472 2.274924,0.139288 4.975519,-0.375963 -2.996913,2.805887 -7.602927,3.11736 -11.357152,1.798785 -7.014572,-3.15579 -12.606225,-10.783017 -11.849046,-19.108605 0.207136,-2.277573 0.869594,-4.453877 1.888521,-6.421135 z"
     id="path13"
     sodipodi:nodetypes="ssssssscsssssssccsss" />
  <path
     style="baseline-shift:baseline;display:inline;overflow:visible;fill:none;fill-opacity:1;fill-rule:evenodd;stroke-width:0.2;stroke-linecap:round;stroke-linejoin:round;enable-background:accumulate;stop-color:#000000;stroke:#ff0000;stroke-opacity:1;stroke-dasharray:none;filter:url(#filter16);opacity:0.85517645"
     d="m 18.135589,23.494353 c 3.056781,-5.901775 9.349154,-9.926099 16.382368,-9.179848 7.810622,0.828736 14.224792,7.831135 13.19481,15.92057 -0.828859,6.50981 -6.777371,11.865123 -13.581343,10.782234 -5.207692,-0.828832 -9.519589,-5.751289 -8.347677,-11.273781 0.414412,-1.952872 1.566441,-3.690789 3.164854,-4.841422 1.598413,-1.150633 3.851224,-1.654808 5.861074,-1.015051 1.060844,0.337679 2.437097,1.159896 2.7584,3.50269 -1.320516,-1.66244 -1.627038,-2.029839 -2.858248,-2.425846 -1.54937,-0.498342 -3.485933,0.10527 -4.777883,1.035301 -1.291954,0.930027 -2.308636,2.471662 -2.64215,4.043305 -1.037593,4.88953 3.072123,8.266091 7.303296,8.939506 5.797634,0.922725 9.562442,-4.166121 10.193255,-9.120517 C 45.593213,23.524399 40.448758,17.91276 34.205479,17.250325 26.561947,16.439318 19.87221,22.648752 19.187063,30.182313 c -0.81366,8.946609 6.465789,16.716691 15.290684,17.418958 0.811935,0.06472 2.274924,0.139288 4.975519,-0.375963 -2.996913,2.805887 -7.602927,3.11736 -11.357152,1.798785 -7.014572,-3.15579 -12.606225,-10.783017 -11.849046,-19.108605 0.207136,-2.277573 0.869594,-4.453877 1.888521,-6.421135 z"
     id="path13-1"
     sodipodi:nodetypes="ssssssscsssssssccsss" />
</svg>
