<?xml version="1.0" encoding="UTF-8" standalone="no"?>
<svg
   width="64"
   height="64"
   version="1"
   id="svg19"
   sodipodi:docname="FAHControl.svg"
   inkscape:version="1.4.2 (ebf0e940d0, 2025-05-08)"
   xmlns:inkscape="http://www.inkscape.org/namespaces/inkscape"
   xmlns:sodipodi="http://sodipodi.sourceforge.net/DTD/sodipodi-0.dtd"
   xmlns:xlink="http://www.w3.org/1999/xlink"
   xmlns="http://www.w3.org/2000/svg"
   xmlns:svg="http://www.w3.org/2000/svg">
  <defs
     id="defs19">
    <radialGradient
       id="radialGradient2"
       cx="-159.43106"
       cy="15.462561"
       r="64.706802"
       gradientTransform="matrix(-0.89413329,0,0,0.96304834,-19.43607,43.676448)"
       gradientUnits="userSpaceOnUse"
       fx="-159.43106"
       fy="15.462561">
      <stop
         offset="0"
         style="stop-color:#002e6b;stop-opacity:1;"
         id="stop1" />
      <stop
         offset="1"
         style="stop-color:#0076c1;stop-opacity:1;"
         id="stop2" />
    </radialGradient>
    <rect
       x="27.898966"
       y="22.523442"
       width="25.963777"
       height="20.534499"
       id="rect31" />
    <radialGradient
       inkscape:collect="always"
       xlink:href="#SVGID_1_-3-2-4"
       id="radialGradient29"
       cx="54.555355"
       cy="29.884058"
       fx="54.555355"
       fy="29.884058"
       r="14.5"
       gradientTransform="matrix(0,-3.6779447,3.6572465,0,-50.625994,259.42713)"
       gradientUnits="userSpaceOnUse" />
    <radialGradient
       inkscape:collect="always"
       xlink:href="#radialGradient2"
       id="radialGradient31"
       cx="38.975723"
       cy="12.987639"
       fx="38.975723"
       fy="12.987639"
       r="9.7626953"
       gradientTransform="matrix(0,5.8130958,-6.549836,0,90.543812,-221.52678)"
       gradientUnits="userSpaceOnUse" />
    <filter
       inkscape:collect="always"
       style="color-interpolation-filters:sRGB"
       id="filter34"
       x="-0.094420929"
       y="-0.08832269"
       width="1.1888419"
       height="1.1766454">
      <feGaussianBlur
         inkscape:collect="always"
         stdDeviation="1.632326"
         id="feGaussianBlur34" />
    </filter>
    <radialGradient
       id="SVGID_1_-3-2-4"
       cx="-159.43106"
       cy="15.462561"
       r="64.706802"
       gradientTransform="matrix(-0.89413329,0,0,0.96304834,-19.43607,43.676448)"
       gradientUnits="userSpaceOnUse"
       fx="-159.43106"
       fy="15.462561">
      <stop
         offset="0"
         style="stop-color:#006fff;stop-opacity:1;"
         id="stop1-6-9-5" />
      <stop
         offset="1"
         style="stop-color:#15baff;stop-opacity:1;"
         id="stop2-7-1-0" />
    </radialGradient>
    <inkscape:path-effect
       effect="fillet_chamfer"
       id="path-effect8-6"
       is_visible="true"
       lpeversion="1"
       nodesatellites_param="F,0,0,1,0,0,0,1 @ F,0,0,1,0,0,0,1 @ F,0,0,1,0,0,0,1 @ F,0,0,1,0,0,0,1 @ F,0,0,1,0,0,0,1 | F,0,0,1,0,0,0,1 @ F,0,0,1,0,0,0,1 | F,0,0,1,0,0,0,1 @ F,0,0,1,0,0,0,1 @ F,0,0,1,0,0,0,1 @ F,0,0,1,0,0,0,1 @ F,0,0,1,0,0,0,1 | F,0,0,1,0,0,0,1 @ F,0,0,1,0,0,0,1 @ F,0,0,1,0,0,0,1 @ F,0,0,1,0,0,0,1 @ F,0,0,1,0,0,0,1 @ F,0,0,1,0,0,0,1 @ F,0,0,1,0,0,0,1 @ F,0,0,1,0,0,0,1 @ F,0,0,1,0,0,0,1 @ F,0,0,1,0,0,0,1 @ F,0,0,1,0,0,0,1 @ F,0,0,1,0,0,0,1 @ F,0,0,1,0,0,0,1 @ F,0,0,1,0,0,0,1 @ F,0,0,1,0,3.3647819,0,1 @ F,0,0,1,0,1.6692262,0,1 @ F,0,0,1,0,0,0,1 @ F,0,0,1,0,0,0,1 @ F,0,0,1,0,0,0,1 @ F,0,0,1,0,0,0,1 @ F,0,0,1,0,0,0,1 @ F,0,0,1,0,0,0,1 @ F,0,0,1,0,0,0,1 @ F,0,0,1,0,0,0,1 @ F,0,0,1,0,0,0,1 @ F,0,0,1,0,0,0,1 @ F,0,0,1,0,0,0,1 | F,0,0,1,0,0,0,1 @ F,0,0,1,0,0,0,1 @ F,0,0,1,0,0,0,1 @ F,0,0,1,0,0,0,1 @ F,0,0,1,0,0,0,1 @ F,0,0,1,0,0,0,1 @ F,0,0,1,0,0,0,1 @ F,0,0,1,0,0,0,1 @ F,0,0,1,0,0,0,1 @ F,0,0,1,0,0,0,1 @ F,0,0,1,0,0,0,1 @ F,0,0,1,0,0,0,1 @ F,0,0,1,0,0,0,1 @ F,0,0,1,0,0,0,1 @ F,0,0,1,0,0,0,1 @ F,0,0,1,0,0,0,1 @ F,0,0,1,0,0,0,1 @ F,0,0,1,0,0,0,1 @ F,0,0,1,0,0,0,1 @ F,0,0,1,0,0,0,1 @ F,0,0,1,0,0,0,1 @ F,0,0,1,0,0,0,1 | F,0,0,1,0,0,0,1 @ F,0,0,1,0,0,0,1 | F,0,0,1,0,0,0,1 @ F,0,0,1,0,0,0,1 @ F,0,0,1,0,0,0,1 | F,0,0,1,0,0,0,1 @ F,0,0,1,0,0,0,1 | F,0,0,1,0,0,0,1 | F,0,0,1,0,0,0,1 | F,0,0,1,0,0,0,1 @ F,0,0,1,0,0,0,1 @ F,0,0,1,0,0,0,1"
       radius="0"
       unit="px"
       method="auto"
       mode="F"
       chamfer_steps="1"
       flexible="false"
       use_knot_distance="true"
       apply_no_radius="true"
       apply_with_radius="true"
       only_selected="false"
       hide_knots="false" />
  </defs>
  <sodipodi:namedview
     id="namedview19"
     pagecolor="#ffffff"
     bordercolor="#000000"
     borderopacity="0.25"
     inkscape:showpageshadow="2"
     inkscape:pageopacity="0.0"
     inkscape:pagecheckerboard="0"
     inkscape:deskcolor="#d1d1d1"
     inkscape:zoom="9.9536036"
     inkscape:cx="20.796488"
     inkscape:cy="25.41793"
     inkscape:current-layer="svg19" />
  <g
     id="g32"
     transform="matrix(1.1975408,0,0,1.1975408,-6.3213055,-6.3213056)">
    <path
       id="circle13"
       style="fill:url(#radialGradient29);stroke-width:1.46125"
       d="m 41.498156,9.3505542 c -6.456229,0 -11.66289,5.1844088 -11.66289,11.6606278 -2.91e-4,0.850103 0.09186,1.697717 0.274833,2.527896 -1.433095,-3.281182 -4.154267,-5.459454 -8.136218,-5.459454 -6.181847,0 -11.193743,5.250015 -11.193743,11.726233 0,6.476219 5.011896,11.726231 11.193743,11.726231 2.170894,0 3.967779,-0.648617 5.38502,-1.76924 -0.301935,1.051818 -0.455152,2.140723 -0.455193,3.23502 0,6.476219 5.21571,11.651579 11.671939,11.651579 6.456229,0 11.690037,-5.233808 11.690037,-11.690037 3.5e-5,-4.428797 -2.502677,-8.477335 -6.464339,-10.457103 5.459516,-1.097147 9.387236,-5.893049 9.386848,-11.461716 0,-6.456229 -5.233808,-11.6900368 -11.690037,-11.6900368 z M 30.857303,25.795004 c 1.10615,2.476349 2.996826,4.49347 5.415155,5.70269 -2.082561,0.419229 -3.97678,1.405314 -5.549708,2.842916 0.385864,-1.394804 0.578295,-2.927347 0.578295,-4.534753 0,-1.408405 -0.147348,-2.759821 -0.443742,-4.010853 z"
       sodipodi:nodetypes="sccsssccscccscccsc" />
    <path
       d="M 35.653138,15.195573 A 16.073801,16.073801 0 0 0 25.51283,18.797337 c 3.820712,1.616781 5.756544,5.936828 5.756544,11.010782 0,6.014038 -2.720064,10.968386 -8.074003,11.618686 a 16.073801,16.073801 0 0 0 12.457767,5.916369 16.073801,16.073801 0 0 0 16.0738,-16.073801 16.073801,16.073801 0 0 0 -16.0738,-16.0738 z"
       style="fill:url(#radialGradient31);stroke-width:1.46125"
       id="path22" />
  </g>
  <g
     id="g34"
     style="mix-blend-mode:normal;stroke-width:0.16700892;stroke-dasharray:none;filter:url(#filter34)"
     transform="matrix(1.1975408,0,0,1.1975408,-6.3213055,-6.3213056)">
    <path
       d="M 41.498047,9.3496094 A 11.690037,11.690037 0 0 0 31.007812,15.880859 16.073801,16.073801 0 0 1 35.652344,15.195313 16.073801,16.073801 0 0 1 51.267578,27.458984 11.690037,11.690037 0 0 0 53.1875,21.041016 11.690037,11.690037 0 0 0 41.498047,9.3496094 Z M 21.970703,18.117187 c -6.162765,0 -11.158203,5.235179 -11.158203,11.691407 0,6.456229 4.995438,11.689453 11.158203,11.689453 0.500871,0 0.97658,-0.0423 1.4375,-0.109375 0.303836,-0.0442 0.602294,-0.0962 0.888672,-0.167969 0.07782,-0.0195 0.151984,-0.04493 0.228516,-0.06641 0.263367,-0.07393 0.519513,-0.159146 0.767578,-0.25586 0.0769,-0.02997 0.155044,-0.05775 0.230468,-0.08984 0.279384,-0.118911 0.547482,-0.253292 0.806641,-0.400391 0.08148,-0.04621 0.160758,-0.09565 0.240234,-0.144531 0.232844,-0.143367 0.460141,-0.295311 0.675782,-0.460938 0.03069,-0.02355 0.06341,-0.04437 0.09375,-0.06836 a 11.690037,11.690037 0 0 0 0,0.0039 c 1.621531,-1.282255 2.742683,-3.188828 3.361328,-5.451172 0.167827,-0.613556 0.28783,-1.258931 0.380859,-1.919922 0.0225,-0.15939 0.04043,-0.320648 0.05859,-0.482421 0.07553,-0.675825 0.128906,-1.365224 0.128906,-2.076172 -7e-6,-0.647391 -0.04066,-1.279543 -0.103515,-1.898438 -0.01998,-0.196316 -0.05378,-0.385222 -0.08008,-0.578125 -0.05626,-0.412966 -0.121814,-0.819459 -0.207031,-1.214844 -0.194711,-0.90366 -0.451769,-1.766192 -0.796875,-2.55664 -0.161045,-0.368726 -0.343464,-0.719329 -0.537109,-1.058594 -0.04167,-0.07301 -0.08378,-0.145234 -0.126953,-0.216797 C 29.012022,21.612412 28.538821,21.005029 28,20.474609 c -0.04768,-0.04692 -0.09582,-0.09298 -0.144531,-0.138672 -0.324527,-0.304518 -0.670521,-0.582827 -1.041016,-0.830078 -0.145817,-0.09726 -0.294341,-0.191478 -0.447266,-0.279297 -0.08166,-0.04691 -0.166316,-0.09061 -0.25,-0.134765 -0.146159,-0.07707 -0.294935,-0.150308 -0.447265,-0.21875 -1.079745,-0.485504 -2.310862,-0.75586 -3.699219,-0.75586 z M 49.640625,39.1875 a 16.073801,16.073801 0 0 1 -13.988281,8.15625 16.073801,16.073801 0 0 1 -8.615235,-2.503906 11.690037,11.690037 0 0 0 11.539063,9.810547 11.690037,11.690037 0 0 0 11.689453,-11.691407 11.690037,11.690037 0 0 0 -0.625,-3.771484 z"
       style="fill:none;stroke:#000000;stroke-width:0.16700892;stroke-dasharray:none"
       id="path34" />
    <path
       d="m 35.652344,15.195313 a 16.073801,16.073801 0 0 0 -10.138672,3.601562 c 3.820712,1.616781 5.755859,5.937765 5.755859,11.011719 0,6.014038 -2.72028,10.96884 -8.074219,11.61914 A 16.073801,16.073801 0 0 0 35.652344,47.34375 16.073801,16.073801 0 0 0 51.726562,31.269531 16.073801,16.073801 0 0 0 35.652344,15.195313 Z"
       style="fill:none;stroke:#000000;stroke-width:0.16700892;stroke-dasharray:none"
       id="path33" />
  </g>
</svg>
