<?xml version="1.0" encoding="UTF-8" standalone="no"?>
<!-- Generator: Adobe Illustrator 25.4.1, SVG Export Plug-In . SVG Version: 6.00 Build 0)  -->

<svg
   version="1.1"
   id="Layer_1"
   x="0px"
   y="0px"
   viewBox="0 0 64 64"
   xml:space="preserve"
   sodipodi:docname="distro-fairywren.svg"
   inkscape:version="1.4.2 (ebf0e940d0, 2025-05-08)"
   inkscape:export-filename="FairyWren-app-menu.png"
   inkscape:export-xdpi="96"
   inkscape:export-ydpi="96"
   width="64"
   height="64"
   xmlns:inkscape="http://www.inkscape.org/namespaces/inkscape"
   xmlns:sodipodi="http://sodipodi.sourceforge.net/DTD/sodipodi-0.dtd"
   xmlns:xlink="http://www.w3.org/1999/xlink"
   xmlns="http://www.w3.org/2000/svg"
   xmlns:svg="http://www.w3.org/2000/svg"><defs
   id="defs9"><inkscape:path-effect
     effect="fillet_chamfer"
     id="path-effect9"
     is_visible="true"
     lpeversion="1"
     nodesatellites_param="F,0,0,1,0,0,0,1 @ F,0,0,1,0,29.632631,0,1"
     radius="0"
     unit="px"
     method="auto"
     mode="F"
     chamfer_steps="1"
     flexible="false"
     use_knot_distance="true"
     apply_no_radius="true"
     apply_with_radius="true"
     only_selected="false"
     hide_knots="false" /><inkscape:path-effect
     effect="fillet_chamfer"
     id="path-effect9-9"
     is_visible="true"
     lpeversion="1"
     nodesatellites_param="F,0,0,1,0,0,0,1 @ F,0,0,1,0,29.632631,0,1"
     radius="0"
     unit="px"
     method="auto"
     mode="F"
     chamfer_steps="1"
     flexible="false"
     use_knot_distance="true"
     apply_no_radius="true"
     apply_with_radius="true"
     only_selected="false"
     hide_knots="false" /><radialGradient
     inkscape:collect="always"
     xlink:href="#linearGradient51"
     id="radialGradient7-3"
     cx="77.879814"
     cy="69.639946"
     fx="77.879814"
     fy="69.639946"
     r="27.660166"
     gradientUnits="userSpaceOnUse"
     gradientTransform="matrix(0.24795497,-0.92538052,0.92538052,0.24795496,-49.792798,92.287051)" /><linearGradient
     id="linearGradient51"
     inkscape:collect="always"><stop
       style="stop-color:#019cf6;stop-opacity:1;"
       offset="0"
       id="stop50" /><stop
       style="stop-color:#0055c7;stop-opacity:1;"
       offset="1"
       id="stop51" /></linearGradient><filter
     inkscape:collect="always"
     style="color-interpolation-filters:sRGB"
     id="filter2"
     x="-0.042567914"
     y="-0.042567914"
     width="1.0851358"
     height="1.0851358"><feGaussianBlur
       inkscape:collect="always"
       stdDeviation="0.93293375"
       id="feGaussianBlur2" /></filter><radialGradient
     inkscape:collect="always"
     xlink:href="#linearGradient6"
     id="radialGradient7"
     cx="70.37854"
     cy="77.822426"
     fx="70.37854"
     fy="77.822426"
     r="27.660166"
     gradientUnits="userSpaceOnUse"
     gradientTransform="matrix(1.473492,-5.4991469,5.4991466,1.4734919,-463.9692,362.58022)" /><linearGradient
     id="linearGradient6"
     inkscape:collect="always"><stop
       style="stop-color:#9ad3ff;stop-opacity:1;"
       offset="0"
       id="stop6" /><stop
       style="stop-color:#d4d2e9;stop-opacity:1;"
       offset="1"
       id="stop7" /></linearGradient><radialGradient
     inkscape:collect="always"
     xlink:href="#linearGradient73"
     id="radialGradient74"
     cx="576.41235"
     cy="1546.8887"
     fx="576.41235"
     fy="1546.8887"
     r="251.97559"
     gradientTransform="matrix(0.36016297,0.13546661,-0.1229781,0.32695997,-36.350131,-530.97239)"
     gradientUnits="userSpaceOnUse" /><linearGradient
     id="linearGradient73"
     inkscape:collect="always"><stop
       style="stop-color:#00163c;stop-opacity:1;"
       offset="0"
       id="stop73" /><stop
       style="stop-color:#000000;stop-opacity:1;"
       offset="1"
       id="stop74" /></linearGradient><radialGradient
     inkscape:collect="always"
     xlink:href="#linearGradient5"
     id="radialGradient46"
     cx="720.6087"
     cy="975.70258"
     fx="720.6087"
     fy="975.70258"
     r="103.08921"
     gradientTransform="matrix(0.14036212,0.19095587,-0.19694755,0.14476631,112.83917,-250.38297)"
     gradientUnits="userSpaceOnUse" /><linearGradient
     id="linearGradient5"
     inkscape:collect="always"><stop
       style="stop-color:#01d9f6;stop-opacity:1;"
       offset="0"
       id="stop5-6" /><stop
       style="stop-color:#0077ff;stop-opacity:1;"
       offset="1"
       id="stop6-7" /></linearGradient><radialGradient
     inkscape:collect="always"
     xlink:href="#linearGradient5"
     id="radialGradient48"
     cx="652.9751"
     cy="1128.9486"
     fx="652.9751"
     fy="1128.9486"
     r="115.37684"
     gradientTransform="matrix(0.92225707,0.14083281,-0.07622827,0.4991881,-508.11692,-614.76078)"
     gradientUnits="userSpaceOnUse" /><radialGradient
     inkscape:collect="always"
     xlink:href="#linearGradient5"
     id="radialGradient47"
     cx="975.9964"
     cy="1145.4718"
     fx="975.9964"
     fy="1145.4718"
     r="161.05615"
     gradientTransform="matrix(-0.33003733,-0.84572781,0.28394045,-0.11080508,62.04534,964.54952)"
     gradientUnits="userSpaceOnUse" /><radialGradient
     inkscape:collect="always"
     xlink:href="#linearGradient51"
     id="radialGradient45"
     cx="477.66885"
     cy="1339.8009"
     fx="477.66885"
     fy="1339.8009"
     r="214.09865"
     gradientTransform="matrix(0.35910379,-0.03975802,0.02385862,0.21549667,-148.21248,-222.46759)"
     gradientUnits="userSpaceOnUse" /><radialGradient
     inkscape:collect="always"
     xlink:href="#linearGradient49"
     id="radialGradient44-7"
     cx="154.50182"
     cy="1363.1232"
     fx="154.50182"
     fy="1363.1232"
     r="271.87567"
     gradientTransform="matrix(0.64370955,0.14015385,-0.05368728,0.21368989,-90.276149,-256.61352)"
     gradientUnits="userSpaceOnUse" /><linearGradient
     id="linearGradient49"
     inkscape:collect="always"><stop
       style="stop-color:#002463;stop-opacity:1;"
       offset="0"
       id="stop48" /><stop
       style="stop-color:#0077ff;stop-opacity:1;"
       offset="1"
       id="stop49" /></linearGradient><radialGradient
     inkscape:collect="always"
     xlink:href="#linearGradient5"
     id="radialGradient4"
     cx="-304.07462"
     cy="1221.2883"
     fx="-304.07462"
     fy="1221.2883"
     r="157.3578"
     gradientTransform="matrix(0.5268865,0,0,0.49421607,118.37454,-523.37874)"
     gradientUnits="userSpaceOnUse" /><filter
     inkscape:collect="always"
     style="color-interpolation-filters:sRGB"
     id="filter1"
     x="-0.029480705"
     y="-0.029480705"
     width="1.0589614"
     height="1.0589614"><feGaussianBlur
       inkscape:collect="always"
       stdDeviation="0.59552849"
       id="feGaussianBlur1" /></filter></defs><sodipodi:namedview
   id="namedview9"
   pagecolor="#ffffff"
   bordercolor="#000000"
   borderopacity="0.25"
   inkscape:showpageshadow="2"
   inkscape:pageopacity="0.0"
   inkscape:pagecheckerboard="0"
   inkscape:deskcolor="#d1d1d1"
   inkscape:zoom="8.590038"
   inkscape:cx="38.358387"
   inkscape:cy="27.357271"
   inkscape:window-width="1920"
   inkscape:window-height="1020"
   inkscape:window-x="0"
   inkscape:window-y="0"
   inkscape:window-maximized="1"
   inkscape:current-layer="Layer_1"
   inkscape:export-bgcolor="#ffffff00" />
<style
   type="text/css"
   id="style1">
	.st0{fill:#333333;}
	.st1{fill:url(#SVGID_1_);}
	.st2{fill:url(#SVGID_00000114772258057173255150000011320655733637898394_);}
	.st3{fill:url(#SVGID_00000160869104684635257460000017665131418852208299_);}
	.st4{fill:url(#SVGID_00000129166249405916835070000008397553724718422659_);}
</style>

<g
   id="g2"
   transform="matrix(1.0706672,0,0,1.0706672,-2.2613502,-2.7966838)"><circle
     style="fill:url(#radialGradient7-3);stroke:none;stroke-width:0.00926521;stroke-linecap:round;stroke-linejoin:round;stroke-opacity:1"
     id="path2-6-5-3"
     cx="32"
     cy="32.5"
     r="27.474226" /><circle
     style="fill:none;stroke:#000000;stroke-width:0.2;stroke-linecap:round;stroke-linejoin:round;stroke-dasharray:none;stroke-opacity:1;filter:url(#filter2)"
     id="path2-6-5-3-3"
     cx="32"
     cy="32.5"
     r="27.474226" /><circle
     style="fill:url(#radialGradient7);fill-opacity:1;stroke:none;stroke-width:0.0082162;stroke-linecap:round;stroke-linejoin:round;stroke-opacity:1"
     id="path2-6-5"
     cx="32.00708"
     cy="32.5"
     r="24.363482" /><g
     id="g1"
     transform="matrix(0.88081474,0,0,0.88081474,3.8210094,3.8735212)"><path
       id="path42"
       style="fill:url(#radialGradient74);stroke:none;stroke-width:0;stroke-linecap:round;stroke-linejoin:round;stroke-dasharray:none"
       d="m 27.751799,18.293494 c -2.116287,0.06681 -4.255671,0.519054 -8.140573,1.523426 -7.769815,2.008821 -10.9006788,2.259776 -12.3244226,2.80025 -0.1399866,0.05314 -0.2717676,0.101546 -0.3974584,0.146577 -0.2800978,0.100351 -0.5844117,0.213902 -0.9052377,0.33779 A 27.66147,27.66147 0 0 0 4.338792,32.499353 27.66147,27.66147 0 0 0 24.945177,59.245989 c 0.603524,-0.432493 1.225925,-0.934729 1.853557,-1.517777 4.035692,-3.748991 2.675176,-5.346703 2.675176,-5.346703 0,0 9.420879,-10.931038 13.959986,-16.538143 1.444203,-1.784007 1.147672,-3.414012 3.158628,-5.101104 2.151269,-1.804814 2.20028,-1.689971 4.133465,-1.951858 1.933138,-0.26189 4.747755,-1.224019 6.265886,-1.344238 1.518109,-0.120221 2.911301,0.113508 2.911301,0.113508 0,0 -1.797382,-2.911696 -5.794732,-3.139135 -3.997364,-0.227437 -4.809,-0.446963 -6.568411,-1.20932 -1.759434,-0.762359 -4.201654,-3.05406 -11.786398,-4.128637 -3.792383,-0.537277 -5.88555,-0.855899 -8.001836,-0.789088 z" /><path
       style="fill:url(#radialGradient46);stroke:none;stroke-width:0;stroke-linecap:round;stroke-linejoin:round;stroke-dasharray:none"
       d="m 44.650491,27.529243 c 1.284441,1.007901 0.61934,5.474435 -0.656067,7.523183 -1.275415,2.04876 -1.7807,2.251925 -4.361114,5.707511 -2.580414,3.455583 -8.537406,11.74883 -11.044604,15.069157 -2.828497,3.7458 -7.281441,2.039948 -7.246427,-2.383308 0.01747,-2.208742 0.04435,-6.714196 0.814828,-9.053609 0.770471,-2.339413 0.657978,-3.157108 2.168924,-5.129879 1.510945,-1.972772 3.45955,-4.505446 6.720393,-5.962855 3.260821,-1.45741 9.159329,-3.714443 11.381613,-4.523312 2.222305,-0.808855 1.06511,-0.625299 2.222454,-1.246888 z"
       id="path39"
       sodipodi:nodetypes="czzzzzzzzc" /><path
       style="fill:url(#radialGradient48);stroke:none;stroke-width:0;stroke-linecap:round;stroke-linejoin:round;stroke-dasharray:none"
       d="m 44.656983,27.517554 c -2.115912,-0.327632 -4.770541,0.206672 -6.631145,1.406591 -2.396141,1.172717 -5.486858,1.075301 -7.615347,-0.630351 -1.230974,-0.904531 -1.668326,-2.745281 -3.248895,-3.173315 -3.15392,-0.171916 -6.338772,-1.055188 -9.492436,-0.406085 -5.411824,1.02279 -2.703941,10.003818 4.137768,14.678187 1.805532,1.170593 2.239716,1.673145 3.020816,1.101667 4.236772,-3.099748 6.350167,-4.242019 14.153189,-7.999227 4.02501,-1.938068 4.813327,-3.139139 5.67605,-4.977467 z"
       id="path37"
       sodipodi:nodetypes="ccccccssc" /><path
       style="fill:url(#radialGradient47);stroke:none;stroke-width:0;stroke-linecap:round;stroke-linejoin:round;stroke-dasharray:none"
       d="m 48.413409,23.56023 c -1.347124,-3.449397 -3.880619,-6.370889 -6.834151,-8.555975 -2.606266,-1.811106 -5.910359,-1.626252 -8.93765,-1.775575 -5.690041,-0.04001 -11.476693,1.047601 -16.572937,3.635281 -2.789784,1.421647 -4.916746,3.830312 -7.7313988,5.217906 -3.931888,1.772999 2.1222548,4.382087 3.7656588,5.075404 1.004406,0.519202 0.655789,-1.545496 1.514347,-2.240782 1.839174,-1.48937 4.162535,-1.976239 6.376028,-1.584227 2.094688,0.395643 4.110344,-0.40876 5.995396,-1.223495 2.20061,-1.018432 4.67981,-0.855221 6.986652,-0.344051 2.439541,0.495961 4.89087,1.261246 6.898587,2.780017 1.793988,0.932931 3.966612,1.241028 5.935072,0.7649 0.969486,-0.408778 1.801099,-1.082865 2.604396,-1.749403 z"
       id="path38"
       sodipodi:nodetypes="ccccccscccccc" /><path
       id="path51-0"
       style="fill:#121212;fill-opacity:1;stroke:none;stroke-width:0;stroke-linecap:round;stroke-linejoin:round;stroke-dasharray:none"
       d="m 33.992526,22.491566 a 4.6106315,4.6106315 0 0 0 -2.604777,0.371529 3.362641,3.362641 0 0 0 -0.791826,1.695364 3.362641,3.362641 0 0 0 2.816337,3.831476 3.362641,3.362641 0 0 0 3.831882,-2.816258 3.362641,3.362641 0 0 0 0.019,-0.86113 4.6106315,4.6106315 0 0 0 -3.270611,-2.220981 z" /><path
       id="path51-6-0"
       style="fill:#000000;fill-opacity:1;stroke:none;stroke-width:0;stroke-linecap:round;stroke-linejoin:round;stroke-dasharray:none"
       d="m 33.98786,22.861699 a 4.0225892,4.0225892 0 0 0 -2.272573,0.324175 2.9337681,2.9337681 0 0 0 -0.690834,1.479086 2.9337681,2.9337681 0 0 0 2.457154,3.342825 2.9337681,2.9337681 0 0 0 3.343147,-2.457092 2.9337681,2.9337681 0 0 0 0.01657,-0.751257 4.0225892,4.0225892 0 0 0 -2.853464,-1.937737 z" /><path
       id="path51"
       style="opacity:0.600704;mix-blend-mode:normal;fill:#ffffff;fill-opacity:1;stroke:none;stroke-width:0;stroke-linecap:round;stroke-linejoin:round;stroke-dasharray:none"
       d="m 36.035905,24.25177 a 1.1032475,1.1032475 0 0 0 -0.623284,0.08889 0.80462413,0.80462413 0 0 0 -0.189472,0.405674 0.80462413,0.80462413 0 0 0 0.673913,0.916818 0.80462413,0.80462413 0 0 0 0.916903,-0.673901 0.80462413,0.80462413 0 0 0 0.0045,-0.206051 1.1032475,1.1032475 0 0 0 -0.78261,-0.531427 z" /><path
       id="path40"
       style="fill:url(#radialGradient45);stroke:none;stroke-width:0;stroke-linecap:round;stroke-linejoin:round;stroke-dasharray:none"
       d="M 4.6882451,36.882426 A 27.66147,27.66147 0 0 0 15.750598,54.88478 c -0.02797,-0.180617 -0.04407,-0.363066 -0.04682,-0.547316 -0.06278,-4.195429 6.059155,-11.451951 2.447521,-14.417478 -1.76983,-1.453214 -7.243639,-2.48716 -13.4630499,-3.03756 z" /><path
       id="path41-2"
       style="fill:url(#radialGradient44-7);stroke:none;stroke-width:0;stroke-linecap:round;stroke-linejoin:round;stroke-dasharray:none"
       d="M 4.4902899,35.390884 A 27.66147,27.66147 0 0 0 11.81354,51.411136 c 1.993706,-2.379726 1.596759,-4.899416 1.596759,-4.899416 0,0 -4.269207,-8.208972 -8.9200091,-11.120836 z" /><path
       id="path2-6-5-06"
       style="fill:url(#radialGradient4);stroke:none;stroke-width:0.0093284;stroke-linecap:round;stroke-linejoin:round"
       d="m 5.1432779,25.876463 a 27.66147,27.66147 0 0 0 -0.8044831,6.62289 27.66147,27.66147 0 0 0 6.3268232,17.606628 c 0.209177,-0.08917 0.416918,-0.182888 0.623017,-0.281401 3.645078,-1.113508 1.263794,-4.859038 2.516664,-7.282985 0.975549,-1.625535 2.302545,-2.452105 5.203133,-1.538002 C 18.247168,39.290566 15.489358,36.393059 13.99378,34.504139 11.374628,31.610189 7.9516786,29.371571 5.5279835,26.322294 5.4089727,26.172566 5.2802925,26.023521 5.1432779,25.876463 Z" /></g><circle
     style="mix-blend-mode:normal;fill:none;fill-opacity:1;stroke:#000000;stroke-width:0.2;stroke-linecap:round;stroke-linejoin:round;stroke-dasharray:none;stroke-opacity:1;filter:url(#filter1)"
     id="path2-6-5-1"
     cx="32.007538"
     cy="32.5"
     r="25.936768"
     transform="matrix(0.9393415,0,0,0.9393415,1.9410721,1.9714013)" /></g></svg>
