<?xml version="1.0" encoding="UTF-8" standalone="no"?>
<svg
   width="64"
   height="64"
   version="1"
   id="svg13"
   sodipodi:docname="firetools.svg"
   inkscape:version="1.4.2 (ebf0e940d0, 2025-05-08)"
   xmlns:inkscape="http://www.inkscape.org/namespaces/inkscape"
   xmlns:sodipodi="http://sodipodi.sourceforge.net/DTD/sodipodi-0.dtd"
   xmlns:xlink="http://www.w3.org/1999/xlink"
   xmlns="http://www.w3.org/2000/svg"
   xmlns:svg="http://www.w3.org/2000/svg">
  <defs
     id="defs13">
    <filter
       inkscape:collect="always"
       style="color-interpolation-filters:sRGB"
       id="filter5"
       x="-0.13373661"
       y="-0.11316822"
       width="1.2674732"
       height="1.2263369">
      <feGaussianBlur
         inkscape:collect="always"
         stdDeviation="2.3894175"
         id="feGaussianBlur5" />
    </filter>
    <filter
       inkscape:collect="always"
       style="color-interpolation-filters:sRGB"
       id="filter11"
       x="-0.058216179"
       y="-0.050555128"
       width="1.1164324"
       height="1.1011103">
      <feGaussianBlur
         inkscape:collect="always"
         stdDeviation="1.0638153"
         id="feGaussianBlur11" />
    </filter>
    <radialGradient
       inkscape:collect="always"
       xlink:href="#linearGradient8"
       id="radialGradient9-8"
       cx="47.950642"
       cy="45.898148"
       fx="47.950642"
       fy="45.898148"
       r="20"
       gradientTransform="matrix(0,-3.1381277,3.1396555,0,-80.656603,213.05513)"
       gradientUnits="userSpaceOnUse" />
    <linearGradient
       id="linearGradient8"
       inkscape:collect="always">
      <stop
         style="stop-color:#e59347;stop-opacity:1;"
         offset="0"
         id="stop8" />
      <stop
         style="stop-color:#e54764;stop-opacity:1;"
         offset="1"
         id="stop9" />
    </linearGradient>
    <radialGradient
       inkscape:collect="always"
       xlink:href="#linearGradient11"
       id="radialGradient9"
       cx="47.950642"
       cy="45.898148"
       fx="47.950642"
       fy="45.898148"
       r="20"
       gradientTransform="matrix(0,-4.0234745,4.0254334,0,-112.43992,264.13545)"
       gradientUnits="userSpaceOnUse" />
    <linearGradient
       id="linearGradient11"
       inkscape:collect="always">
      <stop
         style="stop-color:#e57137;stop-opacity:1;"
         offset="0"
         id="stop10" />
      <stop
         style="stop-color:#b43b56;stop-opacity:1;"
         offset="1"
         id="stop11" />
    </linearGradient>
  </defs>
  <sodipodi:namedview
     id="namedview13"
     pagecolor="#ffffff"
     bordercolor="#000000"
     borderopacity="0.25"
     inkscape:showpageshadow="2"
     inkscape:pageopacity="0.0"
     inkscape:pagecheckerboard="0"
     inkscape:deskcolor="#d1d1d1"
     inkscape:zoom="10.336159"
     inkscape:cx="27.573106"
     inkscape:cy="39.956817"
     inkscape:current-layer="svg13" />
  <path
     d="M 28.376694,3.8714708 C 23.310746,6.3617336 17.655708,8.4286316 12.15341,10.611594 c -2.904454,1.152301 -5.230283,4.690995 -5.230283,7.8164 v 13.702054 c 0,18.130078 20.412073,28.747876 25.076873,28.747876 4.6648,0 25.076873,-10.617798 25.076873,-28.747876 V 18.427994 c 0,-3.125405 -2.337464,-6.637291 -5.245941,-7.781167 C 46.314316,8.4771926 40.655675,6.3637686 35.620432,3.875132 33.589606,2.8714089 30.41008,2.8719214 28.376694,3.871492 Z"
     style="fill:url(#radialGradient9);fill-rule:evenodd;stroke-width:1.25385"
     id="path3"
     sodipodi:nodetypes="ccssscc" />
  <path
     d="m 29.173984,10.061026 c -3.951208,1.942292 -8.361881,3.554379 -12.653425,5.25699 -2.265342,0.898744 -4.079383,3.658764 -4.079383,6.096438 v 10.686982 c 0,14.140639 15.920489,22.42204 19.558824,22.42204 3.638333,0 19.558824,-8.281401 19.558824,-22.42204 V 21.414454 c 0,-2.437674 -1.823115,-5.176785 -4.091595,-6.068956 C 43.164517,13.65328 38.751034,12.004906 34.823772,10.063881 33.23982,9.2810235 30.759934,9.2814225 29.173984,10.060981 Z"
     style="fill:url(#radialGradient9-8);fill-rule:evenodd;stroke-width:0.977944"
     id="path3-5"
     sodipodi:nodetypes="ccssscc" />
  <path
     id="path3-6"
     style="mix-blend-mode:normal;fill:none;fill-rule:evenodd;stroke:#000000;stroke-width:0.2;stroke-dasharray:none;stroke-opacity:1;filter:url(#filter11)"
     d="m 32,5.7597657 c -1.183932,-3.54e-4 -2.369116,0.225537 -3.292969,0.679688 -4.603346,2.262862 -9.742337,4.1413773 -14.742187,6.1250003 -2.639232,1.047078 -4.7519535,4.263509 -4.7519535,7.103515 v 12.451172 c 0,16.474515 18.5482785,26.121094 22.7871095,26.121094 4.23883,0 22.787109,-9.646579 22.787109,-26.121094 V 19.667969 c 0,-2.840006 -2.124691,-6.03089 -4.767578,-7.070312 C 45.006669,10.626145 39.864508,8.7047447 35.289062,6.4433597 34.366372,5.9873267 33.183931,5.7601207 32,5.7597657 Z m 0,5.7734383 c 0.923414,2.79e-4 1.84675,0.177517 2.566406,0.533203 3.568641,1.763778 7.578475,3.26309 11.488281,4.800781 2.061332,0.810702 3.71875,3.298596 3.71875,5.513672 v 9.710938 c 0,12.849375 -14.467342,20.375 -17.773437,20.375 -3.306098,0 -17.773437,-7.525625 -17.773437,-20.375 V 22.38086 c 0,-2.215076 1.64855,-4.722389 3.70703,-5.539063 3.899659,-1.547136 7.907647,-3.012413 11.498047,-4.777343 0.720565,-0.354204 1.644946,-0.53153 2.56836,-0.53125 z"
     transform="matrix(1.1004924,0,0,1.1004924,-3.2157582,-3.2157593)" />
  <path
     style="fill:none;stroke:#000000;stroke-width:0.3;stroke-dasharray:none;stroke-opacity:1;filter:url(#filter5)"
     d="M 53.515191,13.660221 32.241043,6.0427677 c -0.156261,-0.05603 -0.326763,-0.05603 -0.483004,0 L 10.483891,13.660221 c -0.290302,0.103959 -0.4846033,0.382663 -0.4846033,0.695265 0,7.708852 2.0090143,16.620114 5.5120383,24.44817 2.84142,6.350844 7.951056,14.822502 16.156113,19.113732 0.10442,0.05456 0.218421,0.08184 0.332562,0.08184 0.114141,0 0.228142,-0.02728 0.332562,-0.08184 8.204457,-4.292029 13.314093,-12.763489 16.156113,-19.113732 3.502824,-7.829255 5.512038,-16.741117 5.512038,-24.44817 0,-0.312622 -0.194301,-0.591304 -0.484603,-0.695265 z"
     id="path2-3" />
</svg>
