<?xml version="1.0" encoding="UTF-8" standalone="no"?>
<svg
   width="64"
   height="64"
   version="1.1"
   id="svg6"
   sodipodi:docname="bibletime.svg"
   inkscape:version="1.4.2 (ebf0e940d0, 2025-05-08)"
   xmlns:inkscape="http://www.inkscape.org/namespaces/inkscape"
   xmlns:sodipodi="http://sodipodi.sourceforge.net/DTD/sodipodi-0.dtd"
   xmlns:xlink="http://www.w3.org/1999/xlink"
   xmlns="http://www.w3.org/2000/svg"
   xmlns:svg="http://www.w3.org/2000/svg">
  <defs
     id="defs6">
    <inkscape:path-effect
       effect="fillet_chamfer"
       id="path-effect6"
       is_visible="true"
       lpeversion="1"
       nodesatellites_param="F,0,0,1,0,0,0,1 @ F,0,0,1,0,0,0,1 @ F,0,0,1,0,0,0,1 @ F,0,0,1,0,0,0,1 | F,0,0,1,0,0,0,1 @ F,0,0,1,0,0,0,1 @ F,0,0,1,0,0,0,1 @ F,0,0,1,0,0,0,1 | F,0,0,1,0,0.99087211,0,1 @ F,0,0,1,0,2.1877068,0,1 @ F,0,0,1,0,0.99087211,0,1 @ F,0,0,1,0,0.99087211,0,1 @ F,0,0,1,0,0.34711617,0,1 @ F,0,0,1,0,0.99087211,0,1"
       radius="0"
       unit="px"
       method="auto"
       mode="F"
       chamfer_steps="1"
       flexible="false"
       use_knot_distance="true"
       apply_no_radius="true"
       apply_with_radius="true"
       only_selected="false"
       hide_knots="false" />
    <radialGradient
       inkscape:collect="always"
       xlink:href="#linearGradient5"
       id="radialGradient6"
       cx="45.196259"
       cy="56.678448"
       fx="45.196259"
       fy="56.678448"
       r="22"
       gradientTransform="matrix(-1.3947388,-5.2052358,4.2516108,-1.1392157,-110.38373,365.65775)"
       gradientUnits="userSpaceOnUse" />
    <linearGradient
       id="linearGradient5"
       inkscape:collect="always">
      <stop
         style="stop-color:#824afd;stop-opacity:1;"
         offset="0"
         id="stop5" />
      <stop
         style="stop-color:#3ea0ff;stop-opacity:1;"
         offset="1"
         id="stop6" />
    </linearGradient>
    <inkscape:path-effect
       effect="fillet_chamfer"
       id="path-effect8-6"
       is_visible="true"
       lpeversion="1"
       nodesatellites_param="F,0,0,1,0,8.3189409,0,1 @ F,0,1,1,0,8.3189409,0,1 @ F,0,1,1,0,8.3189409,0,1 @ F,0,1,1,0,8.3189409,0,1"
       radius="0"
       unit="px"
       method="auto"
       mode="F"
       chamfer_steps="1"
       flexible="false"
       use_knot_distance="true"
       apply_no_radius="true"
       apply_with_radius="true"
       only_selected="false"
       hide_knots="false" />
    <inkscape:path-effect
       effect="fillet_chamfer"
       id="path-effect9-3"
       is_visible="true"
       lpeversion="1"
       nodesatellites_param="F,0,0,1,0,8.4491927,0,1 @ F,0,0,1,0,0,0,1 @ F,0,0,1,0,0,0,1 @ F,0,1,1,0,8.4491927,0,1"
       radius="0"
       unit="px"
       method="auto"
       mode="F"
       chamfer_steps="1"
       flexible="false"
       use_knot_distance="true"
       apply_no_radius="true"
       apply_with_radius="true"
       only_selected="false"
       hide_knots="false" />
    <filter
       inkscape:collect="always"
       style="color-interpolation-filters:sRGB"
       id="filter9"
       x="-0.11986904"
       y="-0.094182812"
       width="1.2397381"
       height="1.1883656">
      <feGaussianBlur
         inkscape:collect="always"
         stdDeviation="1.920177"
         id="feGaussianBlur9" />
    </filter>
    <inkscape:path-effect
       effect="fillet_chamfer"
       id="path-effect8-6-0"
       is_visible="true"
       lpeversion="1"
       nodesatellites_param="F,0,0,1,0,8.3189409,0,1 @ F,0,1,1,0,8.3189409,0,1 @ F,0,1,1,0,8.3189409,0,1 @ F,0,1,1,0,8.3189409,0,1"
       radius="0"
       unit="px"
       method="auto"
       mode="F"
       chamfer_steps="1"
       flexible="false"
       use_knot_distance="true"
       apply_no_radius="true"
       apply_with_radius="true"
       only_selected="false"
       hide_knots="false" />
    <radialGradient
       inkscape:collect="always"
       xlink:href="#linearGradient6"
       id="radialGradient8"
       cx="19.572044"
       cy="54.896679"
       fx="19.572044"
       fy="54.896679"
       r="10.824744"
       gradientTransform="matrix(3.2449612,0,0,4.6356591,-43.938481,-194.62879)"
       gradientUnits="userSpaceOnUse" />
    <linearGradient
       id="linearGradient6"
       inkscape:collect="always">
      <stop
         style="stop-color:#f6aa7a;stop-opacity:1;"
         offset="0"
         id="stop7" />
      <stop
         style="stop-color:#f6d17a;stop-opacity:1;"
         offset="1"
         id="stop8" />
    </linearGradient>
    <inkscape:path-effect
       effect="fillet_chamfer"
       id="path-effect8"
       is_visible="true"
       lpeversion="1"
       nodesatellites_param="F,0,0,1,0,3.0588377,0,1 @ F,0,1,1,0,1.0273919,0,1 @ F,0,0,1,0,3.0588377,0,1 @ F,0,0,1,0,3.0588377,0,1 @ F,0,1,1,0,1.0273919,0,1 @ F,0,0,1,0,0,0,1 @ F,0,0,1,0,0,0,1 @ F,0,0,1,0,1.0273919,0,1 @ F,0,0,1,0,3.0588377,0,1 @ F,0,0,1,0,3.0588377,0,1 @ F,0,1,1,0,1.0273919,0,1 @ F,0,0,1,0,3.0588377,0,1"
       radius="0"
       unit="px"
       method="auto"
       mode="F"
       chamfer_steps="1"
       flexible="false"
       use_knot_distance="true"
       apply_no_radius="true"
       apply_with_radius="true"
       only_selected="false"
       hide_knots="false" />
    <filter
       inkscape:collect="always"
       style="color-interpolation-filters:sRGB"
       id="filter8"
       x="-0.073807695"
       y="-0.05166539"
       width="1.1476154"
       height="1.1033308">
      <feGaussianBlur
         inkscape:collect="always"
         stdDeviation="0.64495785"
         id="feGaussianBlur8" />
    </filter>
    <inkscape:path-effect
       effect="fillet_chamfer"
       id="path-effect8-4"
       is_visible="true"
       lpeversion="1"
       nodesatellites_param="F,0,0,1,0,3.0588377,0,1 @ F,0,1,1,0,1.0273919,0,1 @ F,0,0,1,0,3.0588377,0,1 @ F,0,0,1,0,3.0588377,0,1 @ F,0,1,1,0,1.0273919,0,1 @ F,0,0,1,0,0,0,1 @ F,0,0,1,0,0,0,1 @ F,0,0,1,0,1.0273919,0,1 @ F,0,0,1,0,3.0588377,0,1 @ F,0,0,1,0,3.0588377,0,1 @ F,0,1,1,0,1.0273919,0,1 @ F,0,0,1,0,3.0588377,0,1"
       radius="0"
       unit="px"
       method="auto"
       mode="F"
       chamfer_steps="1"
       flexible="false"
       use_knot_distance="true"
       apply_no_radius="true"
       apply_with_radius="true"
       only_selected="false"
       hide_knots="false" />
  </defs>
  <sodipodi:namedview
     id="namedview6"
     pagecolor="#ffffff"
     bordercolor="#000000"
     borderopacity="0.25"
     inkscape:showpageshadow="2"
     inkscape:pageopacity="0.0"
     inkscape:pagecheckerboard="0"
     inkscape:deskcolor="#d1d1d1"
     inkscape:zoom="16.152247"
     inkscape:cx="8.0484156"
     inkscape:cy="33.184236"
     inkscape:current-layer="svg6" />
  <g
     id="g3">
    <g
       id="g1">
      <g
         id="g2">
        <path
           id="rect2-8"
           style="fill:url(#radialGradient6);stroke-width:0.891381"
           d="m 20.708557,7.0413289 h 22.582886 a 8.3189409,8.3189409 45 0 1 8.318941,8.3189411 v 33.279461 a 8.3189409,8.3189409 135 0 1 -8.318941,8.318941 H 20.708557 A 8.3189409,8.3189409 45 0 1 12.389616,48.639731 V 15.36027 a 8.3189409,8.3189409 135 0 1 8.318941,-8.3189411 z"
           transform="matrix(1.0760643,0,0,1.0760643,-2.4281595,-2.4233975)"
           inkscape:original-d="M 12.389616,7.0413289 H 51.610384 V 56.958672 H 12.389616 Z"
           inkscape:path-effect="#path-effect8-6" />
        <path
           id="rect8"
           style="opacity:0.407924;fill:#002aff;fill-opacity:1;stroke-width:0.3;stroke-linecap:round;stroke-linejoin:round;stroke-miterlimit:4.6;paint-order:stroke fill markers"
           d="m 20.827847,7.0215149 h 1.273605 V 56.956268 H 20.827847 A 8.4491927,8.4491927 45 0 1 12.378654,48.507075 V 15.470708 a 8.4491927,8.4491927 135 0 1 8.449193,-8.4491931 z"
           transform="matrix(1.0760643,0,0,1.0760643,-2.4281595,-2.4233975)"
           inkscape:original-d="m 12.378654,7.0215149 h 9.722798 V 56.956268 h -9.722798 z"
           inkscape:path-effect="#path-effect9-3" />
        <path
           id="rect2-8-1"
           style="fill:none;stroke:#000000;stroke-width:0.185862;stroke-dasharray:none;stroke-opacity:1;filter:url(#filter9)"
           d="m 20.708557,7.0413289 h 22.582886 a 8.3189409,8.3189409 45 0 1 8.318941,8.3189411 v 33.279461 a 8.3189409,8.3189409 135 0 1 -8.318941,8.318941 H 20.708557 A 8.3189409,8.3189409 45 0 1 12.389616,48.639731 V 15.36027 a 8.3189409,8.3189409 135 0 1 8.318941,-8.3189411 z"
           transform="matrix(1.0760643,0,0,1.0760643,-2.4340576,-2.4340581)"
           inkscape:original-d="M 12.389616,7.0413289 H 51.610384 V 56.958672 H 12.389616 Z"
           inkscape:path-effect="#path-effect8-6-0" />
      </g>
    </g>
    <path
       style="fill:url(#radialGradient8);stroke-width:0.773196"
       d="m 30.561715,30.925682 v 3.645731 a 1.0273919,1.0273919 135 0 1 -1.027392,1.027392 h -3.64573 a 3.0588377,3.0588377 135 0 0 -3.058838,3.058838 v 0.06789 a 3.0588377,3.0588377 45 0 0 3.058838,3.058838 h 3.64573 a 1.0273919,1.0273919 45 0 1 1.027392,1.027392 l 0,15.982921 h 6.185568 V 42.811765 a 1.0273919,1.0273919 135 0 1 1.027392,-1.027392 h 3.64573 a 3.0588377,3.0588377 135 0 0 3.058838,-3.058838 v -0.06789 a 3.0588377,3.0588377 45 0 0 -3.058838,-3.058838 h -3.64573 a 1.0273919,1.0273919 45 0 1 -1.027392,-1.027392 v -3.645731 a 3.0588377,3.0588377 45 0 0 -3.058838,-3.058838 h -0.06789 a 3.0588377,3.0588377 135 0 0 -3.058838,3.058838 z"
       id="path4"
       inkscape:path-effect="#path-effect8"
       inkscape:original-d="m 30.561715,27.866844 v 7.731961 h -7.73196 v 6.185568 h 7.73196 v 17.010313 h 6.185568 V 41.784373 h 7.73196 v -6.185568 h -7.73196 v -7.731961 z"
       transform="translate(5.4437478)" />
    <path
       style="fill:none;stroke:#000000;stroke-width:0.1;stroke-dasharray:none;stroke-opacity:1;filter:url(#filter8)"
       d="m 30.561715,30.925682 v 3.645731 a 1.0273919,1.0273919 135 0 1 -1.027392,1.027392 h -3.64573 a 3.0588377,3.0588377 135 0 0 -3.058838,3.058838 v 0.06789 a 3.0588377,3.0588377 45 0 0 3.058838,3.058838 h 3.64573 a 1.0273919,1.0273919 45 0 1 1.027392,1.027392 l 0,15.982921 h 6.185568 V 42.811765 a 1.0273919,1.0273919 135 0 1 1.027392,-1.027392 h 3.64573 a 3.0588377,3.0588377 135 0 0 3.058838,-3.058838 v -0.06789 a 3.0588377,3.0588377 45 0 0 -3.058838,-3.058838 h -3.64573 a 1.0273919,1.0273919 45 0 1 -1.027392,-1.027392 v -3.645731 a 3.0588377,3.0588377 45 0 0 -3.058838,-3.058838 h -0.06789 a 3.0588377,3.0588377 135 0 0 -3.058838,3.058838 z"
       id="path4-6"
       inkscape:path-effect="#path-effect8-4"
       inkscape:original-d="m 30.561715,27.866844 v 7.731961 h -7.73196 v 6.185568 h 7.73196 v 17.010313 h 6.185568 V 41.784373 h 7.73196 v -6.185568 h -7.73196 v -7.731961 z"
       transform="translate(5.4437478)" />
  </g>
  <path
     style="opacity:0.325492;fill:#000000;fill-opacity:1"
     d="m 33.979995,11.842452 c -5.523,0 -10,4.477 -10,10 0,5.523 4.477,10 10,10 5.523,0 10,-4.477 10,-10 0,-5.523 -4.477,-10 -10,-10 z m 0,2.854872 c 3.945897,0 7.145128,3.199231 7.145128,7.145128 0,3.945897 -3.199231,7.145128 -7.145128,7.145128 -3.945897,0 -7.145128,-3.199231 -7.145128,-7.145128 0,-3.945897 3.199231,-7.145128 7.145128,-7.145128 z m -1,2.136 v 3.821421 a 2.1877068,2.1877068 45 0 0 2.187707,2.187707 h 3.821421 a 0.99087211,0.99087211 135 0 0 0.990872,-0.990872 v -0.01826 a 0.99087211,0.99087211 45 0 0 -0.990872,-0.990872 h -3.662012 a 0.34711617,0.34711617 45 0 1 -0.347116,-0.347116 v -3.662012 a 0.99087211,0.99087211 45 0 0 -0.990872,-0.990872 h -0.01826 a 0.99087211,0.99087211 135 0 0 -0.990872,0.990872 z"
     id="path5"
     inkscape:path-effect="#path-effect6"
     inkscape:original-d="m 33.979995,11.842452 c -5.523,0 -10,4.477 -10,10 0,5.523 4.477,10 10,10 5.523,0 10,-4.477 10,-10 0,-5.523 -4.477,-10 -10,-10 z m 0,2.854872 c 3.945897,0 7.145128,3.199231 7.145128,7.145128 0,3.945897 -3.199231,7.145128 -7.145128,7.145128 -3.945897,0 -7.145128,-3.199231 -7.145128,-7.145128 0,-3.945897 3.199231,-7.145128 7.145128,-7.145128 z m -1,1.145128 v 7 h 7 v -2 h -5 v -5 z"
     transform="matrix(0.67933067,0,0,0.67933067,19.426948,0.68569465)"
     sodipodi:nodetypes="ssssssssssccccccc" />
</svg>
