<?xml version="1.0" encoding="UTF-8" standalone="no"?>
<svg
   width="64"
   height="64"
   version="1.1"
   xml:space="preserve"
   id="svg10"
   sodipodi:docname="iridium-browser.svg"
   inkscape:version="1.4.2 (ebf0e940d0, 2025-05-08)"
   xmlns:inkscape="http://www.inkscape.org/namespaces/inkscape"
   xmlns:sodipodi="http://sodipodi.sourceforge.net/DTD/sodipodi-0.dtd"
   xmlns:xlink="http://www.w3.org/1999/xlink"
   xmlns="http://www.w3.org/2000/svg"
   xmlns:svg="http://www.w3.org/2000/svg"><defs
   id="defs10"><linearGradient
   id="linearGradient14"
   inkscape:collect="always"><stop
     style="stop-color:#b7b6b6;stop-opacity:1;"
     offset="0"
     id="stop14" /><stop
     style="stop-color:#f2f2f2;stop-opacity:1;"
     offset="1"
     id="stop15" /></linearGradient><inkscape:path-effect
   effect="fillet_chamfer"
   id="path-effect13"
   is_visible="true"
   lpeversion="1"
   nodesatellites_param="F,0,0,1,0,0,0,1 @ F,0,0,1,0,0,0,1 @ F,0,0,1,0,0.54857836,0,1 @ F,0,1,1,0,1.5734965,0,1 @ F,0,0,1,0,1.5734965,0,1 @ F,0,0,1,0,0.54857836,0,1 @ F,0,0,1,0,0,0,1 @ F,0,0,1,0,0,0,1"
   radius="0"
   unit="px"
   method="auto"
   mode="F"
   chamfer_steps="1"
   flexible="false"
   use_knot_distance="true"
   apply_no_radius="true"
   apply_with_radius="true"
   only_selected="false"
   hide_knots="false" /><inkscape:path-effect
   effect="fillet_chamfer"
   id="path-effect12"
   is_visible="true"
   lpeversion="1"
   nodesatellites_param="F,0,0,1,0,0,0,1 @ F,0,0,1,0,0,0,1 | F,0,1,1,0,3.0303359,0,1 @ F,0,1,1,0,3.0303359,0,1 @ F,0,0,1,0,3.0303359,0,1 | F,0,0,1,0,2.3083163,0,1 @ F,0,0,1,0,0,0,1 @ F,0,0,1,0,2.3083163,0,1 @ F,0,0,1,0,0,0,1"
   radius="0"
   unit="px"
   method="auto"
   mode="F"
   chamfer_steps="1"
   flexible="false"
   use_knot_distance="true"
   apply_no_radius="true"
   apply_with_radius="true"
   only_selected="false"
   hide_knots="false" /><inkscape:path-effect
   effect="fillet_chamfer"
   id="path-effect11"
   is_visible="true"
   lpeversion="1"
   nodesatellites_param="F,0,0,1,0,0,0,1 @ F,0,0,1,0,1.451091,0,1 @ F,0,0,1,0,1.451091,0,1 @ F,0,0,1,0,0,0,1 | F,0,0,1,0,0,0,1 @ F,0,0,1,0,0,0,1 @ F,0,0,1,0,0,0,1 @ F,0,0,1,0,1.451091,0,1 @ F,0,0,1,0,0,0,1 @ F,0,0,1,0,1.451091,0,1 @ F,0,0,1,0,0,0,1 | F,0,0,1,0,0,0,1 @ F,0,0,1,0,1.2965905,0,1 @ F,0,0,1,0,0,0,1 @ F,0,0,1,0,1.2965905,0,1 | F,0,0,1,0,4.3555492,0,1 @ F,0,0,1,0,2.7664741,0,1 @ F,0,0,1,0,0,0,1 @ F,0,0,1,0,0.82926292,0,1 @ F,0,0,1,0,2.7664741,0,1 @ F,0,0,1,0,0,0,1"
   radius="0"
   unit="px"
   method="auto"
   mode="F"
   chamfer_steps="1"
   flexible="false"
   use_knot_distance="true"
   apply_no_radius="true"
   apply_with_radius="true"
   only_selected="false"
   hide_knots="false" />
  
  
  
  
  
  
  
  
  
  
 <radialGradient
   id="SVGID_1_-3-2"
   cx="-159.43106"
   cy="15.462561"
   r="64.706802"
   gradientTransform="matrix(-0.89413329,0,0,0.96304834,-19.43607,43.676448)"
   gradientUnits="userSpaceOnUse"
   fx="-159.43106"
   fy="15.462561"><stop
     offset="0"
     style="stop-color:#006fff;stop-opacity:1;"
     id="stop1-6-9" /><stop
     offset="1"
     style="stop-color:#15baff;stop-opacity:1;"
     id="stop2-7-1" /></radialGradient><inkscape:path-effect
   effect="fillet_chamfer"
   id="path-effect8-6"
   is_visible="true"
   lpeversion="1"
   nodesatellites_param="F,0,0,1,0,0,0,1 @ F,0,0,1,0,0,0,1 @ F,0,0,1,0,0,0,1 @ F,0,0,1,0,0,0,1 @ F,0,0,1,0,0,0,1 | F,0,0,1,0,0,0,1 @ F,0,0,1,0,0,0,1 | F,0,0,1,0,0,0,1 @ F,0,0,1,0,0,0,1 @ F,0,0,1,0,0,0,1 @ F,0,0,1,0,0,0,1 @ F,0,0,1,0,0,0,1 | F,0,0,1,0,0,0,1 @ F,0,0,1,0,0,0,1 @ F,0,0,1,0,0,0,1 @ F,0,0,1,0,0,0,1 @ F,0,0,1,0,0,0,1 @ F,0,0,1,0,0,0,1 @ F,0,0,1,0,0,0,1 @ F,0,0,1,0,0,0,1 @ F,0,0,1,0,0,0,1 @ F,0,0,1,0,0,0,1 @ F,0,0,1,0,0,0,1 @ F,0,0,1,0,0,0,1 @ F,0,0,1,0,0,0,1 @ F,0,0,1,0,0,0,1 @ F,0,0,1,0,3.3647819,0,1 @ F,0,0,1,0,1.6692262,0,1 @ F,0,0,1,0,0,0,1 @ F,0,0,1,0,0,0,1 @ F,0,0,1,0,0,0,1 @ F,0,0,1,0,0,0,1 @ F,0,0,1,0,0,0,1 @ F,0,0,1,0,0,0,1 @ F,0,0,1,0,0,0,1 @ F,0,0,1,0,0,0,1 @ F,0,0,1,0,0,0,1 @ F,0,0,1,0,0,0,1 @ F,0,0,1,0,0,0,1 | F,0,0,1,0,0,0,1 @ F,0,0,1,0,0,0,1 @ F,0,0,1,0,0,0,1 @ F,0,0,1,0,0,0,1 @ F,0,0,1,0,0,0,1 @ F,0,0,1,0,0,0,1 @ F,0,0,1,0,0,0,1 @ F,0,0,1,0,0,0,1 @ F,0,0,1,0,0,0,1 @ F,0,0,1,0,0,0,1 @ F,0,0,1,0,0,0,1 @ F,0,0,1,0,0,0,1 @ F,0,0,1,0,0,0,1 @ F,0,0,1,0,0,0,1 @ F,0,0,1,0,0,0,1 @ F,0,0,1,0,0,0,1 @ F,0,0,1,0,0,0,1 @ F,0,0,1,0,0,0,1 @ F,0,0,1,0,0,0,1 @ F,0,0,1,0,0,0,1 @ F,0,0,1,0,0,0,1 @ F,0,0,1,0,0,0,1 | F,0,0,1,0,0,0,1 @ F,0,0,1,0,0,0,1 | F,0,0,1,0,0,0,1 @ F,0,0,1,0,0,0,1 @ F,0,0,1,0,0,0,1 | F,0,0,1,0,0,0,1 @ F,0,0,1,0,0,0,1 | F,0,0,1,0,0,0,1 | F,0,0,1,0,0,0,1 | F,0,0,1,0,0,0,1 @ F,0,0,1,0,0,0,1 @ F,0,0,1,0,0,0,1"
   radius="0"
   unit="px"
   method="auto"
   mode="F"
   chamfer_steps="1"
   flexible="false"
   use_knot_distance="true"
   apply_no_radius="true"
   apply_with_radius="true"
   only_selected="false"
   hide_knots="false" /><radialGradient
   inkscape:collect="always"
   xlink:href="#SVGID_1_-3-2"
   id="radialGradient11"
   cx="64.030045"
   cy="62.598713"
   fx="64.030045"
   fy="62.598713"
   r="23.999405"
   gradientTransform="matrix(0,-2.5644961,2.6775968,0,-103.58407,227.95453)"
   gradientUnits="userSpaceOnUse" /><radialGradient
   id="SVGID_1_-3-2-4"
   cx="-159.43106"
   cy="15.462561"
   r="64.706802"
   gradientTransform="matrix(-0.89413329,0,0,0.96304834,-19.43607,43.676448)"
   gradientUnits="userSpaceOnUse"
   fx="-159.43106"
   fy="15.462561"><stop
     offset="0"
     style="stop-color:#006fff;stop-opacity:1;"
     id="stop1-6-9-4" /><stop
     offset="1"
     style="stop-color:#15baff;stop-opacity:1;"
     id="stop2-7-1-7" /></radialGradient><inkscape:path-effect
   effect="fillet_chamfer"
   id="path-effect12-6"
   is_visible="true"
   lpeversion="1"
   nodesatellites_param="F,0,0,1,0,0,0,1 @ F,0,0,1,0,0,0,1 | F,0,1,1,0,3.0303359,0,1 @ F,0,1,1,0,3.0303359,0,1 @ F,0,0,1,0,3.0303359,0,1 | F,0,0,1,0,2.3083163,0,1 @ F,0,0,1,0,0,0,1 @ F,0,0,1,0,2.3083163,0,1 @ F,0,0,1,0,0,0,1"
   radius="0"
   unit="px"
   method="auto"
   mode="F"
   chamfer_steps="1"
   flexible="false"
   use_knot_distance="true"
   apply_no_radius="true"
   apply_with_radius="true"
   only_selected="false"
   hide_knots="false" /><inkscape:path-effect
   effect="fillet_chamfer"
   id="path-effect13-3"
   is_visible="true"
   lpeversion="1"
   nodesatellites_param="F,0,0,1,0,0,0,1 @ F,0,0,1,0,0,0,1 @ F,0,0,1,0,0.54857836,0,1 @ F,0,1,1,0,1.5734965,0,1 @ F,0,0,1,0,1.5734965,0,1 @ F,0,0,1,0,0.54857836,0,1 @ F,0,0,1,0,0,0,1 @ F,0,0,1,0,0,0,1"
   radius="0"
   unit="px"
   method="auto"
   mode="F"
   chamfer_steps="1"
   flexible="false"
   use_knot_distance="true"
   apply_no_radius="true"
   apply_with_radius="true"
   only_selected="false"
   hide_knots="false" /><inkscape:path-effect
   effect="fillet_chamfer"
   id="path-effect11-1"
   is_visible="true"
   lpeversion="1"
   nodesatellites_param="F,0,0,1,0,0,0,1 @ F,0,0,1,0,1.451091,0,1 @ F,0,0,1,0,1.451091,0,1 @ F,0,0,1,0,0,0,1 | F,0,0,1,0,0,0,1 @ F,0,0,1,0,0,0,1 @ F,0,0,1,0,0,0,1 @ F,0,0,1,0,1.451091,0,1 @ F,0,0,1,0,0,0,1 @ F,0,0,1,0,1.451091,0,1 @ F,0,0,1,0,0,0,1 | F,0,0,1,0,0,0,1 @ F,0,0,1,0,1.2965905,0,1 @ F,0,0,1,0,0,0,1 @ F,0,0,1,0,1.2965905,0,1 | F,0,0,1,0,4.3555492,0,1 @ F,0,0,1,0,2.7664741,0,1 @ F,0,0,1,0,0,0,1 @ F,0,0,1,0,0.82926292,0,1 @ F,0,0,1,0,2.7664741,0,1 @ F,0,0,1,0,0,0,1"
   radius="0"
   unit="px"
   method="auto"
   mode="F"
   chamfer_steps="1"
   flexible="false"
   use_knot_distance="true"
   apply_no_radius="true"
   apply_with_radius="true"
   only_selected="false"
   hide_knots="false" /><filter
   inkscape:collect="always"
   style="color-interpolation-filters:sRGB"
   id="filter14"
   x="-0.085380531"
   y="-0.09649156"
   width="1.1707622"
   height="1.1929827"><feGaussianBlur
     inkscape:collect="always"
     stdDeviation="1.803924"
     id="feGaussianBlur14" /></filter><radialGradient
   inkscape:collect="always"
   xlink:href="#linearGradient14"
   id="radialGradient15"
   cx="-0.35651046"
   cy="67.65889"
   fx="-0.35651046"
   fy="67.65889"
   r="27.45193"
   gradientTransform="matrix(2.41716,0,0,2.1389134,0.50523235,-81.167684)"
   gradientUnits="userSpaceOnUse" /></defs><sodipodi:namedview
   id="namedview10"
   pagecolor="#ffffff"
   bordercolor="#000000"
   borderopacity="0.25"
   inkscape:showpageshadow="2"
   inkscape:pageopacity="0.0"
   inkscape:pagecheckerboard="0"
   inkscape:deskcolor="#d1d1d1"
   inkscape:zoom="12.698859"
   inkscape:cx="19.411192"
   inkscape:cy="27.640278"
   inkscape:current-layer="svg10" />
 <g
   id="g14"
   transform="matrix(1.0603936,0,0,1.0603936,-1.3746738,-1.8840714)"><g
     id="g13"
     transform="matrix(0.94489087,0,0,0.94489087,1.7344965,1.7609702)"><path
       id="path2"
       style="fill:url(#radialGradient15);stroke-width:1.16691"
       d="M 32.277344,7.6816406 C 28.649677,7.8210563 25.496281,8.7127764 23.515625,10.201172 10.032365,7.4609028 7.7515974,21.593243 7.6386719,22.355469 5.2056317,23.376098 3.8848544,25.648078 4.0332031,28.269531 5.7346935,42.925198 15.382518,56.246094 34.580078,56.246094 c 5.529117,0 24.345723,-5.934339 24.345703,-24.25 0,-2.134864 -0.216456,-4.108775 -0.615234,-5.931641 0.543148,-2.268514 -0.199842,-5.094344 -2.626953,-6.722656 C 50.536012,10.70909 40.258211,7.3749261 32.277344,7.6816406 Z"
       sodipodi:nodetypes="scccssccs" /><path
       id="path3"
       style="fill:url(#radialGradient11);stroke-width:1.25"
       d="m 51.994634,20.760695 c -5.316352,0.04441 -5.229378,7.847981 0,7.816406 5.229377,-0.03158 5.316351,-7.860813 0,-7.816406 z M 8.4913343,30.305842 c 1.8999087,8.942735 7.4528287,16.189807 14.7712817,20.337234 1.455415,0.824795 3.685344,0.411927 4.777682,-0.855431 4.101867,-4.759093 9.168804,-13.060463 7.83081,-24.086825 -0.201527,-1.66078 -1.842037,-3.254751 -3.504454,-3.444389 -7.472162,-0.852375 -14.987538,0.449667 -21.682891,3.650566 -1.5095657,0.72169 -2.5401013,2.762374 -2.1924287,4.398845 z M 44.64976,26.296364 c -2.086585,0.967388 -4.557817,1.986084 -6.708354,2.617698 0.04036,0.554274 0.05836,1.108637 0.05857,1.662803 4.76e-4,1.274508 0.920238,2.085111 2.152867,1.760086 C 43.399227,31.480929 46.76983,30.335564 49.0625,29.480475 48.16831,28.770689 47.650284,28.138338 47.327612,27.506359 46.750661,26.376354 45.80629,25.76017 44.64976,26.296364 Z"
       sodipodi:nodetypes="zzzccccccccc"
       inkscape:path-effect="#path-effect12"
       inkscape:original-d="m 51.994634,20.760695 c -5.316352,0.04441 -5.229378,7.847981 0,7.816406 5.229377,-0.03158 5.316351,-7.860813 0,-7.816406 z M 8.0019531,27.316408 C 9.3287063,38.744073 16.486936,47.841226 25.970691,52.000004 30.431656,47.609989 38.564877,37.293471 35.361365,22.714851 25.908446,20.894863 16.199682,22.603076 8.0019531,27.316408 Z M 46.726562,25.289062 c -2.336763,1.188478 -5.858025,2.7653 -8.785156,3.625 0.09638,1.323713 0.06526,2.647932 -0.03125,3.968756 3.852971,-0.850087 8.323305,-2.347206 11.152344,-3.402343 -1.890349,-1.500512 -2.099563,-2.654956 -2.335938,-4.191413 z" /><path
       style="fill:#ffffff;stroke-width:1.25"
       d="m 23.000794,30.00061 c -1.65682,0 -2.999939,1.343119 -2.999939,2.999939 6.8e-4,1.091323 0.591711,2.080077 1.516588,2.605864 0.263028,0.14953 0.498995,0.471718 0.498995,0.774689 v 1.033683 a 1.57812,1.57812 45.084053 0 0 1.57349,1.578113 l 0.837308,0.0025 a 1.1933197,1.1933197 127.34432 0 0 1.153535,-1.511803 l -0.468768,-1.69268 c -0.08086,-0.291981 0.0443,-0.687327 0.233085,-0.923752 0.420003,-0.525994 0.654428,-1.182889 0.655638,-1.866599 0,-1.65682 -1.343118,-2.999939 -2.999939,-2.999939 z"
       id="path5"
       inkscape:path-effect="#path-effect13"
       inkscape:original-d="m 23.000794,30.00061 c -1.65682,0 -2.999939,1.343119 -2.999939,2.999939 7.96e-4,1.276715 0.809554,2.413052 2.015583,2.831975 v 3.155757 l 3.984288,0.01169 -1.035135,-3.737779 c 0.656045,-0.568596 1.033599,-1.393516 1.035135,-2.261672 0,-1.65682 -1.343118,-2.999939 -2.999939,-2.999939 z"
       sodipodi:nodetypes="ccccccccc" /><path
       d="m 26.496094,13.457031 c 0.721976,0.474439 1.408331,1.287343 2.045998,2.076945 0.503291,0.623208 1.545318,0.946836 2.331022,0.789736 2.821528,-0.564158 7.61273,-0.947164 12.107312,1.413436 0.709158,0.372458 1.843379,0.470874 2.575247,0.144323 0.826712,-0.368869 1.653323,-0.737971 2.479483,-1.108029 C 41.56839,11.615626 33.226432,10.86885 26.496094,13.457031 Z m -7.480469,0.660157 c -4.112471,0.669637 -7.015578,4.523321 -7.392578,9.179687 0.09325,-0.03941 0.18385,-0.08628 0.277344,-0.125 0.03739,0 0.456797,-0.189871 1.304648,-0.505776 0.749387,-0.279217 1.493554,-1.124853 1.791085,-1.868045 0.839273,-2.096389 2.429365,-3.63236 4.464795,-3.966023 1.869583,-0.305356 3.871067,0.484144 5.33163,2.09329 0.537868,0.592585 1.515186,1.095625 2.316294,1.085525 0.545393,-0.0069 1.091084,0.0061 1.637233,0.02431 -2.311555,-5.021747 -6.658266,-6.421472 -9.730451,-5.917969 z m 30.496094,3.949218 c -5.208324,2.396461 -8.204293,3.282665 -10.947739,3.865995 -0.700301,0.148903 -1.132099,0.82052 -1.040348,1.530334 0.114427,0.885242 0.155203,1.782021 0.234219,2.670115 5.230344,-1.713418 9.317037,-4.010583 11.660254,-5.50505 0.603525,-0.38492 0.808099,-1.225617 0.470355,-1.857052 z m 2.753707,13.067579 c -3.992973,1.898255 -8.170037,3.367059 -12.440546,4.525268 -1.474556,0.399916 -2.873905,1.914647 -3.346411,3.365094 -0.108756,0.333848 -0.229374,0.688333 -0.361282,1.065497 3.74715,-0.327983 11.029388,-1.833258 14.776513,-4.425689 0.37645,-0.260446 0.60203,-0.132826 0.490086,0.311149 -1.702781,6.753282 -9.830855,10.832242 -15.306668,10.574252 -1.517222,-0.07148 -3.302113,0.489247 -4.180667,1.73878 -0.84933,1.207968 -1.676389,2.19273 -2.580118,3.176674 9.437199,2.062525 24.202534,-2.357721 26.506043,-17.999149 0.350165,-2.377715 -1.384925,-3.364454 -3.55695,-2.331876 z"
       style="fill:#3f3f3f;stroke-width:1.25"
       id="path11"
       sodipodi:nodetypes="ccccccccccccccccccccccccc"
       inkscape:path-effect="#path-effect11"
       inkscape:original-d="m 26.496094,13.457031 c 1.083167,0.711792 2.086155,2.185413 2.964843,3.199219 2.532336,-0.692209 9.073203,-1.915832 14.769532,1.816406 1.26845,-0.565894 2.537098,-1.131429 3.804687,-1.699214 C 41.56839,11.615626 33.226432,10.86885 26.496094,13.457031 Z m -7.480469,0.660157 c -4.112471,0.669637 -7.015578,4.523321 -7.392578,9.179687 0.09325,-0.03941 0.18385,-0.08628 0.277344,-0.125 0.05377,0 0.897709,-0.392726 2.669904,-0.988281 0.618369,-2.785552 2.428751,-4.947994 4.890624,-5.351563 2.27531,-0.371623 4.745982,0.878373 6.199219,3.253906 1.027735,-0.100797 2.056021,-0.08515 3.085938,-0.05078 -2.311555,-5.021747 -6.658266,-6.421472 -9.730451,-5.917969 z m 30.496094,3.949218 c -6.019587,2.76974 -9.083938,3.522098 -12.218745,4.121096 0.314567,1.290178 0.34761,2.627328 0.464877,3.945348 C 43.918911,24.114537 48.493092,21.286242 50.5,19.914062 Z M 56.128906,29.125 c -5.933176,3.367865 -12.370812,5.630522 -18.984375,7.21875 -0.107718,0.941975 -0.464881,2.137851 -1.027344,3.746094 3.981939,-0.348534 11.955849,-2.026515 15.4375,-4.925782 -1.445078,8.511386 -13.029717,13.1232 -18.164062,10.796875 -1.424536,2.411175 -2.654842,3.958634 -4.074292,5.504073 10.25833,2.241985 26.812335,-3.176011 26.812573,-22.34001 z" /></g></g><path
   id="path2-9"
   style="mix-blend-mode:normal;fill:none;stroke:#000000;stroke-width:0.2;stroke-dasharray:none;stroke-opacity:1;filter:url(#filter14)"
   d="M 32.759231,9.0657383 C 29.331481,9.1974709 26.353391,10.040226 24.481887,11.446598 11.741678,8.8573423 9.5866367,22.210751 9.4799337,22.930972 c -2.298957,0.964383 -3.548377,3.110904 -3.408203,5.587891 1.607723,13.848006 10.7236823,26.433594 28.8632813,26.433594 5.224413,0 23.003925,-5.605809 23.003906,-22.91211 0,-2.017213 -0.203276,-3.883059 -0.580078,-5.605468 0.513216,-2.143498 -0.189067,-4.812986 -2.482422,-6.351563 C 50.012515,11.92635 40.30028,8.7759265 32.759231,9.0657383 Z m 2.160156,4.0878907 c 4.398893,0.03801 8.911477,1.455969 12.73047,4.501953 -0.780631,0.349664 -1.562597,0.698334 -2.34375,1.046875 -0.691535,0.308555 -1.763517,0.215213 -2.433594,-0.136719 -4.246889,-2.23051 -8.773418,-1.867052 -11.439454,-1.333984 -0.742405,0.148442 -1.72757,-0.15723 -2.203125,-0.746094 -0.602526,-0.746087 -1.251405,-1.514598 -1.933594,-1.962891 2.384788,-0.91708 4.983712,-1.391945 7.623047,-1.36914 z m -13.550781,1.902343 c 2.760702,-6.94e-4 6.143541,1.529763 8.054687,5.681641 -0.516051,-0.01717 -1.031538,-0.02994 -1.546875,-0.02344 -0.756959,0.0095 -1.681226,-0.465463 -2.189453,-1.025391 -1.380072,-1.520467 -3.270557,-2.265091 -5.037109,-1.976563 -1.92326,0.315275 -3.425729,1.765235 -4.21875,3.746094 -0.281135,0.702235 -0.98527,1.501796 -1.69336,1.765625 -0.801127,0.298496 -1.197091,0.478516 -1.232421,0.478516 -0.08834,0.03658 -0.173609,0.07995 -0.261719,0.117187 0.356224,-4.399758 3.100492,-8.041094 6.986328,-8.673828 0.36286,-0.05947 0.744286,-0.08974 1.138672,-0.08984 z m 27.675782,3.822266 0.355469,0.664062 c 0.319131,0.596638 0.126905,1.392153 -0.44336,1.75586 -2.214083,1.412108 -6.075474,3.582179 -11.017578,5.201172 -0.07466,-0.839152 -0.114536,-1.686981 -0.222657,-2.523438 -0.08669,-0.670696 0.322668,-1.304615 0.984376,-1.445312 2.592257,-0.551183 5.422452,-1.387949 10.34375,-3.652344 z m 2.345702,2.544922 c 5.023371,-0.04196 4.941191,7.356879 0,7.386719 -4.941191,0.02983 -5.023372,-7.344759 0,-7.386719 z m -23.835937,1.1875 c 1.757453,-0.04934 3.525921,0.02521 5.291015,0.226562 1.570803,0.179187 3.120126,1.684652 3.310547,3.253907 1.264259,10.418709 -3.522621,18.262942 -7.398437,22.759765 -1.032141,1.197516 -3.140416,1.587936 -4.515625,0.808594 -6.915139,-3.918865 -12.161825,-10.766889 -13.957031,-19.216797 -0.3285123,-1.546287 0.64589,-3.474331 2.072265,-4.15625 4.744784,-2.268375 9.924904,-3.527768 15.197266,-3.675781 z m 17.675782,3.857422 c 0.737544,6e-5 1.341134,0.529279 1.75,1.330078 0.30489,0.597151 0.795713,1.194564 1.640625,1.865234 -2.166323,0.807966 -5.352444,1.890372 -8.419922,2.699219 -1.1647,0.307113 -2.032753,-0.459792 -2.033203,-1.664063 -2e-4,-0.523626 -0.01655,-1.046583 -0.05469,-1.570312 2.032023,-0.596806 4.366295,-1.560533 6.337891,-2.474609 0.273199,-0.126662 0.533449,-0.185567 0.779297,-0.185547 z m -21.234376,3.685547 c -1.565514,0 -2.835938,1.270423 -2.835937,2.835937 6.42e-4,1.031181 0.559686,1.964127 1.433593,2.460938 0.248533,0.141289 0.470703,0.446148 0.470703,0.732422 v 0.976562 a 1.4911512,1.4911512 0 0 0 1.488282,1.492188 l 0.791015,0.002 a 1.1275569,1.1275569 0 0 0 1.089844,-1.429688 L 25.9897,35.626332 c -0.0764,-0.27589 0.04232,-0.649651 0.220703,-0.873047 0.396857,-0.497007 0.617996,-1.117641 0.61914,-1.763672 0,-1.565514 -1.268469,-2.835937 -2.833984,-2.835937 z m 29.08789,0.6875 c 1.311417,-0.04407 2.171979,0.902879 1.923829,2.58789 -2.176565,14.779442 -16.127797,18.954721 -25.044922,17.00586 0.853926,-0.929719 1.634976,-1.858602 2.4375,-3 0.830138,-1.180672 2.517563,-1.712072 3.951172,-1.644532 5.174047,0.243772 12.853949,-3.60912 14.46289,-9.990234 0.105775,-0.419508 -0.107186,-0.541015 -0.46289,-0.294922 -3.540624,2.449564 -10.422242,3.871733 -13.962891,4.181641 0.124639,-0.356379 0.239035,-0.69041 0.341797,-1.00586 0.446467,-1.370514 1.768815,-2.80181 3.16211,-3.179687 4.035164,-1.094381 7.980983,-2.481747 11.753905,-4.275391 0.513082,-0.243918 1.000361,-0.370075 1.4375,-0.384765 z"
   transform="matrix(1.0603936,0,0,1.0603936,-1.9325985,-1.9325961)" />
</svg>
