<?xml version="1.0" encoding="UTF-8" standalone="no"?>
<svg
   width="64"
   height="64"
   version="1.1"
   id="svg6"
   sodipodi:docname="live-usb-kernel-updater.svg"
   inkscape:version="1.4.2 (ebf0e940d0, 2025-05-08)"
   xmlns:inkscape="http://www.inkscape.org/namespaces/inkscape"
   xmlns:sodipodi="http://sodipodi.sourceforge.net/DTD/sodipodi-0.dtd"
   xmlns:xlink="http://www.w3.org/1999/xlink"
   xmlns="http://www.w3.org/2000/svg"
   xmlns:svg="http://www.w3.org/2000/svg">
  <defs
     id="defs6">
    <inkscape:path-effect
       effect="fillet_chamfer"
       id="path-effect3"
       is_visible="true"
       lpeversion="1"
       nodesatellites_param="F,0,0,1,0,0,0,1 @ F,0,0,1,0,0,0,1 @ F,0,0,1,0,0,0,1 @ F,0,0,1,0,0,0,1 @ F,0,0,1,0,0,0,1 @ F,0,0,1,0,0,0,1 @ F,0,0,1,0,0,0,1 @ F,0,0,1,0,0,0,1 @ F,0,0,1,0,0.65005314,0,1 @ F,0,0,1,0,1.2860291,0,1 @ F,0,0,1,0,1.2860291,0,1 @ F,0,0,1,0,1.2860291,0,1 @ F,0,1,1,0,0.65005314,0,1 @ F,0,0,1,0,0,0,1"
       radius="0"
       unit="px"
       method="auto"
       mode="F"
       chamfer_steps="1"
       flexible="false"
       use_knot_distance="true"
       apply_no_radius="true"
       apply_with_radius="true"
       only_selected="false"
       hide_knots="false" />
    <linearGradient
       id="linearGradient11"
       inkscape:collect="always">
      <stop
         style="stop-color:#42e67d;stop-opacity:1;"
         offset="0"
         id="stop11-3" />
      <stop
         style="stop-color:#1fc256;stop-opacity:1;"
         offset="1"
         id="stop12-6" />
    </linearGradient>
    <inkscape:path-effect
       effect="fillet_chamfer"
       id="path-effect2"
       is_visible="true"
       lpeversion="1"
       nodesatellites_param="F,0,0,1,0,1.5174723,0,1 @ F,0,0,1,0,0.84037867,0,1 @ F,0,0,1,0,1.5174723,0,1 @ F,0,0,1,0,0.6507184,0,1 @ F,0,0,1,0,3.5238442,0,1 @ F,0,1,1,0,3.5238442,0,1 @ F,0,0,1,0,0.6507184,0,1"
       radius="0"
       unit="px"
       method="auto"
       mode="F"
       chamfer_steps="1"
       flexible="false"
       use_knot_distance="true"
       apply_no_radius="true"
       apply_with_radius="true"
       only_selected="false"
       hide_knots="false" />
    <filter
       inkscape:collect="always"
       style="color-interpolation-filters:sRGB"
       id="filter2"
       x="-0.096495089"
       y="-0.14171053"
       width="1.1929902"
       height="1.2834211">
      <feGaussianBlur
         inkscape:collect="always"
         stdDeviation="1.9658992"
         id="feGaussianBlur2" />
    </filter>
    <filter
       inkscape:collect="always"
       style="color-interpolation-filters:sRGB"
       id="filter12-3"
       x="-0.12045395"
       y="-0.23387343"
       width="1.2409079"
       height="1.4700367">
      <feGaussianBlur
         inkscape:collect="always"
         stdDeviation="1.9658992"
         id="feGaussianBlur12-6" />
    </filter>
    <radialGradient
       inkscape:collect="always"
       xlink:href="#linearGradient6-5"
       id="radialGradient9-7"
       cx="3.6037257"
       cy="69.383522"
       fx="3.6037257"
       fy="69.383522"
       r="28"
       gradientTransform="matrix(3.6631184,0,0,2.2240362,-28.347651,-92.905992)"
       gradientUnits="userSpaceOnUse" />
    <linearGradient
       id="linearGradient6-5"
       inkscape:collect="always">
      <stop
         style="stop-color:#2f2f2f;stop-opacity:1;"
         offset="0"
         id="stop6-3" />
      <stop
         style="stop-color:#686868;stop-opacity:1;"
         offset="1"
         id="stop7-3" />
    </linearGradient>
    <inkscape:path-effect
       effect="fillet_chamfer"
       id="path-effect10-7"
       is_visible="true"
       lpeversion="1"
       nodesatellites_param="F,0,1,1,0,1.1149572,0,1 @ F,0,1,1,0,1.1149572,0,1 @ F,0,1,1,0,1.1149572,0,1 @ F,0,1,1,0,1.1149572,0,1"
       radius="0"
       unit="px"
       method="auto"
       mode="F"
       chamfer_steps="1"
       flexible="false"
       use_knot_distance="true"
       apply_no_radius="true"
       apply_with_radius="true"
       only_selected="false"
       hide_knots="false" />
    <inkscape:path-effect
       effect="fillet_chamfer"
       id="path-effect10-6"
       is_visible="true"
       lpeversion="1"
       nodesatellites_param="F,0,1,1,0,1.1149572,0,1 @ F,0,1,1,0,1.1149572,0,1 @ F,0,1,1,0,1.1149572,0,1 @ F,0,1,1,0,1.1149572,0,1"
       radius="0"
       unit="px"
       method="auto"
       mode="F"
       chamfer_steps="1"
       flexible="false"
       use_knot_distance="true"
       apply_no_radius="true"
       apply_with_radius="true"
       only_selected="false"
       hide_knots="false" />
    <inkscape:path-effect
       effect="fillet_chamfer"
       id="path-effect9-3"
       is_visible="true"
       lpeversion="1"
       nodesatellites_param="F,0,1,1,0,5.2514818,0,1 @ F,0,0,1,0,5.2514818,0,1 @ F,0,0,1,0,0,0,1 @ F,0,0,1,0,0,0,1"
       radius="0"
       unit="px"
       method="auto"
       mode="F"
       chamfer_steps="1"
       flexible="false"
       use_knot_distance="true"
       apply_no_radius="true"
       apply_with_radius="true"
       only_selected="false"
       hide_knots="false" />
    <radialGradient
       inkscape:collect="always"
       xlink:href="#linearGradient11"
       id="radialGradient3"
       cx="36.650345"
       cy="52.676434"
       fx="36.650345"
       fy="52.676434"
       r="8.0001001"
       gradientTransform="matrix(3.8176986,0,0,4.5334606,-103.26963,-184.13905)"
       gradientUnits="userSpaceOnUse" />
  </defs>
  <sodipodi:namedview
     id="namedview6"
     pagecolor="#ffffff"
     bordercolor="#000000"
     borderopacity="0.25"
     inkscape:showpageshadow="2"
     inkscape:pageopacity="0.0"
     inkscape:pagecheckerboard="0"
     inkscape:deskcolor="#d1d1d1"
     inkscape:zoom="8"
     inkscape:cx="31.25"
     inkscape:cy="19.3125"
     inkscape:window-width="1992"
     inkscape:window-height="1377"
     inkscape:window-x="0"
     inkscape:window-y="0"
     inkscape:window-maximized="0"
     inkscape:current-layer="g7" />
  <g
     id="g7"
     transform="translate(-1.5,-2)">
    <g
       id="g1"
       transform="translate(23.284987,-0.14847997)">
      <path
         id="rect2-5"
         style="fill:#b4b4b4;fill-opacity:1"
         d="M 17.251482,6 H 46.748518 A 5.2514818,5.2514818 45 0 1 52,11.251482 v 19.5564 H 12 v -19.5564 A 5.2514818,5.2514818 135 0 1 17.251482,6 Z"
         inkscape:path-effect="#path-effect9-3"
         inkscape:original-d="M 12,6 H 52 V 30.807882 H 12 Z"
         transform="translate(-21.784015,1.1233585)"
         sodipodi:nodetypes="ccccc" />
      <path
         style="opacity:0.450368;fill:#000000;fill-opacity:1"
         inkscape:path-effect="#path-effect10-6"
         inkscape:original-d="M 16,9.2304688 V 15.230469 H 26 V 9.2304688 Z"
         transform="matrix(1.2968801,0,0,1.2968801,-26.450269,-0.96773948)"
         d="m 16,10.345426 v 3.770086 a 1.1149572,1.1149572 45 0 0 1.114957,1.114957 l 7.770086,0 A 1.1149572,1.1149572 135 0 0 26,14.115512 l 0,-3.770086 A 1.1149572,1.1149572 45 0 0 24.885043,9.2304688 H 17.114957 A 1.1149572,1.1149572 135 0 0 16,10.345426 Z"
         id="rect7-6" />
      <path
         style="opacity:0.450368;fill:#000000;fill-opacity:1"
         inkscape:path-effect="#path-effect10-7"
         inkscape:original-d="M 16,9.2304688 V 15.230469 H 26 V 9.2304688 Z"
         transform="matrix(1.2968801,0,0,1.2968801,-7.5867255,-0.88892178)"
         d="m 16,10.345426 v 3.770086 a 1.1149572,1.1149572 45 0 0 1.114957,1.114957 l 7.770086,0 A 1.1149572,1.1149572 135 0 0 26,14.115512 l 0,-3.770086 A 1.1149572,1.1149572 45 0 0 24.885043,9.2304688 H 17.114957 A 1.1149572,1.1149572 135 0 0 16,10.345426 Z"
         id="rect7-6-3" />
      <rect
         style="fill:url(#radialGradient9-7)"
         width="49.931034"
         height="34"
         x="-14.750504"
         y="27.172619"
         rx="7.8817735"
         ry="7.8817735"
         id="rect3-6" />
      <path
         d="m -4.5330345,7.1235769 a 5.2514818,5.2514818 0 0 0 -5.25,5.2500001 V 27.72514 c 0.901191,-0.356889 1.884899,-0.552735 2.916016,-0.552735 H 27.300946 c 1.03123,0 2.01492,0.195777 2.91602,0.552735 V 12.373577 A 5.2514818,5.2514818 0 0 0 24.965012,7.1235769 Z m 0.279297,3.8789061 h 10.076172 a 1.4459658,1.4459658 0 0 1 1.447266,1.445313 v 4.890625 a 1.4459658,1.4459658 0 0 1 -1.447266,1.445312 h -10.076172 a 1.4459658,1.4459658 0 0 1 -1.445312,-1.445312 v -4.890625 a 1.4459658,1.4459658 0 0 1 1.445312,-1.445313 z m 18.8632805,0.07813 h 10.076172 a 1.4459658,1.4459658 0 0 1 1.447271,1.447266 v 4.888672 a 1.4459658,1.4459658 0 0 1 -1.447271,1.445312 H 14.609543 a 1.4459658,1.4459658 0 0 1 -1.445312,-1.445312 v -4.888672 a 1.4459658,1.4459658 0 0 1 1.445312,-1.447266 z"
         style="mix-blend-mode:normal;fill:none;stroke:#000000;stroke-width:0.2;stroke-dasharray:none;stroke-opacity:1;filter:url(#filter12-3)"
         id="path10" />
      <path
         id="path6-7"
         style="mix-blend-mode:normal;fill:none;fill-opacity:1;stroke:#000000;stroke-width:0.2;stroke-dasharray:none;stroke-opacity:1;filter:url(#filter2)"
         d="m -6.8679945,27.17338 c -4.3665035,0 -7.8828135,3.514356 -7.8828135,7.880859 v 18.236328 c 0,4.366502 3.51631,7.882813 7.8828135,7.882813 H 27.299973 c 4.36651,0 7.88086,-3.516311 7.88086,-7.882813 V 35.054239 c 0,-4.366503 -3.51435,-7.880859 -7.88086,-7.880859 z"
         sodipodi:nodetypes="sssssssss" />
    </g>
    <g
       id="g6"
       transform="rotate(45,41.681042,26.419956)">
      <path
         d="m 38.787407,44.671428 c 0,5.218698 4.230566,9.449028 9.449028,9.449028 5.165547,0 9.35501,-3.79284 9.439815,-8.938308 0.0057,-0.05209 0.009,-0.104436 0.0094,-0.156854 0,-0.869764 -0.902164,-1.534995 -1.771929,-1.534995 -0.869764,0 -1.771692,0.665231 -1.771692,1.534995 0,3.478896 -2.426369,5.551777 -5.905501,5.551777 -3.478896,0 -5.905785,-2.426511 -5.905785,-5.905643 0,-3.258093 2.128391,-5.593356 5.2564,-5.876667 0.357539,-0.03238 0.649376,0.262063 0.649364,0.621077 l -7.5e-5,2.354783 a 0.53266746,0.53266746 22.500946 0 0 0.90932,0.37667 l 4.181291,-4.181282 a 1.2861406,1.2861406 90.002545 0 0 8.1e-5,-1.818799 l -4.180387,-4.18112 a 0.53262169,0.53262169 157.5024 0 0 -0.909275,0.376589 l 9e-6,2.228014 c 10e-7,0.359014 -0.291434,0.647716 -0.649555,0.672029 -4.915696,0.333731 -8.799472,4.426908 -8.799472,9.427052 z"
         style="fill:url(#radialGradient3)"
         id="path6"
         sodipodi:nodetypes="csccssssccccccc"
         inkscape:path-effect="#path-effect3"
         inkscape:original-d="m 38.787407,44.671428 c 0,5.218698 4.230566,9.449028 9.449028,9.449028 5.165547,0 9.35501,-3.79284 9.439815,-8.938308 0.0057,-0.05209 0.009,-0.104436 0.0094,-0.156854 0,-0.869764 -0.902164,-1.534995 -1.771929,-1.534995 -0.869764,0 -1.771692,0.665231 -1.771692,1.534995 0,3.478896 -2.426369,5.551777 -5.905501,5.551777 -3.478896,0 -5.905785,-2.426511 -5.905785,-5.905643 0,-3.478896 2.426652,-5.905643 5.905785,-5.905643 l -1.37e-4,4.290865 6.000013,-6 -5.998947,-6 1.6e-5,4.164096 c -5.218699,0 -9.449029,4.230566 -9.449029,9.449028 z" />
    </g>
  </g>
</svg>
