<?xml version="1.0" encoding="UTF-8" standalone="no"?>
<svg
   width="64"
   height="64"
   version="1"
   id="svg3"
   sodipodi:docname="distributor-logo-manjaro.svg"
   inkscape:version="1.4.2 (ebf0e940d0, 2025-05-08)"
   xmlns:inkscape="http://www.inkscape.org/namespaces/inkscape"
   xmlns:sodipodi="http://sodipodi.sourceforge.net/DTD/sodipodi-0.dtd"
   xmlns:xlink="http://www.w3.org/1999/xlink"
   xmlns="http://www.w3.org/2000/svg"
   xmlns:svg="http://www.w3.org/2000/svg">
  <defs
     id="defs3">
    <inkscape:path-effect
       effect="fillet_chamfer"
       id="path-effect5"
       is_visible="true"
       lpeversion="1"
       nodesatellites_param="F,0,0,1,0,22.588189,0,1 @ F,0,0,1,0,0,0,1 @ F,0,0,1,0,0,0,1 @ F,0,0,1,0,3.7202619,0,1 @ F,0,0,1,0,6.7515382,0,1 @ F,0,0,1,0,3.7202619,0,1 @ F,0,0,1,0,3.7202619,0,1 | F,0,0,1,0,3.7202619,0,1 @ F,0,0,1,0,3.7202619,0,1 @ F,0,0,1,0,0,0,1 @ F,0,0,1,0,0,0,1 @ F,0,0,1,0,0,0,1 @ F,0,0,1,0,0,0,1 | F,0,0,1,0,3.7202619,0,1 @ F,0,0,1,0,3.7202619,0,1 @ F,0,0,1,0,3.7202619,0,1 @ F,0,0,1,0,3.7202619,0,1"
       radius="0"
       unit="px"
       method="auto"
       mode="F"
       chamfer_steps="1"
       flexible="false"
       use_knot_distance="true"
       apply_no_radius="true"
       apply_with_radius="true"
       only_selected="false"
       hide_knots="false" />
    <inkscape:path-effect
       effect="fillet_chamfer"
       id="path-effect4"
       nodesatellites_param="F,0,0,1,0,0,0,1 @ F,0,0,1,0,0,0,1 @ F,0,0,1,0,0,0,1 @ F,0,0,1,0,0,0,1 @ F,0,0,1,0,0,0,1 @ F,0,0,1,0,0,0,1 @ F,0,0,1,0,0,0,1 @ F,0,0,1,0,0,0,1 | F,0,0,1,0,0,0,1 @ F,0,0,1,0,0,0,1 @ F,0,0,1,0,0,0,1 @ F,0,0,1,0,0,0,1 @ F,0,0,1,0,0,0,1 @ F,0,0,1,0,0,0,1 | F,0,0,1,0,0,0,1 @ F,0,0,1,0,0,0,1 @ F,0,0,1,0,0,0,1 @ F,0,0,1,0,0,0,1"
       is_visible="true"
       lpeversion="1"
       radius="0"
       unit="px"
       method="auto"
       mode="F"
       chamfer_steps="1"
       flexible="false"
       use_knot_distance="true"
       apply_no_radius="true"
       apply_with_radius="true"
       only_selected="false"
       hide_knots="false" />
    <linearGradient
       id="linearGradient3"
       inkscape:collect="always">
      <stop
         style="stop-color:#42b07b;stop-opacity:1;"
         offset="0"
         id="stop3" />
      <stop
         style="stop-color:#00d66e;stop-opacity:1;"
         offset="1"
         id="stop4" />
    </linearGradient>
    <radialGradient
       inkscape:collect="always"
       xlink:href="#linearGradient3"
       id="radialGradient4"
       cx="25.189318"
       cy="61.716137"
       fx="25.189318"
       fy="61.716137"
       r="28"
       gradientUnits="userSpaceOnUse"
       gradientTransform="matrix(2.0487408,-2.0487408,2.0487408,2.0487408,-142.97374,-3.7184106)" />
    <inkscape:path-effect
       effect="fillet_chamfer"
       id="path-effect5-3"
       is_visible="true"
       lpeversion="1"
       nodesatellites_param="F,0,0,1,0,22.588189,0,1 @ F,0,0,1,0,0,0,1 @ F,0,0,1,0,0,0,1 @ F,0,0,1,0,3.7202619,0,1 @ F,0,0,1,0,6.7515382,0,1 @ F,0,0,1,0,3.7202619,0,1 @ F,0,0,1,0,3.7202619,0,1 | F,0,0,1,0,3.7202619,0,1 @ F,0,0,1,0,3.7202619,0,1 @ F,0,0,1,0,0,0,1 @ F,0,0,1,0,0,0,1 @ F,0,0,1,0,0,0,1 @ F,0,0,1,0,0,0,1 | F,0,0,1,0,3.7202619,0,1 @ F,0,0,1,0,3.7202619,0,1 @ F,0,0,1,0,3.7202619,0,1 @ F,0,0,1,0,3.7202619,0,1"
       radius="0"
       unit="px"
       method="auto"
       mode="F"
       chamfer_steps="1"
       flexible="false"
       use_knot_distance="true"
       apply_no_radius="true"
       apply_with_radius="true"
       only_selected="false"
       hide_knots="false" />
    <filter
       inkscape:collect="always"
       style="color-interpolation-filters:sRGB"
       id="filter5"
       x="-0.097797903"
       y="-0.097797903"
       width="1.1955958"
       height="1.1955958">
      <feGaussianBlur
         inkscape:collect="always"
         stdDeviation="2.2166311"
         id="feGaussianBlur5" />
    </filter>
  </defs>
  <sodipodi:namedview
     id="namedview3"
     pagecolor="#505050"
     bordercolor="#eeeeee"
     borderopacity="1"
     inkscape:showpageshadow="0"
     inkscape:pageopacity="0"
     inkscape:pagecheckerboard="0"
     inkscape:deskcolor="#505050"
     inkscape:zoom="8"
     inkscape:cx="30.0625"
     inkscape:cy="38"
     inkscape:window-width="1920"
     inkscape:window-height="1020"
     inkscape:window-x="0"
     inkscape:window-y="0"
     inkscape:window-maximized="1"
     inkscape:current-layer="svg3" />
  <path
     style="fill:url(#radialGradient4)"
     d="M 4.0899664,26.588189 4.089814,57.2 c -7.7e-6,1.5512 1.2488,2.8 2.8,2.8 h 10.479738 a 3.7202619,3.7202619 135 0 0 3.720262,-3.720262 v -28.5282 A 6.7515382,6.7515382 135 0 1 27.841352,21 h 8.5282 a 3.7202619,3.7202619 135 0 0 3.720262,-3.720262 V 7.7202619 A 3.7202619,3.7202619 45 0 0 36.369552,4 H 26.678268 A 22.588301,22.588301 135.00014 0 0 4.0899664,26.588189 Z M 43.089814,7.7202619 l 0,48.5594761 A 3.7202619,3.7202619 45 0 0 46.810076,60 h 10.479738 c 1.5512,0 2.8,-1.2488 2.8,-2.8 V 6.8 c 0,-1.5512 -1.2488,-2.8 -2.8,-2.8 H 46.810076 a 3.7202619,3.7202619 135 0 0 -3.720262,3.7202619 z m -19,20.0000001 0,28.559476 A 3.7202619,3.7202619 45 0 0 27.810076,60 h 8.559476 a 3.7202619,3.7202619 135 0 0 3.720262,-3.720262 l 0,-28.559476 A 3.7202619,3.7202619 45 0 0 36.369552,24 l -8.559476,0 a 3.7202619,3.7202619 135 0 0 -3.720262,3.720262 z"
     id="path2"
     inkscape:path-effect="#path-effect5"
     inkscape:original-d="M 4.0900788,4 4.089814,57.2 c -7.7e-6,1.5512 1.2488,2.8 2.8,2.8 h 14.2 V 21 h 19 V 4 Z M 43.089814,4 v 56 h 14.2 c 1.5512,0 2.8,-1.2488 2.8,-2.8 V 6.8 c 0,-1.5512 -1.2488,-2.8 -2.8,-2.8 z m -19,20 v 36 h 16 V 24 Z"
     sodipodi:nodetypes="csscccccccsssscccccc"
     transform="matrix(0.95682998,0,0,0.95682998,1.3814407,1.3814407)" />
  <path
     style="fill:none;stroke:#000000;stroke-width:0.31353548;stroke-dasharray:none;stroke-opacity:1;filter:url(#filter5)"
     d="M 4.0899664,26.588189 4.089814,57.2 c -7.7e-6,1.5512 1.2488,2.8 2.8,2.8 h 10.479738 a 3.7202619,3.7202619 135 0 0 3.720262,-3.720262 v -28.5282 A 6.7515382,6.7515382 135 0 1 27.841352,21 h 8.5282 a 3.7202619,3.7202619 135 0 0 3.720262,-3.720262 V 7.7202619 A 3.7202619,3.7202619 45 0 0 36.369552,4 H 26.678268 A 22.588301,22.588301 135.00014 0 0 4.0899664,26.588189 Z M 43.089814,7.7202619 l 0,48.5594761 A 3.7202619,3.7202619 45 0 0 46.810076,60 h 10.479738 c 1.5512,0 2.8,-1.2488 2.8,-2.8 V 6.8 c 0,-1.5512 -1.2488,-2.8 -2.8,-2.8 H 46.810076 a 3.7202619,3.7202619 135 0 0 -3.720262,3.7202619 z m -19,20.0000001 0,28.559476 A 3.7202619,3.7202619 45 0 0 27.810076,60 h 8.559476 a 3.7202619,3.7202619 135 0 0 3.720262,-3.720262 l 0,-28.559476 A 3.7202619,3.7202619 45 0 0 36.369552,24 l -8.559476,0 a 3.7202619,3.7202619 135 0 0 -3.720262,3.720262 z"
     id="path2-5"
     inkscape:path-effect="#path-effect5-3"
     inkscape:original-d="M 4.0900788,4 4.089814,57.2 c -7.7e-6,1.5512 1.2488,2.8 2.8,2.8 h 14.2 V 21 h 19 V 4 Z M 43.089814,4 v 56 h 14.2 c 1.5512,0 2.8,-1.2488 2.8,-2.8 V 6.8 c 0,-1.5512 -1.2488,-2.8 -2.8,-2.8 z m -19,20 v 36 h 16 V 24 Z"
     sodipodi:nodetypes="csscccccccsssscccccc"
     transform="matrix(0.95682998,0,0,0.95682998,1.295504,1.3814407)" />
</svg>
