<?xml version="1.0" encoding="UTF-8" standalone="no"?>
<svg
   width="64"
   height="64"
   version="1"
   id="svg4"
   sodipodi:docname="eu.tiliado.NuvolaApp8tracks.svg"
   inkscape:version="1.4.2 (ebf0e940d0, 2025-05-08)"
   xmlns:inkscape="http://www.inkscape.org/namespaces/inkscape"
   xmlns:sodipodi="http://sodipodi.sourceforge.net/DTD/sodipodi-0.dtd"
   xmlns="http://www.w3.org/2000/svg"
   xmlns:svg="http://www.w3.org/2000/svg">
  <defs
     id="defs4">
    <inkscape:path-effect
       effect="fillet_chamfer"
       id="path-effect4"
       is_visible="true"
       lpeversion="1"
       nodesatellites_param="F,0,0,1,0,0,0,1 @ F,0,0,1,0,0,0,1 @ F,0,1,1,0,3.1366114,0,1 @ F,0,0,1,0,3.1366114,0,1 @ F,0,0,1,0,0,0,1 @ F,0,0,1,0,0,0,1 @ F,0,0,1,0,0,0,1 @ F,0,0,1,0,0,0,1 @ F,0,0,1,0,0,0,1 @ F,0,0,1,0,0,0,1 @ F,0,0,1,0,0,0,1 @ F,0,0,1,0,0,0,1 @ F,0,0,1,0,3.1255915,0,1 @ F,0,0,1,0,3.1255915,0,1 @ F,0,0,1,0,0,0,1 @ F,0,0,1,0,0,0,1 @ F,0,0,1,0,0,0,1 @ F,0,0,1,0,0,0,1 @ F,0,0,1,0,0,0,1 @ F,0,0,1,0,0,0,1 @ F,0,0,1,0,0,0,1"
       radius="0"
       unit="px"
       method="auto"
       mode="F"
       chamfer_steps="1"
       flexible="false"
       use_knot_distance="true"
       apply_no_radius="true"
       apply_with_radius="true"
       only_selected="false"
       hide_knots="false" />
    <inkscape:path-effect
       effect="fillet_chamfer"
       id="path-effect4-3"
       is_visible="true"
       lpeversion="1"
       nodesatellites_param="F,0,0,1,0,0,0,1 @ F,0,0,1,0,0,0,1 @ F,0,1,1,0,3.1366114,0,1 @ F,0,0,1,0,3.1366114,0,1 @ F,0,0,1,0,0,0,1 @ F,0,0,1,0,0,0,1 @ F,0,0,1,0,0,0,1 @ F,0,0,1,0,0,0,1 @ F,0,0,1,0,0,0,1 @ F,0,0,1,0,0,0,1 @ F,0,0,1,0,0,0,1 @ F,0,0,1,0,0,0,1 @ F,0,0,1,0,3.1255915,0,1 @ F,0,0,1,0,3.1255915,0,1 @ F,0,0,1,0,0,0,1 @ F,0,0,1,0,0,0,1 @ F,0,0,1,0,0,0,1 @ F,0,0,1,0,0,0,1 @ F,0,0,1,0,0,0,1 @ F,0,0,1,0,0,0,1 @ F,0,0,1,0,0,0,1"
       radius="0"
       unit="px"
       method="auto"
       mode="F"
       chamfer_steps="1"
       flexible="false"
       use_knot_distance="true"
       apply_no_radius="true"
       apply_with_radius="true"
       only_selected="false"
       hide_knots="false" />
    <filter
       inkscape:collect="always"
       style="color-interpolation-filters:sRGB"
       id="filter5"
       x="-0.037170779"
       y="-0.037060521"
       width="1.0743397"
       height="1.0741497">
      <feGaussianBlur
         inkscape:collect="always"
         stdDeviation="0.66667532"
         id="feGaussianBlur5" />
    </filter>
    <radialGradient
       id="SVGID_1_-3-2"
       cx="-159.43106"
       cy="15.462561"
       r="64.706802"
       gradientTransform="matrix(-0.89413329,0,0,0.96304834,-16.529598,49.336564)"
       gradientUnits="userSpaceOnUse"
       fx="-159.43106"
       fy="15.462561">
	<stop
   offset="0"
   style="stop-color:#006fff;stop-opacity:1;"
   id="stop1-6-9" />

	<stop
   offset="1"
   style="stop-color:#15baff;stop-opacity:1;"
   id="stop2-7-1" />

</radialGradient>
    <filter
       inkscape:collect="always"
       style="color-interpolation-filters:sRGB"
       id="filter4"
       x="-0.070802971"
       y="-0.070802977"
       width="1.1416059"
       height="1.141606">
      <feGaussianBlur
         inkscape:collect="always"
         stdDeviation="1.5895694"
         id="feGaussianBlur4" />
    </filter>
    <radialGradient
       id="SVGID_2_-3-3"
       cx="21.0371"
       cy="56.209099"
       r="40.250599"
       gradientTransform="matrix(1,0,0,-1,0,66)"
       gradientUnits="userSpaceOnUse">
	<stop
   offset="0"
   style="stop-color:#FFFFFF"
   id="stop5-5-6" />

	<stop
   offset="1"
   style="stop-color:#C4C4C4"
   id="stop6-6-7" />

</radialGradient>
  </defs>
  <sodipodi:namedview
     id="namedview4"
     pagecolor="#505050"
     bordercolor="#eeeeee"
     borderopacity="1"
     inkscape:showpageshadow="0"
     inkscape:pageopacity="0"
     inkscape:pagecheckerboard="0"
     inkscape:deskcolor="#505050"
     inkscape:zoom="9.269728"
     inkscape:cx="40.454261"
     inkscape:cy="30.421605"
     inkscape:window-width="1920"
     inkscape:window-height="1020"
     inkscape:window-x="0"
     inkscape:window-y="0"
     inkscape:window-maximized="1"
     inkscape:current-layer="svg4" />
  <g
     id="g1"
     transform="translate(-64.224055,-0.00613667)">
    <path
       class="st1"
       d="m 84.997907,4.0579058 h 22.400003 c 9.3,0 16.8,7.4999992 16.8,16.7999992 v 22.4 c 0,9.3 -7.5,16.8 -16.8,16.8 H 84.997907 c -9.3,0 -16.799999,-7.5 -16.799999,-16.8 v -22.4 c 0,-9.3 7.499999,-16.7999992 16.799999,-16.7999992 z"
       id="path2"
       style="fill:url(#SVGID_1_-3-2)" />
    <path
       class="st1"
       d="m 85.024056,4.0061365 h 22.400004 c 9.3,0 16.8,7.4999995 16.8,16.7999995 v 22.4 c 0,9.3 -7.5,16.8 -16.8,16.8 H 85.024056 c -9.3,0 -16.8,-7.5 -16.8,-16.8 v -22.4 c 0,-9.3 7.5,-16.7999995 16.8,-16.7999995 z"
       id="path2-2"
       style="opacity:0.673189;fill:none;stroke:#000000;stroke-width:0.3;stroke-dasharray:none;stroke-opacity:1;filter:url(#filter4)" />
  </g>
  <path
     style="color:#000000;fill:#ffffff;stroke:none;stroke-linejoin:round;-inkscape-stroke:none"
     d="m 40.988281,8 c -4.625285,-0.1145101 -9.6543,1.9163642 -11.669547,6.334816 -1.011894,2.035374 -1.373637,4.27792 -1.421641,6.531547 C 27.860218,22.597563 29.404309,24 31.136611,24 c 1.581433,0 2.733374,-1.402999 2.770036,-3.134533 0.04568,-2.157475 0.47307,-4.289281 2.267181,-5.654529 2.469677,-1.522158 5.788061,-1.599424 8.427829,-0.482198 4.970191,2.502613 4.378698,10.936191 -0.809132,12.834681 -2.54612,0.749125 -5.239572,0.323782 -7.859575,0.436579 -5.480055,0.04249 -10.965867,-0.0896 -16.441922,0.07493 -4.981072,0.352394 -9.5546843,3.955181 -10.7991533,8.833176 -1.7929851,6.016126 0.9440817,13.344561 6.8630013,15.91581 5.776287,2.687891 13.605481,0.74011 16.693843,-5.052227 1.109587,-2.076102 1.610447,-4.395018 1.752044,-6.735764 0.104174,-1.722091 -1.401503,-3.083272 -3.126995,-3.033249 -1.586086,0.04598 -2.776537,1.48784 -2.926155,3.206547 -0.188005,2.159673 -0.788534,4.27598 -2.437101,5.741538 -2.195534,1.348677 -5.122166,1.355848 -7.48598,0.449302 C 13.119734,45.160565 12.728399,36.848928 17.802275,34.581427 20.35961,33.629232 23.137432,34.124485 25.807202,34 c 5.551653,-0.03822 11.108312,0.08019 16.656521,-0.06637 5.194156,-0.364983 9.822688,-4.279817 11.066581,-9.3307 C 55.151361,19.023566 52.91024,12.252172 47.565103,9.552522 45.551534,8.4843296 43.26063,7.9886177 40.988281,8 Z"
     id="path3"
     inkscape:path-effect="#path-effect4"
     inkscape:original-d="M 40.988281,8 C 36.362996,7.8854899 31.333981,9.9163642 29.318734,14.334816 27.835952,17.317359 27.749213,20.744752 28,24 c 2,0 4,0 6,0 -0.135766,-2.992294 -0.508868,-6.747635 2.173828,-8.789062 2.469677,-1.522158 5.788061,-1.599424 8.427829,-0.482198 4.970191,2.502613 4.378698,10.936191 -0.809132,12.834681 -2.54612,0.749125 -5.239572,0.323782 -7.859575,0.436579 -5.480055,0.04249 -10.965867,-0.0896 -16.441922,0.07493 -4.981072,0.352394 -9.5546843,3.955181 -10.7991533,8.833176 -1.7929851,6.016126 0.9440817,13.344561 6.8630013,15.91581 5.776287,2.687891 13.605481,0.74011 16.693843,-5.052227 1.60422,-3.001589 1.936029,-6.510729 1.749328,-9.859585 -1.998698,0.05794 -3.997396,0.115885 -5.996094,0.173828 0.09422,3.06158 -0.03807,6.683809 -2.491441,8.864829 -2.195534,1.348677 -5.122166,1.355848 -7.48598,0.449302 C 13.119734,45.160565 12.728399,36.848928 17.802275,34.581427 20.35961,33.629232 23.137432,34.124485 25.807202,34 c 5.551653,-0.03822 11.108312,0.08019 16.656521,-0.06637 5.194156,-0.364983 9.822688,-4.279817 11.066581,-9.3307 C 55.151361,19.023566 52.91024,12.252172 47.565103,9.552522 45.551534,8.4843296 43.26063,7.9886177 40.988281,8 Z"
     transform="matrix(0.94870892,0,0,0.94870892,1.6483217,1.6503262)" />
  <path
     style="color:#000000;fill:none;stroke:#0068ff;stroke-linejoin:round;stroke-opacity:1;filter:url(#filter5);stroke-width:0.21081289;stroke-dasharray:none"
     d="m 40.988281,8 c -4.625285,-0.1145101 -9.6543,1.9163642 -11.669547,6.334816 -1.011894,2.035374 -1.373637,4.27792 -1.421641,6.531547 C 27.860218,22.597563 29.404309,24 31.136611,24 c 1.581433,0 2.733374,-1.402999 2.770036,-3.134533 0.04568,-2.157475 0.47307,-4.289281 2.267181,-5.654529 2.469677,-1.522158 5.788061,-1.599424 8.427829,-0.482198 4.970191,2.502613 4.378698,10.936191 -0.809132,12.834681 -2.54612,0.749125 -5.239572,0.323782 -7.859575,0.436579 -5.480055,0.04249 -10.965867,-0.0896 -16.441922,0.07493 -4.981072,0.352394 -9.5546843,3.955181 -10.7991533,8.833176 -1.7929851,6.016126 0.9440817,13.344561 6.8630013,15.91581 5.776287,2.687891 13.605481,0.74011 16.693843,-5.052227 1.109587,-2.076102 1.610447,-4.395018 1.752044,-6.735764 0.104174,-1.722091 -1.401503,-3.083272 -3.126995,-3.033249 -1.586086,0.04598 -2.776537,1.48784 -2.926155,3.206547 -0.188005,2.159673 -0.788534,4.27598 -2.437101,5.741538 -2.195534,1.348677 -5.122166,1.355848 -7.48598,0.449302 C 13.119734,45.160565 12.728399,36.848928 17.802275,34.581427 20.35961,33.629232 23.137432,34.124485 25.807202,34 c 5.551653,-0.03822 11.108312,0.08019 16.656521,-0.06637 5.194156,-0.364983 9.822688,-4.279817 11.066581,-9.3307 C 55.151361,19.023566 52.91024,12.252172 47.565103,9.552522 45.551534,8.4843296 43.26063,7.9886177 40.988281,8 Z"
     id="path3-5"
     inkscape:path-effect="#path-effect4-3"
     inkscape:original-d="M 40.988281,8 C 36.362996,7.8854899 31.333981,9.9163642 29.318734,14.334816 27.835952,17.317359 27.749213,20.744752 28,24 c 2,0 4,0 6,0 -0.135766,-2.992294 -0.508868,-6.747635 2.173828,-8.789062 2.469677,-1.522158 5.788061,-1.599424 8.427829,-0.482198 4.970191,2.502613 4.378698,10.936191 -0.809132,12.834681 -2.54612,0.749125 -5.239572,0.323782 -7.859575,0.436579 -5.480055,0.04249 -10.965867,-0.0896 -16.441922,0.07493 -4.981072,0.352394 -9.5546843,3.955181 -10.7991533,8.833176 -1.7929851,6.016126 0.9440817,13.344561 6.8630013,15.91581 5.776287,2.687891 13.605481,0.74011 16.693843,-5.052227 1.60422,-3.001589 1.936029,-6.510729 1.749328,-9.859585 -1.998698,0.05794 -3.997396,0.115885 -5.996094,0.173828 0.09422,3.06158 -0.03807,6.683809 -2.491441,8.864829 -2.195534,1.348677 -5.122166,1.355848 -7.48598,0.449302 C 13.119734,45.160565 12.728399,36.848928 17.802275,34.581427 20.35961,33.629232 23.137432,34.124485 25.807202,34 c 5.551653,-0.03822 11.108312,0.08019 16.656521,-0.06637 5.194156,-0.364983 9.822688,-4.279817 11.066581,-9.3307 C 55.151361,19.023566 52.91024,12.252172 47.565103,9.552522 45.551534,8.4843296 43.26063,7.9886177 40.988281,8 Z"
     transform="matrix(0.94870892,0,0,0.94870892,1.777925,1.8170066)" />
</svg>
