<?xml version="1.0" encoding="UTF-8" standalone="no"?>
<svg
   width="64"
   height="64"
   version="1"
   id="svg11"
   sodipodi:docname="partitionmanager.svg"
   inkscape:version="1.4.2 (ebf0e940d0, 2025-05-08)"
   xmlns:inkscape="http://www.inkscape.org/namespaces/inkscape"
   xmlns:sodipodi="http://sodipodi.sourceforge.net/DTD/sodipodi-0.dtd"
   xmlns:xlink="http://www.w3.org/1999/xlink"
   xmlns="http://www.w3.org/2000/svg"
   xmlns:svg="http://www.w3.org/2000/svg">
  <defs
     id="defs11">
    <radialGradient
       inkscape:collect="always"
       xlink:href="#linearGradient33"
       id="radialGradient35"
       cx="6.9575548"
       cy="59.260612"
       fx="6.9575548"
       fy="59.260612"
       r="29"
       gradientUnits="userSpaceOnUse"
       gradientTransform="matrix(1.6224911,0.02072719,-0.01959326,1.5337273,-0.47508468,-34.706725)" />
    <linearGradient
       id="linearGradient33"
       inkscape:collect="always">
      <stop
         style="stop-color:#cfcfcf;stop-opacity:1;"
         offset="0"
         id="stop34" />
      <stop
         style="stop-color:#f7f7f7;stop-opacity:1;"
         offset="1"
         id="stop35" />
    </linearGradient>
    <radialGradient
       inkscape:collect="always"
       xlink:href="#linearGradient32"
       id="radialGradient33"
       cx="6.9575548"
       cy="59.260612"
       fx="6.9575548"
       fy="59.260612"
       r="29"
       gradientUnits="userSpaceOnUse"
       gradientTransform="matrix(1.6224911,0.02072719,-0.01959326,1.5337273,-0.47508468,-34.706725)" />
    <linearGradient
       id="linearGradient32"
       inkscape:collect="always">
      <stop
         style="stop-color:#211302;stop-opacity:1;"
         offset="0"
         id="stop32" />
      <stop
         style="stop-color:#211302;stop-opacity:0.9286136;"
         offset="1"
         id="stop33" />
    </linearGradient>
    <filter
       inkscape:collect="always"
       style="color-interpolation-filters:sRGB"
       id="filter51"
       x="-0.11597683"
       y="-0.11597683"
       width="1.2319537"
       height="1.2319537">
      <feGaussianBlur
         inkscape:collect="always"
         stdDeviation="2.7402734"
         id="feGaussianBlur51" />
    </filter>
    <radialGradient
       inkscape:collect="always"
       xlink:href="#linearGradient45"
       id="radialGradient46"
       cx="27.777458"
       cy="42.982838"
       fx="27.777458"
       fy="42.982838"
       r="21.401306"
       gradientUnits="userSpaceOnUse"
       gradientTransform="matrix(-7.0534462e-8,-2.9474928,2.9890428,0,-51.479981,158.93359)" />
    <linearGradient
       id="linearGradient45"
       inkscape:collect="always">
      <stop
         style="stop-color:#6b61ff;stop-opacity:1;"
         offset="0"
         id="stop45" />
      <stop
         style="stop-color:#cd77ff;stop-opacity:1;"
         offset="1"
         id="stop47" />
    </linearGradient>
    <filter
       inkscape:collect="always"
       style="color-interpolation-filters:sRGB"
       id="filter47"
       x="-0.093458623"
       y="-0.093458623"
       width="1.1869172"
       height="1.1869172">
      <feGaussianBlur
         inkscape:collect="always"
         stdDeviation="1.5811675"
         id="feGaussianBlur47" />
    </filter>
    <radialGradient
       inkscape:collect="always"
       xlink:href="#linearGradient47"
       id="radialGradient49"
       cx="32"
       cy="32"
       fx="32"
       fy="32"
       r="3"
       gradientUnits="userSpaceOnUse"
       gradientTransform="matrix(0.8923899,0,0,0.8923899,3.4435234,3.4435234)" />
    <linearGradient
       id="linearGradient47"
       inkscape:collect="always">
      <stop
         style="stop-color:#636363;stop-opacity:1;"
         offset="0"
         id="stop48" />
      <stop
         style="stop-color:#404040;stop-opacity:1;"
         offset="1"
         id="stop49" />
    </linearGradient>
    <radialGradient
       inkscape:collect="always"
       xlink:href="#linearGradient47"
       id="radialGradient51"
       cx="5.4970827"
       cy="59.413132"
       fx="5.4970827"
       fy="59.413132"
       r="10"
       gradientUnits="userSpaceOnUse"
       gradientTransform="matrix(1.9041312,-1.0993507,1.0993507,1.9041312,-65.932711,-52.022191)" />
    <filter
       inkscape:collect="always"
       style="color-interpolation-filters:sRGB"
       id="filter1"
       x="-0.086634126"
       y="-0.086634129"
       width="1.1732683"
       height="1.1732683">
      <feGaussianBlur
         inkscape:collect="always"
         stdDeviation="0.67526003"
         id="feGaussianBlur1" />
    </filter>
  </defs>
  <sodipodi:namedview
     id="namedview11"
     pagecolor="#ffffff"
     bordercolor="#000000"
     borderopacity="0.25"
     inkscape:showpageshadow="2"
     inkscape:pageopacity="0.0"
     inkscape:pagecheckerboard="0"
     inkscape:deskcolor="#d1d1d1"
     inkscape:zoom="9.7150484"
     inkscape:cx="21.718883"
     inkscape:cy="25.630341"
     inkscape:current-layer="svg11" />
  <path
     style="fill:url(#radialGradient35);fill-opacity:1;stroke:url(#radialGradient33);stroke-width:0;stroke-dasharray:none"
     d="M 32,6.1206929 A 25.879307,25.879307 0 0 0 6.1206931,32 v 21.997412 c 0,2.15057 1.7313256,3.881895 3.8818959,3.881895 H 32 A 25.879307,25.879307 0 0 0 57.879307,32 25.879307,25.879307 0 0 0 32,6.1206929 Z"
     id="path2-2" />
  <path
     style="mix-blend-mode:normal;fill:none;fill-opacity:1;stroke:#000000;stroke-width:0.3;stroke-dasharray:none;stroke-opacity:1;filter:url(#filter51)"
     d="M 32,3 A 29,29 0 0 0 3,32 V 56.65 C 3,59.0599 4.9401,61 7.35,61 H 32 A 29,29 0 0 0 61,32 29,29 0 0 0 32,3 Z"
     id="path2-7"
     transform="matrix(0.8923899,0,0,0.8923899,3.4435234,3.4435234)" />
  <g
     id="g11"
     transform="translate(-13.080168,-13.080168)">
    <path
       id="path45-3"
       style="fill:url(#radialGradient46);fill-opacity:1;fill-rule:evenodd;stroke:none;stroke-width:0.356956;stroke-linejoin:bevel;paint-order:markers fill stroke"
       d="m 53.658374,45.080168 a 8.5782054,8.5782054 0 0 1 -8.578206,8.578206 8.5782054,8.5782054 0 0 1 -8.578205,-8.578206 8.5782054,8.5782054 0 0 1 8.578205,-8.578205 8.5782054,8.5782054 0 0 1 8.578206,8.578205 z m 10.341626,0 A 18.919832,18.919832 0 0 1 45.080168,64 18.919832,18.919832 0 0 1 26.160336,45.080168 18.919832,18.919832 0 0 1 45.080168,26.160336 18.919832,18.919832 0 0 1 64,45.080168 Z" />
  </g>
  <path
     id="path45-3-3"
     style="fill:none;fill-opacity:1;fill-rule:evenodd;stroke:#1800ff;stroke-width:0.336176;stroke-linejoin:bevel;stroke-dasharray:none;stroke-opacity:1;paint-order:markers fill stroke;filter:url(#filter47)"
     d="M 41.61262,32 A 9.6126204,9.6126204 0 0 1 32,41.61262 9.6126204,9.6126204 0 0 1 22.38738,32 9.6126204,9.6126204 0 0 1 32,22.38738 9.6126204,9.6126204 0 0 1 41.61262,32 Z m 11.588687,0 A 21.201307,21.201307 0 0 1 32,53.201307 21.201307,21.201307 0 0 1 10.798693,32 21.201307,21.201307 0 0 1 32,10.798693 21.201307,21.201307 0 0 1 53.201307,32 Z"
     transform="matrix(0.8923899,0,0,0.8923899,3.4435234,3.4435234)" />
  <circle
     style="fill:url(#radialGradient49);stroke-width:0.89239"
     cx="32"
     cy="32"
     r="2.6771696"
     id="circle11" />
  <path
     style="fill:url(#radialGradient51);stroke-width:0.89239"
     d="M 13.661754,55.121327 25.205646,40.469229 c 0.164833,-0.196028 0.264106,-0.44751 0.264106,-0.721943 0,-0.614846 -0.499181,-1.113992 -1.115428,-1.113992 -0.274408,0 -0.526339,0.09752 -0.721144,0.263915 L 8.9818216,50.442562 a 3.2498224,3.3180698 0 0 0 -1.3598671,2.69175 c 0,1.850276 1.4984769,3.346755 3.3472235,3.346755 a 3.3622079,3.4328157 0 0 0 2.692576,-1.35974 z"
     id="path12" />
  <path
     style="fill:none;stroke:#000000;stroke-width:0.224117;stroke-dasharray:none;stroke-opacity:1;filter:url(#filter1)"
     d="M 11.471432,57.987189 24.407361,41.568247 c 0.18471,-0.219666 0.295954,-0.501474 0.295954,-0.809 0,-0.688988 -0.559376,-1.248324 -1.249934,-1.248324 -0.307498,0 -0.589808,0.10928 -0.808104,0.29574 L 6.2271637,52.744229 a 3.6417068,3.718184 0 0 0 -1.5238486,3.016338 c 0,2.073394 1.6791728,3.750328 3.750853,3.750328 a 3.7676446,3.8467666 0 0 0 3.0172639,-1.523706 z"
     id="path12-6"
     transform="matrix(0.8923899,0,0,0.8923899,3.4435234,3.4435234)" />
</svg>
