<?xml version="1.0" encoding="UTF-8" standalone="no"?>
<!-- Generator: Adobe Illustrator 25.2.1, SVG Export Plug-In . SVG Version: 6.00 Build 0)  -->

<svg
   version="1.1"
   id="Layer_1"
   x="0px"
   y="0px"
   viewBox="0 0 64 64"
   style="enable-background:new 0 0 64 64;"
   xml:space="preserve"
   sodipodi:docname="x-system-software-sources.svg"
   inkscape:version="1.4.2 (ebf0e940d0, 2025-05-08)"
   xmlns:inkscape="http://www.inkscape.org/namespaces/inkscape"
   xmlns:sodipodi="http://sodipodi.sourceforge.net/DTD/sodipodi-0.dtd"
   xmlns:xlink="http://www.w3.org/1999/xlink"
   xmlns="http://www.w3.org/2000/svg"
   xmlns:svg="http://www.w3.org/2000/svg"><defs
   id="defs6">
	
	
<radialGradient
   id="SVGID_2_-6"
   cx="23.107901"
   cy="22.3944"
   r="40.051899"
   gradientUnits="userSpaceOnUse"
   gradientTransform="translate(-0.07365748,0.02046142)">
	<stop
   offset="0"
   style="stop-color:#8A8A8A"
   id="stop3-1" />
	<stop
   offset="1"
   style="stop-color:#2E2E2E"
   id="stop4-8" />
</radialGradient><radialGradient
   id="SVGID_1_-7"
   cx="21.645599"
   cy="17.467199"
   r="45.2015"
   gradientUnits="userSpaceOnUse"
   gradientTransform="translate(-0.07365748,0.02046142)">
	<stop
   offset="0"
   style="stop-color:#E9E9E9"
   id="stop1-9" />
	<stop
   offset="1"
   style="stop-color:#8A8A8A"
   id="stop2-2" />
</radialGradient><radialGradient
   id="SVGID_1_-3-2-7"
   cx="-159.43106"
   cy="15.462561"
   r="64.706802"
   gradientTransform="matrix(-0.89413329,0,0,0.96304834,-80.753654,49.330428)"
   gradientUnits="userSpaceOnUse"
   fx="-159.43106"
   fy="15.462561">
	<stop
   offset="0"
   style="stop-color:#006fff;stop-opacity:1;"
   id="stop1-6-9-5" />
	<stop
   offset="1"
   style="stop-color:#15baff;stop-opacity:1;"
   id="stop2-7-1-3" />
</radialGradient><inkscape:path-effect
   effect="fillet_chamfer"
   id="path-effect33-5-9-2"
   is_visible="true"
   lpeversion="1"
   nodesatellites_param="F,0,0,1,0,5.4161913,0,1 @ F,0,0,1,0,5.0201459,0,1 @ F,0,0,1,0,4.5562612,0,1 @ F,0,0,1,0,4.8044969,0,1 @ F,0,0,1,0,4.8694015,0,1 @ F,0,0,1,0,4.5176611,0,1"
   radius="0"
   unit="px"
   method="auto"
   mode="F"
   chamfer_steps="1"
   flexible="false"
   use_knot_distance="true"
   apply_no_radius="true"
   apply_with_radius="true"
   only_selected="false"
   hide_knots="false" /><radialGradient
   inkscape:collect="always"
   xlink:href="#SVGID_1_-3-2-7"
   id="radialGradient33-3"
   cx="21.394064"
   cy="28.863523"
   fx="21.394064"
   fy="28.863523"
   r="22.291637"
   gradientTransform="matrix(3.5837234e-8,-2.9731329,2.7109812,0,-24.427191,118.97905)"
   gradientUnits="userSpaceOnUse" /><inkscape:path-effect
   effect="fillet_chamfer"
   id="path-effect33-5-91"
   is_visible="true"
   lpeversion="1"
   nodesatellites_param="F,0,0,1,0,5.4161913,0,1 @ F,0,0,1,0,5.0201459,0,1 @ F,0,0,1,0,4.5562612,0,1 @ F,0,0,1,0,4.8044969,0,1 @ F,0,0,1,0,4.8694015,0,1 @ F,0,0,1,0,4.5176611,0,1"
   radius="0"
   unit="px"
   method="auto"
   mode="F"
   chamfer_steps="1"
   flexible="false"
   use_knot_distance="true"
   apply_no_radius="true"
   apply_with_radius="true"
   only_selected="false"
   hide_knots="false" /><filter
   inkscape:collect="always"
   style="color-interpolation-filters:sRGB"
   id="filter6"
   x="-0.150524"
   y="-0.13743633"
   width="1.301048"
   height="1.2748711"><feGaussianBlur
     inkscape:collect="always"
     stdDeviation="2.225748"
     id="feGaussianBlur6" /></filter></defs><sodipodi:namedview
   id="namedview6"
   pagecolor="#505050"
   bordercolor="#eeeeee"
   borderopacity="1"
   inkscape:showpageshadow="0"
   inkscape:pageopacity="0"
   inkscape:pagecheckerboard="0"
   inkscape:deskcolor="#505050"
   inkscape:zoom="13.484375"
   inkscape:cx="34.595597"
   inkscape:cy="29.960603"
   inkscape:window-width="1920"
   inkscape:window-height="1020"
   inkscape:window-x="0"
   inkscape:window-y="0"
   inkscape:window-maximized="1"
   inkscape:current-layer="Layer_1" />
<style
   type="text/css"
   id="style1">
	.st0{opacity:0.2;enable-background:new    ;}
	.st1{fill:url(#SVGID_1_);}
	.st2{opacity:0.1;enable-background:new    ;}
	.st3{fill:url(#SVGID_2_);}
	.st4{fill:#FFFFFF;}
</style>

<radialGradient
   id="SVGID_1_"
   cx="21.645599"
   cy="17.467199"
   r="45.2015"
   gradientUnits="userSpaceOnUse"
   gradientTransform="matrix(0.9320482,0,0,0.9320482,2.1694526,2.1505034)"
   xlink:href="#SVGID_1_-3-2-7">
	<stop
   offset="0"
   style="stop-color:#00d2ff;stop-opacity:1;"
   id="stop1" />
	<stop
   offset="1"
   style="stop-color:#0087ff;stop-opacity:1;"
   id="stop2" />
</radialGradient>


<radialGradient
   id="SVGID_2_"
   cx="23.1079"
   cy="22.3944"
   r="40.0519"
   gradientUnits="userSpaceOnUse">
	<stop
   offset="0"
   style="stop-color:#8A8A8A"
   id="stop3" />
	<stop
   offset="1"
   style="stop-color:#2E2E2E"
   id="stop4" />
</radialGradient>


<path
   sodipodi:type="star"
   style="fill:url(#radialGradient33-3);fill-opacity:1;stroke:#ffffff;stroke-width:0;stroke-dasharray:none"
   id="path13-3"
   inkscape:flatsided="true"
   sodipodi:sides="6"
   sodipodi:cx="26.006084"
   sodipodi:cy="25.124659"
   sodipodi:r1="25.740166"
   sodipodi:r2="22.291637"
   sodipodi:arg1="0.52359878"
   sodipodi:arg2="1.0471976"
   inkscape:rounded="0"
   inkscape:randomized="0"
   transform="matrix(1.1656015,0,0,1.1656015,1.687269,2.7382007)"
   d="m 43.607163,40.702837 -13.253505,7.651914 a 8.6951478,8.6951478 2.5219888e-7 0 1 -8.695148,0 L 7.6602849,40.272872 A 7.8916759,7.8916759 60 0 1 3.714447,33.43848 l 1e-7,-16.379407 A 8.3216327,8.3216327 120 0 1 7.8752635,9.8523272 L 21.789059,1.8191936 a 8.4340508,8.4340508 2.5219889e-7 0 1 8.434051,0 l 14.162203,8.1765517 a 7.8248186,7.8248186 60 0 1 3.912409,6.7764917 l 0,15.806313 a 9.3811185,9.3811185 120 0 1 -4.690559,8.124287 z"
   inkscape:path-effect="#path-effect33-5-91" /><path
   id="path13-3-1"
   style="opacity:0.3778188;fill:#000000;fill-opacity:1;stroke:#ffffff;stroke-width:0;stroke-dasharray:none"
   d="M 26.006084 0.69033097 A 8.4340508 8.4340508 0 0 0 21.788528 1.8199903 L 7.8761347 9.8528561 A 8.3216327 8.3216327 0 0 0 3.7139781 17.059553 L 3.7139781 33.43841 A 7.8916759 7.8916759 0 0 0 7.6593557 40.271765 L 21.658461 48.355213 A 8.6951478 8.6951478 0 0 0 30.353707 48.355213 L 43.606129 40.702914 A 9.3811185 9.3811185 0 0 0 48.29819 32.57852 L 48.29819 16.772923 A 7.8248186 7.8248186 0 0 0 44.384125 9.9949668 L 30.223639 1.8199903 A 8.4340508 8.4340508 0 0 0 26.006084 0.69033097 z M 24.062299 11.668982 L 28.079936 11.668982 C 29.76556 11.668982 31.191919 13.095342 31.191919 14.780965 L 31.191919 23.596644 C 31.191919 24.115298 31.711397 24.634774 32.230049 24.634774 L 36.898024 24.634774 C 37.675994 24.634774 38.064606 25.542451 37.545952 26.190766 L 26.654012 38.248495 C 26.394685 38.637484 25.747148 38.637484 25.358156 38.248495 L 14.466216 26.190766 C 13.947561 25.542451 14.336165 24.634774 15.114144 24.634774 L 19.782118 24.634774 C 20.300772 24.634774 20.820249 24.115298 20.820249 23.596644 L 20.820249 14.780965 C 20.820249 13.095342 22.247013 11.668982 24.062299 11.668982 z "
   transform="matrix(0.81087772,0,0,0.81087772,10.912246,11.643351)" /><path
   id="path13-3-1-3"
   style="opacity:1;fill:none;fill-opacity:1;stroke:#000000;stroke-width:0.2;stroke-dasharray:none;filter:url(#filter6);stroke-opacity:1"
   d="m 32,12.203125 a 6.8389839,6.8389839 0 0 0 -3.419922,0.916016 l -11.28125,6.513671 a 6.7478266,6.7478266 0 0 0 -3.375,5.84375 v 13.281251 a 6.3991842,6.3991842 0 0 0 3.199219,5.541015 l 11.351562,6.554688 a 7.0507016,7.0507016 0 0 0 7.050782,0 l 10.746093,-6.205079 a 7.60694,7.60694 0 0 0 3.804688,-6.58789 V 25.244141 A 6.3449711,6.3449711 0 0 0 46.902344,19.748047 L 35.419921,13.119141 A 6.8389839,6.8389839 0 0 0 32,12.203125 Z m -1.576172,8.902344 h 3.257812 c 1.366835,0 2.523438,1.156603 2.523438,2.523437 v 7.148438 c 0,0.420565 0.421233,0.841796 0.841797,0.841796 h 3.785157 c 0.630838,0 0.945955,0.736015 0.52539,1.26172 l -8.832032,9.777343 c -0.210282,0.315423 -0.735355,0.315423 -1.05078,0 L 22.642578,32.88086 c -0.420566,-0.525705 -0.105455,-1.26172 0.525391,-1.26172 h 3.785156 c 0.420565,0 0.841797,-0.421231 0.841797,-0.841796 v -7.148438 c 0,-1.366834 1.156931,-2.523437 2.628906,-2.523437 z" /></svg>
