<?xml version="1.0" encoding="UTF-8" standalone="no"?>
<svg
   width="64"
   height="64"
   version="1"
   id="svg7"
   sodipodi:docname="vmware-workstation.svg"
   inkscape:version="1.4.2 (ebf0e940d0, 2025-05-08)"
   xmlns:inkscape="http://www.inkscape.org/namespaces/inkscape"
   xmlns:sodipodi="http://sodipodi.sourceforge.net/DTD/sodipodi-0.dtd"
   xmlns:xlink="http://www.w3.org/1999/xlink"
   xmlns="http://www.w3.org/2000/svg"
   xmlns:svg="http://www.w3.org/2000/svg">
  <defs
     id="defs7">
    <radialGradient
       id="SVGID_1_-3-2"
       cx="-159.43106"
       cy="15.462561"
       r="64.706802"
       gradientTransform="matrix(-0.52567171,0,0,0.56618769,-31.097083,38.399978)"
       gradientUnits="userSpaceOnUse"
       fx="-159.43106"
       fy="15.462561">
      <stop
         offset="0"
         style="stop-color:#006fff;stop-opacity:1;"
         id="stop1-6-9" />
      <stop
         offset="1"
         style="stop-color:#15baff;stop-opacity:1;"
         id="stop2-7-1" />
    </radialGradient>
    <radialGradient
       id="SVGID_1_-3-2-3"
       cx="-159.43106"
       cy="15.462561"
       r="64.706802"
       gradientTransform="matrix(-0.89413329,0,0,0.96304834,-72.788688,37.295394)"
       gradientUnits="userSpaceOnUse"
       fx="-159.43106"
       fy="15.462561">
      <stop
         offset="0"
         style="stop-color:#006fff;stop-opacity:1;"
         id="stop1-6-9-6" />
      <stop
         offset="1"
         style="stop-color:#15baff;stop-opacity:1;"
         id="stop2-7-1-7" />
    </radialGradient>
    <radialGradient
       id="SVGID_1_-3-2-6"
       cx="-159.43106"
       cy="15.462561"
       r="64.706802"
       gradientTransform="matrix(-0.52567171,0,0,0.56618769,-38.175103,45.47005)"
       gradientUnits="userSpaceOnUse"
       fx="-159.43106"
       fy="15.462561">
      <stop
         offset="0"
         style="stop-color:#ff8b4a;stop-opacity:1;"
         id="stop1-6-9-0" />
      <stop
         offset="1"
         style="stop-color:#ff9515;stop-opacity:1;"
         id="stop2-7-1-6" />
    </radialGradient>
    <radialGradient
       id="SVGID_1_-3-2-1"
       cx="-159.43106"
       cy="15.462561"
       r="64.706802"
       gradientTransform="matrix(-0.52567171,0,0,0.56618769,-31.097082,38.399978)"
       gradientUnits="userSpaceOnUse"
       fx="-159.43106"
       fy="15.462561">
      <stop
         offset="0"
         style="stop-color:#006fff;stop-opacity:1;"
         id="stop1-6-9-8" />
      <stop
         offset="1"
         style="stop-color:#15baff;stop-opacity:1;"
         id="stop2-7-1-79" />
    </radialGradient>
    <radialGradient
       id="SVGID_1_-3-2-1-2"
       cx="-159.43106"
       cy="15.462561"
       r="64.706802"
       gradientTransform="matrix(-0.52567171,0,0,-0.56618769,-38.175101,25.154077)"
       gradientUnits="userSpaceOnUse"
       fx="-159.43106"
       fy="15.462561"
       xlink:href="#SVGID_1_-3-2-6">
      <stop
         offset="0"
         style="stop-color:#006fff;stop-opacity:1;"
         id="stop1-6-9-8-3" />
      <stop
         offset="1"
         style="stop-color:#15baff;stop-opacity:1;"
         id="stop2-7-1-79-7" />
    </radialGradient>
    <radialGradient
       inkscape:collect="always"
       xlink:href="#SVGID_1_-3-2-6"
       id="radialGradient9"
       cx="45.968899"
       cy="124.48823"
       fx="45.968899"
       fy="124.48823"
       r="16.461914"
       gradientTransform="matrix(1.1156236e-7,-2.2255124,2.0662571,1.0357901e-7,-211.7272,155.78222)"
       gradientUnits="userSpaceOnUse" />
    <radialGradient
       inkscape:collect="always"
       xlink:href="#SVGID_1_-3-2-6"
       id="radialGradient10"
       gradientUnits="userSpaceOnUse"
       gradientTransform="matrix(-0.52567184,0,0,0.56618752,-38.175123,45.470049)"
       cx="-159.17271"
       cy="14.143402"
       fx="-159.1727"
       fy="14.143402"
       r="64.706802" />
    <radialGradient
       id="SVGID_1_-3-2-2"
       cx="-159.43106"
       cy="15.462561"
       r="64.706802"
       gradientTransform="matrix(-0.52567171,0,0,0.56618769,9.5362151,40.908635)"
       gradientUnits="userSpaceOnUse"
       fx="-159.43106"
       fy="15.462561">
      <stop
         offset="0"
         style="stop-color:#006fff;stop-opacity:1;"
         id="stop1-6-9-2" />
      <stop
         offset="1"
         style="stop-color:#15baff;stop-opacity:1;"
         id="stop2-7-1-8" />
    </radialGradient>
    <radialGradient
       id="SVGID_1_-3-2-6-7"
       cx="-159.43106"
       cy="15.462561"
       r="64.706802"
       gradientTransform="matrix(-0.52567171,0,0,0.56618769,-38.175103,45.47005)"
       gradientUnits="userSpaceOnUse"
       fx="-159.43106"
       fy="15.462561">
      <stop
         offset="0"
         style="stop-color:#ff8b4a;stop-opacity:1;"
         id="stop1-6-9-0-3" />
      <stop
         offset="1"
         style="stop-color:#ff9515;stop-opacity:1;"
         id="stop2-7-1-6-6" />
    </radialGradient>
    <radialGradient
       id="radialGradient2"
       cx="-159.43106"
       cy="15.462561"
       r="64.706802"
       gradientTransform="matrix(-0.52567171,0,0,0.56618769,-38.175103,45.47005)"
       gradientUnits="userSpaceOnUse"
       fx="-159.43106"
       fy="15.462561">
      <stop
         offset="0"
         style="stop-color:#ff8b4a;stop-opacity:1;"
         id="stop1" />
      <stop
         offset="1"
         style="stop-color:#ff9515;stop-opacity:1;"
         id="stop2" />
    </radialGradient>
    <radialGradient
       id="SVGID_1_-3-2-1-29"
       cx="-159.43106"
       cy="15.462561"
       r="64.706802"
       gradientTransform="matrix(-0.52567171,0,0,0.56618769,9.5362161,40.908635)"
       gradientUnits="userSpaceOnUse"
       fx="-159.43106"
       fy="15.462561">
      <stop
         offset="0"
         style="stop-color:#006fff;stop-opacity:1;"
         id="stop1-6-9-8-31" />
      <stop
         offset="1"
         style="stop-color:#15baff;stop-opacity:1;"
         id="stop2-7-1-79-9" />
    </radialGradient>
    <filter
       inkscape:collect="always"
       style="color-interpolation-filters:sRGB"
       id="filter17"
       x="-0.10348399"
       y="-0.10350914"
       width="1.206968"
       height="1.2070183">
      <feGaussianBlur
         inkscape:collect="always"
         stdDeviation="1.6831486"
         id="feGaussianBlur17" />
    </filter>
    <radialGradient
       id="SVGID_1_-3-2-0"
       cx="-159.43106"
       cy="15.462561"
       r="64.706802"
       gradientTransform="matrix(-0.52567171,0,0,0.56618769,15.82511,38.140994)"
       gradientUnits="userSpaceOnUse"
       fx="-159.43106"
       fy="15.462561">
      <stop
         offset="0"
         style="stop-color:#006fff;stop-opacity:1;"
         id="stop1-6-9-3" />
      <stop
         offset="1"
         style="stop-color:#15baff;stop-opacity:1;"
         id="stop2-7-1-61" />
    </radialGradient>
    <radialGradient
       id="SVGID_1_-3-2-7"
       cx="-161.981"
       cy="-50.6786"
       r="64.706802"
       gradientTransform="matrix(0,1.0724854,1.1551469,0,65.562515,174.24675)"
       gradientUnits="userSpaceOnUse"
       fx="-161.981"
       fy="-50.6786">
      <stop
         offset="0"
         style="stop-color:#004195;stop-opacity:1;"
         id="stop1-6-9-65" />
      <stop
         offset="1"
         style="stop-color:#00655d;stop-opacity:1;"
         id="stop2-7-1-69" />
    </radialGradient>
    <radialGradient
       id="SVGID_2_-3-3"
       cx="21.0371"
       cy="56.209099"
       r="40.250599"
       gradientTransform="matrix(1,0,0,-1,0,66)"
       gradientUnits="userSpaceOnUse">
      <stop
         offset="0"
         style="stop-color:#FFFFFF"
         id="stop5-5-6" />
      <stop
         offset="1"
         style="stop-color:#C4C4C4"
         id="stop6-6-7" />
    </radialGradient>
  </defs>
  <sodipodi:namedview
     id="namedview7"
     pagecolor="#ffffff"
     bordercolor="#000000"
     borderopacity="0.25"
     inkscape:showpageshadow="2"
     inkscape:pageopacity="0.0"
     inkscape:pagecheckerboard="0"
     inkscape:deskcolor="#d1d1d1"
     inkscape:zoom="15.17168"
     inkscape:cx="34.900552"
     inkscape:cy="33.812999"
     inkscape:current-layer="svg7" />
  <g
     id="g17"
     transform="matrix(1.3249782,0,0,1.3249782,-9.9193018,-10.103869)">
    <path
       id="path2"
       style="fill:url(#SVGID_1_-3-2);stroke-width:0.587912"
       class="st1"
       d="m 28.591778,11.781053 c -5.467582,0 -9.876953,4.409373 -9.876953,9.876954 v 13.167968 c 0,5.467582 4.409371,9.876954 9.876953,9.876954 H 41.7617 c 5.467582,0 9.876953,-4.409372 9.876953,-9.876954 V 21.658007 c 0,-5.467581 -4.409371,-9.876954 -9.876953,-9.876954 z m 0.06055,7.074219 h 13.048828 c 1.585681,0 2.861328,1.275647 2.861328,2.861328 v 13.048829 c 0,1.585681 -1.275647,2.863281 -2.861328,2.863281 H 28.652325 c -1.585681,0 -2.861328,-1.2776 -2.861328,-2.863281 V 21.7166 c 0,-1.585681 1.275647,-2.861328 2.861328,-2.861328 z" />
    <path
       id="path2-6"
       style="fill:url(#radialGradient10);stroke-width:0.587912"
       class="st1"
       d="m 21.513758,18.851126 c -5.467582,0 -9.876953,4.409373 -9.876953,9.876953 v 13.167968 c 0,5.467582 4.409371,9.876954 9.876953,9.876954 H 34.68368 c 5.467582,0 9.876953,-4.409372 9.876953,-9.876954 V 28.728079 c 0,-5.46758 -4.409371,-9.876953 -9.876953,-9.876953 z m 0.06055,7.074218 h 13.048828 c 1.585681,0 2.861328,1.275647 2.861328,2.861328 v 13.048829 c 0,1.585681 -1.275647,2.863281 -2.861328,2.863281 H 21.574305 c -1.585681,0 -2.861328,-1.2776 -2.861328,-2.863281 V 28.786672 c 0,-1.585681 1.275647,-2.861328 2.861328,-2.861328 z" />
    <path
       id="path2-0"
       style="fill:url(#SVGID_1_-3-2-1);stroke-width:0.587912"
       class="st1"
       d="m 18.714823,34.825975 c 0,5.467582 4.409371,9.876954 9.876953,9.876954 h 13.169925 c 5.467582,0 9.876953,-4.409372 9.876953,-9.876954 l -7.076169,-0.06055 c 0,1.585681 -1.275647,2.863281 -2.861328,2.863281 H 28.652326 c -1.585681,0 -2.861328,-1.2776 -2.861328,-2.863281"
       sodipodi:nodetypes="cssccssc" />
    <path
       id="path2-0-9"
       style="fill:url(#radialGradient9);stroke-width:0.587912"
       class="st1"
       d="m 11.636803,28.72808 c 0,-5.467582 4.409371,-9.876954 9.876953,-9.876954 h 13.169925 c 5.467582,0 9.876953,4.409372 9.876953,9.876954 l -7.076169,0.06055 c 0,-1.585681 -1.275647,-2.863281 -2.861328,-2.863281 H 21.574306 c -1.585681,0 -2.861328,1.2776 -2.861328,2.863281"
       sodipodi:nodetypes="cssccssc" />
  </g>
  <g
     id="g16"
     style="fill:none;stroke:#000000;stroke-width:0.2;stroke-dasharray:none;stroke-opacity:1;filter:url(#filter17)"
     transform="matrix(1.3249782,0,0,1.3249782,-63.756819,-13.427086)">
    <path
       d="m 69.224609,14.289063 c -4.605657,0 -8.459644,3.12835 -9.560547,7.382812 0.793038,-0.204274 1.624296,-0.3125 2.482422,-0.3125 h 13.169922 c 0.09416,0 0.187733,0.0013 0.28125,0.0039 h 6.736328 c 1.585681,0 2.861329,1.275647 2.861328,2.861328 v 13.048828 c 0,0.03593 -6.54e-4,0.07182 -0.002,0.107422 -0.05601,1.535626 -1.309619,2.75586 -2.859375,2.75586 H 78.11714 69.285109 c -1.585681,0 -2.861328,-1.2776 -2.861328,-2.863282 v -8.839843 h -4.216797 c -1.549755,0 -2.803367,1.218365 -2.859375,2.753906 v 6.146484 c 0,5.37342 4.259081,9.724764 9.595703,9.873047 0.09351,0.0026 0.187097,0.0039 0.28125,0.0039 h 13.169922 c 0.393985,0 0.780551,-0.02977 1.16211,-0.07422 0.111193,-0.01298 0.220061,-0.03221 0.330078,-0.04883 0.271288,-0.04094 0.539169,-0.09181 0.802734,-0.154297 4.353279,-1.032264 7.582031,-4.924034 7.582031,-9.59961 V 24.166016 c 0,-5.467581 -4.409371,-9.876953 -9.876953,-9.876953 z"
       style="fill:none;stroke:#000000;stroke-width:0.2;stroke-dasharray:none;stroke-opacity:1"
       id="path16" />
    <path
       d="m 62.146484,21.359375 c -5.467582,0 -9.876953,4.409373 -9.876953,9.876953 v 13.167969 c 0,5.467582 4.409371,9.876953 9.876953,9.876953 h 13.169922 c 4.605657,0 8.459645,-3.12835 9.560547,-7.382813 -0.793037,0.204274 -1.624295,0.3125 -2.482422,0.3125 H 69.224609 c -0.09416,0 -0.187732,-0.0013 -0.28125,-0.0039 h -6.736328 c -1.585681,0 -2.861328,-1.2776 -2.861328,-2.863281 V 31.294922 c 0,-1.585681 1.275647,-2.861328 2.861328,-2.861328 h 13.048828 c 1.585681,0 2.861329,1.275647 2.861328,2.861328 v 8.841797 h 4.216797 c 1.549756,0 2.803367,-1.220234 2.859375,-2.75586 v -6.144531 c 0,-5.46758 -4.409371,-9.876953 -9.876953,-9.876953 z"
       style="fill:none;stroke:#000000;stroke-width:0.2;stroke-dasharray:none;stroke-opacity:1"
       id="path15" />
  </g>
</svg>
