<?xml version="1.0" encoding="UTF-8" standalone="no"?>
<!-- Generator: Adobe Illustrator 25.2.1, SVG Export Plug-In . SVG Version: 6.00 Build 0)  -->

<svg
   version="1.1"
   id="Layer_1"
   x="0px"
   y="0px"
   viewBox="0 0 64 64"
   style="enable-background:new 0 0 64 64;"
   xml:space="preserve"
   sodipodi:docname="folder-deeporange-network.svg"
   inkscape:version="1.4.2 (ebf0e940d0, 2025-05-08)"
   xmlns:inkscape="http://www.inkscape.org/namespaces/inkscape"
   xmlns:sodipodi="http://sodipodi.sourceforge.net/DTD/sodipodi-0.dtd"
   xmlns:xlink="http://www.w3.org/1999/xlink"
   xmlns="http://www.w3.org/2000/svg"
   xmlns:svg="http://www.w3.org/2000/svg"><defs
   id="defs14"><inkscape:path-effect
     effect="fillet_chamfer"
     id="path-effect1"
     is_visible="true"
     lpeversion="1"
     nodesatellites_param="F,0,0,1,0,0,0,1 @ F,0,0,1,0,0,0,1 @ F,0,0,1,0,0,0,1 @ F,0,0,1,0,0,0,1 | F,0,0,1,0,0,0,1 @ F,0,0,1,0,0,0,1 @ F,0,0,1,0,0,0,1 @ F,0,0,1,0,0,0,1 @ F,0,0,1,0,0,0,1 @ F,0,0,1,0,0,0,1 @ F,0,0,1,0,0,0,1 @ F,0,0,1,0,0,0,1 @ F,0,0,1,0,0,0,1 @ F,0,0,1,0,0,0,1 @ F,0,0,1,0,0,0,1 @ F,0,0,1,0,0,0,1 @ F,0,0,1,0,0,0,1 @ F,0,0,1,0,0,0,1 @ F,0,0,1,0,0,0,1 @ F,0,0,1,0,0,0,1 @ F,0,0,1,0,0,0,1 @ F,0,0,1,0,0,0,1 @ F,0,0,1,0,0,0,1 @ F,0,0,1,0,0,0,1 @ F,0,0,1,0,0,0,1 @ F,0,0,1,0,0,0,1 @ F,0,0,1,0,0,0,1 @ F,0,0,1,0,0,0,1 @ F,0,0,1,0,0.89174756,0,1 @ F,0,1,1,0,0.89174756,0,1 @ F,0,0,1,0,0,0,1 @ F,0,0,1,0,0,0,1 | F,0,0,1,0,0,0,1 @ F,0,0,1,0,0,0,1 @ F,0,0,1,0,0,0,1 @ F,0,0,1,0,0,0,1 @ F,0,0,1,0,0,0,1 @ F,0,0,1,0,0,0,1 @ F,0,0,1,0,0,0,1"
     radius="0"
     unit="px"
     method="auto"
     mode="F"
     chamfer_steps="1"
     flexible="false"
     use_knot_distance="true"
     apply_no_radius="true"
     apply_with_radius="true"
     only_selected="false"
     hide_knots="false" /><radialGradient
     id="SVGID_6_-3"
     cx="32"
     cy="39"
     r="40.048599"
     fx="14.0678"
     fy="24.8514"
     gradientUnits="userSpaceOnUse">
	<stop
   offset="0"
   style="stop-color:#00F0F4"
   id="stop11-8" />
	<stop
   offset="1"
   style="stop-color:#1598FF"
   id="stop12-5" />
</radialGradient><radialGradient
     id="SVGID_4_-6"
     cx="25.213699"
     cy="25.563499"
     r="32.348301"
     fx="16.568701"
     fy="17.644699"
     gradientUnits="userSpaceOnUse">
	<stop
   offset="0"
   style="stop-color:#FFFFFF"
   id="stop7-1" />
	<stop
   offset="1"
   style="stop-color:#B7B7B7"
   id="stop8-1" />
</radialGradient><radialGradient
     id="SVGID_2_-5"
     cx="28.128099"
     cy="25.073299"
     r="40.0504"
     fx="5.4853001"
     fy="7.4745002"
     gradientUnits="userSpaceOnUse">
	<stop
   offset="0"
   style="stop-color:#15C7FF"
   id="stop3-9" />
	<stop
   offset="1"
   style="stop-color:#005A9E"
   id="stop4-8" />
</radialGradient><radialGradient
     id="SVGID_1_-3-2-7"
     cx="-159.43106"
     cy="15.462561"
     r="64.706802"
     gradientTransform="matrix(-0.89413329,0,0,0.96304834,-80.753654,49.330428)"
     gradientUnits="userSpaceOnUse"
     fx="-159.43106"
     fy="15.462561">
	<stop
   offset="0"
   style="stop-color:#006fff;stop-opacity:1;"
   id="stop1-6-9-5" />
	<stop
   offset="1"
   style="stop-color:#15baff;stop-opacity:1;"
   id="stop2-7-1-3" />
</radialGradient><inkscape:path-effect
     effect="fillet_chamfer"
     id="path-effect2-5"
     is_visible="true"
     lpeversion="1"
     nodesatellites_param="F,0,0,1,0,1.7191201,0,1 @ F,0,0,1,0,13.761382,0,1 @ F,0,0,1,0,13.761382,0,1 @ F,0,0,1,0,14.755441,0,1"
     radius="0"
     unit="px"
     method="auto"
     mode="F"
     chamfer_steps="1"
     flexible="false"
     use_knot_distance="true"
     apply_no_radius="true"
     apply_with_radius="true"
     only_selected="false"
     hide_knots="false" /><radialGradient
     id="radialGradient16-9"
     cx="-159.43106"
     cy="15.462561"
     r="64.706802"
     gradientTransform="matrix(-0.89413329,0,0,0.96304834,-80.753654,49.330428)"
     gradientUnits="userSpaceOnUse"
     fx="-159.43106"
     fy="15.462561">
	<stop
   offset="0"
   style="stop-color:#3d6aa4;stop-opacity:1;"
   id="stop15-1" />
	<stop
   offset="1"
   style="stop-color:#0097d2;stop-opacity:1;"
   id="stop16-2" />
</radialGradient><inkscape:path-effect
     effect="fillet_chamfer"
     id="path-effect20-7"
     is_visible="true"
     lpeversion="1"
     nodesatellites_param="F,0,0,1,0,1.4582365,0,1 @ F,0,0,1,0,4.7943319,0,1 @ F,0,0,1,0,0,0,1 @ F,0,0,1,0,0,0,1 @ F,0,0,1,0,0,0,1 @ F,0,0,1,0,0,0,1 @ F,0,0,1,0,0,0,1 @ F,0,0,1,0,0,0,1 @ F,0,0,1,0,2.051402,0,1"
     radius="0"
     unit="px"
     method="auto"
     mode="F"
     chamfer_steps="1"
     flexible="false"
     use_knot_distance="true"
     apply_no_radius="true"
     apply_with_radius="true"
     only_selected="false"
     hide_knots="false" /><filter
     inkscape:collect="always"
     style="color-interpolation-filters:sRGB"
     id="filter1"
     x="-0.13553692"
     y="-0.13553163"
     width="1.2710738"
     height="1.2710633"><feGaussianBlur
       inkscape:collect="always"
       stdDeviation="2.7947033"
       id="feGaussianBlur1" /></filter><inkscape:path-effect
     effect="fillet_chamfer"
     id="path-effect1-3"
     is_visible="true"
     lpeversion="1"
     nodesatellites_param="F,0,0,1,0,0,0,1 @ F,0,0,1,0,0,0,1 @ F,0,0,1,0,0,0,1 @ F,0,0,1,0,0,0,1 @ F,0,0,1,0,0,0,1 @ F,0,0,1,0,0,0,1 | F,0,0,1,0,2.2313425,0,1 @ F,0,0,1,0,0,0,1 @ F,0,0,1,0,0,0,1 @ F,0,0,1,0,0,0,1 @ F,0,0,1,0,0,0,1 @ F,0,0,1,0,0,0,1 @ F,0,0,1,0,0,0,1 @ F,0,0,1,0,3.0996664,0,1 @ F,0,0,1,0,0,0,1 @ F,0,0,1,0,0,0,1 @ F,0,0,1,0,2.774701,0,1 @ F,0,0,1,0,0,0,1 @ F,0,0,1,0,0,0,1 | F,0,0,1,0,1.8892532,0,1 @ F,0,0,1,0,0,0,1 @ F,0,0,1,0,1.0211566,0,1 @ F,0,0,1,0,0,0,1 @ F,0,0,1,0,0,0,1"
     radius="0"
     unit="px"
     method="auto"
     mode="F"
     chamfer_steps="1"
     flexible="false"
     use_knot_distance="true"
     apply_no_radius="true"
     apply_with_radius="true"
     only_selected="false"
     hide_knots="false" /><radialGradient
     inkscape:collect="always"
     xlink:href="#SVGID_1_-3-2-7-3"
     id="radialGradient6"
     cx="-34.96265"
     cy="-10.95596"
     fx="-34.96265"
     fy="-10.95596"
     r="27.999001"
     gradientUnits="userSpaceOnUse"
     gradientTransform="matrix(4.4182857,-1.1838762,-0.8691964,-3.2438851,153.43213,-68.915351)" /><radialGradient
     id="radialGradient16-9-0"
     cx="-159.43106"
     cy="15.462561"
     r="64.706802"
     gradientTransform="matrix(-0.89413329,0,0,0.96304834,-80.753654,49.330428)"
     gradientUnits="userSpaceOnUse"
     fx="-159.43106"
     fy="15.462561"><stop
       offset="0"
       style="stop-color:#2e6cb7;stop-opacity:1;"
       id="stop15-1-4" /><stop
       offset="1"
       style="stop-color:#3a87e5;stop-opacity:1;"
       id="stop16-2-6" /></radialGradient><inkscape:path-effect
     effect="fillet_chamfer"
     id="path-effect20-7-2"
     is_visible="true"
     lpeversion="1"
     nodesatellites_param="F,0,0,1,0,1.4582365,0,1 @ F,0,0,1,0,4.7943319,0,1 @ F,0,0,1,0,0,0,1 @ F,0,0,1,0,0,0,1 @ F,0,0,1,0,0,0,1 @ F,0,0,1,0,0,0,1 @ F,0,0,1,0,0,0,1 @ F,0,0,1,0,0,0,1 @ F,0,0,1,0,2.051402,0,1"
     radius="0"
     unit="px"
     method="auto"
     mode="F"
     chamfer_steps="1"
     flexible="false"
     use_knot_distance="true"
     apply_no_radius="true"
     apply_with_radius="true"
     only_selected="false"
     hide_knots="false" /><inkscape:path-effect
     effect="fillet_chamfer"
     id="path-effect2-5-6"
     is_visible="true"
     lpeversion="1"
     nodesatellites_param="F,0,0,1,0,1.7191201,0,1 @ F,0,0,1,0,13.761382,0,1 @ F,0,0,1,0,13.761382,0,1 @ F,0,0,1,0,14.755441,0,1"
     radius="0"
     unit="px"
     method="auto"
     mode="F"
     chamfer_steps="1"
     flexible="false"
     use_knot_distance="true"
     apply_no_radius="true"
     apply_with_radius="true"
     only_selected="false"
     hide_knots="false" /><radialGradient
     id="SVGID_1_-3-2-7-7"
     cx="-159.43106"
     cy="15.462561"
     r="64.706802"
     gradientTransform="matrix(-0.89413329,0,0,0.96304834,-80.753654,49.330428)"
     gradientUnits="userSpaceOnUse"
     fx="-159.43106"
     fy="15.462561"><stop
       offset="0"
       style="stop-color:#4d93e8;stop-opacity:1;"
       id="stop1-6-9-5-5" /><stop
       offset="1"
       style="stop-color:#93c0ea;stop-opacity:1;"
       id="stop2-7-1-3-6" /></radialGradient><radialGradient
     id="radialGradient16-9-7"
     cx="-159.43106"
     cy="15.462561"
     r="64.706802"
     gradientTransform="matrix(-0.89413329,0,0,0.96304834,-80.753654,49.330428)"
     gradientUnits="userSpaceOnUse"
     fx="-159.43106"
     fy="15.462561"><stop
       offset="0"
       style="stop-color:#ba431a;stop-opacity:1;"
       id="stop15-1-5" /><stop
       offset="1"
       style="stop-color:#e95420;stop-opacity:1;"
       id="stop16-2-3" /></radialGradient><inkscape:path-effect
     effect="fillet_chamfer"
     id="path-effect20-7-8"
     is_visible="true"
     lpeversion="1"
     nodesatellites_param="F,0,0,1,0,1.4582365,0,1 @ F,0,0,1,0,4.7943319,0,1 @ F,0,0,1,0,0,0,1 @ F,0,0,1,0,0,0,1 @ F,0,0,1,0,0,0,1 @ F,0,0,1,0,0,0,1 @ F,0,0,1,0,0,0,1 @ F,0,0,1,0,0,0,1 @ F,0,0,1,0,2.051402,0,1"
     radius="0"
     unit="px"
     method="auto"
     mode="F"
     chamfer_steps="1"
     flexible="false"
     use_knot_distance="true"
     apply_no_radius="true"
     apply_with_radius="true"
     only_selected="false"
     hide_knots="false" /><inkscape:path-effect
     effect="fillet_chamfer"
     id="path-effect2-5-8"
     is_visible="true"
     lpeversion="1"
     nodesatellites_param="F,0,0,1,0,1.7191201,0,1 @ F,0,0,1,0,13.761382,0,1 @ F,0,0,1,0,13.761382,0,1 @ F,0,0,1,0,14.755441,0,1"
     radius="0"
     unit="px"
     method="auto"
     mode="F"
     chamfer_steps="1"
     flexible="false"
     use_knot_distance="true"
     apply_no_radius="true"
     apply_with_radius="true"
     only_selected="false"
     hide_knots="false" /><radialGradient
     id="SVGID_1_-3-2-7-3"
     cx="-159.43106"
     cy="15.462561"
     r="64.706802"
     gradientTransform="matrix(-0.89413329,0,0,0.96304834,-80.753654,49.330428)"
     gradientUnits="userSpaceOnUse"
     fx="-159.43106"
     fy="15.462561"><stop
       offset="0"
       style="stop-color:#eb6536;stop-opacity:1;"
       id="stop1-6-9-5-1" /><stop
       offset="1"
       style="stop-color:#eb6637;stop-opacity:1;"
       id="stop2-7-1-3-8" /></radialGradient></defs><sodipodi:namedview
   id="namedview14"
   pagecolor="#ffffff"
   bordercolor="#000000"
   borderopacity="0.25"
   inkscape:showpageshadow="2"
   inkscape:pageopacity="0.0"
   inkscape:pagecheckerboard="0"
   inkscape:deskcolor="#d1d1d1"
   inkscape:zoom="9.8221551"
   inkscape:cx="33.495704"
   inkscape:cy="41.742367"
   inkscape:window-width="3440"
   inkscape:window-height="1383"
   inkscape:window-x="0"
   inkscape:window-y="0"
   inkscape:window-maximized="1"
   inkscape:current-layer="Layer_1" />
<style
   type="text/css"
   id="style1">
	.st0{opacity:0.15;fill:url(#SVGID_1_);enable-background:new    ;}
	.st1{fill:url(#SVGID_2_);}
	.st2{opacity:0.34;fill:url(#SVGID_3_);enable-background:new    ;}
	.st3{fill:url(#SVGID_4_);}
	.st4{opacity:0.12;fill:url(#SVGID_5_);enable-background:new    ;}
	.st5{fill:url(#SVGID_6_);}
	.st6{fill:url(#SVGID_7_);}
</style>
<radialGradient
   id="SVGID_1_"
   cx="28.1281"
   cy="41.5136"
   r="40.0504"
   fx="5.4853"
   fy="23.9148"
   gradientTransform="matrix(1 0 0 -1 0 66)"
   gradientUnits="userSpaceOnUse">
	<stop
   offset="0"
   style="stop-color:#000000"
   id="stop1" />
	<stop
   offset="1"
   style="stop-color:#545454"
   id="stop2" />
</radialGradient>

<radialGradient
   id="SVGID_2_"
   cx="28.1281"
   cy="40.9267"
   r="40.0504"
   fx="5.4853"
   fy="23.3279"
   gradientTransform="matrix(1 0 0 -1 0 66)"
   gradientUnits="userSpaceOnUse">
	<stop
   offset="0"
   style="stop-color:#15C7FF"
   id="stop3" />
	<stop
   offset="1"
   style="stop-color:#005A9E"
   id="stop4" />
</radialGradient>

<linearGradient
   id="SVGID_3_"
   gradientUnits="userSpaceOnUse"
   x1="8"
   y1="39.25"
   x2="56"
   y2="39.25"
   gradientTransform="matrix(1 0 0 -1 0 66)">
	<stop
   offset="0"
   style="stop-color:#000000"
   id="stop5" />
	<stop
   offset="1"
   style="stop-color:#404040"
   id="stop6" />
</linearGradient>

<radialGradient
   id="SVGID_4_"
   cx="25.2137"
   cy="40.4365"
   r="32.3483"
   fx="16.5687"
   fy="32.5177"
   gradientTransform="matrix(1 0 0 -1 0 66)"
   gradientUnits="userSpaceOnUse">
	<stop
   offset="0"
   style="stop-color:#FFFFFF"
   id="stop7" />
	<stop
   offset="1"
   style="stop-color:#B7B7B7"
   id="stop8" />
</radialGradient>

<radialGradient
   id="SVGID_5_"
   cx="32"
   cy="27.8"
   r="40.0672"
   fx="14.0595"
   fy="13.6449"
   gradientTransform="matrix(1 0 0 -1 0 66)"
   gradientUnits="userSpaceOnUse">
	<stop
   offset="0"
   style="stop-color:#000000"
   id="stop9" />
	<stop
   offset="1"
   style="stop-color:#545454"
   id="stop10" />
</radialGradient>

<radialGradient
   id="SVGID_6_"
   cx="32"
   cy="27"
   r="40.0486"
   fx="14.0678"
   fy="12.8514"
   gradientTransform="matrix(1 0 0 -1 0 66)"
   gradientUnits="userSpaceOnUse">
	<stop
   offset="0"
   style="stop-color:#00F0F4"
   id="stop11" />
	<stop
   offset="1"
   style="stop-color:#1598FF"
   id="stop12" />
</radialGradient>

<linearGradient
   id="SVGID_7_"
   gradientUnits="userSpaceOnUse"
   x1="34.4234"
   y1="36.7839"
   x2="60.1699"
   y2="53.4533">
	<stop
   offset="0"
   style="stop-color:#15C7FF"
   id="stop13" />
	<stop
   offset="1"
   style="stop-color:#005A9E"
   id="stop14" />
</linearGradient>

<path
   id="rect1"
   style="fill:url(#radialGradient6);stroke-width:0.89691"
   d="M 57.112589,32 C 57.112589,18.087626 45.912372,6.8874125 31.999998,6.8874125 18.087625,6.8874125 6.887411,18.087626 6.887411,32 c 0,13.912373 11.200214,25.112587 25.112587,25.112587 13.912374,0 25.112591,-11.200214 25.112591,-25.112587 z" /><path
   d="m 32,12.001953 c -7.864088,-0.109208 -15.448957,4.944528 -18.428258,12.213577 -3.110519,7.141191 -1.500752,16.01223 3.950996,21.583161 5.245392,5.645249 13.88719,7.705478 21.123193,5.070434 7.500109,-2.548112 13.029038,-9.9164 13.326097,-17.839954 C 52.469938,25.326875 48.006012,17.627641 41.104484,14.189584 38.300705,12.748836 35.151574,11.997154 32,12.001953 Z m -1.95835,6.095689 c -0.332024,0.761564 -0.683994,1.577622 -0.647882,2.246285 -0.465328,2.431674 -0.227683,5.127828 1.344513,7.132629 -2.059882,0.484921 -3.292299,-1.80597 -5.05418,-2.423371 -2.405118,-0.605763 -3.33562,3.300633 -1.22144,4.41224 3.728441,3.058228 9.212342,2.097318 12.971336,5.072261 1.821549,1.83973 1.537635,4.836971 0.807769,7.10506 -0.905883,2.363484 -2.77452,4.126421 -4.923016,5.410901 -1.467809,0.877531 -3.179951,0.03518 -3.494611,-1.642457 -0.253412,-1.351085 -0.626725,-2.741272 -1.682998,-3.651229 -1.255267,-1.71243 -4.363766,-2.049173 -4.64678,-4.307005 0.200249,-1.051287 0.661532,-2.0325 1.310126,-2.870535 0.932117,-1.20437 0.870378,-2.122611 -0.613517,-2.505141 -2.429991,-0.626422 -4.844969,-1.352115 -6.912415,-2.836999 -2.0733,-0.693942 -0.77804,-2.618154 -0.241782,-3.979202 2.0723,-4.519926 6.350566,-8.042109 11.23191,-9.014935 1.207264,-0.240602 2.249019,0.759574 1.772967,1.851498 z m 16.282389,7.097515 c 0.746434,1.403905 1.245722,3.0055 1.530871,4.538612 0.231629,2.201028 0.248072,4.511049 -0.40489,6.642046 -0.165155,0.538997 -0.610002,0.586498 -0.937876,0.12763 -0.815811,-1.141749 -1.678014,-2.294718 -2.694287,-3.281834 -1.443973,-1.473893 -2.994668,-3.625619 -1.882385,-5.740884 0.480731,-0.964095 1.145001,-1.871336 1.920937,-2.653226 0.733982,-0.739614 1.978465,-0.552373 2.46763,0.367656 z"
   style="fill:#ffffff"
   id="path1"
   inkscape:path-effect="#path-effect1-3"
   inkscape:original-d="m 32,12.001953 c -7.864088,-0.109208 -15.448957,4.944528 -18.428258,12.213577 -3.110519,7.141191 -1.500752,16.01223 3.950996,21.583161 5.245392,5.645249 13.88719,7.705478 21.123193,5.070434 7.500109,-2.548112 13.029038,-9.9164 13.326097,-17.839954 C 52.469938,25.326875 48.006012,17.627641 41.104484,14.189584 38.300705,12.748836 35.151574,11.997154 32,12.001953 Z m -1.517578,3.984375 c 0.560377,0.788185 -1.166529,2.915624 -1.088654,4.357599 -0.465328,2.431674 -0.227683,5.127828 1.344513,7.132629 -2.059882,0.484921 -3.292299,-1.80597 -5.05418,-2.423371 -2.405118,-0.605763 -3.33562,3.300633 -1.22144,4.41224 3.728441,3.058228 9.212342,2.097318 12.971336,5.072261 1.821549,1.83973 1.537635,4.836971 0.807769,7.10506 -1.283028,3.347471 -4.49733,5.490253 -7.702704,6.775217 -0.822001,-1.693091 -0.457204,-4.986115 -2.397921,-6.658002 -1.255267,-1.71243 -4.363766,-2.049173 -4.64678,-4.307005 0.374815,-1.967739 1.664143,-3.689983 3.384541,-4.687337 -3.282329,-0.881518 -6.767567,-1.490775 -9.600347,-3.525338 -2.0733,-0.693942 -0.77804,-2.618154 -0.241782,-3.979202 2.380648,-5.192469 7.672577,-9.068187 13.445649,-9.274751 z m 14.816406,7.625 c 1.33436,1.685504 2.155999,3.97138 2.556082,6.122441 0.266904,2.536223 0.24809,5.217163 -0.751389,7.602162 -0.99497,-1.400791 -2.021029,-2.885967 -3.285664,-4.11432 -1.443973,-1.473893 -2.994668,-3.625619 -1.882385,-5.740884 0.758395,-1.520943 1.973578,-2.900391 3.363356,-3.869399 z"
   transform="matrix(0.89691014,0,0,0.89691014,3.2938025,3.2969492)" /><path
   id="rect1-0"
   style="fill:none;stroke:#000000;stroke-width:0.2;stroke-dasharray:none;stroke-opacity:1;filter:url(#filter1)"
   d="m 32.000981,6.8867175 c -13.912374,0 -25.1132818,11.2009085 -25.1132818,25.1132815 0,13.912374 11.2009078,25.113281 25.1132818,25.113281 13.912374,0 25.111321,-11.200907 25.111321,-25.113281 0,-13.912373 -11.198947,-25.1132815 -25.111321,-25.1132815 z m -0.002,7.1757815 c 2.826678,-0.0043 5.651278,0.670669 8.166015,1.962891 6.19005,3.083628 10.194636,9.988217 9.748056,16.896484 -0.26644,7.106716 -5.226211,13.714573 -11.953134,16 C 31.469921,51.285272 23.719297,49.43828 19.014653,44.374999 14.124924,39.378374 12.681828,31.422584 15.471684,25.017577 18.14385,18.497893 24.945647,13.964549 31.999028,14.062499 Z m -2.949219,3.775391 c -0.128343,-0.0058 -0.261133,0.0043 -0.396484,0.03125 -4.378129,0.872537 -8.215553,4.03197 -10.074219,8.085937 -0.480975,1.220738 -1.642768,2.945956 0.216797,3.568359 1.854313,1.331808 4.019734,1.983078 6.199219,2.544922 1.33092,0.343095 1.386807,1.165882 0.550781,2.246094 -0.581731,0.751642 -0.996177,1.633262 -1.175781,2.576172 0.253838,2.025072 3.042107,2.325432 4.167968,3.861328 0.947383,0.81615 1.282477,2.063588 1.509766,3.275391 0.282222,1.504689 1.818273,2.259722 3.134766,1.472656 1.927008,-1.152063 3.60352,-2.73173 4.416015,-4.851563 0.654624,-2.034272 0.909156,-4.722974 -0.724609,-6.373046 -3.371481,-2.668257 -8.290689,-1.805873 -11.634766,-4.548828 -1.89623,-0.997012 -1.061471,-4.5023 1.095703,-3.958985 1.580249,0.553753 2.685675,2.608759 4.533203,2.173828 -1.410118,-1.798126 -1.624388,-4.215491 -1.207031,-6.396484 -0.03239,-0.59973 0.284237,-1.332571 0.582031,-2.015625 0.373604,-0.856938 -0.294957,-1.65088 -1.193359,-1.691406 z m 14.457031,7.322265 c -0.315775,0.02414 -0.626178,0.157488 -0.873047,0.40625 -0.695944,0.701285 -1.291483,1.5142 -1.722656,2.378907 -0.997618,1.897202 0.392386,3.826487 1.6875,5.148437 0.911506,0.885354 1.68626,1.921266 2.417969,2.945313 0.294073,0.411563 0.691715,0.368197 0.839844,-0.115235 0.585649,-1.911313 0.571032,-3.982907 0.363281,-5.957031 -0.255753,-1.375064 -0.703563,-2.811135 -1.373047,-4.070313 -0.27421,-0.515739 -0.813553,-0.776556 -1.339844,-0.736328 z" /></svg>
