<?xml version="1.0" encoding="UTF-8" standalone="no"?>
<svg
   width="64"
   height="64"
   version="1.1"
   id="svg15"
   sodipodi:docname="AmneziaVPN.svg"
   inkscape:version="1.4.2 (ebf0e940d0, 2025-05-08)"
   xmlns:inkscape="http://www.inkscape.org/namespaces/inkscape"
   xmlns:sodipodi="http://sodipodi.sourceforge.net/DTD/sodipodi-0.dtd"
   xmlns:xlink="http://www.w3.org/1999/xlink"
   xmlns="http://www.w3.org/2000/svg"
   xmlns:svg="http://www.w3.org/2000/svg">
  <defs
     id="defs15">
    <linearGradient
       id="linearGradient17"
       inkscape:collect="always">
      <stop
         style="stop-color:#272727;stop-opacity:1;"
         offset="0"
         id="stop18" />
      <stop
         style="stop-color:#3f3f3f;stop-opacity:1;"
         offset="1"
         id="stop19" />
    </linearGradient>
    <linearGradient
       id="linearGradient16"
       inkscape:collect="always">
      <stop
         style="stop-color:#ff0000;stop-opacity:1;"
         offset="0"
         id="stop16" />
      <stop
         style="stop-color:#0074ff;stop-opacity:1;"
         offset="1"
         id="stop17" />
    </linearGradient>
    <filter
       inkscape:collect="always"
       style="color-interpolation-filters:sRGB"
       id="filter16"
       x="-0.038308315"
       y="-0.040560342"
       width="1.0815865"
       height="1.0811344">
      <feGaussianBlur
         inkscape:collect="always"
         stdDeviation="0.7695704"
         id="feGaussianBlur16" />
    </filter>
    <radialGradient
       inkscape:collect="always"
       xlink:href="#linearGradient16"
       id="radialGradient17"
       cx="51.590366"
       cy="51.700916"
       fx="51.590366"
       fy="51.700916"
       r="27.484457"
       gradientTransform="matrix(0,-1.9853438,1.8743703,0,-45.316298,152.91237)"
       gradientUnits="userSpaceOnUse" />
    <radialGradient
       inkscape:collect="always"
       xlink:href="#linearGradient17"
       id="radialGradient19"
       cx="64.032227"
       cy="64.032227"
       fx="64.032227"
       fy="64.032227"
       r="28"
       gradientUnits="userSpaceOnUse"
       gradientTransform="matrix(0,-2.2880163,2.2880163,0,-82.474551,210.539)" />
    <filter
       inkscape:collect="always"
       style="color-interpolation-filters:sRGB"
       id="filter19"
       x="-0.068501187"
       y="-0.068501187"
       width="1.1370024"
       height="1.1370024">
      <feGaussianBlur
         inkscape:collect="always"
         stdDeviation="1.5566944"
         id="feGaussianBlur19" />
    </filter>
  </defs>
  <sodipodi:namedview
     id="namedview15"
     pagecolor="#ffffff"
     bordercolor="#000000"
     borderopacity="0.25"
     inkscape:showpageshadow="2"
     inkscape:pageopacity="0.0"
     inkscape:pagecheckerboard="0"
     inkscape:deskcolor="#d1d1d1"
     inkscape:zoom="13.42398"
     inkscape:cx="12.887385"
     inkscape:cy="41.530156"
     inkscape:current-layer="svg15" />
  <g
     id="g19">
    <circle
       cx="32"
       cy="32"
       r="28"
       style="fill:url(#radialGradient19)"
       id="circle2" />
    <circle
       cx="32"
       cy="32"
       r="28"
       style="fill:none;stroke:#000000;stroke-opacity:1;stroke-width:0.19999992;stroke-dasharray:none;filter:url(#filter19)"
       id="circle2-2" />
    <g
       id="g15">
      <path
         d="m37.406175 28.841765c0-0.13236-0.32716-0.236968-0.446104-0.267652-0.11896-0.03068-0.266924-0.09212-0.48469-0.1705-0.22821-0.08214-0.635882-0.449448-0.88521-0.450776l-0.36175 0.12286-0.19716-0.672766c-0.08699-0.296774-0.265352-0.88598-0.435272-1.299552l-0.33728-0.849292 0.03462-0.438468c0.0136-0.17224 0.462016-0.0387 0.53413-0.111 0.07212-0.0723 0.329708-0.507026 0.485844-0.915082 0.337714-0.882616 0.928262-2.333332 0.96576-2.296528 0.0146 0.0144 0.488612 1.392646 0.828264 2.400078 0.339654 1.007428 0.70727 2.015756 0.816932 2.240724 0.10966 0.22497 0.17546 0.42354 0.14624 0.44127-0.10236 0.0621 0.0098 1.069924 0.0855 1.208524 0.10692 0.19612 0.214768 0.786374 0.17128 0.897622-0.05082 0.13-0.921112 0.638592-0.921112 0.341326zm6.59334-4.081096c-0.9902-1.2533-3.875514-3.19393-6.190458-4.086018-1.250312-0.481822-1.076696-0.424366-0.66911-1.216865 0.451812-0.878499 0.475002-1.004252-0.084-2.212358-0.1942-0.419699-0.449412-0.918123-0.515208-1.209592-0.06578-0.291468-0.14278-0.818068-0.240358-1.051242-0.09758-0.233176-0.375916-0.478822-0.376098-0.511887 0-0.03306 1.10902-0.0202 1.77222-0.0054 1.474154 0.03291 1.433 0.01728 3.046958 1.155966 2.271994 1.602926 3.16399 2.312424 4.7819 3.80352 0.44754 0.412462 0.536578 0.464662 0.795744 0.466513 0.30098 0.0021 0.956256 0.277203 1.119034 0.469717 0.07502 0.08872 0.05118 0.18652-0.1365 0.56007-0.12506 0.248924-0.21151 0.49313-0.19212 0.542686 0.0194 0.04956 0.211022 0.18038 0.425844 0.29075 0.214828 0.11036 0.525658 0.350056 0.65835 0.472874 0.211908 0.1703 0.219232 0.13 0.0011 0.41315-0.30052 0.510516-1.564472 2.033844-1.9319 2.318332-0.410538 0.31787-0.847172 0.60983-1.319324 0.76551-0.394308 0.13-0.651886-0.575328-0.946058-0.965736z"
         style="fill:#f7b0bd"
         id="path4" />
      <path
         d="m38.464763 29.430051c-0.85922-0.531154-1.434662-1.100702-1.399982-1.112688 0.03466-0.0122 0.19378 0.04364 0.35353 0.12364 0.335258 0.16788 0.62397 0.18834 0.678784 0.04816 0.04364-0.11164-0.17782-0.745226-0.285426-0.942554-0.06808-0.12488 0.09654-0.952238 0.19896-1.114882 0.021-0.03334 0.209118 0.325862 0.366106 0.61126 0.47903 0.87086 0.783548 1.079746 1.553046 1.065332 0.882434-0.0166 1.724646-0.289958 3.348314-1.087038 1.28512-0.63088 1.336084-0.684838 1.206592-1.277458-0.04134-0.1892-0.07516-0.353996-0.07516-0.366234 0-0.0124 0.1487-0.04226 0.330474-0.06672 0.437082-0.05878 0.895468-0.263624 1.31236-0.586412 0.36713-0.284258 1.588778-1.73812 1.888892-2.247936l0.18422-0.312938 0.544154 0.480374 0.54416 0.480374 0.17166 0.344886c0.1876 0.376876-0.839978 1.207512-1.037444 1.428992-0.254414 0.285366-0.438622 0.559536-0.597774 0.974862-0.382856 0.999086-0.770394 1.235916-1.098282 1.519198-0.36991 0.319592-0.534846 0.535476-1.602192 0.683726-1.347682 0.18718-1.81708 0.652342-3.055532 1.60664-0.757544 0.583722-1.327836 0.489578-1.688114 0.555194-0.13852 0.02524-0.639064-0.06454-1.841374-0.807802z"
         style="fill:#fdefce"
         id="path5" />
      <path
         d="m22.416749 48.963921c-0.1188-0.05056-0.279994-0.12724-0.372312-0.129-0.14746-0.0028-0.339534-0.1735-0.02654-0.43733 0.19594-0.16518 0.595348-0.599978 0.907468-0.927216 0.312124-0.327228 0.543282-1.214326 0.806634-1.156392l0.75179 0.16538 0.514258 0.232098c0.28284 0.12764 0.651936 0.272142 0.820212 0.321076 0.09292 0.02702 0.43387 0.16008 0.478988 0.18338 0.09668 0.04996-0.08098 0.13156-0.08098 0.310448 0 0.335648-0.17592 0.608798-0.421512 0.766742-0.10384 0.0668-0.568932 0.05268-0.98484 0.10646-0.45452 0.05878-0.916928 0.16986-1.205346 0.289562-0.85473 0.354716-0.94886 0.376486-1.187826 0.27477zm16.24615-13.26214c-0.02676-0.11042-0.07434-0.375438-0.14564-0.582772-0.07132-0.20733-0.11102-0.375058-0.08826-0.37272 0.287802 0.02952 0.429506-0.19194 0.57933-0.338986 0.1536-0.15076 0.13276-0.17624 0.12272-0.56264-9e-3 -0.35011 0.0412-0.506006 0.18404-0.784128 0.365934-0.712516 0.5711-1.718232 0.61923-2.435144l0.02836-0.42209 0.551822-0.04764c0.1597-0.014 0.72371-0.312846 1.519408-0.933842 1.129796-0.88175 1.667252-1.115396 2.987562-1.298782 1.06735-0.14826 1.133104-0.336324 1.503012-0.655914 0.32789-0.283284 0.60208-0.422768 0.984938-1.421852 0.15902-0.414966 0.329214-0.703428 0.582926-0.988004 0.19708-0.221058 0.522148-0.688644 0.72235-1.03908 0.200208-0.350436 0.387528-0.67543 0.39895-0.688216 0.0114-0.013 0.250272 0.19848 0.548104 0.435484 0.623652 0.496284 1.049418 0.707038 1.432814 0.709244 0.14848 8.5e-4 0.269962 0.0196 0.269962 0.0415 0 0.02198 0.205676 0.35159 0.06862 0.642758-0.520302 1.105308-0.426282 1.648336-1.366032 2.764204-0.685856 0.814392-1.386494 0.609986-2.374598 1.620812l-0.719346 0.07678c-1.453026 0.1551-3.31403 0.65997-4.813232 1.38437-0.904348 0.436974-1.276142 0.730118-1.322942 1.043084-0.05102 0.341244 0.11708 1.119776 0.463138 2.144978l0.310518 0.91989-0.1807 0.709154c-0.20337 0.798116-2.251058 1.844038-2.547094 1.074974l-0.24384-0.681474z"
         style="fill:#ffd7a0"
         id="path6" />
      <path
         d="m25.665675 26.331589c0.07666-0.29962 0.522302-1.61724 0.952228-2.938566 0.429928-1.321326 0.76662-2.442156 0.748206-2.490732-0.04558-0.12028-0.577368-0.11274-0.941472 0.0136-0.16146 0.05592-0.468642 0.211578-0.682596 0.345914l-0.38901 0.244248-0.309788-0.39891c-0.1359-0.17498-0.12382-0.573794-0.06968-0.787536 0.05414-0.213744 0.19052-0.631048 0.216524-0.825361 0.026-0.194312 0.19778-0.793325 0.312496-1.195169 0.224218-0.785462-0.10682-1.644139 0.315736-1.978061l0.55785-0.440922 0.447124-0.119139c0.245916-0.06552 0.477118-0.155688 0.513784-0.20036 0.03666-0.04468 0.09046-0.222666 0.11954-0.39554 0.07828-0.465221 0.321828-0.667803 0.936388-0.778813 1.28048-0.231295 1.809072-0.725548 2.013856-1.883028 0.05162-0.291738 0.15458-0.797717 0.16912-0.812003 0.12714-0.124784 0.885026-0.571399 1.08902-0.571443 0.247674-5.3e-5 0.16478 0.137952 0.41935-0.339036 0.249426-0.467339 0.342604-0.630314 0.455094-1.4562262 0.02514-0.184596 0.09448-0.6790886 0.12428-0.6790886 0.02978 0 0.276632 0.7016288 0.369522 1.0222446 0.272272 0.9397742 1.009194 3.0242092 1.19945 3.3927232 0.37137 0.719321 0.971646 1.163482 1.797248 1.329839l0.439128 0.08849 0.19478 0.491405c0.10714 0.270273 0.24596 0.717999 0.308518 0.994945 0.06256 0.276946 0.27246 0.846929 0.466464 1.266626 0.406816 0.880078 0.511036 1.311061 0.4167 1.723155-0.095 0.414995-0.636248 1.475112-0.738564 1.446588-0.462592-0.12896-1.062514-0.19676-1.118478-0.1264-0.03894 0.04898 0.03776 0.393736 0.19854 0.892272l0.262028 0.812458-0.369742 0.8127c-0.203362 0.446982-0.492494 1.137848-0.642516 1.535256-0.15004 0.397408-0.33156 0.774776-0.40341 0.8386-0.07186 0.06384-0.269632 0.1311-0.439516 0.14944l-0.308876 0.0334-0.458176-0.907334c-0.809842-1.603756-2.01936-3.628008-2.221902-3.718592-0.352856-0.1578-0.508642 0.15436-1.418034 2.841486-0.454694 1.343562-0.828168 2.406342-0.829944 2.361738-0.0038-0.09718-0.923498-0.529-0.994896-0.527388-0.02744 6.18e-4 -0.219396 0.05994-0.599748 0.420762-0.683008 0.64794-1.556872 1.816346-2.03732 1.267784l-0.203322-0.23215z"
         style="fill:#73d5fa"
         id="path7" />
      <path
         d="m23.629017 49.515525-1.125794-0.524086 0.886762-0.290202c0.509148-0.16662 0.916714-0.351934 1.40305-0.413536 0.397882-0.05038 0.833046-0.03412 0.937382-0.10122 0.242088-0.1557 0.39379-0.452568 0.39379-0.770624 0-0.17042-0.0114-0.236002 0.1155-0.214604 0.0821 0.014 0.222058 0.06408 0.460418 0.14584 0.04376 0.015 0.615054 0.19768 0.644788 0.210804 0.12566 0.05544-0.352648 0.08044-0.368802 0.25592-0.03354 0.364214-0.384028 0.94613-0.72833 1.2751-0.275886 0.2636-1.311934 1.0033-1.421192 0.993924 0.06082 0.03882-0.274648-0.11748-0.370394-0.1626-0.17954-0.08458-0.48277-0.244382-0.827176-0.404712zm15.639166-10.77712c-0.33788-0.732024-0.457822-1.433646-0.5142-2.187522l-0.0502-0.67104 0.31524-0.04806c0.635556-0.09686 1.410488-0.333308 2.025032-0.617828 0.346472-0.16042 0.651138-0.327594 0.664786-0.311422 0.05406 0.06404 0.81437 2.411496 0.77338 2.386632-0.02412-0.0148 0.242236 0.335574 0.02764 0.549386-0.214608 0.213812-0.833552 0.688258-1.150302 0.867368-0.316754 0.17912-0.743944 0.271378-0.862728 0.358002-0.11878 0.08662-0.59073 0.590396-0.721006 0.468476l-0.19648-0.11984zm8.147728-8.020646c0.0114-0.832884 0.05026-1.425998 0.09936-1.51917 0.203884-0.386798 0.647804-0.865928 1.230968-1.328612 1.161596-0.921622 2.013428-1.961438 2.503504-3.055992l0.22842-0.51015 0.91028-0.220614c0.500652-0.12136 1.331228-0.32124 1.343026-0.30966 0.039 0.03828-0.701914 1.473298-1.022248 2.25563-0.257508 0.628906-0.533188 0.887874-0.924384 1.336828-0.550524 0.631812-0.808428 1.087238-0.871514 1.538978-0.02994 0.214526-0.13652 0.676612-0.32818 0.927036-0.1561 0.203952-0.378094 0.740198-0.539016 1.012234-0.453868 0.767244-0.754768 0.946734-1.187978 1.141398-0.386196 0.17354-0.822682 0.706748-1.238496 0.570484-0.12756-0.0418-0.216526-0.369518-0.236058-0.23408-0.0132 0.09114 0.02196-0.852832 0.0323-1.60431z"
         style="fill:#ffc364"
         id="path8" />
      <path
         d="m26.996033 29.800695c-0.803884-0.06262-1.275896-0.17398-1.85171-0.395254-0.251264-0.09656-0.253238-0.418588-0.26884-0.372902-0.0618 0.18098 0.08326-0.465046 0.286556-1.072592l0.369636-1.10463 0.31608-0.11104c0.69158-0.242966 1.2493-0.603832 1.927326-1.247056 0.378832-0.359388 0.711232-0.653938 0.738666-0.654558 0.09134-2e-3 0.891278 0.966708 0.853214 1.08365-0.03782 0.11618-0.495526 1.537748-0.75215 2.415314l-0.3809 1.19874-0.365092 0.366424c-0.1081 0.10848-0.516438-0.07834-0.872786-0.10608zm3.555098-18.154744c0.0205-0.145734 0.11928-1.20297 0.219506-2.3494144 0.223464-2.5559108 0.262176-2.7656004 0.57177-3.0971834 0.19422-0.208015 0.256208-0.2384834 0.342384-0.168286 0.17756 0.144634 0.535834 0.9921222 0.841314 1.9900806 0.23983 0.7834836 0.279596 0.994419 0.226456 1.2012042-0.03546 0.137958-0.0851 0.4416116-0.11034 0.6747872-0.03066 0.2833428-0.1423 0.6172958-0.336604 1.0068918-0.285324 0.572104-0.295626 0.582938-0.554458 0.582993-0.14504 3.1e-5 -0.469112 0.09542-0.720132 0.211977-0.25102 0.116556-0.47007 0.211922-0.486778 0.211922-0.0168 0-0.0136-0.119238 0.0068-0.264972z"
         style="fill:#70acea"
         id="path9" />
      <path
         d="m13.608335 30.052639c0-0.02596 0.10183-0.299898 0.169298-0.47475 0.245046-0.635078 0.850597-2.05176 1.202769-2.793232 1.388351-2.923076 1.901583-3.941872 2.001142-3.972384 0.470632-0.14426 0.516225-0.18806 0.821834-0.789892 0.169758-0.334296 0.366854-0.759886 0.437989-0.94575 0.07112-0.18586 0.159556-0.356274 0.196494-0.37868 0.03693-0.0224 0.155388 0.04224 0.263223 0.14362 0.10783 0.10138 0.249852 0.18438 0.315597 0.18438 0.251427 0 0.674289-0.49975 1.681556-1.98731 0.573378-0.84678 1.139388-1.619614 1.2578-1.717411 0.1184-0.09779 0.351502-0.213614 0.51798-0.257376 0.16646-0.04376 1.104356-0.314868 2.084184-0.602461 0.979828-0.287592 1.797576-0.58146 1.81797-0.58146 0.0889 0-0.218988 1.759819-0.462706 2.613588-0.11472 0.401844-0.229826 0.889606-0.255822 1.08392-0.026 0.194314-0.0919 0.528176-0.14648 0.74192-0.05458 0.213742-0.11056 0.555386-0.12444 0.759202l-0.0337 0.427242-0.740268 0.441878c-1.130224 0.674652-2.004208 1.464232-3.050122 2.46607-1.511637 1.447932-2.622961 2.851498-3.333169 4.209686-0.10872 0.207918-0.266008 0.52741-0.334704 0.613348-0.09219 0.11532-0.352266 0.48503-0.523478 0.53967-1.067113 0.340542-3.762954 0.44437-3.762955 0.276184z"
         style="fill:#59ecdc"
         id="path10" />
      <path
         d="m18.634169 48.494659c-0.0059-1.09884 0.01016-1.068726-1.217655-2.275774l-1.092797-1.074282 0.246232-0.615052c0.294213-0.734888 1.619684-0.450324 2.371586-0.304452 0.6838 0.13264 1.230321-0.08214 1.524979-0.17454 1.050651-0.19692 1.651465-0.803764 2.815329-0.924902 0 0-0.0012 0.05102-0.0012 0.953652 0 1.156458 0.1176 1.47457 0.761376 2.059582l0.441784 0.340468-0.31282 0.237636c-0.1535 0.11662-0.587116 0.503514-0.95016 0.877762-0.36304 0.374246-0.78167 0.784882-0.930282 0.912526l-0.280608 0.316342-0.12482-0.248178-0.18482-0.05266-0.520022 0.234116c-0.486523 0.2241-0.672481 0.341734-1.257984 0.393092-0.386401 0.03388-1.121562 0.12534-1.27004 0.12672l-0.01492-0.1991zm19.536354-14.19776c-0.289878-0.541444-0.611574-0.844318-1.02633-0.966284-0.55147-0.16218-2.516612-0.07916-3.993248 0.16866-0.352082 0.0591-1.089654 0.18792-1.100794 0.177-0.011-0.0108-0.374352-0.59896-0.417362-1.142768-0.043-0.543804 0.3702-0.92592 0.349736-1.141304l-0.04284-0.450674 0.692098-0.25901c0.582816-0.21811 1.617756-0.706072 1.978952-1.009948 0.41073-0.34555 0.580542-0.718786 0.582556-1.280406l0.0017-0.44162h0.344256c0.670702 0 1.026174 0.15622 2.813464 1.236458l1.737564 1.022364v0.426018c0 0.75007-0.260868 1.783256-0.633398 2.508602-0.14148 0.275478-0.17896 0.448894-0.17018 0.787334 0.014 0.535414-0.11418 0.721716-0.549898 0.799918l-0.3044 0.05464zm-25.148399-2.22265c0.02053-0.07326 0.06494-0.292016 0.08416-0.360316 0.309219-1.099128 0.450414-1.565638 0.502056-1.661294 0.04234-0.07842 0.151452-0.12378 0.298192-0.12398 0.642459-9.02e-4 3.374449-0.538956 3.943853-0.764896 0.09027-0.03582 0.05657 0.1404-0.15987 0.668304-0.155444 0.37913-0.373767 1.025034-0.485167 1.435342l-0.20819 0.78134-1.577498 0.506778c-1.784688 0.573346-2.430445-0.363864-2.397534-0.48128z"
         style="fill:#a09ca0"
         id="path11" />
      <path
         d="m18.013863 53.913735c-0.05687-0.14544 0.0093-0.98899 0.12593-1.603486 0.103722-0.546886 0.214896-0.910278 0.457018-0.543414 0.1962 0.297288 0.31313 0.592992 0.475487 0.332002 0.06648-0.10686 0.161002-0.343402 0.290624-0.476946l0.240588-0.247876 0.05005 0.28264c0.04134 0.233472-4.86e-4 0.411686-0.240548 1.024556-0.366593 0.935932-0.566143 1.160314-1.155242 1.299012-0.147594 0.03474-0.211103 0.0174-0.243913-0.06648zm29.453756-0.306784c-0.708276-0.39876-1.24622-1.117136-1.965932-2.625322-0.434978-0.911506-0.470868-0.962678-0.791888-1.129108-0.19014-0.09856-0.41189-0.28947-0.510296-0.439294l-0.17402-0.264972h-0.555902c-0.305744 0-0.821894 0.04954-1.146994 0.11006-0.580738 0.10812-2.694172 0.802052-4.752034 1.56028-2.716254 1.000812-3.890008 1.038482-8.2068 0.263382-0.970058-0.1742-2.190906-0.37502-2.712992-0.446314-0.730676-0.09978-1.066342-0.1826-1.457786-0.359692-0.279696-0.12652-0.507612-0.249206-0.506478-0.272596 0.0011-0.0234 0.249058-0.18562 0.550954-0.360504 0.301894-0.17488 0.719758-0.470082 0.928592-0.656008 0.37771-0.33628 0.749068-0.935784 0.751172-1.212664 0.0016-0.19994 0.03166-0.274716 0.260942-0.253052 0.12288 0.0114 0.302962 0.0509 0.566492 0.11348 1.596788 0.37921 2.115498 0.417274 5.693766 0.417854l3.318774 5.3e-4 1.144574-0.552968c2.846706-1.375314 3.775916-1.985708 3.884042-2.551406 0.09094-0.475804-0.258536-1.774748-0.76962-2.860548-0.15434-0.327902-0.555418-1.077814-0.89127-1.66647-0.335858-0.588656-0.610646-1.10378-0.610646-1.14473 0-0.04094 0.09852-0.1145 0.218902-0.16344 0.1204-0.04894 0.339064-0.17418 0.485928-0.278278 0.14686-0.1041 0.509992-0.32624 0.80695-0.49362 0.296958-0.1674 0.738462-0.49438 0.981118-0.726648 0.242662-0.23227 0.457998-0.395254 0.478532-0.362186 0.02054 0.03306 0.1426 0.33039 0.271256 0.660724 0.386842 0.993208 1.646506 3.67586 1.847468 3.93446 0.313614 0.403574 0.426954 0.321672 0.93028-0.672222 0.956022-1.887794 1.488054-4.047938 1.751938-7.11316 0.04016-0.46635 0.07334-1.07446 0.07374-1.351356 5.4e-4 -0.276896 0.02152-0.605346 0.04688-0.729892 0.03914-0.19212 0.06916-0.218858 0.19798-0.1764 0.410204 0.13522 0.830458 0.11526 1.215556-0.05778 0.43321-0.19466 0.73411-0.520952 1.187978-1.288196 0.16092-0.272036 0.424724-0.667286 0.586212-0.878336l0.293626-0.383718v0.316596c0 0.17412 0.03886 0.35475 0.08638 0.401384 0.05922 0.05812 0.413334 0.08478 1.125694 0.08478h1.039306l-0.03648 0.445944c-0.04464 0.545966-0.234498 0.981836-0.694548 1.594586-0.461384 0.614524-0.690612 1.072872-1.02909 2.057696-0.41557 1.209146-0.491274 1.75615-0.491274 3.549672 0 2.362926-0.08 2.561804-1.996324 4.962292-0.682586 0.855046-1.340372 1.737508-1.461752 1.961026-0.58064 1.069258-0.551772 2.071008 0.15184 5.268662 0.291596 1.325186 0.622612 3.666726 0.54604 3.86257-0.06302 0.1612-0.254378 0.13366-0.660772-0.09516zm4.897078-27.038092c0.235124-0.537216 0.670354-1.696692 0.826348-2.201424 0.09786-0.316636 0.2028-0.523486 0.2773-0.546578 0.0659-0.02046 0.621976-0.14848 1.235684-0.284548 1.377512-0.30541 2.412844-0.4294 2.987568-0.357792l0.431936 0.0538-1.231182 0.582356c-1.976682 0.934982-3.145122 1.664394-4.192888 2.617474l-0.456794 0.415512z"
         style="fill:#ff8818"
         id="path12" />
      <path
         d="m18.582649 52.079729c-0.08945-0.13556-0.203946-0.246428-0.254433-0.246428-0.07046 0-0.05432-0.19294 0.06942-0.830248 0.08867-0.456634 0.181188-1.072 0.205593-1.367476l0.04437-0.537234 0.959749-0.07102c0.884166-0.06542 1.005499-0.09208 1.540667-0.33858 0.481484-0.22177 0.576724-0.336958 0.667844-0.262734 0.1484 0.12088 0.323326 0.397086 0.16808 0.397574-0.281636 9e-4 -0.845464 0.1329-1.085188 0.33949-0.282513 0.243468-0.450856 0.5359-0.642275 1.115716-0.07056 0.213748-0.257187 0.469246-0.333821 0.620728-0.12689 0.250832-0.100956 0.229226-0.439489 0.676164-0.128682 0.16988-0.289149 0.408636-0.356599 0.530552-0.159658 0.288598-0.34183 0.279718-0.543931-0.02652z"
         style="fill:#b39158"
         id="path13" />
      <path
         d="m15.612616 44.431761c-0.363745-0.37891-0.901242-1.044168-1.194437-1.47835-0.569213-0.842928-0.833734-1.069842-1.322069-1.134136l-0.281915-0.0371 0.419205-0.876764c0.50223-1.050412 1.932405-1.800098 3.140054-1.074942l0.788971 0.473748 0.09292 0.482778c0.171966 0.89335 0.667404 1.715634 1.31469 2.182008 0.395143 0.284702 0.821536 0.381782 1.017279 0.231612 0.07371-0.05656 0.276459-0.625598 0.511375-1.435304l0.435999-1.495016 0.451553-0.10968c0.205844-0.05 0.309788-0.0152 0.658036 0.10038 0.516096 0.1711 0.572138 0.1957 1.464628 0.07908 0.350468-0.0458 0.83245-0.0162 0.855608 0.0068 0 0-0.14718 0.433168-0.251964 0.75742-0.10478 0.324256-0.244542 0.91174-0.310604 1.30552l-0.12012 0.715968-0.468542 0.19874c-0.257698 0.10932-0.7439 0.356552-1.080452 0.549426-0.33655 0.19286-0.740764 0.416132-0.898254 0.496142-0.361817 0.18382-1.08198 0.234034-1.534211 0.107-0.470491-0.13216-1.408376-0.11534-1.860396 0.03338-0.20319 0.06686-0.527039 0.231524-0.719666 0.365946-0.192626 0.13442-0.370172 0.26832-0.396606 0.26832-0.02643 0-0.347356-0.333934-0.711101-0.712842zm0.315518-9.598964c-0.376144-0.03042-1.303609 0.464926-1.975198 0.17106l-1.348631-0.590104 0.07096-0.48227c0.03508-0.238472 0.12391-0.74866 0.203022-1.13298 0.07912-0.38432 0.143844-0.710236 0.143844-0.724256 0-0.014 0.894382-0.0255 1.987516-0.0255h1.987515l-0.04648 0.18172c-0.168774 0.66002-0.329088 2.238804-0.329088 2.238804-0.0028-0.0058-0.317318 0.393912-0.693463 0.363514zm13.721121-0.542268c-0.17784-0.02978-0.02306-0.718334-0.13272-1.05642-0.512094-1.578512-0.581746-1.68594-2.09547-1.041896-1.255676 0.534252-2.644312 0.637116-3.553046 0.676266-0.445434 0.0192-0.19144-0.2624-0.19144-0.293852 0-0.11544 1.140604-3.48007 1.198918-3.542088 0.0355-0.03776 0.19018 0.02046 0.435756 0.11324 0.64484 0.243644 0.849532 0.282994 1.891268 0.36359 0.533674 0.04128 1.020642 0.02044 1.031402 0.03098 0.0106 0.0106-0.13676 0.438338-0.27707 0.873268-0.1403 0.434926-0.235602 0.821774-0.21175 0.859658 0.09994 0.15868 2.33398 0.0044 3.605842-0.249112 0.468306-0.09334 0.858832-0.16246 0.867836-0.1536 0.02 0.0196 0.14164 1.266996 0.206258 2.114212 0.03704 0.48553 0.02648 0.624462-0.0493 0.647936-0.05304 0.0164-0.403542 0.1136-0.7789 0.215946-0.375358 0.10234-0.861288 0.25675-1.079844 0.34314l-0.51943 0.15706z"
         style="fill:#5e74c2"
         id="path14" />
      <path
         d="m7.4828085 42.676077c0.13645-0.13978 0.944586-0.81437 1.7958618-1.499052 0.8512757-0.684674 1.9259257-1.611634 2.3881117-2.059904l0.840338-0.815034 0.02503-1.92104c0.01384-1.056574 0.04624-1.941852 0.07216-1.96729 0.06175-0.0606 1.774928-0.0574 3.027438 0.0056l0.989855 0.04986v0.6622c0 0.785722-0.08692 0.748838 1.132241 0.480458 2.375683-0.52298 5.362721-1.921394 5.742753-2.688542l0.14398-0.29064 0.827878-0.03504c0.928212-0.03926 1.514128-0.19366 2.781728-0.732984 1.154806-0.491336 1.774116-0.42162 2.22744 0.250744 0.227108 0.336836 0.580038 1.332278 0.646374 1.823076l0.04704 0.348004-0.889576 0.437004c-0.489264 0.240356-1.196148 0.650998-1.570848 0.912542-0.838568 0.585326-1.911394 1.628958-2.48626 2.4186-0.402524 0.552906-1.259818 2.112614-1.259818 2.29203 0 0.0485-0.289302 0.11352-0.73789 0.1658-1.008236 0.1175-1.25154 0.10914-1.741188-0.05976-0.301352-0.10396-0.503844-0.1322-0.70665-0.09858-0.254213 0.04216-0.280016 0.03328-0.244094-0.08394 0.33039-1.078038 0.399822-1.531478 0.248546-1.623244-0.120484-0.07308-0.646329-0.03724-1.242751 0.08472-0.889642 0.18192-1.826913 0.743878-2.186008 1.218332-0.09246 0.12216-0.183874 0.2084-0.192062 0.354102 0 0-0.0041 0-0.564669 0.04694-1.428712 0.11892-2.120386 0.339604-3.119568 0.995304-0.50893 0.333974-0.663993 0.435734-0.663993 0.435734-0.04504-0.0058-0.387586 0.02482-0.486443 0.03932-0.496385 0.07282-1.66331 0.32785-3.4722789 0.759066-0.8068742 0.19234-1.501629 0.349708-1.5438984 0.349708-0.04227 0 0.034786-0.1144 0.171232-0.254182z"
         style="fill:#705db5"
         id="path15" />
    </g>
    <path
       d="m 31.601562,5.9960937 c -0.0041,1.736e-4 -0.0075,0.0012 -0.01172,0.00195 -0.05627,0.010071 -0.12666,0.071162 -0.248047,0.2011718 -0.309594,0.331583 -0.346849,0.5417455 -0.570313,3.0976563 -0.100226,1.146444 -0.200203,2.203875 -0.220703,2.349609 -0.01226,0.08758 -0.01835,0.164577 -0.01758,0.212891 -0.03852,0.176962 -0.0936,0.456044 -0.126953,0.644531 -0.204784,1.15748 -0.733192,1.651518 -2.013672,1.882813 -0.61456,0.11101 -0.857267,0.314076 -0.935547,0.779297 -0.02908,0.172874 -0.08248,0.349851 -0.11914,0.394531 -0.03667,0.04467 -0.267756,0.135652 -0.513672,0.201172 l -0.445313,0.11914 h -0.002 c -0.02039,0 -0.838531,0.292486 -1.818359,0.580078 -0.979828,0.287593 -1.917525,0.559756 -2.083985,0.603516 -0.166478,0.04376 -0.401131,0.15807 -0.519531,0.255859 -0.118412,0.0978 -0.684434,0.871971 -1.257812,1.71875 -1.007267,1.487561 -1.428261,1.986329 -1.679688,1.986329 -0.06574,0 -0.208576,-0.08221 -0.316406,-0.183594 -0.104465,-0.09821 -0.219141,-0.162962 -0.259766,-0.146485 l -0.002,0.002 h -0.002 c -0.03694,0.02241 -0.124193,0.193046 -0.195313,0.378906 -0.07113,0.185864 -0.269695,0.611016 -0.439453,0.945312 -0.305609,0.601832 -0.34968,0.646756 -0.820312,0.791016 -0.09956,0.03051 -0.613602,1.04958 -2.001953,3.972656 -0.352172,0.741472 -0.958079,2.157891 -1.203125,2.792969 -0.06747,0.174852 -0.169922,0.448649 -0.169922,0.474609 -0.05165,0.09571 -0.19276,0.563074 -0.501953,1.66211 -0.01921,0.06825 -0.06344,0.285958 -0.08399,0.359375 0,0 0,0.002 0,0.002 0,0 0,0.002 0,0.002 -0.0039,0.03244 -0.06596,0.348539 -0.142578,0.720703 -0.07911,0.38432 -0.168045,0.894341 -0.203125,1.132813 l -0.07226,0.482421 c -0.02592,0.02544 -0.05843,0.910223 -0.07227,1.966797 l -0.02344,1.921875 -0.841797,0.814453 c -0.462186,0.44827 -1.535443,1.375873 -2.3867191,2.060547 -0.8512758,0.684682 -1.660425,1.358267 -1.796875,1.498047 -0.1039335,0.106475 -0.1732439,0.20066 -0.1816407,0.238281 -1.455e-4,0.0011 9.4e-6,0.0029 0,0.0039 v 0.002 0.002 0.002 0.002 h 0.00195 v 0.002 h 0.00195 v 0.002 h 0.00195 0.00195 0.00195 0.00195 c 0.042269,0 0.7360946,-0.157269 1.5429688,-0.349609 1.8089692,-0.431216 2.9762712,-0.684992 3.4726562,-0.757812 0.09886,-0.0145 0.441288,-0.04682 0.486328,-0.04102 l 0.28125,0.03711 c 0.488335,0.06429 0.753053,0.291838 1.322266,1.134766 0.293195,0.434182 0.831567,1.099606 1.195312,1.478516 0.363745,0.378908 0.684508,0.71289 0.710938,0.71289 h 0.002 l 1.089844,1.074219 c 1.227815,1.207048 1.21285,1.176551 1.21875,2.275391 l 0.002,0.583984 0.0059,0.08203 -0.03906,0.47461 c -0.0244,0.295476 -0.116409,0.912506 -0.205079,1.36914 -0.08036,0.41388 -0.115976,0.640124 -0.111328,0.748047 -0.0569,0.12394 -0.10204,0.324257 -0.146484,0.558594 -0.11663,0.614496 -0.183823,1.458076 -0.126953,1.603515 0.03281,0.08388 0.09655,0.101147 0.24414,0.06641 0.589099,-0.138698 0.787704,-0.362896 1.154297,-1.298828 0.240062,-0.61287 0.283528,-0.791919 0.242188,-1.025391 l -0.04492,-0.248047 c 0.207877,-0.278639 0.204095,-0.29352 0.3125,-0.507812 0.07663,-0.151482 0.263424,-0.407346 0.333984,-0.621094 0.191419,-0.579816 0.360064,-0.87372 0.642578,-1.117188 0.239724,-0.20659 0.804302,-0.33699 1.085938,-0.33789 0.02015,0.0063 0.04067,0.0094 0.06055,0.0098 0.09232,0.0018 0.252294,0.0803 0.371094,0.13086 0.04045,0.01722 0.07674,0.02994 0.113281,0.03906 l 1.099609,0.511719 c 0.344406,0.16033 0.648585,0.319717 0.828125,0.404297 0.0603,0.02842 0.215052,0.100527 0.306641,0.140625 0.08967,0.0528 0.248965,0.133094 0.429687,0.214844 0.391444,0.177092 0.726356,0.259595 1.457032,0.359375 0.522086,0.07129 1.742832,0.273065 2.71289,0.447265 4.316792,0.7751 5.490778,0.73714 8.207031,-0.263672 2.057862,-0.758228 4.171216,-1.452427 4.751954,-1.560547 0.3251,-0.06052 0.84074,-0.109375 1.146484,-0.109375 h 0.556641 l 0.173828,0.265625 c 0.09841,0.149825 0.319625,0.338942 0.509765,0.4375 0.32102,0.16643 0.357991,0.219354 0.792969,1.13086 0.719712,1.508186 1.256568,2.22624 1.964844,2.625 0.406394,0.22882 0.599089,0.25495 0.662109,0.09375 0.07657,-0.195844 -0.255279,-2.536142 -0.546875,-3.861328 -0.703612,-3.197654 -0.732985,-4.200274 -0.152344,-5.269532 0.121381,-0.223517 0.780305,-1.105891 1.462891,-1.960937 1.916324,-2.400488 1.996094,-2.598011 1.996094,-4.960938 0,-1.793523 0.07466,-2.341635 0.490234,-3.550781 0.338478,-0.984824 0.567913,-1.442116 1.029297,-2.05664 0.46005,-0.61275 0.650673,-1.049738 0.695313,-1.595704 L 53.140625,30 h -1.039063 c -0.71236,0 -1.067733,-0.02782 -1.126953,-0.08594 -0.04752,-0.04663 -0.08594,-0.22627 -0.08594,-0.40039 v -0.316406 l -0.05273,0.06836 c 0.03909,-0.14066 0.06576,-0.272752 0.07813,-0.361328 0.06309,-0.45174 0.32057,-0.907251 0.871094,-1.539063 0.177229,-0.203396 0.329889,-0.367449 0.46875,-0.544922 l -0.01172,0.02734 0.457032,-0.416015 c 1.047766,-0.95308 2.216677,-1.682206 4.193359,-2.617188 l 1.230469,-0.582031 -0.431641,-0.05469 c -0.574724,-0.07161 -1.610769,0.05396 -2.988281,0.359375 -0.613708,0.136068 -1.168475,0.262744 -1.234375,0.283203 -0.0065,0.002 -0.01453,0.0069 -0.02148,0.01172 -0.289822,0.06612 -0.740323,0.174803 -1.058594,0.251953 l -0.910156,0.220703 -0.0098,0.02148 c 0,0 -0.002,-0.002 -0.002,-0.002 0,0 0,-0.002 0,-0.002 0,0 -0.002,0 -0.002,0 0,0 0,-0.002 0,-0.002 v -0.002 -0.002 -0.002 l -0.002,-0.002 v -0.002 h -0.002 c -9.03e-4,-6.53e-4 -0.0047,-0.0033 -0.0059,-0.0039 -0.03431,-0.01641 -0.139125,-0.03056 -0.259766,-0.03125 -0.383395,-0.0022 -0.809941,-0.212701 -1.433593,-0.708985 -0.285006,-0.226797 -0.515564,-0.431791 -0.544922,-0.4375 h -0.002 l -0.002,-0.0039 -0.542969,-0.480469 -0.326172,-0.287109 c 0,0 -0.002,-0.002 -0.002,-0.002 -0.02037,-0.02782 -0.06109,-0.06044 -0.123047,-0.109375 l -0.09375,-0.08203 -0.002,0.002 c -0.153066,-0.129459 -0.403728,-0.316553 -0.585938,-0.410157 -0.214822,-0.11037 -0.406381,-0.241455 -0.425781,-0.291015 v -0.002 c -0.01244,-0.05961 0.07026,-0.297918 0.191406,-0.539063 0.18768,-0.37355 0.211739,-0.471827 0.136719,-0.560547 -0.162778,-0.192514 -0.81816,-0.468603 -1.119141,-0.470703 -0.259165,-0.0019 -0.347381,-0.05238 -0.794921,-0.464844 -1.61791,-1.491096 -2.509256,-2.201761 -4.78125,-3.804687 -1.613958,-1.138686 -1.572721,-1.12334 -3.046875,-1.15625 -0.403305,-0.009 -0.972093,-0.016 -1.355469,-0.01367 h -0.0039 l -0.308594,-0.0625 C 35.203695,14.224268 34.603792,13.779868 34.232422,13.060547 34.042166,12.692033 33.305475,10.607743 33.033203,9.6679688 32.970017,9.449878 32.834977,9.0561016 32.746094,8.8261719 32.711897,8.6504686 32.642445,8.4038801 32.525391,8.0214844 32.219911,7.023526 31.863107,6.175884 31.685547,6.03125 c -0.02828,-0.023034 -0.05525,-0.036371 -0.08398,-0.035156 z m 4.529297,14.2500003 c 0.214022,-0.0046 0.639384,0.05953 0.986328,0.15625 h 0.002 0.002 0.002 c 0,0 0.002,0 0.002,0 0,0 0.002,-0.002 0.002,-0.002 0.0017,-7.53e-4 0.0043,-0.0013 0.0059,-0.002 0.152733,0.07331 0.372037,0.15834 0.675782,0.275391 2.314944,0.892088 5.201206,2.832638 6.191406,4.085938 0.140498,0.18646 0.271378,0.445573 0.414062,0.65039 0.0111,0.05899 0.03876,0.189577 0.07031,0.333985 0.129492,0.59262 0.07809,0.646463 -1.207031,1.277343 -1.623668,0.79708 -2.465222,1.069338 -3.347657,1.085938 -0.769498,0.01441 -1.073704,-0.193593 -1.552734,-1.064453 -0.110912,-0.201635 -0.238469,-0.439926 -0.310547,-0.550782 -0.02098,-0.08193 -0.07263,-0.213911 -0.142578,-0.357421 -0.109662,-0.224968 -0.476752,-1.23476 -0.816406,-2.242188 -0.212978,-0.631708 -0.480102,-1.408666 -0.652344,-1.904297 0,0 0,-0.002 0,-0.002 l 0.0039,-0.0059 -0.261718,-0.8125 C 36.041471,20.68489 35.965307,20.342472 35.996094,20.277344 l 0.002,-0.002 0.002,-0.002 c 0.01706,-0.01548 0.06398,-0.02592 0.130859,-0.02734 z m -4.666015,0.443359 c 0.0086,-8.1e-4 0.01668,-2.88e-4 0.02539,0 0.03981,0.0013 0.08089,0.01348 0.125,0.0332 0.202542,0.09058 1.410861,2.114994 2.220703,3.71875 l 0.458985,0.908203 0.300781,0.753907 c 0.16992,0.413572 0.348557,1.002054 0.435547,1.298828 l 0.164062,0.560547 -0.002,0.429687 c -0.002,0.56162 -0.171301,0.933747 -0.582031,1.279297 -0.361196,0.303876 -1.397653,0.791656 -1.980469,1.009766 l -0.546875,0.205078 c -0.154977,0.02535 -0.426927,0.07583 -0.732422,0.136718 -1.271861,0.253512 -3.507481,0.40868 -3.607421,0.25 v -0.002 c -0.01596,-0.05754 0.07698,-0.436087 0.21289,-0.857422 0.14031,-0.434929 0.287944,-0.862446 0.277344,-0.873046 l 0.380859,-1.199219 c 0.25658,-0.877416 0.713995,-2.299409 0.751953,-2.416016 v -0.002 c 0.0023,0.04294 0.375719,-1.016802 0.830079,-2.359375 0.770851,-2.277759 1.00068,-2.849901 1.267578,-2.875 z m -4.449219,0.126953 c 0.184158,-0.0026 0.326819,0.0258 0.349609,0.08594 0.01841,0.04858 -0.318119,1.168908 -0.748047,2.490234 -0.429925,1.321326 -0.874511,2.639833 -0.951171,2.939453 l -0.134766,0.523438 -0.369141,1.103515 c -0.172275,0.51484 -0.302586,1.058129 -0.300781,1.101563 v 0.002 c -0.145757,0.33462 -1.185547,3.401564 -1.185547,3.511719 v 0.002 c -0.003,0.0096 -0.01531,0.03167 -0.0293,0.05664 h -0.0059 l -0.144531,0.291016 c -0.380032,0.767148 -3.366505,2.16452 -5.742188,2.6875 -1.219161,0.26838 -1.132812,0.305253 -1.132812,-0.480469 V 34.46875 c 0.0011,-0.01062 0.161875,-1.580495 0.330078,-2.238281 l 0.04687,-0.181641 0.207031,-0.78125 c 0.1114,-0.410308 0.330884,-1.056417 0.486328,-1.435547 0.127478,-0.310921 0.190422,-0.500242 0.203125,-0.595703 0.06871,-0.08598 0.225277,-0.405386 0.333985,-0.613281 0.710208,-1.358188 1.822347,-2.761051 3.333984,-4.208985 1.045914,-1.001838 1.920557,-1.792144 3.050781,-2.466796 l 0.740235,-0.441407 0.388671,-0.24414 c 0.213954,-0.134336 0.520181,-0.289783 0.681641,-0.345703 0.182052,-0.06317 0.407639,-0.09697 0.591797,-0.09961 z m 8.574219,7.136719 c 0.01558,8.3e-5 0.03209,0.0011 0.04883,0.0039 -0.01656,-4.77e-4 -0.03204,-0.0035 -0.04883,-0.0039 z m -10.712891,1.074219 h 0.002 v 0.002 h -0.002 z m 22.601563,0.349609 c -0.03094,0.251041 -0.05417,0.731233 -0.0625,1.339844 -0.0075,0.542432 -0.0274,1.185462 -0.0332,1.466797 -0.01283,0.152331 -0.02114,0.35056 -0.02148,0.527343 -4e-4,0.276896 -0.03406,0.885213 -0.07422,1.351563 -0.263884,3.065222 -0.795931,5.225487 -1.751953,7.113281 -0.503326,0.993894 -0.618026,1.075449 -0.93164,0.671875 -0.200962,-0.2586 -1.458861,-2.940385 -1.845704,-3.933594 -0.128655,-0.330334 -0.250944,-0.629049 -0.271484,-0.662109 h -0.002 V 37.25 h -0.002 -0.002 v -0.002 h -0.002 -0.002 c -0.07547,-0.310629 -0.718033,-2.287012 -0.767578,-2.345703 h -0.002 l -0.30664,-0.908203 C 41.054333,32.968939 40.88648,32.1889 40.9375,31.847656 c 0.0468,-0.312966 0.417918,-0.605995 1.322266,-1.042969 1.499202,-0.7244 3.359474,-1.229665 4.8125,-1.384765 z m -10.982422,3.876953 c 0.284855,0.01115 0.51057,0.03563 0.648437,0.07617 0.414756,0.121966 0.735513,0.425353 1.025391,0.966797 l 0.251953,0.470703 c 0.0024,0.05141 0.03998,0.189561 0.0957,0.351563 0.0713,0.207334 0.117771,0.471611 0.144531,0.582031 l 0.04297,0.177734 h -0.002 l 0.05078,0.671875 c 0.05638,0.753876 0.175792,1.455476 0.513672,2.1875 l 0.246094,0.53125 v 0.002 c 0,0 0,0.002 0,0.002 0,0 0,0.002 0,0.002 v 0.002 c 0,0.002 0.02806,0.0506 0.0293,0.05469 l 0.03711,0.08008 0.0078,0.0059 c 0.05628,0.132625 0.242408,0.487385 0.537109,1.003906 0.335852,0.588656 0.736285,1.338114 0.890625,1.666016 0.511084,1.0858 0.860471,2.385524 0.769531,2.861328 C 41.67703,45.514917 40.74905,46.124686 37.902344,47.5 l -1.144532,0.552734 H 33.4375 c -3.578268,-5.8e-4 -4.096571,-0.03876 -5.693359,-0.417968 -0.201311,-0.0478 -0.353131,-0.08293 -0.46875,-0.101563 -0.160418,-0.05323 -0.54084,-0.173436 -0.576172,-0.185547 -0.195672,-0.06712 -0.32468,-0.11278 -0.410157,-0.134765 -0.06702,-0.03111 -0.381872,-0.153857 -0.470703,-0.179688 -0.168276,-0.04893 -0.537472,-0.194627 -0.820312,-0.322266 L 24.484375,46.478516 24.042969,46.138672 C 23.399193,45.55366 23.28125,45.236536 23.28125,44.080078 c 0,-0.892233 -2.7e-5,-0.953811 0,-0.955078 l 0.121094,-0.714844 c 0.06606,-0.39378 0.205767,-0.982384 0.310547,-1.30664 0.09573,-0.29622 0.22414,-0.679421 0.246093,-0.744141 l 0.002,-0.002 v -0.002 l 0.002,-0.002 v -0.002 l 0.002,-0.002 v -0.002 -0.002 c 0,-0.179416 0.857241,-1.73811 1.259765,-2.291016 0.574866,-0.789642 1.647761,-1.832642 2.486328,-2.417968 0.3747,-0.261544 1.081049,-0.673707 1.570313,-0.914063 l 0.837891,-0.410156 0.398437,-0.121094 c 0.218556,-0.08639 0.70472,-0.239457 1.080078,-0.341797 0.375358,-0.102346 0.724304,-0.200397 0.777344,-0.216797 0.0029,-8.88e-4 0.0088,-0.0028 0.01172,-0.0039 0.24435,-0.04011 0.565063,-0.09557 0.763672,-0.128906 1.107477,-0.185865 2.491138,-0.279547 3.345703,-0.246094 z m -16.074219,5.357422 c 0.07712,-0.0035 0.144502,-0.0038 0.201172,0 0.07556,0.005 0.130035,0.01689 0.160156,0.03516 0.151276,0.09177 0.08234,0.545009 -0.248047,1.623047 -0.0027,0.0087 -0.0059,0.01588 -0.0078,0.02344 l -0.427735,1.472656 c -0.234916,0.809706 -0.438008,1.378987 -0.511718,1.435547 -0.195743,0.15017 -0.622435,0.05228 -1.017579,-0.232422 -0.647286,-0.466374 -1.142487,-1.288291 -1.314453,-2.181641 l -0.09375,-0.482422 c 0.0082,-0.145702 0.1009,-0.233308 0.19336,-0.355468 0.359095,-0.474454 1.295905,-1.034877 2.185547,-1.216797 0.335487,-0.0686 0.6495,-0.110589 0.880859,-0.121094 z"
       style="fill:none;stroke:url(#radialGradient17);stroke-opacity:1;stroke-width:0.2;stroke-dasharray:none;filter:url(#filter16)"
       id="path16" />
  </g>
</svg>
