<?xml version="1.0" encoding="UTF-8" standalone="no"?>
<svg
   width="64"
   height="64"
   version="1.1"
   id="svg8"
   sodipodi:docname="preferences-tweaks-slingshot.svg"
   inkscape:version="1.4.3 (0d15f75042, 2025-12-25)"
   xmlns:inkscape="http://www.inkscape.org/namespaces/inkscape"
   xmlns:sodipodi="http://sodipodi.sourceforge.net/DTD/sodipodi-0.dtd"
   xmlns:xlink="http://www.w3.org/1999/xlink"
   xmlns="http://www.w3.org/2000/svg"
   xmlns:svg="http://www.w3.org/2000/svg">
  <defs
     id="defs8">
    <radialGradient
       id="SVGID_1_-3-2"
       cx="-159.43106"
       cy="15.462561"
       r="64.706802"
       gradientTransform="matrix(-0.89413329,0,0,0.96304834,-80.727499,49.278658)"
       gradientUnits="userSpaceOnUse"
       fx="-159.43106"
       fy="15.462561">
      <stop
         offset="0"
         style="stop-color:#006fff;stop-opacity:1;"
         id="stop1-6-9" />
      <stop
         offset="1"
         style="stop-color:#15baff;stop-opacity:1;"
         id="stop2-7-1" />
    </radialGradient>
    <radialGradient
       inkscape:collect="always"
       xlink:href="#linearGradient1"
       id="radialGradient2"
       cx="5.9836855"
       cy="44.458122"
       fx="5.9836855"
       fy="44.458122"
       r="20.631081"
       gradientUnits="userSpaceOnUse"
       gradientTransform="matrix(0,3.0646764,-3.0646768,0,136.5577,-18.132766)" />
    <linearGradient
       id="linearGradient1"
       inkscape:collect="always">
      <stop
         style="stop-color:#d2d2d2;stop-opacity:1;"
         offset="0"
         id="stop1" />
      <stop
         style="stop-color:#ffffff;stop-opacity:1;"
         offset="1"
         id="stop2" />
    </linearGradient>
    <radialGradient
       id="SVGID_1_-3-2-3"
       cx="-159.43106"
       cy="15.462561"
       r="64.706802"
       gradientTransform="matrix(-0.89413329,0,0,0.96304834,-80.7275,49.278658)"
       gradientUnits="userSpaceOnUse"
       fx="-159.43106"
       fy="15.462561">
      <stop
         offset="0"
         style="stop-color:#006fff;stop-opacity:1;"
         id="stop1-6-9-6" />
      <stop
         offset="1"
         style="stop-color:#15baff;stop-opacity:1;"
         id="stop2-7-1-7" />
    </radialGradient>
    <radialGradient
       id="SVGID_1_-3-2-0"
       cx="-159.43106"
       cy="15.462561"
       r="64.706802"
       gradientTransform="matrix(-0.89413329,0,0,0.96304834,-80.753654,49.330428)"
       gradientUnits="userSpaceOnUse"
       fx="-159.43106"
       fy="15.462561">
	<stop
   offset="0"
   style="stop-color:#006fff;stop-opacity:1;"
   id="stop1-6-9-2" />

	<stop
   offset="1"
   style="stop-color:#15baff;stop-opacity:1;"
   id="stop2-7-1-3" />

</radialGradient>
    <filter
       inkscape:collect="always"
       style="color-interpolation-filters:sRGB"
       id="filter4"
       x="-0.070802977"
       y="-0.070802977"
       width="1.141606"
       height="1.141606">
      <feGaussianBlur
         inkscape:collect="always"
         stdDeviation="1.5895694"
         id="feGaussianBlur4" />
    </filter>
    <filter
       inkscape:collect="always"
       style="color-interpolation-filters:sRGB"
       id="filter1"
       x="-0.053846429"
       y="-0.053846429"
       width="1.1076929"
       height="1.1076929">
      <feGaussianBlur
         inkscape:collect="always"
         stdDeviation="0.75634189"
         id="feGaussianBlur1" />
    </filter>
  </defs>
  <sodipodi:namedview
     id="namedview8"
     pagecolor="#505050"
     bordercolor="#eeeeee"
     borderopacity="1"
     inkscape:showpageshadow="0"
     inkscape:pageopacity="0"
     inkscape:pagecheckerboard="0"
     inkscape:deskcolor="#505050"
     inkscape:zoom="6.919798"
     inkscape:cx="19.798266"
     inkscape:cy="41.908738"
     inkscape:current-layer="svg8"
     inkscape:window-width="3440"
     inkscape:window-height="1380"
     inkscape:window-x="0"
     inkscape:window-y="0"
     inkscape:window-maximized="1" />
  <g
     id="g1">
    <path
       class="st1"
       d="m 20.773851,4.0517697 h 22.4 c 9.3,0 16.8,7.4999993 16.8,16.7999993 v 22.4 c 0,9.3 -7.5,16.8 -16.8,16.8 h -22.4 c -9.3,0 -16.7999993,-7.5 -16.7999993,-16.8 v -22.4 c 0,-9.3 7.4999993,-16.7999993 16.7999993,-16.7999993 z"
       id="path2"
       style="fill:url(#SVGID_1_-3-2-0)" />
    <path
       class="st1"
       d="M 20.8,4.0000004 H 43.2 C 52.5,4.0000004 60,11.5 60,20.8 V 43.2 C 60,52.5 52.5,60 43.2,60 H 20.8 C 11.5,60 4.0000004,52.5 4.0000004,43.2 V 20.8 C 4.0000004,11.5 11.5,4.0000004 20.8,4.0000004 Z"
       id="path2-2"
       style="opacity:0.673189;fill:none;stroke:#000000;stroke-width:0.3;stroke-dasharray:none;stroke-opacity:1;filter:url(#filter4)" />
  </g>
  <path
     d="m 17.130859,14.025391 c -1.720672,0 -3.105468,1.384796 -3.105468,3.105468 v 4.140625 c 0,1.720671 1.384796,3.105469 3.105468,3.105469 h 4.140625 c 1.720671,0 3.105469,-1.384798 3.105469,-3.105469 v -4.140625 c 0,-1.720672 -1.384798,-3.105468 -3.105469,-3.105468 z m 12.798828,0 c -1.720671,0 -3.107421,1.384796 -3.107421,3.105468 v 4.140625 c 0,1.720671 1.386749,3.105469 3.107421,3.105469 h 4.140625 c 1.720672,0 3.107422,-1.384798 3.107422,-3.105469 v -4.140625 c 0,-1.720672 -1.386751,-3.105468 -3.107422,-3.105468 z m 12.798829,0 c -1.720671,0 -3.105469,1.384796 -3.105469,3.105468 v 4.140625 c 0,1.720671 1.384798,3.105469 3.105469,3.105469 h 4.140625 c 1.720672,0 3.105468,-1.384798 3.105468,-3.105469 v -4.140625 c 0,-1.720672 -1.384796,-3.105468 -3.105468,-3.105468 z M 17.130859,26.822266 c -1.720672,0 -3.105468,1.38675 -3.105468,3.107421 v 4.140625 c 0,1.720672 1.384796,3.107422 3.105468,3.107422 h 4.140625 c 1.720671,0 3.105469,-1.38675 3.105469,-3.107422 v -4.140625 c 0,-1.720671 -1.384798,-3.107421 -3.105469,-3.107421 z m 12.798828,0 c -1.720671,0 -3.107421,1.38675 -3.107421,3.107421 v 4.140625 c 0,1.720672 1.386749,3.107422 3.107421,3.107422 h 4.140625 c 1.720672,0 3.107422,-1.38675 3.107422,-3.107422 v -4.140625 c 0,-1.720671 -1.386751,-3.107421 -3.107422,-3.107421 z m 12.798829,0 c -1.720671,0 -3.105469,1.38675 -3.105469,3.107421 v 4.140625 c 0,1.720672 1.384798,3.107422 3.105469,3.107422 h 4.140625 c 1.720672,0 3.105468,-1.38675 3.105468,-3.107422 v -4.140625 c 0,-1.720671 -1.384796,-3.107421 -3.105468,-3.107421 z M 17.130859,39.623047 c -1.720672,0 -3.105468,1.384798 -3.105468,3.105469 v 4.140625 c 0,1.720672 1.384796,3.105468 3.105468,3.105468 h 4.140625 c 1.720671,0 3.105469,-1.384796 3.105469,-3.105468 v -4.140625 c 0,-1.720671 -1.384798,-3.105469 -3.105469,-3.105469 z m 12.798828,0 c -1.720671,0 -3.107421,1.384798 -3.107421,3.105469 v 4.140625 c 0,1.720672 1.386749,3.105468 3.107421,3.105468 h 4.140625 c 1.720672,0 3.107422,-1.384796 3.107422,-3.105468 v -4.140625 c 0,-1.720671 -1.386751,-3.105469 -3.107422,-3.105469 z m 12.798829,0 c -1.720671,0 -3.105469,1.384798 -3.105469,3.105469 v 4.140625 c 0,1.720672 1.384798,3.105468 3.105469,3.105468 h 4.140625 c 1.720672,0 3.105468,-1.384796 3.105468,-3.105468 v -4.140625 c 0,-1.720671 -1.384796,-3.105469 -3.105468,-3.105469 z"
     style="opacity:0.964412;fill:url(#radialGradient2);stroke-width:0.2"
     id="path4" />
  <path
     id="rect2-5-2-8"
     style="mix-blend-mode:normal;fill:none;fill-opacity:1;stroke:#0012ff;stroke-width:0.185143;stroke-dasharray:none;stroke-opacity:1;filter:url(#filter1)"
     d="m 14.931103,-17.063799 c 0,1.695847 1.365155,3.061002 3.061002,3.061002 h 4.080734 c 1.695847,0 3.061002,-1.365155 3.061002,-3.061002 v -4.080734 c 0,-1.695847 -1.365155,-3.061002 -3.061002,-3.061002 h -4.080734 c -1.695847,0 -3.061002,1.365155 -3.061002,3.061002 z m 0,-12.612848 c 0,1.695847 1.365155,3.061002 3.061002,3.061002 h 4.080734 c 1.695847,0 3.061002,-1.365155 3.061002,-3.061002 v -4.082542 c 0,-1.695847 -1.365155,-3.061002 -3.061002,-3.061002 h -4.080734 c -1.695847,0 -3.061002,1.365155 -3.061002,3.061002 z m 0,-12.614656 c 0,1.695847 1.365155,3.061002 3.061002,3.061002 h 4.080734 c 1.695847,0 3.061002,-1.365155 3.061002,-3.061002 v -4.080734 c 0,-1.695847 -1.365155,-3.061002 -3.061002,-3.061002 h -4.080734 c -1.695847,0 -3.061002,1.365155 -3.061002,3.061002 z m 12.612848,25.227504 c 0,1.695847 1.365155,3.061002 3.061002,3.061002 h 4.082542 c 1.695847,0 3.061002,-1.365155 3.061002,-3.061002 v -4.080734 c 0,-1.695847 -1.365155,-3.061002 -3.061002,-3.061002 h -4.082542 c -1.695847,0 -3.061002,1.365155 -3.061002,3.061002 z m 0,-12.612848 c 0,1.695847 1.365155,3.061002 3.061002,3.061002 h 4.082542 c 1.695847,0 3.061002,-1.365155 3.061002,-3.061002 v -4.082542 c 0,-1.695847 -1.365155,-3.061002 -3.061002,-3.061002 h -4.082542 c -1.695847,0 -3.061002,1.365155 -3.061002,3.061002 z m 0,-12.614656 c 0,1.695847 1.365155,3.061002 3.061002,3.061002 h 4.082542 c 1.695847,0 3.061002,-1.365155 3.061002,-3.061002 v -4.080734 c 0,-1.695847 -1.365155,-3.061002 -3.061002,-3.061002 h -4.082542 c -1.695847,0 -3.061002,1.365155 -3.061002,3.061002 z m 12.614656,25.227504 c 0,1.695847 1.365155,3.061002 3.061002,3.061002 h 4.080734 c 1.695847,0 3.061002,-1.365155 3.061002,-3.061002 v -4.080734 c 0,-1.695847 -1.365155,-3.061002 -3.061002,-3.061002 h -4.080734 c -1.695847,0 -3.061002,1.365155 -3.061002,3.061002 z m 0,-12.612848 c 0,1.695847 1.365155,3.061002 3.061002,3.061002 h 4.080734 c 1.695847,0 3.061002,-1.365155 3.061002,-3.061002 v -4.082542 c 0,-1.695847 -1.365155,-3.061002 -3.061002,-3.061002 h -4.080734 c -1.695847,0 -3.061002,1.365155 -3.061002,3.061002 z m 0,-12.614656 c 0,1.695847 1.365155,3.061002 3.061002,3.061002 h 4.080734 c 1.695847,0 3.061002,-1.365155 3.061002,-3.061002 v -4.080734 c 0,-1.695847 -1.365155,-3.061002 -3.061002,-3.061002 h -4.080734 c -1.695847,0 -3.061002,1.365155 -3.061002,3.061002 z"
     transform="matrix(0,1.0146384,-1.0146384,0,-0.1822173,-1.1241128)" />
</svg>
