<?xml version="1.0" encoding="UTF-8" standalone="no"?>
<svg
   width="64"
   height="64"
   version="1.1"
   id="svg7"
   sodipodi:docname="civilization6.svg"
   xml:space="preserve"
   inkscape:version="1.4.2 (ebf0e940d0, 2025-05-08)"
   xmlns:inkscape="http://www.inkscape.org/namespaces/inkscape"
   xmlns:sodipodi="http://sodipodi.sourceforge.net/DTD/sodipodi-0.dtd"
   xmlns:xlink="http://www.w3.org/1999/xlink"
   xmlns="http://www.w3.org/2000/svg"
   xmlns:svg="http://www.w3.org/2000/svg"><defs
     id="defs7"><linearGradient
       id="linearGradient12"
       inkscape:collect="always"><stop
         style="stop-color:#4c3a2c;stop-opacity:1;"
         offset="0"
         id="stop11" /><stop
         style="stop-color:#281713;stop-opacity:1;"
         offset="1"
         id="stop12" /></linearGradient><linearGradient
       id="linearGradient9"
       inkscape:collect="always"><stop
         style="stop-color:#f88d5f;stop-opacity:1;"
         offset="0"
         id="stop9" /><stop
         style="stop-color:#b44c1f;stop-opacity:1;"
         offset="1"
         id="stop10" /></linearGradient><radialGradient
       inkscape:collect="always"
       xlink:href="#linearGradient9"
       id="radialGradient18"
       gradientUnits="userSpaceOnUse"
       gradientTransform="matrix(3.3335719,-0.89322787,1.0314106,3.8492768,25.70766,-20.686453)"
       cx="9.2139368"
       cy="10.058929"
       fx="9.2139368"
       fy="10.058929"
       r="8.5318165" /><radialGradient
       inkscape:collect="always"
       xlink:href="#linearGradient9"
       id="radialGradient22"
       cx="7.5688934"
       cy="5.5511155"
       fx="7.5688934"
       fy="5.5511155"
       r="17.657516"
       gradientTransform="matrix(1.6107262,-0.43159275,0.4983603,1.8599061,51.839996,2.7451309)"
       gradientUnits="userSpaceOnUse" /><radialGradient
       inkscape:collect="always"
       xlink:href="#linearGradient12"
       id="radialGradient10-1-5"
       cx="1.7453873"
       cy="24.770607"
       fx="1.7453873"
       fy="24.770607"
       r="8.5318165"
       gradientTransform="matrix(8.5123535,0,1.6653123e-7,9.8292189,-30.13248,-168.95728)"
       gradientUnits="userSpaceOnUse" /><inkscape:path-effect
       effect="fillet_chamfer"
       id="path-effect20"
       is_visible="true"
       lpeversion="1"
       nodesatellites_param="F,0,1,1,0,3.3365104,0,1 @ F,0,0,1,0,3.3365104,0,1 @ F,0,1,1,0,3.3365104,0,1 @ F,0,1,1,0,3.3365104,0,1 @ F,0,1,1,0,3.3365104,0,1 @ F,0,1,1,0,3.3365104,0,1"
       radius="0"
       unit="px"
       method="auto"
       mode="F"
       chamfer_steps="1"
       flexible="false"
       use_knot_distance="true"
       apply_no_radius="true"
       apply_with_radius="true"
       only_selected="false"
       hide_knots="false" /><radialGradient
       inkscape:collect="always"
       xlink:href="#linearGradient9"
       id="radialGradient10-6"
       cx="9.2139368"
       cy="10.058929"
       fx="9.2139368"
       fy="10.058929"
       r="8.5318165"
       gradientTransform="matrix(3.1462938,-0.84304687,0.97346664,3.633027,-29.567847,-17.447283)"
       gradientUnits="userSpaceOnUse" /><inkscape:path-effect
       effect="fillet_chamfer"
       id="path-effect21"
       is_visible="true"
       lpeversion="1"
       nodesatellites_param="F,0,1,1,0,5.6356292,0,1 @ F,0,1,1,0,5.6356292,0,1 @ F,0,1,1,0,5.6356292,0,1 @ F,0,1,1,0,5.6356292,0,1 @ F,0,0,1,0,5.6356292,0,1 @ F,0,1,1,0,5.6356292,0,1"
       radius="0"
       unit="px"
       method="auto"
       mode="F"
       chamfer_steps="1"
       flexible="false"
       use_knot_distance="true"
       apply_no_radius="true"
       apply_with_radius="true"
       only_selected="false"
       hide_knots="false" /><radialGradient
       inkscape:collect="always"
       xlink:href="#linearGradient9"
       id="radialGradient6"
       gradientUnits="userSpaceOnUse"
       gradientTransform="matrix(3.3335719,-0.89322787,1.0314106,3.8492768,25.70766,-20.686453)"
       cx="9.2139368"
       cy="10.058929"
       fx="9.2139368"
       fy="10.058929"
       r="8.5318165" /><radialGradient
       inkscape:collect="always"
       xlink:href="#linearGradient9"
       id="radialGradient7"
       gradientUnits="userSpaceOnUse"
       gradientTransform="matrix(1.6107262,-0.43159275,0.4983603,1.8599061,51.839996,2.7451309)"
       cx="7.5688934"
       cy="5.5511155"
       fx="7.5688934"
       fy="5.5511155"
       r="17.657516" /><radialGradient
       inkscape:collect="always"
       xlink:href="#linearGradient9"
       id="radialGradient8"
       gradientUnits="userSpaceOnUse"
       gradientTransform="matrix(3.3335719,-0.89322787,1.0314106,3.8492768,25.70766,-20.686453)"
       cx="9.2139368"
       cy="10.058929"
       fx="9.2139368"
       fy="10.058929"
       r="8.5318165" /><radialGradient
       inkscape:collect="always"
       xlink:href="#linearGradient9"
       id="radialGradient9"
       gradientUnits="userSpaceOnUse"
       gradientTransform="matrix(1.6107262,-0.43159275,0.4983603,1.8599061,51.839996,2.7451309)"
       cx="7.5688934"
       cy="5.5511155"
       fx="7.5688934"
       fy="5.5511155"
       r="17.657516" /><radialGradient
       inkscape:collect="always"
       xlink:href="#linearGradient9"
       id="radialGradient10"
       gradientUnits="userSpaceOnUse"
       gradientTransform="matrix(3.3335719,-0.89322787,1.0314106,3.8492768,25.70766,-20.686453)"
       cx="9.2139368"
       cy="10.058929"
       fx="9.2139368"
       fy="10.058929"
       r="8.5318165" /><radialGradient
       inkscape:collect="always"
       xlink:href="#linearGradient9"
       id="radialGradient11"
       gradientUnits="userSpaceOnUse"
       gradientTransform="matrix(1.6107262,-0.43159275,0.4983603,1.8599061,51.839996,2.7451309)"
       cx="7.5688934"
       cy="5.5511155"
       fx="7.5688934"
       fy="5.5511155"
       r="17.657516" /><radialGradient
       inkscape:collect="always"
       xlink:href="#linearGradient9"
       id="radialGradient12"
       gradientUnits="userSpaceOnUse"
       gradientTransform="matrix(3.3335719,-0.89322787,1.0314106,3.8492768,25.70766,-20.686453)"
       cx="9.2139368"
       cy="10.058929"
       fx="9.2139368"
       fy="10.058929"
       r="8.5318165" /><radialGradient
       inkscape:collect="always"
       xlink:href="#linearGradient9"
       id="radialGradient13"
       gradientUnits="userSpaceOnUse"
       gradientTransform="matrix(1.6107262,-0.43159275,0.4983603,1.8599061,51.839996,2.7451309)"
       cx="7.5688934"
       cy="5.5511155"
       fx="7.5688934"
       fy="5.5511155"
       r="17.657516" /></defs><sodipodi:namedview
     id="namedview7"
     pagecolor="#ffffff"
     bordercolor="#000000"
     borderopacity="0.25"
     inkscape:showpageshadow="2"
     inkscape:pageopacity="0.0"
     inkscape:pagecheckerboard="0"
     inkscape:deskcolor="#d1d1d1"
     inkscape:zoom="9.1875"
     inkscape:cx="20.62585"
     inkscape:cy="40.544218"
     inkscape:window-width="3440"
     inkscape:window-height="1367"
     inkscape:window-x="0"
     inkscape:window-y="0"
     inkscape:window-maximized="1"
     inkscape:current-layer="svg7" /><g
     id="g9"
     transform="translate(-59.228973,-2.3224449)"><path
       style="fill:url(#radialGradient10-6);stroke-width:1.4;stroke-linecap:round;stroke-linejoin:round"
       d="M 27.11943,6.2631757 12.152054,14.904793 a 9.7613084,9.7613084 119.99971 0 0 -4.8805696,8.453492 v 17.28343 a 9.7613085,9.7613085 60.000286 0 0 4.8805696,8.453492 l 14.967376,8.641618 a 9.7609713,9.7609713 2.0065976e-7 0 0 9.76114,0 l 14.967376,-8.641618 a 9.7613084,9.7613084 119.99971 0 0 4.88057,-8.453492 v -17.28343 a 9.7613083,9.7613083 60.000285 0 0 -4.88057,-8.453492 L 36.88057,6.2631757 a 9.7609717,9.7609717 180 0 0 -9.76114,0 z"
       id="path13-2"
       inkscape:path-effect="#path-effect21"
       inkscape:original-d="M 32,3.4453125 7.2714844,17.722656 V 46.277344 L 32,60.554688 56.728516,46.277344 V 17.722656 Z"
       sodipodi:nodetypes="ccccccc"
       transform="matrix(1.1770429,0,0,1.1770429,53.5636,-3.3429282)" /><path
       d="M 29.110582,8.7964083 13.350596,17.896512 a 5.7793459,5.7793459 119.99854 0 0 -2.889418,5.004913 v 18.197149 a 5.7793458,5.7793458 60.001461 0 0 2.889418,5.004913 l 15.759986,9.100103 a 5.7783252,5.7783252 5.759661e-7 0 0 5.778836,1e-6 l 15.759987,-9.100105 a 5.7793457,5.7793457 119.99854 0 0 2.889418,-5.004912 V 22.901425 A 5.7793457,5.7793457 60.00146 0 0 50.649405,17.896513 L 34.889418,8.7964082 a 5.7783251,5.7783251 180 0 0 -5.778836,10e-8 z"
       style="fill:url(#radialGradient10-1-5);stroke-width:1.30773;stroke-linecap:round;stroke-linejoin:round"
       id="path12-9"
       inkscape:path-effect="#path-effect20"
       inkscape:original-d="M 32,7.1280057 10.461178,19.564915 V 44.435084 L 32,56.871993 53.538823,44.435084 V 19.564915 Z"
       sodipodi:nodetypes="ccccccc"
       transform="matrix(1.0595233,0,0,1.0595233,57.324228,0.41770002)" /><g
       id="g5"
       transform="translate(3.0087895)"><path
         style="fill:url(#radialGradient6);stroke:url(#radialGradient7);stroke-width:0.5;stroke-linecap:round;stroke-linejoin:miter;stroke-dasharray:none;stroke-opacity:1"
         d="m 94.152801,37.064679 v 0.183593 c 0.84412,0.184869 1.029297,0.906522 1.029297,2.841797 v 7.699219 c 0,2.016955 -0.205778,2.612071 -1.029297,2.818359 v 0.183594 c 0.637922,-0.02068 1.357246,-0.04102 2.119141,-0.04102 0.67885,0 1.399709,0.02032 2.017578,0.04102 v -0.18364 c -0.802733,-0.206288 -1.050781,-0.760476 -1.050781,-2.818359 v -7.699219 c 0,-1.955878 0.206753,-2.656928 1.050781,-2.841797 v -0.183593 c -0.700182,0.02052 -1.418996,0.04102 -2.056641,0.04102 -0.638557,0 -1.359476,-0.0205 -2.080078,-0.04102 z"
         id="path4" /><path
         style="fill:url(#radialGradient8);stroke:url(#radialGradient9);stroke-width:0.5;stroke-linecap:round;stroke-linejoin:miter;stroke-dasharray:none;stroke-opacity:1"
         d="m 78.150848,37.062679 v 0.185547 c 0.576114,0.164904 0.783265,0.495227 1.318359,1.667969 l 5.578125,12.515625 h 0.308594 l 5.25,-11.857422 c 0.617322,-1.400178 0.803431,-1.996818 1.667969,-2.326172 v -0.185547 c -0.720691,0.0412 -1.524142,0.04297 -2.306641,0.04297 -0.452778,0 -0.967142,-0.02248 -1.419922,-0.04297 v 0.185547 c 0.370553,0.06162 0.535157,0.268216 0.535157,0.556641 0,0.452232 -0.124892,0.721342 -0.248047,1.009766 l -3.644531,8.582031 -3.210938,-7.71875 c -0.28824,-0.7 -0.513672,-1.319085 -0.513672,-1.648438 0,-0.45296 0.224257,-0.677967 0.615234,-0.78125 v -0.185547 c -1.74977,0.0412 -3.106171,0.0412 -3.929687,0 z"
         id="path3" /></g><g
       id="g6"><path
         style="fill:url(#radialGradient10);stroke:url(#radialGradient11);stroke-width:0.5;stroke-linecap:round;stroke-linejoin:miter;stroke-dasharray:none;stroke-opacity:1"
         d="m 94.021942,20.375179 v 0.185547 c 0.576116,0.164904 0.783266,0.493275 1.318359,1.666016 l 5.578129,12.515625 h 0.30859 l 5.25,-11.855469 c 0.61732,-1.400178 0.80343,-1.996818 1.66797,-2.326172 v -0.185547 c -0.72069,0.04121 -1.5261,0.04102 -2.3086,0.04102 -0.45278,0 -0.96714,-0.02051 -1.41992,-0.04102 v 0.185547 c 0.37055,0.06162 0.53516,0.268218 0.53516,0.556641 0,0.452233 -0.12294,0.717435 -0.2461,1.005859 l -3.64257,8.585938 -3.21094,-7.71875 c -0.288241,-0.699997 -0.515625,-1.317133 -0.515625,-1.646485 0,-0.452961 0.228163,-0.679922 0.61914,-0.783203 v -0.185547 c -1.749771,0.04121 -3.110075,0.04121 -3.933593,0 z"
         id="path2" /><path
         style="fill:url(#radialGradient12);stroke:url(#radialGradient13);stroke-width:0.5;stroke-linecap:round;stroke-linejoin:miter;stroke-dasharray:none;stroke-opacity:1"
         d="m 87.637176,20.375179 v 0.185547 c 0.844121,0.18487 1.029297,0.906523 1.029297,2.841797 v 7.695313 c 0,2.016955 -0.205778,2.615977 -1.029297,2.822265 v 0.185547 c 0.63792,-0.02069 1.357247,-0.04102 2.119141,-0.04102 0.678851,0 1.401664,0.02032 2.019531,0.04102 v -0.185547 c -0.802733,-0.20629 -1.052734,-0.764382 -1.052734,-2.822265 v -7.695313 c 0,-1.955879 0.208707,-2.656927 1.052734,-2.841797 v -0.185547 c -0.70018,0.02052 -1.422902,0.04102 -2.060547,0.04102 -0.638558,0 -1.357524,-0.02051 -2.078125,-0.04102 z"
         id="path1" /><path
         style="fill:url(#radialGradient18);stroke:url(#radialGradient22);stroke-width:0.5;stroke-linecap:round;stroke-linejoin:miter;stroke-dasharray:none;stroke-opacity:1"
         d="m 81.066864,20.045101 c -4.075836,0 -6.753907,3.191135 -6.753907,7.246094 0,3.931625 2.678286,7.164062 7.021485,7.164062 1.297173,0 2.675018,-0.227981 3.765625,-0.660156 l 0.289062,-2.302734 -0.185547,-0.0625 c -0.967183,0.926068 -2.38543,1.376954 -3.785156,1.376953 -3.025698,0 -4.984377,-2.40849 -4.984375,-5.537109 0,-3.2731 2.037966,-5.578125 5.001953,-5.578125 1.502366,0 2.737995,0.371886 3.664063,1.195312 h 0.228515 v -2.533203 h -0.185547 c -0.123243,0.08231 -0.249333,0.185547 -0.496093,0.185547 -0.555424,0 -1.830309,-0.494141 -3.580078,-0.494141 z"
         id="path15" /></g></g></svg>
