<?xml version="1.0" encoding="UTF-8" standalone="no"?>
<svg
   width="64"
   height="64"
   version="1.1"
   id="svg8"
   sodipodi:docname="com.system76.Popsicle.svg"
   inkscape:version="1.4.3 (0d15f75042, 2025-12-25)"
   xmlns:inkscape="http://www.inkscape.org/namespaces/inkscape"
   xmlns:sodipodi="http://sodipodi.sourceforge.net/DTD/sodipodi-0.dtd"
   xmlns:xlink="http://www.w3.org/1999/xlink"
   xmlns="http://www.w3.org/2000/svg"
   xmlns:svg="http://www.w3.org/2000/svg">
  <defs
     id="defs8">
    <linearGradient
       id="linearGradient9"
       inkscape:collect="always">
      <stop
         style="stop-color:#cccccc;stop-opacity:1;"
         offset="0"
         id="stop10" />
      <stop
         style="stop-color:#a0a0a0;stop-opacity:1;"
         offset="1"
         id="stop11" />
    </linearGradient>
    <inkscape:path-effect
       effect="fillet_chamfer"
       id="path-effect9"
       is_visible="true"
       lpeversion="1"
       nodesatellites_param="F,0,1,1,0,1.5587949,0,1 @ F,0,1,1,0,1.5587949,0,1 @ F,0,1,1,0,1.5587949,0,1 @ F,0,1,1,0,1.5587949,0,1 | F,0,1,1,0,1.5587949,0,1 @ F,0,1,1,0,1.5587949,0,1 @ F,0,0,1,0,1.5587949,0,1 @ F,0,1,1,0,1.5587949,0,1"
       radius="0"
       unit="px"
       method="auto"
       mode="F"
       chamfer_steps="1"
       flexible="false"
       use_knot_distance="true"
       apply_no_radius="true"
       apply_with_radius="true"
       only_selected="false"
       hide_knots="false" />
    <linearGradient
       id="linearGradient8"
       inkscape:collect="always">
      <stop
         style="stop-color:#1de9b6;stop-opacity:1;"
         offset="0"
         id="stop8" />
      <stop
         style="stop-color:#1dd2e9;stop-opacity:1;"
         offset="1"
         id="stop9" />
    </linearGradient>
    <radialGradient
       inkscape:collect="always"
       xlink:href="#linearGradient8"
       id="radialGradient9"
       cx="14.546205"
       cy="43.706306"
       fx="14.546205"
       fy="43.706306"
       r="15.5"
       gradientTransform="matrix(2.9784414,-2.9784414,4.3235439,4.3235439,-218.24495,-94.664221)"
       gradientUnits="userSpaceOnUse" />
    <filter
       inkscape:collect="always"
       style="color-interpolation-filters:sRGB"
       id="filter9"
       x="-0.07660528"
       y="-0.045484385"
       width="1.1532106"
       height="1.0909688">
      <feGaussianBlur
         inkscape:collect="always"
         stdDeviation="0.56479182"
         id="feGaussianBlur9" />
    </filter>
    <radialGradient
       inkscape:collect="always"
       xlink:href="#linearGradient9"
       id="radialGradient11"
       cx="22.005392"
       cy="63.499275"
       fx="22.005392"
       fy="63.499275"
       r="9.5"
       gradientTransform="matrix(3.4110253,-1.9693564,1.7413256,3.0160643,-163.62847,-86.000463)"
       gradientUnits="userSpaceOnUse" />
    <inkscape:path-effect
       effect="fillet_chamfer"
       id="path-effect9-3"
       is_visible="true"
       lpeversion="1"
       nodesatellites_param="F,0,1,1,0,1.5587949,0,1 @ F,0,1,1,0,1.5587949,0,1 @ F,0,1,1,0,1.5587949,0,1 @ F,0,1,1,0,1.5587949,0,1 | F,0,1,1,0,1.5587949,0,1 @ F,0,1,1,0,1.5587949,0,1 @ F,0,0,1,0,1.5587949,0,1 @ F,0,1,1,0,1.5587949,0,1"
       radius="0"
       unit="px"
       method="auto"
       mode="F"
       chamfer_steps="1"
       flexible="false"
       use_knot_distance="true"
       apply_no_radius="true"
       apply_with_radius="true"
       only_selected="false"
       hide_knots="false" />
    <filter
       inkscape:collect="always"
       style="color-interpolation-filters:sRGB"
       id="filter13"
       x="-0.10742674"
       y="-0.058411061"
       width="1.2148535"
       height="1.1168221">
      <feGaussianBlur
         inkscape:collect="always"
         stdDeviation="1.3459288"
         id="feGaussianBlur13" />
    </filter>
  </defs>
  <sodipodi:namedview
     id="namedview8"
     pagecolor="#ffffff"
     bordercolor="#000000"
     borderopacity="0.25"
     inkscape:showpageshadow="2"
     inkscape:pageopacity="0.0"
     inkscape:pagecheckerboard="0"
     inkscape:deskcolor="#d1d1d1"
     inkscape:zoom="9.76334"
     inkscape:cx="41.174434"
     inkscape:cy="34.721724"
     inkscape:current-layer="svg8" />
  <g
     id="g11">
    <rect
       style="fill:url(#radialGradient11)"
       width="19"
       height="16.799999"
       x="22.5"
       y="43.713943"
       rx="1.357"
       ry="1.4"
       id="rect2" />
    <path
       id="rect3"
       style="fill:#929292"
       d="m 24.5,54.058795 v 0.88241 A 1.5587949,1.5587949 45 0 0 26.058795,56.5 l 2.88241,0 A 1.5587949,1.5587949 135 0 0 30.5,54.941205 v -0.88241 A 1.5587949,1.5587949 45 0 0 28.941205,52.5 h -2.88241 A 1.5587949,1.5587949 135 0 0 24.5,54.058795 Z m 9,0 v 0.88241 A 1.5587949,1.5587949 45 0 0 35.058795,56.5 l 2.88241,0 A 1.5587949,1.5587949 135 0 0 39.5,54.941205 v -0.88241 A 1.5587949,1.5587949 45 0 0 37.941205,52.5 h -2.88241 A 1.5587949,1.5587949 135 0 0 33.5,54.058795 Z"
       inkscape:path-effect="#path-effect9"
       inkscape:original-d="m 24.5,52.5 v 4 h 6 v -4 z m 9,0 v 4 h 6 v -4 z" />
    <path
       style="fill:url(#radialGradient9)"
       d="M 27.772727,3.5 C 21.527636,3.5 16.5,8.5175 16.5,14.75 V 17.5625 26 45.6875 c 0,1.558126 1.256909,2.8125 2.818182,2.8125 H 44.681818 C 46.243091,48.5 47.5,47.245626 47.5,45.6875 V 26 17.5625 14.75 C 47.5,8.5175 42.472364,3.5 36.227273,3.5 Z"
       id="path5" />
    <path
       id="path6"
       style="baseline-shift:baseline;display:inline;overflow:visible;opacity:0.657996;vector-effect:none;fill:#00a151;fill-opacity:1;stroke-linecap:round;stroke-linejoin:round;enable-background:accumulate;stop-color:#000000"
       d="m 26.5,10.5 a 4,4 0 0 0 -4,4 v 24 a 4,4 0 0 0 4,4 4,4 0 0 0 4,-4 v -24 a 4,4 0 0 0 -4,-4 z m 11,0 a 4,4 0 0 0 -4,4 v 24 a 4,4 0 0 0 4,4 4,4 0 0 0 4,-4 v -24 a 4,4 0 0 0 -4,-4 z" />
    <path
       id="path6-8"
       style="baseline-shift:baseline;display:inline;overflow:visible;opacity:0.657996;fill:none;fill-opacity:1;stroke-linecap:round;stroke-linejoin:round;enable-background:accumulate;stop-color:#000000;stroke:#0046ff;stroke-opacity:1;stroke-width:0.2;stroke-dasharray:none;filter:url(#filter9)"
       d="m 26.5,10.5 a 4,4 0 0 0 -4,4 v 24 a 4,4 0 0 0 4,4 4,4 0 0 0 4,-4 v -24 a 4,4 0 0 0 -4,-4 z m 11,0 a 4,4 0 0 0 -4,4 v 24 a 4,4 0 0 0 4,4 4,4 0 0 0 4,-4 v -24 a 4,4 0 0 0 -4,-4 z" />
  </g>
  <g
     id="g13"
     style="stroke:#000000;stroke-width:0.2;stroke-dasharray:none;stroke-opacity:1;filter:url(#filter13)"
     transform="translate(36.53125,-0.51855485)">
    <path
       d="M -14.03125,49.011719 V 59.625 c 0,0.7756 0.605644,1.400391 1.357422,1.400391 H 3.6113281 C 4.3631061,61.025391 4.96875,60.4006 4.96875,59.625 V 49.011719 Z"
       style="fill:none;stroke:#000000;stroke-width:0.2;stroke-dasharray:none;stroke-opacity:1"
       id="path13" />
    <path
       d="m -8.7578125,4.0117187 c -6.2450905,0 -11.2734375,5.0174998 -11.2734375,11.2500003 v 2.8125 8.4375 19.6875 c 0,1.558126 1.257086,2.8125 2.818359,2.8125 H 8.1503906 c 1.561273,0 2.8183594,-1.254374 2.8183594,-2.8125 v -19.6875 -8.4375 -2.8125 c 0,-6.2325006 -5.0283465,-11.2500002 -11.2734375,-11.2500003 z"
       style="fill:none;stroke:#000000;stroke-width:0.2;stroke-dasharray:none;stroke-opacity:1"
       id="path12" />
  </g>
</svg>
