<?xml version="1.0" encoding="UTF-8" standalone="no"?>
<svg
   width="64"
   height="64"
   version="1.1"
   id="svg9"
   sodipodi:docname="eu.scarpetta.PDFMixTool.svg"
   inkscape:version="1.4.3 (0d15f75042, 2025-12-25)"
   xmlns:inkscape="http://www.inkscape.org/namespaces/inkscape"
   xmlns:sodipodi="http://sodipodi.sourceforge.net/DTD/sodipodi-0.dtd"
   xmlns:xlink="http://www.w3.org/1999/xlink"
   xmlns="http://www.w3.org/2000/svg"
   xmlns:svg="http://www.w3.org/2000/svg">
  <defs
     id="defs9">
    <radialGradient
       inkscape:collect="always"
       xlink:href="#linearGradient6-3"
       id="radialGradient12"
       cx="8.9159527"
       cy="52.562355"
       fx="8.9159527"
       fy="52.562355"
       r="21.984943"
       gradientTransform="matrix(2.4108181,-2.4108181,3.075631,3.075631,-180.22015,-81.761033)"
       gradientUnits="userSpaceOnUse" />
    <linearGradient
       id="linearGradient6-3"
       inkscape:collect="always">
      <stop
         style="stop-color:#ff423b;stop-opacity:1;"
         offset="0.00165814"
         id="stop6" />
      <stop
         style="stop-color:#f16232;stop-opacity:1;"
         offset="0.99860948"
         id="stop8-6" />
    </linearGradient>
    <filter
       inkscape:collect="always"
       style="color-interpolation-filters:sRGB"
       id="filter1"
       x="-0.086579163"
       y="-0.067864647"
       width="1.1731583"
       height="1.1357293">
      <feGaussianBlur
         inkscape:collect="always"
         stdDeviation="1.5236983"
         id="feGaussianBlur1" />
    </filter>
    <filter
       inkscape:collect="always"
       style="color-interpolation-filters:sRGB"
       id="filter9"
       x="-0.044216095"
       y="-0.033162071"
       width="1.0884322"
       height="1.0663241">
      <feGaussianBlur
         inkscape:collect="always"
         stdDeviation="0.62157475"
         id="feGaussianBlur9" />
    </filter>
  </defs>
  <sodipodi:namedview
     id="namedview9"
     pagecolor="#ffffff"
     bordercolor="#000000"
     borderopacity="0.25"
     inkscape:showpageshadow="2"
     inkscape:pageopacity="0.0"
     inkscape:pagecheckerboard="0"
     inkscape:deskcolor="#d1d1d1"
     inkscape:zoom="16.423867"
     inkscape:cx="29.286648"
     inkscape:cy="34.949139"
     inkscape:current-layer="svg9" />
  <g
     id="g5">
    <rect
       style="fill:url(#radialGradient12);fill-opacity:1;stroke:none;stroke-width:8.3;stroke-linejoin:bevel;stroke-opacity:1;paint-order:stroke fill markers"
       id="rect10"
       width="43.969887"
       height="56.095127"
       x="10.015057"
       y="3.9524364"
       rx="6.4782028"
       ry="6.4782028" />
    <path
       id="path4-2"
       style="fill:#f5f5f5"
       d="M 17.800781 8 C 15.701595 7.9998255 13.999825 9.7015958 14 11.800781 L 14 52.199219 C 13.999826 54.298405 15.701595 56.000175 17.800781 56 L 46.199219 56 C 48.298405 56.000175 50.000175 54.298405 50 52.199219 L 50 11.236328 C 49.9994 9.4484395 48.549608 7.9995213 46.761719 8 L 17.800781 8 z M 18.753906 10.701172 L 27.304688 10.701172 C 28.489014 10.701172 29.441406 11.655517 29.441406 12.839844 L 29.441406 21.388672 C 29.441406 22.572998 28.489014 23.527344 27.304688 23.527344 L 18.753906 23.527344 C 17.56958 23.527344 16.615234 22.572998 16.615234 21.388672 L 16.615234 12.839844 C 16.615234 11.655517 17.56958 10.701172 18.753906 10.701172 z M 34.382812 10.701172 L 46.246094 10.701172 C 46.870462 10.681182 47.39308 11.170587 47.414062 11.794922 C 47.414777 12.440585 46.891757 12.96448 46.246094 12.964844 L 34.382812 12.964844 C 33.757706 12.984824 33.234773 12.494249 33.214844 11.869141 C 33.215208 11.224241 33.737913 10.701536 34.382812 10.701172 z M 34.382812 15.982422 L 46.246094 15.982422 C 46.8712 15.962442 47.394134 16.453017 47.414062 17.078125 C 47.413699 17.723025 46.890994 18.24573 46.246094 18.246094 L 34.382812 18.246094 C 33.757706 18.266074 33.234773 17.775499 33.214844 17.150391 C 33.215208 16.505491 33.737913 15.982786 34.382812 15.982422 z M 34.382812 21.263672 L 46.246094 21.263672 C 46.8712 21.243692 47.394134 21.734267 47.414062 22.359375 C 47.413699 23.004275 46.890994 23.52698 46.246094 23.527344 L 34.382812 23.527344 C 33.758445 23.547334 33.235826 23.057929 33.214844 22.433594 C 33.214129 21.787931 33.73715 21.264036 34.382812 21.263672 z M 29.138672 26.677734 C 30.377996 26.661294 31.636131 27.151856 32.527344 28.074219 C 32.256691 28.644218 30.601102 28.361449 30.003906 29.15625 C 29.114551 29.92232 27.583594 31.600538 28.722656 32.759766 C 29.914874 33.9253 31.173925 35.163129 32.462891 36.433594 C 32.832574 36.069678 33.199213 35.709826 33.5625 35.355469 C 34.27993 34.652822 34.950219 33.910808 35.408203 32.996094 C 36.182493 31.392367 35.355672 29.248833 36.791016 27.964844 C 37.734863 26.888625 39.081343 26.657674 40.412109 26.679688 C 40.855694 26.687187 41.297701 26.721872 41.722656 26.763672 C 43.740011 26.889474 42.482998 28.393599 41.251953 28.693359 C 39.235632 29.26856 39.247462 31.556849 40.445312 32.994141 C 41.541478 34.855441 43.188087 33.087416 44.466797 32.478516 C 46.373144 32.162496 44.531682 34.811692 43.925781 35.460938 C 43.017648 36.865175 41.472133 37.539121 39.882812 37.296875 C 38.111802 37.043353 36.807112 38.352821 35.615234 39.546875 C 38.124951 42.030186 40.637754 44.525146 42.900391 46.769531 C 43.70309 47.783182 45.094913 48.457168 45.308594 49.867188 C 45.04614 51.272152 43.818963 52.277188 42.84375 53.123047 C 42.408063 53.357452 41.813107 53.230887 41.470703 52.865234 C 38.062008 49.222035 35.234591 45.919047 32.408203 42.609375 C 29.594807 45.320416 26.759655 48.17207 23.949219 51.029297 C 23.400517 51.498974 22.801331 52.035784 22.378906 52.636719 C 20.32842 54.562794 17.270011 51.491738 19.560547 49.03125 C 22.905477 45.950845 26.315357 42.540507 29.572266 39.298828 C 28.473433 38.023913 27.346195 36.731678 26.160156 35.402344 C 25.50585 34.838147 24.384194 34.896037 24.402344 36.078125 C 25.140739 37.362603 23.271451 38.116227 22.679688 39.060547 C 22.000061 39.564385 21.53218 38.583248 21.033203 38.224609 C 20.29872 37.249569 18.780415 36.640845 18.746094 35.259766 C 19.587417 34.419841 20.283948 32.360029 21.556641 32.892578 C 22.819842 32.309685 22.293482 30.180952 23.636719 29.453125 C 24.696791 28.576384 26.071737 28.37517 27.042969 27.251953 C 27.527349 26.965747 28.061043 26.789546 28.609375 26.716797 C 28.784536 26.693559 28.961626 26.680083 29.138672 26.677734 z " />
    <path
       id="path4-2-5"
       style="fill:none;stroke:#ff0000;stroke-opacity:1;stroke-width:0.2;stroke-dasharray:none;filter:url(#filter9)"
       d="M 17.800781,8.0000001 C 15.701595,7.9998256 13.999825,9.7015959 14,11.800781 V 52.199219 C 13.999826,54.298405 15.701595,56.000175 17.800781,56 H 46.199219 C 48.298405,56.000175 50.000175,54.298405 50,52.199219 V 11.236328 C 49.9994,9.4484396 48.549608,7.9995214 46.761719,8.0000001 Z m 0.953125,2.7011719 h 8.550782 c 1.184326,0 2.136718,0.954345 2.136718,2.138672 v 8.548828 c 0,1.184326 -0.952392,2.138672 -2.136718,2.138672 h -8.550782 c -1.184326,0 -2.138672,-0.954346 -2.138672,-2.138672 v -8.548828 c 0,-1.184327 0.954346,-2.138672 2.138672,-2.138672 z m 15.628906,0 h 11.863282 c 0.624368,-0.01999 1.146986,0.469415 1.167968,1.09375 7.15e-4,0.645663 -0.522305,1.169558 -1.167968,1.169922 H 34.382812 c -0.625106,0.01998 -1.148039,-0.470595 -1.167968,-1.095703 3.64e-4,-0.6449 0.523069,-1.167605 1.167968,-1.167969 z m 0,5.28125 h 11.863282 c 0.625106,-0.01998 1.14804,0.470595 1.167968,1.095703 -3.63e-4,0.6449 -0.523068,1.167605 -1.167968,1.167969 H 34.382812 c -0.625106,0.01998 -1.148039,-0.470595 -1.167968,-1.095703 3.64e-4,-0.6449 0.523069,-1.167605 1.167968,-1.167969 z m 0,5.28125 h 11.863282 c 0.625106,-0.01998 1.14804,0.470595 1.167968,1.095703 -3.63e-4,0.6449 -0.523068,1.167605 -1.167968,1.167969 H 34.382812 c -0.624367,0.01999 -1.146986,-0.469415 -1.167968,-1.09375 -7.15e-4,-0.645663 0.522306,-1.169558 1.167968,-1.169922 z m -5.24414,5.414062 c 1.239324,-0.01644 2.497459,0.474122 3.388672,1.396485 -0.270653,0.569999 -1.926242,0.28723 -2.523438,1.082031 -0.889355,0.76607 -2.420312,2.444288 -1.28125,3.603516 1.192218,1.165534 2.451269,2.403363 3.740235,3.673828 0.369683,-0.363916 0.736322,-0.723768 1.099609,-1.078125 0.71743,-0.702647 1.387719,-1.444661 1.845703,-2.359375 0.77429,-1.603727 -0.05253,-3.747261 1.382813,-5.03125 0.943847,-1.076219 2.290327,-1.30717 3.621093,-1.285156 0.443585,0.0075 0.885592,0.04218 1.310547,0.08398 2.017355,0.125802 0.760342,1.629927 -0.470703,1.929687 -2.016321,0.575201 -2.004491,2.86349 -0.806641,4.300782 1.096166,1.8613 2.742775,0.09327 4.021485,-0.515625 1.906347,-0.31602 0.06489,2.333176 -0.541016,2.982422 -0.908133,1.404237 -2.453648,2.078183 -4.042969,1.835937 -1.77101,-0.253522 -3.0757,1.055946 -4.267578,2.25 2.509717,2.483311 5.02252,4.978271 7.285157,7.222656 0.802699,1.013651 2.194522,1.687637 2.408203,3.097657 -0.262454,1.404964 -1.489631,2.41 -2.464844,3.255859 -0.435687,0.234405 -1.030643,0.10784 -1.373047,-0.257813 -3.408695,-3.643199 -6.236112,-6.946187 -9.0625,-10.255859 -2.813396,2.711041 -5.648548,5.562695 -8.458984,8.419922 -0.548702,0.469677 -1.147888,1.006487 -1.570313,1.607422 -2.050486,1.926075 -5.108895,-1.144981 -2.818359,-3.605469 3.34493,-3.080405 6.75481,-6.490743 10.011719,-9.732422 -1.098833,-1.274915 -2.226071,-2.56715 -3.41211,-3.896484 -0.654306,-0.564197 -1.775962,-0.506307 -1.757812,0.675781 0.738395,1.284478 -1.130893,2.038102 -1.722656,2.982422 -0.679627,0.503838 -1.147508,-0.477299 -1.646485,-0.835938 -0.734483,-0.97504 -2.252788,-1.583764 -2.287109,-2.964843 0.841323,-0.839925 1.537854,-2.899737 2.810547,-2.367188 1.263201,-0.582893 0.736841,-2.711626 2.080078,-3.439453 1.060072,-0.876741 2.435018,-1.077955 3.40625,-2.201172 0.48438,-0.286206 1.018074,-0.462407 1.566406,-0.535156 0.175161,-0.02324 0.352251,-0.03671 0.529297,-0.03906 z" />
    <rect
       style="fill:none;fill-opacity:1;stroke:#000000;stroke-width:0.3;stroke-linejoin:bevel;stroke-dasharray:none;stroke-opacity:1;paint-order:stroke fill markers;filter:url(#filter1)"
       id="rect10-5"
       width="43.969887"
       height="56.095127"
       x="10.015058"
       y="3.952436"
       rx="6.4782028"
       ry="6.4782028" />
  </g>
</svg>
