<?xml version="1.0" encoding="UTF-8" standalone="no"?>
<svg
   width="64"
   height="64"
   version="1"
   id="svg5"
   sodipodi:docname="epdfview.svg"
   inkscape:version="1.4.2 (ebf0e940d0, 2025-05-08)"
   xmlns:inkscape="http://www.inkscape.org/namespaces/inkscape"
   xmlns:sodipodi="http://sodipodi.sourceforge.net/DTD/sodipodi-0.dtd"
   xmlns:xlink="http://www.w3.org/1999/xlink"
   xmlns="http://www.w3.org/2000/svg"
   xmlns:svg="http://www.w3.org/2000/svg">
  <defs
     id="defs5">
    <inkscape:path-effect
       effect="fillet_chamfer"
       id="path-effect5"
       is_visible="true"
       lpeversion="1"
       nodesatellites_param="F,0,0,1,0,0,0,1 @ F,0,0,1,0,0,0,1 @ F,0,0,1,0,0,0,1 @ F,0,0,1,0,0,0,1 @ F,0,0,1,0,0,0,1 @ F,0,0,1,0,0,0,1 @ F,0,0,1,0,0,0,1 @ F,0,0,1,0,0,0,1 | F,0,1,1,0,1.5488598,0,1 @ F,0,1,1,0,1.5488598,0,1 @ F,0,1,1,0,1.5488598,0,1 @ F,0,1,1,0,1.5488598,0,1 | F,0,1,1,0,1.5488598,0,1 @ F,0,1,1,0,1.5488598,0,1 @ F,0,1,1,0,1.5488598,0,1 @ F,0,1,1,0,1.5488598,0,1 | F,0,1,1,0,1.5488598,0,1 @ F,0,1,1,0,1.5488598,0,1 @ F,0,1,1,0,1.5488598,0,1 @ F,0,1,1,0,1.5488598,0,1 | F,0,1,1,0,1.5488598,0,1 @ F,0,1,1,0,1.5488598,0,1 @ F,0,1,1,0,1.5488598,0,1 @ F,0,1,1,0,1.5488598,0,1 | F,0,1,1,0,1.5488598,0,1 @ F,0,1,1,0,1.5488598,0,1 @ F,0,1,1,0,1.5488598,0,1 @ F,0,1,1,0,1.5488598,0,1 | F,0,1,1,0,1.5488598,0,1 @ F,0,1,1,0,1.5488598,0,1 @ F,0,1,1,0,1.5488598,0,1 @ F,0,1,1,0,1.5488598,0,1 | F,0,1,1,0,1.5488598,0,1 @ F,0,1,1,0,1.5488598,0,1 @ F,0,1,1,0,1.5488598,0,1 @ F,0,1,1,0,1.5488598,0,1"
       radius="0"
       unit="px"
       method="auto"
       mode="F"
       chamfer_steps="1"
       flexible="false"
       use_knot_distance="true"
       apply_no_radius="true"
       apply_with_radius="true"
       only_selected="false"
       hide_knots="false" />
    <inkscape:path-effect
       effect="fillet_chamfer"
       id="path-effect5-2"
       is_visible="true"
       lpeversion="1"
       nodesatellites_param="F,0,0,1,0,0,0,1 @ F,0,0,1,0,0,0,1 @ F,0,0,1,0,0,0,1 @ F,0,0,1,0,0,0,1 @ F,0,0,1,0,0,0,1 @ F,0,0,1,0,0,0,1 @ F,0,0,1,0,0,0,1 @ F,0,0,1,0,0,0,1 | F,0,1,1,0,1.5488598,0,1 @ F,0,1,1,0,1.5488598,0,1 @ F,0,1,1,0,1.5488598,0,1 @ F,0,1,1,0,1.5488598,0,1 | F,0,1,1,0,1.5488598,0,1 @ F,0,1,1,0,1.5488598,0,1 @ F,0,1,1,0,1.5488598,0,1 @ F,0,1,1,0,1.5488598,0,1 | F,0,1,1,0,1.5488598,0,1 @ F,0,1,1,0,1.5488598,0,1 @ F,0,1,1,0,1.5488598,0,1 @ F,0,1,1,0,1.5488598,0,1 | F,0,1,1,0,1.5488598,0,1 @ F,0,1,1,0,1.5488598,0,1 @ F,0,1,1,0,1.5488598,0,1 @ F,0,1,1,0,1.5488598,0,1 | F,0,1,1,0,1.5488598,0,1 @ F,0,1,1,0,1.5488598,0,1 @ F,0,1,1,0,1.5488598,0,1 @ F,0,1,1,0,1.5488598,0,1 | F,0,1,1,0,1.5488598,0,1 @ F,0,1,1,0,1.5488598,0,1 @ F,0,1,1,0,1.5488598,0,1 @ F,0,1,1,0,1.5488598,0,1 | F,0,1,1,0,1.5488598,0,1 @ F,0,1,1,0,1.5488598,0,1 @ F,0,1,1,0,1.5488598,0,1 @ F,0,1,1,0,1.5488598,0,1"
       radius="0"
       unit="px"
       method="auto"
       mode="F"
       chamfer_steps="1"
       flexible="false"
       use_knot_distance="true"
       apply_no_radius="true"
       apply_with_radius="true"
       only_selected="false"
       hide_knots="false" />
    <filter
       inkscape:collect="always"
       style="color-interpolation-filters:sRGB"
       id="filter1"
       x="-0.086579163"
       y="-0.067864647"
       width="1.1731583"
       height="1.1357293">
      <feGaussianBlur
         inkscape:collect="always"
         stdDeviation="1.5236983"
         id="feGaussianBlur1" />
    </filter>
    <radialGradient
       inkscape:collect="always"
       xlink:href="#linearGradient6-3"
       id="radialGradient12"
       cx="8.9159527"
       cy="52.562355"
       fx="8.9159527"
       fy="52.562355"
       r="21.984943"
       gradientTransform="matrix(2.4108181,-2.4108181,3.075631,3.075631,-180.22015,-81.761033)"
       gradientUnits="userSpaceOnUse" />
    <linearGradient
       id="linearGradient6-3"
       inkscape:collect="always">
      <stop
         style="stop-color:#ff423b;stop-opacity:1;"
         offset="0.00165814"
         id="stop6" />
      <stop
         style="stop-color:#f16232;stop-opacity:1;"
         offset="0.99860948"
         id="stop8-6" />
    </linearGradient>
    <filter
       inkscape:collect="always"
       style="color-interpolation-filters:sRGB"
       id="filter5"
       x="-0.049361263"
       y="-0.037020948"
       width="1.0987225"
       height="1.0740419">
      <feGaussianBlur
         inkscape:collect="always"
         stdDeviation="0.69875228"
         id="feGaussianBlur5" />
    </filter>
  </defs>
  <sodipodi:namedview
     id="namedview5"
     pagecolor="#ffffff"
     bordercolor="#000000"
     borderopacity="0.25"
     inkscape:showpageshadow="2"
     inkscape:pageopacity="0.0"
     inkscape:pagecheckerboard="0"
     inkscape:deskcolor="#d1d1d1"
     inkscape:zoom="7.1613937"
     inkscape:cx="30.301364"
     inkscape:cy="41.751649"
     inkscape:window-width="2686"
     inkscape:window-height="1380"
     inkscape:window-x="0"
     inkscape:window-y="0"
     inkscape:window-maximized="0"
     inkscape:current-layer="svg5" />
  <g
     id="g5">
    <rect
       style="fill:url(#radialGradient12);fill-opacity:1;stroke:none;stroke-width:8.3;stroke-linejoin:bevel;stroke-opacity:1;paint-order:stroke fill markers"
       id="rect10"
       width="43.969887"
       height="56.095127"
       x="10.015057"
       y="3.9524364"
       rx="6.4782028"
       ry="6.4782028" />
    <path
       id="path4-2"
       style="fill:#f5f5f5"
       d="M 17.800781 8 C 15.701595 7.9998255 13.999825 9.7015956 14 11.800781 L 14 52.199219 C 13.999826 54.298405 15.701595 56.000175 17.800781 56 L 46.199219 56 C 48.298405 56.000175 50.000175 54.298405 50 52.199219 L 50 11.236328 C 49.9994 9.4484394 48.549608 7.9995213 46.761719 8 L 17.800781 8 z M 18.753906 10.701172 L 27.304688 10.701172 C 28.489015 10.701172 29.441406 11.655517 29.441406 12.839844 L 29.441406 21.388672 C 29.441406 22.572998 28.489015 23.527344 27.304688 23.527344 L 18.753906 23.527344 C 17.56958 23.527344 16.615234 22.572998 16.615234 21.388672 L 16.615234 12.839844 C 16.615234 11.655517 17.56958 10.701172 18.753906 10.701172 z M 34.382812 10.701172 L 46.246094 10.701172 A 1.1323632 1.1323632 0 0 1 47.414062 11.794922 A 1.1686281 1.1686281 0 0 1 46.246094 12.964844 L 34.382812 12.964844 A 1.1323632 1.1323632 0 0 1 33.214844 11.869141 A 1.1686281 1.1686281 0 0 1 34.382812 10.701172 z M 34.382812 15.982422 L 46.246094 15.982422 A 1.1323632 1.1323632 0 0 1 47.414062 17.078125 A 1.1686281 1.1686281 0 0 1 46.246094 18.246094 L 34.382812 18.246094 A 1.1323632 1.1323632 0 0 1 33.214844 17.150391 A 1.1686281 1.1686281 0 0 1 34.382812 15.982422 z M 34.382812 21.263672 L 46.246094 21.263672 A 1.1323632 1.1323632 0 0 1 47.414062 22.359375 A 1.1686281 1.1686281 0 0 1 46.246094 23.527344 L 34.382812 23.527344 A 1.1323632 1.1323632 0 0 1 33.214844 22.433594 A 1.1686281 1.1686281 0 0 1 34.382812 21.263672 z M 17.785156 26.544922 L 46.246094 26.544922 A 1.1323632 1.1323632 0 0 1 47.414062 27.640625 A 1.1686281 1.1686281 0 0 1 46.246094 28.808594 L 17.785156 28.808594 A 1.1323632 1.1323632 0 0 1 16.615234 27.714844 A 1.1686281 1.1686281 0 0 1 17.785156 26.544922 z M 17.785156 31.828125 L 46.246094 31.828125 A 1.1323632 1.1323632 0 0 1 47.414062 32.921875 A 1.1686281 1.1686281 0 0 1 46.246094 34.089844 L 17.785156 34.089844 A 1.1323632 1.1323632 0 0 1 16.615234 32.996094 A 1.1686281 1.1686281 0 0 1 17.785156 31.828125 z M 17.785156 37.109375 L 46.246094 37.109375 A 1.1323632 1.1323632 0 0 1 47.414062 38.203125 A 1.1686281 1.1686281 0 0 1 46.246094 39.373047 L 17.785156 39.373047 A 1.1323632 1.1323632 0 0 1 16.615234 38.277344 A 1.1686281 1.1686281 0 0 1 17.785156 37.109375 z M 17.785156 42.390625 L 46.246094 42.390625 A 1.1323632 1.1323632 0 0 1 47.414062 43.484375 A 1.1686281 1.1686281 0 0 1 46.246094 44.654297 L 17.785156 44.654297 A 1.1323632 1.1323632 0 0 1 16.615234 43.558594 A 1.1686281 1.1686281 0 0 1 17.785156 42.390625 z " />
    <path
       id="path4-2-5"
       style="fill:none;stroke:#ff0064;stroke-width:0.2;stroke-dasharray:none;stroke-opacity:1;filter:url(#filter5);fill-opacity:1"
       d="M 17.800781,8.0000002 C 15.701595,7.9998257 13.999825,9.7015958 14,11.800781 V 52.199219 C 13.999826,54.298405 15.701595,56.000175 17.800781,56 H 46.199219 C 48.298405,56.000175 50.000175,54.298405 50,52.199219 V 11.236328 C 49.9994,9.4484396 48.549608,7.9995215 46.761719,8.0000002 Z m 0.953125,2.7011718 h 8.550782 c 1.184327,0 2.136718,0.954345 2.136718,2.138672 v 8.548828 c 0,1.184326 -0.952391,2.138672 -2.136718,2.138672 h -8.550782 c -1.184326,0 -2.138672,-0.954346 -2.138672,-2.138672 v -8.548828 c 0,-1.184327 0.954346,-2.138672 2.138672,-2.138672 z m 15.628906,0 h 11.863282 a 1.1323632,1.1323632 0 0 1 1.167968,1.09375 1.1686281,1.1686281 0 0 1 -1.167968,1.169922 H 34.382812 a 1.1323632,1.1323632 0 0 1 -1.167968,-1.095703 1.1686281,1.1686281 0 0 1 1.167968,-1.167969 z m 0,5.28125 h 11.863282 a 1.1323632,1.1323632 0 0 1 1.167968,1.095703 1.1686281,1.1686281 0 0 1 -1.167968,1.167969 H 34.382812 a 1.1323632,1.1323632 0 0 1 -1.167968,-1.095703 1.1686281,1.1686281 0 0 1 1.167968,-1.167969 z m 0,5.28125 h 11.863282 a 1.1323632,1.1323632 0 0 1 1.167968,1.095703 1.1686281,1.1686281 0 0 1 -1.167968,1.167969 H 34.382812 a 1.1323632,1.1323632 0 0 1 -1.167968,-1.09375 1.1686281,1.1686281 0 0 1 1.167968,-1.169922 z m -16.597656,5.28125 h 28.460938 a 1.1323632,1.1323632 0 0 1 1.167968,1.095703 1.1686281,1.1686281 0 0 1 -1.167968,1.167969 H 17.785156 a 1.1323632,1.1323632 0 0 1 -1.169922,-1.09375 1.1686281,1.1686281 0 0 1 1.169922,-1.169922 z m 0,5.283203 h 28.460938 a 1.1323632,1.1323632 0 0 1 1.167968,1.09375 1.1686281,1.1686281 0 0 1 -1.167968,1.167969 H 17.785156 a 1.1323632,1.1323632 0 0 1 -1.169922,-1.09375 1.1686281,1.1686281 0 0 1 1.169922,-1.167969 z m 0,5.28125 h 28.460938 a 1.1323632,1.1323632 0 0 1 1.167968,1.09375 1.1686281,1.1686281 0 0 1 -1.167968,1.169922 H 17.785156 a 1.1323632,1.1323632 0 0 1 -1.169922,-1.095703 1.1686281,1.1686281 0 0 1 1.169922,-1.167969 z m 0,5.28125 h 28.460938 a 1.1323632,1.1323632 0 0 1 1.167968,1.09375 1.1686281,1.1686281 0 0 1 -1.167968,1.169922 H 17.785156 a 1.1323632,1.1323632 0 0 1 -1.169922,-1.095703 1.1686281,1.1686281 0 0 1 1.169922,-1.167969 z" />
    <rect
       style="fill:none;fill-opacity:1;stroke:#000000;stroke-width:0.3;stroke-linejoin:bevel;stroke-dasharray:none;stroke-opacity:1;paint-order:stroke fill markers;filter:url(#filter1)"
       id="rect10-5"
       width="43.969887"
       height="56.095127"
       x="10.015058"
       y="3.952436"
       rx="6.4782028"
       ry="6.4782028" />
  </g>
</svg>
