<?xml version="1.0" encoding="UTF-8" standalone="no"?>
<svg
   width="64"
   height="64"
   version="1"
   id="svg6"
   sodipodi:docname="guake-prefs.svg"
   inkscape:version="1.4.3 (0d15f75042, 2025-12-25)"
   xmlns:inkscape="http://www.inkscape.org/namespaces/inkscape"
   xmlns:sodipodi="http://sodipodi.sourceforge.net/DTD/sodipodi-0.dtd"
   xmlns:xlink="http://www.w3.org/1999/xlink"
   xmlns="http://www.w3.org/2000/svg"
   xmlns:svg="http://www.w3.org/2000/svg">
  <defs
     id="defs6">
    <radialGradient
       inkscape:collect="always"
       xlink:href="#SVGID_1_-3-2"
       id="radialGradient9"
       cx="94.632431"
       cy="-0.18456356"
       fx="94.632431"
       fy="-0.18456356"
       r="28"
       gradientUnits="userSpaceOnUse"
       gradientTransform="matrix(0,-2.6079936,2.5556904,0,64.289198,306.6911)" />
    <radialGradient
       id="SVGID_1_-3-2"
       cx="-159.43106"
       cy="15.462561"
       r="64.706802"
       gradientTransform="matrix(-0.89413329,0,0,0.96304834,-70.017818,-8.6185067)"
       gradientUnits="userSpaceOnUse"
       fx="-159.43106"
       fy="15.462561">
      <stop
         offset="0"
         style="stop-color:#0fcb55;stop-opacity:1;"
         id="stop1-6-9" />
      <stop
         offset="1"
         style="stop-color:#00d9d4;stop-opacity:1;"
         id="stop2-7-1" />
    </radialGradient>
    <filter
       inkscape:collect="always"
       style="color-interpolation-filters:sRGB"
       id="filter12"
       x="-0.069069561"
       y="-0.080183745"
       width="1.1381391"
       height="1.1603675">
      <feGaussianBlur
         inkscape:collect="always"
         stdDeviation="1.5491233"
         id="feGaussianBlur12" />
    </filter>
    <filter
       inkscape:collect="always"
       style="color-interpolation-filters:sRGB"
       id="filter11"
       x="-0.087906731"
       y="-0.10673619"
       width="1.1758135"
       height="1.2134724">
      <feGaussianBlur
         inkscape:collect="always"
         stdDeviation="1.5491233"
         id="feGaussianBlur11" />
    </filter>
    <inkscape:path-effect
       effect="fillet_chamfer"
       id="path-effect6"
       is_visible="true"
       lpeversion="1"
       nodesatellites_param="F,0,0,1,0,1.5848536,0,1 @ F,0,0,1,0,1.5848536,0,1 @ F,0,0,1,0,0.54849555,0,1 @ F,0,0,1,0,1.5848536,0,1 @ F,0,0,1,0,1.5848536,0,1 @ F,0,0,1,0,1.9224346,0,1 | F,0,0,1,0,1.5848536,0,1 @ F,0,0,1,0,1.5848536,0,1 @ F,0,0,1,0,1.5848536,0,1 @ F,0,0,1,0,1.5848536,0,1"
       radius="0"
       unit="px"
       method="auto"
       mode="F"
       chamfer_steps="1"
       flexible="false"
       use_knot_distance="true"
       apply_no_radius="true"
       apply_with_radius="true"
       only_selected="false"
       hide_knots="false" />
    <filter
       inkscape:collect="always"
       style="color-interpolation-filters:sRGB"
       id="filter6"
       x="-0.14011726"
       y="-0.20092686"
       width="1.2802711"
       height="1.4019063">
      <feGaussianBlur
         inkscape:collect="always"
         stdDeviation="0.9580495"
         id="feGaussianBlur6" />
    </filter>
    <inkscape:path-effect
       effect="fillet_chamfer"
       id="path-effect6-7"
       is_visible="true"
       lpeversion="1"
       nodesatellites_param="F,0,0,1,0,1.5848536,0,1 @ F,0,0,1,0,1.5848536,0,1 @ F,0,0,1,0,0.54849555,0,1 @ F,0,0,1,0,1.5848536,0,1 @ F,0,0,1,0,1.5848536,0,1 @ F,0,0,1,0,1.9224346,0,1 | F,0,0,1,0,1.5848536,0,1 @ F,0,0,1,0,1.5848536,0,1 @ F,0,0,1,0,1.5848536,0,1 @ F,0,0,1,0,1.5848536,0,1"
       radius="0"
       unit="px"
       method="auto"
       mode="F"
       chamfer_steps="1"
       flexible="false"
       use_knot_distance="true"
       apply_no_radius="true"
       apply_with_radius="true"
       only_selected="false"
       hide_knots="false" />
    <filter
       inkscape:collect="always"
       style="color-interpolation-filters:sRGB"
       id="filter3"
       x="-0.13450244"
       y="-0.15823816"
       width="1.2690049"
       height="1.3164763">
      <feGaussianBlur
         inkscape:collect="always"
         stdDeviation="1.0583537"
         id="feGaussianBlur3" />
    </filter>
    <filter
       inkscape:collect="always"
       style="color-interpolation-filters:sRGB"
       id="filter1"
       x="-0.12143912"
       y="-0.1103992"
       width="1.2428782"
       height="1.2207984">
      <feGaussianBlur
         inkscape:collect="always"
         stdDeviation="0.94949263"
         id="feGaussianBlur1" />
    </filter>
    <radialGradient
       inkscape:collect="always"
       xlink:href="#SVGID_2_-3-3"
       id="radialGradient8-5"
       gradientUnits="userSpaceOnUse"
       gradientTransform="matrix(1,0,0,-1,-0.26828282,65.391962)"
       cx="21.0371"
       cy="56.209099"
       r="40.250599" />
    <radialGradient
       id="SVGID_2_-3-3"
       cx="21.0371"
       cy="56.209099"
       r="40.250599"
       gradientTransform="matrix(1,0,0,-1,0,66)"
       gradientUnits="userSpaceOnUse">
      <stop
         offset="0"
         style="stop-color:#FFFFFF"
         id="stop5-5-6" />
      <stop
         offset="1"
         style="stop-color:#C4C4C4"
         id="stop6-6-7" />
    </radialGradient>
    <filter
       inkscape:collect="always"
       style="color-interpolation-filters:sRGB"
       id="filter2"
       x="-0.15615172"
       y="-0.23882027"
       width="1.3123034"
       height="1.4776405">
      <feGaussianBlur
         inkscape:collect="always"
         stdDeviation="1.6291436"
         id="feGaussianBlur2" />
    </filter>
    <radialGradient
       inkscape:collect="always"
       xlink:href="#SVGID_1_-3-2"
       id="radialGradient2"
       cx="88.394691"
       cy="94.832779"
       fx="88.394691"
       fy="94.832779"
       r="17"
       gradientUnits="userSpaceOnUse"
       gradientTransform="matrix(0,-9.0514721,9.0514721,0,-769.98156,894.93486)" />
  </defs>
  <sodipodi:namedview
     id="namedview6"
     pagecolor="#505050"
     bordercolor="#eeeeee"
     borderopacity="1"
     inkscape:showpageshadow="0"
     inkscape:pageopacity="0"
     inkscape:pagecheckerboard="0"
     inkscape:deskcolor="#505050"
     inkscape:zoom="7.1089957"
     inkscape:cx="19.412025"
     inkscape:cy="8.0180102"
     inkscape:current-layer="svg6" />
  <g
     id="g1"
     transform="translate(5e-7,3.8810465)">
    <path
       id="path2-36"
       style="fill:url(#radialGradient9)"
       d="m 20.800777,4.0000009 c -9.30719,0 -16.800781,7.4935901 -16.800781,16.8007811 V 32 35.437125 c 0,9.30719 7.493591,16.800781 16.800781,16.800781 h 22.398436 c 9.30719,0 16.80079,-7.493591 16.80079,-16.800781 V 32 20.800781 c 0,-9.307191 -7.4936,-16.8007801 -16.80079,-16.8007801 z"
       sodipodi:nodetypes="sscsssscsss" />
    <path
       style="fill:#3f3f3f"
       d="m 20.999996,9.9999999 h 21.999997 c 6.18914,0 11,4.8108661 11,11.0000011 v 14.237905 c 0,6.189135 -4.81086,11 -11,11 H 20.999996 c -6.189135,0 -11,-4.810865 -11,-11 V 21.000001 c 0,-6.189135 4.810865,-11.0000011 11,-11.0000011 z"
       id="path5-7"
       sodipodi:nodetypes="sssssssss" />
    <path
       id="path2-3"
       style="fill:none;stroke:#000000;stroke-width:0.3;stroke-dasharray:none;stroke-opacity:1;filter:url(#filter12)"
       d="m 20.800777,4.0000009 c -9.30719,0 -16.800781,7.4935891 -16.800781,16.8007801 V 32 35.437125 c 0,9.30719 7.493591,16.800781 16.800781,16.800781 h 22.398436 c 9.30719,0 16.80079,-7.493591 16.80079,-16.800781 V 32 20.800781 c 0,-9.307191 -7.4936,-16.8007801 -16.80079,-16.8007801 z"
       sodipodi:nodetypes="sscsssscsss" />
    <path
       style="fill:none;stroke:#000000;stroke-width:0.3;stroke-dasharray:none;stroke-opacity:1;filter:url(#filter11)"
       d="m 20.999996,9.9999999 h 21.999997 c 6.18914,0 11,4.8108661 11,11.0000011 v 14.237905 c 0,6.189135 -4.81086,11 -11,11 H 20.999996 c -6.189135,0 -11,-4.810865 -11,-11 V 21.000001 c 0,-6.189135 4.810865,-11.0000011 11,-11.0000011 z"
       id="path5-5"
       sodipodi:nodetypes="sssssssss" />
    <path
       id="path3"
       style="baseline-shift:baseline;display:inline;overflow:visible;vector-effect:none;fill:#ffffff;fill-opacity:1;stroke:none;stroke-miterlimit:7.4;enable-background:accumulate;stop-color:#000000"
       d="m 14.630727,17.658994 -0.0048,0.0048 a 1.5848536,1.5848536 90 0 0 0,2.241322 l 2.569619,2.569619 a 0.54875816,0.54875816 89.986287 0 1 1.86e-4,0.775876 l -2.570342,2.572803 a 1.5856124,1.5856124 89.986287 0 0 5.37e-4,2.241858 l 0.0048,0.0048 a 1.584609,1.584609 179.99558 0 0 2.241149,-1.73e-4 l 3.846527,-3.847715 a 1.9224345,1.9224345 89.991156 0 0 -4.19e-4,-2.718733 l -3.845762,-3.844574 a 1.5850983,1.5850983 179.99558 0 0 -2.241495,1.73e-4 z m 7.704645,9.881067 v 0.008 a 1.5848536,1.5848536 45 0 0 1.584854,1.584854 l 5.775605,0 a 1.5848536,1.5848536 135 0 0 1.584854,-1.584854 v -0.008 a 1.5848536,1.5848536 45 0 0 -1.584854,-1.584854 h -5.775605 a 1.5848536,1.5848536 135 0 0 -1.584854,1.584854 z"
       sodipodi:nodetypes="cccccccccccc"
       inkscape:path-effect="#path-effect6"
       inkscape:original-d="m 15.751388,16.538333 -2.246094,2.246094 4.078125,4.078125 -4.078125,4.082031 2.246094,2.246094 6.326172,-6.328125 z m 6.583984,9.416874 v 3.177735 h 8.945313 v -3.177735 z"
       transform="matrix(1.0579152,0,0,1.0579152,1.5134847,-1.853288)" />
    <path
       id="path3-1"
       style="baseline-shift:baseline;display:inline;overflow:visible;fill:none;fill-opacity:1;stroke:#00ff46;stroke-width:0.2;stroke-miterlimit:7.4;stroke-dasharray:none;stroke-opacity:1;filter:url(#filter6);enable-background:accumulate;stop-color:#000000"
       d="m 14.630727,17.658994 -0.0048,0.0048 a 1.5848536,1.5848536 90 0 0 0,2.241322 l 2.569619,2.569619 a 0.54875816,0.54875816 89.986287 0 1 1.86e-4,0.775876 l -2.570342,2.572803 a 1.5856124,1.5856124 89.986287 0 0 5.37e-4,2.241858 l 0.0048,0.0048 a 1.584609,1.584609 179.99558 0 0 2.241149,-1.73e-4 l 3.846527,-3.847715 a 1.9224345,1.9224345 89.991156 0 0 -4.19e-4,-2.718733 l -3.845762,-3.844574 a 1.5850983,1.5850983 179.99558 0 0 -2.241495,1.73e-4 z m 7.704645,9.881067 v 0.008 a 1.5848536,1.5848536 45 0 0 1.584854,1.584854 l 5.775605,0 a 1.5848536,1.5848536 135 0 0 1.584854,-1.584854 v -0.008 a 1.5848536,1.5848536 45 0 0 -1.584854,-1.584854 h -5.775605 a 1.5848536,1.5848536 135 0 0 -1.584854,1.584854 z"
       sodipodi:nodetypes="cccccccccccc"
       inkscape:path-effect="#path-effect6-7"
       inkscape:original-d="m 15.751388,16.538333 -2.246094,2.246094 4.078125,4.078125 -4.078125,4.082031 2.246094,2.246094 6.326172,-6.328125 z m 6.583984,9.416874 v 3.177735 h 8.945313 v -3.177735 z"
       transform="matrix(1.0579152,0,0,1.0579152,1.5134847,-1.853288)" />
  </g>
  <g
     id="g2"
     transform="matrix(0,0.30215839,-0.30215839,0,54.249169,31.197867)">
    <path
       class="st2"
       d="m 42.973851,32.051769 v 14 c 0,1.7 1.3,3 3,3 1.7,0 3,-1.3 3,-3 v -14 z m -14,5 v 9 c 0,1.7 1.3,3 3,3 1.7,0 3,-1.3 3,-3 v -9 z"
       id="path3-3"
       style="opacity:1;fill:url(#radialGradient2);fill-opacity:1"
       sodipodi:nodetypes="cssscccssscc" />
    <path
       class="st2"
       d="m 43,32 v 14 c 0,1.7 1.3,3 3,3 1.7,0 3,-1.3 3,-3 V 32 Z m -14,5 v 9 c 0,1.7 1.3,3 3,3 1.7,0 3,-1.3 3,-3 v -9 z"
       id="path3-9"
       style="fill:none;stroke:#00ffc4;stroke-width:0.3;stroke-dasharray:none;stroke-opacity:1;filter:url(#filter3)"
       sodipodi:nodetypes="cssscccssscc" />
    <path
       class="st0"
       d="m 31.973851,15.051769 c -1.7,0 -3,1.4 -3,3 v 19 h 6 v -19 c 0,-1.7 -1.4,-3 -3,-3 z m 14,0 c -1.7,0 -3,1.4 -3,3 v 14 h 6 v -14 c 0,-1.7 -1.4,-3 -3,-3 z"
       id="path4"
       style="opacity:0.2;enable-background:new" />
    <path
       class="st0"
       d="m 32,15 c -1.7,0 -3,1.4 -3,3 v 19 h 6 V 18 c 0,-1.7 -1.4,-3 -3,-3 z m 14,0 c -1.7,0 -3,1.4 -3,3 v 14 h 6 V 18 c 0,-1.7 -1.4,-3 -3,-3 z"
       id="path4-1"
       style="opacity:0.306104;fill:none;stroke:#000000;stroke-width:0.3;stroke-dasharray:none;stroke-opacity:1;filter:url(#filter1);enable-background:new" />
    <path
       class="st4"
       d="m 45.731716,25.391962 c -3.3,0 -6,2.7 -6,6 0,3.3 2.7,6 6,6 3.3,0 6,-2.7 6,-6 0,-3.3 -2.7,-6 -6,-6 z m -14,5 c -3.3,0 -6,2.7 -6,6 0,3.3 2.7,6 6,6 3.3,0 6,-2.7 6,-6 0,-3.3 -2.7,-6 -6,-6 z"
       id="path6-2"
       style="fill:url(#radialGradient8-5)"
       sodipodi:nodetypes="ssssssssss" />
    <path
       class="st4"
       d="m 45.757865,25.340193 c -3.3,0 -6,2.7 -6,6 0,3.3 2.7,6 6,6 3.3,0 6,-2.7 6,-6 0,-3.3 -2.7,-6 -6,-6 z m -14,5 c -3.3,0 -6,2.7 -6,6 0,3.3 2.7,6 6,6 3.3,0 6,-2.7 6,-6 0,-3.3 -2.7,-6 -6,-6 z"
       id="path6-2-2"
       style="fill:none;stroke:#000000;stroke-width:0.3;stroke-dasharray:none;stroke-opacity:1;filter:url(#filter2)"
       sodipodi:nodetypes="ssssssssss" />
  </g>
</svg>
