<?xml version="1.0" encoding="UTF-8" standalone="no"?>
<svg
   width="64"
   height="64"
   version="1"
   id="svg5"
   sodipodi:docname="workspace-switcher-left-bottom.svg"
   inkscape:version="1.4.2 (ebf0e940d0, 2025-05-08)"
   xmlns:inkscape="http://www.inkscape.org/namespaces/inkscape"
   xmlns:sodipodi="http://sodipodi.sourceforge.net/DTD/sodipodi-0.dtd"
   xmlns:xlink="http://www.w3.org/1999/xlink"
   xmlns="http://www.w3.org/2000/svg"
   xmlns:svg="http://www.w3.org/2000/svg">
  <defs
     id="defs5">
    <radialGradient
       inkscape:collect="always"
       xlink:href="#linearGradient8"
       id="radialGradient10"
       cx="2.4846101"
       cy="63.119411"
       fx="2.4846101"
       fy="63.119411"
       r="27.92197"
       gradientTransform="matrix(3.993342,-2.2493756,2.160726,3.6512908,-149.41395,-160.69393)"
       gradientUnits="userSpaceOnUse" />
    <linearGradient
       id="linearGradient8"
       inkscape:collect="always">
      <stop
         style="stop-color:#ffffff;stop-opacity:1;"
         offset="0"
         id="stop7" />
      <stop
         style="stop-color:#c1c1c1;stop-opacity:1;"
         offset="1"
         id="stop8" />
    </linearGradient>
    <inkscape:path-effect
       effect="fillet_chamfer"
       id="path-effect9-4"
       is_visible="true"
       lpeversion="1"
       nodesatellites_param="F,0,0,1,0,5.8758489,0,1 @ F,0,1,1,0,5.8758489,0,1 @ F,0,1,1,0,5.8758489,0,1 @ F,0,1,1,0,5.8758489,0,1"
       radius="0"
       unit="px"
       method="auto"
       mode="F"
       chamfer_steps="1"
       flexible="false"
       use_knot_distance="true"
       apply_no_radius="true"
       apply_with_radius="true"
       only_selected="false"
       hide_knots="false" />
    <filter
       inkscape:collect="always"
       style="color-interpolation-filters:sRGB"
       id="filter1-1"
       x="-0.073180276"
       y="-0.099323279"
       width="1.1463606"
       height="1.1986466">
      <feGaussianBlur
         inkscape:collect="always"
         stdDeviation="1.658379"
         id="feGaussianBlur1-5" />
    </filter>
    <inkscape:path-effect
       effect="fillet_chamfer"
       id="path-effect9-1-9"
       is_visible="true"
       lpeversion="1"
       nodesatellites_param="F,0,0,1,0,5.8758489,0,1 @ F,0,1,1,0,5.8758489,0,1 @ F,0,1,1,0,5.8758489,0,1 @ F,0,1,1,0,5.8758489,0,1"
       radius="0"
       unit="px"
       method="auto"
       mode="F"
       chamfer_steps="1"
       flexible="false"
       use_knot_distance="true"
       apply_no_radius="true"
       apply_with_radius="true"
       only_selected="false"
       hide_knots="false" />
    <filter
       inkscape:collect="always"
       style="color-interpolation-filters:sRGB"
       id="filter12"
       x="-0.097833213"
       y="-0.12459837"
       width="1.1956664"
       height="1.2491967">
      <feGaussianBlur
         inkscape:collect="always"
         stdDeviation="2.2442324"
         id="feGaussianBlur12" />
    </filter>
    <inkscape:path-effect
       effect="fillet_chamfer"
       id="path-effect9-2-2"
       is_visible="true"
       lpeversion="1"
       nodesatellites_param="F,0,1,1,0,9.6225854,0,1 @ F,0,1,1,0,9.6225854,0,1 @ F,0,0,1,0,9.6225854,0,1 @ F,0,1,1,0,9.6225854,0,1"
       radius="0"
       unit="px"
       method="auto"
       mode="F"
       chamfer_steps="1"
       flexible="false"
       use_knot_distance="true"
       apply_no_radius="true"
       apply_with_radius="true"
       only_selected="false"
       hide_knots="false" />
    <radialGradient
       inkscape:collect="always"
       xlink:href="#linearGradient9"
       id="radialGradient10-0"
       cx="9.7942343"
       cy="53.223694"
       fx="9.7942343"
       fy="53.223694"
       r="27.92197"
       gradientTransform="matrix(2.4418912,0,0,2.2327301,-9.175445,-76.744037)"
       gradientUnits="userSpaceOnUse" />
    <linearGradient
       id="linearGradient9"
       inkscape:collect="always">
      <stop
         style="stop-color:#00baff;stop-opacity:1;"
         offset="0"
         id="stop9" />
      <stop
         style="stop-color:#007aff;stop-opacity:1;"
         offset="1"
         id="stop10" />
    </linearGradient>
    <inkscape:path-effect
       effect="fillet_chamfer"
       id="path-effect9-2"
       is_visible="true"
       lpeversion="1"
       nodesatellites_param="F,0,1,1,0,9.6225854,0,1 @ F,0,1,1,0,9.6225854,0,1 @ F,0,0,1,0,9.6225854,0,1 @ F,0,1,1,0,9.6225854,0,1"
       radius="0"
       unit="px"
       method="auto"
       mode="F"
       chamfer_steps="1"
       flexible="false"
       use_knot_distance="true"
       apply_no_radius="true"
       apply_with_radius="true"
       only_selected="false"
       hide_knots="false" />
  </defs>
  <sodipodi:namedview
     id="namedview5"
     pagecolor="#ffffff"
     bordercolor="#000000"
     borderopacity="0.25"
     inkscape:showpageshadow="2"
     inkscape:pageopacity="0.0"
     inkscape:pagecheckerboard="0"
     inkscape:deskcolor="#d1d1d1"
     inkscape:zoom="13.875"
     inkscape:cx="32.036036"
     inkscape:cy="32"
     inkscape:window-width="1920"
     inkscape:window-height="1017"
     inkscape:window-x="0"
     inkscape:window-y="0"
     inkscape:window-maximized="1"
     inkscape:current-layer="svg5" />
  <path
     id="rect8-6"
     style="fill:url(#radialGradient10-0);fill-opacity:1;stroke-width:0.4"
     d="m 13.490292,3.3191092 h 37.019415 a 9.6225854,9.6225854 45 0 1 9.622585,9.6225858 v 30.008314 a 9.6225854,9.6225854 135 0 1 -9.622585,9.622585 H 13.490292 A 9.6225854,9.6225854 45 0 1 3.8677071,42.950009 V 12.941695 A 9.6225854,9.6225854 135 0 1 13.490292,3.3191092 Z"
     inkscape:path-effect="#path-effect9-2"
     inkscape:original-d="M 3.8677071,3.3191092 H 60.132292 V 52.572594 H 3.8677071 Z"
     transform="matrix(0.94763965,0,0,0.84888422,1.675533,8.2772087)"
     sodipodi:nodetypes="ccccc" />
  <path
     id="rect8"
     style="opacity:0.277966;fill:#ffffff;fill-opacity:1;stroke-width:0.358762"
     d="m 14.318574,11.096181 a 9.1187434,8.1684609 0 0 0 -8.923268,7.281461 v 13.62236 H 58.658495 V 19.262547 a 9.1187434,8.1684609 0 0 0 -8.977068,-8.166366 z" />
  <path
     id="rect8-1"
     style="opacity:0.277966;fill:#ffffff;fill-opacity:1;stroke-width:0.358762"
     d="m 32.027828,11.096181 v 41.807643 h 17.653599 a 9.1187434,8.1684609 0 0 0 8.977068,-8.166367 v -25.47491 a 9.1187434,8.1684609 0 0 0 -8.977068,-8.166366 z" />
  <g
     id="g12"
     style="mix-blend-mode:normal;stroke:#000000;stroke-width:0.2;stroke-dasharray:none;stroke-opacity:1;filter:url(#filter12)"
     transform="matrix(0.9498364,0,0,0.9498364,22.329546,47.611358)">
    <path
       id="rect8-6-1"
       style="opacity:1;fill:none;fill-opacity:1;stroke:#000000;stroke-width:0.211803;stroke-dasharray:none;stroke-opacity:1"
       d="m 13.490292,3.3191092 h 37.019415 a 9.6225854,9.6225854 45 0 1 9.622585,9.6225858 v 30.008314 a 9.6225854,9.6225854 135 0 1 -9.622585,9.622585 H 13.490292 A 9.6225854,9.6225854 45 0 1 3.8677071,42.950009 V 12.941695 A 9.6225854,9.6225854 135 0 1 13.490292,3.3191092 Z"
       transform="matrix(0.99768723,0,0,0.89371624,-21.744812,-41.411498)"
       sodipodi:nodetypes="ccccc"
       inkscape:original-d="M 3.8677071,3.3191092 H 60.132292 V 52.572594 H 3.8677071 Z"
       inkscape:path-effect="#path-effect9-2-2" />
    <path
       id="rect8-1-7"
       style="opacity:1;fill:none;fill-opacity:1;stroke:#000000;stroke-width:0.2;stroke-dasharray:none;stroke-opacity:1"
       d="m -8.4623777,-38.443649 a 9.6003306,8.5998608 0 0 0 -9.3945313,7.666015 v 14.341797 H 10.182154 V -38.443649 Z M 10.182154,-16.435837 V 5.5719752 h 18.585938 a 9.6003306,8.5998608 0 0 0 9.45117,-8.597656 V -16.435837 Z" />
  </g>
  <g
     id="g8"
     transform="matrix(0.92085539,0,0,0.92085539,-23.757895,2.9233983)">
    <path
       id="rect8-4"
       style="fill:url(#radialGradient10);fill-opacity:1;stroke-width:0.4"
       d="M 9.9538785,11.427406 H 54.046121 a 5.8758489,5.8758489 45 0 1 5.875849,5.875849 v 29.39349 a 5.8758489,5.8758489 135 0 1 -5.875849,5.875849 H 9.9538785 A 5.8758489,5.8758489 45 0 1 4.0780296,46.696745 v -29.39349 a 5.8758489,5.8758489 135 0 1 5.8758489,-5.875849 z"
       inkscape:path-effect="#path-effect9-4"
       inkscape:original-d="M 4.0780296,11.427406 H 59.92197 V 52.572594 H 4.0780296 Z"
       transform="matrix(0.57767601,0,0,0.59210432,26.984015,23.847945)" />
    <path
       id="rect8-2"
       style="mix-blend-mode:normal;fill:none;fill-opacity:1;stroke:#000000;stroke-width:0.213131;stroke-dasharray:none;stroke-opacity:1;filter:url(#filter1-1)"
       d="M 9.9538785,11.427406 H 54.046121 a 5.8758489,5.8758489 45 0 1 5.875849,5.875849 v 29.39349 a 5.8758489,5.8758489 135 0 1 -5.875849,5.875849 H 9.9538785 A 5.8758489,5.8758489 45 0 1 4.0780296,46.696745 v -29.39349 a 5.8758489,5.8758489 135 0 1 5.8758489,-5.875849 z"
       transform="matrix(0.57767601,0,0,0.59210432,26.906203,23.865889)"
       inkscape:original-d="M 4.0780296,11.427406 H 59.92197 V 52.572594 H 4.0780296 Z"
       inkscape:path-effect="#path-effect9-1-9" />
  </g>
</svg>
