<?xml version="1.0" encoding="UTF-8" standalone="no"?>
<svg
   width="64"
   height="64"
   version="1"
   id="svg19"
   sodipodi:docname="preferences-desktop-keyboard-shortcuts.svg"
   inkscape:version="1.4.3 (0d15f75042, 2025-12-25)"
   xmlns:inkscape="http://www.inkscape.org/namespaces/inkscape"
   xmlns:sodipodi="http://sodipodi.sourceforge.net/DTD/sodipodi-0.dtd"
   xmlns:xlink="http://www.w3.org/1999/xlink"
   xmlns="http://www.w3.org/2000/svg"
   xmlns:svg="http://www.w3.org/2000/svg">
  <defs
     id="defs19">
    <radialGradient
       id="radialGradient3"
       cx="-159.43106"
       cy="15.462561"
       r="64.706802"
       gradientTransform="matrix(-0.89413329,0,0,0.96304834,-70.017818,-8.6185067)"
       gradientUnits="userSpaceOnUse"
       fx="-159.43106"
       fy="15.462561">
      <stop
         offset="0"
         style="stop-color:#7b7b7b;stop-opacity:1;"
         id="stop2" />
      <stop
         offset="1"
         style="stop-color:#3c3c3c;stop-opacity:1;"
         id="stop3" />
    </radialGradient>
    <radialGradient
       inkscape:collect="always"
       xlink:href="#SVGID_1_-3-2"
       id="radialGradient4"
       cx="39.737198"
       cy="79.795517"
       fx="39.737198"
       fy="79.795517"
       r="8.6673479"
       gradientTransform="matrix(1.4480847e-8,-7.189716,7.0455288,1.7979644e-6,-500.37651,349.86889)"
       gradientUnits="userSpaceOnUse" />
    <radialGradient
       id="SVGID_1_-3-2"
       cx="-159.43106"
       cy="15.462561"
       r="64.706802"
       gradientTransform="matrix(-0.89413329,0,0,0.96304834,-70.017818,-8.6185067)"
       gradientUnits="userSpaceOnUse"
       fx="-159.43106"
       fy="15.462561">
      <stop
         offset="0"
         style="stop-color:#006fff;stop-opacity:1;"
         id="stop1-6-9" />
      <stop
         offset="1"
         style="stop-color:#15baff;stop-opacity:1;"
         id="stop2-7-1" />
    </radialGradient>
    <radialGradient
       id="SVGID_1_-3-2-4"
       cx="-159.43106"
       cy="15.462561"
       r="64.706802"
       gradientTransform="matrix(-0.89413329,0,0,0.96304834,-70.017818,-8.6185067)"
       gradientUnits="userSpaceOnUse"
       fx="-159.43106"
       fy="15.462561">
      <stop
         offset="0"
         style="stop-color:#006fff;stop-opacity:1;"
         id="stop1-6-9-5" />
      <stop
         offset="1"
         style="stop-color:#15baff;stop-opacity:1;"
         id="stop2-7-1-0" />
    </radialGradient>
    <radialGradient
       inkscape:collect="always"
       xlink:href="#radialGradient3-3"
       id="radialGradient9"
       cx="95.770752"
       cy="-0.078366101"
       fx="95.770752"
       fy="-0.078367054"
       r="28"
       gradientUnits="userSpaceOnUse"
       gradientTransform="matrix(0,-3.1135456,3.0511044,0,64.28817,362.30592)" />
    <radialGradient
       id="radialGradient3-3"
       cx="-159.43106"
       cy="15.462561"
       r="64.706802"
       gradientTransform="matrix(-0.89413329,0,0,0.96304834,-70.017818,-8.6185067)"
       gradientUnits="userSpaceOnUse"
       fx="-159.43106"
       fy="15.462561">
      <stop
         offset="0"
         style="stop-color:#7b7b7b;stop-opacity:1;"
         id="stop2-6" />
      <stop
         offset="1"
         style="stop-color:#3c3c3c;stop-opacity:1;"
         id="stop3-7" />
    </radialGradient>
    <filter
       inkscape:collect="always"
       style="color-interpolation-filters:sRGB"
       id="filter12"
       x="-0.069069561"
       y="-0.091062442"
       width="1.1381391"
       height="1.1821249">
      <feGaussianBlur
         inkscape:collect="always"
         stdDeviation="1.5491233"
         id="feGaussianBlur12" />
    </filter>
    <filter
       inkscape:collect="always"
       style="color-interpolation-filters:sRGB"
       id="filter11"
       x="-0.08790673"
       y="-0.12691943"
       width="1.1758135"
       height="1.2538389">
      <feGaussianBlur
         inkscape:collect="always"
         stdDeviation="1.5491233"
         id="feGaussianBlur11" />
    </filter>
  </defs>
  <sodipodi:namedview
     id="namedview19"
     pagecolor="#ffffff"
     bordercolor="#000000"
     borderopacity="0.25"
     inkscape:showpageshadow="2"
     inkscape:pageopacity="0.0"
     inkscape:pagecheckerboard="0"
     inkscape:deskcolor="#d1d1d1"
     inkscape:zoom="9.5441668"
     inkscape:cx="31.22326"
     inkscape:cy="17.602375"
     inkscape:window-width="1920"
     inkscape:window-height="1018"
     inkscape:window-x="0"
     inkscape:window-y="0"
     inkscape:window-maximized="1"
     inkscape:current-layer="svg19" />
  <g
     id="g5">
    <path
       id="path2-36"
       style="fill:url(#radialGradient9)"
       d="m 20.800777,10.762398 c -9.30719,0 -16.8007812,7.49359 -16.8007812,16.800781 v 5.436517 3.437126 c 0,9.307189 7.4935912,16.800781 16.8007812,16.800781 h 22.398436 c 9.30719,0 16.80079,-7.493592 16.80079,-16.800781 v -3.437126 -5.436518 c 0,-9.30719 -7.4936,-16.80078 -16.80079,-16.80078 z"
       sodipodi:nodetypes="sscsssscsss" />
    <path
       d="m 18.490234,21.640625 c -0.706114,0 -1.27539,0.56928 -1.27539,1.275391 v 2.548828 c 0,0.706112 0.569276,1.273437 1.27539,1.273437 h 2.548828 c 0.706113,0 1.273438,-0.567325 1.273438,-1.273437 v -2.548828 c 0,-0.706111 -0.567325,-1.275391 -1.273438,-1.275391 z m 8.158203,0 c -0.706112,0 -1.277343,0.56928 -1.277343,1.275391 v 2.548828 c 0,0.706112 0.571231,1.273437 1.277343,1.273437 h 2.548829 c 0.706112,0 1.273437,-0.567325 1.273437,-1.273437 v -2.548828 c 0,-0.706111 -0.567324,-1.275391 -1.273437,-1.275391 z m 8.154297,0 c -0.706112,0 -1.273437,0.56928 -1.273437,1.275391 v 2.548828 c 0,0.706112 0.567325,1.273437 1.273437,1.273437 h 2.548828 c 0.706114,0 1.275391,-0.567325 1.275391,-1.273437 v -2.548828 c 0,-0.706111 -0.569277,-1.275391 -1.275391,-1.275391 z m 7.958985,0.05664 c -0.706111,0 -1.275391,0.569279 -1.275391,1.27539 v 2.548828 c 0,0.706112 0.56928,1.273438 1.275391,1.273438 h 2.548828 c 0.706116,0 1.27539,-0.567326 1.27539,-1.273438 v -2.548828 c 10e-7,-0.706112 -0.569275,-1.27539 -1.27539,-1.27539 z m -20.19336,8.005859 c -0.706113,0 -1.27539,0.569277 -1.27539,1.275391 v 2.548828 c 0,0.706114 0.569277,1.273437 1.27539,1.273437 h 2.548828 c 0.706114,0 1.275391,-0.567323 1.275391,-1.273437 v -2.548828 c 0,-0.706114 -0.569277,-1.275391 -1.275391,-1.275391 z m 16.314453,0 c -0.706114,0 -1.27539,0.569277 -1.27539,1.275391 v 2.548828 c 0,0.706114 0.569276,1.273437 1.27539,1.273437 h 2.548829 c 0.706111,0 1.27539,-0.567323 1.27539,-1.273437 v -2.548828 c 0,-0.706114 -0.569279,-1.275391 -1.27539,-1.275391 z m -8.355468,0.05469 c -0.706114,0 -1.275391,0.569277 -1.275391,1.275391 v 2.548828 c 0,0.706114 0.569277,1.273438 1.275391,1.273438 h 2.546875 c 0.706112,0 1.27539,-0.567324 1.27539,-1.273438 v -2.548828 c 0,-0.706114 -0.569278,-1.275391 -1.27539,-1.275391 z m -14.087891,8.097657 c -0.615518,0 -1.109375,0.500994 -1.109375,1.125 v 2.251953 c 0,0.624006 0.493857,1.126953 1.109375,1.126953 h 31.121094 c 0.615518,0 1.109375,-0.502947 1.109375,-1.126953 v -2.251953 c 0,-0.624006 -0.493857,-1.125 -1.109375,-1.125 z"
       style="baseline-shift:baseline;display:inline;overflow:visible;opacity:0.549272;vector-effect:none;fill:#ffffff;stroke-miterlimit:7.4;enable-background:accumulate;stop-color:#000000;stop-opacity:1"
       id="path5" />
    <path
       d=""
       style="baseline-shift:baseline;display:inline;overflow:visible;vector-effect:none;fill:#0020ff;stroke-miterlimit:7.4;enable-background:accumulate;stop-color:#000000;stop-opacity:1"
       id="path4" />
    <path
       d="m 21,16.761719 c -6.189135,0 -11,4.810865 -11,11 v 8.476562 c 0,6.189134 4.810865,11 11,11 h 22 c 6.18914,0 11,-4.810866 11,-11 v -8.476562 c 0,-6.189135 -4.81086,-11 -11,-11 z m -2.509766,4.878906 h 2.548828 c 0.706113,0 1.273438,0.56928 1.273438,1.275391 v 2.548828 c 0,0.706112 -0.567325,1.273437 -1.273438,1.273437 h -2.548828 c -0.706114,0 -1.27539,-0.567325 -1.27539,-1.273437 v -2.548828 c 0,-0.706111 0.569276,-1.275391 1.27539,-1.275391 z m 8.158203,0 h 2.548829 c 0.706113,0 1.273437,0.56928 1.273437,1.275391 v 2.548828 c 0,0.706112 -0.567325,1.273437 -1.273437,1.273437 h -2.548829 c -0.706112,0 -1.277343,-0.567325 -1.277343,-1.273437 v -2.548828 c 0,-0.706111 0.571231,-1.275391 1.277343,-1.275391 z m 8.154297,0 h 2.548828 c 0.706114,0 1.275391,0.56928 1.275391,1.275391 v 2.548828 c 0,0.706112 -0.569277,1.273437 -1.275391,1.273437 h -2.548828 c -0.706112,0 -1.273437,-0.567325 -1.273437,-1.273437 v -2.548828 c 0,-0.706111 0.567325,-1.275391 1.273437,-1.275391 z m 7.958985,0.05664 h 2.548828 c 0.706115,0 1.275391,0.569278 1.27539,1.27539 v 2.548828 c 0,0.706112 -0.569274,1.273438 -1.27539,1.273438 h -2.548828 c -0.706111,0 -1.275391,-0.567326 -1.275391,-1.273438 v -2.548828 c 0,-0.706111 0.56928,-1.27539 1.275391,-1.27539 z m -20.19336,8.005859 h 2.548828 c 0.706114,0 1.275391,0.569277 1.275391,1.275391 v 2.548828 c 0,0.706114 -0.569277,1.273437 -1.275391,1.273437 h -2.548828 c -0.706113,0 -1.27539,-0.567323 -1.27539,-1.273437 v -2.548828 c 0,-0.706114 0.569277,-1.275391 1.27539,-1.275391 z m 16.314453,0 h 2.548829 c 0.706111,0 1.27539,0.569277 1.27539,1.275391 v 2.548828 c 0,0.706114 -0.569279,1.273437 -1.27539,1.273437 h -2.548829 c -0.706114,0 -1.27539,-0.567323 -1.27539,-1.273437 v -2.548828 c 0,-0.706114 0.569276,-1.275391 1.27539,-1.275391 z m -8.355468,0.05469 h 2.546875 c 0.706112,0 1.27539,0.569277 1.27539,1.275391 v 2.548828 c 0,0.706114 -0.569278,1.273438 -1.27539,1.273438 h -2.546875 c -0.706114,0 -1.275391,-0.567324 -1.275391,-1.273438 v -2.548828 c 0,-0.706114 0.569277,-1.275391 1.275391,-1.275391 z m -14.087891,8.097657 h 31.121094 c 0.615518,0 1.109375,0.500994 1.109375,1.125 v 2.251953 c 0,0.624006 -0.493857,1.126953 -1.109375,1.126953 H 16.439453 c -0.615518,0 -1.109375,-0.502947 -1.109375,-1.126953 v -2.251953 c 0,-0.624006 0.493857,-1.125 1.109375,-1.125 z"
       style="opacity:0.593567;fill:#151515"
       id="path3" />
    <path
       id="path2-3"
       style="fill:none;stroke:#000000;stroke-width:0.3;stroke-dasharray:none;stroke-opacity:1;filter:url(#filter12)"
       d="m 20.800777,10.762398 c -9.30719,0 -16.8007812,7.49359 -16.8007812,16.80078 v 5.436518 3.437126 c 0,9.307189 7.4935912,16.800781 16.8007812,16.800781 h 22.398436 c 9.30719,0 16.80079,-7.493592 16.80079,-16.800781 v -3.437126 -5.436518 c 0,-9.30719 -7.4936,-16.80078 -16.80079,-16.80078 z"
       sodipodi:nodetypes="sscsssscsss" />
    <path
       style="fill:none;stroke:#000000;stroke-width:0.3;stroke-dasharray:none;stroke-opacity:1;filter:url(#filter11)"
       d="m 20.999996,16.762397 h 21.999997 c 6.18914,0 11,4.810866 11,11.000001 v 8.475205 c 0,6.189134 -4.81086,11 -11,11 H 20.999996 c -6.189135,0 -11.0000002,-4.810866 -11.0000002,-11 v -8.475205 c 0,-6.189135 4.8108652,-11.000001 11.0000002,-11.000001 z"
       id="path5-5"
       sodipodi:nodetypes="sssssssss" />
  </g>
  <path
     d="m 42.761015,21.696278 c -0.706111,0 -1.273677,0.569432 -1.273677,1.275543 v 2.54922 c 0,0.706112 0.567566,1.273676 1.273677,1.273676 h 2.549219 c 0.706116,0 1.275545,-0.567564 1.275545,-1.273676 v -2.54922 c 0,-0.706112 -0.56943,-1.275543 -1.275545,-1.275543 z m -12.234387,8.060389 c -0.706114,0 -1.275544,0.569432 -1.275544,1.275546 v 2.549218 c 0,0.706114 0.56943,1.273677 1.275544,1.273677 h 2.547352 c 0.706112,0 1.275544,-0.567563 1.275544,-1.273677 v -2.549218 c 0,-0.706114 -0.569432,-1.275546 -1.275544,-1.275546 z"
     style="opacity:0.95301;fill:url(#radialGradient4);fill-opacity:1;stroke-width:0.901094"
     id="path1" />
</svg>
