<?xml version="1.0" encoding="UTF-8" standalone="no"?>
<svg
   width="64"
   height="64"
   version="1.1"
   id="svg6"
   sodipodi:docname="proton-vpn-logo.svg"
   inkscape:version="1.4.3 (0d15f75042, 2025-12-25)"
   xmlns:inkscape="http://www.inkscape.org/namespaces/inkscape"
   xmlns:sodipodi="http://sodipodi.sourceforge.net/DTD/sodipodi-0.dtd"
   xmlns:xlink="http://www.w3.org/1999/xlink"
   xmlns="http://www.w3.org/2000/svg"
   xmlns:svg="http://www.w3.org/2000/svg">
  <defs
     id="defs6">
    <inkscape:path-effect
       effect="fillet_chamfer"
       id="path-effect8"
       is_visible="true"
       lpeversion="1"
       nodesatellites_param="F,0,0,1,0,1.8555456,0,1 @ F,0,0,1,0,0,0,1 @ F,0,1,1,0,0,0,1"
       radius="0"
       unit="px"
       method="auto"
       mode="F"
       chamfer_steps="1"
       flexible="false"
       use_knot_distance="true"
       apply_no_radius="true"
       apply_with_radius="true"
       only_selected="false"
       hide_knots="false" />
    <radialGradient
       inkscape:collect="always"
       xlink:href="#linearGradient6"
       id="radialGradient7"
       cx="18.530493"
       cy="62.700176"
       fx="18.530493"
       fy="62.700176"
       r="18.94824"
       gradientTransform="matrix(1.2030539,-2.0837505,2.1606775,1.2474677,-109.46806,20.256804)"
       gradientUnits="userSpaceOnUse" />
    <linearGradient
       id="linearGradient6"
       inkscape:collect="always">
      <stop
         style="stop-color:#d990e7;stop-opacity:1;"
         offset="0"
         id="stop6" />
      <stop
         style="stop-color:#81d5fe;stop-opacity:1;"
         offset="1"
         id="stop7" />
    </linearGradient>
    <filter
       inkscape:collect="always"
       style="color-interpolation-filters:sRGB"
       id="filter11"
       x="-0.14758172"
       y="-0.15530748"
       width="1.2951744"
       height="1.3106178">
      <feGaussianBlur
         inkscape:collect="always"
         stdDeviation="2.9944467"
         id="feGaussianBlur11" />
    </filter>
  </defs>
  <sodipodi:namedview
     id="namedview6"
     pagecolor="#ffffff"
     bordercolor="#000000"
     borderopacity="0.25"
     inkscape:showpageshadow="2"
     inkscape:pageopacity="0.0"
     inkscape:pagecheckerboard="0"
     inkscape:deskcolor="#d1d1d1"
     inkscape:zoom="6.1951907"
     inkscape:cx="-22.275343"
     inkscape:cy="43.017239"
     inkscape:current-layer="svg6" />
  <g
     id="g9">
    <path
       style="fill:url(#radialGradient7);stroke-width:1.22196"
       d="M 14.807275,9.1728279 C 9.1630883,11.146529 5.7915108,17.640346 7.9920816,23.529699 l 9.3150904,24.937534 0.0017,0.0045 c 2.928684,7.821209 13.728161,9.33715 18.952907,3.220748 l 8.901808,-10.428148 8.901537,-10.435688 0.0037,-0.0039 c 2.606634,-3.060868 3.28217,-7.493757 1.960283,-11.032596 -1.321888,-3.538839 -4.738186,-6.443276 -8.713181,-7.045662 l -0.0053,-5.69e-4 L 33.74816,10.703783 20.205563,8.6670941 20.192673,8.6668178 c -1.812228,-0.273069 -3.642659,-0.097776 -5.354075,0.494259 z"
       id="path5"
       sodipodi:nodetypes="cccsccccsccccccc" />
    <path
       id="path5-3"
       style="fill:#3974ff;stroke-width:1.22196;fill-opacity:1;opacity:0.49831014"
       d="M 7.7851562 16.599609 C 7.123816 18.794407 7.1250845 21.208683 7.9921875 23.529297 L 17.306641 48.466797 L 17.308594 48.472656 C 18.281315 51.070361 20.123236 52.970947 22.339844 54.128906 L 46.107422 25.314453 A 1.5051183 1.5051183 0 0 0 45.195312 22.871094 L 7.7851562 16.599609 z " />
  </g>
  <g
     id="g9-1"
     transform="translate(-2.7108241e-4,-6.7329536e-5)"
     style="fill:none;stroke:#000000;stroke-width:0.2;stroke-dasharray:none;stroke-opacity:1;filter:url(#filter11)">
    <path
       style="fill:none;stroke:#000000;stroke-width:0.2;stroke-dasharray:none;stroke-opacity:1"
       d="M 14.807275,9.1728279 C 9.1630883,11.146529 5.7915108,17.640346 7.9920816,23.529699 l 9.3150904,24.937534 0.0017,0.0045 c 2.928684,7.821209 13.728161,9.33715 18.952907,3.220748 l 8.901808,-10.428148 8.901537,-10.435688 0.0037,-0.0039 c 2.606634,-3.060868 3.28217,-7.493757 1.960283,-11.032596 -1.321888,-3.538839 -4.738186,-6.443276 -8.713181,-7.045662 l -0.0053,-5.69e-4 L 33.74816,10.703783 20.205563,8.6670941 20.192673,8.6668178 c -1.812228,-0.273069 -3.642659,-0.097776 -5.354075,0.494259 z"
       id="path5-2"
       sodipodi:nodetypes="cccsccccsccccccc" />
    <path
       id="path5-3-7"
       style="opacity:1;fill:none;fill-opacity:1;stroke:#000000;stroke-width:0.2;stroke-dasharray:none;stroke-opacity:1"
       d="m 7.7851562,16.599609 c -0.6613402,2.194798 -0.6600717,4.609074 0.2070313,6.929688 l 9.3144535,24.9375 0.002,0.0059 c 0.972721,2.597705 2.814642,4.498291 5.03125,5.65625 L 46.107422,25.314453 a 1.5051183,1.5051183 0 0 0 -0.91211,-2.443359 z" />
  </g>
</svg>
