<?xml version="1.0" encoding="UTF-8" standalone="no"?>
<svg
   width="64"
   height="64"
   version="1.1"
   id="svg12"
   sodipodi:docname="tic80.svg"
   inkscape:version="1.4.3 (0d15f75042, 2025-12-25)"
   xmlns:inkscape="http://www.inkscape.org/namespaces/inkscape"
   xmlns:sodipodi="http://sodipodi.sourceforge.net/DTD/sodipodi-0.dtd"
   xmlns:xlink="http://www.w3.org/1999/xlink"
   xmlns="http://www.w3.org/2000/svg"
   xmlns:svg="http://www.w3.org/2000/svg">
  <defs
     id="defs12">
    <radialGradient
       id="radialGradient26"
       cx="-159.43106"
       cy="15.462561"
       r="64.706802"
       gradientTransform="matrix(-0.89413329,0,0,0.96304834,-135.80678,48.819533)"
       gradientUnits="userSpaceOnUse"
       fx="-159.43106"
       fy="15.462561">
	<stop
   offset="0"
   style="stop-color:#006fff;stop-opacity:1;"
   id="stop25" />

	<stop
   offset="1"
   style="stop-color:#004e6f;stop-opacity:1;"
   id="stop26" />

</radialGradient>
    <inkscape:path-effect
       effect="fillet_chamfer"
       id="path-effect19"
       is_visible="true"
       lpeversion="1"
       nodesatellites_param="F,0,0,1,0,2.4675166,0,1 @ F,0,0,1,0,2.4675166,0,1 @ F,0,0,1,0,3.7471287,0,1 @ F,0,0,1,0,3.7471287,0,1 @ F,0,0,1,0,2.4755744,0,1 @ F,0,0,1,0,2.4755744,0,1 @ F,0,1,1,0,1.7604395,0,1 @ F,0,0,1,0,1.7604395,0,1"
       radius="0"
       unit="px"
       method="auto"
       mode="F"
       chamfer_steps="1"
       flexible="false"
       use_knot_distance="true"
       apply_no_radius="true"
       apply_with_radius="true"
       only_selected="false"
       hide_knots="false" />
    <inkscape:path-effect
       effect="fillet_chamfer"
       id="path-effect17"
       is_visible="true"
       lpeversion="1"
       nodesatellites_param="F,0,1,1,0,2.9854666,0,1 @ F,0,1,1,0,2.9854666,0,1 @ F,0,1,1,0,2.9854666,0,1 @ F,0,1,1,0,2.9854666,0,1 | F,0,1,1,0,2.9854666,0,1 @ F,0,1,1,0,2.9854666,0,1 @ F,0,1,1,0,2.9854666,0,1 @ F,0,0,1,0,2.9854666,0,1"
       radius="0"
       unit="px"
       method="auto"
       mode="F"
       chamfer_steps="1"
       flexible="false"
       use_knot_distance="true"
       apply_no_radius="true"
       apply_with_radius="true"
       only_selected="false"
       hide_knots="false" />
    <radialGradient
       id="SVGID_1_-3-2"
       cx="-159.43106"
       cy="15.462561"
       r="64.706802"
       gradientTransform="matrix(-0.89413329,0,0,0.96304834,-135.80678,48.819533)"
       gradientUnits="userSpaceOnUse"
       fx="-159.43106"
       fy="15.462561">
	<stop
   offset="0"
   style="stop-color:#006fff;stop-opacity:1;"
   id="stop1-6-9" />

	<stop
   offset="1"
   style="stop-color:#15baff;stop-opacity:1;"
   id="stop2-7-1" />

</radialGradient>
    <radialGradient
       inkscape:collect="always"
       xlink:href="#SVGID_1_-3-2"
       id="radialGradient20"
       cx="62.388103"
       cy="62.461342"
       fx="62.3881"
       fy="62.461342"
       r="24.125517"
       gradientTransform="matrix(0,-2.6879122,2.6790792,0,-105.00363,228.0125)"
       gradientUnits="userSpaceOnUse" />
    <radialGradient
       inkscape:collect="always"
       xlink:href="#radialGradient26"
       id="radialGradient23"
       gradientUnits="userSpaceOnUse"
       gradientTransform="matrix(1.3801852,0,0,1.4915774,-10.40447,4.1841748)"
       cx="61.011158"
       cy="20.227339"
       fx="61.011158"
       fy="20.227339"
       r="25" />
    <filter
       inkscape:collect="always"
       style="color-interpolation-filters:sRGB"
       id="filter24"
       x="-0.15361679"
       y="-0.2500477"
       width="1.3072336"
       height="1.5000954">
      <feGaussianBlur
         inkscape:collect="always"
         stdDeviation="2.0955801"
         id="feGaussianBlur24" />
    </filter>
    <radialGradient
       inkscape:collect="always"
       xlink:href="#SVGID_1_-3-2"
       id="radialGradient29"
       gradientUnits="userSpaceOnUse"
       gradientTransform="matrix(3.8131416,0,0,1.5891713,-217.29694,-53.816097)"
       cx="65.780487"
       cy="59.129742"
       fx="65.780487"
       fy="59.129742"
       r="25" />
    <radialGradient
       inkscape:collect="always"
       xlink:href="#SVGID_1_-3-2"
       id="radialGradient30"
       gradientUnits="userSpaceOnUse"
       gradientTransform="matrix(-2.4017065e-7,-5.8427704,5.8235696,-2.3938151e-7,-480.09071,424.83816)"
       cx="62.388107"
       cy="93.143211"
       fx="62.388107"
       fy="93.143211"
       r="11.098721" />
    <radialGradient
       inkscape:collect="always"
       xlink:href="#SVGID_1_-3-2"
       id="radialGradient31"
       gradientUnits="userSpaceOnUse"
       gradientTransform="matrix(-2.4017065e-7,-5.8427704,5.8235696,-2.3938151e-7,-480.09071,424.83816)"
       cx="62.388107"
       cy="93.143211"
       fx="62.388107"
       fy="93.143211"
       r="11.098721" />
    <radialGradient
       id="SVGID_1_-3-2-1"
       cx="-159.43106"
       cy="15.462561"
       r="64.706802"
       gradientTransform="matrix(-0.89413329,0,0,0.96304834,-135.80678,48.819533)"
       gradientUnits="userSpaceOnUse"
       fx="-159.43106"
       fy="15.462561">
	<stop
   offset="0"
   style="stop-color:#006fff;stop-opacity:1;"
   id="stop1-6-9-2" />

	<stop
   offset="1"
   style="stop-color:#15baff;stop-opacity:1;"
   id="stop2-7-1-7" />

</radialGradient>
    <inkscape:path-effect
       effect="fillet_chamfer"
       id="path-effect17-0"
       is_visible="true"
       lpeversion="1"
       nodesatellites_param="F,0,1,1,0,2.9854666,0,1 @ F,0,1,1,0,2.9854666,0,1 @ F,0,1,1,0,2.9854666,0,1 @ F,0,1,1,0,2.9854666,0,1 | F,0,1,1,0,2.9854666,0,1 @ F,0,1,1,0,2.9854666,0,1 @ F,0,1,1,0,2.9854666,0,1 @ F,0,0,1,0,2.9854666,0,1"
       radius="0"
       unit="px"
       method="auto"
       mode="F"
       chamfer_steps="1"
       flexible="false"
       use_knot_distance="true"
       apply_no_radius="true"
       apply_with_radius="true"
       only_selected="false"
       hide_knots="false" />
    <radialGradient
       id="radialGradient2"
       cx="-159.43106"
       cy="15.462561"
       r="64.706802"
       gradientTransform="matrix(-0.89413329,0,0,0.96304834,-135.80678,48.819533)"
       gradientUnits="userSpaceOnUse"
       fx="-159.43106"
       fy="15.462561">
	<stop
   offset="0"
   style="stop-color:#006fff;stop-opacity:1;"
   id="stop1" />

	<stop
   offset="1"
   style="stop-color:#15baff;stop-opacity:1;"
   id="stop2" />

</radialGradient>
    <inkscape:path-effect
       effect="fillet_chamfer"
       id="path-effect19-0"
       is_visible="true"
       lpeversion="1"
       nodesatellites_param="F,0,0,1,0,2.4675166,0,1 @ F,0,0,1,0,2.4675166,0,1 @ F,0,0,1,0,3.7471287,0,1 @ F,0,0,1,0,3.7471287,0,1 @ F,0,0,1,0,2.4755744,0,1 @ F,0,0,1,0,2.4755744,0,1 @ F,0,1,1,0,1.7604395,0,1 @ F,0,0,1,0,1.7604395,0,1"
       radius="0"
       unit="px"
       method="auto"
       mode="F"
       chamfer_steps="1"
       flexible="false"
       use_knot_distance="true"
       apply_no_radius="true"
       apply_with_radius="true"
       only_selected="false"
       hide_knots="false" />
    <radialGradient
       id="radialGradient4"
       cx="-159.43106"
       cy="15.462561"
       r="64.706802"
       gradientTransform="matrix(-0.89413329,0,0,0.96304834,-135.80678,48.819533)"
       gradientUnits="userSpaceOnUse"
       fx="-159.43106"
       fy="15.462561">
	<stop
   offset="0"
   style="stop-color:#006fff;stop-opacity:1;"
   id="stop3" />

	<stop
   offset="1"
   style="stop-color:#15baff;stop-opacity:1;"
   id="stop4" />

</radialGradient>
    <radialGradient
       id="radialGradient6"
       cx="-159.43106"
       cy="15.462561"
       r="64.706802"
       gradientTransform="matrix(-0.89413329,0,0,0.96304834,-135.80678,48.819533)"
       gradientUnits="userSpaceOnUse"
       fx="-159.43106"
       fy="15.462561">
	<stop
   offset="0"
   style="stop-color:#006fff;stop-opacity:1;"
   id="stop5" />

	<stop
   offset="1"
   style="stop-color:#15baff;stop-opacity:1;"
   id="stop6" />

</radialGradient>
    <radialGradient
       id="radialGradient26-1"
       cx="-159.43106"
       cy="15.462561"
       r="64.706802"
       gradientTransform="matrix(-0.89413329,0,0,0.96304834,-135.80678,48.819533)"
       gradientUnits="userSpaceOnUse"
       fx="-159.43106"
       fy="15.462561">
	<stop
   offset="0"
   style="stop-color:#006fff;stop-opacity:1;"
   id="stop25-8" />

	<stop
   offset="1"
   style="stop-color:#004e6f;stop-opacity:1;"
   id="stop26-7" />

</radialGradient>
    <filter
       inkscape:collect="always"
       style="color-interpolation-filters:sRGB"
       id="filter37"
       x="-0.086818384"
       y="-0.091172368"
       width="1.1736368"
       height="1.1823447">
      <feGaussianBlur
         inkscape:collect="always"
         stdDeviation="1.9304701"
         id="feGaussianBlur37" />
    </filter>
  </defs>
  <sodipodi:namedview
     id="namedview12"
     pagecolor="#555555"
     bordercolor="#000000"
     borderopacity="0.25"
     inkscape:showpageshadow="2"
     inkscape:pageopacity="0.0"
     inkscape:pagecheckerboard="0"
     inkscape:deskcolor="#d1d1d1"
     inkscape:zoom="11.521331"
     inkscape:cx="8.9833374"
     inkscape:cy="28.599127"
     inkscape:current-layer="svg12" />
  <g
     id="g36"
     transform="translate(-3.1329913)">
    <path
       d="M 60.115249,27.009304 A 2.2762495,2.2762495 0 0 0 57.839,29.285553 c 0,3.330069 -0.351254,5.243874 -0.755786,5.850673 -0.202266,0.3034 -0.359435,0.448622 -0.91287,0.640196 -0.553437,0.191573 -1.508609,0.33788 -2.883843,0.33788 a 2.2762495,2.2762495 0 0 0 -2.27625,2.276249 2.2762495,2.2762495 0 0 0 2.27625,2.27625 c 1.659765,0 3.075687,-0.138229 4.371703,-0.586846 1.296017,-0.448621 2.46666,-1.299259 3.212832,-2.418515 1.492342,-2.238512 1.520463,-4.877206 1.520463,-8.375887 a 2.2762495,2.2762495 0 0 0 -2.27625,-2.276249 z"
       style="fill:url(#radialGradient23);fill-opacity:1;stroke-width:0.75875"
       id="path6" />
    <path
       d="m 14,56.985467 v 0.02907 A 2.9854666,2.9854666 45 0 0 16.985467,60 h 8.029066 A 2.9854666,2.9854666 135 0 0 28,57.014533 v -0.02907 A 2.9854666,2.9854666 45 0 0 25.014533,54 H 16.985467 A 2.9854666,2.9854666 135 0 0 14,56.985467 Z m 22,0 v 0.02907 A 2.9854666,2.9854666 45 0 0 38.985467,60 h 8.029066 A 2.9854666,2.9854666 135 0 0 50,57.014533 v -0.02907 A 2.9854666,2.9854666 45 0 0 47.014533,54 H 38.985467 A 2.9854666,2.9854666 135 0 0 36,56.985467 Z"
       style="fill:url(#radialGradient29);fill-opacity:1"
       id="path2"
       inkscape:path-effect="#path-effect17"
       inkscape:original-d="m 14,54 v 6 h 14 v -6 z m 22,0 v 6 h 14 v -6 z"
       transform="translate(-0.05284977,-2.0429397)" />
    <rect
       style="fill:url(#radialGradient20);fill-opacity:1;stroke:none;stroke-width:0.2;stroke-linecap:round;stroke-linejoin:round;stroke-miterlimit:7.4"
       id="rect17"
       width="48.251034"
       height="48.092487"
       x="7.8744831"
       y="6.0429397"
       rx="9.8827419"
       ry="9.8827419" />
    <rect
       style="opacity:0.782181;fill:#ffffff;fill-opacity:1;stroke:none;stroke-width:0.2;stroke-linecap:round;stroke-linejoin:round;stroke-miterlimit:7.4"
       id="rect16"
       width="36.888523"
       height="24.151939"
       x="13.555738"
       y="12.014863"
       rx="4.1222143"
       ry="4.1222143" />
    <rect
       style="opacity:0.782181;fill:#ffffff;fill-opacity:1;stroke:none;stroke-width:0.171946;stroke-linecap:round;stroke-linejoin:round;stroke-miterlimit:7.4;filter:url(#filter24)"
       id="rect16-2"
       width="32.739861"
       height="20.113731"
       x="15.630071"
       y="14.033968"
       rx="3.6586099"
       ry="3.4329793" />
    <path
       style="opacity:0.317;fill:#000000;fill-opacity:1"
       d="m 21.808051,44.322008 -0.0104,0.0104 a 2.4675166,2.4675166 90 0 0 0,3.489596 l 0.105582,0.105582 a 9.0463689,9.0463689 22.5 0 0 6.396749,2.64962 h 7.505743 a 9.0463689,9.0463689 157.5 0 0 6.396749,-2.64962 l 0.09989,-0.09989 a 2.4755744,2.4755744 90 0 0 0,-3.50099 2.4748738,2.4748738 179.98378 0 0 -3.5,9.9e-4 l -0.0047,0.0047 A 4.2500769,4.2500769 157.5 0 1 35.792411,45.57721 H 28.313288 A 4.2500769,4.2500769 22.5 0 1 25.30803,44.332391 l -0.01038,-0.01038 a 2.4675166,2.4675166 0 0 0 -3.489596,0 z"
       id="path16"
       inkscape:path-effect="#path-effect19"
       inkscape:original-d="m 23.552849,42.57721 -3.5,3.5 4.5,4.5 H 39.55285 l 4.5,-4.5 -3.5,-3.5 -3,3 H 26.552849 Z"
       transform="translate(-0.05284977,-2.0429397)" />
    <rect
       style="fill:url(#radialGradient30);fill-opacity:1;stroke:none;stroke-width:0.2;stroke-linecap:round;stroke-linejoin:round;stroke-miterlimit:7.4"
       id="rect19"
       width="6.0776219"
       height="12.155244"
       x="20.848429"
       y="16.982658"
       rx="3.038811"
       ry="3.038811" />
    <rect
       style="fill:url(#radialGradient31);fill-opacity:1;stroke:none;stroke-width:0.2;stroke-linecap:round;stroke-linejoin:round;stroke-miterlimit:7.4"
       id="rect19-3"
       width="6.0776219"
       height="12.155244"
       x="36.96825"
       y="16.982658"
       rx="3.038811"
       ry="3.038811" />
  </g>
  <g
     id="g35"
     style="fill:none;stroke:#000000;stroke-width:0.2;stroke-dasharray:none;stroke-opacity:1;filter:url(#filter37)"
     transform="translate(65.676757,-3.6582045)">
    <path
       d="m -8.6933594,30.667969 a 2.2762495,2.2762495 0 0 0 -2.2773436,2.277343 c 0,3.33007 -0.351328,5.242811 -0.75586,5.84961 -0.202266,0.3034 -0.358674,0.449051 -0.912109,0.640625 -0.01469,0.0051 -0.02966,0.01061 -0.04492,0.01563 V 44.125 c 0.532908,-0.09043 1.041773,-0.21661 1.533203,-0.386719 1.2960177,-0.448621 2.466719,-1.298713 3.212891,-2.417969 1.492342,-2.238512 1.5195313,-4.876319 1.5195313,-8.375 a 2.2762495,2.2762495 0 0 0 -2.2753907,-2.277343 z"
       style="fill:none;stroke:#000000;stroke-width:0.2;stroke-dasharray:none;stroke-opacity:1"
       id="path35" />
    <path
       d="m -54.503906,57.179687 a 2.9854666,2.9854666 0 0 0 -0.359375,1.421875 v 0.0293 a 2.9854666,2.9854666 0 0 0 2.986328,2.984375 h 8.029297 a 2.9854666,2.9854666 0 0 0 2.984375,-2.984375 v -0.0293 a 2.9854666,2.9854666 0 0 0 -0.111328,-0.80664 h -10.078125 c -1.215047,0 -2.377764,-0.217575 -3.451172,-0.615235 z m 35.298828,0.0332 c -1.048298,0.376769 -2.180137,0.582031 -3.361328,0.582031 h -10.185547 a 2.9854666,2.9854666 0 0 0 -0.111328,0.80664 v 0.0293 a 2.9854666,2.9854666 0 0 0 2.986328,2.984375 h 8.029297 a 2.9854666,2.9854666 0 0 0 2.984375,-2.984375 v -0.0293 a 2.9854666,2.9854666 0 0 0 -0.341797,-1.388671 z"
       style="fill:none;stroke:#000000;stroke-width:0.2;stroke-dasharray:none;stroke-opacity:1"
       id="path34" />
    <path
       d="m -51.052734,9.7011719 c -5.475039,0 -9.882813,4.4077731 -9.882813,9.8828121 v 28.328125 c 0,5.475039 4.407774,9.882813 9.882813,9.882813 h 28.486328 c 5.475039,0 9.882812,-4.407774 9.882812,-9.882813 V 19.583984 c 0,-5.475039 -4.407773,-9.8828121 -9.882812,-9.8828121 z"
       style="fill:none;stroke:#000000;stroke-width:0.2;stroke-linecap:round;stroke-linejoin:round;stroke-miterlimit:7.4;stroke-dasharray:none;stroke-opacity:1"
       id="path33" />
  </g>
</svg>
