<?xml version="1.0" encoding="UTF-8" standalone="no"?>
<svg
   width="64"
   height="64"
   version="1"
   id="svg6"
   sodipodi:docname="tor-browser-nightly.svg"
   inkscape:version="1.4.2 (ebf0e940d0, 2025-05-08)"
   xmlns:inkscape="http://www.inkscape.org/namespaces/inkscape"
   xmlns:sodipodi="http://sodipodi.sourceforge.net/DTD/sodipodi-0.dtd"
   xmlns:xlink="http://www.w3.org/1999/xlink"
   xmlns="http://www.w3.org/2000/svg"
   xmlns:svg="http://www.w3.org/2000/svg">
  <defs
     id="defs6">
    <radialGradient
       inkscape:collect="always"
       xlink:href="#linearGradient10"
       id="radialGradient11"
       cx="12.545667"
       cy="81.334023"
       fx="12.545667"
       fy="81.334023"
       r="28"
       gradientUnits="userSpaceOnUse"
       gradientTransform="matrix(0,-2.2750677,2.2750677,0,-121.04542,92.472108)" />
    <linearGradient
       id="linearGradient10"
       inkscape:collect="always">
      <stop
         style="stop-color:#00034c;stop-opacity:1;"
         offset="0"
         id="stop10" />
      <stop
         style="stop-color:#0d4197;stop-opacity:1;"
         offset="1"
         id="stop11" />
    </linearGradient>
    <filter
       inkscape:collect="always"
       style="color-interpolation-filters:sRGB"
       id="filter1"
       x="-0.077140941"
       y="-0.077140941"
       width="1.1542819"
       height="1.1542819">
      <feGaussianBlur
         inkscape:collect="always"
         stdDeviation="1.5589047"
         id="feGaussianBlur1" />
    </filter>
    <filter
       inkscape:collect="always"
       style="color-interpolation-filters:sRGB"
       id="filter2"
       x="-0.075275281"
       y="-0.037778375"
       width="1.1505506"
       height="1.0755563">
      <feGaussianBlur
         inkscape:collect="always"
         stdDeviation="0.70452444"
         id="feGaussianBlur2" />
    </filter>
  </defs>
  <sodipodi:namedview
     id="namedview6"
     pagecolor="#505050"
     bordercolor="#eeeeee"
     borderopacity="1"
     inkscape:showpageshadow="0"
     inkscape:pageopacity="0"
     inkscape:pagecheckerboard="0"
     inkscape:deskcolor="#505050"
     inkscape:zoom="18.109375"
     inkscape:cx="32"
     inkscape:cy="31.97239"
     inkscape:current-layer="svg6" />
  <g
     id="g2"
     transform="translate(0.03774237,0.03774237)">
    <path
       id="circle2-3"
       style="fill:#ffffff;fill-opacity:1;stroke-width:0.955806"
       d="M 32,5.2374527 C 17.219454,5.2374527 5.2374527,17.219454 5.2374527,32 5.2374527,46.780546 17.219454,58.762548 32,58.762548 46.780546,58.762548 58.762548,46.780546 58.762548,32 58.762548,17.219454 46.780546,5.2374527 32,5.2374527 Z"
       sodipodi:nodetypes="sssss" />
    <path
       id="circle2"
       style="opacity:1;fill:url(#radialGradient11);stroke-width:0.991241"
       d="M 32,4.2444375 C 16.671479,4.2444373 4.2444373,16.671479 4.2444375,32 4.2444375,47.328521 16.671479,59.755562 32,59.755562 47.32852,59.755562 59.755562,47.32852 59.755562,32 59.755562,16.671479 47.328521,4.2444375 32,4.2444375 Z m 1.921253,4.0542814 c 0.07174,-0.0013 0.144712,-4.59e-5 0.218324,0.00655 C 46.255668,9.3908985 55.790794,19.607145 55.790794,32 c 0,12.392862 -9.535117,22.60911 -21.651217,23.694732 C 32.961797,55.800263 32,54.831936 32,53.649034 32,52.512752 32.961872,51.603446 34.137394,51.476707 43.971033,50.416491 51.590236,42.122249 51.590236,32 51.590236,21.877747 43.97104,13.583502 34.137394,12.523293 32.961881,12.396556 32,11.450907 32,10.268004 32,9.2027392 32.845183,8.3182315 33.921253,8.2987189 Z m -0.0022,7.9688351 c 0.0714,0.0013 0.142936,0.0054 0.216141,0.01528 7.730423,1.048668 13.723863,7.707606 13.723863,15.717163 0,8.009562 -5.993394,14.6685 -13.723863,15.717163 C 32.96394,47.876049 32,46.900216 32,45.717313 v -0.04148 c 0,-1.182903 0.969262,-2.121382 2.130845,-2.336069 4.679497,-0.86488 8.34404,-4.529419 9.208917,-9.208917 0.214685,-1.161579 0.214687,-3.100107 0,-4.26169 C 42.474882,25.18966 38.810343,21.525117 34.130845,20.66024 32.969266,20.445554 32,19.507072 32,18.324169 v -0.04148 c 0,-1.108971 0.848047,-2.034704 1.91907,-2.015133 z m -0.220508,8.029966 c 0.135573,7.4e-4 0.274906,0.0197 0.417,0.05895 3.352189,0.92593 5.813975,3.996818 5.813975,7.643533 0,3.646717 -2.461782,6.717605 -5.813975,7.643533 C 32.978775,39.95752 32,38.970679 32,37.787776 V 26.212224 c 0,-1.03504 0.749559,-1.91988 1.698562,-1.914704 z" />
    <path
       id="circle2-4"
       style="mix-blend-mode:normal;fill:none;stroke:#000000;stroke-width:0.17892;stroke-dasharray:none;stroke-opacity:1;filter:url(#filter1)"
       d="M 32,7.169922 C 18.287132,7.1699218 7.169922,18.287132 7.169922,32 7.169922,45.712868 18.287132,56.830078 32,56.830078 45.712867,56.830078 56.830078,45.712867 56.830078,32 56.830078,18.287132 45.712868,7.169922 32,7.169922 Z"
       sodipodi:nodetypes="sssss"
       transform="matrix(1.1178202,0,0,1.1178202,-3.7702459,-3.7702459)" />
    <path
       d="m 33.920161,8.2983008 c 0.07174,-0.00134 0.144712,-4.58e-5 0.218324,0.0066 12.116091,1.0855845 21.651217,11.3018302 21.651217,23.6946862 0,12.392862 -9.535117,22.60911 -21.651217,23.694732 -1.17778,0.105533 -2.139577,-0.862796 -2.139577,-2.045698 0,-1.136282 0.961872,-2.045588 2.137394,-2.172327 9.83364,-1.060216 17.452842,-9.354459 17.452842,-19.476707 0,-10.122253 -7.619196,-18.416498 -17.452842,-19.476707 -1.175512,-0.126737 -2.137394,-1.072386 -2.137394,-2.255289 0,-1.065265 0.845183,-1.9497726 1.921253,-1.9692853 z m -0.0022,7.9688352 c 0.07141,0.0013 0.142935,0.0054 0.21614,0.01528 7.730476,1.048671 13.723916,7.707609 13.723916,15.717166 0,8.009562 -5.993394,14.6685 -13.723863,15.717163 -1.171271,0.158886 -2.135211,-0.816948 -2.135211,-1.999851 v -0.04148 c 0,-1.182903 0.969262,-2.121382 2.130845,-2.33607 4.679497,-0.864879 8.344041,-4.529418 9.208916,-9.208916 0.214686,-1.161579 0.214688,-3.100107 0,-4.26169 -0.864878,-4.679497 -4.529418,-8.34404 -9.208916,-9.208917 -1.161579,-0.214683 -2.130845,-1.153165 -2.130845,-2.336068 v -0.04148 c 0,-1.108971 0.848046,-2.034704 1.91907,-2.015133 z m -0.220508,8.029966 c 0.135572,7.4e-4 0.274905,0.0197 0.416999,0.05894 3.35219,0.925929 5.813975,3.996817 5.813975,7.643532 0,3.646718 -2.461782,6.717606 -5.813975,7.643533 -1.136733,0.313992 -2.115509,-0.672849 -2.115509,-1.855752 V 26.211806 c 0,-1.03504 0.74956,-1.91988 1.698562,-1.914704 z"
       style="opacity:1;fill:none;stroke:#002cff;stroke-width:0.2;stroke-dasharray:none;stroke-opacity:1;filter:url(#filter2)"
       id="path1" />
  </g>
</svg>
