<?xml version="1.0" encoding="UTF-8" standalone="no"?>
<svg
   width="64"
   height="64"
   version="1"
   id="svg4"
   sodipodi:docname="vmware-player.svg"
   inkscape:version="1.4.2 (ebf0e940d0, 2025-05-08)"
   xmlns:inkscape="http://www.inkscape.org/namespaces/inkscape"
   xmlns:sodipodi="http://sodipodi.sourceforge.net/DTD/sodipodi-0.dtd"
   xmlns:xlink="http://www.w3.org/1999/xlink"
   xmlns="http://www.w3.org/2000/svg"
   xmlns:svg="http://www.w3.org/2000/svg">
  <defs
     id="defs4">
    <linearGradient
       id="linearGradient4"
       inkscape:collect="always">
      <stop
         style="stop-color:#ff6937;stop-opacity:1;"
         offset="0"
         id="stop4" />
      <stop
         style="stop-color:#ffb834;stop-opacity:1;"
         offset="1"
         id="stop5" />
    </linearGradient>
    <inkscape:path-effect
       effect="fillet_chamfer"
       id="path-effect4"
       is_visible="true"
       lpeversion="1"
       nodesatellites_param="F,0,0,1,0,0,0,1 @ F,0,0,1,0,0,0,1 @ F,0,0,1,0,0,0,1 @ F,0,0,1,0,0,0,1 @ F,0,0,1,0,0,0,1 @ F,0,0,1,0,0,0,1 @ F,0,0,1,0,0,0,1 @ F,0,0,1,0,1.2980027,0,1 @ F,0,0,1,0,0.77088566,0,1 @ F,0,0,1,0,0.77088566,0,1 @ F,0,1,1,0,1.2980027,0,1 @ F,0,0,1,0,0,0,1 @ F,0,0,1,0,0,0,1 @ F,0,0,1,0,0,0,1 @ F,0,0,1,0,0,0,1 @ F,0,0,1,0,0,0,1 | F,0,0,1,0,0,0,1 @ F,0,0,1,0,0,0,1 @ F,0,0,1,0,0,0,1 @ F,0,0,1,0,0,0,1 @ F,0,0,1,0,0,0,1 @ F,0,1,1,0,1.2980027,0,1 @ F,0,0,1,0,0.77088566,0,1 @ F,0,0,1,0,0.77088566,0,1 @ F,0,1,1,0,1.2980027,0,1 @ F,0,0,1,0,0,0,1 @ F,0,0,1,0,0,0,1 @ F,0,0,1,0,0,0,1 @ F,0,0,1,0,0,0,1 @ F,0,0,1,0,0,0,1 @ F,0,0,1,0,0,0,1 @ F,0,0,1,0,0,0,1 | F,0,1,1,0,1.2980027,0,1 @ F,0,0,1,0,0,0,1 @ F,0,0,1,0,0,0,1 @ F,0,1,1,0,1.2980027,0,1 @ F,0,0,1,0,0.77088566,0,1 @ F,0,0,1,0,0.77088566,0,1 | F,0,0,1,0,0.77088566,0,1 @ F,0,0,1,0,0.77088566,0,1 @ F,0,1,1,0,1.2980027,0,1 @ F,0,0,1,0,0,0,1 @ F,0,0,1,0,0,0,1 @ F,0,0,1,0,0,0,1 @ F,0,0,1,0,0,0,1 @ F,0,0,1,0,0,0,1 @ F,0,0,1,0,0,0,1 @ F,0,0,1,0,0,0,1 @ F,0,0,1,0,0,0,1 @ F,0,0,1,0,0,0,1 @ F,0,0,1,0,0,0,1 @ F,0,0,1,0,0,0,1 @ F,0,0,1,0,0,0,1 @ F,0,1,1,0,1.2980027,0,1"
       radius="0"
       unit="px"
       method="auto"
       mode="F"
       chamfer_steps="1"
       flexible="false"
       use_knot_distance="true"
       apply_no_radius="true"
       apply_with_radius="true"
       only_selected="false"
       hide_knots="false" />
    <radialGradient
       inkscape:collect="always"
       xlink:href="#linearGradient4"
       id="radialGradient5"
       cx="66.076851"
       cy="61.689629"
       fx="66.076851"
       fy="61.689629"
       r="20"
       gradientUnits="userSpaceOnUse"
       gradientTransform="matrix(0,-2.4824004,2.4824004,0,-96.275454,220.89211)" />
    <inkscape:path-effect
       effect="fillet_chamfer"
       id="path-effect4-2"
       is_visible="true"
       lpeversion="1"
       nodesatellites_param="F,0,0,1,0,0,0,1 @ F,0,0,1,0,0,0,1 @ F,0,0,1,0,0,0,1 @ F,0,0,1,0,0,0,1 @ F,0,0,1,0,0,0,1 @ F,0,0,1,0,0,0,1 @ F,0,0,1,0,0,0,1 @ F,0,0,1,0,1.2980027,0,1 @ F,0,0,1,0,0.77088566,0,1 @ F,0,0,1,0,0.77088566,0,1 @ F,0,1,1,0,1.2980027,0,1 @ F,0,0,1,0,0,0,1 @ F,0,0,1,0,0,0,1 @ F,0,0,1,0,0,0,1 @ F,0,0,1,0,0,0,1 @ F,0,0,1,0,0,0,1 | F,0,0,1,0,0,0,1 @ F,0,0,1,0,0,0,1 @ F,0,0,1,0,0,0,1 @ F,0,0,1,0,0,0,1 @ F,0,0,1,0,0,0,1 @ F,0,1,1,0,1.2980027,0,1 @ F,0,0,1,0,0.77088566,0,1 @ F,0,0,1,0,0.77088566,0,1 @ F,0,1,1,0,1.2980027,0,1 @ F,0,0,1,0,0,0,1 @ F,0,0,1,0,0,0,1 @ F,0,0,1,0,0,0,1 @ F,0,0,1,0,0,0,1 @ F,0,0,1,0,0,0,1 @ F,0,0,1,0,0,0,1 @ F,0,0,1,0,0,0,1 | F,0,1,1,0,1.2980027,0,1 @ F,0,0,1,0,0,0,1 @ F,0,0,1,0,0,0,1 @ F,0,1,1,0,1.2980027,0,1 @ F,0,0,1,0,0.77088566,0,1 @ F,0,0,1,0,0.77088566,0,1 | F,0,0,1,0,0.77088566,0,1 @ F,0,0,1,0,0.77088566,0,1 @ F,0,1,1,0,1.2980027,0,1 @ F,0,0,1,0,0,0,1 @ F,0,0,1,0,0,0,1 @ F,0,0,1,0,0,0,1 @ F,0,0,1,0,0,0,1 @ F,0,0,1,0,0,0,1 @ F,0,0,1,0,0,0,1 @ F,0,0,1,0,0,0,1 @ F,0,0,1,0,0,0,1 @ F,0,0,1,0,0,0,1 @ F,0,0,1,0,0,0,1 @ F,0,0,1,0,0,0,1 @ F,0,0,1,0,0,0,1 @ F,0,1,1,0,1.2980027,0,1"
       radius="0"
       unit="px"
       method="auto"
       mode="F"
       chamfer_steps="1"
       flexible="false"
       use_knot_distance="true"
       apply_no_radius="true"
       apply_with_radius="true"
       only_selected="false"
       hide_knots="false" />
    <filter
       inkscape:collect="always"
       style="color-interpolation-filters:sRGB"
       id="filter5"
       x="-0.077797499"
       y="-0.077797499"
       width="1.155595"
       height="1.155595">
      <feGaussianBlur
         inkscape:collect="always"
         stdDeviation="1.2665361"
         id="feGaussianBlur5" />
    </filter>
  </defs>
  <sodipodi:namedview
     id="namedview4"
     pagecolor="#ffffff"
     bordercolor="#000000"
     borderopacity="0.25"
     inkscape:showpageshadow="2"
     inkscape:pageopacity="0.0"
     inkscape:pagecheckerboard="0"
     inkscape:deskcolor="#d1d1d1"
     inkscape:zoom="11.526413"
     inkscape:cx="24.422167"
     inkscape:cy="39.474551"
     inkscape:current-layer="svg4" />
  <path
     style="fill:url(#radialGradient5)"
     d="M 14.857422,12 C 13.274536,12 12,13.274476 12,14.857422 V 27.214844 C 12,28.79773 13.417054,30 15,30 c 1.582886,0 3,-1.20221 3,-2.785156 v -5.482422 l 4,4.285156 v 2.684419 A 1.2980027,1.2980027 45 0 0 23.298003,30 h 3.645955 c 0.425749,0 0.762626,-0.345754 0.790866,-0.770489 0.07369,-1.108365 0.386472,-1.421052 1.494938,-1.494705 C 29.654359,27.706593 30,27.369707 30,26.943958 V 23.298003 A 1.2980027,1.2980027 45 0 0 28.701997,22 h -2.684419 l -4.285156,-4 h 5.482422 C 28.79773,18 30,16.582946 30,15 30,13.417114 28.79779,12 27.214844,12 Z m 21.927734,0 C 35.20221,12 34,13.417114 34,15 c 0,1.582946 1.20227,3 2.785156,3 h 5.482422 l -4.285156,4 H 35.298003 A 1.2980027,1.2980027 135 0 0 34,23.298003 v 3.645955 c 0,0.425749 0.345754,0.762626 0.770489,0.790866 1.108365,0.07369 1.421052,0.386472 1.494705,1.494938 C 36.293407,29.654359 36.630293,30 37.056042,30 h 3.645955 A 1.2980027,1.2980027 135 0 0 42,28.701997 v -2.684419 l 4,-4.285156 v 5.482422 C 46,28.79779 47.417114,30 49,30 c 1.582946,0 3,-1.20227 3,-2.785156 V 14.857422 C 52,13.274476 50.725464,12 49.142578,12 Z M 22,35.298003 v 3.844575 C 22,40.726604 23.273396,42 24.857422,42 h 3.844575 A 1.2980027,1.2980027 135 0 0 30,40.701997 V 37.056042 C 30,36.630293 29.654246,36.293416 29.229511,36.265176 28.121146,36.191482 27.808459,35.878704 27.734806,34.770238 27.706593,34.345641 27.369707,34 26.943958,34 H 23.298003 A 1.2980027,1.2980027 135 0 0 22,35.298003 Z m 14.265176,-0.527514 c -0.07369,1.108365 -0.386472,1.421052 -1.494938,1.494705 C 34.345641,36.293407 34,36.630293 34,37.056042 v 3.645955 A 1.2980027,1.2980027 45 0 0 35.298003,42 h 2.684419 l 4.285156,4 H 36.785156 C 35.20227,46 34,47.417054 34,49 c 0,1.582886 1.20221,3 2.785156,3 H 49.142578 C 50.725464,52 52,50.725524 52,49.142578 V 36.785156 C 52,35.20227 50.582946,34 49,34 c -1.582886,0 -3,1.20221 -3,2.785156 v 5.482422 L 42,37.982422 V 35.298003 A 1.2980027,1.2980027 45 0 0 40.701997,34 h -3.645955 c -0.425749,0 -0.762626,0.345754 -0.790866,0.770489 z"
     id="path3"
     inkscape:path-effect="#path-effect4"
     inkscape:original-d="M 14.857422,12 C 13.274536,12 12,13.274476 12,14.857422 V 27.214844 C 12,28.79773 13.417054,30 15,30 c 1.582886,0 3,-1.20221 3,-2.785156 v -5.482422 l 4,4.285156 V 30 h 5.714844 c 0,-2.035285 0.24991,-2.285156 2.285156,-2.285156 V 22 h -3.982422 l -4.285156,-4 h 5.482422 C 28.79773,18 30,16.582946 30,15 30,13.417114 28.79779,12 27.214844,12 Z m 21.927734,0 C 35.20221,12 34,13.417114 34,15 c 0,1.582946 1.20227,3 2.785156,3 h 5.482422 l -4.285156,4 H 34 v 5.714844 c 2.035285,0 2.285156,0.24991 2.285156,2.285156 H 42 v -3.982422 l 4,-4.285156 v 5.482422 C 46,28.79779 47.417114,30 49,30 c 1.582946,0 3,-1.20227 3,-2.785156 V 14.857422 C 52,13.274476 50.725464,12 49.142578,12 Z M 22,34 v 5.142578 C 22,40.726604 23.273396,42 24.857422,42 H 30 v -5.714844 c -2.035285,0 -2.285156,-0.24991 -2.285156,-2.285156 z m 14.285156,0 c 0,2.035285 -0.24991,2.285156 -2.285156,2.285156 V 42 h 3.982422 l 4.285156,4 H 36.785156 C 35.20227,46 34,47.417054 34,49 c 0,1.582886 1.20221,3 2.785156,3 H 49.142578 C 50.725464,52 52,50.725524 52,49.142578 V 36.785156 C 52,35.20227 50.582946,34 49,34 c -1.582886,0 -3,1.20221 -3,2.785156 v 5.482422 L 42,37.982422 V 34 Z"
     sodipodi:nodetypes="sssssccccccccsssssssccccccccsssssscsscccccccccsssssssscccc"
     transform="matrix(1.3847871,0,0,1.3847871,-12.313186,-12.313186)" />
  <path
     style="mix-blend-mode:normal;fill:none;stroke:#000000;stroke-width:0.14442653;stroke-dasharray:none;stroke-opacity:1;filter:url(#filter5)"
     d="M 14.857422,12 C 13.274536,12 12,13.274476 12,14.857422 V 27.214844 C 12,28.79773 13.417054,30 15,30 c 1.582886,0 3,-1.20221 3,-2.785156 v -5.482422 l 4,4.285156 v 2.684419 A 1.2980027,1.2980027 45 0 0 23.298003,30 h 3.645955 c 0.425749,0 0.762626,-0.345754 0.790866,-0.770489 0.07369,-1.108365 0.386472,-1.421052 1.494938,-1.494705 C 29.654359,27.706593 30,27.369707 30,26.943958 V 23.298003 A 1.2980027,1.2980027 45 0 0 28.701997,22 h -2.684419 l -4.285156,-4 h 5.482422 C 28.79773,18 30,16.582946 30,15 30,13.417114 28.79779,12 27.214844,12 Z m 21.927734,0 C 35.20221,12 34,13.417114 34,15 c 0,1.582946 1.20227,3 2.785156,3 h 5.482422 l -4.285156,4 H 35.298003 A 1.2980027,1.2980027 135 0 0 34,23.298003 v 3.645955 c 0,0.425749 0.345754,0.762626 0.770489,0.790866 1.108365,0.07369 1.421052,0.386472 1.494705,1.494938 C 36.293407,29.654359 36.630293,30 37.056042,30 h 3.645955 A 1.2980027,1.2980027 135 0 0 42,28.701997 v -2.684419 l 4,-4.285156 v 5.482422 C 46,28.79779 47.417114,30 49,30 c 1.582946,0 3,-1.20227 3,-2.785156 V 14.857422 C 52,13.274476 50.725464,12 49.142578,12 Z M 22,35.298003 v 3.844575 C 22,40.726604 23.273396,42 24.857422,42 h 3.844575 A 1.2980027,1.2980027 135 0 0 30,40.701997 V 37.056042 C 30,36.630293 29.654246,36.293416 29.229511,36.265176 28.121146,36.191482 27.808459,35.878704 27.734806,34.770238 27.706593,34.345641 27.369707,34 26.943958,34 H 23.298003 A 1.2980027,1.2980027 135 0 0 22,35.298003 Z m 14.265176,-0.527514 c -0.07369,1.108365 -0.386472,1.421052 -1.494938,1.494705 C 34.345641,36.293407 34,36.630293 34,37.056042 v 3.645955 A 1.2980027,1.2980027 45 0 0 35.298003,42 h 2.684419 l 4.285156,4 H 36.785156 C 35.20227,46 34,47.417054 34,49 c 0,1.582886 1.20221,3 2.785156,3 H 49.142578 C 50.725464,52 52,50.725524 52,49.142578 V 36.785156 C 52,35.20227 50.582946,34 49,34 c -1.582886,0 -3,1.20221 -3,2.785156 v 5.482422 L 42,37.982422 V 35.298003 A 1.2980027,1.2980027 45 0 0 40.701997,34 h -3.645955 c -0.425749,0 -0.762626,0.345754 -0.790866,0.770489 z"
     id="path3-4"
     inkscape:path-effect="#path-effect4-2"
     inkscape:original-d="M 14.857422,12 C 13.274536,12 12,13.274476 12,14.857422 V 27.214844 C 12,28.79773 13.417054,30 15,30 c 1.582886,0 3,-1.20221 3,-2.785156 v -5.482422 l 4,4.285156 V 30 h 5.714844 c 0,-2.035285 0.24991,-2.285156 2.285156,-2.285156 V 22 h -3.982422 l -4.285156,-4 h 5.482422 C 28.79773,18 30,16.582946 30,15 30,13.417114 28.79779,12 27.214844,12 Z m 21.927734,0 C 35.20221,12 34,13.417114 34,15 c 0,1.582946 1.20227,3 2.785156,3 h 5.482422 l -4.285156,4 H 34 v 5.714844 c 2.035285,0 2.285156,0.24991 2.285156,2.285156 H 42 v -3.982422 l 4,-4.285156 v 5.482422 C 46,28.79779 47.417114,30 49,30 c 1.582946,0 3,-1.20227 3,-2.785156 V 14.857422 C 52,13.274476 50.725464,12 49.142578,12 Z M 22,34 v 5.142578 C 22,40.726604 23.273396,42 24.857422,42 H 30 v -5.714844 c -2.035285,0 -2.285156,-0.24991 -2.285156,-2.285156 z m 14.285156,0 c 0,2.035285 -0.24991,2.285156 -2.285156,2.285156 V 42 h 3.982422 l 4.285156,4 H 36.785156 C 35.20227,46 34,47.417054 34,49 c 0,1.582886 1.20221,3 2.785156,3 H 49.142578 C 50.725464,52 52,50.725524 52,49.142578 V 36.785156 C 52,35.20227 50.582946,34 49,34 c -1.582886,0 -3,1.20221 -3,2.785156 v 5.482422 L 42,37.982422 V 34 Z"
     sodipodi:nodetypes="sssssccccccccsssssssccccccccsssssscsscccccccccsssssssscccc"
     transform="matrix(1.3847871,0,0,1.3847871,-12.313186,-12.313186)" />
</svg>
