<?xml version="1.0" encoding="UTF-8" standalone="no"?>
<svg
   width="64"
   height="64"
   version="1"
   id="svg4"
   sodipodi:docname="system-switch-user.svg"
   inkscape:version="1.4.3 (0d15f75042, 2025-12-25)"
   xmlns:inkscape="http://www.inkscape.org/namespaces/inkscape"
   xmlns:sodipodi="http://sodipodi.sourceforge.net/DTD/sodipodi-0.dtd"
   xmlns:xlink="http://www.w3.org/1999/xlink"
   xmlns="http://www.w3.org/2000/svg"
   xmlns:svg="http://www.w3.org/2000/svg">
  <defs
     id="defs4">
    <inkscape:path-effect
       effect="fillet_chamfer"
       id="path-effect4"
       is_visible="true"
       lpeversion="1"
       nodesatellites_param="F,0,1,1,0,3.1906851,0,1 @ F,0,1,1,0,3.1906851,0,1 @ F,0,0,1,0,0,0,1 @ F,0,0,1,0,0,0,1 @ F,0,0,1,0,0,0,1 @ F,0,0,1,0,0,0,1 @ F,0,1,1,0,3.1906851,0,1 | F,0,0,1,0,0,0,1 @ F,0,0,1,0,0,0,1 @ F,0,0,1,0,0,0,1 @ F,0,1,1,0,3.1906851,0,1 @ F,0,1,1,0,3.1906851,0,1 @ F,0,1,1,0,3.1906851,0,1 @ F,0,0,1,0,0,0,1 @ F,0,0,1,0,0,0,1"
       radius="0"
       unit="px"
       method="auto"
       mode="F"
       chamfer_steps="1"
       flexible="false"
       use_knot_distance="true"
       apply_no_radius="true"
       apply_with_radius="true"
       only_selected="false"
       hide_knots="false" />
    <radialGradient
       id="SVGID_1_-3-2"
       cx="-489.36789"
       cy="84.434166"
       r="64.706802"
       gradientTransform="matrix(0.96794252,0,0,-0.96304834,473.64622,81.004607)"
       gradientUnits="userSpaceOnUse"
       fx="-489.36789"
       fy="84.434166">
      <stop
         offset="0"
         style="stop-color:#00b0ff;stop-opacity:1;"
         id="stop1-6-9" />
      <stop
         offset="1"
         style="stop-color:#156fff;stop-opacity:1;"
         id="stop2-7-1" />
    </radialGradient>
    <inkscape:path-effect
       effect="fillet_chamfer"
       id="path-effect4-7"
       is_visible="true"
       lpeversion="1"
       nodesatellites_param="F,0,1,1,0,3.1906851,0,1 @ F,0,1,1,0,3.1906851,0,1 @ F,0,0,1,0,0,0,1 @ F,0,0,1,0,0,0,1 @ F,0,0,1,0,0,0,1 @ F,0,0,1,0,0,0,1 @ F,0,1,1,0,3.1906851,0,1 | F,0,0,1,0,0,0,1 @ F,0,0,1,0,0,0,1 @ F,0,0,1,0,0,0,1 @ F,0,1,1,0,3.1906851,0,1 @ F,0,1,1,0,3.1906851,0,1 @ F,0,1,1,0,3.1906851,0,1 @ F,0,0,1,0,0,0,1 @ F,0,0,1,0,0,0,1"
       radius="0"
       unit="px"
       method="auto"
       mode="F"
       chamfer_steps="1"
       flexible="false"
       use_knot_distance="true"
       apply_no_radius="true"
       apply_with_radius="true"
       only_selected="false"
       hide_knots="false" />
    <radialGradient
       inkscape:collect="always"
       xlink:href="#linearGradient4-7"
       id="radialGradient5-9"
       cx="11.001936"
       cy="34.411228"
       fx="11.001936"
       fy="34.411228"
       r="28"
       gradientUnits="userSpaceOnUse"
       gradientTransform="matrix(0.51712686,1.9299437,-1.6733204,0.44836488,62.568412,-23.779042)" />
    <linearGradient
       id="linearGradient4-7"
       inkscape:collect="always">
      <stop
         style="stop-color:#00c8ff;stop-opacity:1;"
         offset="0"
         id="stop4-3" />
      <stop
         style="stop-color:#009cff;stop-opacity:1;"
         offset="1"
         id="stop5-6" />
    </linearGradient>
    <filter
       inkscape:collect="always"
       style="color-interpolation-filters:sRGB"
       id="filter1"
       x="-0.10203644"
       y="-0.10203644"
       width="1.2040729"
       height="1.2040729">
      <feGaussianBlur
         inkscape:collect="always"
         stdDeviation="2.3154179"
         id="feGaussianBlur1" />
    </filter>
    <filter
       inkscape:collect="always"
       style="color-interpolation-filters:sRGB"
       id="filter2"
       x="-0.20736425"
       y="-0.15692429"
       width="1.4147285"
       height="1.3138486">
      <feGaussianBlur
         inkscape:collect="always"
         stdDeviation="2.3567495"
         id="feGaussianBlur2" />
    </filter>
    <filter
       inkscape:collect="always"
       style="color-interpolation-filters:sRGB"
       id="filter2-2"
       x="-0.20736425"
       y="-0.15692429"
       width="1.4147285"
       height="1.3138486">
      <feGaussianBlur
         inkscape:collect="always"
         stdDeviation="2.3567495"
         id="feGaussianBlur2-9" />
    </filter>
  </defs>
  <sodipodi:namedview
     id="namedview4"
     pagecolor="#ffffff"
     bordercolor="#000000"
     borderopacity="0.25"
     inkscape:showpageshadow="2"
     inkscape:pageopacity="0.0"
     inkscape:pagecheckerboard="0"
     inkscape:deskcolor="#d1d1d1"
     inkscape:zoom="7.3372805"
     inkscape:cx="27.598781"
     inkscape:cy="33.799989"
     inkscape:current-layer="svg4" />
  <rect
     style="fill:url(#radialGradient5-9);stroke-width:0.955185"
     width="53.490372"
     height="53.490372"
     x="5.1931915"
     y="5.2981958"
     rx="26.745186"
     ry="26.745186"
     id="rect1" />
  <g
     id="g1-1"
     transform="matrix(0.76603944,0,0,0.76603944,-4.395052,3.3052965)"
     style="opacity:0.785041">
    <path
       id="path4-9"
       class="st3"
       d="m 32,14.006629 c -3.899996,0 -7,3.100004 -7,7 0,3.899996 3.100004,7 7,7 3.899996,0 7,-3.100004 7,-7 0,-3.899996 -3.100004,-7 -7,-7 z m 0,19 c -13.999986,0 -14,8.900391 -14,8.900391 0,3.199996 1.900784,6.200001 4.800781,7.5 2.099998,0.899999 5.099223,1.599609 9.199219,1.599609 4.099996,0 7.099221,-0.69961 9.199219,-1.599609 C 44.199216,48.107021 46,45.107016 46,41.90702 c 0,0 -1.4e-5,-8.900391 -14,-8.900391 z"
       style="fill:#ffffff;fill-opacity:1" />
    <path
       id="path4-3-4"
       class="st3"
       d="m 31.961168,14.010239 c -3.899996,0 -7,3.100004 -7,7 0,3.899996 3.100004,7 7,7 3.899996,0 7,-3.100004 7,-7 0,-3.899996 -3.100004,-7 -7,-7 z m 0,19 c -13.999986,0 -14,8.900391 -14,8.900391 0,3.199996 1.900784,6.200001 4.800781,7.5 2.099998,0.899999 5.099223,1.599609 9.199219,1.599609 4.099996,0 7.099221,-0.69961 9.199219,-1.599609 2.999997,-1.299999 4.800781,-4.300004 4.800781,-7.5 0,0 -1.4e-5,-8.900391 -14,-8.900391 z"
       style="fill:none;stroke:#000aff;stroke-width:0.3;stroke-dasharray:none;stroke-opacity:1;filter:url(#filter2-2)" />
  </g>
  <rect
     style="mix-blend-mode:normal;fill:none;stroke:#000000;stroke-width:0.314075;stroke-dasharray:none;stroke-opacity:1;filter:url(#filter1)"
     width="56"
     height="56"
     x="4.0645156"
     y="3.9545853"
     rx="28"
     ry="28"
     id="rect1-5"
     transform="matrix(0.95518521,0,0,0.95518521,1.3724513,1.4774551)" />
  <g
     id="g1"
     transform="translate(3.8161278,1.7717736)">
    <path
       id="path4"
       class="st3"
       d="m 32,14.006629 c -3.899996,0 -7,3.100004 -7,7 0,3.899996 3.100004,7 7,7 3.899996,0 7,-3.100004 7,-7 0,-3.899996 -3.100004,-7 -7,-7 z m 0,19 c -13.999986,0 -14,8.900391 -14,8.900391 0,3.199996 1.900784,6.200001 4.800781,7.5 2.099998,0.899999 5.099223,1.599609 9.199219,1.599609 4.099996,0 7.099221,-0.69961 9.199219,-1.599609 C 44.199216,48.107021 46,45.107016 46,41.90702 c 0,0 -1.4e-5,-8.900391 -14,-8.900391 z"
       style="fill:#ffffff;fill-opacity:1" />
    <path
       id="path4-3"
       class="st3"
       d="m 31.961168,14.010239 c -3.899996,0 -7,3.100004 -7,7 0,3.899996 3.100004,7 7,7 3.899996,0 7,-3.100004 7,-7 0,-3.899996 -3.100004,-7 -7,-7 z m 0,19 c -13.999986,0 -14,8.900391 -14,8.900391 0,3.199996 1.900784,6.200001 4.800781,7.5 2.099998,0.899999 5.099223,1.599609 9.199219,1.599609 4.099996,0 7.099221,-0.69961 9.199219,-1.599609 2.999997,-1.299999 4.800781,-4.300004 4.800781,-7.5 0,0 -1.4e-5,-8.900391 -14,-8.900391 z"
       style="fill:none;stroke:#000aff;stroke-width:0.3;stroke-dasharray:none;stroke-opacity:1;filter:url(#filter2)" />
  </g>
</svg>
