<?xml version="1.0" encoding="UTF-8" standalone="no"?>
<svg
   width="64"
   height="64"
   version="1"
   id="svg4"
   sodipodi:docname="xfsm-lock.svg"
   inkscape:version="1.4.2 (ebf0e940d0, 2025-05-08)"
   xmlns:inkscape="http://www.inkscape.org/namespaces/inkscape"
   xmlns:sodipodi="http://sodipodi.sourceforge.net/DTD/sodipodi-0.dtd"
   xmlns:xlink="http://www.w3.org/1999/xlink"
   xmlns="http://www.w3.org/2000/svg"
   xmlns:svg="http://www.w3.org/2000/svg">
  <defs
     id="defs4">
    <radialGradient
       id="SVGID_1_-3-2"
       cx="-489.36789"
       cy="84.434166"
       r="64.706802"
       gradientTransform="matrix(0.96794252,0,0,-0.96304834,473.64622,81.004607)"
       gradientUnits="userSpaceOnUse"
       fx="-489.36789"
       fy="84.434166">
      <stop
         offset="0"
         style="stop-color:#ffbd00;stop-opacity:1;"
         id="stop1-6-9" />
      <stop
         offset="1"
         style="stop-color:#ff6a15;stop-opacity:1;"
         id="stop2-7-1" />
    </radialGradient>
    <filter
       inkscape:collect="always"
       style="color-interpolation-filters:sRGB"
       id="filter2"
       x="-0.09403861"
       y="-0.085082552"
       width="1.1880772"
       height="1.1701651">
      <feGaussianBlur
         inkscape:collect="always"
         stdDeviation="1.4264447"
         id="feGaussianBlur2" />
    </filter>
    <radialGradient
       inkscape:collect="always"
       xlink:href="#SVGID_1_-3-2"
       id="radialGradient5"
       cx="9.2093544"
       cy="24.43586"
       fx="9.2093544"
       fy="24.43586"
       r="29"
       gradientUnits="userSpaceOnUse"
       gradientTransform="matrix(0,2.1357448,-2.1357448,0,-1.8848089,-19.282403)" />
    <filter
       inkscape:collect="always"
       style="color-interpolation-filters:sRGB"
       id="filter5"
       x="-0.12898718"
       y="-0.12898718"
       width="1.2579744"
       height="1.2579744">
      <feGaussianBlur
         inkscape:collect="always"
         stdDeviation="2.6561957"
         id="feGaussianBlur5" />
    </filter>
  </defs>
  <sodipodi:namedview
     id="namedview4"
     pagecolor="#ffffff"
     bordercolor="#000000"
     borderopacity="0.25"
     inkscape:showpageshadow="2"
     inkscape:pageopacity="0.0"
     inkscape:pagecheckerboard="0"
     inkscape:deskcolor="#d1d1d1"
     inkscape:zoom="9.8111066"
     inkscape:cx="34.043051"
     inkscape:cy="37.30466"
     inkscape:window-width="1920"
     inkscape:window-height="1020"
     inkscape:window-x="0"
     inkscape:window-y="0"
     inkscape:window-maximized="1"
     inkscape:current-layer="svg4" />
  <g
     id="g2"
     transform="translate(60.905143,6.1824238)">
    <circle
       style="fill:url(#radialGradient5);stroke-width:0.872162"
       cx="-28.905144"
       cy="25.817575"
       r="25.292706"
       id="circle2" />
    <circle
       style="fill:none;stroke:#000000;stroke-width:0.3;stroke-dasharray:none;stroke-opacity:1;filter:url(#filter5)"
       cx="-28.905144"
       cy="25.817575"
       r="25.292706"
       id="circle2-5" />
  </g>
  <path
     style="fill:#ffffff;fill-opacity:1;stroke:#ffffff;stroke-width:0;stroke-dasharray:none;stroke-opacity:1"
     d="m 32,15.318098 c -5.234523,0 -9.697244,3.992282 -9.697244,8.951302 v 4.475652 h -2.113502 c -1.308631,0 -2.362149,0.998071 -2.362149,2.237826 V 44.40983 c 0,1.239756 1.053518,2.237826 2.362149,2.237826 h 23.621492 c 1.30863,0 2.362149,-0.99807 2.362149,-2.237826 V 30.982878 c 0,-1.239755 -1.053519,-2.237826 -2.362149,-2.237826 H 41.697244 V 24.2694 c 0,-4.95902 -4.462721,-8.951302 -9.697244,-8.951302 z m 0,4.475652 c 2.617261,0 5.495409,2.011305 5.221593,4.47565 v 4.475652 H 26.778407 V 24.2694 c 0,-2.47951 2.604332,-4.47565 5.221593,-4.47565 z"
     id="path3" />
  <path
     style="mix-blend-mode:normal;fill:none;fill-opacity:1;stroke:#ff1800;stroke-width:0.3;stroke-dasharray:none;stroke-opacity:1;filter:url(#filter2)"
     d="m 32,11 c -7.017334,0 -13,5.352 -13,12 v 6 H 16.166667 C 14.412333,29 13,30.338 13,32 v 18 c 0,1.662 1.412333,3 3.166667,3 H 47.833334 C 49.587666,53 51,51.662 51,50 V 32 c 0,-1.662 -1.412334,-3 -3.166666,-3 H 45 V 23 C 45,16.352 39.017334,11 32,11 Z m 0,6 c 3.508666,0 7.367074,2.69633 7,6 v 6 H 25 v -6 c 0,-3.324 3.491334,-6 7,-6 z"
     id="path3-9"
     transform="matrix(0.74594185,0,0,0.74594185,8.129861,7.1127385)" />
</svg>
