<?xml version="1.0" encoding="UTF-8" standalone="no"?>
<svg
   width="64"
   height="64"
   version="1"
   id="svg8"
   sodipodi:docname="media-flash-memory-stick.svg"
   inkscape:version="1.4.2 (ebf0e940d0, 2025-05-08)"
   xmlns:inkscape="http://www.inkscape.org/namespaces/inkscape"
   xmlns:sodipodi="http://sodipodi.sourceforge.net/DTD/sodipodi-0.dtd"
   xmlns:xlink="http://www.w3.org/1999/xlink"
   xmlns="http://www.w3.org/2000/svg"
   xmlns:svg="http://www.w3.org/2000/svg">
  <defs
     id="defs8">
    <inkscape:path-effect
       effect="fillet_chamfer"
       id="path-effect10"
       is_visible="true"
       lpeversion="1"
       nodesatellites_param="F,0,1,1,0,1.1149572,0,1 @ F,0,1,1,0,1.1149572,0,1 @ F,0,1,1,0,1.1149572,0,1 @ F,0,1,1,0,1.1149572,0,1 | F,0,1,1,0,1.1149572,0,1 @ F,0,1,1,0,1.1149572,0,1 @ F,0,1,1,0,1.1149572,0,1 @ F,0,0,1,0,1.1149572,0,1"
       radius="0"
       unit="px"
       method="auto"
       mode="F"
       chamfer_steps="1"
       flexible="false"
       use_knot_distance="true"
       apply_no_radius="true"
       apply_with_radius="true"
       only_selected="false"
       hide_knots="false" />
    <inkscape:path-effect
       effect="fillet_chamfer"
       id="path-effect9"
       is_visible="true"
       lpeversion="1"
       nodesatellites_param="F,0,1,1,0,5.2514818,0,1 @ F,0,0,1,0,5.2514818,0,1 @ F,0,0,1,0,0,0,1 @ F,0,0,1,0,0,0,1"
       radius="0"
       unit="px"
       method="auto"
       mode="F"
       chamfer_steps="1"
       flexible="false"
       use_knot_distance="true"
       apply_no_radius="true"
       apply_with_radius="true"
       only_selected="false"
       hide_knots="false" />
    <filter
       inkscape:collect="always"
       style="color-interpolation-filters:sRGB"
       id="filter2"
       x="-0.096495089"
       y="-0.14171053"
       width="1.1929902"
       height="1.2834211">
      <feGaussianBlur
         inkscape:collect="always"
         stdDeviation="1.9658992"
         id="feGaussianBlur2" />
    </filter>
    <filter
       inkscape:collect="always"
       style="color-interpolation-filters:sRGB"
       id="filter12"
       x="-0.12045395"
       y="-0.23387342"
       width="1.2409079"
       height="1.4700367">
      <feGaussianBlur
         inkscape:collect="always"
         stdDeviation="1.9658992"
         id="feGaussianBlur12" />
    </filter>
    <radialGradient
       inkscape:collect="always"
       xlink:href="#linearGradient6-5"
       id="radialGradient9-7"
       cx="3.6037257"
       cy="69.383522"
       fx="3.6037257"
       fy="69.383522"
       r="28"
       gradientTransform="matrix(3.6631184,0,0,2.2240362,-2.7777149,-97.21141)"
       gradientUnits="userSpaceOnUse" />
    <linearGradient
       id="linearGradient6-5"
       inkscape:collect="always">
      <stop
         style="stop-color:#2f2f2f;stop-opacity:1;"
         offset="0"
         id="stop6-3" />
      <stop
         style="stop-color:#686868;stop-opacity:1;"
         offset="1"
         id="stop7-3" />
    </linearGradient>
    <inkscape:path-effect
       effect="fillet_chamfer"
       id="path-effect10-7"
       is_visible="true"
       lpeversion="1"
       nodesatellites_param="F,0,1,1,0,1.1149572,0,1 @ F,0,1,1,0,1.1149572,0,1 @ F,0,1,1,0,1.1149572,0,1 @ F,0,1,1,0,1.1149572,0,1"
       radius="0"
       unit="px"
       method="auto"
       mode="F"
       chamfer_steps="1"
       flexible="false"
       use_knot_distance="true"
       apply_no_radius="true"
       apply_with_radius="true"
       only_selected="false"
       hide_knots="false" />
    <inkscape:path-effect
       effect="fillet_chamfer"
       id="path-effect10-6"
       is_visible="true"
       lpeversion="1"
       nodesatellites_param="F,0,1,1,0,1.1149572,0,1 @ F,0,1,1,0,1.1149572,0,1 @ F,0,1,1,0,1.1149572,0,1 @ F,0,1,1,0,1.1149572,0,1"
       radius="0"
       unit="px"
       method="auto"
       mode="F"
       chamfer_steps="1"
       flexible="false"
       use_knot_distance="true"
       apply_no_radius="true"
       apply_with_radius="true"
       only_selected="false"
       hide_knots="false" />
    <inkscape:path-effect
       effect="fillet_chamfer"
       id="path-effect9-3"
       is_visible="true"
       lpeversion="1"
       nodesatellites_param="F,0,1,1,0,5.2514818,0,1 @ F,0,0,1,0,5.2514818,0,1 @ F,0,0,1,0,0,0,1 @ F,0,0,1,0,0,0,1"
       radius="0"
       unit="px"
       method="auto"
       mode="F"
       chamfer_steps="1"
       flexible="false"
       use_knot_distance="true"
       apply_no_radius="true"
       apply_with_radius="true"
       only_selected="false"
       hide_knots="false" />
  </defs>
  <sodipodi:namedview
     id="namedview8"
     pagecolor="#505050"
     bordercolor="#eeeeee"
     borderopacity="1"
     inkscape:showpageshadow="0"
     inkscape:pageopacity="0"
     inkscape:pagecheckerboard="0"
     inkscape:deskcolor="#505050"
     inkscape:zoom="13.04833"
     inkscape:cx="34.027343"
     inkscape:cy="21.573642"
     inkscape:current-layer="svg8"
     inkscape:window-width="1992"
     inkscape:window-height="1377"
     inkscape:window-x="0"
     inkscape:window-y="0"
     inkscape:window-maximized="0" />
  <g
     id="g1"
     transform="translate(-3.7839785,2.156939)">
    <path
       id="rect2-5"
       style="fill:#b4b4b4;fill-opacity:1"
       d="M 17.251482,6 H 46.748518 A 5.2514818,5.2514818 45 0 1 52,11.251482 v 19.5564 H 12 v -19.5564 A 5.2514818,5.2514818 135 0 1 17.251482,6 Z"
       inkscape:path-effect="#path-effect9-3"
       inkscape:original-d="M 12,6 H 52 V 30.807882 H 12 Z"
       transform="translate(3.7849505,-3.1820602)"
       sodipodi:nodetypes="ccccc" />
    <path
       style="opacity:0.450368;fill:#000000;fill-opacity:1"
       inkscape:path-effect="#path-effect10-6"
       inkscape:original-d="M 16,9.2304688 V 15.230469 H 26 V 9.2304688 Z"
       transform="matrix(1.2968801,0,0,1.2968801,-0.881303,-5.2731582)"
       d="m 16,10.345426 v 3.770086 a 1.1149572,1.1149572 45 0 0 1.114957,1.114957 l 7.770086,0 A 1.1149572,1.1149572 135 0 0 26,14.115512 l 0,-3.770086 A 1.1149572,1.1149572 45 0 0 24.885043,9.2304688 H 17.114957 A 1.1149572,1.1149572 135 0 0 16,10.345426 Z"
       id="rect7-6" />
    <path
       style="opacity:0.450368;fill:#000000;fill-opacity:1"
       inkscape:path-effect="#path-effect10-7"
       inkscape:original-d="M 16,9.2304688 V 15.230469 H 26 V 9.2304688 Z"
       transform="matrix(1.2968801,0,0,1.2968801,17.98224,-5.1943405)"
       d="m 16,10.345426 v 3.770086 a 1.1149572,1.1149572 45 0 0 1.114957,1.114957 l 7.770086,0 A 1.1149572,1.1149572 135 0 0 26,14.115512 l 0,-3.770086 A 1.1149572,1.1149572 45 0 0 24.885043,9.2304688 H 17.114957 A 1.1149572,1.1149572 135 0 0 16,10.345426 Z"
       id="rect7-6-3" />
    <rect
       style="fill:url(#radialGradient9-7)"
       width="49.931034"
       height="34"
       x="10.819433"
       y="22.867201"
       rx="7.8817735"
       ry="7.8817735"
       id="rect3-6" />
    <path
       d="m 21.035931,2.8181582 a 5.2514818,5.2514818 0 0 0 -5.25,5.2500003 V 23.419722 c 0.901191,-0.356889 1.884899,-0.552735 2.916016,-0.552735 h 34.167965 c 1.03123,0 2.01492,0.195777 2.91602,0.552735 V 8.0681585 A 5.2514818,5.2514818 0 0 0 50.533978,2.8181582 Z m 0.279297,3.8789063 H 31.3914 a 1.4459658,1.4459658 0 0 1 1.447266,1.445313 V 13.033003 A 1.4459658,1.4459658 0 0 1 31.3914,14.478315 H 21.315228 A 1.4459658,1.4459658 0 0 1 19.869916,13.033003 V 8.1423775 a 1.4459658,1.4459658 0 0 1 1.445312,-1.445313 z m 18.863281,0.078125 h 10.076172 a 1.4459658,1.4459658 0 0 1 1.447271,1.447266 V 13.111128 A 1.4459658,1.4459658 0 0 1 50.254681,14.55644 H 40.178509 A 1.4459658,1.4459658 0 0 1 38.733197,13.111128 V 8.2224555 a 1.4459658,1.4459658 0 0 1 1.445312,-1.447266 z"
       style="mix-blend-mode:normal;fill:none;stroke:#000000;stroke-width:0.2;stroke-dasharray:none;stroke-opacity:1;filter:url(#filter12)"
       id="path10" />
    <path
       style="opacity:0.482371;fill:#000000;fill-opacity:1;stroke-width:0;stroke-dasharray:none"
       d="m 35.78398,26.27615 -4.118802,6.589621 h 2.353602 v 8.237601 H 29.194358 V 38.9279 a 3.5304003,3.5304003 0 0 0 1.88242,-3.120128 3.5304003,3.5304003 0 0 0 -3.5304,-3.530401 3.5304003,3.5304003 0 0 0 -3.5304,3.530401 3.5304003,3.5304003 0 0 0 1.88242,3.120128 v 2.175472 c 0,3.295039 3.29596,3.5304 3.29596,3.5304 h 4.824422 v 2.243275 a 3.5304003,3.5304003 0 0 0 -1.765202,3.052326 3.5304003,3.5304003 0 0 0 3.530402,3.530399 3.5304003,3.5304003 0 0 0 3.5304,-3.530399 3.5304003,3.5304003 0 0 0 -1.7652,-3.053476 v -2.242125 h 4.82442 c 0,0 3.29596,-0.235361 3.29596,-3.5304 v -1.7652 h 0.41142 c 0.81494,0 1.471,-0.656067 1.471,-1.471002 v -4.1188 c 0,-0.814933 -0.65606,-1.471 -1.471,-1.471 h -4.1188 c -0.81493,0 -1.471,0.656067 -1.471,1.471 v 4.1188 c 0,0.814935 0.65607,1.471002 1.471,1.471002 h 0.41142 v 1.7652 h -4.82442 v -8.237601 h 2.3536 z"
       id="path3-9" />
    <path
       id="path6"
       style="mix-blend-mode:normal;fill:none;fill-opacity:1;stroke:#000000;stroke-width:0.2;stroke-dasharray:none;stroke-opacity:1;filter:url(#filter2)"
       d="m 18.700971,22.867961 c -4.366503,0 -7.882813,3.514356 -7.882813,7.880859 v 18.236328 c 0,4.366502 3.51631,7.882813 7.882813,7.882813 h 34.167968 c 4.36651,0 7.88086,-3.516311 7.88086,-7.882813 V 30.74882 c 0,-4.366503 -3.51435,-7.880859 -7.88086,-7.880859 z m 17.083984,3.408203 4.119141,6.587891 H 37.55058 v 8.238281 h 4.824219 v -1.765625 h -0.41211 c -0.81493,0 -1.470703,-0.655769 -1.470703,-1.470703 v -4.119141 c 0,-0.814933 0.655773,-1.470703 1.470703,-1.470703 h 4.119141 c 0.81494,0 1.470703,0.65577 1.470703,1.470703 v 4.119141 c 0,0.814935 -0.655763,1.470703 -1.470703,1.470703 h -0.412109 v 1.765625 c 0,3.29504 -3.294922,3.53125 -3.294922,3.53125 H 37.55058 v 2.242187 a 3.5304003,3.5304003 0 0 1 1.765625,3.052735 3.5304003,3.5304003 0 0 1 -3.53125,3.53125 3.5304003,3.5304003 0 0 1 -3.53125,-3.53125 3.5304003,3.5304003 0 0 1 1.765625,-3.052735 v -2.242187 h -4.824219 c 0,0 -3.294922,-0.23621 -3.294922,-3.53125 v -2.175781 a 3.5304003,3.5304003 0 0 1 -1.882812,-3.119141 3.5304003,3.5304003 0 0 1 3.529297,-3.53125 3.5304003,3.5304003 0 0 1 3.53125,3.53125 3.5304003,3.5304003 0 0 1 -1.882813,3.119141 v 2.175781 h 4.824219 v -8.238281 h -2.353516 z" />
  </g>
</svg>
